P2
80 60
159
143 144 146 153 146 144 144 147 150 150 155 152 155 153 151 148 156 152 154 142 143 143 145 139 145 138 136 139 136 135 129 135 133 135 133 134 134 132 136 134 131 130 130 133 128 131 129 126 121 121 125 128 127 129 128 133 128 125 121 123 120 120 117 115 115 111 112 114 114 112 108 108 104 102 99 97 99 96 98 93 
147 138 142 150 148 141 146 142 145 151 151 153 157 152 152 155 153 151 148 146 143 144 145 142 139 143 138 139 137 141 135 139 138 137 139 136 137 136 136 136 132 135 134 137 130 130 132 128 122 119 125 131 128 131 129 131 131 125 124 122 121 119 118 114 113 111 115 117 113 111 107 105 103 102 100 102 95 92 97 91 
143 145 150 150 146 145 146 147 150 154 151 153 155 156 150 153 156 153 153 146 144 147 144 143 139 143 144 142 142 141 143 140 143 142 144 141 138 141 139 141 137 135 139 144 142 140 138 138 130 121 129 130 133 132 132 128 131 128 124 127 125 119 116 118 118 118 117 118 114 112 109 107 107 106 103 102 102 97 94 98 
147 144 150 149 148 147 147 145 147 155 155 156 155 152 153 156 154 153 152 151 151 150 142 144 145 141 140 143 142 141 143 141 142 144 145 138 141 139 141 139 138 141 141 145 146 142 142 143 136 131 134 137 135 137 134 136 136 130 126 126 123 123 119 120 120 117 121 116 115 113 113 114 110 107 106 104 101 99 98 95 
147 144 149 149 147 148 146 148 149 156 154 155 156 155 156 157 157 151 153 149 151 146 141 143 145 143 140 145 144 144 142 144 144 146 143 141 141 141 142 139 140 143 141 147 145 144 144 146 140 134 140 139 141 139 137 136 138 132 130 127 127 122 120 119 124 122 122 120 120 118 113 116 111 110 108 104 102 101 101 96 
145 144 144 149 147 146 148 152 151 152 154 155 153 153 151 151 154 150 154 150 148 146 144 143 147 145 146 144 143 144 140 143 140 141 141 142 141 141 142 144 137 137 140 143 148 144 143 144 139 138 140 143 144 143 142 140 138 138 130 129 131 126 124 123 123 122 121 118 116 118 115 116 114 111 108 107 103 99 98 96 
145 141 146 146 148 149 149 150 152 154 155 155 153 150 153 153 154 152 153 150 148 147 147 143 143 144 144 145 141 142 140 143 145 142 141 140 139 142 143 142 140 140 140 142 145 145 146 146 142 146 144 149 146 150 146 144 142 138 135 128 132 127 126 124 126 126 123 120 118 115 119 118 115 114 111 112 103 104 102 96 
143 145 145 149 145 147 147 152 150 153 153 154 152 154 156 155 158 154 153 152 149 144 143 143 144 145 140 143 141 143 140 139 141 144 145 137 141 142 141 142 141 141 140 142 142 142 145 143 142 146 146 151 149 145 145 146 145 140 136 134 133 130 130 128 126 130 122 121 118 119 120 120 117 115 115 113 108 105 102 99 
144 142 147 147 146 148 151 151 154 155 154 153 154 157 156 157 156 156 154 156 150 146 145 144 145 144 145 143 145 143 144 140 141 144 144 142 141 138 142 138 138 140 142 144 146 143 147 147 142 149 149 151 148 150 146 145 143 140 138 140 136 133 134 130 129 133 132 128 128 126 124 118 119 121 113 111 111 109 106 98 
144 142 147 149 147 145 146 151 158 156 155 157 152 158 155 156 159 158 156 153 149 149 146 146 144 143 142 142 140 142 145 142 141 134 143 138 140 141 142 137 137 143 138 146 147 150 146 147 142 144 146 148 146 147 144 146 142 138 140 137 137 135 134 134 134 132 133 137 127 130 125 124 126 121 115 116 112 108 105 103 
144 142 144 148 147 146 153 155 156 157 157 153 153 156 155 157 156 156 155 152 148 147 145 145 142 142 142 143 141 138 142 138 137 140 140 140 143 143 141 139 140 141 140 142 143 144 147 147 144 144 146 153 150 147 146 144 140 140 141 134 134 134 130 133 135 134 132 132 131 127 126 125 121 126 127 121 116 111 107 108 
146 140 144 147 146 143 150 158 157 158 156 157 152 155 159 153 157 156 155 150 154 150 142 146 143 143 143 143 141 139 138 139 137 138 140 137 141 139 140 141 138 141 138 143 141 145 147 148 141 148 147 149 150 145 143 143 142 142 136 134 128 131 128 131 131 126 127 131 125 126 125 126 126 125 123 121 118 114 109 103 
143 141 146 148 143 147 150 152 156 156 158 153 158 155 156 156 155 153 149 150 149 147 145 142 144 142 142 140 140 138 139 138 134 138 135 140 143 137 136 137 137 139 139 139 140 143 141 144 145 147 150 148 147 146 143 143 138 139 134 131 130 129 127 127 127 127 126 128 125 123 124 126 124 121 122 118 115 117 108 107 
145 141 145 146 146 143 151 153 155 155 154 154 156 155 157 156 156 157 155 149 148 146 144 141 143 143 141 141 139 139 136 136 136 137 136 138 140 139 136 138 132 139 135 140 139 138 142 144 143 147 148 148 148 148 143 143 140 137 132 130 125 129 126 129 127 126 127 124 120 121 125 124 123 125 116 118 113 113 109 107 
143 139 142 145 145 142 148 150 152 154 156 154 155 155 155 155 157 157 151 149 145 144 141 140 142 140 138 140 138 138 138 137 139 137 136 135 139 137 135 135 136 137 135 140 138 138 142 141 144 144 145 147 148 146 142 141 139 136 132 127 124 127 123 122 123 123 121 125 121 122 122 122 122 119 119 118 113 113 110 108 
140 135 139 143 148 147 148 154 152 155 153 153 154 151 155 154 151 156 151 150 149 144 144 141 141 142 139 140 137 134 136 137 140 136 135 135 138 136 134 134 134 137 134 138 141 136 139 140 139 146 147 146 144 150 142 140 139 132 131 128 124 121 122 124 121 122 120 123 120 118 120 120 119 119 117 118 113 112 110 107 
141 137 143 143 143 145 149 149 154 153 151 152 153 151 151 151 153 152 150 146 146 143 140 134 138 141 139 138 132 135 136 135 137 136 140 136 139 136 137 133 132 135 134 138 136 135 137 138 141 141 144 146 147 146 143 138 137 134 132 128 124 123 117 119 122 120 121 120 116 119 117 118 119 120 119 119 114 113 112 104 
139 137 138 142 139 140 146 153 150 152 149 150 150 150 152 150 154 152 149 144 148 143 141 138 137 137 136 136 135 135 137 135 131 134 135 133 135 133 138 134 132 134 136 138 133 128 135 138 139 140 142 143 140 142 139 139 136 131 129 128 127 123 118 119 121 118 121 122 114 117 114 117 119 121 118 119 116 110 108 104 
139 135 136 141 140 139 146 148 149 152 148 149 149 150 153 148 153 151 150 144 142 140 136 138 138 132 132 134 132 134 132 133 129 132 130 132 134 131 133 133 133 135 134 135 135 134 134 136 141 137 141 142 140 141 138 134 133 131 129 126 122 125 120 124 119 121 119 119 120 119 118 118 122 120 118 116 112 111 109 105 
137 131 135 137 140 139 147 147 151 152 148 149 150 149 151 150 151 148 144 139 139 136 136 131 132 134 131 131 129 132 127 129 131 131 134 130 132 134 133 130 131 131 132 134 135 134 133 136 140 140 140 140 141 138 136 133 130 128 126 126 120 123 119 119 121 120 117 121 118 120 114 119 122 119 116 114 113 109 109 105 
134 128 132 134 136 141 145 142 146 149 145 149 146 145 149 147 148 142 137 135 136 130 134 134 128 127 129 130 129 129 126 126 128 129 135 130 132 130 129 129 124 128 132 133 134 136 133 131 134 139 139 138 137 138 134 135 132 129 126 121 120 121 118 115 117 118 116 119 119 113 116 119 121 118 118 114 111 111 108 107 
135 128 129 136 136 141 143 144 143 143 142 142 143 142 146 141 143 141 140 140 133 134 131 126 132 128 126 129 128 129 126 123 124 125 130 128 129 131 129 124 125 123 127 131 132 130 130 132 136 134 135 137 137 134 133 133 130 129 126 125 122 119 119 115 118 115 116 119 117 116 117 116 118 120 117 118 110 109 110 101 
130 123 128 131 134 137 140 138 142 140 142 140 139 141 140 140 142 141 135 138 132 133 129 127 128 123 126 125 124 124 125 121 123 124 126 123 128 127 120 119 117 121 122 126 132 126 128 130 133 134 136 138 134 133 132 133 128 127 127 124 117 118 114 116 118 115 120 120 118 115 114 115 116 116 110 110 110 106 109 101 
125 121 126 129 134 137 139 139 140 138 141 139 138 139 136 139 141 140 134 137 132 129 127 126 125 117 123 120 123 123 121 119 118 119 120 121 117 116 118 116 112 114 113 118 120 124 124 126 134 134 133 134 134 132 135 130 128 122 121 120 113 118 116 116 117 117 117 118 117 116 115 115 117 114 111 114 108 104 107 103 
121 123 125 127 130 131 136 137 137 137 134 136 138 137 136 135 133 134 132 132 131 129 127 127 124 120 117 118 119 117 120 116 117 114 116 113 114 118 112 113 110 116 114 113 116 116 120 125 129 132 128 129 131 130 128 127 123 115 113 114 113 117 115 114 116 117 118 117 115 117 113 115 115 110 111 107 105 104 106 106 
118 115 122 125 128 129 132 136 131 133 136 132 133 130 135 136 133 132 128 128 125 125 135 147 131 116 111 114 115 118 113 113 110 108 110 109 111 114 114 111 114 115 114 110 112 113 115 119 125 127 127 125 127 124 124 126 119 114 112 112 107 110 114 116 112 117 115 115 113 113 113 116 111 112 110 110 105 105 104 99 
120 112 119 123 126 121 122 125 130 129 124 130 134 133 134 131 132 132 131 126 126 124 124 130 117 104 105 104 105 105 103 101 103 97 98 100 100 111 109 108 111 112 110 112 112 115 113 120 121 125 126 122 124 125 122 122 116 110 112 108 106 106 112 111 113 114 111 115 115 113 112 114 111 108 106 106 103 100 99 93 
118 109 116 116 112 111 106 108 105 108 109 113 117 113 119 119 123 127 127 128 124 121 111 106 101 96 100 100 96 93 92 91 90 89 89 90 90 99 96 95 108 110 114 113 113 111 112 121 119 122 123 118 121 121 120 116 115 112 109 111 101 107 108 110 109 112 111 112 112 110 110 112 107 108 104 103 104 95 98 99 
117 108 108 109 106 103 99 96 97 96 95 99 100 98 97 98 100 103 108 113 121 114 102 99 98 93 93 93 95 91 89 89 81 86 90 88 85 91 90 92 105 112 112 109 110 110 110 115 122 114 119 116 121 120 119 113 107 106 108 105 105 104 106 107 111 110 106 110 107 112 109 107 102 104 101 101 98 98 97 93 
109 103 106 105 101 93 91 90 89 87 90 93 91 92 91 90 95 90 88 93 95 101 94 95 96 94 92 91 92 90 88 85 84 89 83 82 85 85 85 89 106 107 112 108 106 109 108 112 117 115 114 115 113 114 112 109 110 107 101 101 98 102 106 104 104 105 104 102 103 105 108 105 102 101 102 101 98 93 97 92 
106 101 101 100 96 88 85 81 81 79 87 85 82 86 87 87 87 84 82 84 83 93 88 91 92 89 89 85 89 92 89 87 85 87 86 82 87 85 85 90 98 103 103 102 102 107 105 110 113 112 112 115 113 113 113 113 104 105 100 98 99 102 101 104 101 103 99 101 104 106 99 103 98 98 97 96 99 95 96 88 
102 97 97 95 93 83 78 76 78 77 77 78 80 80 78 78 82 79 76 78 76 82 83 84 88 87 84 84 83 88 83 81 82 83 79 81 84 87 80 84 97 99 100 98 98 101 98 98 89 97 101 105 101 107 108 109 105 101 102 97 96 100 101 99 101 102 101 103 101 99 101 100 99 95 96 95 95 91 87 82 
98 93 93 92 83 74 71 71 71 70 73 72 75 77 72 72 73 70 69 70 68 75 78 81 84 82 84 81 83 80 82 81 80 76 77 79 78 81 78 83 91 96 93 93 94 91 89 90 75 76 80 82 84 96 99 99 101 105 102 98 96 98 95 97 96 97 97 99 96 95 95 96 92 90 90 90 85 89 85 86 
94 88 90 87 78 72 68 67 67 65 65 66 69 68 67 65 69 67 64 63 68 71 77 79 81 77 78 79 79 81 83 80 78 74 73 77 77 77 74 77 89 91 88 88 84 86 80 82 69 62 66 65 67 79 83 90 100 102 101 98 93 95 96 94 92 92 91 97 88 89 91 90 89 88 85 82 85 85 82 76 
90 86 90 86 77 71 66 62 59 62 61 63 67 67 61 64 62 58 60 57 60 71 71 74 77 74 76 75 74 83 82 76 77 73 72 72 71 68 71 75 85 85 80 83 81 76 74 74 59 52 53 58 59 78 83 92 95 98 95 92 89 90 93 90 88 88 87 90 88 90 86 87 82 83 80 78 78 79 78 77 
86 81 82 79 74 66 63 60 57 57 63 62 64 61 59 61 57 56 53 55 59 66 68 71 74 72 71 69 70 77 76 73 75 68 69 67 70 67 66 72 83 84 81 81 79 73 70 68 55 42 45 51 52 71 84 93 93 93 90 87 84 87 87 84 82 85 82 81 78 81 81 80 80 76 74 76 71 71 72 71 
87 80 81 76 73 62 60 61 56 55 57 58 57 58 53 55 53 52 51 51 55 62 64 67 67 69 70 69 67 71 73 75 70 69 65 68 65 65 61 71 78 79 79 81 78 72 63 62 43 36 36 42 46 64 86 92 86 93 87 88 83 83 83 81 82 79 76 79 76 78 79 76 75 72 68 71 71 67 68 67 
86 78 78 75 68 61 56 56 54 52 52 56 53 53 56 53 48 49 47 50 49 58 60 65 68 64 68 69 68 69 67 65 66 61 63 64 63 61 57 70 74 75 72 73 71 68 57 55 42 28 30 30 39 53 80 89 88 88 86 83 82 81 81 79 79 75 77 76 74 76 76 72 70 70 67 71 65 68 63 65 
79 72 74 72 65 57 58 53 55 50 54 54 51 53 52 48 45 43 42 46 50 60 59 63 67 63 67 67 65 65 66 67 67 63 66 64 61 56 57 67 70 74 69 69 65 62 54 48 31 24 23 21 29 40 63 79 86 85 81 83 78 78 80 78 74 72 72 72 71 73 73 67 65 65 64 63 62 63 60 56 
81 71 72 68 64 58 54 49 48 52 51 49 48 46 47 45 42 38 42 46 48 56 61 60 66 68 66 68 68 68 65 63 64 63 64 62 61 58 56 65 69 68 62 69 59 54 50 42 31 19 18 16 19 28 36 48 70 78 78 79 76 77 76 73 68 72 68 70 71 72 71 69 66 60 61 58 60 61 59 56 
82 69 71 63 60 55 52 48 48 49 46 46 45 47 45 44 39 35 39 43 43 56 60 60 64 60 63 61 65 65 62 67 62 60 61 59 60 57 52 63 63 63 59 60 56 52 42 37 30 20 19 14 11 17 26 29 46 71 77 73 74 78 73 71 67 67 65 68 67 66 67 68 64 59 58 60 56 52 53 50 
75 69 67 65 59 54 50 46 46 47 47 46 44 45 41 39 34 36 37 42 44 52 55 55 57 56 58 58 62 59 56 57 55 58 59 55 55 53 50 51 45 48 47 46 39 35 32 30 29 24 25 17 11 13 21 19 34 55 67 70 72 71 70 67 67 63 60 64 65 68 65 68 64 59 57 60 52 51 52 42 
74 65 65 59 54 51 51 46 42 44 43 45 43 41 42 38 37 35 40 40 43 49 49 51 54 51 55 56 53 56 53 54 53 53 55 53 55 51 47 43 37 33 29 23 14 11 20 23 26 24 21 11 11 8 15 19 25 44 64 65 65 67 66 64 63 58 60 62 64 64 69 64 61 56 56 56 55 52 51 47 
71 63 64 59 58 52 49 46 42 46 40 44 45 42 39 36 33 35 38 38 40 47 48 51 51 50 53 54 53 56 52 51 50 49 50 53 54 47 44 34 29 29 24 21 12 12 16 22 30 25 15 10 6 5 8 14 17 30 50 57 64 65 64 57 58 55 56 61 64 62 63 59 55 52 51 52 53 50 48 38 
69 61 61 54 57 49 48 44 46 41 42 39 41 38 38 33 37 34 36 37 40 49 48 48 50 48 51 52 51 51 47 51 50 53 50 52 49 51 42 32 28 27 21 19 10 14 13 21 30 26 16 6 6 3 6 11 9 16 40 54 56 61 60 60 56 54 57 58 62 59 58 56 55 53 48 50 47 46 50 40 
65 59 60 54 53 49 46 45 42 41 39 39 39 38 37 34 35 31 32 35 38 44 47 47 45 46 47 53 51 51 47 49 47 48 48 47 47 45 36 29 22 19 19 17 11 10 15 18 28 25 19 7 2 1 5 4 5 10 25 47 53 57 55 55 55 51 53 52 57 57 58 55 52 48 50 47 44 44 46 40 
68 57 60 54 52 48 49 46 41 38 43 40 38 39 36 32 34 30 28 31 34 44 44 47 47 47 44 48 46 50 47 49 50 45 47 45 43 41 38 26 24 20 23 15 11 12 15 17 29 24 17 6 5 0 6 5 5 7 16 40 49 51 54 53 55 51 54 53 52 53 53 53 52 48 45 44 43 43 39 37 
62 54 60 54 53 48 45 42 45 42 41 39 38 37 38 31 31 29 28 25 34 43 43 48 48 48 43 47 47 49 46 45 44 43 43 44 40 37 32 24 21 17 19 12 11 11 10 17 26 25 22 9 3 1 5 6 8 6 12 30 45 50 54 51 49 47 48 48 49 49 51 53 46 43 41 38 40 38 39 34 
67 54 55 54 51 45 45 42 41 39 43 36 36 36 34 32 32 28 26 24 32 41 44 43 46 43 44 44 44 47 45 45 47 46 44 40 39 34 29 18 17 18 12 7 10 8 8 14 24 22 21 11 5 3 2 5 4 4 6 16 38 46 49 47 48 45 45 49 46 42 45 44 45 42 36 43 39 37 32 32 
63 49 56 56 49 44 42 42 43 46 40 35 36 36 34 29 27 27 27 28 34 37 45 40 45 41 44 43 42 46 43 46 44 39 41 37 36 34 26 15 12 14 10 6 8 8 10 14 11 17 18 13 7 5 2 4 4 7 9 10 32 45 45 46 46 45 40 44 42 41 42 42 45 38 37 36 40 35 36 29 
59 53 53 53 50 50 46 42 44 38 38 39 38 34 35 31 33 31 31 32 36 40 40 44 42 42 41 46 43 40 41 38 42 38 39 35 36 32 23 15 13 10 9 4 7 9 14 14 11 10 11 13 10 4 3 5 4 5 5 8 20 38 41 40 43 44 39 39 40 41 36 41 37 36 35 32 39 32 33 27 
60 57 53 57 55 51 48 46 43 42 40 40 40 39 36 35 34 38 36 35 37 41 40 40 41 41 38 42 42 43 42 39 43 39 40 35 29 28 20 19 13 13 8 9 11 11 13 15 13 9 13 11 9 7 3 7 5 8 9 6 15 29 38 40 40 39 40 40 35 37 38 38 36 34 36 34 32 29 30 25 
63 53 58 56 53 49 46 44 44 43 44 41 42 40 37 42 40 42 38 36 40 39 40 39 38 36 40 37 35 39 38 37 42 35 36 35 29 27 25 22 15 15 12 14 14 16 21 17 14 9 13 10 9 9 9 11 9 10 9 11 14 29 36 36 37 39 39 41 37 36 39 39 32 32 32 31 28 29 28 25 
63 56 58 57 56 53 49 47 44 43 43 42 43 42 42 45 44 40 40 38 37 36 34 35 39 36 37 35 35 36 34 35 37 33 36 32 27 24 32 26 19 22 20 21 22 21 22 25 20 15 16 14 14 12 14 15 13 11 11 13 18 21 34 36 41 40 41 40 39 39 40 37 33 30 32 32 23 26 28 23 
61 56 62 61 59 51 49 48 46 42 41 42 43 40 42 47 42 44 40 42 36 34 33 32 31 32 32 30 33 34 29 31 33 28 31 29 25 23 31 30 25 25 24 28 28 28 30 32 25 18 18 20 15 17 20 20 17 18 14 19 24 28 33 34 39 43 41 36 38 37 36 34 29 33 31 28 26 26 26 22 
62 56 60 60 55 52 50 47 45 46 42 44 43 44 44 44 46 45 42 39 36 37 32 33 33 33 32 29 29 30 27 31 31 30 27 28 24 22 30 29 28 30 26 29 29 31 32 34 28 23 21 20 20 19 22 23 19 19 17 19 24 30 31 32 36 39 37 37 38 42 34 33 31 29 25 24 25 20 27 24 
65 59 63 61 56 50 48 46 44 43 43 43 43 43 43 43 46 46 44 43 41 35 36 33 35 35 32 30 31 31 29 34 34 32 32 32 28 23 28 28 27 28 28 32 34 30 33 34 30 25 24 25 21 24 23 22 19 22 22 21 26 30 30 34 36 34 34 36 36 38 35 30 29 28 26 26 22 21 20 20 
66 62 63 62 56 52 50 46 46 48 44 44 43 42 46 43 44 46 45 42 41 41 38 34 35 33 34 34 29 34 32 30 34 31 32 33 31 28 30 27 26 29 27 33 31 31 27 34 31 23 26 24 20 22 24 22 26 20 24 25 30 31 31 30 34 34 34 35 32 30 29 28 29 27 22 20 18 18 24 16 
72 65 65 64 61 57 57 49 49 49 48 47 48 44 47 46 49 51 46 43 41 37 36 34 37 38 33 34 34 35 36 36 31 34 37 36 34 29 31 30 27 30 30 31 33 32 33 41 32 27 24 27 25 27 25 23 20 23 26 29 33 34 30 32 35 35 35 34 34 30 28 30 27 24 22 26 21 21 21 18 
78 64 67 65 65 54 60 49 49 55 50 55 48 48 50 50 49 50 48 47 43 43 39 37 36 34 31 36 35 34 34 37 37 36 37 38 37 30 31 33 33 33 37 43 37 39 37 41 29 25 22 24 25 28 25 25 25 28 34 34 38 38 36 31 40 36 35 39 38 32 31 34 32 24 27 25 26 21 25 20 


