P2
80 60
161
141 135 132 140 142 142 143 140 145 145 151 153 152 153 148 149 153 155 153 150 149 146 144 138 140 137 139 137 134 133 132 129 136 135 130 134 133 132 133 134 130 127 128 132 125 125 127 118 123 122 126 127 126 125 128 126 124 124 120 122 115 112 109 109 110 111 111 114 110 106 104 103 102 101 97 97 95 97 92 93 
137 140 134 143 143 141 141 144 141 148 147 152 154 153 154 155 152 151 154 154 149 144 144 140 144 140 141 136 140 139 137 139 140 139 140 139 138 140 137 136 137 133 131 132 131 130 129 123 124 121 127 130 128 130 130 128 129 123 122 121 117 113 110 112 113 115 113 113 113 109 106 104 103 101 98 99 96 92 96 97 
142 138 139 142 144 143 143 147 145 148 151 152 155 153 153 155 154 154 154 154 150 145 145 141 141 140 145 143 143 142 141 142 143 142 141 140 140 144 139 141 139 135 141 142 141 136 136 136 122 123 129 131 133 129 130 127 130 128 119 121 119 116 112 111 117 112 115 114 108 107 105 107 107 104 94 100 96 95 92 93 
141 144 139 143 143 145 146 145 145 151 155 151 154 151 154 155 154 154 157 153 150 149 144 142 143 142 145 142 145 143 141 141 142 145 143 140 143 141 145 141 140 141 142 143 141 142 144 141 136 135 136 135 136 135 134 130 132 130 124 122 120 117 116 115 117 118 121 117 113 114 108 110 109 105 104 104 100 96 97 94 
143 142 141 145 143 145 143 150 150 152 155 155 156 154 154 152 155 155 155 153 153 148 140 144 146 143 144 141 143 142 141 143 145 147 144 140 142 144 141 141 140 141 140 144 144 143 144 144 141 139 139 137 141 137 137 135 135 130 130 125 123 121 118 118 123 120 116 116 117 115 110 112 108 110 105 107 101 99 97 96 
142 143 139 142 143 146 147 147 150 149 154 160 154 154 156 152 156 153 156 152 153 147 145 143 143 145 147 143 146 142 144 142 143 142 140 142 142 145 143 143 142 141 142 141 145 147 147 145 144 142 144 144 146 142 140 139 137 136 129 129 127 127 120 120 122 120 121 119 117 115 114 111 114 112 107 106 102 103 97 96 
143 141 140 146 145 148 148 149 152 153 153 159 158 153 156 152 157 156 154 151 152 149 148 143 144 145 144 143 143 143 142 142 142 143 141 145 141 146 141 142 144 141 141 142 143 145 143 146 145 151 144 147 146 145 144 140 143 135 130 126 128 127 121 120 123 122 124 118 119 119 115 114 115 113 110 109 106 101 100 97 
134 141 138 142 141 143 147 153 150 152 152 154 152 155 156 154 156 153 157 154 153 147 143 142 142 144 142 142 143 142 140 139 143 146 143 139 140 143 138 140 138 138 141 142 143 144 145 141 143 151 149 149 149 147 144 145 143 139 132 131 130 129 122 125 121 127 123 123 117 117 117 116 115 118 109 110 105 106 99 102 
139 140 140 143 143 147 151 152 152 152 153 155 158 155 155 153 158 157 155 157 155 150 144 144 143 144 145 142 144 142 142 140 143 142 145 141 145 143 142 138 138 140 143 143 145 140 146 143 143 149 151 151 149 146 144 142 144 140 138 139 132 128 127 125 129 131 127 127 125 124 119 117 118 117 111 108 107 108 106 104 
140 139 140 141 143 146 152 151 157 154 156 155 150 157 159 154 158 160 159 155 155 151 148 145 145 147 144 145 144 141 143 140 143 137 141 142 143 143 140 142 137 139 138 142 144 144 146 142 144 151 152 149 149 149 144 144 141 139 137 137 135 132 132 131 129 131 134 131 128 125 124 122 124 122 117 114 112 108 106 105 
138 142 138 142 143 147 152 154 154 156 155 155 156 156 158 155 160 158 158 156 155 152 149 148 144 145 146 142 142 140 143 142 142 140 141 142 145 144 141 141 138 139 140 140 142 145 145 145 145 151 150 153 150 148 144 139 142 135 138 132 132 130 126 128 134 130 129 131 131 125 124 123 123 124 121 120 113 114 108 103 
139 137 142 144 143 146 151 155 158 159 156 157 156 156 161 155 156 155 159 156 158 152 146 149 145 144 146 143 140 140 140 139 139 137 139 140 142 141 139 141 140 140 140 141 139 141 146 145 143 150 152 150 150 145 143 140 143 139 137 133 129 128 124 126 130 128 127 128 127 124 122 123 125 121 122 117 114 113 106 107 
140 138 140 142 140 147 150 151 156 153 158 152 157 158 157 156 157 155 159 156 156 149 149 146 144 144 146 142 141 139 142 138 135 138 136 142 142 139 137 134 138 138 138 138 138 142 140 143 144 151 150 149 147 144 143 141 138 134 133 129 126 126 126 122 126 126 129 126 122 120 125 122 123 121 119 115 114 115 111 113 
142 141 139 141 143 147 151 154 153 155 155 155 156 159 155 156 155 156 159 154 152 147 145 142 143 145 146 141 140 141 137 135 137 137 137 139 141 140 137 137 134 138 135 140 138 138 141 138 145 148 150 149 149 147 145 139 137 135 136 129 124 127 121 121 121 126 124 122 120 119 122 122 122 124 119 117 116 115 111 105 
141 140 139 142 143 147 151 151 154 157 154 156 154 156 158 158 158 160 156 156 154 149 142 143 143 143 142 142 143 141 140 137 139 138 136 139 138 139 137 136 135 137 140 139 138 140 140 140 145 150 149 150 148 143 144 140 136 136 131 124 125 124 120 119 123 121 121 122 120 117 120 118 122 119 114 116 113 114 108 107 
140 138 136 143 147 147 153 152 154 157 153 155 154 155 155 155 155 154 158 158 152 148 144 141 143 143 142 140 138 138 140 140 142 141 139 138 140 138 133 135 139 137 137 138 142 139 140 141 145 148 151 146 148 148 144 140 136 135 130 127 126 122 119 118 120 121 120 121 119 118 120 117 120 118 116 118 114 113 107 107 
139 141 137 141 144 146 149 152 158 154 152 153 155 155 154 153 154 155 156 153 152 148 143 137 141 141 141 141 139 141 137 137 139 139 140 139 141 140 136 137 137 135 138 139 139 140 139 141 145 145 147 145 148 144 142 139 137 135 130 128 124 123 117 116 122 118 116 119 117 118 118 115 118 121 121 117 113 116 106 109 
131 136 133 139 140 148 151 149 150 151 151 152 154 153 152 154 154 156 157 155 151 147 143 140 139 137 139 136 136 137 137 135 134 139 135 136 138 137 138 133 137 135 138 138 137 132 134 138 144 144 146 148 141 139 139 136 134 132 126 126 125 123 118 116 117 119 120 121 116 116 115 116 116 118 116 116 110 110 105 103 
135 131 127 136 140 142 146 152 150 147 149 150 151 150 151 147 152 152 151 150 149 144 139 138 137 132 136 135 131 134 134 133 133 136 133 134 137 134 135 131 133 134 138 134 134 137 135 136 145 141 145 142 139 140 136 132 132 127 127 124 123 121 119 117 115 120 120 117 118 117 117 116 122 117 117 116 109 113 104 102 
133 130 130 133 137 145 148 150 146 148 152 150 153 151 155 151 149 152 149 145 149 141 139 133 136 133 134 133 131 133 129 130 135 133 132 131 133 136 134 134 132 132 135 132 135 136 135 134 143 143 146 139 140 138 136 133 131 127 124 122 118 117 117 115 117 116 120 119 119 116 115 118 123 118 119 113 109 109 105 107 
132 132 127 132 135 140 146 145 148 148 145 148 148 146 150 148 147 146 144 141 147 138 136 136 132 129 132 132 131 130 130 130 130 131 135 133 135 132 131 129 126 128 134 133 133 136 134 133 136 143 142 136 137 135 130 132 129 127 123 121 120 117 114 117 115 115 116 117 116 112 115 118 120 118 115 114 111 112 106 107 
131 127 124 135 131 141 143 143 147 144 144 144 145 144 147 142 146 146 141 141 140 138 130 126 129 128 126 129 128 129 127 125 127 125 129 128 134 129 130 128 128 126 130 132 130 131 132 132 139 140 139 137 137 137 134 135 132 130 127 120 120 115 118 114 117 116 117 117 115 116 117 118 116 116 115 115 108 107 107 103 
125 123 124 126 131 135 141 139 139 140 144 142 144 142 143 139 143 143 139 139 135 138 129 127 127 124 129 124 126 127 128 121 124 126 129 123 128 127 120 125 120 122 123 126 130 125 127 128 137 137 139 138 136 134 131 132 129 126 124 124 120 113 114 114 116 117 119 117 117 111 112 115 114 118 111 113 107 106 106 102 
124 122 120 128 129 137 137 142 139 138 141 138 142 139 141 137 142 140 140 136 133 128 125 124 125 121 121 119 122 119 121 120 119 119 120 122 120 118 117 115 116 114 116 115 119 122 123 127 138 137 135 136 132 131 132 130 125 124 122 119 114 112 115 112 115 114 115 117 118 114 117 114 115 110 112 111 106 106 101 100 
120 121 117 123 126 135 137 135 138 136 139 135 142 136 137 136 134 135 134 135 135 128 123 123 122 119 120 119 117 118 118 116 117 116 116 114 114 116 112 114 112 114 112 112 112 114 117 122 131 135 131 127 130 126 126 126 122 115 112 116 116 112 112 114 112 117 115 114 112 113 113 113 115 109 110 105 106 106 99 95 
118 119 115 119 123 129 134 134 131 127 135 134 136 133 136 134 136 135 133 129 129 125 121 123 134 118 111 113 115 113 110 111 111 104 108 104 107 108 109 110 112 114 113 111 110 115 112 121 129 133 128 128 127 124 124 125 118 119 111 115 110 110 113 113 110 118 114 114 114 113 113 113 114 109 108 108 102 104 97 98 
118 116 115 117 122 121 126 122 127 126 126 129 137 132 131 131 132 129 132 131 127 125 121 127 134 111 102 100 100 103 99 99 96 94 91 92 100 100 88 100 112 113 110 112 110 112 115 118 124 130 128 124 125 125 122 119 118 113 112 113 106 107 111 108 110 111 113 113 113 112 113 110 111 110 107 104 100 102 98 101 
113 109 111 113 109 113 106 106 106 106 111 113 119 115 119 118 121 127 129 131 128 124 120 115 108 97 97 96 93 94 89 88 88 88 85 87 86 88 89 101 110 110 112 110 112 110 109 116 122 125 126 120 119 124 119 120 113 113 112 114 105 107 107 109 108 111 113 113 110 109 109 106 106 107 106 100 102 100 95 96 
114 108 104 108 104 105 101 98 98 95 96 100 108 101 100 96 101 103 113 117 123 122 118 106 100 92 92 89 93 90 83 86 84 85 86 85 87 86 88 104 107 112 110 110 106 109 111 113 121 122 119 119 118 118 118 112 108 107 107 107 103 104 104 104 106 106 106 110 106 110 109 104 107 104 101 98 99 103 97 94 
108 104 100 102 103 97 94 90 91 88 96 91 93 97 93 97 91 94 95 96 103 108 109 99 94 92 89 89 91 87 85 79 79 83 79 81 82 86 81 103 109 111 109 108 105 107 107 113 118 119 118 117 112 118 114 110 108 105 104 105 100 102 106 106 106 107 103 107 106 105 104 102 104 98 100 102 99 95 93 90 
104 103 95 100 94 91 87 85 84 82 87 84 87 90 91 88 88 86 83 83 90 101 101 93 92 88 88 85 88 87 88 80 82 81 79 78 81 80 86 103 103 106 104 105 100 104 105 109 113 115 113 115 115 113 110 109 104 103 102 98 98 101 101 105 102 102 102 104 100 106 102 100 99 96 98 96 96 96 91 90 
100 98 92 94 89 85 80 81 75 80 79 80 86 84 80 79 81 79 79 83 83 83 90 85 84 83 83 82 83 87 81 79 80 78 72 74 80 83 82 93 101 99 103 98 98 101 98 96 91 102 103 101 102 109 109 109 103 103 102 95 100 98 100 103 101 99 100 100 99 101 102 97 97 95 98 92 90 93 81 85 
98 91 88 92 79 79 77 73 75 72 75 75 78 81 80 79 75 77 74 75 74 78 87 80 80 82 83 82 80 78 82 79 77 74 77 73 80 76 80 95 96 96 95 91 91 93 90 88 77 78 79 81 84 95 98 98 103 104 100 101 97 98 93 98 98 96 99 97 94 94 94 93 94 90 87 88 86 90 83 84 
91 92 86 87 77 74 71 69 67 68 68 72 71 73 70 74 70 71 68 71 73 74 83 77 77 75 77 78 75 80 82 81 72 71 71 75 73 76 76 91 88 91 90 85 85 86 81 80 69 65 69 68 69 78 87 88 97 103 102 98 94 92 94 93 94 92 94 95 90 89 89 87 88 87 85 87 84 87 80 78 
89 87 80 82 74 73 68 65 63 64 62 66 69 72 66 67 63 63 65 65 65 71 77 72 72 75 73 73 70 79 79 82 74 73 70 72 72 69 73 89 87 88 82 82 82 79 75 71 64 59 56 58 60 78 84 92 95 98 93 91 89 89 90 89 87 86 90 88 87 84 83 83 85 82 79 78 75 83 76 76 
88 84 79 79 72 68 64 60 63 60 66 65 66 63 64 65 59 59 58 62 64 70 73 70 70 70 69 69 67 75 74 68 69 64 67 67 66 63 69 85 83 82 83 79 80 75 70 69 54 47 47 50 54 73 87 94 92 91 89 85 87 83 84 82 83 81 82 78 82 79 79 78 77 76 74 73 70 76 73 70 
85 81 72 73 71 63 65 61 55 57 59 63 63 61 57 57 55 54 55 58 61 64 66 63 64 69 68 68 67 68 72 74 66 64 63 66 65 63 68 81 82 80 81 78 77 73 62 61 48 38 40 43 47 66 86 92 86 89 90 85 87 79 80 80 83 79 77 78 78 75 75 73 74 71 69 69 70 71 69 67 
85 81 74 74 67 65 59 56 54 55 58 57 58 56 58 57 53 52 52 54 58 59 63 62 66 68 66 65 65 66 64 63 63 61 61 63 62 62 68 78 79 77 75 69 70 70 61 56 44 32 33 32 40 54 82 87 88 84 86 83 85 81 79 78 78 76 76 75 76 75 77 70 68 69 65 64 66 67 63 61 
81 74 72 70 65 61 63 55 57 50 57 55 54 56 56 50 47 48 50 54 55 60 61 59 66 65 67 67 64 63 63 65 65 64 63 64 59 56 67 74 75 76 71 70 66 60 54 48 35 29 27 24 30 43 62 77 86 84 84 81 81 76 78 77 76 72 72 72 74 72 73 69 69 69 61 62 63 64 62 56 
77 72 70 66 58 59 59 51 49 49 53 52 53 51 50 47 40 43 47 54 52 53 58 57 60 66 65 67 64 62 61 58 62 63 62 62 55 56 65 71 71 68 65 67 60 56 49 44 34 27 22 18 21 30 37 48 69 78 77 78 77 76 76 72 71 69 66 66 70 71 68 69 63 64 61 58 57 64 61 56 
75 74 67 64 60 59 55 50 50 48 50 51 52 50 46 47 42 39 45 46 48 53 57 57 63 60 64 63 65 61 59 60 59 59 59 60 58 54 60 66 64 63 62 61 58 53 43 35 33 25 20 17 14 20 25 30 44 71 74 74 75 73 71 71 67 65 62 66 68 69 67 64 63 61 59 55 56 59 52 52 
73 71 63 66 57 55 54 47 51 46 52 50 49 47 45 42 40 41 41 46 48 55 50 53 57 57 60 57 60 54 56 58 55 60 60 55 54 51 56 53 50 49 49 47 39 39 35 32 33 27 31 18 13 13 20 21 35 58 68 71 71 72 68 68 65 61 60 64 63 68 66 63 65 61 58 57 54 55 48 54 
73 67 61 61 57 58 50 46 46 42 46 47 46 45 46 38 42 36 43 45 49 49 50 52 56 52 55 54 55 58 55 55 55 55 54 53 53 46 54 45 37 35 31 27 15 15 23 26 26 29 24 11 8 10 14 14 26 42 62 65 68 67 64 61 60 57 57 62 62 62 68 60 61 55 54 53 54 52 48 48 
72 63 59 59 55 56 52 47 44 45 45 45 44 44 42 40 37 38 43 44 43 47 50 51 52 50 54 52 53 56 51 51 49 55 52 49 51 47 49 40 31 29 26 25 16 18 20 27 34 31 17 11 8 8 10 17 18 29 50 59 65 61 60 60 59 55 58 61 62 62 62 60 58 54 51 49 51 52 47 44 
64 63 55 55 54 53 50 47 45 40 44 44 45 43 41 38 40 37 41 42 41 44 48 50 49 45 51 48 51 51 47 49 49 50 53 50 48 48 49 36 30 29 24 23 15 18 18 24 32 33 20 6 4 3 6 9 9 17 39 52 55 60 58 58 55 54 56 56 59 57 57 56 52 55 51 51 45 49 39 44 
67 60 53 57 52 53 49 46 44 42 40 43 42 35 41 35 35 36 37 40 37 35 46 47 47 48 47 47 46 50 46 47 49 50 49 48 48 44 42 31 25 24 22 21 15 17 20 21 28 32 22 9 5 3 8 7 6 8 25 50 53 56 56 55 49 53 52 53 54 55 53 56 53 50 49 48 44 45 37 41 
62 58 52 53 48 46 51 47 41 43 40 41 42 41 41 37 38 34 37 33 31 36 43 45 48 47 43 46 45 48 46 46 50 48 47 46 44 42 44 30 27 24 26 20 14 19 19 20 31 32 20 10 5 0 4 3 8 7 14 39 48 54 53 48 49 49 52 51 51 51 54 52 49 48 40 46 44 44 39 40 
60 58 51 53 50 49 49 45 45 41 41 42 44 39 40 37 33 33 32 29 30 34 40 44 48 46 48 47 44 46 44 44 46 47 44 44 42 37 37 28 23 23 24 18 15 18 15 21 28 32 24 11 6 1 1 4 6 5 11 28 45 49 51 45 48 44 49 47 49 47 47 51 46 44 40 39 40 41 34 33 
58 56 49 53 51 46 50 46 42 41 44 40 42 39 38 36 36 32 33 31 29 32 39 40 46 47 47 45 46 47 44 45 45 46 45 41 37 36 34 21 21 20 18 12 15 16 14 18 25 29 24 16 6 5 2 5 6 7 6 18 38 48 48 47 47 47 47 47 47 45 43 43 42 40 38 41 39 39 33 28 
57 53 49 53 51 50 42 42 40 44 42 40 42 37 38 34 31 34 34 33 29 35 39 44 47 43 43 44 44 47 47 45 44 43 41 39 33 35 31 23 19 18 17 11 10 13 14 15 15 21 25 15 8 6 1 4 4 7 6 9 35 46 43 44 47 44 45 41 44 40 39 40 46 39 35 37 39 38 33 33 
58 57 47 54 49 50 46 48 43 45 42 42 46 37 37 36 36 39 35 38 31 37 38 38 43 41 42 41 45 43 47 42 42 43 38 37 33 31 27 17 19 16 15 12 12 15 17 15 19 16 14 15 11 6 4 4 6 4 7 10 24 39 44 39 45 44 45 41 43 40 38 39 38 41 35 36 36 35 32 30 
61 58 49 56 53 56 49 45 42 44 40 40 41 42 41 39 38 42 40 42 36 40 39 39 42 41 41 40 40 44 41 40 42 38 38 34 33 30 27 20 18 16 14 15 12 17 19 16 18 13 14 11 11 7 5 9 7 6 8 8 16 34 38 42 39 40 39 40 38 37 36 36 36 33 32 32 37 36 30 33 
60 56 52 55 52 50 49 45 45 44 42 41 42 44 41 44 41 45 43 42 41 39 39 38 41 38 40 36 37 38 39 41 39 37 33 34 30 33 29 26 23 19 21 15 17 20 20 18 17 17 14 13 12 11 8 11 6 9 11 7 19 25 35 36 39 40 38 39 39 36 38 39 37 35 32 30 32 29 25 26 
56 59 57 60 54 54 51 48 45 44 40 45 44 46 46 48 45 43 46 44 44 37 35 32 37 35 35 33 37 35 34 37 36 35 34 33 30 33 35 27 27 20 24 22 23 25 24 25 23 20 20 19 16 14 13 14 11 10 13 12 19 24 30 37 39 41 38 41 42 38 39 35 31 33 32 30 30 28 25 26 
61 56 58 55 51 55 50 47 47 41 41 45 45 42 46 46 44 46 46 48 41 36 35 33 33 31 33 30 33 34 31 34 32 30 28 27 28 34 38 31 29 28 28 29 31 30 28 32 27 25 24 20 18 18 19 16 15 15 14 16 22 25 31 34 38 42 40 40 41 35 36 33 32 31 27 29 28 25 24 20 
59 57 55 59 54 55 49 46 46 45 43 48 46 45 46 45 48 48 47 47 46 40 35 35 36 32 33 29 29 30 28 27 31 31 28 26 27 36 35 32 33 30 30 28 32 30 34 33 33 27 25 24 23 20 24 25 20 20 18 20 25 33 31 32 33 42 37 39 39 38 35 31 31 29 27 24 25 25 21 21 
61 58 56 56 54 54 53 50 44 47 44 48 48 47 46 47 50 48 51 47 46 40 37 34 37 35 35 29 34 32 31 34 34 32 27 28 28 36 33 33 32 29 33 33 32 35 29 34 32 29 26 27 24 22 22 22 21 23 22 23 29 31 33 29 32 34 36 36 38 37 35 30 32 28 26 24 21 23 18 22 
66 63 59 63 57 59 53 50 45 48 48 50 50 49 49 47 48 50 51 52 45 41 38 37 36 35 34 37 32 33 33 32 35 34 32 28 32 35 31 29 35 33 31 34 34 30 35 34 34 29 28 27 24 23 27 22 27 22 24 28 33 32 29 26 35 38 36 37 35 31 30 29 29 27 23 19 20 23 21 19 
71 64 61 63 57 61 57 50 49 48 51 48 51 50 53 48 52 52 52 51 48 40 39 36 36 37 34 38 37 32 36 36 36 41 37 35 36 34 33 31 32 34 34 34 36 37 35 39 35 31 27 28 26 26 27 22 24 27 27 29 31 36 32 33 35 36 39 35 35 30 29 26 32 25 22 24 20 24 21 22 
78 65 61 67 59 61 64 55 48 51 51 57 50 51 54 53 48 55 55 52 53 45 38 38 34 36 33 37 37 36 33 37 40 43 41 39 38 35 33 39 34 35 38 42 38 35 41 40 37 29 28 27 28 28 32 28 28 29 33 37 40 37 32 30 37 38 39 37 37 30 29 28 31 25 23 26 21 22 20 20 


