P2
80 60
154
134 136 134 138 142 138 144 146 147 144 146 148 145 138 138 136 136 133 135 133 124 121 118 117 119 119 116 116 116 113 114 117 121 122 114 117 118 120 118 120 114 113 116 114 115 114 110 108 108 111 110 110 114 111 110 108 107 106 102 105 105 98 99 96 100 99 96 98 94 96 92 90 89 90 84 83 80 82 75 73 
137 135 136 138 136 142 144 143 141 144 146 145 145 140 140 138 136 131 131 132 124 125 122 117 119 118 117 117 116 114 116 115 122 122 123 119 122 119 116 118 121 117 115 117 118 113 112 107 108 110 111 112 112 111 113 111 111 111 108 99 102 101 102 103 101 104 97 98 97 95 90 93 91 87 83 83 81 82 74 79 
134 136 135 137 140 138 145 147 148 147 148 143 143 140 142 140 136 134 132 130 125 123 121 123 122 121 120 119 114 118 115 117 124 125 124 124 127 127 123 125 126 122 122 121 121 120 117 114 116 112 113 115 116 112 114 111 110 110 108 106 105 103 103 104 104 102 100 99 101 97 95 91 92 91 85 84 83 80 80 79 
134 136 131 137 143 138 146 148 146 146 149 144 144 142 143 140 137 137 136 132 127 123 123 122 125 120 120 116 119 117 120 123 128 129 128 124 128 128 127 126 126 122 126 129 130 127 124 120 118 116 121 118 120 117 112 115 115 113 113 108 105 104 108 106 103 104 101 101 103 99 95 98 94 93 91 90 83 84 84 82 
133 138 137 135 143 141 144 148 145 146 146 145 144 142 140 140 139 133 135 130 124 124 124 122 123 121 119 117 116 123 122 125 131 129 129 131 128 129 130 131 125 127 128 127 129 129 124 121 120 119 126 124 121 119 119 118 119 113 113 108 106 108 110 108 105 105 101 104 100 103 102 99 99 96 91 89 90 88 81 79 
137 139 135 139 138 146 151 152 151 148 151 147 145 144 145 139 141 136 138 133 124 123 122 121 125 123 122 123 122 119 126 128 128 132 128 129 132 129 129 127 128 130 133 130 135 129 126 125 127 127 130 125 127 125 117 123 117 116 113 113 112 111 109 109 112 109 105 106 105 104 102 100 99 98 96 93 91 89 86 88 
135 145 142 137 146 145 148 150 152 147 145 146 145 145 143 143 141 140 138 133 125 125 126 121 124 122 121 123 120 125 127 125 128 129 129 130 130 128 125 127 126 129 131 130 132 132 130 130 133 133 132 130 130 126 126 121 123 117 117 115 114 114 115 110 110 108 109 106 105 106 106 103 104 100 96 96 94 92 91 87 
139 136 136 143 143 148 149 149 148 148 148 146 146 144 143 143 139 138 138 133 130 125 127 126 121 122 123 124 123 121 123 125 129 129 131 129 131 128 129 127 128 128 128 133 129 130 129 130 137 133 139 135 137 129 131 124 125 120 120 120 119 119 115 113 111 113 110 109 109 111 105 104 105 106 100 94 94 95 93 94 
135 138 138 141 146 149 151 145 148 149 148 148 145 144 148 143 144 141 141 137 126 125 126 125 123 125 126 123 123 122 123 127 126 129 132 128 129 129 127 131 126 128 124 127 129 131 131 132 137 131 138 137 136 131 130 129 127 125 120 121 124 119 120 113 113 114 115 110 111 111 108 108 108 106 103 97 99 96 98 93 
134 144 138 145 145 149 151 147 146 151 150 147 148 148 145 139 141 140 137 135 132 129 124 123 125 126 128 126 124 121 125 127 131 132 131 131 131 129 128 126 127 127 129 130 132 133 135 135 138 136 139 135 135 132 127 130 126 128 124 125 122 121 119 120 118 118 114 115 116 112 111 109 109 109 108 104 100 99 99 96 
136 139 138 141 146 148 150 148 150 146 148 149 148 145 145 147 143 144 142 137 127 127 124 124 128 123 125 125 122 121 124 125 131 129 132 131 132 127 128 130 128 127 127 126 128 133 135 135 141 136 137 133 131 130 128 127 122 124 122 119 123 118 118 117 118 116 120 116 116 115 114 112 115 112 108 108 104 103 99 98 
139 140 138 141 149 150 151 147 150 151 147 148 148 144 144 141 145 141 139 137 130 129 123 128 127 127 125 122 125 119 126 126 128 126 131 133 131 132 127 127 132 127 126 127 130 132 131 137 143 138 137 135 134 130 127 125 125 124 121 120 118 117 120 118 118 118 117 116 115 118 117 111 111 113 109 111 106 104 98 97 
136 141 138 143 148 150 150 151 149 150 147 147 149 144 143 145 146 139 139 134 129 127 126 125 125 120 124 122 121 120 121 125 128 132 129 132 133 130 129 130 128 128 127 128 129 134 134 136 139 137 137 134 135 130 129 127 127 122 121 118 115 115 118 117 116 114 114 114 116 113 117 112 112 114 112 109 112 107 102 102 
137 144 141 141 150 153 151 154 149 150 150 146 145 144 142 142 144 142 140 132 129 125 125 124 123 118 122 121 118 122 123 123 125 131 128 131 130 128 131 127 127 127 126 128 126 130 132 136 141 137 136 138 134 132 128 128 127 125 121 117 116 115 119 115 112 114 117 112 114 113 113 112 112 110 111 112 109 110 104 96 
141 142 139 144 150 153 152 153 151 152 150 146 146 143 145 145 142 141 139 133 129 126 123 125 125 121 124 122 120 121 121 125 127 130 126 129 128 132 126 130 128 127 129 130 128 129 134 139 136 135 138 136 136 131 128 125 126 125 122 115 115 115 117 113 114 113 112 112 113 114 111 113 115 112 112 109 111 111 105 102 
140 143 140 145 148 151 153 154 151 149 148 145 149 144 145 142 142 139 138 135 130 123 122 122 123 120 122 122 122 121 121 122 125 126 125 127 128 128 123 127 125 126 129 129 133 130 132 138 138 135 137 132 133 131 127 124 123 119 120 115 116 116 116 114 115 113 113 111 115 114 111 112 114 115 112 113 111 111 105 105 
139 141 136 143 148 152 153 154 149 149 150 145 144 145 147 141 144 138 136 133 130 124 120 120 122 118 121 118 121 121 121 124 125 125 127 126 129 129 124 126 125 128 129 125 126 128 132 135 134 135 133 133 130 125 127 122 125 120 118 117 114 114 113 114 115 110 108 112 110 113 112 109 113 108 113 111 112 111 105 100 
139 139 137 144 149 150 153 153 151 152 148 143 144 142 144 143 140 135 135 132 127 123 120 122 118 117 119 117 116 120 122 121 126 125 128 128 128 129 123 126 123 126 129 127 125 128 131 132 138 132 136 132 134 127 124 124 125 120 120 117 116 114 115 114 112 114 109 112 108 112 110 110 108 110 112 110 111 111 106 103 
137 138 137 142 150 148 149 154 149 152 149 144 145 142 144 141 137 137 133 133 125 121 121 119 118 119 118 116 117 119 118 122 124 126 124 126 128 125 127 126 126 124 125 125 124 125 130 133 135 131 133 128 131 124 120 120 122 122 119 117 114 114 114 110 113 114 108 108 108 111 110 111 109 110 108 108 109 108 106 104 
135 138 134 141 147 145 147 149 147 146 143 142 144 140 139 137 135 134 131 125 123 119 116 115 118 117 114 117 117 117 120 120 120 120 127 124 125 123 126 124 125 125 124 123 121 124 129 131 132 130 131 131 129 124 118 117 117 120 118 111 112 114 110 111 111 111 108 109 108 107 111 110 109 107 110 109 112 107 108 102 
131 134 134 140 144 148 144 146 147 147 142 143 140 137 137 134 132 130 129 128 122 118 115 115 117 117 111 115 109 110 117 118 120 119 120 120 126 121 119 121 122 121 120 119 120 121 124 128 132 126 130 126 126 121 117 119 118 115 115 111 111 114 111 111 111 109 106 108 107 107 109 108 110 111 108 108 110 105 101 105 
126 134 133 138 145 143 143 143 142 144 142 136 139 139 136 133 129 126 125 121 120 115 114 111 113 115 112 109 108 110 110 112 117 117 119 115 120 117 120 120 113 117 116 119 118 120 117 124 124 123 126 126 127 123 123 122 115 117 115 112 109 110 111 108 110 109 105 107 104 108 104 107 109 109 105 105 106 107 100 96 
129 129 130 136 143 144 143 146 144 141 141 137 138 135 132 132 128 126 121 119 111 112 113 110 110 107 109 107 106 106 107 108 111 114 115 115 115 111 114 113 115 114 112 115 114 116 114 122 124 122 123 124 122 117 116 121 117 116 114 111 109 109 111 110 108 108 107 107 106 108 108 105 107 107 106 102 107 102 100 95 
128 131 130 136 140 146 143 142 140 139 136 135 136 133 132 127 131 125 122 116 114 112 112 105 109 106 106 106 103 101 106 105 111 110 113 111 112 113 110 110 112 109 109 111 108 113 116 124 124 120 121 125 119 119 114 115 115 110 109 111 109 102 106 106 107 108 107 103 105 108 107 108 106 107 104 104 105 103 100 93 
125 127 128 134 140 145 140 140 134 137 134 134 133 131 127 129 126 125 122 117 114 111 109 105 105 105 108 106 101 99 103 103 109 110 112 108 108 107 106 106 109 107 110 107 109 110 115 117 122 116 119 121 119 118 112 113 112 109 106 106 106 105 105 104 104 106 106 109 109 109 108 106 104 108 101 105 103 102 99 93 
124 126 126 132 138 140 139 139 134 136 132 131 132 127 130 124 125 118 117 114 106 105 105 99 104 104 102 104 100 96 103 99 104 113 121 124 119 109 106 107 108 105 105 108 106 107 111 117 118 119 119 121 119 117 112 114 112 107 104 104 102 100 99 99 103 103 105 103 104 108 105 107 105 107 101 107 103 101 91 90 
118 123 124 127 133 136 132 131 128 130 131 130 124 126 125 123 125 119 115 116 109 101 100 101 133 127 102 95 94 93 88 93 100 102 124 127 123 114 117 112 106 97 95 98 99 105 109 113 114 115 117 115 115 114 111 113 108 105 103 103 100 100 100 102 98 102 102 107 105 102 103 103 103 103 102 102 101 99 90 90 
117 120 117 114 120 120 116 120 118 119 119 119 120 118 121 118 121 121 118 118 109 105 105 104 146 124 97 91 87 86 82 86 90 92 107 99 96 99 105 101 100 90 82 83 83 91 99 96 107 109 110 113 114 115 106 108 102 103 99 97 100 97 99 100 94 99 100 100 102 99 101 100 101 100 99 95 97 94 89 84 
112 113 113 107 104 106 106 105 102 102 103 99 101 103 99 99 107 111 114 116 111 106 105 101 125 102 91 83 82 82 83 84 83 88 87 85 81 84 92 89 91 84 76 79 74 83 86 85 101 105 110 112 111 108 106 106 104 100 100 99 97 95 100 96 96 99 99 98 98 99 99 98 98 99 99 99 94 92 92 85 
107 107 101 104 103 101 100 95 99 95 96 93 96 92 90 87 89 90 99 104 105 103 99 99 99 89 85 84 79 81 80 81 78 82 78 77 77 76 78 77 75 73 71 71 72 76 79 77 101 104 102 105 106 107 103 104 103 101 100 98 97 97 95 95 95 96 94 98 95 97 99 96 98 104 95 92 92 93 85 80 
102 102 100 97 94 93 92 96 92 91 88 87 87 85 84 81 82 83 86 89 95 95 91 92 87 82 85 87 82 81 81 81 73 79 74 75 73 70 70 72 72 69 70 72 69 67 68 72 95 103 101 104 103 101 101 103 103 96 97 96 93 94 92 96 94 95 94 96 98 94 94 94 98 98 96 96 94 90 86 83 
99 99 95 90 92 88 85 87 87 83 82 81 85 82 78 75 78 76 75 80 83 89 87 87 81 81 83 82 84 80 80 76 78 75 71 73 71 73 70 70 61 67 62 63 66 64 65 66 91 96 101 98 100 100 101 102 101 96 93 93 92 93 91 90 91 93 95 95 95 93 91 93 95 92 89 88 88 86 84 81 
96 95 91 89 89 84 84 84 80 80 78 78 78 76 75 70 72 71 68 71 74 82 83 86 78 79 79 81 78 78 79 76 77 75 72 72 71 70 70 65 62 65 63 63 63 63 60 59 70 74 79 89 94 93 96 101 99 93 94 96 91 92 91 89 86 90 90 92 90 91 90 92 89 88 88 88 85 79 78 72 
93 94 87 84 88 81 84 80 79 75 75 77 73 74 70 69 66 65 65 66 71 81 82 79 75 74 77 79 106 93 81 74 76 73 67 69 67 69 68 68 64 59 61 64 63 64 60 54 57 57 64 70 76 78 92 99 94 94 93 87 87 87 88 85 88 88 92 87 85 87 87 84 84 85 76 78 79 72 70 67 
90 90 85 84 83 81 77 79 75 74 76 73 72 70 68 63 64 63 64 65 67 79 79 77 73 72 75 87 133 115 78 73 74 69 61 66 66 64 63 65 59 59 58 62 58 59 59 52 47 49 52 60 77 80 91 95 98 89 89 82 86 82 84 84 82 85 87 84 81 83 82 84 81 77 75 76 73 71 72 69 
82 87 80 76 78 75 73 73 70 72 69 66 65 67 65 60 59 56 60 61 67 74 73 73 66 73 72 90 153 132 75 69 66 63 59 60 58 60 59 62 59 59 56 62 57 55 57 48 44 39 48 57 75 79 82 89 92 85 83 77 76 80 77 77 75 80 80 80 76 80 73 78 76 75 70 68 70 68 64 65 
80 84 78 76 75 71 70 69 70 66 68 63 67 63 65 59 57 55 55 56 64 71 74 68 64 65 68 81 118 83 71 70 64 60 55 57 57 57 55 57 55 54 54 55 53 55 53 41 39 37 48 49 75 82 83 85 84 85 82 77 79 77 75 73 74 75 76 73 74 75 75 78 71 71 70 69 65 65 64 62 
84 79 71 76 70 70 71 69 66 62 63 61 64 59 60 54 55 55 52 52 58 66 67 64 64 64 64 65 77 66 63 62 60 60 54 57 53 54 55 54 55 56 56 53 52 53 50 45 34 32 40 43 63 79 82 83 82 80 80 73 77 76 74 75 70 72 74 73 75 72 72 72 66 68 67 65 63 60 58 59 
80 75 72 72 69 69 67 63 64 59 60 59 60 55 56 49 49 48 49 49 56 61 59 62 62 63 59 58 64 63 68 64 58 57 54 53 52 51 55 51 50 52 54 50 46 51 48 39 28 29 34 35 54 71 79 80 80 77 75 74 75 75 70 69 72 72 71 70 70 71 71 68 64 64 60 59 59 57 60 51 
79 77 70 69 68 65 66 64 61 59 60 56 54 57 54 47 47 45 43 46 53 55 59 55 57 58 56 57 56 60 66 61 56 51 50 51 49 49 48 52 45 49 46 50 44 47 47 33 22 20 25 28 33 47 62 72 73 74 73 72 73 71 62 62 64 64 67 67 66 69 66 65 60 62 54 55 57 55 52 50 
76 71 66 66 65 61 63 59 59 57 54 52 53 53 52 45 43 45 44 45 48 52 54 55 51 56 53 50 53 60 63 59 53 51 48 48 47 47 45 43 42 44 42 46 50 46 43 33 21 21 21 19 23 24 35 59 69 71 71 69 67 65 59 62 63 65 64 66 66 65 64 64 57 55 53 55 55 53 50 45 
71 71 67 61 62 61 58 59 56 53 52 54 55 50 47 43 43 43 43 42 48 50 50 53 49 47 45 47 53 57 60 57 47 49 48 47 48 47 44 44 44 44 42 47 48 47 43 33 28 23 19 17 17 19 21 42 64 64 65 63 66 61 58 57 61 63 60 65 67 68 62 58 56 53 51 48 55 47 43 48 
72 69 64 62 62 61 57 59 55 53 50 49 51 51 44 40 40 41 40 44 43 46 50 49 47 42 41 44 47 54 53 49 50 46 47 45 46 44 43 42 45 45 44 41 47 42 43 34 29 26 14 11 16 14 20 27 56 64 62 63 62 59 55 55 57 59 61 63 61 61 61 58 51 50 46 51 46 46 45 44 
73 69 66 62 62 59 55 55 54 49 49 46 44 48 42 40 40 37 37 40 45 47 45 46 48 41 40 45 50 58 48 47 43 43 45 42 43 42 40 41 41 44 42 40 45 48 43 30 18 16 13 7 12 15 16 18 42 60 58 56 60 58 52 53 55 56 58 59 60 56 56 52 48 46 43 49 44 44 41 43 
66 66 59 58 60 58 56 52 53 51 52 46 44 46 41 38 37 38 36 40 40 44 44 43 43 40 38 42 42 45 45 43 41 42 43 42 42 41 36 39 40 44 42 42 48 44 42 32 19 11 8 5 9 11 9 12 31 53 56 55 56 54 53 50 54 57 56 57 55 52 52 47 47 47 46 45 40 38 39 42 
67 64 60 59 61 56 55 49 52 50 50 47 42 41 38 35 36 38 36 40 42 43 44 42 42 38 40 39 40 40 40 43 43 40 46 43 43 42 36 40 41 41 41 44 45 45 44 32 24 6 8 5 5 9 11 9 19 45 55 52 54 52 50 47 52 54 51 53 55 55 49 49 47 46 42 40 38 37 34 27 
66 58 59 59 60 53 53 51 49 45 46 42 43 40 38 33 35 34 35 37 39 41 42 43 42 39 39 36 37 37 40 39 40 38 41 37 39 36 37 41 40 38 42 41 42 46 40 34 25 9 4 4 3 6 5 6 11 30 50 50 52 49 47 49 49 48 50 49 53 49 45 47 45 43 42 39 33 33 29 25 
64 59 59 57 57 53 53 50 49 49 50 41 41 38 37 35 34 30 33 38 37 40 40 38 37 36 36 37 37 36 37 38 37 40 40 43 42 39 37 38 36 38 37 41 41 44 36 32 26 11 4 4 3 6 3 3 9 21 44 46 47 44 43 45 45 44 41 42 45 44 44 44 40 41 37 37 31 26 27 21 
57 64 57 56 58 53 51 53 52 46 48 40 39 38 33 35 35 32 35 38 36 39 41 40 39 39 35 35 33 35 39 37 37 37 39 39 36 36 34 35 35 36 37 37 37 37 33 38 31 15 9 4 4 1 3 4 6 13 31 44 48 44 40 42 43 41 38 43 40 44 38 38 36 41 34 33 28 24 25 20 
58 63 61 55 53 56 52 51 45 46 44 39 41 39 37 36 31 33 33 36 30 34 36 38 40 39 37 40 37 40 38 39 35 37 38 41 38 36 31 35 37 35 34 36 35 34 35 36 32 17 12 3 0 0 0 2 5 8 23 40 44 42 35 40 39 37 37 36 36 39 36 37 32 37 32 32 26 21 21 19 
63 59 58 55 55 52 53 51 50 47 41 41 41 38 34 33 33 33 33 35 35 34 38 31 40 38 39 38 36 38 39 36 37 37 35 34 34 37 32 35 40 35 34 39 35 38 35 38 33 16 12 5 3 1 1 6 3 4 17 36 41 39 35 38 36 36 37 35 34 35 36 34 34 37 33 31 26 25 23 14 
63 62 58 56 59 54 53 53 49 49 44 43 39 39 38 36 33 33 37 34 34 35 34 31 36 35 36 34 37 39 38 39 37 34 40 39 36 34 32 33 36 32 35 36 33 35 32 35 26 14 13 6 4 3 1 6 7 4 12 29 37 36 35 35 34 34 30 33 34 35 33 31 33 35 32 30 24 24 22 15 
58 61 59 58 59 55 52 53 50 48 47 41 42 45 38 39 37 36 38 35 33 32 35 33 37 31 36 38 36 38 38 35 35 38 39 40 35 39 34 34 33 35 35 35 34 35 34 31 24 15 12 12 6 1 6 3 6 3 9 18 29 34 33 32 32 35 31 31 34 31 32 30 31 32 26 27 22 22 17 14 
57 67 57 58 60 55 55 54 52 49 45 43 47 41 38 40 41 39 38 37 35 33 35 33 35 30 35 35 33 37 39 37 37 38 36 36 37 35 34 35 34 34 31 32 31 31 31 32 20 13 13 14 9 9 6 5 10 6 14 17 30 29 30 34 34 34 34 33 32 30 30 33 28 31 25 22 21 18 15 16 
64 64 59 58 62 55 56 50 51 48 49 44 43 42 43 42 39 41 41 39 35 35 36 33 35 30 32 37 36 39 34 34 39 39 36 39 35 33 32 32 33 35 30 33 33 32 35 29 23 16 17 14 17 9 11 7 9 8 17 21 30 31 32 36 32 34 33 30 30 30 31 28 31 28 25 20 21 16 20 14 
64 65 61 61 60 58 53 52 52 48 46 46 50 46 46 45 45 44 40 41 37 35 37 33 35 36 34 36 37 33 36 40 41 37 38 39 38 35 33 33 35 31 29 31 29 29 29 30 25 19 21 14 13 17 13 12 12 13 20 24 31 31 32 36 34 33 33 35 29 29 30 27 26 30 20 21 19 20 13 9 
68 68 61 60 62 58 54 53 51 53 53 49 53 53 50 50 48 47 45 42 37 37 33 36 36 37 36 36 34 32 38 37 39 37 39 36 40 35 30 32 32 33 32 32 30 30 29 23 23 19 22 19 19 20 18 16 15 18 23 29 31 31 31 37 37 29 34 30 31 31 28 28 25 25 20 23 17 18 17 17 
67 70 62 60 62 59 58 56 52 50 53 52 56 53 53 52 51 49 45 47 41 36 35 36 33 34 36 37 36 37 36 39 39 42 40 41 41 40 35 36 34 30 32 34 31 31 31 28 26 21 25 22 23 23 20 19 23 20 30 33 29 35 36 35 36 34 30 30 29 29 29 29 28 30 24 21 20 18 19 18 
68 71 64 68 62 61 58 57 56 54 53 54 58 59 59 54 51 48 51 49 42 41 38 38 37 32 36 34 35 40 37 40 42 39 43 40 41 41 40 39 34 35 34 36 31 33 32 30 28 26 28 24 25 21 20 24 25 28 31 32 30 34 36 34 36 32 32 28 30 28 31 30 28 30 23 21 18 20 20 7 
77 72 67 66 68 63 65 60 59 59 60 63 59 60 59 56 55 53 47 54 43 44 37 39 41 34 36 35 37 43 42 38 45 46 43 41 42 43 39 45 41 38 38 41 35 35 31 31 28 28 32 24 23 24 21 20 23 27 28 31 32 35 37 38 38 33 32 34 29 27 28 30 27 28 26 24 24 21 17 13 


