P2
80 60
381
87 85 91 92 94 88 93 92 91 92 90 89 90 92 88 90 93 92 92 88 95 95 92 92 90 83 85 82 86 86 89 86 87 83 85 81 86 82 89 85 90 92 100 100 106 102 101 102 103 101 105 104 105 106 113 121 130 134 129 118 114 112 113 113 111 109 113 115 105 102 100 100 102 101 99 89 83 79 74 72 
92 90 92 95 95 95 89 92 94 92 91 88 93 93 95 93 94 91 91 91 94 95 95 98 93 86 85 87 87 81 85 81 89 85 85 82 82 84 88 85 83 89 94 102 104 103 99 98 102 103 104 104 107 109 112 118 126 130 128 121 117 116 119 125 117 116 118 121 117 111 108 106 105 100 93 89 89 82 76 76 
93 90 93 97 91 93 95 92 96 91 90 88 90 92 94 93 93 91 95 92 98 91 94 93 92 87 90 88 87 87 87 84 82 85 86 83 82 85 87 83 82 89 91 96 102 101 96 95 98 98 102 104 103 104 106 116 123 125 120 119 116 117 121 122 116 118 124 120 118 114 112 107 106 104 103 94 88 87 80 71 
87 93 92 92 97 89 93 92 95 92 91 90 92 94 91 93 93 91 95 92 94 95 95 92 91 87 88 86 88 84 84 82 82 82 83 85 79 89 86 85 85 90 90 91 95 96 95 95 96 98 102 100 103 103 108 113 122 122 117 116 120 120 123 129 116 124 125 123 123 115 114 113 107 109 99 98 91 89 82 83 
91 93 96 90 96 94 91 93 89 88 88 92 91 90 90 92 93 94 97 91 94 96 95 95 94 90 86 90 83 87 83 83 83 82 86 81 79 86 84 85 85 89 89 90 91 93 91 93 99 100 99 98 102 104 107 111 118 119 112 118 121 120 127 128 118 124 123 126 122 117 116 109 110 110 104 98 92 90 82 83 
95 95 98 93 100 92 94 97 96 90 91 92 96 92 93 94 96 95 96 92 95 96 101 97 97 96 89 90 86 91 83 84 84 82 83 83 80 84 88 85 87 89 88 89 89 92 89 94 97 96 95 97 98 99 103 110 116 118 109 117 126 122 124 131 123 127 127 126 123 118 113 114 113 108 106 99 95 91 86 81 
96 93 99 96 96 91 95 92 94 93 95 95 93 93 89 93 93 95 96 91 95 96 96 96 91 95 91 87 86 88 87 87 82 84 82 80 78 84 83 83 85 87 86 89 88 92 88 93 95 98 95 94 97 98 98 107 115 112 105 116 125 121 127 132 122 125 129 126 124 119 118 114 117 111 107 99 98 94 85 86 
91 96 101 98 93 94 93 95 98 94 92 95 95 93 90 94 96 94 95 95 94 99 99 95 94 88 88 89 87 88 85 86 83 85 81 80 81 82 81 83 82 87 86 88 90 91 89 91 97 96 94 94 97 96 95 100 107 110 108 120 129 124 128 128 122 130 126 127 123 118 118 116 118 117 110 105 98 99 92 89 
93 93 97 91 93 97 91 97 93 92 95 95 92 93 95 97 97 96 98 96 98 98 95 95 89 89 91 85 86 92 86 87 84 82 84 80 80 81 84 82 83 83 87 84 90 87 90 91 95 95 97 99 96 93 97 101 107 109 111 129 135 131 136 137 129 134 127 132 127 122 122 122 122 116 108 105 99 104 94 88 
92 95 96 96 96 95 89 93 91 97 95 94 96 94 94 95 95 98 98 96 99 97 98 92 91 90 88 85 86 87 86 86 85 80 85 84 80 83 77 81 80 84 87 86 88 90 88 89 97 99 100 98 102 95 97 99 107 108 114 127 131 131 135 136 132 138 138 134 133 127 129 126 126 120 116 109 103 99 93 92 
93 93 97 97 95 97 92 98 91 91 92 95 96 97 94 93 96 94 94 96 98 97 95 94 91 89 90 88 87 86 85 82 83 79 78 84 77 80 82 80 82 85 88 86 88 91 92 96 98 98 95 98 99 99 97 102 110 111 114 128 130 130 133 136 130 133 137 135 134 128 130 130 126 125 123 117 108 106 98 104 
95 95 96 100 94 96 92 94 95 95 92 99 94 94 93 95 97 96 96 95 98 95 97 92 92 88 87 87 87 86 85 83 81 80 83 78 80 82 83 80 84 83 87 88 88 88 92 95 97 96 99 97 98 97 98 96 107 104 111 123 125 128 133 132 124 133 136 134 132 127 130 127 125 123 119 117 110 114 101 95 
92 92 97 96 96 94 94 91 95 95 92 93 94 94 92 95 93 93 96 97 98 95 95 92 91 89 88 84 86 87 86 82 77 78 81 80 78 83 82 82 79 83 85 85 87 92 91 94 96 93 97 96 98 94 97 96 105 107 110 123 127 129 131 132 125 130 133 131 132 125 127 126 123 119 119 117 113 110 99 93 
96 95 97 97 97 95 92 96 97 93 95 90 94 94 93 93 97 95 91 94 94 96 93 94 92 87 89 82 82 88 83 83 79 80 81 77 80 82 81 80 77 82 84 82 86 87 90 93 95 95 95 92 94 96 95 94 103 104 110 122 126 127 128 130 123 127 129 128 127 126 128 124 128 118 115 118 112 111 101 99 
100 97 96 95 95 94 95 96 94 95 95 95 95 92 93 96 98 97 96 94 95 96 96 93 89 86 86 81 85 85 85 80 77 78 80 83 77 80 82 79 79 81 80 83 87 89 93 95 92 98 92 94 94 94 97 98 104 106 114 129 124 124 131 129 121 127 130 127 130 123 125 124 124 119 115 115 111 108 105 105 
97 97 101 98 95 95 93 95 96 96 93 94 95 94 95 98 95 95 96 98 96 94 92 91 89 87 84 83 85 83 81 81 78 77 81 79 77 80 79 79 79 83 82 80 83 87 92 93 95 97 91 92 91 95 96 97 100 102 112 128 126 124 131 133 118 131 128 129 129 123 123 124 124 121 120 114 114 112 108 99 
96 100 99 95 97 98 95 95 95 95 98 96 97 94 93 93 94 96 93 92 94 96 93 95 91 87 84 83 82 85 82 81 78 77 80 79 77 81 81 81 79 84 83 83 83 85 92 93 95 95 90 89 88 95 91 96 101 103 112 124 122 124 127 127 116 126 128 126 126 121 123 124 123 120 118 116 112 115 103 97 
97 94 96 99 97 97 96 96 97 93 94 95 94 91 90 96 97 96 95 92 94 96 95 91 92 88 86 83 83 84 80 79 76 79 80 75 76 79 80 78 79 81 80 83 82 84 90 92 94 91 89 89 90 92 95 95 98 101 117 127 125 125 132 130 118 127 128 125 124 122 125 123 123 120 116 114 110 112 102 101 
99 97 94 99 99 94 94 98 93 95 96 95 94 91 95 95 92 91 97 95 95 96 95 92 90 86 86 83 84 80 82 83 78 81 83 78 78 79 82 81 79 85 82 84 81 83 84 91 91 91 88 87 86 86 88 95 99 103 113 122 129 124 130 132 115 125 124 128 122 123 122 123 121 118 118 112 109 112 100 100 
99 95 99 97 95 92 91 97 90 94 95 98 93 90 93 96 93 96 92 91 95 95 95 90 87 85 85 83 84 85 82 80 78 83 84 76 75 80 82 83 78 82 84 81 83 79 83 87 92 90 89 89 87 84 90 89 94 100 107 122 121 124 127 130 114 124 124 127 124 122 122 121 124 118 115 114 108 111 101 98 
89 93 96 96 94 92 92 96 93 90 93 92 91 89 94 92 95 92 93 94 94 94 91 88 83 81 86 82 85 81 80 83 76 79 80 76 76 78 79 79 79 78 82 80 80 77 82 75 86 87 86 87 83 83 85 87 96 100 107 120 121 118 125 123 116 120 123 123 124 120 118 115 118 116 112 111 105 107 101 95 
94 94 94 95 91 92 92 94 90 91 93 93 90 91 88 91 92 93 94 92 93 92 91 86 84 80 83 81 86 85 86 85 87 82 82 77 77 77 79 76 77 77 79 77 86 80 79 79 81 84 82 82 82 83 82 83 90 94 109 122 119 119 123 123 117 121 123 120 118 116 120 115 117 115 116 108 106 106 100 95 
96 96 99 93 93 89 94 92 92 93 95 92 94 88 88 90 94 94 92 94 91 95 91 93 85 81 83 88 101 126 143 140 129 119 103 83 76 73 76 73 74 76 78 75 78 74 77 76 81 84 79 81 81 78 80 83 90 94 111 123 117 119 121 121 118 121 127 123 120 117 121 119 113 114 108 106 105 105 101 99 
96 95 97 94 93 89 96 99 94 92 94 95 91 90 87 93 93 91 92 89 90 92 88 85 85 86 95 128 192 208 213 193 168 151 153 126 97 81 76 68 72 71 72 76 79 73 76 80 81 84 79 80 81 77 79 83 93 94 110 117 114 120 119 120 120 125 125 119 117 117 119 117 114 113 113 106 105 106 98 93 
95 99 98 96 95 97 94 97 92 95 92 96 91 90 95 90 91 94 93 95 93 92 88 87 92 101 159 238 243 218 214 207 190 174 164 160 139 98 76 72 71 69 70 73 74 72 74 77 79 81 79 80 82 80 79 82 91 93 109 115 114 114 123 118 118 123 124 124 119 118 118 117 113 113 112 107 101 104 95 91 
93 91 97 96 95 93 94 96 97 96 95 97 96 88 92 93 92 92 92 92 92 90 92 92 95 146 243 256 232 204 202 208 201 184 172 152 148 128 90 74 70 70 71 71 76 74 74 76 77 76 80 80 80 77 78 83 86 93 106 115 113 112 117 117 116 117 120 118 119 116 117 115 115 111 110 105 99 102 95 92 
94 94 92 92 95 96 94 96 94 91 94 97 92 91 91 89 91 88 92 89 93 90 90 96 134 219 249 230 202 189 191 197 207 188 174 155 148 142 116 82 67 73 70 69 73 73 75 75 73 76 78 79 82 76 77 81 87 87 105 113 111 112 119 112 112 113 121 119 118 112 114 118 107 110 108 102 98 94 88 86 
95 94 96 94 92 92 92 97 93 91 94 92 88 92 89 90 89 89 90 88 92 90 96 109 199 248 236 215 187 178 184 202 203 181 163 156 160 150 114 95 71 71 72 72 71 72 73 77 72 73 74 76 75 74 76 79 81 88 101 110 108 112 112 109 109 113 117 115 113 112 113 114 111 102 102 98 97 93 88 85 
94 90 93 94 95 93 94 96 90 92 88 90 90 89 85 88 88 89 90 88 93 94 93 136 232 254 238 211 181 175 188 202 194 174 165 160 163 154 106 92 71 74 71 66 69 67 73 72 73 75 75 75 76 76 74 80 83 92 106 102 105 108 110 107 115 113 115 116 112 110 108 108 105 104 99 98 94 93 80 79 
92 88 91 95 93 94 95 96 92 92 92 92 93 91 89 91 85 91 89 91 95 93 97 144 248 262 243 216 187 173 183 197 195 181 173 167 167 157 117 106 77 69 69 66 67 66 68 67 70 70 77 71 74 72 75 80 82 91 102 100 107 108 107 105 107 109 109 110 110 107 105 103 104 101 101 96 92 86 77 78 
93 90 89 96 92 95 93 97 95 94 88 93 92 89 87 86 89 88 89 92 95 92 98 167 271 275 253 224 192 177 173 185 201 195 183 182 184 161 120 103 84 68 69 67 65 67 70 71 70 72 71 72 71 73 75 76 84 90 103 99 103 103 105 101 109 107 106 109 111 106 102 103 98 100 97 97 91 89 73 72 
88 90 90 93 93 92 95 96 92 94 90 92 90 87 85 90 88 89 88 92 93 94 104 177 288 287 264 232 206 179 173 174 193 209 207 201 208 172 118 105 82 72 65 66 63 68 65 68 71 71 70 67 71 72 73 74 80 88 103 98 99 102 103 97 106 107 103 104 103 103 101 96 100 100 92 90 84 84 71 69 
89 90 91 90 92 95 94 96 93 92 91 89 86 86 83 88 87 89 88 89 87 90 98 160 279 299 274 234 225 195 176 171 188 210 227 229 237 194 123 101 79 67 68 66 63 67 69 68 69 71 70 71 72 73 78 79 81 86 105 97 98 100 100 91 101 101 98 96 100 97 93 95 94 90 85 83 81 80 68 66 
88 88 88 91 93 92 93 97 91 92 90 90 91 89 88 89 87 91 89 89 94 89 98 133 236 301 272 239 240 217 194 187 190 212 238 264 271 223 142 102 73 68 67 70 65 70 67 66 71 70 69 72 71 77 82 81 79 86 102 99 95 97 97 92 97 99 96 97 95 93 93 91 92 85 81 79 77 77 67 62 
93 90 91 91 91 94 96 93 93 91 90 91 86 90 88 90 89 88 89 92 88 91 97 116 208 269 245 246 243 239 220 205 205 216 242 298 297 253 169 102 70 64 64 62 67 68 65 67 69 66 71 68 70 72 74 75 77 90 99 95 91 98 93 88 94 92 94 91 89 89 89 88 86 82 76 74 72 70 66 61 
94 92 92 94 89 92 93 93 91 91 89 93 88 90 85 91 86 89 88 90 89 91 90 101 159 246 248 260 243 248 240 223 217 231 271 347 324 275 196 94 72 68 63 69 71 67 66 65 70 67 69 71 70 73 70 72 77 87 98 91 88 92 84 83 90 88 90 89 88 84 86 83 79 76 70 69 64 67 59 57 
97 88 89 92 97 94 95 91 88 89 90 91 89 89 90 88 87 88 86 87 91 90 89 96 136 269 270 275 248 246 260 246 239 247 319 381 349 286 169 82 68 62 61 71 68 69 65 67 71 71 72 70 70 70 72 74 78 88 96 85 85 92 82 83 87 91 86 81 82 81 80 76 74 70 65 67 62 62 52 48 
94 92 92 95 93 96 94 92 92 91 92 91 88 87 89 88 90 87 87 85 89 90 88 90 103 192 255 296 267 251 261 272 267 292 361 364 329 217 104 75 59 69 69 68 66 67 66 65 70 71 70 72 70 72 71 75 80 89 95 89 83 89 79 80 86 87 85 81 82 77 78 77 75 67 61 62 61 52 48 47 
94 93 92 89 94 98 92 93 92 88 91 91 89 86 83 90 88 90 89 88 87 85 86 83 86 105 184 288 299 284 293 313 327 332 308 238 150 93 75 68 65 68 66 67 68 66 64 67 71 73 68 68 70 66 70 73 78 86 92 83 79 86 77 76 85 83 80 78 78 77 74 76 72 64 59 60 60 48 48 47 
93 90 91 92 92 95 95 94 88 86 89 89 87 89 85 85 88 86 86 86 85 85 84 82 80 82 97 145 237 299 307 300 260 206 147 93 80 72 69 68 63 68 64 67 65 67 63 64 69 75 70 66 66 70 68 68 77 85 96 81 78 78 72 69 75 74 76 73 74 75 74 75 70 64 57 57 55 50 43 45 
89 89 92 92 91 93 93 94 89 88 89 86 89 84 84 86 88 90 89 83 85 86 84 84 81 82 82 87 102 119 116 112 98 88 81 73 67 70 69 65 65 68 64 67 67 67 68 67 67 73 73 66 71 72 71 71 75 80 91 79 78 78 70 71 73 76 74 71 73 72 71 69 66 61 57 55 53 45 41 34 
94 93 89 93 92 93 90 90 88 89 89 90 87 84 84 86 87 85 87 81 85 85 85 84 82 83 79 76 80 80 75 78 73 71 73 67 65 71 71 65 65 70 67 69 66 68 68 68 68 72 67 69 66 66 71 68 80 83 85 75 72 77 66 66 71 69 71 72 70 70 70 69 62 57 53 49 49 46 39 36 
93 92 94 94 91 91 87 88 87 86 89 84 87 86 84 87 89 87 84 83 82 82 85 82 80 78 78 72 74 68 72 67 69 65 67 64 61 65 67 62 66 66 64 70 71 74 68 70 73 72 69 71 68 71 68 68 75 83 84 70 71 72 60 65 67 66 68 69 71 65 66 67 59 54 51 49 49 42 36 37 
90 91 93 89 92 90 93 91 89 86 88 88 83 84 84 86 89 86 84 83 83 82 81 81 81 75 74 74 68 64 65 66 68 64 65 64 60 65 61 65 65 66 68 67 70 70 69 70 67 71 70 70 72 69 67 69 73 86 79 67 69 69 56 65 68 67 69 71 68 64 62 62 55 53 48 49 41 36 34 30 
90 89 95 93 92 92 91 90 91 86 88 85 84 84 85 84 87 83 83 85 86 82 82 81 76 76 77 71 66 67 68 64 66 63 67 64 61 62 64 64 66 67 68 67 72 73 73 74 67 67 69 72 73 70 69 68 78 81 74 64 64 66 55 62 69 62 63 66 65 62 58 59 57 47 45 42 42 31 30 24 
94 94 88 94 89 90 92 90 90 86 90 85 82 83 82 87 84 85 86 86 84 82 80 77 77 76 72 67 65 66 67 64 64 64 66 65 57 62 64 65 67 68 67 69 69 74 71 73 65 66 69 73 68 72 68 72 74 67 70 64 61 63 54 59 64 61 61 60 62 56 57 56 54 44 46 42 39 28 23 20 
93 90 94 92 89 89 89 90 89 87 85 81 84 84 81 85 84 83 87 83 84 83 80 80 75 74 70 66 68 64 67 66 64 64 66 60 61 62 66 66 63 68 67 69 71 70 74 71 67 68 69 71 73 70 66 70 72 57 66 64 59 58 51 58 61 55 59 63 61 56 54 53 46 43 45 39 33 26 16 17 
89 91 90 88 88 89 91 91 91 83 87 85 85 84 79 80 83 85 86 86 85 84 78 77 75 74 72 67 70 69 66 67 63 64 66 59 60 63 64 62 63 68 70 67 71 73 68 68 71 68 69 71 70 69 69 71 68 50 53 58 58 55 46 58 61 56 56 54 56 51 51 48 45 42 40 39 31 23 14 14 
91 86 92 90 91 88 86 91 85 85 86 86 85 82 80 85 82 85 81 84 82 84 83 78 78 72 69 68 70 68 69 64 57 63 64 65 58 62 61 65 61 69 65 68 71 71 72 69 69 70 70 67 68 71 69 70 70 44 42 54 58 55 47 55 57 51 50 51 48 48 47 45 44 41 40 34 28 19 15 13 
91 90 92 89 89 89 90 87 87 85 83 82 81 80 82 85 83 84 82 82 83 77 82 79 75 74 71 71 70 68 68 65 61 60 64 62 61 59 61 65 63 67 66 70 68 71 70 72 68 72 68 67 66 70 72 72 65 41 33 43 54 53 44 55 56 50 45 50 46 44 44 41 39 36 39 35 23 17 13 8 
92 90 89 96 90 91 87 86 86 82 83 83 82 83 81 82 81 85 80 84 82 84 80 76 75 71 72 69 69 65 65 66 63 61 60 62 61 60 61 63 63 65 65 64 71 69 66 68 66 71 67 67 70 70 67 69 63 42 26 31 47 45 44 50 48 46 45 42 43 43 41 43 41 41 35 32 26 20 10 13 
89 89 92 90 88 89 88 87 84 81 82 83 80 82 80 83 79 82 83 82 83 79 79 77 77 72 72 71 69 67 70 65 65 65 64 56 59 61 65 63 63 65 67 69 69 70 69 68 68 68 70 68 68 68 66 68 62 42 28 25 43 44 41 46 45 48 45 43 41 42 42 40 38 34 36 29 23 17 8 5 
88 89 90 88 88 89 85 89 86 82 84 79 81 81 82 80 77 84 83 80 83 82 81 78 75 71 72 72 64 63 67 61 65 65 65 60 60 58 63 62 63 63 68 69 68 67 69 65 65 67 70 69 68 68 67 64 59 48 32 26 33 44 42 49 45 43 45 45 41 40 40 37 32 35 30 26 20 16 6 0 
92 89 88 87 87 86 86 88 84 83 84 80 81 80 80 85 79 82 82 82 79 80 79 78 75 74 72 67 62 67 65 65 62 66 64 63 58 60 61 61 61 62 66 68 69 67 64 67 64 67 68 64 65 65 64 65 57 47 36 27 33 38 37 47 48 46 44 43 45 37 38 38 35 32 33 23 16 13 4 1 
92 90 91 91 85 84 87 83 84 86 79 80 77 80 77 82 82 84 84 77 81 81 78 76 71 75 69 68 65 64 66 63 68 65 65 61 62 60 65 60 60 61 63 66 67 67 68 63 67 70 68 66 65 67 65 62 55 48 39 35 36 35 40 49 50 47 45 43 44 40 37 36 36 32 28 23 19 12 4 7 
96 92 90 91 91 88 86 87 86 81 79 81 79 79 81 80 82 82 83 81 82 77 77 75 75 72 68 69 67 64 66 65 63 66 65 60 59 59 63 62 56 61 67 68 67 65 62 61 64 67 68 63 66 64 64 60 59 51 37 39 37 39 39 50 49 48 44 42 44 37 36 38 31 34 27 18 15 14 3 5 
97 90 93 91 92 88 89 87 82 81 80 80 79 78 77 80 81 79 83 78 79 80 78 75 74 71 70 69 63 65 66 64 63 63 63 63 60 60 58 59 61 61 65 66 68 64 60 63 67 68 70 69 69 68 65 62 59 52 46 42 40 37 43 50 47 44 41 40 43 39 38 35 29 27 28 21 16 14 4 3 
105 94 92 95 90 90 90 87 83 82 80 83 78 77 77 78 77 81 81 77 79 79 75 77 73 71 70 67 63 64 61 61 59 63 64 60 58 59 60 58 57 62 65 68 65 63 65 64 66 71 69 68 71 69 65 63 56 53 47 44 42 37 43 48 46 41 40 40 43 37 34 37 34 29 29 20 13 10 4 5 
104 104 93 93 91 96 92 91 82 81 81 82 81 77 78 79 78 79 79 81 81 79 80 76 77 72 72 65 66 65 65 64 59 63 63 59 57 62 66 59 59 60 64 66 64 69 65 64 67 76 73 70 72 69 67 63 58 60 51 46 41 32 44 47 45 42 43 41 38 36 38 32 30 30 25 21 20 11 4 2 
111 101 93 91 96 95 90 94 92 88 89 88 87 85 83 82 85 82 86 80 86 87 85 78 77 72 71 74 70 67 67 63 61 62 63 60 59 64 66 59 60 63 62 64 60 67 70 70 71 73 75 72 73 70 68 65 60 63 59 44 37 27 40 48 46 37 40 39 39 32 30 30 26 32 29 24 17 13 5 3 


