P2
80 60
188
134 138 136 138 147 140 143 146 146 147 155 150 151 149 150 152 153 149 150 146 146 142 144 144 144 145 141 142 140 136 137 135 132 131 131 120 117 121 125 125 120 122 117 116 118 120 124 125 118 119 118 122 123 121 123 128 123 123 119 120 114 109 109 108 109 107 104 99 102 98 97 93 91 87 89 84 83 76 81 82 
130 141 138 136 145 140 142 147 148 151 151 153 152 152 154 155 153 150 149 148 148 146 145 147 145 146 144 147 143 145 143 140 142 138 136 127 125 124 126 123 127 125 124 126 126 124 129 128 122 118 118 125 124 125 126 125 125 122 123 122 115 111 112 112 109 110 105 105 102 100 97 94 92 92 88 85 82 80 77 83 
130 141 138 142 146 146 140 142 149 150 149 156 156 154 153 157 154 151 146 148 148 139 144 144 144 148 147 147 145 148 144 143 138 142 138 132 128 130 130 129 131 134 135 133 135 136 136 137 124 124 122 129 127 126 127 129 129 126 125 122 116 111 111 114 111 110 108 107 107 102 101 96 98 94 91 88 86 82 75 76 
130 140 137 138 145 142 144 143 149 150 153 156 154 158 151 155 156 152 153 146 148 144 144 147 144 146 146 148 147 149 145 140 143 140 142 138 129 131 128 133 132 135 134 137 138 137 141 135 133 134 130 133 135 130 132 128 131 126 127 122 118 114 111 118 113 114 109 108 110 105 103 97 95 91 90 87 85 85 81 82 
132 141 139 139 146 143 146 147 153 154 154 156 155 155 156 156 156 154 151 150 148 143 146 148 148 149 147 148 145 143 145 145 142 144 144 133 129 131 134 132 132 136 135 136 135 136 141 139 134 132 133 138 136 133 133 133 132 130 127 125 118 116 115 120 114 116 114 109 109 105 106 98 101 96 94 92 88 88 85 83 
136 145 139 144 145 142 148 151 152 155 159 157 155 156 152 153 155 152 154 149 146 144 147 149 147 147 149 151 148 149 146 145 146 147 139 132 131 128 133 131 132 135 135 139 140 138 142 140 136 136 138 139 137 139 136 135 134 134 130 128 122 118 120 124 116 115 114 114 113 108 113 101 100 99 97 94 89 87 83 84 
133 143 141 142 143 140 145 150 159 157 156 159 157 159 160 155 154 156 155 154 148 146 148 148 147 148 149 152 148 151 153 149 149 144 139 129 134 131 134 135 129 135 132 139 139 138 143 143 142 144 143 141 142 141 143 141 138 135 132 132 126 123 121 120 119 118 118 117 116 111 106 105 106 102 101 97 94 92 85 86 
132 143 136 141 146 142 148 147 154 154 156 159 159 158 157 159 161 154 155 151 148 148 146 146 148 151 147 152 149 149 149 143 147 143 139 137 129 131 130 135 134 136 136 137 142 141 145 143 140 146 150 150 148 145 144 146 144 137 137 137 130 128 124 123 126 124 124 115 117 114 112 110 106 105 100 100 97 91 90 92 
136 145 138 140 144 143 144 150 153 157 157 159 158 160 164 161 163 158 156 153 150 146 148 151 147 155 150 148 144 147 146 143 147 147 139 132 131 129 132 131 134 136 136 135 140 140 141 142 141 146 148 152 148 143 150 144 140 138 137 134 133 129 128 130 126 122 124 123 118 115 111 108 108 106 104 100 97 97 92 94 
132 145 139 147 144 147 145 150 153 160 158 159 159 159 156 160 163 157 154 153 151 146 149 150 148 149 148 150 146 147 148 146 144 145 140 137 132 131 129 130 133 131 135 138 140 139 143 141 141 146 146 151 147 145 144 143 138 141 137 135 127 128 129 124 126 127 126 123 123 123 117 117 115 111 107 104 96 96 94 92 
133 144 140 139 146 144 148 151 156 155 156 159 158 161 161 160 159 156 152 151 148 146 148 148 150 149 149 150 147 148 145 144 145 141 139 135 130 130 132 134 130 133 135 134 138 136 139 140 139 142 144 150 146 145 146 141 138 135 132 138 126 124 124 123 127 126 123 123 124 119 120 118 115 113 111 107 104 102 94 94 
132 143 139 145 147 147 151 155 156 159 158 158 157 158 156 160 159 158 154 151 151 146 146 144 147 146 147 149 147 147 144 147 142 140 139 131 131 132 134 132 133 131 134 136 135 135 138 141 142 142 144 145 147 148 140 140 137 138 134 133 126 123 120 123 125 124 121 117 121 118 116 118 115 111 110 106 104 101 93 94 
131 142 137 141 145 145 149 153 158 155 156 156 154 158 160 161 158 158 154 153 151 145 148 147 145 147 145 144 144 144 144 145 143 140 142 136 128 132 134 132 131 132 137 140 135 137 142 141 144 145 145 147 148 144 141 139 138 131 134 129 126 126 122 125 121 125 122 118 119 119 117 119 113 111 109 108 106 102 97 97 
133 141 136 142 147 146 153 153 157 156 161 155 157 157 158 160 161 156 153 151 150 145 141 141 140 140 141 143 143 141 144 141 143 142 136 133 127 130 132 128 131 136 134 136 136 137 139 140 145 148 145 148 144 142 141 137 136 134 131 130 122 123 122 125 120 123 119 119 117 115 117 112 116 113 108 105 106 102 101 98 
133 142 137 144 145 148 151 154 157 156 159 155 157 157 159 161 157 157 154 151 149 148 143 144 135 123 121 125 136 137 143 136 143 144 138 132 126 131 128 128 132 133 130 135 131 139 142 140 145 146 147 145 146 145 142 141 135 135 132 130 125 124 120 128 122 120 117 113 119 114 116 115 110 107 106 106 106 101 97 97 
130 137 133 140 143 147 151 156 155 156 156 158 155 158 156 159 158 154 153 151 151 144 144 141 136 118 111 109 113 117 126 126 135 137 135 129 125 126 124 126 130 133 130 134 133 135 140 139 145 144 148 144 145 143 141 139 138 134 132 130 124 125 117 127 120 115 115 115 115 116 112 114 112 111 108 105 102 103 97 95 
123 138 132 137 145 150 153 157 154 154 150 152 153 153 156 156 157 155 155 150 152 144 144 141 134 112 106 108 111 105 107 105 113 121 131 126 125 124 127 129 126 124 128 135 131 140 138 139 143 142 144 141 143 142 141 138 136 131 134 126 120 120 121 121 122 118 112 114 115 113 113 111 113 108 107 105 102 102 99 96 
125 136 131 139 143 146 152 151 154 151 151 154 156 154 159 156 156 155 154 155 157 154 148 141 128 110 106 104 106 104 104 104 107 112 131 125 126 121 126 127 129 132 131 128 131 132 136 137 141 140 140 140 141 140 137 135 135 130 130 127 123 128 118 122 119 117 115 113 112 113 110 113 112 108 109 104 103 101 99 99 
121 133 130 137 144 147 149 152 153 156 155 152 155 152 153 152 152 150 151 151 180 185 154 138 123 108 109 107 106 106 105 101 106 112 131 129 122 120 124 125 127 130 132 133 130 134 135 135 138 141 143 138 140 141 137 134 131 130 129 124 124 120 114 118 119 119 113 116 112 115 113 114 110 111 106 107 105 100 99 98 
121 132 131 135 141 141 148 149 153 152 149 152 152 154 153 152 151 145 148 153 188 182 159 128 117 113 111 110 108 107 110 108 108 119 128 125 123 122 124 127 125 130 129 129 131 126 134 132 136 140 138 140 140 136 134 134 130 126 127 125 119 113 113 117 117 117 112 110 113 113 111 111 109 107 105 106 102 100 95 99 
120 131 131 131 140 144 147 149 151 154 150 149 151 146 147 148 143 146 143 149 170 166 142 125 114 110 109 112 111 110 111 107 107 119 131 125 121 123 120 123 123 124 127 125 129 128 133 134 136 135 137 133 136 138 132 133 129 127 123 124 118 118 113 117 117 114 113 112 111 111 110 107 104 106 104 103 98 97 99 98 
118 128 124 131 137 141 147 147 147 148 146 146 149 141 144 143 137 136 133 139 156 145 132 116 107 103 106 107 108 106 114 111 111 116 124 119 116 117 119 121 121 122 127 130 125 127 126 130 138 136 136 134 133 134 131 132 128 126 128 123 117 116 111 116 115 116 112 110 111 109 107 107 105 106 100 100 100 97 92 93 
119 125 121 128 136 141 142 145 146 145 145 146 141 137 134 132 129 123 119 121 130 118 110 103 100 101 103 104 107 105 106 105 110 111 109 109 111 115 114 115 114 119 119 123 124 121 128 125 134 136 135 136 132 131 133 133 131 124 126 122 118 118 115 118 113 116 114 110 111 113 110 108 108 103 100 98 99 97 93 93 
116 126 125 126 131 138 143 144 143 142 142 140 130 118 117 110 111 115 114 109 104 104 99 99 96 99 99 102 101 101 102 97 100 100 98 97 106 105 110 113 110 113 115 117 117 125 122 127 130 133 129 129 130 130 129 128 125 122 120 119 116 114 111 113 114 110 111 112 110 111 110 107 104 103 99 96 96 95 96 90 
115 126 121 125 128 135 137 140 141 139 141 136 123 109 103 104 104 109 109 107 99 94 91 94 93 97 95 99 95 94 95 93 95 92 94 91 98 107 106 112 110 112 113 113 108 115 120 120 129 133 130 133 127 130 127 124 123 119 118 119 115 115 111 113 113 115 110 110 109 108 110 108 105 100 100 100 99 96 93 94 
113 121 119 121 129 133 136 137 136 138 137 134 122 106 101 101 100 106 103 102 95 91 90 92 93 94 94 93 92 94 96 92 93 91 90 89 102 105 107 108 107 111 113 112 112 115 116 120 125 125 126 125 127 128 128 125 119 114 120 118 112 111 112 113 115 115 110 112 114 112 111 107 104 98 100 99 93 94 95 93 
106 117 116 117 123 122 127 122 129 127 130 131 116 104 97 98 97 100 97 94 91 87 88 91 92 92 95 93 94 92 91 90 92 89 85 87 102 101 104 108 107 111 109 113 112 113 114 115 122 122 123 123 124 124 125 122 116 118 118 114 112 110 106 111 111 109 108 103 106 109 108 106 104 99 98 98 94 91 89 89 
106 113 113 112 115 106 107 105 110 112 109 112 106 91 99 97 94 98 93 94 89 88 85 86 89 93 94 91 92 92 87 87 86 88 82 87 99 102 107 107 105 108 106 110 105 112 110 114 125 122 118 120 119 123 119 120 113 110 114 111 110 104 105 107 109 107 105 107 108 105 104 102 101 95 95 93 91 90 90 85 
99 112 111 107 109 100 101 98 99 97 98 97 96 95 91 93 94 92 90 89 86 85 82 84 84 89 88 93 91 91 90 87 85 87 84 87 102 102 107 108 108 108 105 108 107 107 109 115 120 117 119 118 118 120 117 114 107 108 109 105 103 103 104 110 107 108 104 101 104 102 102 96 97 95 97 90 93 91 85 87 
96 106 101 105 100 93 93 91 94 92 99 95 95 94 88 89 91 89 93 89 82 85 82 85 80 83 85 88 85 84 83 84 84 82 79 88 101 103 108 109 106 106 106 109 108 108 108 113 120 116 114 114 113 114 120 115 106 104 107 99 100 99 102 106 109 101 100 102 102 100 99 97 94 94 93 88 91 90 85 81 
95 102 98 97 95 88 89 84 85 84 88 92 93 88 90 90 90 88 87 82 83 84 82 81 80 85 84 87 84 86 81 77 80 83 81 86 94 96 103 104 100 97 104 103 103 103 104 109 108 114 112 114 113 114 113 110 104 102 102 100 95 101 100 105 105 99 99 96 92 95 95 94 94 91 91 89 87 85 81 78 
93 98 97 98 88 84 82 82 79 82 81 86 90 87 88 89 90 89 85 84 83 83 84 81 82 84 82 80 69 66 77 76 82 81 77 84 88 90 93 93 95 96 94 94 95 94 97 92 82 96 94 98 106 107 110 105 101 102 100 101 96 95 98 102 101 98 95 93 92 97 95 92 89 85 85 84 83 79 75 79 
85 96 91 93 86 79 79 73 78 75 78 80 79 83 87 88 87 86 81 81 81 79 80 76 78 84 80 78 65 65 69 72 78 79 72 82 85 88 91 86 86 89 94 86 89 89 88 82 68 73 75 77 82 92 95 99 104 105 100 100 91 95 92 97 92 93 89 91 90 90 89 84 87 84 79 79 80 76 73 71 
83 92 86 88 83 79 70 67 68 71 71 74 78 80 84 84 86 83 79 81 77 80 80 78 79 82 81 70 59 58 64 71 74 74 74 78 82 86 90 88 87 86 86 84 83 83 83 76 66 60 62 64 67 76 85 91 98 98 99 98 89 92 89 95 88 83 82 85 85 83 84 85 80 79 74 73 75 71 68 63 
83 90 81 84 79 73 68 68 65 67 69 71 78 79 83 84 82 81 77 76 76 75 78 77 75 83 73 68 59 59 63 67 68 73 66 75 78 84 86 85 79 83 77 82 79 78 76 71 57 53 55 57 63 76 91 95 98 95 97 92 88 84 84 87 86 79 78 80 78 80 77 76 75 71 69 67 67 66 63 62 
77 86 77 81 74 73 67 64 63 63 64 67 75 81 81 81 80 78 75 73 75 73 73 76 74 77 74 65 57 54 63 68 70 68 65 74 75 80 80 82 78 81 77 76 75 72 67 63 51 47 46 49 56 73 87 94 94 93 92 88 81 80 82 81 80 76 76 79 75 73 72 72 68 68 63 65 66 60 63 56 
70 83 74 75 72 68 63 64 60 63 62 63 73 82 82 78 77 76 74 71 75 69 71 74 72 77 75 70 64 61 68 66 69 68 68 70 74 76 75 75 75 76 72 73 71 69 63 57 41 36 37 40 46 61 84 85 91 89 87 87 81 81 79 80 76 76 75 70 75 69 70 70 66 63 60 58 55 55 56 53 
74 82 77 74 68 66 64 59 57 58 62 62 69 72 77 70 74 73 71 71 70 71 70 71 71 77 74 73 68 67 70 64 67 61 65 71 69 68 72 69 70 73 70 71 66 62 56 50 38 29 31 35 35 50 79 85 85 83 85 80 80 77 78 77 77 74 72 69 72 67 68 69 67 63 59 55 51 53 48 47 
72 76 71 67 60 62 57 58 56 55 60 60 62 63 60 59 59 65 65 69 69 67 67 70 68 73 71 78 72 71 70 67 64 62 61 68 66 65 70 68 67 68 68 66 62 58 53 48 32 25 25 26 29 39 63 77 81 80 83 81 76 76 75 74 73 70 68 68 68 65 67 65 66 60 54 51 49 46 48 49 
70 76 71 65 64 57 56 57 56 53 54 54 56 56 55 51 52 49 54 66 65 67 67 70 67 73 70 70 70 69 68 64 63 61 61 67 65 69 66 65 64 65 63 64 57 53 48 42 32 24 19 20 23 26 41 47 65 79 78 79 75 73 71 68 69 63 63 61 64 61 63 59 64 57 51 47 45 49 46 43 
68 78 68 68 58 56 54 53 51 53 53 53 51 53 52 52 46 45 45 61 64 65 65 67 62 69 69 69 68 67 65 62 61 60 60 64 63 62 63 54 56 60 58 56 53 47 43 36 29 21 19 16 15 15 24 30 46 66 74 74 73 71 71 71 68 61 59 58 59 61 60 63 58 54 50 45 46 47 39 39 
66 72 66 67 59 58 51 51 52 51 53 50 49 51 50 46 44 43 47 57 65 64 64 65 63 67 67 68 67 65 67 58 61 58 62 63 59 61 59 43 42 42 43 42 34 31 32 28 28 28 28 19 12 12 21 21 28 58 66 67 66 67 65 65 63 60 55 55 58 57 57 61 59 52 49 47 46 44 38 40 
63 70 65 60 60 54 50 51 50 47 52 50 50 50 50 46 45 42 49 61 62 64 61 62 62 64 62 65 65 66 62 57 57 58 58 60 57 56 54 35 32 32 28 26 13 13 21 22 26 26 20 13 8 10 16 18 21 42 63 69 63 66 69 64 60 55 52 58 55 56 58 59 53 49 46 44 43 42 37 37 
64 71 60 58 58 54 52 51 48 49 48 51 47 47 48 46 44 41 46 58 60 60 59 58 58 60 61 62 59 59 58 57 57 56 61 60 55 49 48 34 26 28 23 18 10 10 19 21 32 28 18 7 4 11 11 14 15 23 54 61 60 59 61 61 58 54 52 53 54 54 57 55 50 47 43 43 40 41 36 31 
60 67 56 57 57 52 54 51 47 49 50 47 51 47 44 43 38 40 48 59 63 61 62 59 59 53 53 56 55 53 56 54 57 55 58 56 50 47 45 32 25 26 20 19 8 14 19 20 33 29 15 6 7 4 9 11 9 15 41 55 57 59 59 58 53 50 52 53 51 50 53 52 52 46 40 41 38 35 31 32 
61 65 57 54 53 53 51 44 45 47 47 48 45 44 43 40 39 40 46 59 59 57 59 58 56 54 51 48 51 48 50 52 53 54 56 52 44 46 45 27 24 25 20 16 12 14 19 22 32 32 18 10 3 5 6 4 5 10 32 52 51 53 55 56 54 47 51 51 52 48 50 49 45 38 39 34 37 36 25 29 
55 64 55 53 53 52 49 46 46 50 46 45 46 49 43 43 38 39 45 62 58 57 56 54 57 53 53 48 50 51 48 52 51 50 45 43 42 44 40 27 22 25 19 14 11 13 18 20 27 25 17 10 5 3 6 6 6 8 19 43 47 51 52 49 50 46 50 44 46 45 47 45 42 41 35 35 36 31 26 29 
56 61 51 57 54 51 50 45 45 43 48 47 46 42 41 40 35 38 48 57 56 55 52 56 53 55 53 49 48 48 47 51 48 50 40 35 40 40 32 25 20 21 16 13 11 16 20 17 25 27 18 13 7 4 5 4 7 6 13 31 45 49 49 44 45 45 44 40 43 42 42 40 38 30 33 33 31 26 23 27 
52 59 54 50 59 51 52 48 49 46 47 44 42 45 38 44 39 37 52 56 55 56 53 57 54 57 51 50 49 49 51 51 50 51 37 35 38 38 28 20 17 20 13 8 8 14 20 14 22 23 23 15 4 3 0 2 5 7 9 19 39 43 46 45 44 42 41 40 37 35 39 39 36 30 32 30 30 28 20 25 
54 61 55 51 54 49 49 47 45 44 47 43 40 44 39 39 36 40 51 54 56 53 54 54 55 55 49 50 52 53 54 51 48 48 34 34 37 34 22 17 14 15 8 7 9 12 18 14 15 21 20 15 10 1 6 3 3 0 9 10 32 42 46 37 42 37 40 32 35 35 34 36 32 30 27 27 27 22 23 20 
53 60 51 52 54 52 50 45 48 46 45 45 43 44 41 39 39 43 56 59 58 53 54 57 56 54 53 52 51 49 52 48 48 44 33 32 33 30 24 19 15 14 12 6 8 14 19 15 14 15 15 12 10 4 8 5 4 5 9 11 19 37 40 36 42 38 37 34 34 31 33 35 27 27 26 23 25 22 15 18 
55 64 56 55 56 56 49 47 44 46 46 44 44 46 44 43 42 46 55 59 57 55 53 52 55 56 54 56 55 54 51 50 50 46 35 32 28 26 22 18 19 15 12 9 11 13 17 15 12 11 10 11 12 8 11 10 6 7 11 12 16 29 36 36 38 38 37 31 33 32 33 32 30 23 25 22 25 22 14 12 
54 64 56 56 55 53 50 49 50 48 48 47 49 46 49 44 47 48 57 60 57 54 54 53 52 54 55 53 52 53 54 50 52 42 38 35 28 30 28 21 20 16 14 12 14 20 22 18 10 13 12 14 11 11 12 10 8 11 13 15 14 23 33 35 37 34 32 31 35 33 33 29 25 26 18 21 25 18 10 11 
55 62 56 57 56 53 50 49 46 49 48 47 50 48 49 50 49 50 55 57 55 52 52 55 54 57 53 55 52 54 50 48 49 43 40 38 31 31 30 26 20 23 19 18 17 20 26 23 19 20 19 20 14 14 17 13 11 11 14 16 19 20 31 35 38 38 36 33 31 30 32 31 26 21 23 22 17 13 12 10 
55 66 60 61 57 57 53 50 49 47 49 49 50 50 48 48 47 51 54 59 56 50 50 52 52 54 49 54 53 53 50 47 49 45 41 37 36 32 30 24 24 26 22 23 22 28 31 28 24 25 20 23 19 17 20 17 16 16 20 18 24 25 29 35 39 39 36 28 28 31 30 31 25 20 17 18 16 12 11 10 
51 63 61 62 59 56 53 52 50 51 50 50 54 51 49 52 50 53 50 57 53 51 50 56 52 56 53 52 52 53 50 47 46 45 42 39 38 35 29 28 25 29 27 26 31 31 32 31 27 25 22 24 24 21 24 19 20 21 23 24 26 29 32 37 38 34 33 28 28 31 29 25 24 21 19 17 14 8 6 11 
58 67 62 62 64 56 52 51 51 52 48 49 53 53 47 50 47 51 53 58 54 51 44 52 52 54 52 52 50 47 47 46 47 44 44 42 37 36 29 31 26 29 28 26 26 35 29 33 31 27 26 23 22 23 21 22 20 23 22 26 28 30 31 35 36 31 33 30 28 29 26 26 22 20 17 18 11 10 6 9 
61 70 65 62 65 63 51 54 53 51 50 48 50 52 52 52 49 54 53 58 55 50 51 53 53 53 53 52 50 49 50 43 45 48 47 44 36 36 32 31 30 30 30 29 29 32 33 37 31 27 28 26 27 26 25 24 24 28 31 31 29 29 32 35 35 32 30 29 30 26 27 26 23 21 17 16 14 10 9 15 
62 71 68 61 68 63 59 59 53 54 53 50 53 52 50 53 50 55 53 56 56 50 49 54 54 51 52 53 51 50 49 48 45 47 49 45 38 38 33 33 29 30 26 30 32 34 35 35 30 26 26 26 26 28 29 26 25 25 29 33 37 32 33 31 32 32 27 24 26 25 29 23 21 18 16 17 14 10 9 13 
68 70 65 63 64 61 59 59 57 56 55 52 57 56 53 55 55 58 56 60 55 56 57 58 52 51 52 55 54 52 49 53 46 49 52 45 41 37 30 33 29 33 32 33 35 33 35 33 25 23 24 27 28 28 31 33 26 30 37 38 38 37 37 35 34 35 28 28 27 31 32 29 29 25 19 19 14 20 11 18 


