P2
80 60
163
150 150 152 148 145 148 146 150 153 155 150 155 153 152 151 152 155 155 154 151 152 148 142 136 139 141 138 141 135 135 138 133 135 136 135 135 135 133 132 129 129 128 127 127 126 127 125 123 121 115 118 123 121 121 124 124 128 126 120 119 116 122 115 114 106 109 112 111 107 103 104 99 99 96 97 96 94 91 98 100 
144 151 149 150 148 149 147 157 153 155 154 155 156 153 152 153 157 156 152 153 153 146 142 141 140 140 140 139 138 137 136 136 136 140 138 138 137 136 132 135 133 129 128 131 129 127 125 127 120 113 116 123 125 126 124 125 130 126 122 121 120 116 115 114 113 111 115 111 107 110 108 103 102 102 95 95 98 91 95 100 
149 148 143 150 152 148 148 148 157 155 154 157 155 155 156 156 155 156 151 152 151 145 141 138 143 139 144 138 140 138 139 138 140 144 141 138 140 144 138 136 138 140 140 138 138 137 135 135 128 123 129 126 129 127 125 128 133 129 122 122 122 117 116 116 117 110 114 113 112 111 111 108 103 102 101 103 100 93 96 105 
146 150 148 148 151 148 147 154 155 160 155 157 156 157 158 160 158 156 158 151 149 149 142 141 138 143 141 141 142 139 140 140 139 141 143 143 139 143 140 139 141 141 142 140 143 144 138 139 129 129 128 132 132 133 128 126 133 132 123 118 121 118 120 121 115 116 116 116 114 116 107 109 103 102 99 102 99 97 95 97 
148 147 147 148 150 150 149 154 158 157 155 158 160 157 155 155 158 156 156 151 150 148 145 141 139 141 141 142 143 141 141 141 139 141 140 140 141 138 141 140 141 141 138 143 142 143 141 138 133 130 130 136 135 134 131 132 132 128 125 124 121 118 121 121 115 119 115 117 117 115 112 107 106 102 101 103 105 100 95 102 
146 150 150 148 150 148 152 155 157 160 163 154 160 155 154 156 153 158 158 154 155 153 146 142 145 146 145 145 142 143 145 142 140 146 143 138 138 138 141 140 142 137 139 141 141 143 141 140 138 132 134 141 140 133 139 132 131 134 130 125 125 123 122 125 121 120 118 120 120 118 113 111 107 107 105 105 104 95 98 105 
144 151 148 151 151 149 150 155 159 155 158 157 161 159 157 156 157 157 157 153 154 149 145 142 146 144 142 142 142 143 147 141 144 144 140 141 144 139 139 138 134 137 136 141 141 140 139 140 139 141 139 142 142 141 139 141 136 136 130 129 130 125 126 126 123 121 122 121 123 116 112 111 112 111 110 109 102 100 99 104 
145 149 148 150 146 151 152 151 160 158 158 158 158 158 159 161 158 158 157 152 152 150 147 143 146 146 146 142 142 145 146 143 143 141 142 146 140 140 140 139 143 137 140 141 145 140 139 140 137 142 147 143 145 141 141 143 141 137 133 133 132 130 126 129 127 125 121 124 121 118 116 112 112 114 116 109 108 101 101 108 
145 148 146 148 148 151 152 153 160 159 159 161 159 158 163 160 158 160 158 156 151 147 145 140 144 146 146 144 139 139 143 144 144 141 141 140 141 140 137 138 136 141 141 142 141 143 142 140 138 142 145 147 147 142 142 141 141 138 132 136 135 130 127 128 126 124 127 122 123 126 116 117 115 113 113 113 112 105 109 103 
147 153 146 150 150 150 151 154 160 159 158 159 163 160 158 159 158 158 156 153 157 149 146 139 142 144 145 144 140 139 140 144 138 144 142 141 137 141 138 138 139 139 139 140 139 140 138 139 141 145 147 147 148 143 139 141 139 137 132 131 130 132 129 129 126 126 126 126 127 126 125 118 122 118 118 113 113 108 111 111 
147 149 148 149 149 148 153 155 161 162 157 159 159 159 158 160 163 159 160 157 152 147 143 141 142 143 143 143 142 140 142 144 143 143 141 141 140 139 140 138 138 139 139 139 141 137 139 140 141 140 143 146 146 143 142 137 141 133 131 130 130 122 127 127 128 127 127 127 127 124 124 122 123 118 121 116 117 108 112 116 
148 149 150 147 146 151 155 156 161 160 157 161 160 159 160 160 158 161 160 156 154 149 144 141 144 141 142 140 139 139 142 142 137 141 144 141 141 139 140 138 141 138 140 140 138 141 140 140 141 143 143 142 148 145 142 138 138 137 130 129 129 125 124 127 127 123 123 124 123 126 125 123 122 122 120 115 117 112 111 113 
144 150 144 147 148 150 153 157 160 156 155 158 162 157 162 158 159 158 158 154 154 149 144 137 140 142 142 138 138 137 140 136 137 139 141 143 138 141 139 139 137 135 138 140 138 141 139 143 144 140 143 146 148 145 144 137 137 133 129 128 126 124 125 126 124 125 125 124 123 122 121 123 121 119 121 114 117 112 111 114 
144 147 148 148 151 148 157 159 159 159 160 159 162 154 158 158 157 159 156 153 153 148 140 137 136 137 141 137 133 136 138 139 135 140 142 140 136 137 138 135 134 135 135 135 138 136 136 138 142 141 143 142 146 142 140 137 139 134 129 126 128 124 125 123 122 123 121 122 122 118 119 117 123 118 118 116 115 113 114 112 
143 148 147 147 149 149 156 157 162 160 160 158 158 155 161 161 157 158 155 155 153 147 140 138 140 140 140 138 136 137 141 133 137 138 139 142 135 139 137 135 135 137 134 134 137 142 139 140 143 142 141 145 145 145 142 136 138 133 128 125 126 125 123 123 122 121 121 118 118 118 122 119 120 115 115 116 117 110 110 113 
141 145 145 148 147 149 157 158 161 159 157 160 158 156 162 159 155 154 155 153 151 146 141 136 141 139 140 138 136 137 138 138 136 140 139 136 137 139 136 135 133 134 135 133 140 139 139 142 141 141 145 141 146 140 139 136 134 133 129 125 123 123 124 123 123 121 120 121 120 119 118 117 117 120 116 117 117 115 114 112 
141 142 141 145 146 152 157 158 161 158 157 158 154 154 155 156 159 159 155 154 155 147 141 136 137 138 138 136 135 134 135 133 135 134 138 134 134 135 133 135 136 132 133 136 136 138 139 139 139 138 143 140 138 138 136 139 136 132 128 123 124 123 117 121 124 119 117 119 116 114 116 117 118 117 113 114 115 114 115 117 
136 140 134 144 148 147 155 154 158 156 151 155 157 153 151 154 155 152 152 152 148 146 139 134 136 135 137 135 134 136 135 132 137 139 137 134 132 132 132 135 135 128 133 132 130 136 136 135 139 136 139 137 138 137 136 136 133 134 126 126 125 123 122 122 120 120 118 116 116 114 116 116 119 119 116 114 117 109 108 112 
137 142 143 143 144 147 152 153 160 155 158 156 152 154 155 154 151 150 150 146 147 142 135 133 135 135 136 135 134 137 133 134 134 136 138 137 134 134 131 134 133 134 134 133 131 130 135 132 137 136 136 135 138 137 135 132 131 126 125 122 127 121 120 121 119 119 116 116 116 115 116 117 115 115 114 112 114 109 108 111 
131 136 140 140 140 148 150 152 157 155 151 153 152 149 150 149 150 145 149 147 144 137 132 130 133 131 135 132 128 127 136 131 130 133 134 135 132 129 131 131 131 133 133 135 133 131 131 131 135 134 135 134 137 134 131 131 129 125 122 119 123 119 120 124 119 115 114 115 114 117 114 115 116 112 117 113 112 110 106 108 
133 137 135 138 143 145 148 152 153 155 156 152 153 148 149 147 144 146 146 143 143 141 131 129 130 131 132 131 129 131 129 128 130 136 134 131 131 130 130 127 129 129 130 129 130 126 128 129 135 136 134 132 133 132 127 131 128 128 119 122 124 120 116 117 120 112 115 116 113 115 111 115 114 110 113 110 108 106 107 108 
132 136 135 134 139 149 146 149 153 150 150 149 148 143 144 146 145 144 143 140 141 135 129 127 131 130 131 132 123 118 122 120 123 125 127 129 126 126 128 125 124 125 130 126 127 129 125 129 135 132 134 135 133 134 130 129 128 129 125 121 117 115 122 115 115 113 112 114 112 116 111 111 110 108 113 109 111 106 107 110 
124 133 131 136 137 143 144 147 149 148 144 149 149 144 146 144 143 146 143 139 135 132 129 124 125 126 124 127 124 109 99 99 101 112 125 123 122 123 125 120 119 120 125 121 124 125 129 123 133 130 133 134 135 131 128 126 127 122 123 118 121 116 117 114 115 115 115 115 111 114 111 111 110 110 112 104 111 103 105 103 
127 133 130 133 135 142 145 145 146 142 143 144 143 143 143 143 143 140 140 135 130 132 128 125 120 122 125 125 119 105 94 94 92 98 118 121 118 116 115 115 115 118 125 118 123 118 121 123 129 129 127 129 129 127 128 125 122 122 118 119 115 114 112 115 116 114 113 114 114 113 110 114 112 110 110 105 106 104 106 106 
127 131 130 132 133 138 143 142 140 141 141 140 139 136 138 141 141 142 137 133 133 127 125 117 120 120 122 117 113 99 93 95 93 97 116 117 115 115 114 118 116 115 116 115 114 120 117 118 126 124 125 124 127 131 124 122 124 118 113 114 115 114 113 113 115 111 111 114 113 115 111 111 111 109 109 108 108 102 107 105 
124 127 123 126 131 136 138 141 140 139 137 139 139 135 136 136 136 137 133 129 130 123 118 118 117 113 123 116 106 102 100 100 100 101 104 120 117 117 114 115 111 114 115 110 113 114 111 112 123 121 123 122 125 126 124 121 118 114 113 114 111 113 113 111 112 110 113 112 111 113 111 106 108 108 108 107 106 101 104 106 
125 123 123 123 124 126 131 129 132 129 129 135 135 133 135 137 137 132 131 128 129 125 119 117 114 124 154 119 102 100 101 97 96 100 98 100 104 107 107 108 116 110 103 104 110 109 112 113 122 122 119 122 122 122 120 117 117 114 108 110 109 108 112 110 109 107 111 108 105 111 112 109 105 104 101 101 101 102 100 101 
114 117 116 119 114 112 111 112 117 114 113 119 115 111 119 117 123 121 127 127 128 124 117 114 115 120 139 107 93 91 94 92 89 88 88 92 89 94 92 96 99 97 91 88 90 95 105 114 119 117 118 118 117 117 116 118 114 110 107 105 106 107 108 107 104 107 107 105 106 110 108 107 104 100 102 101 99 98 96 97 
113 118 114 113 112 102 107 102 103 101 100 101 105 99 103 102 101 99 109 113 125 123 115 113 113 116 107 92 89 89 87 87 84 82 83 80 75 83 80 82 87 84 81 78 81 86 99 106 115 113 114 113 113 115 116 114 109 105 104 102 101 102 103 108 105 103 105 103 104 104 105 104 102 100 102 98 99 98 95 99 
108 111 109 111 103 98 96 93 97 94 99 98 95 92 91 93 93 94 95 92 98 109 112 107 106 104 94 88 83 84 83 81 82 81 76 75 74 75 81 77 77 78 79 75 75 80 90 105 112 109 114 112 114 115 112 110 107 105 104 100 100 100 104 104 102 100 104 103 102 102 101 97 98 100 97 97 99 97 95 95 
106 106 102 103 96 89 92 90 88 89 85 93 89 88 90 89 86 88 86 85 90 102 104 105 98 99 88 84 85 82 84 80 76 76 75 71 70 72 74 73 69 70 72 71 72 75 84 104 105 108 107 107 105 110 108 107 103 102 98 96 96 99 98 102 101 98 97 99 96 100 96 96 101 97 97 95 98 94 92 92 
99 105 102 102 91 86 87 83 84 85 82 89 87 85 83 82 82 83 82 78 82 90 98 98 99 95 87 79 78 76 81 76 72 73 70 68 68 71 73 70 68 68 74 70 70 76 81 85 79 87 91 94 101 104 107 105 105 102 101 97 92 97 98 102 97 97 96 96 95 97 93 96 94 93 93 90 93 89 88 89 
102 101 101 96 87 82 85 76 78 80 79 77 77 77 77 81 78 76 80 75 78 82 95 95 96 90 84 80 78 74 72 70 70 69 63 64 60 66 65 65 66 66 67 64 67 70 77 76 69 64 70 72 76 87 91 93 105 103 97 99 94 95 95 96 92 94 91 92 91 94 92 90 92 90 90 82 88 86 83 82 
95 101 93 94 86 80 77 76 78 74 72 74 76 69 74 72 70 72 73 71 73 76 88 92 92 88 79 75 71 63 61 65 69 67 64 60 61 62 63 62 64 62 64 60 63 64 69 71 63 52 56 58 61 75 82 90 100 99 98 95 91 90 90 91 88 86 87 88 89 89 89 88 86 88 83 78 82 79 81 81 
86 96 90 87 85 76 71 72 70 67 68 69 70 69 67 67 67 63 66 61 69 71 86 85 86 83 74 74 66 61 56 63 64 64 58 58 60 59 61 61 57 62 59 59 60 58 62 65 55 47 48 49 57 75 85 91 96 94 95 93 89 89 91 86 81 86 87 88 84 88 80 84 80 82 78 74 77 73 78 81 
85 90 88 86 78 75 71 70 69 64 64 68 67 66 66 65 63 60 60 59 63 68 82 80 80 77 68 69 66 59 59 63 62 60 54 56 54 58 57 59 56 55 57 57 59 57 60 58 49 40 42 42 46 71 82 89 95 89 85 85 85 86 88 82 82 84 78 77 77 78 75 77 77 75 73 72 74 71 72 75 
87 89 87 82 77 74 68 66 66 67 65 63 66 61 66 59 56 56 55 57 60 62 75 76 75 73 67 65 62 60 63 62 61 59 54 54 54 56 52 53 53 51 57 56 55 54 55 52 45 34 34 37 43 60 81 84 91 92 84 83 80 82 81 81 77 77 74 77 75 76 73 77 75 72 70 66 68 60 67 69 
87 87 83 80 71 71 66 63 64 63 61 64 64 59 59 60 56 52 53 55 56 64 72 71 72 67 65 64 62 61 59 60 60 58 53 52 51 49 52 49 45 46 50 54 55 53 50 48 34 30 26 30 35 48 75 82 85 83 83 78 80 79 79 78 77 75 76 75 72 75 74 73 73 68 67 66 64 61 65 65 
84 86 84 74 71 68 68 64 65 58 59 59 61 58 56 54 52 51 48 53 54 61 68 69 66 66 62 58 56 61 58 57 61 56 47 49 46 49 46 46 45 44 48 50 49 48 43 43 33 23 20 23 29 38 61 73 83 78 78 79 81 75 77 75 71 70 70 72 68 72 70 70 71 64 62 62 60 58 59 61 
85 85 78 74 70 64 64 62 62 58 57 62 61 58 52 52 52 47 49 51 51 61 63 64 67 63 60 61 60 59 59 57 57 55 53 45 44 47 47 44 41 42 45 44 44 48 41 38 28 19 18 16 16 26 34 43 67 75 75 76 79 72 76 73 71 68 66 65 67 70 68 68 68 67 58 57 59 54 58 58 
83 84 79 70 64 59 59 55 57 54 56 55 61 52 54 53 49 46 45 47 47 57 61 58 61 56 58 58 55 55 54 54 58 53 53 46 43 47 44 44 42 41 40 43 47 41 35 34 28 21 18 13 14 17 23 25 46 67 71 72 71 71 71 69 65 60 62 64 65 68 65 65 64 60 58 58 59 53 55 56 
80 78 75 70 64 62 58 57 54 52 52 53 55 50 50 47 46 43 42 46 47 54 59 55 61 56 57 52 54 51 51 53 55 51 48 43 40 44 39 40 39 38 38 43 40 40 32 26 28 24 24 16 11 14 15 18 30 56 63 64 67 67 69 65 62 59 61 60 58 62 63 63 62 62 57 51 56 54 50 56 
77 78 74 63 63 59 55 53 53 53 52 53 52 49 48 48 40 40 41 45 46 51 54 54 56 53 53 55 59 56 51 52 50 52 47 42 40 40 38 40 38 39 41 39 43 43 27 23 26 21 22 12 7 12 11 13 23 41 57 64 67 64 67 61 58 57 58 60 61 60 64 63 60 56 57 53 57 51 46 48 
75 78 68 67 66 58 57 57 54 53 52 52 51 49 47 45 41 39 35 39 43 49 51 50 54 50 51 54 63 61 59 51 46 47 46 44 38 38 37 39 39 37 39 36 40 38 21 21 32 21 14 8 7 4 10 12 11 25 52 59 63 63 65 60 56 55 53 57 58 60 58 59 58 54 50 51 53 48 49 50 
74 71 67 64 63 59 57 52 54 53 47 51 49 48 47 45 40 37 37 38 42 50 52 51 51 48 51 53 58 61 59 47 49 46 44 41 36 35 36 38 39 37 38 37 35 35 24 21 30 25 12 8 4 6 6 6 9 14 38 53 56 58 59 58 54 51 55 56 59 54 56 55 55 50 49 47 53 46 47 47 
75 70 66 66 61 54 56 51 52 51 49 49 48 43 44 40 38 37 39 36 40 47 47 48 49 49 46 46 49 54 52 47 44 44 43 38 35 35 35 40 36 34 35 37 40 32 23 21 27 24 17 9 2 5 4 5 6 12 24 49 54 59 57 54 50 50 51 53 52 55 53 51 51 48 46 40 49 42 42 47 
75 71 62 61 59 56 57 57 55 52 50 48 50 48 42 39 41 37 39 37 42 47 43 48 44 41 43 44 43 46 46 46 47 41 36 34 34 34 34 34 34 37 36 37 35 31 20 18 28 24 14 9 4 3 4 1 7 11 14 41 48 54 54 54 46 48 51 50 49 48 47 51 48 51 44 42 46 43 41 42 
73 72 62 63 59 57 55 54 52 49 49 50 46 43 40 41 39 34 36 35 39 45 45 45 45 39 43 45 42 40 42 48 43 40 35 36 30 33 34 34 32 32 34 36 36 29 22 18 26 22 19 9 6 5 4 4 7 6 12 26 45 51 50 48 49 47 50 49 46 45 45 48 43 42 38 44 46 40 41 40 
67 69 65 63 60 56 52 50 53 48 48 44 49 40 42 37 38 37 40 35 36 41 42 44 43 43 44 43 41 42 44 48 42 36 32 36 34 28 31 33 33 27 31 31 36 27 18 16 22 23 22 14 8 2 0 2 3 6 7 19 40 45 47 45 43 43 43 45 40 42 41 42 41 38 41 40 39 36 38 39 
67 68 60 58 57 53 56 51 50 48 45 46 46 41 41 39 36 36 42 38 40 42 42 44 38 42 45 44 42 40 42 45 41 35 36 36 32 33 30 32 30 31 27 29 32 26 18 13 13 21 19 10 9 4 4 2 7 5 3 11 29 40 47 43 37 37 41 37 39 38 39 42 39 36 37 33 35 35 35 35 
62 66 62 58 58 55 54 53 52 51 50 51 48 46 43 42 39 38 46 44 44 44 44 42 40 43 41 42 39 43 41 45 36 34 33 32 34 29 31 31 30 31 26 28 28 23 18 15 13 10 13 10 11 6 4 5 5 7 5 10 22 36 42 38 40 38 35 37 41 37 37 40 37 35 35 35 39 33 31 35 
65 69 66 65 58 56 54 56 55 51 46 52 47 45 43 41 41 43 45 45 48 46 44 42 42 41 41 42 42 42 40 43 39 32 34 32 28 32 29 31 33 30 27 29 26 23 23 14 13 10 13 12 11 8 5 5 8 11 6 12 20 30 33 36 41 36 39 36 33 39 37 34 34 35 34 34 37 31 30 34 
64 71 65 63 59 56 56 54 55 53 49 51 50 45 45 44 44 44 48 47 49 49 44 41 40 41 44 42 39 41 40 37 39 36 33 31 31 25 34 31 29 30 27 27 26 22 20 18 14 11 14 14 13 10 7 7 10 10 9 15 16 24 34 36 36 40 37 38 37 37 34 37 33 29 28 31 32 30 28 31 
68 69 68 59 63 54 56 55 53 50 51 48 50 50 48 47 48 49 51 47 50 48 45 45 41 42 41 41 39 38 44 40 40 36 33 28 30 27 29 27 24 25 26 23 22 27 25 23 21 15 16 19 19 13 14 12 11 12 14 17 19 25 32 34 39 40 39 36 34 37 31 34 38 34 33 31 32 26 26 30 
68 70 68 67 61 60 59 53 56 51 51 53 54 49 51 50 49 49 53 48 54 51 46 45 44 40 40 39 39 38 39 39 37 35 33 31 31 28 28 24 24 24 25 23 25 32 32 25 25 21 22 22 19 14 14 16 19 15 16 16 25 31 34 36 37 39 39 35 36 37 35 34 35 34 34 30 31 23 25 23 
71 70 67 66 66 61 58 57 56 54 52 56 54 52 53 55 54 55 52 52 51 53 47 43 40 43 39 37 37 37 38 39 37 34 33 31 25 27 27 25 25 22 24 23 26 32 30 28 32 24 21 23 22 21 18 18 22 20 20 22 31 28 36 38 38 36 36 38 36 36 33 34 36 28 30 30 29 21 22 24 
71 74 69 65 70 63 61 58 59 54 51 52 53 56 54 57 57 58 56 53 54 49 43 40 42 42 42 39 35 39 39 37 37 35 32 30 30 30 25 24 28 27 29 25 26 36 32 32 32 26 24 24 25 24 22 20 22 27 22 28 31 32 37 38 39 38 37 39 36 36 33 36 33 30 26 28 25 22 22 24 
77 76 72 69 66 64 65 57 56 55 55 55 54 57 57 54 54 56 57 55 53 49 46 43 41 40 39 39 38 37 38 36 34 37 37 32 28 30 27 25 26 23 28 28 31 34 33 33 32 26 24 27 24 25 25 23 26 25 27 29 34 33 34 39 38 37 37 36 36 34 32 36 33 29 31 25 26 21 26 27 
76 81 76 70 74 67 68 62 63 58 56 57 59 56 58 55 56 60 57 57 58 50 44 41 42 41 41 44 40 39 42 41 37 36 37 33 31 29 32 32 30 29 27 25 31 36 34 31 31 25 25 27 26 26 26 24 25 26 31 34 35 43 39 38 35 35 35 36 34 32 35 35 34 31 29 30 27 24 27 26 
82 77 74 74 71 65 65 62 67 60 59 64 59 57 58 57 59 57 56 58 59 51 43 44 45 41 41 41 36 39 44 38 40 37 41 37 31 25 31 29 32 32 31 31 36 36 36 34 32 26 26 28 22 29 26 25 26 30 35 37 38 37 42 41 37 39 39 37 37 36 39 38 39 36 30 32 31 31 27 30 


