P2
80 60
157
136 137 137 135 136 136 133 132 134 133 127 136 135 141 143 148 149 143 150 145 147 151 153 149 144 141 144 141 140 143 145 146 139 135 139 139 139 134 131 130 131 129 127 130 124 125 127 122 118 120 124 127 129 125 127 123 124 122 121 118 114 116 110 110 110 111 111 111 112 106 105 102 97 101 98 98 95 92 90 91 
138 138 142 136 144 139 134 136 137 135 133 135 128 133 143 143 145 144 150 147 149 157 155 149 150 148 148 148 154 151 150 149 147 148 147 148 146 139 136 138 138 136 136 138 133 132 132 132 127 123 128 131 131 132 128 127 127 126 123 123 117 113 115 114 114 111 115 112 109 108 109 101 104 101 101 102 96 94 89 90 
134 136 142 141 141 144 134 136 140 135 134 130 126 133 133 132 134 135 146 146 146 154 155 152 150 148 152 153 155 149 151 147 149 148 145 146 146 143 136 140 140 141 140 143 138 143 139 141 133 132 132 134 134 135 131 131 127 129 124 121 118 116 116 119 117 111 114 116 111 111 110 107 104 105 103 103 104 95 90 97 
142 137 140 138 142 144 133 140 142 134 125 130 124 128 128 124 123 126 130 132 143 149 150 151 151 147 149 153 155 152 152 153 150 152 150 148 145 142 135 139 139 142 143 141 145 144 146 146 138 136 140 135 137 134 136 131 128 128 128 122 124 116 117 119 115 114 120 115 116 111 112 110 108 108 105 105 102 99 91 94 
140 140 139 143 142 140 134 136 143 135 131 131 123 124 123 117 119 116 121 126 127 131 142 148 149 150 147 151 155 152 155 153 150 150 151 150 149 140 137 137 139 139 144 145 145 146 145 151 142 141 142 141 140 139 139 132 133 132 130 126 121 121 117 120 118 115 120 115 117 117 115 112 113 110 106 109 102 98 95 102 
138 138 141 141 140 142 138 141 137 135 135 135 130 125 117 115 115 111 114 111 117 121 126 132 142 151 150 149 153 153 152 151 149 152 145 150 149 147 141 141 139 144 144 146 145 150 147 148 142 143 139 144 143 140 142 140 135 132 129 126 127 125 125 121 118 123 124 119 116 117 115 116 113 115 112 109 107 101 100 96 
138 134 138 146 142 143 137 135 138 129 133 137 139 123 119 114 112 108 112 112 115 117 114 122 123 132 144 145 150 155 152 152 149 146 145 145 149 146 139 138 140 143 143 145 145 147 149 146 142 148 149 148 147 145 142 136 139 136 131 135 127 126 125 123 121 122 122 119 117 117 115 118 111 116 112 110 107 105 102 100 
137 135 140 145 139 141 140 140 141 130 129 142 142 127 116 114 113 111 111 108 113 114 114 117 115 116 125 140 148 148 149 148 149 147 148 144 149 148 138 139 141 140 145 145 145 147 148 144 142 150 153 150 151 150 148 142 139 142 138 136 134 129 130 126 125 124 124 121 123 118 114 118 117 114 117 111 111 105 103 106 
135 136 140 141 137 141 136 140 141 130 129 138 139 128 116 111 109 110 111 111 111 113 112 111 112 114 118 123 130 138 143 147 148 150 146 147 144 143 136 139 140 140 143 145 144 143 146 145 147 149 150 154 150 147 147 142 141 141 138 135 135 132 132 133 132 128 133 129 125 124 120 119 117 117 116 111 113 106 103 106 
137 137 139 140 140 142 140 142 142 131 130 134 136 125 114 113 110 111 111 114 114 112 112 113 114 113 116 117 116 121 128 140 143 145 149 145 147 145 136 138 140 140 143 145 145 146 147 151 143 151 154 155 148 150 145 139 141 142 138 136 137 128 129 133 130 132 135 133 129 124 122 128 123 122 122 117 110 109 108 108 
134 133 143 139 143 141 138 142 140 135 130 126 129 121 116 108 109 110 108 109 114 112 111 114 112 114 113 116 116 114 114 119 125 137 144 143 147 142 136 139 138 138 141 146 143 144 145 145 142 149 152 153 149 145 141 141 136 138 140 135 134 129 127 133 129 128 131 130 130 127 125 129 125 125 122 118 115 108 107 108 
135 134 139 141 140 142 140 140 139 135 126 126 128 119 113 109 107 107 107 109 114 114 115 113 114 113 114 113 112 110 112 114 111 116 127 141 143 139 135 137 138 139 142 143 142 143 144 147 144 148 151 151 148 149 142 138 140 140 136 136 129 126 126 127 127 129 129 129 126 126 124 124 124 125 122 123 118 113 113 108 
136 136 139 142 141 142 143 140 138 131 125 128 128 120 114 110 108 106 109 114 111 115 112 112 113 113 112 114 111 110 108 108 106 106 114 119 129 133 132 135 138 141 140 143 143 143 139 145 146 150 154 150 148 146 147 139 137 139 133 132 131 128 126 129 127 124 126 126 126 121 123 124 127 124 121 117 114 110 111 108 
136 134 139 139 141 140 138 141 133 128 122 124 132 126 116 113 107 106 110 110 108 112 108 114 113 113 112 112 111 111 111 108 105 104 106 112 117 116 126 135 138 141 137 144 142 145 140 142 141 149 152 149 145 151 142 140 136 135 130 130 130 125 122 127 128 124 124 121 120 121 120 121 123 123 121 117 115 110 107 105 
134 132 139 136 137 142 143 136 130 123 125 124 129 121 111 109 107 109 111 111 108 110 111 111 110 109 113 113 109 109 111 105 101 102 108 107 110 109 120 131 133 137 138 142 140 143 141 140 146 150 151 150 145 149 142 134 132 133 130 126 128 121 122 125 125 124 121 121 118 117 120 120 120 120 121 118 117 109 107 113 
132 133 135 136 141 138 139 140 136 131 122 123 123 123 115 110 104 107 107 112 106 109 107 106 109 111 106 108 111 112 109 107 103 104 105 109 106 107 119 133 133 139 137 142 140 145 141 139 143 150 148 146 146 149 142 135 133 132 128 121 125 124 122 122 122 119 121 117 117 119 118 121 120 121 120 116 116 112 106 104 
134 132 134 135 140 141 142 139 129 125 118 121 121 116 107 105 104 104 104 108 110 108 105 105 106 109 107 107 111 108 106 106 103 103 104 104 105 105 118 131 134 135 137 138 142 141 137 140 142 145 146 149 144 144 139 136 134 133 130 127 124 124 120 121 118 120 120 120 119 118 118 117 117 120 121 116 115 111 106 104 
130 130 134 134 137 141 137 135 126 120 114 114 111 110 108 101 104 105 104 107 105 108 104 105 104 105 108 107 105 108 105 106 101 100 101 105 104 106 126 133 134 136 136 139 139 138 139 140 143 147 147 145 143 142 137 135 135 131 129 125 123 120 117 120 119 117 118 117 117 115 118 119 118 120 117 116 115 112 105 109 
128 126 132 133 135 139 137 130 116 114 107 107 106 104 103 102 102 100 102 106 106 106 105 105 108 106 106 108 105 107 108 105 101 97 102 104 107 106 126 134 131 134 134 139 137 139 137 139 140 145 147 145 143 140 138 131 132 130 126 123 123 118 119 119 120 117 119 117 117 118 117 115 119 118 119 115 112 110 106 111 
126 125 128 127 132 137 134 127 114 111 103 103 102 98 100 101 103 100 105 104 100 105 105 105 106 109 106 98 105 100 101 99 99 101 99 103 104 108 125 134 133 132 136 138 135 140 131 137 144 146 144 144 138 140 132 130 128 124 126 122 121 119 118 118 117 118 117 116 115 113 116 117 115 116 119 114 112 110 106 106 
128 127 128 128 131 134 134 126 115 112 101 98 104 102 99 100 96 99 101 99 102 105 107 105 105 106 114 107 104 102 99 98 95 100 99 99 104 110 124 132 133 131 135 136 136 138 134 134 137 145 143 141 139 137 131 132 128 128 124 119 120 113 114 119 116 114 117 115 112 115 115 117 116 116 118 115 113 107 105 109 
123 119 125 126 132 135 128 118 108 101 98 100 105 99 101 100 99 98 99 98 97 106 105 106 108 110 116 112 102 97 100 95 94 95 100 97 100 108 123 127 130 132 132 136 136 137 135 135 139 140 141 140 132 134 131 132 130 129 125 124 123 117 114 118 114 113 117 114 111 112 114 114 114 113 114 112 111 106 106 105 
118 125 122 128 129 133 131 113 99 97 97 98 99 95 97 100 97 97 98 97 97 99 103 101 106 106 110 113 103 96 98 92 95 96 99 96 102 108 118 120 121 121 122 132 133 133 130 130 139 140 136 137 133 131 130 130 130 127 120 121 118 120 115 118 115 114 116 113 113 112 114 115 115 116 114 109 108 109 104 107 
114 122 119 122 123 132 124 109 95 95 92 94 97 93 99 98 96 97 98 96 97 101 96 99 100 98 98 104 103 100 96 96 93 94 93 92 90 100 106 111 112 113 114 118 120 128 128 130 134 137 136 133 133 132 130 126 122 124 119 119 119 116 116 114 115 115 113 116 110 111 115 116 113 113 111 107 107 100 103 101 
115 115 119 119 125 126 123 108 95 91 92 93 94 94 92 96 94 96 96 96 98 97 98 96 95 94 94 96 100 97 99 93 87 87 88 85 85 99 108 111 112 113 113 116 117 117 121 129 134 136 133 130 131 129 126 125 126 119 117 116 115 115 114 113 115 115 118 115 112 113 117 112 114 114 109 108 108 103 100 97 
111 109 117 117 120 126 118 104 91 92 90 91 93 90 95 97 91 91 93 94 90 94 92 90 90 89 90 92 95 96 94 91 82 85 81 81 88 101 108 112 114 113 112 113 112 116 115 122 130 132 129 127 127 127 122 124 120 117 116 113 112 118 113 115 113 114 114 111 111 113 115 113 113 109 109 107 105 100 96 99 
106 108 115 115 115 118 111 99 88 87 89 91 95 90 96 93 93 93 94 91 97 94 90 91 89 90 92 94 93 94 89 89 83 85 79 83 88 100 107 112 114 111 112 116 116 116 114 118 125 129 126 122 124 126 122 121 118 115 115 113 112 111 111 111 111 111 111 114 110 110 112 109 112 111 109 103 101 104 96 95 
100 104 107 108 107 106 97 89 81 84 86 89 92 90 93 93 90 92 91 93 91 96 94 89 87 89 91 87 91 89 89 86 83 82 80 83 87 100 108 108 111 112 112 113 113 114 114 118 123 124 124 121 123 121 119 118 111 113 112 110 107 107 106 111 111 109 108 108 108 110 109 109 108 110 106 103 105 97 95 93 
98 103 106 103 105 98 88 82 82 80 87 89 93 90 92 90 90 91 91 91 92 91 92 87 84 84 84 86 83 85 81 80 77 80 79 82 84 106 106 110 112 110 111 113 113 112 112 117 124 121 124 117 115 119 117 112 107 110 105 109 102 105 107 110 109 107 105 105 104 109 107 109 108 104 104 101 100 96 97 92 
97 99 102 100 97 92 82 77 82 84 88 92 91 91 93 90 87 91 90 92 89 90 91 89 85 86 85 83 84 77 77 80 79 77 78 83 82 108 107 109 110 111 108 110 111 112 110 118 119 119 120 118 113 116 114 108 106 104 105 102 103 104 106 107 105 103 104 102 104 107 109 104 101 104 105 98 100 98 93 92 
93 98 98 95 91 90 78 76 79 83 85 87 85 87 89 88 87 88 88 91 91 88 90 90 84 87 84 82 80 76 78 76 83 82 80 85 85 105 104 105 105 110 106 106 109 111 106 113 114 116 116 116 113 115 112 108 105 105 104 100 97 99 102 102 101 101 98 102 103 101 103 99 100 99 101 92 96 97 91 92 
92 94 95 91 89 83 73 73 79 82 84 85 85 87 87 84 86 85 90 89 88 88 88 85 83 82 82 79 79 77 76 78 80 83 82 85 86 100 100 100 102 100 102 101 100 102 98 100 94 101 101 107 106 108 107 105 102 103 100 96 95 97 97 100 99 97 97 98 96 98 98 99 99 96 96 91 96 90 90 88 
87 91 92 88 80 76 69 74 76 82 85 89 87 85 85 88 87 84 86 89 90 88 88 86 81 85 83 81 80 76 76 77 77 78 80 82 87 99 95 95 97 96 97 97 93 94 90 90 80 78 79 81 87 98 97 94 105 106 101 100 96 98 98 97 94 93 93 93 92 92 97 94 94 91 88 88 87 84 89 86 
85 85 89 80 78 67 66 68 73 77 81 84 86 88 85 87 86 83 84 85 87 86 87 86 81 78 81 79 79 74 76 78 76 77 79 78 85 97 92 91 96 92 92 90 87 86 86 84 71 66 69 70 71 77 78 83 99 100 100 98 92 91 96 95 91 92 87 90 91 89 92 88 89 88 85 82 82 85 80 79 
80 82 83 83 72 67 62 65 70 78 81 84 86 86 86 86 84 84 86 81 81 85 87 80 78 82 78 78 78 81 77 79 78 74 75 75 81 94 91 90 89 89 89 87 83 83 79 76 65 62 61 59 60 75 86 93 95 99 93 92 89 90 93 91 88 87 88 85 82 81 84 87 83 82 80 79 76 76 75 71 
78 84 78 75 71 61 62 70 73 80 83 84 85 86 83 84 83 83 85 85 82 85 87 82 76 79 76 76 76 79 76 72 75 73 72 75 80 86 84 83 86 84 82 83 83 77 76 71 60 50 51 53 52 77 88 93 94 94 93 85 83 89 85 86 81 82 80 80 81 79 81 79 81 78 74 74 72 70 70 72 
74 78 79 75 66 64 62 65 73 77 81 84 85 83 86 86 84 81 85 83 82 84 83 84 78 75 76 77 79 78 75 75 71 69 68 73 77 85 80 82 82 81 77 79 79 74 68 63 47 42 41 44 45 69 86 88 92 89 88 83 81 82 83 80 79 77 78 78 76 74 76 76 76 73 69 68 69 72 67 62 
72 75 73 70 62 63 64 69 70 79 78 81 84 82 82 83 84 82 80 81 81 81 82 82 80 80 78 83 78 80 77 81 77 73 73 73 80 82 76 76 75 80 76 75 73 67 61 57 41 34 33 35 38 52 78 88 90 87 84 82 82 81 80 79 76 79 76 77 73 74 77 71 68 71 66 64 65 66 64 66 
73 71 72 69 62 60 63 66 73 76 78 84 81 81 83 85 83 80 82 78 81 82 83 83 82 82 82 85 79 78 80 80 76 71 69 72 76 76 70 74 74 71 68 72 70 67 55 54 35 26 27 28 28 42 67 76 82 83 81 78 78 79 77 81 73 71 74 70 69 72 69 70 69 66 64 64 62 62 61 64 
68 72 71 61 60 59 60 65 74 76 82 82 80 80 81 82 81 78 82 80 82 77 81 84 78 83 82 81 82 78 77 76 75 74 74 71 75 75 70 70 74 69 68 67 65 60 51 45 33 22 23 18 21 28 37 46 66 78 81 78 78 75 75 74 70 67 64 69 68 70 68 69 64 64 60 60 60 61 61 59 
69 70 67 61 58 61 64 64 69 74 76 78 80 75 78 80 79 79 79 80 80 78 85 82 77 79 78 77 77 81 76 77 75 69 65 68 75 71 67 65 69 67 62 65 61 55 48 41 33 23 22 16 13 18 24 29 44 71 73 78 76 75 71 70 67 62 63 63 67 69 67 68 63 59 58 58 57 53 55 58 
66 65 66 59 56 57 62 63 68 72 76 77 79 75 79 78 77 79 81 81 80 80 78 79 76 76 74 79 78 79 77 75 72 71 69 70 74 68 63 52 47 50 49 51 43 38 40 35 32 31 28 21 11 15 16 21 31 60 66 68 70 73 67 66 63 61 59 63 63 65 68 64 65 58 56 55 56 56 51 50 
63 68 64 58 57 57 60 67 67 72 76 72 77 76 79 79 76 74 81 81 81 81 79 76 74 74 78 77 77 77 76 75 69 68 68 66 74 67 61 45 36 36 34 33 16 16 20 24 28 27 27 16 11 14 13 17 25 41 62 66 68 66 68 67 58 56 57 60 62 66 66 61 60 58 55 55 55 53 50 54 
59 63 63 56 57 57 61 64 70 71 75 76 75 73 81 79 80 77 81 79 82 78 78 75 76 75 76 75 77 79 74 71 70 66 69 68 74 61 53 37 33 29 26 24 15 15 22 21 32 29 17 13 8 8 9 18 18 29 52 61 64 64 59 60 58 56 57 59 60 64 62 61 57 54 51 51 52 48 44 43 
59 58 59 57 53 54 60 64 68 71 73 73 74 76 78 79 79 75 79 79 77 78 78 75 74 75 73 74 73 73 73 71 72 70 66 67 66 58 50 34 28 27 24 21 17 15 18 21 34 35 20 11 3 4 5 8 8 15 40 54 58 57 57 58 55 55 55 60 56 60 58 57 54 53 52 49 49 47 43 36 
57 55 58 54 53 58 59 62 66 71 69 74 75 72 74 79 80 76 78 79 79 78 75 73 71 71 73 72 75 74 72 72 68 68 70 68 62 58 44 33 25 27 23 19 15 14 15 21 30 32 21 12 5 2 3 7 5 6 25 49 53 53 57 57 51 53 54 54 55 56 55 56 53 52 50 48 46 45 44 50 
58 57 55 55 54 59 59 63 65 66 70 74 72 70 76 78 78 75 76 77 81 79 79 78 79 74 73 74 75 73 69 71 67 66 62 64 65 58 42 29 24 23 24 20 13 17 16 21 30 31 22 8 3 1 1 5 4 5 17 39 49 54 56 54 49 50 51 52 52 52 55 51 52 49 47 46 44 40 41 43 
54 53 55 52 55 58 56 60 66 68 72 70 70 71 77 77 77 80 77 77 80 83 77 76 72 74 73 73 70 72 70 71 69 66 62 63 59 51 34 25 21 20 21 16 13 15 16 20 29 29 24 11 4 3 4 6 5 5 10 29 47 52 51 51 45 49 47 52 49 48 50 50 47 45 42 41 43 40 34 41 
50 53 55 52 54 58 60 61 65 69 71 70 73 74 77 78 80 74 81 78 83 80 78 73 72 73 77 77 74 72 71 74 66 67 64 65 59 51 32 23 25 19 19 15 13 16 19 18 27 26 25 11 5 3 3 1 4 5 8 19 41 50 48 49 48 46 48 49 45 46 46 47 45 44 39 38 44 39 33 32 
52 52 52 53 56 56 61 61 64 69 71 72 71 71 79 75 77 76 79 75 79 79 81 73 76 74 76 75 74 76 73 72 67 66 63 65 60 47 29 19 20 19 19 13 13 13 19 18 17 22 25 15 7 2 0 0 2 6 5 10 32 45 46 47 45 45 44 44 41 43 43 45 43 42 38 39 41 39 34 33 
51 49 52 51 54 57 58 66 67 70 71 73 74 71 76 78 76 77 75 75 78 74 76 73 71 73 73 73 70 72 75 74 68 67 65 65 56 42 28 21 20 16 18 12 12 16 18 20 13 16 19 16 9 5 5 4 0 4 8 11 23 38 39 43 41 41 43 44 41 39 38 38 41 36 33 38 40 39 30 32 
50 49 52 52 56 59 61 62 66 71 70 72 75 73 75 77 78 80 76 76 76 72 73 70 71 72 74 71 71 70 70 70 69 68 63 62 54 38 25 18 20 16 18 14 14 17 19 18 15 13 13 12 9 10 6 5 7 8 8 12 15 35 37 41 37 40 44 39 37 36 37 37 36 34 35 38 36 34 31 31 
55 50 54 58 58 59 62 61 69 68 70 73 72 73 74 79 77 78 76 76 74 73 75 72 71 75 70 71 70 67 70 68 67 70 66 65 52 42 28 26 24 20 19 19 21 23 24 19 16 11 15 18 12 12 11 8 8 7 10 11 15 27 37 37 38 39 41 44 39 41 35 37 34 37 33 33 33 31 29 29 
58 56 55 55 60 62 58 62 67 69 69 72 71 70 73 81 77 76 77 73 72 71 70 69 66 71 69 68 69 66 70 70 65 69 62 60 54 44 30 29 27 27 24 26 23 28 26 25 21 18 21 19 18 17 17 18 12 13 9 15 19 25 32 39 36 39 44 44 40 39 36 35 36 33 32 32 29 28 25 27 
55 58 59 55 59 57 58 63 62 68 66 73 70 71 72 76 74 75 74 73 71 67 68 68 67 67 66 63 65 66 66 68 64 63 65 62 55 45 35 32 35 31 31 31 29 34 33 33 28 25 25 23 20 19 16 18 17 17 16 16 20 29 32 40 38 39 41 40 39 40 36 36 34 32 30 32 31 26 25 23 
56 60 59 56 61 60 61 58 65 67 67 70 69 71 76 76 75 72 74 74 71 69 72 69 67 65 66 67 66 65 66 65 69 64 63 60 55 47 35 35 35 36 33 36 34 37 36 36 31 26 26 25 22 22 23 22 20 17 20 22 24 32 35 36 37 38 39 39 35 39 39 34 32 29 26 30 28 24 26 21 
59 58 59 62 59 62 59 58 62 65 69 67 70 73 74 75 73 72 76 71 73 69 72 69 67 66 68 64 66 64 66 67 62 63 64 62 58 47 40 33 35 32 35 36 33 34 35 38 34 27 28 26 24 23 22 21 21 19 20 23 25 31 31 34 35 36 39 38 37 37 35 32 34 30 29 29 26 21 19 18 
65 57 62 57 62 62 60 59 63 68 69 72 71 69 74 72 72 72 72 73 70 72 72 68 72 69 70 65 67 68 64 65 66 59 63 61 58 50 39 34 33 34 34 35 36 36 35 42 36 30 29 28 21 24 24 22 20 22 24 26 31 31 31 33 36 34 37 34 35 31 33 30 28 30 27 25 23 20 20 20 
64 61 65 63 60 64 63 60 65 70 69 72 74 69 74 77 72 69 74 74 72 67 69 71 70 67 65 67 64 68 65 64 63 63 63 61 56 48 38 35 39 34 34 35 34 38 35 45 38 30 29 25 22 23 25 23 20 22 24 30 34 34 33 33 34 33 38 32 31 28 26 24 28 24 26 25 22 22 21 21 
72 67 63 62 63 66 62 64 68 68 72 77 76 72 70 74 70 66 71 73 73 71 70 68 75 70 70 69 66 67 64 68 63 58 63 60 53 50 37 36 43 41 35 38 39 38 39 42 37 32 30 26 25 26 27 25 23 21 27 32 32 30 30 32 32 31 36 31 28 28 27 23 27 24 25 21 24 20 21 23 


