P2
80 60
212
144 145 148 146 145 149 153 149 151 152 155 155 150 149 150 143 142 137 130 127 130 127 126 130 121 124 121 118 118 120 122 120 121 121 120 120 126 121 119 119 125 121 123 121 121 121 123 120 121 123 121 120 119 120 123 121 116 116 109 108 111 109 106 102 101 103 103 97 97 92 91 93 90 90 84 82 83 86 80 83 
141 138 142 144 146 145 150 149 149 150 153 151 151 150 151 148 143 139 135 133 131 131 129 131 131 128 127 130 130 122 123 128 125 127 124 125 130 128 130 126 131 131 129 126 125 125 125 124 122 124 124 124 119 122 123 118 119 116 109 111 107 109 107 104 105 103 100 97 100 95 94 94 89 93 87 80 86 84 81 81 
142 142 141 146 147 144 149 152 154 155 153 152 152 151 150 151 147 143 131 133 132 133 130 130 130 132 136 132 129 126 129 125 136 131 132 132 134 134 132 137 142 139 138 135 134 132 129 130 126 125 127 128 124 122 124 124 122 117 114 112 109 112 110 107 104 109 107 104 104 98 95 97 94 95 89 86 84 81 86 81 
142 140 142 145 147 142 150 152 152 151 151 152 150 153 149 146 148 141 137 130 132 134 134 132 131 130 134 132 133 129 128 128 131 132 133 137 133 134 138 141 142 144 140 143 141 138 138 137 128 133 129 131 126 126 123 125 124 117 114 115 111 114 112 109 111 109 104 106 106 105 102 99 97 100 91 88 87 85 81 82 
139 140 149 144 146 146 152 153 152 154 156 154 154 152 151 151 146 140 136 132 136 130 133 130 132 135 134 133 134 133 132 127 132 135 138 137 136 135 141 141 143 143 143 145 143 143 145 138 137 134 132 135 132 131 129 127 126 122 118 117 117 115 114 115 110 111 110 106 105 102 105 102 102 102 97 91 93 87 84 86 
139 139 144 144 148 146 154 156 152 156 155 154 153 152 151 152 152 143 135 131 134 134 132 133 130 133 129 130 134 133 134 135 137 137 138 135 138 137 139 143 143 145 145 143 145 144 141 141 138 144 139 140 135 132 133 128 130 127 121 121 119 121 115 115 115 114 112 110 111 104 106 102 103 103 100 93 92 92 86 82 
138 143 143 146 146 149 156 157 149 157 154 158 151 154 151 153 149 143 140 136 135 134 135 132 135 138 134 131 134 135 135 131 135 136 136 135 138 135 135 141 145 144 143 147 145 143 138 144 146 148 142 144 138 137 137 132 132 126 125 123 122 119 115 114 113 113 114 112 109 107 109 104 107 106 99 92 95 90 90 88 
138 140 143 146 146 151 156 160 154 156 157 154 154 155 154 152 152 144 140 138 135 135 132 132 134 134 134 133 133 131 135 131 135 136 137 135 134 136 137 135 142 141 143 144 144 140 142 146 148 149 150 145 142 142 141 136 136 130 127 124 125 123 119 117 115 117 118 116 110 113 107 107 107 105 101 97 98 96 95 91 
138 138 147 149 148 149 158 158 153 156 153 155 155 157 153 155 153 149 144 137 133 132 134 135 133 137 136 134 133 134 135 130 136 137 135 135 136 135 137 143 142 139 141 145 145 143 145 148 151 150 149 149 145 146 142 140 136 132 129 128 128 127 122 120 120 120 121 117 115 112 111 109 110 110 103 99 104 98 95 91 
135 141 146 149 146 146 153 157 154 154 152 155 153 158 154 154 154 150 140 136 135 135 134 135 134 137 133 132 134 132 132 131 134 139 131 137 135 137 136 138 142 143 140 143 143 142 146 146 152 150 148 142 144 142 138 141 135 133 128 129 131 130 123 122 122 124 125 125 120 114 113 115 112 111 108 101 106 101 99 93 
137 140 142 145 149 148 155 151 150 152 154 154 155 153 153 154 153 142 142 135 135 135 134 136 137 136 133 136 135 130 132 133 134 135 138 138 135 135 138 140 141 143 142 148 142 146 146 148 153 152 146 144 140 142 142 138 136 132 129 129 129 127 121 124 122 123 124 126 120 118 119 115 115 113 111 109 102 104 100 100 
137 139 144 147 150 151 156 154 154 155 155 154 154 156 152 154 154 145 140 136 134 132 134 134 136 137 133 136 131 130 129 131 132 133 133 136 138 137 137 141 141 144 143 143 141 145 146 147 153 152 146 149 145 140 139 135 135 130 129 125 124 124 123 123 124 122 124 125 119 121 118 117 120 116 114 108 109 108 100 102 
136 135 145 146 148 151 154 159 152 154 156 152 155 152 149 154 152 141 142 136 135 135 132 136 134 136 134 133 127 129 129 130 132 130 133 137 137 135 135 139 141 143 140 140 141 142 140 147 151 152 150 146 143 141 138 132 136 130 124 125 122 123 122 121 119 117 120 119 117 119 120 117 117 116 115 106 110 109 102 101 
136 140 145 147 146 150 160 157 154 156 155 155 153 154 155 153 151 142 140 133 133 129 133 133 131 132 133 131 133 129 131 131 132 133 135 140 137 137 135 141 142 143 141 140 138 138 140 146 148 152 148 146 143 143 136 136 135 129 130 122 123 121 121 120 116 117 119 118 119 113 114 116 113 113 110 110 111 109 106 102 
135 140 145 145 149 153 156 158 159 153 154 154 155 154 155 154 151 145 140 132 128 132 132 132 131 128 134 132 133 129 129 127 132 131 132 135 133 137 134 139 141 141 137 142 140 140 142 147 150 149 149 145 145 142 138 132 133 129 125 124 122 124 120 121 119 117 117 117 116 115 116 115 116 118 114 110 111 108 108 101 
138 139 144 146 152 151 158 156 156 153 159 155 153 154 155 150 150 143 137 135 131 130 133 129 131 132 130 129 128 127 128 127 129 134 130 129 133 134 134 136 138 138 139 141 141 144 143 150 150 148 147 143 143 139 133 132 132 128 122 118 122 119 120 120 118 114 115 117 117 116 118 116 118 117 109 112 112 111 108 102 
135 137 143 145 148 154 159 160 150 155 156 153 151 152 152 153 148 141 137 132 129 133 131 130 129 132 131 132 129 127 131 127 128 132 130 132 134 132 132 136 141 142 139 138 139 143 141 149 147 148 147 142 139 137 131 131 134 127 126 121 121 122 116 121 119 113 114 112 114 114 112 114 113 113 112 108 108 111 103 103 
136 134 140 142 150 152 156 156 153 152 152 153 154 152 149 151 148 144 140 133 131 129 129 130 130 128 127 129 127 126 128 126 127 129 130 129 131 131 132 137 136 139 139 138 139 137 139 148 149 146 146 145 140 135 135 131 136 126 126 122 119 121 117 121 113 115 114 115 113 112 108 112 112 114 112 111 114 111 106 101 
136 138 139 142 148 150 153 155 150 155 151 152 148 148 151 148 152 141 137 131 130 131 129 128 129 128 128 125 127 126 127 123 127 130 129 128 133 130 131 134 137 138 136 137 135 135 137 148 149 145 143 143 137 132 130 132 134 127 123 125 117 119 114 115 115 116 115 115 112 112 112 112 113 112 111 109 108 110 106 98 
134 136 135 139 145 146 152 151 150 151 152 149 146 145 148 147 146 135 129 127 131 129 124 126 123 125 122 124 127 124 122 126 124 127 130 130 130 129 130 131 137 138 133 136 134 134 137 144 146 143 142 141 135 131 130 128 124 123 123 118 114 116 110 116 115 115 115 112 112 111 112 111 110 109 105 107 109 106 105 101 
132 134 137 137 145 147 152 151 147 150 149 145 143 143 148 143 142 128 127 130 132 126 119 113 111 117 119 121 118 119 116 118 120 118 119 124 123 121 124 125 127 131 129 131 132 129 135 138 143 142 139 136 134 130 128 126 128 125 117 116 115 116 113 116 111 113 112 112 106 110 111 111 110 109 107 106 108 102 103 99 
129 130 131 137 144 146 151 151 148 146 148 144 146 144 142 140 141 130 135 166 169 139 115 107 103 104 108 111 110 108 106 97 102 103 103 107 105 103 103 104 108 110 115 123 129 128 130 137 140 138 136 134 135 128 131 129 126 125 120 117 115 117 114 117 114 110 111 108 108 105 108 109 110 112 107 105 103 106 100 99 
129 127 133 136 140 145 149 145 145 145 144 143 144 142 139 136 138 133 145 203 212 147 111 99 97 97 100 97 100 98 95 92 90 90 92 96 94 93 95 96 98 97 99 110 134 125 126 133 133 135 136 134 130 126 127 128 127 123 118 116 112 113 114 113 113 110 109 112 110 109 108 106 106 109 104 102 107 103 102 96 
127 127 135 134 143 145 148 144 142 144 140 143 142 140 136 141 136 134 141 197 179 123 102 97 92 90 92 92 97 92 90 85 87 90 92 90 91 89 98 95 97 98 94 111 129 126 119 126 130 132 132 132 129 124 126 122 122 117 116 113 110 111 112 110 111 111 111 107 109 109 107 107 106 106 104 104 105 104 103 99 
126 124 127 135 142 143 143 142 142 139 143 141 141 136 135 133 133 132 135 171 139 107 94 91 90 89 92 90 90 89 84 82 79 86 87 84 87 84 86 87 88 94 88 101 110 105 108 106 120 125 126 129 128 123 125 118 118 116 114 109 107 107 108 105 108 109 110 107 108 109 107 106 105 106 102 100 103 104 100 95 
122 119 126 133 138 138 142 137 136 139 138 137 134 136 133 130 134 124 117 116 104 91 89 88 88 86 88 88 86 81 83 79 80 85 85 85 84 86 86 87 89 92 86 87 91 92 98 95 100 112 123 128 128 121 125 118 118 113 109 106 106 109 104 104 106 104 109 105 104 107 107 106 103 103 101 101 101 100 94 96 
119 113 121 128 132 134 130 136 131 137 132 132 133 133 131 129 129 124 109 96 88 88 85 84 84 84 87 87 86 80 79 78 83 82 82 84 87 84 84 89 87 86 82 84 83 89 89 92 92 103 121 122 121 123 121 121 114 109 107 104 100 105 102 103 100 104 106 104 106 102 102 102 104 104 101 102 100 99 94 90 
109 112 115 118 117 116 120 119 115 118 123 125 125 122 126 122 123 117 105 86 85 82 83 82 83 86 85 85 82 79 83 78 80 83 82 86 85 81 83 88 86 81 80 83 80 83 85 85 85 95 118 120 123 122 119 116 110 110 103 104 102 106 103 102 99 102 104 105 107 100 102 99 101 104 101 98 99 97 89 86 
111 109 109 106 106 104 103 103 100 101 104 100 103 103 104 104 108 106 98 86 83 84 82 81 81 82 82 81 82 83 82 79 84 81 83 82 82 82 83 87 83 82 77 78 74 77 82 80 75 90 112 116 116 116 121 109 110 105 103 103 99 105 101 97 101 103 101 102 99 101 100 100 99 100 96 93 94 96 89 85 
105 108 106 106 99 94 97 92 93 92 92 93 96 93 88 91 91 86 81 79 82 79 82 81 82 82 81 82 81 82 80 78 82 79 80 78 83 79 81 79 82 78 78 72 74 78 78 77 76 87 106 111 114 113 111 110 107 104 100 99 97 102 102 97 101 100 99 99 98 99 98 99 98 100 96 96 96 91 87 87 
104 102 98 97 94 88 91 89 90 88 87 87 88 86 87 85 87 77 72 78 75 81 77 80 78 83 80 81 83 82 84 80 79 78 81 80 79 78 78 80 81 75 76 72 74 73 72 71 71 91 104 111 106 108 110 106 106 100 97 93 95 101 101 99 100 98 98 100 98 96 97 95 99 97 96 93 90 91 86 83 
101 97 93 94 87 86 84 84 79 83 79 80 80 81 75 78 78 71 68 72 74 77 79 79 79 80 79 82 87 107 106 83 80 76 76 79 81 79 81 83 80 79 72 68 71 66 71 68 73 83 104 106 103 106 105 99 103 99 94 91 93 100 94 94 96 97 96 98 94 90 91 94 92 91 92 91 91 86 84 77 
91 93 91 88 80 80 81 77 74 75 75 78 78 74 71 72 73 66 66 69 72 75 78 77 77 79 78 83 115 170 157 101 82 76 76 79 82 77 80 81 79 73 69 64 68 68 72 66 68 73 86 93 98 100 103 101 102 98 93 93 89 98 94 91 92 91 93 95 93 93 91 88 89 90 87 87 87 81 77 77 
92 88 84 82 76 76 76 73 71 70 69 71 71 69 70 67 70 60 64 69 70 75 76 76 74 77 77 92 119 134 139 105 84 73 74 78 77 80 79 82 78 74 66 62 66 65 66 66 61 65 68 72 76 80 89 102 97 97 95 91 87 93 91 90 90 87 89 90 84 87 83 87 81 82 79 80 77 76 71 66 
86 87 82 79 73 70 71 70 66 67 67 69 66 67 68 65 67 60 58 67 67 68 72 67 73 73 73 100 111 108 116 110 89 74 73 79 75 77 76 78 70 66 63 63 61 63 66 64 62 59 57 61 70 81 86 96 101 94 88 86 85 85 86 85 84 86 86 84 83 78 80 82 76 79 73 74 74 71 69 66 
84 83 83 74 70 67 71 66 64 63 67 65 63 63 66 60 58 54 58 62 65 69 70 68 69 71 75 95 102 92 98 112 90 71 71 73 75 75 75 71 69 62 58 62 62 63 66 62 61 53 52 58 74 85 87 93 94 93 85 79 80 84 78 78 78 81 80 77 74 77 77 79 76 74 69 72 72 65 62 62 
81 79 80 70 67 64 62 64 60 64 61 64 61 63 63 57 53 53 57 62 63 64 68 64 67 67 66 80 92 86 90 112 88 70 70 75 72 72 73 69 63 61 58 59 59 63 62 65 61 48 45 53 65 86 85 87 89 88 82 74 77 82 77 75 75 76 79 75 73 75 72 76 70 71 67 68 65 61 59 55 
79 74 71 66 65 61 63 59 58 60 57 60 57 56 57 54 54 52 56 60 67 63 65 63 65 67 69 69 77 77 81 78 71 68 73 73 71 70 68 65 58 58 56 56 57 58 59 61 60 40 37 45 55 80 89 87 87 87 81 76 75 79 77 73 75 72 73 69 69 71 70 72 67 67 61 58 63 58 58 54 
78 72 71 66 63 59 56 59 57 60 55 57 57 55 53 49 47 48 54 59 63 63 63 62 64 67 66 61 64 66 66 63 68 69 72 73 71 68 67 65 59 57 57 55 58 60 60 59 55 36 31 35 47 67 83 80 83 82 76 77 71 80 71 69 71 69 73 74 73 71 69 71 67 64 58 60 58 53 53 52 
76 73 70 65 60 59 58 59 54 54 52 52 53 54 51 46 46 46 56 59 61 61 59 60 60 64 62 65 62 62 63 59 65 68 70 73 71 67 65 66 58 56 54 53 56 58 57 56 51 30 25 25 30 44 64 72 75 78 71 73 71 74 63 63 62 67 68 68 66 67 66 66 61 59 50 54 54 53 49 47 
76 70 64 63 60 55 56 58 53 53 54 51 50 52 47 44 45 50 52 58 59 59 60 57 61 59 62 61 63 59 60 60 66 69 69 69 71 67 62 63 55 51 53 53 52 54 56 51 49 27 18 21 22 23 32 50 69 73 70 71 68 67 63 62 61 60 64 65 67 62 66 61 59 54 51 52 53 48 47 47 
73 68 60 60 56 56 56 55 49 52 51 52 46 48 44 40 44 48 52 54 56 61 55 59 57 58 57 60 59 57 59 59 64 65 65 68 69 67 64 60 57 51 50 55 52 56 57 53 46 26 21 17 11 17 19 29 65 67 68 65 65 65 58 59 57 59 61 65 62 63 60 60 55 53 51 50 50 44 42 39 
67 67 62 62 56 55 52 50 49 51 50 51 45 45 45 39 41 46 51 54 54 56 55 52 57 54 54 54 56 56 59 55 61 63 67 68 65 61 60 55 55 55 51 54 51 53 50 52 42 31 21 16 10 15 18 20 50 61 61 66 60 62 56 56 56 52 60 62 59 58 55 56 51 46 44 44 47 42 38 35 
67 64 65 58 56 54 52 51 45 49 50 47 47 43 43 40 38 51 51 55 54 53 49 53 52 54 50 53 50 50 54 53 61 60 66 66 65 60 57 55 51 50 52 51 48 54 54 50 39 25 12 11 11 11 17 17 32 59 58 59 59 59 53 54 53 56 58 56 57 53 52 53 48 47 44 44 43 40 37 30 
63 62 56 58 53 51 53 51 46 46 45 44 42 41 40 39 39 46 50 53 51 49 50 47 47 49 44 46 46 47 54 54 57 63 65 64 64 56 55 53 52 48 53 54 52 53 53 49 32 22 15 10 4 13 11 10 24 50 55 54 54 55 51 50 51 55 51 54 52 49 49 50 46 47 39 36 39 33 32 31 
63 63 56 57 52 51 49 52 48 51 46 43 42 42 37 34 37 45 50 46 48 45 45 42 44 43 43 42 46 58 79 76 59 55 60 60 57 55 53 49 48 47 50 53 50 52 54 47 36 18 11 6 7 9 11 5 15 35 50 50 55 57 51 47 51 52 48 52 51 49 47 48 46 44 41 39 34 28 29 27 
58 59 55 56 50 51 52 50 45 47 45 42 41 40 36 36 36 44 49 48 46 45 43 35 37 40 41 44 50 69 90 95 74 55 57 56 55 53 50 46 46 47 49 52 50 52 53 43 37 19 12 5 4 7 5 6 10 19 44 50 51 56 46 44 49 48 49 48 48 49 47 47 46 45 38 35 31 29 27 23 
58 56 53 54 51 51 50 50 41 44 45 43 42 40 35 34 33 42 45 46 45 42 37 36 35 37 40 40 40 48 61 69 73 51 52 53 53 47 49 45 44 46 46 49 50 49 48 43 37 23 14 7 4 3 4 3 9 10 33 45 49 47 48 44 45 44 42 44 45 40 43 43 38 41 36 34 31 21 25 23 
57 60 55 55 52 49 52 48 43 45 45 43 37 40 37 36 39 42 42 45 46 46 40 32 38 35 36 42 39 36 43 46 50 48 50 52 51 50 50 44 43 44 48 49 46 51 43 42 32 26 16 8 5 4 5 4 4 9 20 44 49 49 45 42 45 43 38 40 39 39 36 40 38 37 33 35 28 27 18 18 
57 56 53 53 53 49 48 47 44 45 41 41 41 37 34 34 34 41 42 48 44 43 41 38 35 34 36 36 35 37 36 33 38 44 52 52 50 47 44 43 43 45 45 47 46 44 46 42 28 25 16 8 2 8 6 3 4 5 15 37 45 45 40 40 40 36 37 33 36 35 39 36 36 39 32 30 31 17 17 16 
58 55 55 55 50 49 49 47 47 44 41 44 39 40 34 31 35 40 42 47 44 44 44 43 41 41 37 38 37 33 35 33 39 44 47 50 47 48 48 40 43 42 45 47 43 49 43 38 29 24 19 10 2 6 9 0 4 3 13 28 44 40 42 39 37 34 39 36 31 33 36 36 32 35 34 33 27 19 15 12 
58 55 59 58 50 50 52 53 43 49 46 42 38 37 36 37 37 44 45 45 45 46 48 42 46 46 39 44 40 37 37 38 44 47 51 49 50 46 48 40 41 43 42 46 40 43 47 35 23 15 13 13 6 5 8 4 7 5 7 15 37 40 36 34 32 32 34 31 33 30 32 32 34 34 30 28 29 19 16 15 
63 58 60 58 56 56 54 51 44 49 44 43 43 41 37 42 40 49 44 44 44 42 43 45 47 44 46 44 44 42 44 43 44 47 48 47 47 47 44 38 39 44 43 42 45 42 43 33 23 14 13 15 10 8 9 6 6 7 10 13 22 40 31 35 35 35 34 32 30 31 31 32 28 33 29 22 25 20 14 13 
60 58 59 59 57 56 55 51 47 51 50 47 47 47 42 43 43 48 44 44 41 42 45 44 45 43 42 46 45 44 44 44 45 47 46 49 50 45 46 37 39 42 41 43 40 41 44 34 21 19 16 20 15 13 13 10 14 12 14 16 23 31 34 36 35 37 35 35 31 29 27 27 29 27 30 21 16 15 14 11 
63 62 58 59 60 56 56 53 49 50 47 50 47 46 41 49 48 48 46 43 40 43 41 43 45 44 44 46 44 42 45 46 48 48 50 49 49 46 44 38 38 41 40 41 42 40 38 31 23 24 23 20 19 16 18 13 14 14 18 17 28 35 31 39 35 37 38 36 29 30 32 27 28 27 23 21 16 13 13 12 
68 64 61 62 61 59 54 59 52 52 50 50 48 49 44 45 46 47 41 45 42 44 44 47 46 47 46 47 43 42 46 43 49 54 53 48 48 44 40 40 43 41 42 38 37 38 35 29 24 29 25 25 19 25 20 16 20 17 18 23 28 35 34 36 34 35 32 32 30 29 31 29 30 27 22 19 16 18 13 9 
68 66 68 63 61 60 61 62 53 53 50 49 49 44 44 46 45 47 44 45 43 42 43 43 46 45 45 47 46 43 43 46 48 52 50 50 49 46 44 41 42 41 40 40 37 36 36 31 31 32 31 26 24 26 26 21 22 22 23 27 30 34 38 33 34 37 34 36 29 26 30 26 28 27 21 20 17 19 17 11 
71 72 69 70 64 63 62 57 49 56 51 51 48 46 44 46 47 49 45 44 43 45 44 45 45 46 44 48 45 41 42 45 47 49 53 52 50 48 48 42 38 37 40 43 38 38 35 34 32 33 29 27 26 28 30 24 28 24 29 33 31 40 40 36 36 34 32 29 31 26 29 25 30 29 23 17 20 16 17 11 
73 70 70 63 67 60 60 58 50 53 49 47 46 48 48 48 47 45 43 44 42 46 45 43 47 48 47 47 46 43 42 42 49 53 53 53 54 48 42 42 38 40 37 39 36 36 35 34 32 32 32 29 27 30 28 26 28 30 30 36 34 42 37 37 37 34 31 33 35 29 25 28 30 27 27 20 17 17 14 14 
75 68 69 65 68 57 62 56 49 51 53 52 51 55 54 54 52 51 47 49 45 47 44 44 47 48 43 41 39 41 44 46 55 58 59 60 55 47 46 43 40 38 42 41 37 37 37 37 34 36 31 24 25 20 14 16 22 29 26 39 39 44 43 46 46 34 36 33 32 28 26 27 32 26 25 21 20 22 15 20 


