P2
80 60
166
141 139 146 144 144 143 144 145 148 149 154 152 157 153 155 152 151 154 148 147 143 144 141 141 139 145 138 136 136 136 133 134 132 135 135 131 131 135 135 135 139 132 135 132 131 127 125 124 118 122 122 128 124 125 127 125 131 124 125 123 118 115 118 117 112 113 111 110 112 108 100 99 101 99 100 95 100 97 99 99 
141 139 144 146 147 144 142 144 148 154 152 152 157 156 157 157 158 154 148 147 144 147 148 143 145 146 140 145 144 142 138 140 141 141 137 138 137 140 140 143 145 140 141 141 138 132 132 130 124 122 125 132 129 130 126 128 128 123 125 120 120 114 115 114 113 114 111 111 109 107 106 104 106 98 99 99 97 96 102 96 
142 138 141 145 147 141 147 149 152 155 156 157 156 156 156 156 162 154 150 150 146 150 149 145 143 148 147 146 146 146 145 139 147 143 145 139 140 145 145 146 145 150 147 147 144 142 141 138 129 123 129 132 135 130 133 129 127 129 128 125 119 119 116 115 116 117 113 115 111 109 108 103 103 104 100 106 103 100 100 97 
140 143 144 148 148 143 148 147 151 154 157 156 159 154 154 161 157 155 150 152 147 148 146 147 146 151 147 144 142 144 144 142 145 147 147 141 141 141 146 146 148 145 149 149 148 146 149 144 138 132 135 139 134 133 134 134 133 131 127 123 121 119 117 115 118 116 119 113 112 109 111 111 109 106 104 105 107 98 100 103 
140 139 145 146 150 146 147 149 148 153 157 154 156 158 153 156 157 149 150 150 149 147 149 145 143 146 145 149 145 145 144 145 144 150 147 140 141 144 146 147 150 149 149 153 149 145 147 146 142 137 138 140 142 136 138 134 135 128 129 126 125 120 120 118 120 119 120 115 118 114 116 111 109 108 104 110 100 98 101 100 
142 139 143 145 147 147 150 152 151 156 160 160 159 158 158 156 156 151 152 150 147 148 146 143 146 150 145 147 146 145 145 146 145 143 144 143 143 142 147 150 145 146 149 150 149 150 151 144 142 140 144 146 146 141 138 139 137 132 132 129 129 127 124 117 122 124 119 119 116 114 119 113 111 108 109 110 104 105 107 99 
139 140 144 147 148 150 150 150 152 154 157 161 159 157 157 157 158 151 150 150 149 152 151 143 147 147 147 145 144 149 142 148 145 143 144 140 144 147 146 149 147 146 151 151 147 149 144 145 143 147 146 146 148 146 145 141 139 133 134 133 134 129 127 123 124 121 122 124 120 116 117 115 113 115 114 113 108 107 108 108 
143 144 144 145 145 146 153 155 157 157 156 158 156 157 159 159 158 156 152 149 148 149 147 148 147 149 146 149 145 145 143 147 144 145 146 144 145 146 147 147 148 148 150 150 147 145 148 143 144 149 152 148 149 150 148 142 141 138 136 135 132 131 132 128 126 126 125 122 120 119 120 118 117 114 116 115 110 105 108 107 
140 139 143 145 146 149 149 156 156 160 155 158 158 158 157 159 162 155 151 149 149 152 150 150 147 149 147 145 145 146 146 142 146 146 147 144 142 143 151 147 146 148 149 149 149 146 148 144 142 150 149 152 152 150 146 144 142 141 144 141 134 135 133 128 131 133 135 130 126 125 124 120 116 115 113 111 113 109 112 106 
140 141 140 144 147 148 150 154 161 158 155 158 158 159 159 159 162 159 156 153 151 156 151 151 149 150 147 145 139 148 145 146 145 143 148 144 143 145 147 146 149 148 148 150 148 147 146 146 143 150 148 155 148 148 143 140 139 139 140 138 133 135 131 133 131 132 132 133 127 125 125 123 121 122 119 120 112 111 115 113 
143 139 142 146 146 146 153 157 159 162 158 159 157 161 160 158 160 155 154 153 151 152 151 149 148 151 146 148 147 148 145 144 143 146 141 144 141 144 147 147 150 147 147 149 145 149 145 144 144 148 149 151 149 147 145 139 141 138 139 135 130 135 129 132 135 131 131 131 132 126 127 128 122 126 121 122 116 111 116 112 
141 143 143 145 147 151 153 156 157 160 158 159 159 159 159 164 166 157 151 152 152 154 151 150 150 150 147 147 148 145 143 143 143 139 141 142 140 144 146 146 147 147 147 147 145 141 147 142 144 147 151 151 151 145 145 139 143 140 139 133 127 130 128 128 135 130 129 130 124 127 123 127 124 124 122 124 118 114 116 111 
142 146 143 145 149 149 157 156 157 162 161 158 159 159 162 160 161 156 154 151 154 150 153 152 149 151 149 144 149 148 145 142 141 143 143 141 143 143 143 145 147 148 148 147 145 141 144 142 144 148 152 152 149 150 145 140 140 139 140 135 131 130 131 126 129 127 125 127 124 124 129 126 126 120 121 122 119 115 116 112 
141 140 143 143 146 150 154 155 156 158 160 156 161 161 161 163 162 159 152 151 148 149 148 149 149 152 144 147 148 144 142 144 141 140 144 141 142 143 141 144 147 148 148 149 147 143 144 144 146 148 150 149 151 150 143 138 138 135 135 133 126 128 126 127 128 126 127 122 127 120 121 121 121 124 122 120 116 114 114 111 
142 138 141 143 143 146 152 156 158 159 159 160 158 160 157 160 161 157 153 148 148 150 148 149 145 146 147 145 148 143 142 144 142 140 140 140 138 142 139 138 146 144 150 145 144 141 140 140 143 148 146 148 150 149 145 136 135 136 135 126 128 127 124 124 125 121 123 124 122 121 122 120 115 120 120 123 116 114 118 115 
138 140 140 140 146 146 153 156 155 157 154 159 153 159 158 160 163 155 153 153 148 149 145 146 146 143 140 142 142 143 141 142 142 140 138 138 137 139 139 141 140 144 149 146 140 139 140 138 142 144 148 148 150 148 139 136 134 131 130 128 123 123 123 122 122 119 122 120 120 116 119 121 117 121 119 119 116 113 118 115 
137 135 135 144 142 146 154 154 155 155 155 156 157 158 156 157 163 156 151 150 148 147 146 144 144 145 145 143 141 143 138 143 140 139 141 138 139 145 137 140 143 142 147 149 141 141 139 137 144 141 147 148 148 144 141 137 136 132 131 131 127 125 122 119 120 119 119 120 117 118 118 116 118 120 118 120 115 112 115 112 
137 134 135 139 143 147 154 154 153 158 153 152 153 154 154 157 158 156 149 147 146 148 145 143 140 143 139 139 139 140 138 141 139 140 139 139 136 138 141 143 144 143 148 144 144 138 137 135 144 144 146 146 146 139 140 136 138 133 129 129 124 125 121 120 121 119 122 117 118 115 113 114 119 119 119 119 115 113 115 108 
133 132 133 137 141 146 153 154 152 155 152 152 152 155 152 151 159 152 150 145 144 143 142 140 142 141 137 139 136 137 137 139 134 133 132 137 136 137 139 141 142 143 144 145 144 140 138 134 141 143 145 144 146 143 140 134 133 131 126 125 127 123 121 121 119 122 119 118 122 119 120 121 119 119 119 116 119 111 115 114 
133 128 135 134 136 141 149 152 152 154 154 155 152 154 155 153 159 153 145 143 143 141 141 136 135 138 132 136 135 135 137 132 131 134 134 130 134 136 136 139 142 141 143 144 142 140 140 134 141 143 144 142 142 138 137 131 130 126 127 125 121 119 119 119 117 121 119 115 118 118 117 120 117 121 118 118 111 109 113 113 
129 128 133 135 136 144 148 149 148 155 151 151 151 150 152 150 151 149 143 141 139 139 136 132 128 127 127 124 127 125 124 123 119 123 123 122 124 124 128 131 133 130 140 142 141 140 141 136 138 141 139 139 139 137 134 131 131 129 125 126 119 121 120 114 116 120 115 116 115 114 115 117 117 116 118 114 115 110 113 106 
126 122 126 127 134 143 144 146 143 147 146 150 150 147 147 145 151 147 138 136 138 130 123 115 116 112 109 109 108 108 108 104 103 102 108 107 111 109 108 112 114 105 121 136 136 136 135 133 137 138 140 138 139 134 134 131 132 127 129 123 121 118 117 118 116 115 120 118 115 115 117 119 117 115 114 116 112 108 113 106 
131 124 129 130 135 138 146 143 145 147 144 145 146 147 143 145 148 143 139 140 139 123 113 109 106 107 106 106 101 101 100 97 100 100 103 99 101 104 97 102 97 101 106 127 132 131 136 127 135 136 133 141 136 135 134 133 129 127 127 126 119 120 117 117 116 116 117 115 116 113 116 119 114 116 117 111 109 108 107 107 
122 121 127 129 130 141 146 141 141 143 140 145 143 144 143 142 144 142 134 133 125 116 106 104 104 100 107 99 104 108 99 97 95 97 98 92 94 91 98 101 93 100 96 113 123 129 127 126 136 136 133 136 139 130 133 128 126 120 122 120 115 118 118 110 114 116 117 116 117 114 117 114 113 113 112 112 107 108 111 109 
120 116 121 124 128 133 139 139 139 139 138 140 140 142 142 139 142 137 132 124 116 106 102 101 99 101 102 97 97 102 99 96 96 93 91 84 89 92 91 93 92 99 96 103 114 118 119 124 133 134 131 131 132 130 127 128 126 117 116 116 113 112 119 113 115 117 116 115 115 114 112 113 112 111 114 113 107 107 108 108 
116 115 120 119 126 134 137 135 136 137 136 136 136 143 135 136 137 137 128 117 107 100 103 96 97 96 96 96 96 98 97 93 92 87 86 84 85 89 89 90 93 95 95 100 113 119 117 122 131 132 126 128 126 130 125 123 118 114 111 114 108 114 117 113 113 115 116 113 115 116 118 109 114 111 113 109 103 105 106 105 
114 110 117 118 123 124 124 132 127 131 129 131 136 143 133 136 136 134 123 111 107 101 97 99 96 95 96 95 96 96 91 90 90 87 83 85 85 86 87 89 89 97 98 100 113 115 115 116 128 127 124 122 125 126 125 121 116 111 113 110 105 110 111 112 114 112 111 114 110 114 113 109 109 109 110 107 106 100 105 103 
110 108 115 113 112 109 109 110 111 112 112 115 123 123 119 121 127 129 115 109 103 99 95 96 95 95 96 95 94 97 91 86 86 83 83 83 82 87 84 86 89 93 100 99 113 118 115 117 122 122 121 121 123 123 118 117 113 112 113 112 105 107 110 113 114 110 112 111 112 111 109 107 106 110 106 106 101 99 102 98 
110 108 107 108 105 101 104 98 100 99 99 102 106 106 101 103 107 104 102 101 100 94 91 91 92 92 94 94 97 96 91 85 83 83 83 82 81 84 85 84 89 91 94 100 113 112 117 115 126 119 122 120 118 119 118 115 108 105 109 108 103 107 107 108 109 108 107 110 108 108 108 107 104 103 107 107 99 98 102 100 
105 101 103 105 101 97 98 91 92 92 93 94 98 98 94 97 97 92 93 96 94 90 89 91 94 92 89 91 91 93 89 83 80 83 80 79 81 82 82 85 85 90 90 99 109 108 111 111 119 118 114 116 116 115 114 110 107 102 107 102 102 104 105 105 107 105 106 104 104 103 105 106 101 103 100 100 98 96 99 92 
102 99 101 100 96 91 90 85 86 86 90 87 92 92 91 89 93 88 84 90 88 87 88 89 90 90 88 87 89 90 83 82 80 78 81 80 83 82 84 82 89 85 88 94 103 106 106 110 117 118 113 115 115 111 114 109 105 104 104 100 99 102 105 100 103 103 102 102 104 106 104 102 100 100 101 101 98 99 99 93 
100 96 95 95 93 85 80 79 82 81 82 85 83 87 83 83 84 83 77 90 87 84 83 86 88 86 88 86 88 92 90 83 78 79 79 80 82 85 83 79 89 82 85 91 100 102 98 95 89 98 101 104 106 111 113 105 103 102 102 96 98 97 102 100 100 96 101 98 102 102 100 102 98 96 95 94 96 93 95 93 
95 95 91 90 83 78 77 71 75 75 75 80 76 80 80 81 79 75 77 83 83 83 84 86 85 83 83 81 95 96 95 90 79 76 77 75 78 81 79 80 82 80 80 83 94 91 91 88 77 75 79 81 85 97 98 99 105 104 100 101 96 100 97 100 96 98 95 94 94 96 93 96 94 89 91 92 88 89 92 88 
93 91 93 85 80 71 73 69 70 68 71 72 72 77 73 80 74 73 74 78 79 84 83 83 85 80 79 86 91 94 89 90 81 75 75 76 77 80 78 76 81 73 75 82 90 90 84 81 69 61 69 67 72 77 84 90 100 104 100 98 92 95 98 93 94 91 94 92 91 90 90 90 86 87 87 86 87 85 90 82 
88 85 90 82 76 71 68 67 64 64 63 68 68 71 68 70 67 63 69 76 79 79 80 77 80 79 80 86 87 88 87 86 79 72 73 73 73 75 78 73 75 74 72 75 82 84 78 70 62 54 53 56 61 77 82 91 95 97 96 95 89 91 93 89 89 88 88 89 84 83 84 85 83 84 82 81 79 77 82 79 
81 82 82 80 74 69 68 64 60 63 62 66 66 66 65 67 64 59 66 72 74 80 77 76 77 79 77 81 85 84 82 79 73 71 74 71 68 71 73 71 75 72 68 73 82 77 70 65 56 46 48 51 56 76 87 91 93 93 90 89 84 86 87 83 83 82 81 81 81 82 81 78 80 77 72 74 76 77 77 73 
84 83 79 77 74 64 63 61 61 60 64 62 61 62 60 60 60 59 65 75 73 73 76 76 73 76 74 74 79 78 77 76 70 68 71 68 67 70 68 65 71 65 66 73 79 75 67 60 52 38 40 42 49 66 87 88 91 88 88 86 83 82 83 83 82 79 77 78 78 76 81 78 75 73 67 73 73 68 71 71 
80 78 78 77 66 62 61 59 56 59 59 59 59 62 57 57 58 57 65 72 73 72 75 76 74 76 77 72 72 72 73 70 69 67 67 70 68 68 67 67 70 59 59 71 71 69 61 53 43 32 30 32 39 54 79 85 89 87 83 85 83 79 82 81 80 78 76 79 73 73 79 71 70 69 67 68 66 66 70 72 
77 74 78 74 65 62 63 59 54 56 56 57 60 62 56 53 51 52 63 69 72 70 72 72 74 76 73 73 70 69 70 72 73 68 70 67 65 65 64 64 66 61 57 68 68 65 60 48 38 27 26 24 31 44 66 77 84 80 83 82 79 80 79 81 75 71 71 70 69 70 72 68 69 67 63 65 63 60 66 69 
77 73 70 68 61 60 59 55 54 51 58 55 56 57 52 49 46 50 62 67 67 67 70 68 72 72 71 68 69 66 70 69 67 69 67 66 61 58 65 61 62 51 53 65 65 56 49 41 33 21 20 15 19 28 39 46 66 77 78 81 76 78 76 70 69 69 67 69 72 68 71 69 69 63 59 61 63 61 64 60 
74 72 70 64 57 56 55 53 50 52 54 53 51 52 54 49 48 49 64 67 64 69 70 67 72 70 70 68 70 68 66 70 65 63 65 63 60 58 60 58 57 52 52 64 62 57 45 37 31 20 18 13 14 19 26 29 46 70 77 73 74 75 73 70 67 63 62 66 70 67 69 67 66 64 57 62 57 58 61 60 
72 68 67 61 55 53 55 51 47 49 53 49 51 54 47 44 43 52 60 63 69 70 66 67 67 69 66 68 71 68 67 65 66 66 65 64 59 61 57 57 52 51 49 52 41 39 34 29 30 29 27 16 10 16 21 18 33 57 68 69 71 71 70 67 66 60 61 63 66 66 66 64 65 58 55 60 55 55 61 58 
69 67 64 59 54 58 52 49 48 45 49 48 48 50 45 44 45 49 61 64 67 67 67 67 64 67 65 67 67 68 67 66 66 63 61 65 64 62 60 55 49 45 42 31 16 14 19 23 28 26 22 15 10 10 15 17 25 41 63 67 65 69 67 65 63 59 57 59 65 63 66 60 61 56 55 55 55 56 57 60 
68 65 63 60 55 60 54 49 46 47 44 47 44 44 42 44 42 54 61 65 66 66 63 64 64 64 65 64 65 68 68 65 67 65 63 64 62 59 60 55 47 46 39 30 17 13 20 22 33 27 19 8 12 6 12 17 21 29 52 60 63 65 67 59 58 52 55 58 63 61 65 58 55 52 52 54 50 50 55 49 
66 59 61 57 59 54 49 48 46 44 46 46 47 45 44 42 45 53 63 64 62 64 61 60 57 58 59 58 59 61 65 63 60 63 64 64 61 59 59 56 46 44 37 30 16 19 17 21 34 30 19 8 6 6 8 9 12 16 41 53 59 62 64 59 57 54 54 61 63 59 58 57 53 51 49 51 50 51 52 45 
62 61 58 54 53 54 52 51 44 48 45 47 43 42 40 44 42 51 59 64 63 62 60 57 57 56 57 55 56 61 62 60 62 60 61 56 59 57 59 50 44 41 38 24 17 17 18 18 32 31 18 9 4 3 5 4 6 7 26 49 57 60 61 56 51 52 53 51 54 56 55 54 51 49 46 52 50 49 50 49 
57 58 56 55 50 50 49 47 44 46 46 45 44 44 43 41 40 52 58 63 63 59 59 58 57 56 56 54 56 59 58 55 57 57 61 60 58 61 58 49 45 42 36 21 15 17 17 17 30 29 18 8 6 3 4 4 8 5 15 40 49 58 54 55 53 51 53 54 54 51 53 53 49 46 44 45 46 41 42 43 
58 55 57 52 54 50 52 45 46 40 45 40 44 42 42 39 42 48 55 57 57 60 57 55 58 54 56 56 57 56 52 55 56 57 55 55 55 56 58 47 47 40 35 20 13 15 18 15 25 27 23 7 8 2 1 2 6 2 11 31 43 51 51 49 50 51 46 48 52 47 49 52 46 43 42 43 44 40 39 39 
56 50 53 54 51 50 46 43 42 45 42 43 45 41 40 39 41 46 55 58 58 58 57 57 55 54 56 55 56 57 54 55 54 57 60 56 55 54 56 45 43 39 27 17 13 12 16 15 25 24 21 11 11 2 3 2 4 4 8 18 39 49 50 48 46 44 43 46 47 44 48 47 43 40 41 41 38 38 40 37 
55 53 51 50 51 50 48 45 43 47 43 40 43 42 41 38 41 50 55 57 59 56 57 57 54 56 58 57 56 57 57 55 56 53 54 53 55 56 54 41 40 38 26 13 11 13 14 13 15 19 21 14 7 1 1 3 4 3 5 12 31 46 47 46 47 45 40 42 44 35 40 41 41 41 35 38 41 37 37 38 
57 53 55 51 56 47 50 47 46 43 43 40 44 44 40 39 43 52 55 58 56 56 56 56 54 53 56 57 57 55 56 53 55 53 53 56 54 56 52 42 41 35 26 14 11 13 17 14 12 14 15 13 8 7 6 0 6 6 8 9 24 40 43 40 43 40 41 39 38 37 41 38 36 37 37 36 39 36 37 35 
54 53 54 52 52 50 51 48 46 46 44 47 45 45 43 43 46 53 54 59 59 57 58 55 51 52 52 53 55 56 55 53 59 53 53 55 54 53 52 41 37 34 24 17 13 15 19 16 14 11 9 11 9 7 8 5 5 5 8 11 15 34 40 38 39 37 38 39 39 37 38 40 39 33 37 37 36 30 37 33 
59 56 52 56 53 51 50 47 46 48 42 45 44 46 45 46 47 56 55 57 56 57 57 55 53 54 50 54 53 52 54 52 54 54 55 55 53 49 48 40 35 34 26 21 22 21 22 18 15 8 17 13 12 10 12 10 6 6 12 10 14 27 36 35 38 40 41 40 39 35 38 36 36 34 32 31 34 27 34 30 
59 55 59 57 55 52 50 48 46 48 46 45 44 48 47 50 54 52 55 57 57 56 58 56 54 52 53 53 54 53 51 51 54 53 54 53 51 50 44 40 37 38 31 29 26 23 23 23 20 16 18 16 17 14 16 14 10 11 10 13 17 26 31 36 39 40 37 39 35 39 36 32 33 29 30 31 29 27 34 32 
60 57 57 56 57 55 54 46 48 47 46 49 47 45 47 47 50 51 50 57 52 56 59 55 52 51 49 53 52 52 51 56 52 51 52 52 50 48 46 39 37 40 36 35 31 30 31 30 25 18 21 17 18 17 18 18 16 16 14 18 21 28 36 34 39 40 41 39 39 36 36 36 29 29 30 28 28 24 30 30 
58 58 57 59 56 56 55 46 48 47 47 47 47 47 44 47 53 54 51 55 56 52 58 58 48 51 52 48 50 53 49 52 52 54 52 50 47 49 43 37 41 37 37 35 34 32 35 36 30 25 25 24 23 20 23 19 18 17 22 20 25 32 35 34 36 40 40 38 40 39 36 35 31 29 26 29 25 24 28 27 
61 58 61 61 56 53 53 50 47 48 43 47 46 48 45 51 50 55 53 52 56 54 53 51 49 56 54 50 51 53 53 51 53 50 51 51 47 47 46 37 39 37 40 36 34 37 34 36 31 27 25 23 25 22 24 21 21 19 25 25 27 33 33 31 35 34 37 36 35 35 34 28 29 27 26 29 25 18 26 21 
63 58 62 62 59 57 52 48 49 49 49 47 45 47 45 50 50 56 53 53 52 54 53 54 48 52 51 53 49 51 49 51 50 50 52 49 48 47 41 38 37 36 41 36 37 35 33 39 32 26 26 21 25 25 25 21 23 21 27 27 31 31 33 31 36 38 37 35 34 28 29 27 27 27 24 27 23 22 27 25 
68 65 64 60 57 58 57 52 50 48 44 47 47 46 44 48 54 52 49 48 47 50 50 48 49 47 50 51 48 50 49 51 49 51 51 49 48 46 44 36 37 39 40 39 38 36 34 37 32 31 26 24 27 25 25 21 21 22 28 28 33 34 34 29 30 34 31 33 31 28 25 28 24 24 24 24 23 24 27 26 
70 64 66 65 62 63 60 55 56 55 50 51 49 47 46 49 52 51 49 49 48 48 51 52 51 51 48 49 49 48 51 51 54 53 52 52 53 51 44 39 41 40 40 42 37 37 36 39 35 30 24 21 27 27 22 23 25 27 31 36 36 32 30 32 33 40 37 37 31 27 26 28 26 26 22 25 22 19 27 25 


