P2
80 60
307
132 139 137 138 135 139 138 142 143 137 135 135 132 135 129 129 126 129 131 132 130 133 133 132 126 123 123 119 115 115 114 113 116 117 115 117 116 116 113 114 113 110 110 107 112 112 108 107 113 111 118 116 115 120 119 122 120 116 116 118 118 118 118 111 107 107 102 98 87 85 79 81 81 78 74 78 76 71 78 77 
136 136 136 139 137 137 137 144 147 138 138 137 133 135 130 133 133 132 135 138 140 136 134 136 133 131 132 130 125 121 120 119 122 125 123 122 123 123 121 119 114 116 120 113 113 113 110 108 112 120 121 121 120 121 122 121 121 121 122 120 122 119 118 113 114 115 110 98 94 87 85 84 84 81 78 81 81 74 76 68 
132 136 137 140 136 138 138 145 141 141 138 137 135 135 134 132 132 136 136 141 140 140 139 132 131 134 133 135 129 127 127 125 128 126 130 131 130 130 128 131 127 124 122 121 119 118 117 111 114 119 123 118 124 122 121 123 122 122 120 120 118 120 119 119 113 117 112 103 95 91 93 86 87 86 81 83 82 72 75 75 
133 136 139 137 139 139 139 145 146 141 140 136 132 131 132 131 132 133 138 139 137 141 139 137 134 136 134 131 129 128 126 126 129 130 129 132 133 131 133 130 129 129 127 128 125 125 128 119 121 125 128 124 118 120 127 123 121 120 122 122 126 121 124 118 115 117 115 103 94 94 95 90 94 90 86 84 84 76 81 73 
134 133 138 142 138 138 139 144 142 141 142 139 136 134 132 132 133 138 137 140 141 140 136 133 140 139 135 133 129 131 129 125 128 129 129 127 132 130 125 129 131 131 133 128 127 127 128 123 126 133 130 125 123 123 126 133 126 124 124 125 124 125 122 123 116 118 117 105 99 94 96 91 92 92 88 84 86 81 78 82 
134 136 140 140 138 140 142 147 147 142 140 136 133 132 131 134 134 136 138 139 137 135 139 137 137 139 134 133 131 131 130 130 130 130 128 130 131 131 128 131 126 130 132 127 125 126 126 128 130 134 131 128 126 127 127 129 128 126 124 128 127 127 123 119 118 116 114 108 99 98 98 95 93 96 89 87 85 81 85 80 
136 135 140 143 138 141 142 147 144 141 141 137 136 136 133 132 136 139 137 140 138 139 138 135 138 138 137 137 129 131 127 132 128 129 130 130 131 131 128 129 125 126 129 129 127 131 126 126 130 134 133 131 129 130 133 131 129 126 125 130 128 128 125 124 123 119 116 109 102 101 98 95 97 99 92 90 89 82 84 78 
134 136 139 140 139 139 140 148 145 139 142 143 138 135 135 130 133 135 137 140 142 138 135 137 134 139 135 135 132 130 129 133 130 131 128 125 128 130 130 130 123 125 126 121 122 122 123 121 126 129 121 124 128 129 128 129 128 131 130 129 130 129 126 124 121 121 117 111 102 99 98 98 99 100 98 92 89 87 88 89 
131 138 138 141 140 143 143 146 143 142 137 140 133 137 133 132 133 136 136 139 141 138 134 133 137 134 132 132 125 131 125 128 125 125 126 123 123 124 118 120 116 115 114 109 106 103 99 102 102 107 108 104 111 120 119 121 128 132 135 133 140 130 131 124 123 127 121 110 105 103 104 100 106 100 96 95 93 89 88 88 
136 136 138 143 141 141 139 151 145 138 139 139 136 137 135 129 133 135 135 137 137 136 130 126 129 131 127 122 122 120 120 121 118 114 111 108 108 110 107 108 107 103 104 98 94 97 94 99 98 98 101 100 95 102 103 107 113 126 131 136 137 136 133 128 126 128 125 116 108 104 104 104 104 102 92 91 94 91 93 92 
133 134 137 140 137 138 141 142 143 138 138 140 138 140 142 132 132 128 128 129 123 121 116 115 115 115 119 114 113 111 114 113 112 105 105 105 105 106 104 101 95 97 95 96 91 95 92 92 97 97 94 94 93 99 96 102 103 116 128 132 136 131 132 131 128 133 125 123 110 107 110 108 104 109 100 103 98 95 94 93 
136 138 137 141 138 141 140 145 143 140 139 139 148 152 152 140 129 119 117 116 114 107 105 109 105 108 105 105 105 107 111 108 105 97 100 100 99 101 97 95 90 94 93 93 89 89 93 88 90 91 92 93 91 94 91 97 101 113 118 127 129 126 128 126 126 126 124 116 111 110 108 106 109 109 104 99 108 100 99 93 
134 138 138 140 140 146 140 144 141 142 136 142 158 172 165 141 124 111 110 109 109 105 101 100 99 104 102 102 101 105 103 100 99 93 94 96 93 94 95 90 91 94 91 88 85 89 89 83 89 93 87 91 95 91 86 93 95 104 112 115 124 122 127 123 120 123 123 114 110 107 109 107 109 108 103 105 104 103 101 95 
130 132 136 135 141 138 142 149 146 138 137 139 150 167 159 138 119 104 101 99 101 98 98 93 98 100 97 99 100 102 99 96 94 87 84 87 88 91 89 87 86 87 86 86 80 86 88 82 87 90 86 89 92 92 88 90 89 96 102 106 111 120 122 121 118 123 120 113 110 105 106 105 105 105 103 103 101 103 102 95 
130 132 140 136 139 145 144 147 144 141 138 136 142 151 147 131 110 103 99 98 100 96 92 94 93 97 93 96 92 94 90 88 87 86 84 82 86 83 87 86 85 82 85 81 84 82 84 82 85 87 88 90 93 87 86 88 85 91 94 101 105 106 110 114 114 119 120 113 109 102 105 102 106 107 106 102 106 103 103 99 
132 134 137 135 140 144 145 144 146 139 139 137 141 140 131 116 103 98 98 99 97 98 98 94 94 93 90 91 91 86 85 83 84 83 82 83 86 86 83 81 84 82 84 80 80 84 82 85 86 85 86 89 92 88 87 89 86 88 91 91 98 97 99 101 105 117 118 109 106 102 104 103 105 106 103 104 106 105 100 97 
130 132 134 138 137 144 145 144 146 139 136 136 135 122 110 102 97 93 95 97 92 93 93 95 91 90 87 91 85 83 80 84 80 80 80 79 85 81 80 83 81 83 79 79 78 79 84 80 84 82 84 83 86 83 84 83 78 81 87 89 89 90 87 84 89 109 112 107 107 102 103 100 106 104 103 101 103 99 104 101 
128 127 130 137 138 141 146 143 141 136 136 131 120 108 100 96 91 88 88 92 96 94 89 89 91 90 87 86 87 83 81 82 82 81 84 81 83 84 80 80 81 82 82 80 75 78 74 80 82 83 79 80 76 81 81 81 79 76 82 83 83 84 84 78 81 94 104 101 101 102 101 103 102 103 100 98 99 95 102 93 
123 123 128 133 139 142 137 142 140 135 132 125 108 96 88 89 85 87 87 91 89 90 87 87 89 88 86 85 82 81 77 81 81 79 81 77 81 80 79 80 79 79 81 78 76 75 77 75 78 76 76 75 74 81 80 74 73 75 76 79 79 81 76 74 73 86 89 89 94 100 100 101 102 103 100 95 94 97 97 98 
121 122 126 134 135 136 138 142 137 133 128 118 99 94 87 87 86 86 84 89 91 88 91 88 89 89 82 85 84 81 78 79 79 80 82 81 81 83 80 77 77 83 81 77 75 76 75 75 79 76 78 77 78 76 76 73 74 75 74 75 75 77 75 71 71 80 83 85 95 97 100 101 100 103 101 103 96 94 99 94 
123 122 125 127 134 137 139 140 137 129 123 109 90 86 83 88 87 82 88 89 91 90 87 86 87 89 82 87 79 79 77 80 76 78 76 78 80 80 78 80 75 78 74 76 74 76 73 71 74 75 75 76 72 76 74 73 71 71 75 73 73 74 73 70 65 76 82 81 93 94 100 98 102 102 100 100 95 96 95 89 
119 119 127 130 134 137 135 137 136 129 125 107 89 84 79 80 79 81 84 88 89 86 87 89 83 83 82 81 80 77 73 75 74 76 76 76 80 74 75 75 70 72 72 74 70 72 70 69 71 73 75 72 71 75 69 68 67 67 69 68 68 69 71 67 68 72 70 79 90 91 99 95 100 99 96 93 95 95 94 89 
114 122 123 130 131 134 134 134 133 127 123 104 85 77 79 78 82 81 84 86 82 88 86 84 81 80 80 79 78 75 72 75 72 72 72 72 75 75 71 73 68 69 71 70 69 70 69 69 67 72 73 71 71 74 66 68 64 61 64 68 67 67 68 64 64 69 70 71 87 93 95 96 96 99 97 95 97 98 94 94 
116 117 119 127 132 133 131 132 129 122 116 101 84 80 81 76 79 81 86 81 82 84 84 79 80 82 79 77 76 70 70 67 68 68 71 67 73 70 68 72 64 67 70 67 67 71 68 69 72 72 75 72 67 70 70 67 65 65 66 61 66 65 67 63 65 69 67 75 87 91 97 96 99 98 98 93 97 94 95 91 
108 116 120 124 130 127 128 129 128 122 115 97 80 77 78 76 77 81 79 81 80 81 81 82 80 77 75 78 73 69 69 73 71 69 71 71 70 70 68 66 63 67 64 70 66 66 67 62 68 71 73 73 68 69 64 65 60 63 60 63 63 61 65 61 61 65 65 75 88 91 97 96 94 95 94 92 95 92 93 87 
108 112 118 123 125 125 127 125 122 119 108 92 79 75 75 71 77 77 77 78 81 77 79 81 78 77 76 76 72 71 69 71 72 69 70 68 69 66 63 64 62 60 64 61 64 64 65 62 65 66 72 77 75 70 67 62 62 61 56 61 61 57 59 59 62 66 65 70 88 92 95 91 91 94 96 94 92 89 88 84 
104 109 115 121 122 123 121 127 123 115 108 84 74 72 72 70 76 74 81 78 79 82 80 77 75 73 73 71 70 71 71 71 73 70 71 69 70 67 66 62 62 61 62 62 60 68 65 64 67 67 67 80 76 67 65 63 57 60 60 59 63 61 62 58 57 63 66 71 84 90 92 92 90 92 90 90 90 88 91 85 
100 105 108 109 109 106 107 108 110 103 99 84 76 69 73 73 73 76 78 79 78 80 78 76 75 73 73 75 73 76 89 95 85 77 69 66 68 70 69 64 64 63 65 62 61 63 63 61 67 67 72 80 73 66 61 62 56 60 56 58 61 59 62 56 57 61 64 70 85 88 92 90 87 90 87 90 89 84 86 83 
97 100 103 98 95 92 92 90 93 88 83 75 72 71 70 69 75 72 76 77 78 77 79 73 72 71 69 75 90 135 223 272 215 103 73 72 67 66 64 63 65 62 68 57 57 62 60 58 64 65 68 79 67 61 62 61 57 56 58 58 64 61 59 57 62 63 60 68 81 84 90 88 90 87 84 85 85 84 80 81 
93 97 96 93 90 84 81 82 80 77 74 73 71 71 70 69 70 71 75 74 77 78 72 75 75 76 72 91 140 202 285 307 270 154 99 73 65 67 64 63 64 61 62 60 53 59 57 60 62 61 67 72 66 59 59 59 57 57 55 55 60 57 58 54 57 61 60 66 79 82 82 84 82 88 83 84 85 81 81 75 
90 90 92 85 80 79 76 73 79 71 74 68 69 68 66 66 71 72 72 74 78 74 76 74 70 75 83 118 153 187 220 236 223 182 116 90 70 67 63 63 63 59 61 60 55 60 57 59 62 61 64 69 59 57 61 55 52 53 55 54 60 56 55 52 57 59 57 63 79 80 82 83 83 84 84 81 83 79 76 75 
86 85 85 81 76 73 69 68 71 68 67 67 63 68 65 64 68 71 73 74 76 77 74 73 75 74 105 134 144 165 176 184 182 172 124 108 72 65 62 62 61 61 61 58 54 58 58 59 59 64 67 62 53 55 59 55 53 53 54 53 59 58 60 48 55 60 59 68 78 81 80 82 82 81 81 81 84 74 77 73 
82 85 80 73 69 65 61 64 64 63 62 62 61 64 64 62 67 72 72 74 74 73 72 73 74 82 126 142 140 146 141 137 140 144 131 112 80 66 63 62 61 56 57 55 54 58 55 54 60 57 62 56 54 57 58 57 52 53 52 52 55 55 51 49 55 59 54 65 77 73 81 75 77 76 76 76 77 69 71 69 
77 82 75 73 63 60 63 61 60 53 60 61 63 62 60 64 64 70 71 74 73 73 75 76 68 83 129 151 148 136 112 116 123 134 139 117 76 66 62 61 61 59 57 55 55 59 54 52 57 54 59 54 50 54 57 55 50 53 50 48 56 55 53 50 53 56 52 61 69 75 72 73 75 71 67 69 71 69 68 68 
79 80 75 65 61 56 56 57 57 55 57 63 62 65 63 68 69 66 68 72 71 74 71 70 69 85 122 140 142 118 99 102 104 114 129 120 73 68 61 61 58 58 56 59 54 57 55 54 55 55 58 53 51 54 55 50 51 53 50 49 54 54 54 49 49 55 53 66 67 67 68 70 70 66 61 66 70 63 64 62 
73 71 67 65 58 51 52 57 53 50 59 62 59 64 60 64 65 66 67 68 70 69 71 66 65 80 101 111 111 102 95 88 89 98 112 119 71 64 65 60 58 54 55 56 55 59 58 51 53 57 58 47 46 49 54 48 49 47 49 47 51 50 48 46 54 54 52 58 63 60 68 67 62 60 58 58 60 60 58 55 
71 69 65 62 54 51 48 56 54 48 59 62 61 61 62 63 64 67 66 69 65 67 67 70 66 71 92 101 104 99 91 87 85 93 104 88 65 62 60 59 56 55 54 54 54 60 52 50 54 58 59 47 48 50 49 47 49 48 47 46 47 50 49 46 51 59 49 58 65 58 64 62 57 56 52 51 61 52 54 51 
74 68 63 63 54 52 51 51 49 47 55 59 60 61 64 60 64 64 68 67 68 70 68 66 63 68 75 94 104 100 88 82 83 85 80 64 62 63 61 59 55 54 54 57 56 53 53 50 53 55 53 51 45 50 52 44 43 46 46 45 44 43 46 47 51 52 50 54 60 56 55 61 53 53 52 51 49 50 49 47 
68 65 63 57 51 47 47 49 51 46 57 62 59 63 62 62 64 62 63 66 66 66 66 61 67 64 64 71 88 93 83 79 70 66 62 58 60 60 59 60 59 53 55 54 53 53 47 50 51 56 56 51 47 47 50 47 44 46 45 45 46 47 47 44 51 49 50 53 54 55 57 56 56 49 48 47 47 45 50 43 
66 62 60 53 53 42 41 45 43 41 55 60 64 59 58 62 63 60 62 67 65 66 63 64 61 62 62 63 63 65 61 63 60 57 58 58 59 59 61 60 54 53 54 52 54 55 51 48 53 54 52 48 46 49 46 42 44 46 43 42 44 42 41 43 49 50 46 51 52 53 53 54 50 47 44 45 45 46 45 42 
65 61 57 51 51 46 43 43 43 43 57 61 60 60 60 59 62 64 61 63 65 64 63 63 61 62 63 60 58 59 57 59 55 59 57 57 60 61 59 61 56 56 54 57 54 55 52 52 50 56 53 52 45 47 45 42 40 43 43 41 44 43 37 40 45 46 45 50 53 52 52 52 47 46 43 43 44 37 45 36 
62 55 53 48 49 43 39 41 40 41 57 59 60 58 61 60 62 61 62 61 64 62 62 62 65 63 58 60 57 59 56 57 55 56 55 56 61 60 59 58 55 55 54 53 54 56 51 50 52 54 51 48 43 44 47 44 42 47 42 42 42 37 41 41 45 45 45 52 53 49 49 47 42 42 36 37 39 38 38 38 
58 58 50 49 47 43 39 40 43 42 56 60 58 58 63 57 62 61 60 64 64 61 64 64 63 60 57 55 55 57 56 55 55 58 59 59 62 60 58 57 57 58 57 58 55 57 54 54 53 53 54 48 44 44 46 42 45 45 43 41 42 37 39 41 44 44 44 51 51 46 46 44 38 36 37 37 38 34 37 33 
56 56 52 50 46 46 41 38 41 44 53 55 59 56 62 58 60 59 62 65 62 59 60 60 65 61 61 58 54 54 51 55 51 56 57 61 60 58 56 57 57 56 57 56 58 59 55 52 53 52 57 52 46 46 46 47 44 46 45 41 39 39 39 41 43 43 44 49 49 45 43 43 40 37 34 36 39 33 33 27 
56 55 53 45 46 42 42 43 42 47 55 56 57 57 58 59 61 57 61 63 62 60 60 65 60 61 57 53 52 53 50 55 53 57 57 58 57 58 58 55 55 57 59 59 58 61 55 52 52 54 55 51 48 46 45 40 47 47 42 39 41 41 40 41 43 39 42 46 47 42 41 40 35 34 30 35 41 27 31 26 
54 53 47 44 48 43 42 43 41 47 52 55 56 59 59 57 54 56 63 61 61 61 59 60 60 58 58 55 54 54 51 53 54 54 59 55 57 56 55 58 56 53 57 57 57 59 59 54 50 51 52 49 46 47 45 45 45 47 45 36 38 39 36 39 42 41 40 43 43 41 40 33 33 34 35 31 31 24 22 25 
54 52 48 46 45 41 40 45 43 47 54 57 55 56 58 53 56 55 60 62 62 60 60 61 58 59 53 53 53 52 50 55 51 52 51 59 58 56 56 57 56 58 57 57 57 63 56 49 51 49 51 49 47 49 44 45 46 45 44 37 40 37 36 37 43 38 40 41 36 40 37 33 31 31 29 28 25 21 18 17 
50 54 46 46 45 42 38 40 39 45 51 53 52 53 55 53 56 54 57 58 61 60 58 58 56 57 55 51 51 52 49 53 53 50 53 54 54 56 53 52 54 54 60 57 54 54 54 53 49 51 50 46 45 48 46 42 45 45 39 39 37 37 37 36 40 39 38 34 36 34 38 30 27 29 29 27 22 16 17 13 
53 48 50 45 43 40 37 39 40 44 50 56 55 52 57 54 56 55 59 57 56 59 57 56 57 54 53 50 49 52 50 50 51 51 53 53 53 53 51 53 53 59 57 56 52 57 52 51 51 49 45 45 39 48 46 46 43 44 43 38 39 39 36 36 40 37 33 36 35 28 32 28 29 26 28 21 22 13 15 9 
51 48 48 46 41 42 35 40 39 47 51 54 52 53 56 54 55 56 57 56 56 56 53 55 52 50 52 49 54 47 50 48 51 49 51 53 52 54 54 54 53 55 58 53 54 54 51 53 49 47 46 44 41 45 48 45 43 46 46 45 46 40 37 36 37 38 35 32 30 28 28 27 26 27 29 27 17 13 11 5 
49 46 47 47 44 42 38 37 42 45 52 51 52 54 52 53 53 54 53 56 56 56 51 51 49 50 47 47 51 48 47 46 49 47 49 51 55 51 54 55 53 56 57 55 54 56 51 52 50 49 43 44 42 46 42 43 42 45 42 44 49 41 39 36 37 37 35 32 25 24 28 24 24 22 26 24 16 11 11 6 
49 51 49 47 47 40 38 39 39 46 53 52 50 51 54 49 54 55 56 52 54 50 51 48 45 45 43 49 44 45 45 44 48 48 51 51 54 51 53 54 53 53 56 53 55 52 53 52 49 47 44 43 43 42 45 43 43 40 45 44 50 44 37 35 37 37 34 30 20 21 25 26 23 23 20 19 19 11 6 9 
49 50 50 53 49 46 41 42 41 44 49 48 50 51 51 50 48 54 51 49 48 50 46 44 39 41 40 41 40 40 43 52 55 55 51 48 52 54 53 54 51 52 53 53 52 53 52 49 49 47 41 43 42 40 45 42 43 42 43 47 50 37 36 36 34 36 32 28 23 21 22 17 21 22 16 14 19 12 12 0 
52 55 50 52 48 46 41 45 45 46 51 52 49 51 51 52 50 50 50 48 45 46 43 44 39 40 36 38 37 47 64 77 79 76 63 54 52 52 49 52 52 51 50 52 52 50 49 48 49 46 40 41 39 41 43 39 40 43 43 46 45 40 37 35 32 34 35 27 25 23 21 19 19 20 19 13 15 9 11 4 
52 54 53 52 47 46 41 43 45 46 50 50 48 51 47 50 47 50 45 42 35 39 37 40 39 38 34 38 39 51 64 71 80 79 76 63 55 51 50 50 47 48 53 52 48 53 45 47 46 43 38 46 42 41 42 37 40 40 42 44 47 38 39 37 35 41 37 29 24 21 20 19 18 18 15 16 14 4 6 7 
60 58 55 55 54 49 45 47 45 51 47 49 48 51 53 48 50 46 45 38 36 39 35 39 35 37 32 35 33 42 49 55 66 68 76 72 57 52 49 50 50 52 53 50 49 48 44 41 46 42 41 41 41 42 43 37 41 44 40 44 44 39 39 37 36 40 33 30 21 18 18 19 18 18 17 14 11 6 6 1 
59 59 58 57 54 49 45 50 48 48 49 48 48 52 52 47 50 49 41 35 37 38 39 42 39 37 33 36 33 34 38 40 47 53 63 62 56 51 46 51 47 51 50 51 48 48 44 45 45 43 38 43 45 45 46 40 42 45 41 42 47 39 38 40 41 38 36 29 24 16 24 19 19 19 17 15 11 7 5 1 
59 61 57 60 56 52 45 49 49 48 49 53 51 52 53 51 52 47 43 39 39 38 38 40 38 38 36 34 31 29 31 34 35 40 45 45 50 50 52 53 51 56 52 50 48 48 48 47 44 40 41 43 45 45 47 44 43 45 44 40 45 40 41 41 35 37 33 30 22 18 19 19 19 18 12 13 8 2 8 3 
69 64 57 58 55 51 47 50 49 48 51 53 52 50 51 50 52 52 44 41 40 39 39 42 34 35 33 34 32 28 30 34 32 34 39 36 46 51 55 54 54 51 54 52 49 51 49 46 44 43 45 47 45 49 51 47 48 46 46 44 40 38 43 41 38 39 34 27 26 20 20 17 19 16 14 14 13 7 11 7 
77 63 56 60 55 48 47 49 49 46 51 51 54 51 50 51 51 52 49 47 44 42 37 39 37 37 33 33 33 30 29 33 34 32 36 36 46 55 55 52 55 54 53 57 54 51 51 50 46 46 45 45 45 49 51 49 48 46 44 42 41 38 42 40 39 36 32 29 20 13 16 17 19 20 16 13 11 7 5 5 


