P2
80 60
129
85 90 89 86 88 90 87 83 85 81 87 88 88 86 90 87 90 87 84 87 91 91 88 93 93 92 93 92 96 94 98 95 101 99 101 104 98 97 100 100 104 97 94 95 95 95 101 93 100 109 110 113 107 108 108 110 122 128 129 128 114 105 102 102 98 101 95 94 90 90 85 82 87 88 88 83 87 79 75 74 
85 91 89 85 86 90 86 89 88 86 87 88 90 90 91 90 93 92 89 92 92 90 89 93 94 97 97 95 95 92 96 96 100 101 100 100 99 99 101 99 103 98 96 95 96 95 97 94 97 103 109 110 105 101 106 113 114 123 128 124 113 105 107 102 103 104 102 101 97 100 93 91 88 91 90 82 82 78 77 78 
86 90 89 84 93 88 94 91 89 86 91 89 90 87 92 91 91 93 91 90 90 92 91 95 93 96 95 98 98 94 94 95 99 99 97 99 98 97 102 101 102 99 101 99 96 95 96 93 94 99 101 103 102 100 104 105 113 119 120 116 107 106 105 103 105 107 106 103 103 105 94 91 88 92 92 87 88 82 78 76 
86 88 87 89 95 93 92 88 89 87 92 90 93 88 90 89 88 89 89 93 94 93 92 95 94 97 99 99 99 95 94 99 103 102 102 101 100 100 102 101 99 98 98 96 97 95 95 94 96 96 102 100 100 99 105 102 107 111 114 109 105 109 107 108 107 107 108 104 100 98 94 94 92 92 91 91 87 78 79 76 
84 94 88 87 92 91 88 89 91 89 89 89 94 89 88 89 90 89 85 92 92 90 96 95 96 97 99 94 95 93 97 102 102 99 104 100 99 103 100 101 99 95 97 96 95 92 92 93 94 96 97 96 95 96 102 100 104 110 110 106 99 108 108 110 107 109 110 105 105 104 101 92 90 94 96 92 85 80 79 82 
87 91 90 86 93 93 88 93 87 90 95 90 92 90 89 88 91 92 91 90 96 95 97 92 95 96 96 94 98 99 98 99 102 103 105 103 102 99 100 98 96 97 95 97 97 95 89 92 92 98 95 97 93 98 95 100 105 107 108 103 97 109 110 111 113 112 110 109 107 107 101 97 97 97 94 92 91 85 81 83 
85 90 89 88 90 90 86 91 91 89 90 88 93 91 88 90 92 92 91 92 93 97 94 99 98 97 104 100 99 99 96 99 103 103 103 100 99 101 99 99 97 96 97 95 94 92 95 91 92 93 91 93 94 96 95 100 103 104 106 101 106 113 114 114 109 112 113 110 107 106 103 100 102 102 100 95 92 86 84 87 
87 88 86 87 92 87 88 90 89 88 89 88 91 92 94 93 92 94 90 90 93 92 93 95 97 98 98 99 98 98 97 100 103 101 102 102 99 99 97 95 95 95 96 95 97 91 93 93 91 91 92 93 93 94 93 97 97 102 101 102 106 117 114 115 115 117 114 108 112 106 107 103 105 104 105 98 92 88 87 87 
84 87 89 88 91 88 92 89 86 89 90 88 97 91 90 95 93 90 91 92 96 98 95 96 94 99 96 100 99 99 97 98 100 101 98 101 99 97 97 98 97 95 96 94 93 94 94 90 92 92 96 95 96 90 94 97 98 100 103 102 106 120 120 119 119 121 119 117 115 112 105 104 103 100 102 101 97 92 87 89 
86 91 87 86 90 89 87 89 89 91 94 90 94 92 92 94 92 89 87 92 93 94 92 95 94 96 99 99 97 99 98 100 101 100 100 102 99 96 96 97 98 93 92 91 91 90 92 91 91 93 93 92 94 96 95 101 97 101 99 100 107 117 120 121 120 122 121 123 118 114 109 110 106 109 105 101 96 93 87 92 
81 85 90 88 90 88 87 87 89 88 94 90 93 89 92 91 92 90 89 92 96 94 95 94 95 96 95 95 95 97 97 96 100 100 97 101 97 98 97 96 94 93 92 92 93 90 93 90 93 95 95 96 95 95 96 102 95 101 98 96 104 115 112 115 117 120 117 120 116 117 110 108 107 107 110 103 102 96 88 90 
85 89 87 86 91 89 89 88 92 86 92 89 94 91 92 89 90 90 93 92 93 94 94 95 98 94 95 97 96 98 94 98 95 99 97 100 99 99 97 96 98 90 94 90 91 92 93 93 92 94 99 96 92 95 98 101 94 99 97 96 104 113 116 114 116 114 119 115 115 116 110 110 111 107 112 106 101 99 93 92 
82 89 87 87 89 91 89 90 88 89 91 87 90 94 92 89 90 90 92 90 92 94 90 95 92 96 95 94 92 93 94 95 94 97 97 98 96 99 95 95 93 97 91 90 91 89 90 91 92 93 96 94 92 95 92 96 94 97 96 94 105 115 115 112 114 115 113 114 112 111 110 108 106 109 107 104 102 96 94 93 
85 91 84 89 89 91 85 90 88 87 93 90 90 93 90 91 91 89 90 89 92 91 93 92 92 94 90 95 94 91 92 95 99 98 97 101 98 98 95 93 95 91 89 90 88 92 91 91 92 91 92 93 91 90 94 93 93 94 94 95 105 110 112 113 114 118 113 113 112 113 107 106 107 108 109 102 101 94 93 100 
83 90 88 88 92 90 90 90 90 91 89 88 88 90 87 90 87 93 91 90 91 91 89 90 90 94 94 91 90 90 94 93 97 94 97 96 98 93 97 95 92 90 89 89 86 88 88 89 91 92 92 92 89 94 91 93 91 93 95 93 103 110 113 115 114 113 109 108 111 111 105 107 109 107 103 100 97 95 94 96 
85 88 87 87 92 89 86 89 88 88 91 90 86 86 86 92 88 88 88 88 92 90 89 88 93 93 91 92 91 91 91 92 93 96 93 95 95 95 90 95 91 90 90 87 88 87 86 84 90 91 91 92 89 91 92 90 91 92 93 94 105 110 110 112 110 107 106 111 108 108 101 104 108 104 108 102 96 97 94 98 
83 89 85 82 86 89 86 87 86 88 85 87 87 84 86 87 89 87 86 90 93 91 91 87 89 90 94 93 87 89 88 91 96 96 97 94 95 92 95 95 93 91 87 89 84 84 85 83 87 90 91 90 88 88 91 89 92 92 92 92 102 108 110 112 108 108 106 108 106 107 102 103 104 104 106 99 99 100 95 96 
83 89 87 83 86 88 86 90 86 84 88 87 88 84 87 90 90 89 89 86 91 90 89 87 88 85 89 90 88 90 86 89 91 94 91 94 94 94 95 90 92 90 89 87 82 83 82 85 86 88 88 89 82 90 89 88 86 89 90 89 104 110 110 108 108 110 107 109 105 108 102 103 105 105 105 101 101 95 93 91 
84 89 89 88 91 90 85 88 88 87 89 90 89 86 89 91 89 86 85 88 91 86 91 89 89 86 85 85 87 86 88 89 91 92 95 94 93 93 92 89 90 92 89 87 85 84 83 81 82 83 85 87 85 87 87 86 88 90 87 89 104 114 107 112 110 109 105 108 107 109 104 105 107 106 102 99 100 97 91 89 
82 86 89 85 89 89 84 88 86 87 89 88 87 86 86 87 84 86 87 82 88 88 87 84 86 86 83 81 85 85 84 85 87 91 90 91 90 92 90 86 90 91 88 84 83 83 81 78 80 79 83 85 85 88 85 89 86 86 86 88 100 107 103 107 105 109 103 108 104 106 100 105 105 104 102 100 97 93 89 92 
83 91 87 87 84 84 87 87 83 85 86 87 85 88 84 86 85 84 83 82 88 87 85 85 82 85 85 83 84 82 87 86 87 90 90 92 90 91 87 88 87 88 86 87 82 83 83 81 78 81 78 81 79 80 82 78 83 83 85 87 102 108 103 106 104 107 104 102 105 101 101 100 101 100 101 97 97 90 88 93 
79 84 85 84 87 85 84 82 84 85 86 86 87 87 83 84 85 81 85 85 87 85 83 83 83 83 81 78 78 79 79 79 76 79 84 86 81 87 81 83 82 83 80 81 82 81 80 81 80 77 80 78 73 78 79 80 79 81 82 83 102 107 103 105 103 105 103 106 103 105 98 102 100 102 98 96 96 92 87 90 
83 86 83 85 86 86 85 82 83 87 86 88 89 85 84 83 86 83 82 79 85 81 85 79 80 81 84 78 79 79 75 71 69 70 72 71 69 75 72 78 78 80 78 79 80 79 80 80 77 78 80 76 74 77 76 79 76 80 84 85 100 109 103 104 103 106 103 104 104 102 100 98 100 99 99 95 94 91 90 92 
83 90 85 84 85 82 83 84 82 82 83 85 88 83 84 83 85 82 83 80 83 82 84 78 77 77 80 77 76 71 65 64 63 65 65 65 64 60 63 67 70 72 75 72 77 79 75 76 76 78 77 76 77 76 76 78 80 77 82 85 104 104 103 103 101 105 104 108 102 107 98 99 98 98 99 96 93 88 86 83 
82 87 82 87 86 83 83 85 82 83 88 87 84 84 85 81 86 80 80 79 82 80 80 78 80 79 77 74 69 64 62 63 66 63 64 64 58 60 58 61 64 72 71 70 71 72 76 77 76 79 76 76 75 76 77 79 78 79 82 86 99 105 103 104 102 104 104 107 102 102 100 96 103 94 99 95 92 87 82 88 
79 84 82 86 85 84 85 84 84 82 86 85 86 83 83 83 84 83 79 82 80 79 77 76 75 80 75 73 68 62 63 61 66 65 62 62 60 58 59 59 62 66 65 68 67 71 75 77 77 73 76 73 74 73 74 74 75 77 79 82 99 102 104 102 100 103 101 98 102 103 98 98 100 97 94 95 92 86 82 87 
82 82 82 79 85 82 82 82 83 82 83 85 87 85 81 81 82 80 80 79 79 76 78 79 78 76 75 72 69 66 63 62 62 62 61 61 61 59 62 58 57 60 65 67 68 71 71 72 72 75 73 72 73 72 72 74 75 77 79 85 98 100 99 101 98 100 99 98 99 99 96 96 98 95 93 90 85 87 77 81 
80 84 82 79 84 85 85 85 84 84 89 88 85 86 85 85 81 81 80 79 78 82 80 79 75 75 73 67 69 68 65 63 63 60 61 59 61 59 58 58 59 60 62 65 70 69 71 70 69 75 76 71 71 74 73 72 68 74 78 82 100 102 97 99 97 101 96 98 97 98 97 94 97 94 92 90 87 87 77 74 
83 83 83 79 83 85 84 90 84 87 90 88 86 83 84 83 83 83 81 79 80 81 80 75 75 76 71 69 66 65 62 61 60 65 60 56 58 58 60 59 58 58 57 66 68 66 69 68 71 70 70 73 71 71 72 71 72 72 78 84 99 97 96 100 97 97 95 95 95 96 92 90 92 90 90 88 84 82 80 79 
79 85 80 77 83 84 82 83 87 85 89 86 88 84 83 84 81 80 82 81 80 80 78 77 75 73 73 72 69 68 63 64 65 65 60 58 59 58 60 57 54 56 58 60 64 67 68 69 72 72 72 74 72 73 69 73 72 71 77 82 92 95 90 96 93 94 92 93 91 94 89 84 90 90 91 85 81 80 76 80 
76 83 82 80 82 83 87 86 85 81 85 87 85 87 83 85 83 82 79 81 78 80 80 77 79 78 73 73 68 70 65 62 62 63 62 57 59 62 60 58 54 56 59 63 64 67 69 67 71 72 73 70 68 70 72 71 73 74 76 81 90 95 91 92 89 92 92 88 88 93 85 82 88 86 85 82 81 78 73 74 
78 80 81 81 86 81 84 87 84 88 85 87 86 85 82 80 78 82 78 78 82 78 80 78 80 76 73 71 70 65 66 62 61 62 60 60 59 62 63 56 53 53 59 62 69 68 68 69 71 73 70 69 69 70 71 70 71 71 76 79 90 90 89 92 88 89 88 86 85 87 82 81 82 82 83 77 77 74 68 71 
78 82 81 83 87 86 86 85 82 82 85 85 81 80 79 81 81 83 78 76 81 80 81 80 78 74 68 66 68 66 61 60 57 58 56 60 59 62 57 56 55 54 57 61 64 62 65 71 71 70 69 70 70 70 72 73 72 68 75 80 90 90 84 87 86 83 83 84 82 83 80 79 81 77 78 72 71 69 62 69 
76 83 78 81 82 85 83 86 85 85 85 83 84 81 83 80 81 82 80 80 80 83 79 77 78 75 68 62 60 58 61 55 55 56 56 56 56 54 58 55 53 55 59 64 65 64 66 69 68 66 70 69 67 70 72 71 69 70 76 81 88 80 81 82 81 77 78 81 78 76 74 75 74 70 70 70 68 68 58 63 
75 81 82 82 85 88 83 81 82 83 87 88 82 81 81 81 82 80 79 79 80 79 79 75 75 78 69 65 60 58 56 52 53 57 54 57 55 58 60 55 51 55 63 66 64 65 68 70 66 70 69 66 66 67 65 69 69 69 69 78 81 79 79 77 72 74 73 72 72 74 68 70 71 65 66 63 63 62 53 64 
75 79 81 80 83 83 83 84 82 81 86 89 85 82 81 81 80 80 78 79 79 75 76 74 76 81 72 63 62 62 55 53 53 53 54 53 52 57 55 56 52 61 66 69 68 64 64 68 66 64 66 67 65 61 63 68 67 68 71 79 81 75 74 71 69 70 69 72 67 66 67 69 66 62 59 60 57 55 52 53 
76 83 83 84 85 86 82 82 81 79 85 87 85 82 82 84 83 80 80 79 79 77 76 76 75 77 79 68 69 62 59 57 55 52 52 53 54 58 56 53 56 67 69 70 70 68 68 70 69 66 66 66 64 65 69 67 70 68 72 81 77 71 72 70 67 67 65 68 63 64 61 67 62 57 59 54 55 51 44 50 
76 81 82 82 84 82 85 86 81 81 85 84 85 79 80 81 83 83 81 77 80 75 76 80 77 77 80 77 70 62 61 59 54 52 55 57 55 57 57 58 64 69 68 72 71 69 69 69 71 68 66 66 64 67 65 70 66 69 71 81 80 69 70 68 66 68 66 65 61 62 62 62 60 54 55 51 49 42 41 44 
78 81 80 81 83 84 82 82 86 81 85 83 79 80 80 80 83 81 79 77 77 76 77 77 77 79 84 79 72 63 63 58 57 54 54 59 57 61 66 72 72 72 71 68 68 66 69 71 68 67 68 68 64 63 68 69 67 70 73 80 76 69 66 67 64 60 63 59 58 62 58 58 60 54 51 45 47 41 35 40 
77 81 85 79 82 82 83 84 81 80 82 84 79 78 78 81 76 77 78 75 81 78 81 80 78 78 78 80 76 76 70 64 61 60 61 61 68 72 76 73 72 70 71 68 69 68 68 66 66 68 67 67 66 65 67 68 66 67 69 80 76 68 66 60 59 57 58 53 54 58 54 56 54 50 48 42 43 40 33 39 
79 81 80 82 84 83 85 82 82 81 82 84 81 80 78 79 81 81 75 78 80 79 76 75 80 78 81 77 80 76 78 75 76 74 74 76 78 75 77 76 75 72 69 70 72 66 68 66 68 67 71 69 66 66 67 67 64 69 71 77 72 65 64 57 57 51 56 52 54 55 55 55 49 48 46 41 40 39 36 34 
81 80 82 80 82 81 80 80 78 80 80 84 81 78 78 80 82 77 77 80 79 80 76 77 80 79 80 78 80 77 79 75 75 79 79 79 75 74 76 73 75 75 73 71 71 71 71 65 67 67 66 67 68 68 67 69 67 68 73 77 67 65 61 56 53 49 52 52 49 52 51 53 49 49 41 40 38 39 37 35 
80 81 77 77 82 82 82 81 79 83 84 80 77 74 78 77 79 77 77 76 80 77 76 78 78 79 79 77 81 82 79 78 78 79 77 80 78 77 73 75 76 74 75 72 73 69 73 72 69 70 68 65 64 67 66 64 66 69 74 75 65 59 57 56 47 50 46 51 48 54 49 49 45 43 40 38 38 32 27 27 
78 77 78 82 80 83 80 80 80 80 79 81 78 75 79 79 80 78 74 72 75 77 76 78 76 77 78 78 78 82 81 76 80 79 80 80 80 77 75 74 76 74 74 73 76 72 74 73 68 69 71 68 67 62 67 61 65 69 71 71 65 58 55 50 47 45 47 44 46 50 47 47 44 43 41 37 36 35 24 27 
77 79 76 79 80 83 83 80 82 78 81 79 78 75 78 79 79 80 76 76 76 77 77 77 75 75 76 78 79 80 79 75 79 77 81 79 78 78 77 76 77 76 73 74 75 73 72 72 69 68 70 66 66 66 66 64 64 71 70 67 58 54 52 49 44 44 45 45 42 49 45 43 42 41 37 37 33 32 23 23 
79 79 80 79 81 82 80 80 84 79 81 80 79 80 78 79 75 78 76 78 77 78 76 76 76 77 80 81 79 77 79 78 79 78 80 78 77 78 78 76 79 75 77 77 75 73 73 71 69 68 69 67 68 68 67 65 67 69 66 64 54 51 50 46 42 42 43 42 43 45 44 39 39 35 36 33 31 28 17 21 
83 80 80 77 82 81 85 82 82 78 80 76 79 77 78 77 75 77 81 77 78 76 76 79 75 77 76 79 80 78 76 79 77 78 81 79 78 77 80 77 75 77 76 76 76 74 73 69 66 64 71 69 64 65 64 68 67 67 66 60 51 46 47 42 38 42 42 39 39 40 41 37 35 33 31 31 28 25 17 16 
77 79 79 80 79 84 80 79 82 81 79 80 78 75 79 77 77 77 79 79 78 77 78 76 77 76 80 80 78 79 76 81 77 79 83 79 73 77 79 75 74 74 77 75 76 73 72 70 67 66 68 69 65 65 68 65 68 68 56 47 47 44 44 39 36 39 37 37 34 36 36 32 32 30 32 25 28 21 9 18 
80 82 79 79 83 83 82 77 82 80 81 80 80 74 79 77 80 76 79 79 78 78 76 78 78 79 78 79 77 78 78 80 78 79 78 81 78 77 79 76 80 77 74 75 77 71 72 68 67 68 68 65 67 68 66 66 65 64 52 41 41 41 39 36 36 38 35 32 31 32 35 32 31 27 25 24 24 18 8 12 
80 81 83 79 80 82 81 81 78 81 81 80 82 78 79 79 79 77 81 79 76 75 79 79 77 80 81 79 81 79 77 80 80 82 82 82 78 83 79 75 77 75 75 76 75 72 72 72 69 71 68 66 64 69 66 65 65 68 52 32 35 38 38 36 34 34 33 28 28 29 29 31 28 23 26 24 23 18 4 11 
82 78 81 78 79 82 80 82 79 79 82 78 80 77 78 76 77 77 79 78 75 78 79 78 77 77 79 76 76 81 79 81 82 82 79 84 79 78 78 77 79 75 77 76 74 73 74 72 69 68 66 64 64 65 66 64 67 64 47 29 21 33 34 31 33 35 28 28 27 27 26 26 26 22 25 19 20 17 7 8 
81 83 85 80 80 80 82 80 79 77 77 77 78 76 77 80 79 80 77 77 79 78 74 78 81 76 82 77 79 83 79 82 79 81 79 80 81 77 76 77 78 75 77 75 76 75 73 72 70 69 68 64 64 60 64 65 66 63 41 30 19 27 26 27 29 30 29 25 20 27 25 24 25 17 20 17 20 20 10 9 
82 84 81 78 80 80 78 82 77 74 79 77 77 75 78 80 77 80 77 78 80 80 78 78 77 76 78 76 75 76 78 78 82 81 82 80 77 77 78 78 76 80 75 73 76 76 72 71 67 67 67 66 67 62 65 63 62 61 40 28 15 21 23 27 28 30 28 25 26 26 24 23 21 19 18 16 19 13 8 14 
80 84 82 82 81 79 82 79 80 76 79 79 77 78 74 77 81 78 77 78 79 77 80 81 77 77 77 78 77 77 77 78 78 81 80 81 80 78 79 76 76 75 74 77 74 73 72 72 71 67 69 66 65 64 66 62 60 56 42 32 20 22 24 28 26 29 29 27 21 24 24 24 22 16 19 17 16 11 7 7 
81 85 86 81 84 86 80 78 80 75 82 78 76 75 75 79 79 79 79 80 80 80 81 78 80 79 77 78 76 79 78 82 80 83 83 82 83 80 78 74 77 77 74 76 72 73 73 72 71 67 66 66 63 63 64 61 60 56 41 33 24 25 27 27 25 34 27 28 22 28 26 24 17 16 19 22 12 7 5 6 
83 86 83 84 83 82 79 77 80 75 77 77 78 77 76 78 81 76 79 74 80 80 79 78 78 80 78 77 79 77 80 76 81 79 83 78 82 78 78 77 73 76 74 73 73 71 73 72 67 64 65 64 62 66 65 62 61 58 43 35 28 30 26 29 30 32 28 22 23 28 24 23 14 17 15 15 11 3 1 2 
88 93 88 83 85 85 80 79 79 77 77 78 77 76 75 73 78 81 77 79 78 77 77 76 76 79 78 79 77 79 78 78 81 82 80 79 79 78 80 80 72 77 76 75 75 71 70 66 63 66 67 69 65 66 65 64 62 57 44 39 31 29 26 26 28 29 28 25 17 24 22 19 16 14 18 13 12 5 0 5 
87 93 90 86 88 85 81 83 79 80 82 79 75 76 78 76 79 79 80 80 79 74 80 79 77 79 80 80 76 77 78 81 80 80 81 80 83 79 75 76 77 76 77 73 75 74 72 69 65 68 68 67 64 68 69 64 61 57 51 42 32 29 28 25 28 32 21 22 18 22 18 19 23 13 12 12 10 6 1 1 
94 91 92 87 90 86 86 86 82 79 80 83 76 76 78 76 78 79 80 84 80 78 80 79 75 78 75 77 79 76 77 79 80 80 83 84 82 83 80 77 78 77 80 75 76 73 70 68 68 68 67 68 66 69 69 66 63 58 52 47 39 29 26 27 27 28 26 20 16 18 18 16 13 15 12 14 9 3 5 1 
96 91 94 90 91 91 90 86 83 82 85 80 78 78 79 78 77 81 80 79 82 80 79 78 77 79 74 79 78 81 83 84 82 83 85 82 84 83 81 77 82 78 75 73 74 72 72 70 67 67 65 68 62 65 67 61 65 58 54 48 35 24 20 24 21 20 11 10 13 12 17 16 8 15 16 12 10 7 4 3 


