P2
80 60
185
133 129 139 131 133 133 130 134 137 138 143 136 144 142 141 142 143 144 139 129 113 103 105 108 105 100 94 97 98 101 99 105 105 109 116 119 124 126 131 132 126 134 128 123 124 124 130 124 127 122 124 123 129 126 126 128 121 122 116 116 112 108 107 105 102 106 105 102 102 98 91 90 84 87 87 85 82 79 78 81 
133 132 135 132 132 130 131 138 139 136 140 142 144 144 144 144 146 145 142 133 113 101 100 104 97 100 100 102 100 102 103 103 106 109 108 107 110 121 132 135 133 137 133 134 131 131 136 130 127 126 126 126 127 124 127 127 125 123 121 118 114 109 106 110 107 110 105 103 101 96 96 92 88 88 83 85 86 82 81 79 
130 127 137 132 134 135 148 151 149 147 150 143 145 147 141 146 147 139 138 129 112 104 104 100 98 105 103 104 104 102 107 106 106 109 105 104 104 106 115 125 132 140 138 141 140 143 141 140 132 128 130 131 132 131 132 130 133 126 122 122 115 112 110 107 111 110 107 108 105 101 98 91 93 90 90 88 88 83 74 85 
136 131 136 134 136 143 167 171 164 166 165 152 140 143 137 141 141 143 135 128 112 105 105 105 103 104 105 105 105 103 105 111 109 111 109 104 102 103 103 110 112 120 132 142 141 142 149 145 141 136 137 135 138 134 133 134 130 128 124 119 116 113 113 111 112 112 108 109 108 101 99 93 87 90 90 90 86 82 81 84 
136 133 134 132 136 150 176 174 179 185 176 161 142 133 131 131 136 136 132 123 110 106 108 103 105 108 101 105 103 107 106 110 110 114 109 101 106 106 106 105 103 105 114 136 142 144 148 146 144 141 144 141 137 137 135 134 134 131 125 123 119 115 115 114 115 114 112 110 108 104 104 98 95 94 93 93 89 81 84 90 
132 131 137 134 135 148 174 175 178 182 182 163 143 129 121 119 121 123 121 119 114 113 111 110 107 112 107 110 108 107 110 110 111 112 108 107 104 105 103 103 100 104 109 134 142 144 147 148 143 145 145 140 143 139 139 137 135 131 128 125 119 117 118 115 116 114 113 112 107 105 102 99 99 97 94 94 88 84 86 86 
132 131 135 133 136 145 165 166 168 169 178 164 143 128 117 120 118 117 117 120 118 118 116 114 113 118 113 116 113 112 114 110 116 117 108 108 105 104 105 103 101 103 109 133 139 143 151 146 143 150 151 148 145 143 141 140 137 135 132 126 126 125 121 116 117 114 117 116 111 109 105 102 103 102 98 94 94 88 87 91 
130 130 131 127 131 150 161 160 160 162 173 161 139 126 117 114 116 115 116 114 117 115 117 114 118 122 120 122 119 117 118 116 116 118 111 114 110 110 104 105 104 106 114 136 142 144 146 149 149 155 155 152 146 147 145 147 143 139 131 130 126 126 122 119 123 118 119 113 112 110 106 107 105 105 99 95 97 91 88 91 
131 129 132 127 130 149 153 155 148 151 151 144 130 119 113 112 113 110 111 111 115 114 115 114 120 121 121 119 121 120 124 121 124 126 121 117 115 113 108 109 104 109 118 140 140 147 154 147 147 150 154 153 151 148 147 147 146 137 134 131 129 129 123 123 122 123 118 123 118 113 107 107 106 105 103 98 97 90 90 90 
127 128 128 125 127 137 143 142 137 133 134 124 118 115 112 108 110 109 108 109 107 109 110 111 112 115 116 117 120 125 127 123 126 128 128 128 125 123 116 110 110 113 125 138 140 145 149 149 145 149 152 147 150 147 144 145 141 134 132 130 128 124 125 123 124 122 125 123 119 116 117 111 109 110 102 104 100 93 91 93 
131 126 126 121 121 129 130 130 124 121 118 115 111 111 107 102 107 110 109 109 108 103 109 106 114 115 109 116 111 113 119 121 122 125 120 124 129 132 130 124 115 113 126 137 141 142 152 147 147 148 153 150 146 144 145 142 143 132 131 130 121 123 122 125 122 122 123 119 121 116 117 113 112 111 107 104 105 100 95 96 
128 125 124 119 117 112 116 114 113 111 106 107 105 106 105 102 105 103 107 108 106 107 110 109 113 107 109 111 110 115 115 118 114 119 114 117 122 126 132 128 125 121 121 125 130 136 145 144 148 149 153 151 145 147 141 141 138 136 130 126 126 119 119 122 119 120 122 118 116 117 113 110 110 108 107 105 105 102 93 98 
130 121 124 116 111 106 106 108 106 103 104 99 97 102 103 104 103 105 103 107 105 107 106 104 107 107 106 108 105 108 112 114 110 114 112 110 110 113 119 120 120 121 120 116 121 127 134 137 145 150 154 151 147 144 141 140 136 131 132 127 121 122 120 121 121 118 116 116 115 113 113 112 110 108 107 105 103 103 101 97 
128 121 118 115 107 102 101 102 104 99 97 98 98 101 101 103 102 103 101 101 103 106 106 102 103 104 106 104 105 104 110 109 111 110 108 110 105 106 107 109 113 113 110 108 112 118 125 126 142 151 151 150 148 145 142 139 137 133 128 125 123 120 119 120 116 119 113 116 113 111 112 107 108 103 103 103 102 97 95 96 
125 119 119 109 103 100 98 97 100 98 97 97 96 99 101 100 101 105 100 102 98 103 100 103 102 105 102 104 102 106 110 106 108 108 108 103 101 102 104 107 106 108 103 105 104 106 115 119 140 146 151 147 145 148 141 142 138 132 128 123 121 120 118 117 119 114 112 111 111 111 110 108 108 108 103 105 104 98 97 94 
120 113 114 104 104 98 96 94 98 100 97 97 96 97 99 100 101 101 101 101 102 103 96 100 101 102 102 103 104 102 106 105 108 108 103 101 101 100 102 101 100 102 103 101 102 103 110 113 137 147 151 145 147 145 139 136 135 133 125 124 119 121 116 117 120 117 113 111 108 108 109 107 108 107 105 103 98 101 100 100 
119 109 111 102 100 94 94 96 93 96 96 94 96 94 98 98 99 101 97 100 103 103 101 98 100 102 99 101 98 97 100 103 105 107 101 100 98 98 100 101 99 103 98 99 99 102 107 116 141 148 149 145 144 139 140 136 134 133 127 125 118 117 116 115 114 113 112 109 107 110 109 106 107 105 105 103 104 100 92 97 
123 109 106 98 95 95 92 96 95 92 93 94 95 93 93 98 101 99 102 98 100 102 103 101 98 97 99 97 100 95 102 101 103 105 96 99 97 97 97 97 97 99 101 100 95 99 104 113 139 145 146 144 141 144 137 135 133 130 126 124 121 118 115 116 115 113 113 108 106 106 106 106 110 108 105 103 107 100 97 94 
112 104 105 98 92 91 90 92 94 89 92 91 95 92 94 96 99 100 98 98 100 96 100 100 98 94 97 95 99 99 102 99 99 102 99 99 97 96 97 97 96 99 100 98 98 98 103 114 140 145 147 141 142 140 135 136 132 128 122 122 122 118 115 113 114 113 111 109 106 107 109 106 108 107 106 104 103 101 95 96 
110 102 103 94 94 90 87 94 90 91 93 90 90 92 94 99 96 95 94 96 98 96 98 99 98 98 95 94 97 95 101 100 100 101 101 97 93 96 94 98 96 99 96 95 93 98 104 114 138 143 148 141 142 137 132 131 127 126 120 120 121 115 111 108 111 110 111 109 109 107 108 105 105 104 105 106 104 97 95 94 
109 100 101 92 87 89 89 85 89 88 91 91 90 94 93 95 95 96 95 95 95 95 99 95 102 98 91 95 96 98 101 97 96 104 100 98 96 99 95 95 91 96 96 94 90 99 103 117 137 139 141 138 137 138 130 132 128 123 117 120 116 113 112 110 111 111 109 108 111 107 103 102 101 102 99 101 98 96 96 97 
104 95 93 88 86 86 89 87 86 87 88 88 89 90 92 94 93 93 93 95 96 93 93 94 94 93 91 92 94 99 99 95 94 98 99 94 89 93 91 94 88 91 94 92 89 93 100 112 136 137 140 135 134 135 132 129 128 125 120 120 115 114 108 106 109 110 104 108 106 109 104 101 99 102 99 102 99 95 93 94 
99 92 92 87 87 84 85 85 89 89 90 88 90 93 92 91 93 94 89 93 94 90 94 92 93 93 91 88 90 95 95 95 93 92 90 90 91 89 86 88 86 88 90 91 89 89 99 114 138 139 137 136 130 134 130 129 127 123 121 115 113 116 109 108 110 111 109 105 108 105 104 101 99 103 102 97 99 94 93 93 
100 93 93 85 90 82 83 84 85 83 84 82 86 87 92 90 90 91 87 93 86 90 89 91 89 86 88 90 89 88 93 93 90 91 88 87 83 84 84 85 81 86 88 82 83 89 94 112 136 138 140 134 133 132 131 129 121 119 118 117 113 112 113 107 108 109 108 106 105 106 103 102 102 101 93 99 93 95 88 93 
98 88 89 83 84 86 83 85 83 84 84 86 87 87 88 87 92 88 90 86 89 90 89 86 87 88 85 88 86 89 89 90 93 86 87 81 80 82 79 82 82 87 81 80 82 83 93 109 131 135 137 130 131 130 129 125 119 117 115 110 112 111 107 109 108 109 107 108 104 104 102 100 98 101 98 93 95 91 89 88 
93 87 90 83 82 82 81 82 85 83 84 82 85 88 87 89 86 89 86 88 85 85 85 84 84 86 82 84 83 83 86 87 90 88 85 83 81 78 79 80 80 79 81 79 80 83 91 108 129 134 131 126 127 126 125 122 117 112 114 111 108 109 107 105 106 109 102 105 104 107 101 99 97 98 94 94 92 90 87 92 
89 80 84 79 86 85 81 84 82 82 85 86 87 91 86 86 84 89 83 85 83 87 86 84 84 85 83 83 81 81 83 87 89 85 82 81 82 81 81 81 81 80 82 82 78 81 88 108 128 128 124 120 123 125 124 120 117 114 111 109 104 105 103 102 104 105 104 101 99 103 100 99 95 95 94 89 91 91 89 86 
86 82 82 78 82 83 83 83 84 82 86 84 85 86 87 89 85 86 84 84 86 87 86 84 79 83 81 77 75 75 75 74 80 81 80 79 80 80 80 81 83 82 81 78 78 79 87 107 126 125 125 122 120 118 121 116 115 109 110 107 105 102 103 105 104 102 102 99 104 99 96 97 93 90 94 90 88 87 88 87 
88 80 82 77 80 81 80 87 84 83 85 84 88 85 85 87 88 84 86 87 84 86 86 80 80 82 78 72 70 66 68 65 67 76 77 73 75 78 79 82 80 82 78 75 74 78 86 107 124 125 119 116 118 119 118 115 107 109 104 103 99 98 100 100 101 100 100 96 97 100 95 95 94 94 87 85 89 87 85 82 
79 75 82 77 79 80 81 81 83 82 84 82 85 84 82 82 82 87 86 87 86 86 86 81 80 76 73 68 65 67 68 65 65 69 69 73 77 81 78 78 76 79 79 76 74 77 87 109 120 120 120 116 114 117 117 113 106 104 102 97 98 98 99 104 99 100 97 98 93 95 95 91 91 91 89 87 89 83 81 80 
78 73 80 75 79 80 82 82 80 80 82 82 83 86 84 84 87 83 88 83 83 85 87 82 81 79 70 70 67 63 66 62 64 67 63 67 73 81 79 76 75 79 75 74 70 72 85 108 116 115 114 113 115 114 113 111 107 104 99 96 95 97 97 98 96 96 94 92 92 93 90 88 86 83 87 88 88 85 78 78 
76 76 77 76 78 80 81 82 82 81 78 80 84 83 82 83 82 84 82 83 84 85 86 82 83 75 73 73 67 62 66 62 63 64 62 66 77 76 81 77 76 76 78 76 70 74 84 96 90 103 101 101 106 108 111 109 104 101 101 96 93 92 92 94 91 91 89 87 88 89 85 87 83 83 81 80 80 76 77 71 
73 72 78 77 80 80 81 80 77 76 79 78 77 79 81 81 81 84 83 85 83 86 84 84 79 71 70 67 65 64 60 59 58 62 58 66 75 78 75 79 77 78 75 72 71 70 81 88 78 79 76 78 86 94 95 100 106 102 102 92 94 89 88 92 88 90 86 85 84 83 84 81 82 79 74 76 77 69 69 73 
71 71 73 79 77 77 79 79 78 80 78 79 81 78 83 82 81 81 80 84 84 82 84 78 80 67 66 65 63 60 60 55 59 59 58 66 72 76 79 78 72 76 75 72 68 66 77 82 70 62 68 65 72 75 78 86 99 99 94 92 90 82 85 88 86 83 81 79 82 80 80 73 74 72 70 71 72 66 69 63 
65 68 72 78 81 79 79 80 76 76 80 78 79 78 82 81 82 85 82 83 80 82 78 79 80 69 65 63 61 59 59 57 57 61 60 68 73 76 76 79 73 75 72 69 68 69 75 77 67 57 62 60 63 80 90 97 96 99 91 88 86 84 85 83 80 78 77 76 74 75 72 70 73 70 66 66 64 62 60 62 
64 65 69 72 77 80 77 77 77 76 77 78 81 82 81 75 80 80 79 85 81 79 78 79 81 76 65 63 57 59 55 51 52 56 62 69 70 75 76 78 72 71 71 70 67 68 72 67 57 46 52 53 56 75 86 95 92 94 87 84 79 78 82 76 76 75 72 73 71 68 69 66 65 66 59 64 62 61 56 54 
66 62 74 75 79 80 78 76 74 73 76 79 77 78 78 80 83 82 80 83 79 80 78 77 80 77 71 65 63 60 53 55 55 61 67 72 72 75 76 75 72 69 71 68 67 67 67 61 51 42 43 43 48 62 84 89 89 88 84 78 74 75 78 75 72 74 69 70 66 65 67 67 61 60 56 55 56 54 52 51 
65 66 71 75 77 75 79 78 75 75 76 76 77 77 79 78 80 82 82 80 78 77 75 78 78 80 76 69 64 59 56 63 68 73 72 73 72 78 76 73 70 70 70 70 66 65 64 58 45 35 35 31 37 51 77 86 86 84 80 77 77 77 74 70 70 69 68 64 67 66 63 61 61 58 53 53 50 47 49 47 
67 67 73 75 75 76 76 76 75 74 77 76 75 77 81 80 79 81 81 81 79 79 81 76 80 81 80 78 73 75 75 76 77 76 77 76 74 75 75 72 69 72 70 68 64 64 60 54 40 31 29 25 31 42 65 77 79 80 75 76 71 72 71 70 68 63 64 66 63 64 59 59 61 56 49 47 48 42 42 47 
69 64 69 75 76 73 77 76 71 75 74 75 75 77 79 78 76 80 77 80 77 76 79 78 80 78 79 76 75 75 79 81 80 82 77 77 73 73 73 70 68 69 70 68 64 61 57 50 38 26 26 19 21 28 36 46 65 76 76 75 72 74 69 66 65 61 63 58 60 61 60 55 59 55 49 46 44 41 42 47 
66 61 70 72 77 72 78 76 74 72 75 73 75 81 75 78 79 79 78 77 79 79 79 76 76 78 77 77 77 75 79 78 81 82 77 77 73 73 73 68 69 71 66 67 64 59 56 42 35 24 22 19 14 16 26 28 45 66 72 70 69 67 66 66 62 57 56 54 53 56 54 54 52 48 44 44 41 43 39 41 
68 62 72 73 75 74 73 74 70 72 71 73 74 75 76 79 81 77 76 78 77 79 77 73 79 78 78 77 77 77 80 79 77 81 78 78 74 72 71 69 71 69 68 65 64 62 44 35 36 30 30 19 11 10 21 19 29 55 65 63 66 66 62 59 58 51 52 56 50 53 54 54 52 45 46 42 42 38 36 36 
64 61 63 72 73 73 74 73 72 72 74 72 74 73 74 75 78 76 75 75 72 76 76 78 79 78 78 74 77 76 80 77 77 84 77 77 70 71 67 68 67 67 67 63 63 59 39 25 31 28 26 15 7 11 15 17 24 41 57 61 62 62 61 58 51 51 48 54 52 53 49 53 48 45 38 41 45 37 33 31 
60 59 67 73 74 75 71 76 71 73 73 70 73 75 79 78 78 76 74 73 73 78 75 76 75 75 74 75 77 78 81 78 79 81 76 74 72 72 67 69 67 66 67 64 64 58 34 28 39 29 19 9 8 7 11 13 16 26 49 58 59 61 56 54 51 47 48 48 48 50 50 48 45 42 37 38 40 34 31 32 
58 57 66 71 70 74 73 72 71 70 73 70 72 74 74 77 78 77 76 76 77 75 76 76 75 73 73 76 77 80 77 78 80 80 78 71 72 71 71 69 66 69 66 67 64 59 35 27 38 33 22 9 8 5 8 10 9 14 38 52 56 53 55 52 47 50 46 47 49 47 47 46 42 38 36 37 37 34 30 28 
57 55 66 70 71 73 74 75 72 69 70 69 68 71 73 76 75 75 75 75 75 77 76 73 71 76 76 79 74 77 78 77 80 76 74 74 69 67 71 68 68 68 66 66 65 57 34 25 39 37 21 11 4 3 4 6 5 8 24 46 49 51 51 51 42 44 46 47 48 44 44 41 40 36 34 32 34 31 29 22 
52 55 69 68 72 71 73 73 71 69 69 67 69 70 73 76 71 73 76 75 76 73 76 74 74 75 72 74 74 75 77 77 77 73 72 69 68 69 70 68 63 68 66 67 65 52 32 24 33 32 24 13 4 4 6 4 4 5 15 36 47 50 48 44 40 44 43 41 43 43 41 39 36 36 31 33 32 25 25 18 
48 53 59 71 70 71 70 73 74 70 72 71 69 72 74 75 74 75 76 78 72 72 76 71 76 73 74 72 72 73 76 75 75 77 71 71 70 69 71 68 68 68 67 66 64 54 30 23 33 30 21 12 7 2 1 1 2 5 9 27 42 46 46 44 41 41 40 42 38 39 40 35 33 32 32 31 33 25 21 21 
55 53 65 67 71 71 70 69 71 71 71 69 69 74 71 72 73 76 75 73 74 74 74 72 71 71 72 69 72 72 76 75 74 74 73 73 71 70 68 68 65 64 66 64 61 49 28 22 29 27 28 15 8 6 3 3 2 3 4 15 36 42 42 39 42 38 35 37 33 33 34 33 30 28 25 28 31 25 20 20 
51 52 64 68 70 68 68 69 67 68 69 70 71 72 73 74 72 75 75 73 70 72 72 70 73 71 72 70 71 70 71 70 71 75 70 71 67 66 65 67 64 64 64 60 58 42 32 19 18 23 25 15 10 3 3 4 5 1 3 8 28 39 39 35 37 37 34 30 31 30 30 28 27 27 21 24 27 17 17 17 
48 50 66 67 68 70 67 69 65 70 69 70 69 71 70 70 69 71 74 73 66 67 66 65 70 66 65 68 66 67 70 69 68 72 70 69 66 64 65 69 66 66 64 60 55 42 28 22 17 21 20 13 9 4 6 3 4 3 2 4 15 34 34 35 35 32 33 31 25 26 25 28 24 24 21 23 23 21 16 16 
51 50 63 64 70 70 70 68 65 65 67 66 69 69 68 68 70 72 68 67 65 62 59 59 63 63 64 65 64 67 65 62 60 65 60 65 65 62 65 64 61 63 62 60 57 38 32 21 15 11 12 10 9 9 7 6 3 5 5 7 11 26 33 31 31 32 32 30 28 26 27 24 22 20 26 22 20 20 15 16 
57 52 68 69 64 71 68 68 65 66 64 67 65 67 69 70 68 70 67 64 60 53 50 51 53 56 61 59 64 54 54 51 48 51 52 60 61 62 67 67 60 63 60 58 52 37 31 24 19 17 13 12 12 10 9 11 9 4 9 9 13 17 27 30 30 29 30 31 29 27 25 25 20 19 18 17 17 20 14 10 
58 54 66 67 68 66 69 65 64 66 65 67 64 70 68 68 69 66 57 55 50 50 52 48 51 53 52 55 55 53 54 52 51 53 50 56 60 60 65 63 58 64 60 60 52 42 39 31 25 22 25 19 19 16 16 13 11 8 8 14 11 19 26 30 30 31 31 28 27 28 26 24 24 15 16 16 19 15 11 9 
58 58 67 68 69 71 66 66 64 64 67 65 65 69 68 68 66 57 54 51 50 51 54 50 50 51 50 50 55 58 57 58 56 62 56 56 59 62 61 61 60 58 56 59 49 42 41 39 32 27 24 21 21 18 19 19 17 17 12 16 21 24 25 32 31 36 33 30 25 29 25 21 23 18 17 15 21 10 10 10 
62 58 66 70 71 67 69 65 64 61 64 62 69 71 66 65 65 57 48 46 51 52 49 50 54 54 52 53 55 57 60 61 58 58 58 54 58 61 64 60 58 64 59 60 48 40 43 43 36 33 26 25 25 20 20 22 20 17 14 18 20 30 25 29 33 31 33 28 21 25 26 24 16 17 16 15 15 10 7 8 
59 60 70 70 69 68 63 65 63 62 65 63 69 70 65 63 59 55 45 46 49 52 53 50 53 53 52 52 56 54 54 54 59 60 55 55 60 55 58 64 60 62 56 57 49 41 42 43 35 33 26 28 27 24 27 25 19 19 18 23 26 25 26 31 29 29 33 29 25 23 26 23 19 19 14 18 10 7 3 5 
63 63 72 70 74 69 67 67 62 65 65 65 64 68 65 60 56 53 48 50 48 51 53 52 50 55 53 53 54 54 57 57 57 56 56 56 59 63 61 64 60 64 61 58 52 41 44 43 36 31 32 28 28 23 28 23 23 21 21 25 29 29 29 28 30 30 27 24 24 25 24 22 17 17 15 11 13 6 3 7 
68 64 72 74 74 70 67 69 66 65 64 64 64 67 66 63 54 52 52 50 54 53 53 50 53 56 54 53 54 56 56 60 62 62 60 63 66 66 63 66 64 64 58 59 52 42 43 41 38 32 32 29 29 30 28 26 23 22 26 27 29 29 29 27 29 28 27 25 20 20 21 19 16 13 11 12 11 9 1 0 
73 62 72 70 75 73 68 69 68 65 66 65 69 69 67 58 55 53 49 53 54 51 55 57 52 55 50 54 53 56 56 61 56 61 62 67 67 72 73 63 62 59 61 59 51 43 44 39 38 32 33 29 30 27 27 26 21 22 26 30 32 30 30 24 27 30 26 25 19 21 18 12 9 11 11 13 11 7 0 2 


