P2
80 60
381
98 93 101 98 96 95 97 95 95 97 97 97 95 97 92 91 92 90 93 94 96 94 91 92 89 87 85 86 86 80 78 73 73 72 73 70 73 76 77 75 76 76 75 78 74 80 82 85 82 83 86 85 87 81 91 92 88 92 91 90 96 91 95 93 88 94 98 97 96 96 96 97 88 77 77 78 73 70 78 75 
102 98 96 99 99 96 95 95 98 93 93 94 93 98 97 96 95 91 91 95 93 94 98 98 95 91 86 89 87 82 81 79 82 81 78 78 77 79 80 79 75 79 77 79 78 79 83 84 83 85 83 83 86 85 92 92 92 90 93 95 95 97 97 98 92 95 96 96 97 98 97 94 84 78 75 75 77 72 76 74 
99 97 93 98 98 98 97 99 96 96 96 97 96 97 95 96 96 94 96 94 95 93 95 94 93 91 88 93 88 87 84 87 82 82 80 83 80 80 77 76 74 77 76 78 80 82 81 86 85 84 86 84 86 85 89 89 91 89 91 92 89 91 97 96 84 86 94 95 100 95 97 92 87 81 83 80 78 76 76 77 
99 100 99 94 97 94 96 94 97 96 98 97 96 93 94 96 93 92 97 95 97 94 94 93 97 89 90 90 90 86 85 84 80 79 79 81 77 79 82 76 79 83 81 82 78 79 82 88 86 83 85 84 84 88 90 91 93 87 94 90 92 91 94 95 83 91 94 94 95 95 96 91 86 82 85 85 84 75 82 78 
101 100 97 93 96 98 97 97 94 96 96 97 97 95 96 96 98 97 96 97 95 96 95 93 96 93 93 94 88 85 85 86 83 81 80 78 74 78 77 78 78 78 79 81 82 82 82 83 86 88 84 84 85 88 90 92 91 92 94 93 92 90 95 93 83 89 90 97 94 96 94 90 86 88 90 84 81 78 83 81 
103 100 100 95 97 97 98 99 99 97 97 96 99 98 97 99 98 97 95 95 98 97 101 99 98 95 94 93 92 89 88 87 86 82 80 81 76 79 78 79 79 81 78 82 80 82 83 86 87 89 84 89 86 86 92 90 90 96 96 96 94 91 94 93 86 91 93 95 94 96 96 92 88 85 90 85 85 80 85 85 
101 98 99 97 99 96 98 95 98 99 97 96 97 95 96 96 95 98 101 95 95 96 97 99 97 93 97 94 91 87 89 87 86 84 79 78 77 76 77 77 78 79 75 79 80 80 82 85 86 87 90 87 85 86 86 88 90 90 89 89 88 87 91 90 86 86 92 94 91 95 92 92 88 87 90 89 86 83 86 80 
101 99 101 100 93 91 95 92 96 95 97 96 96 96 95 96 94 94 95 98 96 97 96 96 93 91 95 94 91 89 89 89 87 85 80 78 77 73 76 73 76 79 78 82 81 82 85 83 84 85 84 84 85 88 86 87 86 88 87 84 83 84 86 88 74 84 86 91 87 93 89 92 86 88 95 92 86 87 89 86 
102 97 99 100 95 95 94 94 96 95 98 97 96 97 97 95 96 95 97 97 98 98 91 90 93 92 95 92 90 91 91 88 87 81 83 79 76 79 76 75 77 77 77 78 81 80 84 84 85 82 86 89 84 84 89 83 87 87 86 85 85 84 88 85 77 85 86 88 84 85 89 90 89 92 94 94 89 91 88 90 
102 99 100 101 98 95 93 94 96 98 100 100 98 94 98 94 97 100 100 96 100 97 96 94 96 91 92 93 88 89 86 88 89 81 81 79 77 78 75 72 74 76 80 81 79 83 86 83 88 87 87 87 90 87 89 87 88 86 88 88 83 84 87 88 80 84 83 86 82 84 88 90 88 96 95 95 95 89 92 93 
102 97 101 99 95 98 96 96 96 95 96 101 97 97 97 99 94 95 98 96 102 98 94 96 92 93 92 90 86 89 86 85 85 79 77 80 74 78 76 74 74 79 77 76 79 81 85 86 87 90 86 84 88 87 88 87 86 86 86 81 82 85 87 87 79 80 84 85 82 86 88 89 91 100 104 100 100 94 96 95 
102 98 100 98 99 93 97 95 98 98 95 104 96 93 100 97 96 97 93 98 99 96 94 93 95 91 93 90 89 85 87 85 80 80 79 78 74 78 79 76 77 76 79 80 78 77 86 83 85 83 85 88 84 85 88 88 90 84 87 83 81 86 90 84 75 86 84 83 84 85 91 88 88 97 99 106 99 101 97 93 
97 96 98 97 97 96 94 95 96 97 97 95 95 93 94 96 95 95 96 96 96 94 94 92 97 92 88 88 91 86 87 82 82 79 77 80 76 79 77 75 76 79 74 77 74 80 80 83 83 85 81 84 84 86 87 86 90 85 83 83 81 84 85 82 73 81 81 83 83 87 87 89 88 94 98 102 100 99 102 99 
101 99 98 99 95 96 93 96 98 98 97 98 97 92 95 95 93 98 94 98 95 94 95 95 97 89 91 88 86 90 82 83 81 78 78 76 78 77 76 75 74 75 77 77 73 79 80 79 81 81 82 79 84 89 89 85 88 83 85 80 81 80 81 82 68 82 80 79 79 84 85 89 87 92 98 101 101 100 102 99 
100 102 97 98 96 97 94 97 97 97 101 101 98 93 96 95 98 96 98 97 96 99 97 92 91 88 89 87 83 86 85 82 77 75 77 78 78 77 75 75 74 76 75 77 75 77 83 85 82 83 84 81 81 85 89 86 87 84 86 81 76 81 83 79 66 76 78 81 83 83 86 86 89 89 96 100 102 100 100 98 
100 100 102 98 94 96 96 97 97 97 98 96 97 96 98 96 94 98 99 100 98 94 96 95 95 87 87 87 84 85 82 84 80 78 76 76 73 75 72 73 76 75 74 73 76 77 80 83 82 82 81 81 77 84 87 84 84 85 85 83 82 82 84 84 67 77 80 81 79 81 81 88 88 95 98 99 102 103 100 96 
101 103 99 98 95 98 96 97 98 97 96 97 93 97 96 95 92 97 97 96 96 94 94 96 94 87 85 87 86 80 82 81 81 76 78 78 73 78 74 75 74 77 78 76 71 76 78 83 81 82 80 82 77 79 82 80 84 83 83 81 77 79 83 79 63 76 76 78 78 82 83 89 88 94 98 100 101 100 98 95 
100 102 98 102 96 97 96 94 99 96 97 93 92 90 95 94 94 92 96 97 96 96 92 93 93 91 85 88 86 83 80 81 78 78 81 77 72 76 75 72 75 76 75 72 73 75 78 79 78 77 73 75 77 77 82 78 77 81 83 80 76 80 79 78 60 73 75 73 76 80 85 83 86 95 94 100 100 96 101 98 
100 98 95 99 99 97 97 96 98 95 95 98 96 94 97 95 92 96 96 94 94 95 91 93 92 88 90 88 87 80 82 83 83 82 82 76 76 77 73 74 73 77 74 76 73 77 76 78 77 77 75 74 75 73 77 77 75 79 80 76 75 76 78 75 58 77 73 77 76 79 81 85 85 92 96 95 97 96 97 99 
99 96 97 98 94 94 96 95 97 95 98 101 97 91 96 94 90 94 92 93 93 93 92 92 91 89 88 85 87 84 85 83 88 87 87 81 81 79 78 78 75 78 74 73 74 75 78 81 78 74 77 76 72 72 79 77 77 77 71 76 76 79 81 75 62 74 76 75 77 78 81 83 86 90 97 99 97 100 101 98 
95 97 96 98 98 93 96 96 97 94 95 96 93 92 94 94 92 92 96 94 93 94 92 92 89 85 89 84 86 84 87 93 98 102 103 101 94 90 82 81 75 76 74 74 72 71 77 75 80 77 75 76 72 73 76 75 74 74 74 72 72 72 79 76 63 75 76 74 74 81 82 82 86 89 97 95 94 98 99 99 
98 99 96 98 92 94 91 94 97 95 94 97 93 94 92 91 91 91 92 91 93 90 92 88 89 86 89 86 88 92 109 146 204 244 263 230 186 151 117 96 84 76 73 74 71 76 74 74 75 73 72 72 71 72 74 71 71 72 73 71 72 72 77 74 65 75 76 75 74 78 79 82 83 89 97 97 93 97 98 97 
99 95 99 93 94 94 95 94 94 93 95 95 96 93 91 89 87 91 92 93 90 92 89 92 84 83 85 91 99 134 229 346 381 377 371 332 254 219 195 161 121 90 76 74 66 71 73 73 75 74 73 73 74 70 72 73 72 71 71 70 68 70 76 74 67 76 73 73 75 75 78 84 81 87 94 92 93 94 96 93 
99 95 96 93 92 92 98 98 93 94 94 98 93 91 88 90 89 88 90 91 90 90 90 86 87 84 90 108 168 226 287 357 348 330 345 347 277 225 213 190 172 147 101 79 68 68 68 74 74 76 70 70 73 69 72 72 73 71 72 69 66 71 73 69 66 75 74 74 70 76 76 75 76 88 91 89 94 92 95 89 
95 97 95 96 99 96 91 97 91 95 94 97 94 91 93 92 90 90 89 91 89 88 85 82 89 87 105 174 219 221 242 244 252 272 300 318 265 218 200 203 191 173 153 106 73 71 67 72 72 72 72 72 72 72 70 71 71 68 69 68 65 67 71 69 67 72 76 78 71 74 73 78 82 85 92 93 86 93 94 86 
95 96 95 96 96 93 95 95 97 95 97 95 97 87 91 91 91 91 91 91 88 90 89 86 84 92 133 162 155 163 182 169 171 199 245 275 255 205 190 201 210 196 176 153 100 72 72 72 68 70 70 71 71 73 72 70 69 69 68 69 67 67 73 69 65 70 74 71 70 74 73 74 79 86 89 90 89 89 91 84 
96 97 94 93 94 95 93 95 96 93 95 96 94 91 91 92 89 89 90 91 87 84 85 87 91 109 130 133 144 152 150 169 172 157 198 253 247 199 184 189 206 209 183 162 143 88 72 71 68 70 68 68 72 70 68 68 70 67 65 68 67 65 68 63 62 69 72 70 72 72 75 74 75 86 88 92 86 81 92 84 
96 93 93 92 92 90 93 95 94 94 97 95 92 91 91 93 87 91 90 83 88 85 87 87 96 117 122 134 141 160 162 164 172 160 181 240 241 200 178 183 212 196 178 165 149 110 73 71 65 68 70 68 67 68 66 68 65 65 63 65 64 67 67 66 64 71 72 69 71 73 72 72 76 78 81 84 83 83 82 81 
94 93 90 90 92 92 90 95 94 93 93 93 92 90 89 90 86 88 86 86 86 87 83 85 100 110 119 127 132 141 152 156 164 175 178 225 239 200 169 181 204 201 180 163 157 136 78 72 68 66 69 70 66 68 69 68 65 67 66 67 67 67 66 67 70 74 74 71 68 69 71 71 77 79 79 86 81 80 83 79 
93 87 90 91 92 94 94 97 92 93 92 93 94 90 90 91 86 86 89 88 90 86 84 89 100 111 112 116 125 129 137 141 144 163 181 228 251 219 178 172 195 201 188 172 164 148 81 68 69 68 69 69 69 68 70 70 65 66 65 67 68 68 67 66 66 73 73 72 68 68 69 69 74 78 84 81 85 77 80 75 
93 91 91 92 93 92 92 95 95 93 92 95 90 85 87 85 87 86 82 86 88 85 85 88 102 114 110 114 119 122 126 132 136 151 177 206 259 246 187 162 175 197 200 191 178 160 85 68 66 68 61 68 66 66 67 66 68 67 66 63 67 67 66 65 68 72 72 70 70 73 67 67 74 77 78 82 80 78 74 70 
89 90 92 93 95 93 96 99 93 95 91 93 90 85 86 87 85 87 88 86 85 85 86 90 111 115 110 111 110 111 118 122 130 148 185 179 234 269 205 167 164 177 193 208 200 178 92 66 68 68 66 65 67 66 68 65 65 64 69 64 63 67 67 59 72 72 71 69 65 69 73 67 75 75 76 73 76 75 70 69 
88 89 91 89 91 94 93 94 93 93 93 89 87 84 85 86 85 86 85 86 83 82 84 90 108 115 113 108 112 110 109 114 124 152 249 212 201 267 228 184 168 167 180 202 212 181 85 69 68 67 67 65 65 67 73 68 67 65 68 63 66 66 68 58 67 71 67 66 66 68 67 70 72 69 70 70 70 67 67 64 
88 87 90 90 92 93 93 93 92 90 92 91 90 87 88 89 83 87 84 86 86 85 88 91 103 117 115 111 113 111 107 116 123 196 337 251 187 245 243 208 181 172 177 193 213 158 78 68 67 66 64 67 65 75 74 69 64 64 66 65 63 68 65 62 66 68 69 66 63 67 68 66 69 66 65 66 66 66 65 60 
85 89 90 91 92 91 95 92 92 94 96 93 88 91 89 88 86 85 86 87 85 83 86 86 102 115 120 115 114 109 111 111 148 262 272 194 167 198 231 225 209 184 182 189 197 112 73 70 71 69 66 65 65 68 67 66 66 67 65 65 65 71 64 63 70 71 69 67 65 68 67 64 70 66 61 61 61 58 65 59 
88 90 90 89 91 91 95 94 92 92 91 92 90 88 89 88 83 87 84 88 86 84 83 86 91 109 118 118 117 111 113 112 131 158 159 157 158 174 218 223 225 208 195 206 166 88 71 67 70 67 65 65 64 64 68 63 62 63 67 66 65 69 62 61 70 72 68 64 64 67 63 61 64 58 56 57 53 56 56 54 
93 89 89 92 94 91 94 91 92 91 93 90 87 88 89 84 84 86 86 87 86 85 85 84 84 102 113 119 122 118 118 115 117 124 132 136 149 161 214 243 232 234 212 195 105 75 69 66 70 68 66 71 68 67 71 65 66 64 67 64 64 67 65 66 69 72 69 66 65 63 62 60 64 53 47 56 54 51 55 49 
92 90 90 90 91 93 94 91 91 90 91 91 89 86 87 88 86 88 86 84 87 82 81 81 78 86 104 119 118 123 119 118 116 121 133 140 167 178 205 256 227 245 217 124 75 67 67 65 68 68 67 65 67 66 66 67 65 62 65 65 65 68 59 63 71 70 65 63 63 62 60 63 62 48 47 49 50 44 49 48 
90 88 89 89 89 90 90 88 92 88 91 91 90 87 87 87 85 86 87 85 83 83 84 77 78 83 86 102 112 119 117 114 107 115 127 152 193 200 207 284 223 167 103 75 65 66 64 68 70 69 65 67 66 64 68 61 62 63 64 61 62 65 66 61 70 68 65 63 62 66 62 62 59 46 42 46 48 41 40 43 
91 89 90 90 91 91 93 87 89 88 89 89 87 86 89 86 88 84 86 84 84 81 80 77 80 78 79 83 92 105 112 108 103 110 124 143 198 175 186 198 108 81 69 66 63 66 66 67 68 74 68 66 64 65 64 62 62 61 67 62 63 65 58 59 67 66 63 59 64 64 62 62 61 45 42 44 46 40 43 34 
91 88 87 89 87 91 90 94 90 86 89 89 90 83 86 85 84 87 85 84 82 83 80 79 79 77 81 78 80 80 81 86 90 92 96 101 106 93 86 77 70 65 60 63 64 66 67 67 67 69 71 67 66 68 67 66 66 61 64 61 62 67 61 62 69 65 64 60 63 63 62 60 59 43 41 41 42 37 38 35 
93 89 88 89 88 90 89 89 89 89 89 88 87 82 84 83 85 83 88 84 84 81 81 83 79 80 77 79 77 72 72 73 72 71 70 71 68 69 68 65 63 65 63 66 65 67 71 71 67 68 66 65 65 66 68 64 66 64 63 64 63 66 60 62 70 63 63 61 63 63 60 59 59 43 37 39 42 33 39 32 
91 89 90 93 88 90 89 88 88 85 89 85 85 88 87 85 84 83 83 81 81 80 79 81 80 78 75 75 74 68 69 70 70 67 64 66 60 62 64 59 65 64 62 66 69 71 69 73 73 67 66 69 69 68 64 63 66 64 66 61 65 68 53 63 65 65 67 64 63 58 58 60 56 40 34 37 39 36 32 31 
89 89 91 89 89 91 90 87 87 86 89 88 83 84 88 86 85 83 83 82 83 82 80 82 83 77 78 78 68 66 67 69 68 64 64 65 60 61 57 61 61 61 65 65 67 72 70 71 68 69 71 69 69 66 66 65 64 69 66 61 67 66 53 63 71 65 64 63 61 61 56 60 52 39 31 35 33 29 35 29 
89 89 91 91 89 89 88 86 88 88 88 86 86 82 89 83 84 83 84 86 87 79 79 82 75 78 77 75 70 66 68 66 66 65 64 64 59 59 59 62 63 64 64 66 67 69 75 74 66 70 67 72 69 67 69 67 70 70 66 62 64 65 58 65 68 63 62 61 57 60 57 58 55 35 33 35 31 23 30 26 
91 94 89 92 88 93 89 87 89 87 85 85 83 87 83 83 82 83 85 86 85 83 77 74 78 76 77 74 71 67 70 68 68 66 62 61 58 57 58 59 62 64 66 66 68 69 74 72 68 65 68 71 68 72 68 69 71 70 67 63 63 62 59 66 69 65 62 62 61 59 58 60 53 36 35 32 26 20 25 19 
90 88 92 89 92 90 86 89 88 85 86 86 85 82 82 83 82 82 84 86 86 83 79 79 77 77 76 75 72 66 71 68 69 64 63 58 58 58 59 61 59 63 65 70 70 73 70 71 68 67 67 71 72 74 65 67 69 70 68 63 61 61 56 65 66 62 62 63 60 59 59 59 49 34 33 27 22 17 18 18 
90 89 90 84 90 91 88 88 88 85 89 86 84 84 82 79 82 84 87 85 84 83 81 81 81 75 75 71 73 71 64 70 67 64 64 62 57 58 61 58 59 65 64 68 68 70 68 69 67 67 68 69 65 67 69 68 68 70 67 64 65 61 56 65 66 64 61 62 61 61 57 56 47 31 26 26 22 15 17 22 
92 86 92 89 90 89 88 88 86 88 86 85 81 81 81 84 82 84 84 88 81 83 84 79 82 74 75 75 73 70 68 65 63 64 60 63 60 60 56 61 62 62 61 67 71 72 72 71 69 69 67 67 68 70 72 67 70 68 69 69 63 61 58 65 65 59 60 62 59 62 57 54 45 30 24 26 20 10 19 18 
91 88 92 87 89 90 93 89 89 87 87 84 83 82 82 82 83 83 84 85 81 79 83 80 81 78 74 75 74 71 73 67 65 63 61 64 60 57 61 61 62 66 62 66 64 69 68 71 71 68 66 68 70 71 73 70 68 70 67 72 68 62 59 67 66 61 60 62 64 62 55 57 43 25 25 22 19 8 14 10 
94 88 91 89 86 86 88 87 86 83 85 85 84 81 80 81 79 86 84 82 84 82 81 81 79 76 74 74 75 69 66 69 64 63 57 60 60 59 59 59 62 62 62 63 68 70 71 74 68 71 69 70 72 70 69 71 73 71 67 69 71 62 61 66 66 63 63 60 60 63 56 55 44 30 19 19 19 10 11 6 
94 88 88 91 90 87 88 87 84 83 85 86 81 81 80 82 81 83 83 84 84 79 83 78 80 78 77 76 74 70 70 67 70 68 63 60 59 59 63 62 61 61 63 65 63 68 69 72 70 70 71 71 71 71 68 71 74 71 68 75 72 64 63 68 63 64 66 62 61 63 59 53 41 27 23 19 16 8 11 5 
93 88 91 90 87 88 85 84 85 83 85 85 83 80 81 80 76 83 84 84 83 81 85 82 80 79 77 76 73 68 71 69 71 69 67 63 60 56 61 57 65 61 64 68 68 69 71 68 69 72 71 73 71 69 70 67 69 70 70 71 74 67 65 65 65 65 64 62 62 61 58 52 39 24 19 15 14 8 11 9 
96 89 87 89 88 87 87 84 87 81 84 84 81 78 80 80 80 82 84 86 83 80 81 80 79 77 80 78 72 70 71 73 70 69 64 63 59 58 59 59 62 62 63 66 70 66 67 67 69 70 71 71 69 68 69 67 66 70 68 69 75 65 64 66 65 63 62 60 60 60 57 54 41 24 21 12 10 6 10 5 
94 89 87 90 81 84 86 84 82 84 82 83 85 79 79 78 81 83 86 81 81 81 80 79 80 78 76 77 74 72 70 69 70 69 66 63 60 58 58 55 59 62 61 63 64 67 65 67 67 71 72 67 66 68 68 64 65 65 70 76 70 62 65 67 65 63 63 61 59 61 58 55 41 23 22 15 7 3 8 9 
94 87 85 87 85 87 86 86 85 80 84 84 83 79 85 82 79 81 84 84 82 81 80 81 80 77 75 74 73 69 72 68 70 68 66 64 59 57 58 59 58 59 64 68 63 65 65 65 67 70 70 70 67 69 71 65 70 65 67 67 69 62 65 71 67 67 63 63 59 57 58 55 38 23 15 9 7 5 8 6 
98 89 95 91 90 89 86 88 82 81 83 83 82 79 87 82 81 81 83 82 81 80 81 80 80 79 75 76 71 69 72 67 68 67 67 66 63 59 59 56 60 63 61 67 68 65 66 66 68 70 71 72 69 69 67 64 73 68 68 69 68 64 68 72 67 67 63 65 64 58 57 54 36 16 14 9 9 1 6 3 
104 95 93 91 92 89 90 85 86 83 81 83 80 79 81 81 78 81 82 82 80 83 77 82 78 77 73 74 76 72 67 69 68 68 66 64 64 57 60 57 62 61 65 65 65 67 71 69 72 71 71 70 71 73 74 71 71 70 67 66 66 65 70 73 69 64 64 61 63 60 58 56 40 19 13 10 6 0 5 2 
100 97 93 90 93 91 88 87 86 82 82 83 84 80 82 80 77 81 84 85 85 82 83 82 83 78 77 76 74 71 69 70 68 66 67 63 62 65 63 61 63 65 64 63 67 68 69 69 70 79 74 73 73 73 74 72 70 75 71 70 70 61 71 77 68 68 65 65 60 60 64 54 35 19 13 10 7 4 7 7 
108 97 91 92 91 94 93 91 94 88 90 86 91 87 86 84 88 85 89 88 89 89 86 83 89 79 80 81 79 75 72 73 67 70 68 66 63 65 65 62 64 64 63 62 63 67 76 73 78 74 75 75 76 75 76 73 74 73 73 67 67 55 71 75 71 65 68 67 64 61 56 50 31 21 17 15 9 5 4 6 


