P2
80 60
169
152 158 158 159 159 157 156 158 160 161 161 160 164 165 158 161 157 165 164 162 159 153 152 151 151 149 147 148 142 146 145 139 137 143 138 136 132 131 131 134 133 129 128 128 129 129 131 131 127 123 126 129 129 127 129 132 134 134 134 127 124 129 122 122 117 117 117 116 114 113 114 110 114 113 106 109 103 102 99 107 
152 154 156 157 155 155 157 157 162 159 163 161 161 163 160 156 163 161 165 161 158 154 151 151 154 149 149 148 145 146 141 140 141 144 142 141 135 132 128 133 133 129 132 134 131 131 132 134 127 122 124 131 127 127 130 130 131 129 131 133 125 122 123 120 118 118 119 119 116 115 114 113 111 115 108 111 104 107 100 104 
154 153 153 161 159 155 157 157 163 162 164 161 161 161 162 161 162 162 160 162 158 154 152 151 153 149 152 148 144 148 149 146 145 147 147 142 137 142 137 136 139 139 140 141 143 143 144 140 135 129 131 132 132 130 131 135 132 131 133 133 128 125 120 123 118 119 122 122 118 116 115 111 115 111 110 112 110 109 105 105 
155 156 155 161 161 158 161 159 163 166 162 163 162 165 161 165 162 164 161 162 158 154 153 153 152 150 150 146 149 147 149 145 147 145 149 144 143 143 136 140 142 141 142 146 144 144 144 142 136 134 134 138 137 132 136 131 132 134 131 131 128 123 127 126 124 121 122 124 121 120 117 113 111 115 110 109 109 113 107 114 
156 156 160 159 161 158 159 162 168 165 164 164 162 163 161 157 163 167 163 161 158 151 154 155 153 151 147 148 150 147 148 148 144 144 148 144 143 144 139 141 139 141 140 144 143 142 142 143 143 139 142 146 138 135 137 137 137 136 136 133 133 128 126 128 125 123 123 126 122 123 121 112 117 113 114 114 110 111 111 110 
153 156 160 157 157 155 158 162 166 166 168 163 161 165 161 162 161 162 164 160 157 151 152 151 154 152 150 147 148 148 152 146 145 147 149 141 140 140 138 139 140 138 144 144 143 143 146 145 146 141 145 145 145 138 140 137 136 137 135 137 134 133 126 131 126 128 127 128 126 124 121 116 112 121 116 119 111 112 110 103 
151 156 156 156 157 152 159 163 162 166 168 164 163 163 166 162 163 167 164 161 160 154 155 153 153 152 151 148 149 149 150 148 149 147 148 140 143 140 138 138 138 142 141 144 145 145 144 145 144 149 150 151 148 142 140 143 139 140 138 139 137 133 133 133 132 131 131 133 129 123 124 118 120 122 121 118 113 112 107 111 
156 157 159 158 158 155 157 162 164 161 164 163 164 163 164 161 161 164 163 162 158 156 154 153 151 153 152 153 148 151 153 145 147 145 148 148 140 140 133 138 139 139 139 141 148 144 144 146 143 150 155 154 149 144 147 145 144 141 139 139 135 135 131 133 132 133 133 134 128 123 124 121 125 124 121 124 117 113 110 115 
156 156 153 155 160 159 158 161 162 165 169 166 165 167 169 164 167 167 165 163 157 153 155 156 152 154 154 148 149 147 151 148 147 146 145 142 144 136 135 135 140 141 142 144 147 143 144 144 143 147 154 156 151 148 147 145 143 146 145 142 142 139 135 138 136 133 136 138 133 124 126 124 127 126 125 122 117 113 112 110 
154 156 153 156 158 160 161 158 161 167 165 164 162 165 165 165 163 163 163 162 158 155 152 151 153 151 150 150 144 147 149 148 143 146 146 144 138 136 133 138 137 138 139 145 139 141 143 147 144 149 151 156 150 148 144 142 141 142 141 140 136 138 133 134 130 134 134 137 130 131 130 124 130 129 125 122 119 118 114 111 
154 153 153 154 158 153 158 161 166 162 165 164 165 163 167 165 165 162 164 163 157 155 151 152 149 151 149 148 146 147 149 145 143 144 146 143 138 140 135 137 136 138 138 139 143 141 141 143 145 146 149 155 150 145 143 140 142 136 138 133 134 134 134 129 133 134 130 137 131 131 132 129 130 130 127 130 122 121 117 114 
153 153 158 154 157 153 157 162 163 165 164 164 161 163 163 163 161 163 160 163 156 152 150 148 150 146 144 144 144 148 146 144 140 140 144 144 139 138 137 135 135 136 139 142 139 141 144 143 142 147 148 149 147 146 145 143 141 140 137 131 131 129 131 128 132 133 128 133 128 127 132 130 131 130 124 127 126 121 115 117 
152 155 154 157 158 155 161 163 164 163 163 164 163 163 161 164 164 162 161 160 155 151 148 147 149 145 147 144 144 143 146 141 143 140 144 146 137 136 133 135 137 137 139 141 140 142 141 145 146 148 148 150 146 147 144 140 137 136 137 132 128 128 133 129 131 130 127 130 126 128 129 127 128 128 126 124 121 125 113 119 
149 154 155 155 156 156 167 164 163 165 167 162 166 160 163 163 160 166 164 162 160 152 147 146 150 146 143 143 140 143 144 140 140 144 145 144 137 133 133 132 136 138 138 140 140 142 142 142 147 145 147 148 146 146 143 141 139 137 135 131 130 131 129 129 129 128 127 126 127 125 128 125 126 127 124 122 123 120 119 117 
149 147 153 155 159 158 163 159 165 165 166 163 161 160 164 163 163 161 163 159 161 153 150 149 148 147 144 144 141 140 147 138 142 141 144 141 136 134 134 131 132 135 135 136 139 140 140 142 145 148 148 151 147 143 144 140 138 134 133 130 130 129 127 126 125 124 126 127 125 123 125 124 126 127 124 122 124 121 116 118 
149 146 152 151 159 157 162 163 163 161 165 165 164 162 162 160 159 159 161 158 157 152 149 144 145 145 144 142 140 144 147 142 141 141 139 136 132 134 135 135 133 131 136 137 137 137 140 142 146 148 152 148 147 142 142 139 137 133 134 129 129 124 125 126 125 126 123 129 124 125 125 123 124 126 124 122 124 124 120 124 
148 147 148 152 156 158 161 165 164 161 162 166 159 162 159 156 162 161 161 159 157 151 146 142 144 141 140 144 145 143 143 137 138 139 138 140 133 135 128 133 130 133 135 137 132 139 138 142 146 145 148 147 144 141 138 139 135 134 130 131 127 129 126 131 129 125 123 127 123 122 125 124 126 128 125 127 126 126 114 118 
143 143 144 150 153 154 163 158 163 160 158 160 161 158 157 157 159 155 159 158 152 152 147 144 145 142 142 140 141 139 140 137 137 137 139 136 134 130 125 132 131 133 135 133 132 136 136 137 143 143 143 143 140 139 137 138 137 136 133 129 126 129 127 125 126 125 124 127 120 121 122 122 130 130 125 121 120 120 117 116 
140 142 142 147 152 152 157 158 162 160 161 157 157 156 161 154 153 158 155 153 151 147 143 142 142 139 140 138 138 140 139 138 136 137 140 138 131 127 126 131 130 130 132 135 130 133 134 138 144 142 144 142 139 137 136 133 133 130 131 127 128 129 125 123 124 124 121 124 122 119 123 121 125 129 121 124 116 119 114 120 
138 139 142 143 151 150 156 156 160 156 158 162 155 151 154 153 153 149 156 153 146 142 142 142 141 138 136 136 133 136 142 134 134 138 139 138 130 128 126 128 128 132 130 134 134 134 132 138 141 142 141 140 139 133 132 134 129 127 126 122 125 122 120 122 121 122 119 119 118 119 119 118 125 122 120 119 119 120 115 113 
142 139 142 146 147 151 155 153 155 156 157 157 155 154 151 148 149 151 149 147 147 141 136 136 141 136 137 133 130 136 135 129 133 136 136 136 132 130 124 127 130 132 128 129 128 133 133 137 140 139 138 139 138 135 132 134 129 130 124 124 125 125 120 122 120 117 118 120 119 120 121 119 120 119 122 121 119 122 118 113 
139 136 137 143 147 152 157 152 154 153 155 154 154 147 152 146 144 150 146 149 141 138 137 136 137 134 129 118 118 122 127 129 129 129 132 131 127 122 121 124 123 126 130 129 126 129 127 132 138 137 143 137 133 131 132 132 129 127 126 126 124 125 118 120 117 119 117 120 115 119 121 115 120 119 119 116 117 121 114 111 
134 133 133 139 145 149 148 151 148 152 153 152 154 152 147 146 146 149 146 145 142 138 135 135 130 131 123 108 105 101 106 109 118 124 128 124 123 118 116 120 119 123 124 125 123 122 126 128 138 137 135 136 132 132 131 129 127 125 126 124 124 125 120 119 115 119 117 120 118 120 120 117 118 119 115 115 116 115 114 113 
133 131 134 138 146 145 151 152 148 147 151 147 148 145 144 146 147 145 143 141 138 133 133 131 129 125 121 109 103 103 99 98 100 104 108 118 120 115 113 116 117 118 118 117 118 122 122 126 134 135 137 135 129 128 129 129 126 122 122 121 124 125 122 121 116 115 118 120 118 120 123 116 117 119 116 117 114 116 106 110 
132 131 133 139 141 141 149 150 145 144 148 144 141 142 143 145 143 146 142 139 139 139 150 141 134 122 118 111 101 102 102 98 100 97 100 113 111 110 109 115 117 115 121 116 111 118 123 122 131 135 136 135 126 128 126 124 121 125 121 123 119 123 116 122 119 116 119 117 114 116 121 119 119 120 116 117 116 112 111 110 
130 127 129 134 141 138 144 143 145 142 142 144 139 140 141 138 144 145 136 136 133 133 169 161 133 113 114 112 112 111 108 106 104 99 98 113 111 110 109 113 113 117 117 113 114 117 116 118 127 132 133 133 124 125 126 122 118 121 120 118 122 122 120 116 117 116 117 120 121 121 122 115 119 118 112 113 114 112 111 108 
125 123 125 126 131 133 132 133 139 135 133 137 135 136 135 138 137 138 135 135 122 120 149 136 117 106 105 103 106 108 108 107 112 116 115 110 110 108 107 111 109 112 112 115 113 113 113 119 124 125 130 125 123 119 123 121 118 117 113 114 118 117 113 110 109 112 116 115 115 118 117 114 115 113 112 114 108 111 106 110 
119 120 118 119 119 115 116 114 116 117 118 115 116 117 120 121 125 127 132 128 115 107 117 108 102 102 100 99 107 98 103 100 100 102 102 102 105 100 108 107 108 108 108 110 108 111 113 117 125 119 122 123 119 118 118 121 115 112 113 111 111 110 109 110 109 111 111 112 112 116 113 112 110 109 109 110 108 105 105 104 
120 116 115 115 114 107 106 106 104 104 104 102 101 103 106 107 106 105 111 113 103 96 97 95 93 96 94 94 93 96 97 92 92 89 92 92 88 102 107 107 112 110 108 107 105 108 110 115 120 118 121 120 113 116 117 115 109 107 108 103 104 109 107 109 109 107 107 109 110 107 112 108 110 107 106 109 102 108 104 104 
116 113 109 115 110 102 100 96 98 95 99 97 96 97 94 96 94 97 96 95 91 88 92 89 92 90 92 92 89 93 90 89 89 88 86 87 84 96 108 109 107 106 107 113 108 105 106 114 117 115 115 116 113 115 119 116 106 106 108 104 104 107 108 108 107 105 106 108 107 104 109 105 106 109 105 106 103 107 103 103 
110 107 106 108 103 94 93 90 87 90 93 93 94 88 90 90 91 92 88 87 87 87 86 88 84 89 89 86 91 87 85 85 86 86 84 80 78 89 101 101 99 102 102 100 98 100 102 109 108 113 113 113 109 113 122 120 106 104 104 103 102 105 105 108 104 104 103 107 102 106 105 104 103 101 106 104 105 105 99 98 
105 105 104 105 98 90 89 85 88 87 87 85 88 87 86 85 87 87 87 82 85 83 87 87 84 86 87 87 82 81 86 84 80 77 80 83 76 87 92 93 96 98 97 98 89 96 94 90 83 96 97 102 105 108 119 119 107 106 103 102 99 102 101 104 101 102 101 102 100 102 100 103 100 102 99 99 99 98 94 96 
106 103 101 101 92 85 87 80 79 79 81 77 78 78 81 84 78 81 80 79 80 80 83 86 82 85 85 80 82 77 76 75 75 78 78 78 71 86 88 91 89 91 90 90 89 89 91 83 72 70 76 75 80 92 99 104 113 107 103 102 99 98 100 98 93 97 97 99 96 98 98 96 97 93 94 95 95 95 90 93 
98 98 95 95 91 86 80 79 76 74 76 77 79 73 77 73 76 73 73 75 79 79 82 81 82 83 81 80 76 67 65 61 72 76 78 74 71 87 89 86 89 91 88 84 86 82 83 77 64 59 63 67 67 78 89 94 109 100 101 98 97 99 96 97 92 89 94 96 95 93 93 90 94 95 96 94 87 91 87 91 
95 95 95 90 92 81 76 74 72 68 74 70 71 74 71 69 70 71 69 72 77 78 82 78 77 79 76 78 67 65 61 55 65 71 71 72 68 81 86 86 85 84 81 84 79 80 77 73 62 54 55 59 62 76 93 107 105 100 98 98 96 98 96 94 92 86 93 96 87 89 87 86 93 95 86 85 83 84 87 82 
91 90 88 89 82 80 72 69 70 67 67 68 68 68 68 66 65 62 63 69 69 68 75 73 75 75 73 71 70 62 58 54 63 69 69 69 67 80 83 82 80 79 78 79 74 73 71 63 53 44 45 51 51 73 95 103 104 94 92 88 88 89 90 92 86 83 85 87 81 78 86 84 83 84 78 81 81 79 77 82 
91 90 88 84 80 76 68 67 62 63 64 61 64 64 66 60 59 59 61 62 65 66 69 70 72 72 70 71 66 60 58 59 66 68 67 67 62 76 75 77 77 77 79 75 75 70 62 56 45 37 40 42 44 60 85 93 95 94 88 85 82 84 83 83 79 78 77 80 78 77 83 80 78 80 78 72 72 73 74 72 
88 86 83 85 80 73 65 61 64 63 58 61 61 60 62 58 57 55 56 58 60 66 68 69 69 70 69 66 68 66 66 62 67 64 71 63 61 72 74 74 74 72 72 76 71 62 58 50 39 31 35 34 35 47 79 90 89 84 88 82 79 82 84 85 78 77 81 79 76 75 80 78 79 76 74 68 68 71 68 71 
85 85 89 80 80 73 69 61 63 58 60 60 63 60 60 55 55 52 50 58 58 64 69 70 66 68 68 67 63 65 64 62 64 63 64 58 55 69 70 71 71 69 67 72 59 60 49 45 34 26 31 29 28 36 67 82 81 81 84 83 81 82 79 78 76 72 76 78 70 75 79 75 82 75 69 71 66 74 69 61 
84 82 80 81 74 67 67 67 61 54 59 58 60 60 54 50 51 51 51 52 54 58 64 65 70 65 65 63 64 62 64 60 61 63 59 57 57 70 66 66 68 68 65 64 58 55 46 42 31 21 22 20 19 22 36 49 64 74 80 79 77 77 76 76 71 66 67 68 67 70 75 73 77 75 67 65 67 66 57 60 
84 81 79 74 70 64 64 62 55 55 55 53 57 51 51 51 48 47 46 49 52 60 63 61 60 60 61 60 59 61 59 56 59 58 57 55 56 64 63 61 62 59 57 56 54 51 40 34 29 20 19 14 14 15 24 28 44 67 73 76 73 73 72 70 70 61 64 66 65 66 71 71 72 69 65 66 59 62 57 58 
83 80 77 71 67 64 63 58 58 55 55 52 52 52 49 46 44 45 44 51 50 61 62 60 59 60 57 53 51 54 51 51 54 56 56 54 49 63 57 44 45 42 44 45 39 32 34 29 28 25 27 18 11 10 18 21 27 54 66 67 71 72 72 68 64 64 61 64 62 69 68 66 71 62 63 62 62 63 53 58 
79 77 74 67 66 64 62 57 59 55 58 51 52 52 49 47 43 42 45 50 55 55 58 56 57 57 57 61 56 57 47 52 49 53 53 49 52 59 52 37 34 32 34 31 17 19 19 22 27 27 24 14 8 9 13 15 23 41 63 67 69 69 69 66 65 60 60 64 61 67 67 68 66 66 61 60 60 60 60 57 
78 76 70 66 67 62 58 55 56 52 49 49 51 49 48 45 39 45 41 46 50 55 53 55 53 55 62 64 65 67 62 62 52 51 54 50 52 53 48 39 31 32 26 21 15 17 19 21 32 29 18 10 5 4 13 12 15 28 54 62 68 69 63 66 60 57 59 60 62 62 65 63 66 62 58 59 59 57 50 60 
83 73 69 67 64 62 59 60 52 56 55 50 51 49 47 46 41 43 42 44 51 56 53 54 53 56 64 63 66 67 68 61 53 51 52 50 48 50 43 29 31 28 26 20 12 19 19 22 32 31 20 12 6 3 4 8 10 14 46 57 59 66 64 64 58 55 59 62 61 60 62 63 62 57 55 59 58 61 45 52 
76 71 70 72 66 55 57 53 54 53 50 50 50 47 47 43 36 48 41 45 48 51 52 53 55 52 55 60 58 59 63 51 50 49 51 47 47 51 43 30 27 25 25 19 14 16 20 20 33 31 26 18 7 0 1 5 6 13 32 54 58 61 62 61 57 52 57 57 57 58 60 57 62 56 52 56 57 54 46 53 
74 71 67 65 66 60 55 54 55 53 50 49 49 48 45 41 38 45 41 41 48 52 50 52 48 47 49 52 46 53 50 47 47 49 49 46 47 47 39 26 24 28 24 19 16 17 19 20 30 30 25 18 6 1 2 5 6 11 19 48 52 55 59 59 53 51 56 59 54 52 55 56 61 52 51 59 56 49 42 46 
73 70 67 65 67 57 57 52 56 52 49 48 49 46 45 40 42 40 43 46 51 52 54 48 47 48 51 50 49 48 47 44 46 47 44 40 46 41 33 27 25 24 22 18 13 17 18 17 27 29 22 14 6 6 4 3 4 9 18 35 51 56 54 54 52 52 52 54 50 47 54 51 53 53 48 51 50 49 43 39 
69 69 65 64 62 56 55 51 48 50 50 45 49 43 42 38 38 40 44 44 44 49 48 51 46 47 49 49 49 47 46 46 45 42 43 41 42 38 28 21 22 19 22 15 13 17 18 16 23 25 24 18 5 2 0 2 4 9 13 22 44 53 48 53 48 46 50 49 45 44 47 47 51 47 48 46 45 47 41 40 
70 66 63 60 61 56 55 53 49 51 47 47 46 44 46 43 39 38 44 43 49 49 49 48 48 50 51 48 48 49 49 48 47 43 41 41 43 39 23 24 20 17 17 11 12 17 16 14 17 21 21 16 9 3 1 1 2 4 10 11 38 49 51 49 44 42 48 45 42 39 45 47 45 43 45 46 45 43 39 37 
67 63 63 61 63 58 60 55 53 50 51 48 47 46 44 43 39 42 49 49 51 48 48 51 50 49 47 47 45 47 45 42 44 40 41 38 39 32 21 22 23 14 16 13 11 18 16 16 17 15 18 19 13 6 5 1 1 5 8 13 25 46 45 43 42 43 43 44 42 40 43 43 44 42 41 39 45 40 35 39 
68 65 66 64 65 61 59 57 56 52 50 49 48 48 44 41 47 49 51 53 55 49 49 47 50 48 48 46 45 45 44 45 41 42 40 38 34 31 24 22 22 17 16 18 13 17 19 17 14 13 19 17 13 5 6 5 4 9 10 12 24 39 46 42 44 41 42 41 41 41 41 41 44 42 41 41 41 39 37 35 
73 73 66 65 66 64 60 53 52 54 53 53 50 53 49 45 46 52 52 56 53 48 46 45 47 47 47 44 41 43 43 42 42 41 42 36 35 31 28 24 23 18 17 19 17 18 20 19 12 15 17 19 10 10 10 8 9 9 13 18 20 34 38 42 41 40 44 41 40 42 42 39 42 43 40 41 40 38 34 35 
73 74 66 67 65 60 57 55 54 55 57 49 52 53 51 50 49 53 55 51 52 47 44 45 45 45 44 44 40 41 44 43 42 40 36 36 38 35 29 27 23 24 23 25 22 25 26 24 20 21 20 22 18 12 15 15 8 11 13 15 23 30 39 40 44 40 41 40 38 38 41 40 39 39 39 40 37 35 29 28 
71 71 68 70 64 64 59 58 57 60 56 53 53 55 51 51 53 53 55 54 54 48 47 45 45 45 41 41 42 43 45 40 40 40 39 41 41 36 33 28 31 25 30 28 27 29 31 27 26 22 24 24 18 17 19 18 19 14 20 19 28 37 38 42 42 42 42 40 37 40 39 40 39 37 36 39 37 30 28 33 
73 70 68 69 68 66 63 61 57 55 53 52 54 52 52 54 52 55 54 53 49 50 45 44 44 47 43 42 38 42 41 40 41 43 42 40 40 37 30 29 30 29 29 31 30 32 31 31 28 28 25 26 20 22 24 21 18 21 21 27 29 34 37 45 43 43 40 41 35 40 37 40 41 34 36 35 31 34 34 32 
76 74 75 70 74 66 63 61 56 54 57 56 54 55 53 57 56 59 57 56 53 47 46 46 47 45 44 41 40 41 41 38 41 43 41 38 38 36 28 29 31 31 33 33 35 33 32 36 32 28 27 26 22 21 23 22 24 21 29 28 36 35 38 42 43 39 37 41 36 38 39 41 36 33 33 36 31 29 29 36 
80 76 73 78 74 70 65 64 59 56 60 54 57 56 56 56 53 57 62 57 55 49 48 45 48 48 46 43 44 44 42 40 41 47 40 37 38 35 29 33 34 33 36 35 33 35 34 34 36 31 32 30 25 25 25 26 27 28 28 30 35 39 40 41 42 38 39 42 41 36 39 37 41 37 35 32 34 38 31 32 
82 78 76 72 81 68 68 65 67 61 60 59 60 60 59 56 56 61 61 56 57 53 50 54 49 48 45 46 46 48 48 43 43 42 42 41 35 34 33 33 36 37 41 37 35 36 36 35 33 31 35 33 27 28 30 25 23 28 29 34 39 43 43 45 37 40 41 42 41 36 39 38 42 37 33 36 35 37 34 28 
86 78 78 79 77 70 73 73 72 66 63 65 62 60 59 57 58 59 63 61 60 52 54 52 49 49 43 44 43 48 44 40 45 43 37 40 40 34 31 34 35 35 36 34 34 36 36 36 34 31 34 36 29 28 31 29 27 30 35 40 44 45 50 46 40 39 41 42 39 38 46 40 41 43 36 33 38 37 29 33 


