P2
80 60
206
138 135 133 137 148 142 142 144 149 148 147 155 146 146 144 145 143 148 143 150 150 154 153 153 146 125 117 111 114 113 108 114 109 112 117 113 113 115 110 113 108 110 110 107 108 111 108 109 113 126 128 133 137 136 135 140 131 126 119 117 119 119 106 109 112 108 108 106 106 97 92 93 97 91 89 86 84 83 85 85 
136 139 133 141 143 141 141 144 149 146 147 147 146 146 144 147 148 149 148 156 155 155 151 156 145 130 120 114 116 114 115 113 114 116 118 116 114 115 114 111 110 109 109 105 106 109 107 107 118 127 132 134 135 136 139 138 131 127 123 117 118 114 104 110 111 112 110 107 103 100 97 94 95 92 90 85 89 87 84 92 
139 140 136 137 142 143 144 145 151 148 152 153 147 146 141 144 148 149 146 153 157 153 150 150 138 127 122 117 116 117 114 114 114 114 118 117 115 115 113 114 113 108 111 110 109 111 111 109 123 134 133 135 140 141 138 140 134 127 120 121 118 119 109 111 114 117 110 111 111 104 100 95 95 93 92 93 91 84 85 81 
140 138 134 139 143 144 146 147 152 150 153 149 144 145 146 143 145 146 145 153 153 153 152 151 141 124 122 117 120 118 113 119 120 121 117 121 116 116 115 114 111 111 111 110 112 108 110 111 131 141 140 147 145 143 141 141 138 129 122 120 116 120 110 114 116 115 113 111 113 108 101 102 94 98 93 93 89 86 89 87 
140 138 138 139 143 149 143 148 150 148 156 155 146 148 146 149 149 149 149 150 151 153 151 150 140 122 119 117 116 120 117 121 119 122 119 120 122 120 120 117 113 113 111 112 113 108 110 114 139 143 145 148 149 146 145 145 139 131 125 119 115 124 118 119 115 114 113 116 116 111 107 103 102 99 97 93 91 89 86 87 
138 140 137 139 143 145 147 150 155 149 154 156 151 148 148 145 151 148 150 152 156 156 152 150 137 124 124 119 121 122 120 121 122 122 123 127 127 123 117 119 116 117 117 113 115 115 111 120 140 146 146 147 147 147 142 148 141 130 123 121 119 125 119 120 123 122 118 113 117 111 104 107 106 103 100 97 94 89 92 92 
137 140 138 139 148 148 148 146 152 150 151 150 148 148 147 147 151 148 147 153 156 153 152 148 131 122 123 123 124 128 123 123 122 123 127 130 126 125 123 125 119 122 123 117 119 118 119 120 130 141 139 139 138 134 138 141 139 132 127 123 126 125 120 119 123 120 118 121 118 113 107 108 108 107 106 97 97 94 93 93 
139 134 133 140 145 147 146 148 154 153 154 153 150 149 148 151 152 150 148 152 153 151 152 143 134 124 126 128 130 131 127 126 125 127 130 137 135 135 129 134 136 137 130 125 128 122 120 122 123 126 134 135 128 121 123 130 128 135 133 128 128 129 123 122 125 125 119 118 119 113 109 113 110 110 104 102 99 95 94 90 
140 137 137 139 143 148 148 149 152 155 153 155 152 151 152 155 154 148 148 148 151 152 147 140 128 128 129 130 133 132 130 129 129 130 132 137 134 133 133 135 136 135 130 128 127 123 120 116 116 121 123 129 125 116 118 120 122 127 132 130 133 132 128 128 127 126 124 124 123 117 108 111 116 109 106 102 99 93 98 97 
137 136 131 140 147 146 148 151 152 155 154 153 153 162 172 183 170 145 136 134 135 136 132 131 128 126 132 129 133 133 133 130 128 128 130 134 131 127 125 125 126 127 125 127 127 123 114 113 111 113 109 112 117 115 113 117 113 123 129 131 129 132 126 126 130 131 126 131 129 125 116 114 114 115 111 107 101 99 96 99 
138 137 133 139 142 143 146 151 156 152 156 157 156 179 190 206 190 150 132 128 130 126 127 123 126 125 127 127 125 128 127 124 124 123 125 125 122 119 114 116 115 116 116 117 122 116 112 108 110 105 108 108 111 106 112 111 106 112 128 127 124 129 120 125 129 127 128 123 125 120 119 118 117 113 115 107 106 104 101 103 
138 135 132 139 142 143 149 153 156 155 155 154 161 189 187 199 185 148 130 125 122 122 122 123 121 122 121 120 124 127 124 121 120 123 119 124 120 119 115 111 114 111 110 112 112 109 108 106 105 106 107 108 110 110 112 112 107 122 127 127 130 124 122 122 125 126 125 122 123 121 119 118 117 114 113 109 107 104 106 100 
135 133 133 136 144 144 151 149 154 154 153 156 165 190 178 174 158 136 126 123 123 122 119 120 115 116 118 116 117 123 119 122 117 117 120 117 119 114 115 110 107 108 109 105 108 106 103 107 104 106 103 105 109 108 112 110 107 122 126 129 125 127 123 123 125 127 124 121 120 118 115 115 114 116 113 106 105 101 102 104 
136 136 130 135 143 145 152 150 156 153 150 156 162 181 164 152 137 125 121 116 118 118 115 113 111 113 115 115 117 118 114 117 119 114 113 116 118 115 110 108 107 104 104 103 106 108 103 104 104 103 102 103 105 104 112 110 106 120 124 125 124 127 121 122 128 124 119 118 121 115 113 112 115 115 107 105 108 102 103 104 
135 134 132 135 144 146 150 152 157 154 149 155 162 169 147 139 125 119 113 114 115 115 110 114 114 114 115 110 113 115 116 113 115 112 115 113 114 112 109 105 108 104 106 100 104 104 105 103 102 104 102 103 105 104 108 111 105 117 122 123 121 124 120 123 126 125 118 117 118 116 113 113 115 114 106 109 105 101 106 104 
134 133 130 136 141 147 152 150 155 154 150 153 150 145 134 124 116 111 111 112 114 114 107 112 111 113 110 109 113 114 112 110 115 111 108 107 112 110 104 106 104 104 104 102 105 104 106 108 101 101 102 102 105 101 103 101 100 113 122 119 119 125 119 121 125 120 115 115 118 115 113 111 111 110 111 105 107 104 102 102 
131 132 127 133 138 146 149 153 155 154 147 146 138 126 118 116 111 108 105 109 114 113 111 107 110 109 114 108 109 107 107 109 108 109 109 110 108 106 107 105 103 102 104 105 105 106 107 109 103 102 99 97 102 98 100 99 99 113 120 119 120 124 117 119 118 116 115 119 117 113 111 113 113 108 109 108 107 104 104 104 
130 130 129 131 142 145 150 152 151 147 146 146 129 116 107 109 106 106 109 107 109 109 110 109 106 105 110 107 110 107 109 109 111 106 104 109 109 105 104 103 101 104 105 104 101 104 104 104 103 99 95 99 100 97 93 95 100 110 121 123 122 123 118 119 120 116 118 119 114 114 109 110 114 111 111 106 107 105 107 105 
126 127 129 129 136 149 146 148 152 148 146 142 122 111 107 103 104 104 105 104 106 107 108 108 109 101 108 104 104 107 108 107 104 107 105 109 107 104 102 102 101 103 105 104 102 101 99 102 98 99 93 96 100 95 86 94 100 109 118 117 120 121 115 117 121 118 114 118 113 109 111 113 114 109 113 104 103 101 104 109 
125 125 124 131 138 146 147 149 151 147 143 136 117 107 101 102 100 100 100 101 107 104 103 108 104 104 101 102 106 107 104 105 105 106 106 108 105 105 101 100 100 102 104 104 100 100 100 99 99 94 95 95 98 94 85 90 100 112 116 115 110 119 112 113 115 115 113 115 111 109 108 112 112 110 108 103 104 98 101 102 
122 124 123 130 131 139 147 140 144 145 142 137 113 106 101 99 100 97 99 99 101 103 102 105 103 101 103 103 104 106 106 105 103 107 107 109 108 104 103 98 95 99 100 100 101 100 100 97 97 91 92 89 93 92 81 88 102 114 117 115 114 116 110 114 113 117 110 110 113 107 104 108 106 106 105 101 102 100 101 101 
119 120 116 123 133 139 142 143 145 141 142 135 116 103 96 96 100 98 99 102 103 103 100 101 101 100 101 101 102 105 102 101 103 104 108 108 103 101 94 96 94 99 98 95 99 96 95 100 99 91 88 88 91 87 80 85 98 117 119 116 113 117 109 113 116 112 113 111 110 110 104 105 109 106 108 103 100 99 101 96 
125 119 114 123 132 138 139 139 143 142 139 130 109 99 96 94 98 95 96 96 99 102 102 103 100 99 102 97 102 102 100 99 98 100 98 103 101 99 94 93 89 92 94 96 95 95 96 94 97 90 88 88 90 85 77 83 102 113 117 115 114 119 111 114 116 115 115 110 112 109 106 105 106 106 107 99 99 95 100 99 
119 119 113 122 133 136 136 137 139 137 134 127 103 95 90 92 98 98 96 95 97 99 96 99 95 93 99 98 100 96 98 97 99 99 97 96 96 94 91 92 89 85 87 88 93 94 93 96 92 89 87 86 88 85 74 82 100 111 113 115 112 117 112 113 114 113 111 112 113 110 106 107 105 105 105 98 98 98 98 98 
118 116 113 120 128 136 134 135 137 134 130 120 97 90 91 91 96 94 95 90 97 98 96 95 92 93 95 95 99 96 94 95 96 97 94 95 90 91 87 87 86 87 85 81 88 86 84 88 87 87 86 83 88 83 74 82 97 114 115 112 113 114 109 112 113 113 113 115 112 111 107 106 105 105 101 99 99 95 95 91 
115 111 110 119 123 131 136 130 134 129 132 114 96 93 87 89 88 92 89 93 95 94 92 91 91 93 92 92 97 96 93 94 95 95 92 91 90 89 86 85 87 86 84 82 83 83 84 86 87 88 86 81 84 78 69 77 98 108 114 111 107 111 109 112 115 112 109 110 112 109 105 105 106 102 101 96 98 93 94 93 
110 110 104 110 117 122 126 121 127 122 122 112 94 92 87 85 88 89 89 89 91 94 93 93 93 90 93 91 93 90 87 92 92 89 87 88 89 89 87 88 88 85 81 84 86 82 84 83 85 86 79 80 84 79 69 80 96 108 109 109 105 109 106 107 112 109 109 107 112 108 105 101 101 100 97 94 93 92 87 89 
109 106 101 107 107 108 112 106 107 106 106 106 91 86 86 91 87 90 88 89 92 93 93 91 88 89 92 88 92 89 86 84 84 81 81 80 87 88 86 85 89 85 83 84 85 80 83 80 86 82 85 84 84 78 68 77 96 106 109 107 106 104 105 109 108 107 103 104 112 103 100 99 99 102 98 94 95 87 89 89 
107 102 98 100 100 98 101 97 99 98 99 99 90 91 87 87 88 89 91 90 92 91 93 90 88 91 90 90 89 83 81 80 80 79 76 76 80 85 85 87 85 84 85 82 80 81 80 80 84 84 81 82 85 78 69 76 98 106 107 106 101 104 102 107 107 107 103 101 105 102 99 98 100 102 100 93 97 90 91 86 
98 99 94 97 95 94 93 88 93 89 90 92 85 89 83 84 85 89 90 90 94 92 90 89 88 87 89 86 83 86 83 84 80 82 77 80 84 85 85 85 84 82 84 80 80 81 79 80 81 83 81 84 81 77 74 85 95 103 104 101 101 100 104 106 109 104 102 102 101 99 94 98 96 99 95 93 93 89 89 88 
99 97 94 93 88 86 87 83 83 85 80 87 85 90 85 85 89 90 92 89 89 92 93 90 90 89 93 85 82 80 83 83 84 84 79 80 79 83 88 84 82 80 82 80 78 78 80 79 82 83 78 83 82 80 81 83 100 103 101 96 97 103 100 104 104 104 101 99 100 96 92 95 97 93 96 87 92 88 86 82 
91 92 90 90 86 84 81 78 79 75 76 81 83 82 81 86 83 89 87 90 90 90 92 91 89 88 89 84 81 80 79 79 81 82 80 80 82 82 86 83 80 82 87 81 82 79 81 79 81 83 78 77 80 76 80 79 95 100 97 94 94 96 95 98 103 101 96 95 95 90 88 88 90 90 84 82 85 79 80 82 
86 88 86 84 85 79 77 70 72 70 71 80 79 79 80 82 85 87 87 87 88 92 96 93 88 87 88 82 79 77 76 80 74 78 77 84 83 81 81 82 84 83 82 78 79 80 80 80 81 78 75 75 80 77 77 79 98 99 100 93 92 94 96 97 96 95 92 91 93 93 88 86 87 84 81 80 79 77 77 76 
82 82 78 83 76 77 71 66 70 66 70 73 76 76 77 79 82 87 86 87 89 90 91 90 90 85 87 80 75 72 72 71 75 73 77 77 76 77 82 83 83 83 81 76 74 77 76 77 74 77 74 76 77 74 74 79 99 101 96 90 89 91 90 93 91 85 86 87 87 85 80 80 82 78 74 77 77 70 71 66 
82 81 76 75 74 67 68 64 66 60 68 76 72 77 77 77 83 83 82 85 87 87 85 86 86 85 85 76 71 70 71 72 73 76 73 76 72 77 82 84 80 82 80 74 76 76 76 77 78 77 73 72 75 79 70 79 93 98 92 86 86 88 86 89 86 81 83 81 83 79 74 73 77 75 70 69 70 68 68 65 
79 77 72 72 68 67 63 61 64 57 66 74 75 76 77 78 77 78 81 82 86 85 84 84 86 85 85 75 71 76 72 72 74 72 72 73 75 82 83 84 80 79 79 77 77 75 75 76 70 72 71 70 73 76 68 78 92 93 85 81 81 84 83 81 78 75 76 75 75 73 71 74 69 66 65 66 67 61 61 59 
77 74 71 70 68 67 61 56 58 55 63 73 73 75 76 77 82 82 83 83 84 83 84 85 84 84 89 81 77 74 75 79 76 74 72 73 79 84 82 81 81 76 79 77 79 76 74 75 75 71 69 68 73 75 69 76 89 86 81 79 77 77 80 80 78 80 73 71 73 73 71 73 69 65 63 60 61 57 54 58 
74 76 68 67 68 61 60 55 55 54 62 74 75 75 78 77 81 85 84 83 83 82 81 87 85 86 88 88 85 76 74 78 78 77 79 82 85 84 83 81 78 77 77 78 76 78 74 71 74 72 68 71 71 67 64 76 89 87 81 78 76 80 78 76 79 74 71 69 70 69 68 67 68 62 59 54 56 52 55 51 
72 72 66 65 62 62 59 56 56 52 60 72 72 75 73 77 81 77 82 83 83 83 83 84 86 84 88 87 85 87 80 84 83 83 86 87 84 82 83 80 77 78 80 75 75 76 73 77 73 73 73 67 71 61 63 78 86 79 73 75 73 77 74 74 76 71 68 66 67 67 60 65 67 59 52 50 54 48 52 47 
72 71 64 61 59 56 59 53 52 53 59 72 68 71 74 76 79 77 82 79 83 82 84 83 84 86 81 84 88 86 82 87 85 86 86 87 84 81 82 80 76 77 81 74 74 74 72 74 71 71 68 65 64 53 60 71 75 81 72 73 75 73 72 74 72 66 64 62 63 62 62 63 65 53 53 47 51 46 47 48 
71 66 62 59 59 56 54 47 54 53 59 70 67 75 73 73 77 81 77 80 82 83 83 80 82 84 85 81 88 84 84 84 84 86 89 86 86 81 82 79 78 76 78 74 77 71 76 71 70 70 68 68 65 47 55 64 56 69 71 69 72 69 67 71 70 62 62 59 62 59 60 61 62 55 50 50 48 45 47 43 
69 64 59 57 53 55 52 47 49 50 59 71 68 72 72 76 80 76 76 78 83 82 79 78 84 84 84 84 87 87 87 86 87 85 90 89 87 80 82 79 78 77 78 74 75 72 73 73 72 69 67 69 64 44 55 62 43 57 64 63 63 69 66 64 65 62 56 57 59 59 55 58 59 53 47 43 46 44 43 43 
65 65 53 57 55 52 53 49 46 52 58 70 66 71 70 74 77 76 75 78 78 81 81 80 86 82 85 83 86 87 86 85 85 89 87 87 82 82 77 78 76 77 76 75 76 76 74 72 75 75 70 68 58 43 56 58 37 41 58 59 62 65 62 60 58 57 54 56 56 57 54 56 58 50 47 43 44 41 38 38 
64 62 56 56 53 52 52 51 48 51 55 65 67 73 70 75 77 77 75 74 79 81 80 82 82 80 84 82 85 87 88 83 86 85 85 84 84 81 77 79 79 78 76 76 77 75 77 73 71 73 72 69 56 41 55 52 25 29 48 55 57 64 61 59 56 55 53 55 57 55 52 52 52 46 42 41 46 43 38 35 
60 60 50 53 53 52 49 44 50 50 58 68 65 72 70 72 74 77 77 77 79 78 81 81 81 79 82 85 87 85 83 84 86 84 85 87 87 82 80 80 78 77 77 79 74 78 77 75 71 69 69 66 57 40 53 45 19 17 38 49 55 58 56 56 52 50 49 51 54 52 48 51 51 45 43 40 40 35 32 29 
61 58 49 51 54 54 50 43 48 48 58 65 61 68 69 73 71 75 77 75 77 79 82 77 77 81 80 82 83 85 83 84 86 81 81 86 82 82 80 77 75 77 75 79 78 77 78 73 71 69 67 67 53 41 51 44 19 12 24 43 50 57 58 53 50 49 50 49 51 51 48 48 46 39 39 36 35 33 31 31 
59 56 49 50 50 49 51 47 46 49 57 61 64 64 67 71 69 74 79 76 79 79 78 79 80 79 79 82 84 84 84 83 86 80 82 86 81 82 80 77 76 76 79 81 79 76 75 72 67 68 66 66 55 43 53 39 16 6 14 37 46 51 48 49 49 49 48 43 46 45 44 46 43 37 37 37 38 26 31 28 
59 56 49 49 50 50 49 43 46 50 56 66 61 64 66 69 69 69 77 73 77 76 79 76 80 81 78 79 83 84 81 82 81 82 82 85 81 81 81 79 76 76 80 78 81 77 74 68 69 66 65 64 52 45 49 35 15 8 5 23 40 46 46 45 48 45 42 45 45 42 42 39 40 32 36 34 32 25 22 25 
62 52 50 51 47 51 49 43 49 47 58 64 63 67 69 70 69 70 72 74 77 78 77 78 74 79 78 80 80 82 80 82 82 81 83 82 81 79 80 80 77 76 76 78 77 73 73 68 66 62 65 61 48 44 52 35 9 4 3 15 32 47 42 45 47 42 39 40 43 37 38 37 37 32 31 28 30 25 20 21 
57 49 47 48 50 47 49 45 47 47 58 65 66 64 69 70 72 71 75 75 77 78 73 74 76 77 77 76 81 81 78 80 79 82 83 82 83 80 79 78 77 75 75 75 76 73 74 71 67 66 62 61 49 48 49 33 13 5 0 8 29 42 39 43 44 43 40 37 39 34 33 35 34 33 28 27 28 22 20 28 
55 49 47 47 49 50 47 46 45 51 58 64 64 65 68 66 69 72 71 76 73 73 70 71 71 72 73 76 76 76 78 78 80 81 82 85 80 78 80 79 78 78 73 73 74 76 70 71 69 68 65 60 45 48 47 29 13 7 4 5 16 37 36 36 41 42 36 34 36 33 30 33 32 30 27 26 26 25 19 20 
57 55 47 49 50 49 48 45 48 49 56 65 65 62 64 65 67 70 71 70 71 67 62 62 62 63 69 70 74 78 74 77 77 77 80 82 81 74 75 74 72 70 72 73 71 72 74 69 69 67 64 60 45 45 41 27 13 8 5 4 13 29 35 35 35 40 34 33 37 31 28 33 28 24 26 24 25 20 20 20 
60 53 50 50 50 49 48 47 46 48 58 62 60 63 63 63 67 67 69 71 69 64 58 59 60 59 67 63 71 72 71 69 70 70 72 75 74 73 73 73 72 73 71 70 69 71 68 69 67 65 66 58 44 42 41 33 13 7 9 8 10 23 30 32 36 36 37 34 34 31 27 28 28 27 23 22 21 19 19 18 
62 55 54 52 54 55 50 48 49 52 57 64 62 64 63 65 70 66 68 69 65 63 61 58 60 60 64 60 65 66 63 61 61 60 63 65 70 72 75 73 68 69 69 68 71 71 67 67 68 66 65 59 47 46 43 30 21 9 8 12 14 23 27 31 40 39 38 32 32 30 28 28 27 24 24 20 22 16 16 12 
63 57 50 54 55 56 55 48 48 52 58 64 63 66 62 64 65 63 66 69 62 63 61 63 61 61 64 57 57 59 55 57 57 54 58 60 61 66 70 68 70 69 67 69 67 70 67 66 65 68 61 58 49 48 44 35 25 19 12 12 18 28 28 34 41 43 35 33 30 33 27 27 27 22 22 19 19 19 16 13 
62 60 51 57 58 55 52 50 52 52 57 60 59 63 60 63 65 66 64 62 59 61 61 63 61 63 61 58 58 54 53 52 57 57 57 59 58 60 65 67 66 68 67 67 69 67 66 64 65 62 60 54 46 48 43 37 26 19 14 15 23 31 31 35 39 37 32 32 32 27 25 26 26 22 21 18 17 12 17 10 
62 61 54 58 56 56 55 51 50 54 58 62 59 59 59 61 65 69 63 61 59 59 61 62 62 63 64 61 60 58 55 56 61 60 63 65 65 60 63 69 67 71 68 71 72 67 64 64 65 62 59 55 50 53 43 39 30 21 18 20 28 32 30 35 36 33 31 30 28 27 27 26 25 23 20 18 13 11 9 11 
67 61 58 59 64 63 56 58 55 54 59 61 56 59 61 62 62 68 68 62 62 60 60 64 59 62 64 63 59 62 61 61 61 61 63 69 68 64 63 73 69 70 71 67 73 68 67 65 64 62 58 52 53 54 47 41 30 23 23 21 31 35 33 33 37 36 30 30 25 25 23 22 22 19 19 16 15 11 10 11 
70 65 61 60 65 67 59 54 54 56 55 58 60 61 59 63 65 69 67 63 66 61 64 65 67 63 61 60 65 64 63 65 67 67 68 69 68 63 65 74 71 70 70 68 74 71 68 63 65 60 60 55 51 53 46 42 29 27 26 26 33 33 33 34 38 35 31 26 23 23 23 25 23 16 15 18 15 8 8 9 
79 66 59 59 61 63 59 57 56 54 63 66 61 61 56 60 67 61 62 64 66 64 64 65 62 58 58 61 65 67 65 66 62 62 66 63 69 62 66 71 73 70 68 72 76 71 67 65 64 61 59 51 51 48 43 41 29 27 24 28 26 35 30 29 37 34 28 25 24 24 23 23 22 18 18 20 14 9 14 14 


