P2
80 60
179
153 154 150 154 155 157 157 156 159 164 161 164 167 166 158 156 151 148 149 150 150 153 154 150 150 150 148 143 146 144 143 140 141 140 139 138 136 137 140 143 142 138 137 133 135 132 135 136 132 123 127 128 128 133 128 128 129 124 122 118 116 111 114 112 107 111 111 109 106 108 106 104 107 101 103 97 100 96 98 97 
153 154 150 154 156 162 156 159 161 160 163 164 166 161 162 156 150 150 149 151 149 155 153 154 149 152 151 154 152 156 152 149 152 151 149 148 146 141 145 143 147 145 146 143 141 139 141 140 133 126 127 130 131 135 130 130 129 122 123 120 117 113 113 111 110 111 111 113 109 111 105 102 103 104 99 100 103 100 98 94 
152 153 151 155 157 159 154 160 161 163 166 164 165 165 160 158 156 149 150 151 151 154 153 151 152 152 152 155 152 154 154 152 153 151 153 150 146 149 151 150 152 154 153 154 151 147 148 146 138 131 134 137 135 130 132 132 128 127 122 120 118 112 111 113 114 113 112 110 111 112 108 107 107 103 105 105 102 99 99 95 
154 150 149 152 158 159 159 161 161 165 164 164 162 164 157 157 153 148 151 153 150 155 151 151 151 151 154 157 158 157 157 155 156 153 154 154 148 151 149 154 152 155 156 156 156 151 152 151 148 142 139 138 140 138 135 132 134 129 125 120 119 113 113 116 114 119 113 112 113 113 109 107 101 106 108 106 100 102 96 99 
154 155 154 154 156 157 156 163 162 164 166 170 166 165 161 156 157 149 151 150 150 154 155 155 153 154 153 154 156 155 155 155 153 154 154 155 153 150 151 156 154 154 154 154 153 152 153 154 148 141 143 146 144 141 137 138 135 131 125 120 123 117 118 118 116 118 116 115 114 116 109 106 107 110 110 107 104 104 97 93 
155 155 151 151 157 159 160 165 164 168 164 166 165 164 162 155 150 151 152 150 151 156 153 154 154 154 152 151 155 157 157 154 156 158 155 153 152 153 150 153 154 154 154 153 156 155 154 151 150 146 146 145 140 140 141 137 134 134 128 125 123 120 121 118 118 121 115 116 117 113 112 111 109 110 111 108 103 104 100 101 
155 152 150 150 157 158 160 162 166 164 167 166 166 168 163 160 152 149 152 153 155 155 156 152 150 154 154 154 156 157 158 157 160 153 153 150 151 151 150 153 152 154 155 154 155 154 155 152 153 152 153 151 150 149 144 142 140 135 129 129 125 123 122 123 120 123 121 118 120 117 111 114 115 113 113 110 109 106 101 104 
148 151 151 152 156 155 160 163 166 165 164 168 166 166 165 158 154 154 153 152 155 154 153 153 153 153 152 153 158 156 156 155 158 157 154 152 151 150 151 153 153 156 154 151 155 152 156 154 149 156 155 153 154 150 147 147 144 138 130 128 127 122 125 124 128 123 125 122 121 116 114 120 114 118 115 110 110 109 108 105 
148 150 147 151 152 156 161 162 164 165 167 170 165 166 167 161 162 151 157 151 155 154 152 153 154 153 155 151 156 154 158 157 155 151 151 149 149 147 150 150 154 156 152 152 155 150 155 155 148 153 155 155 153 151 148 146 142 139 133 130 128 129 126 128 127 124 123 127 121 118 118 117 117 119 118 115 110 107 106 106 
152 149 147 148 151 156 158 163 163 165 164 164 166 165 164 157 154 148 152 153 152 153 153 151 155 153 150 151 155 155 156 155 154 153 154 146 148 148 145 150 150 154 153 153 151 151 151 152 148 151 153 151 152 148 143 145 140 138 130 124 126 124 124 123 124 128 128 122 122 126 119 123 122 122 117 119 112 111 110 106 
152 152 146 148 154 157 161 161 162 164 167 168 166 163 164 156 156 151 152 154 155 156 154 150 154 152 151 154 154 154 156 154 154 148 147 149 149 149 148 153 147 153 154 150 152 151 152 150 149 150 153 153 151 147 149 142 138 134 129 128 122 121 119 123 125 125 126 124 126 124 122 123 124 124 122 121 115 114 113 109 
146 150 148 148 154 160 160 166 166 167 166 164 168 163 162 157 150 153 150 155 152 153 154 152 155 152 150 152 154 157 154 153 151 151 150 150 152 147 147 150 149 151 152 150 152 150 152 150 148 149 154 150 153 151 143 139 139 140 130 126 123 122 121 119 121 124 123 124 121 125 121 123 125 120 124 118 116 115 106 106 
148 145 150 147 152 158 160 164 167 165 165 164 165 165 165 163 153 151 154 152 153 153 154 149 151 149 147 151 148 151 153 151 148 151 150 147 148 147 148 150 150 152 153 151 151 148 149 152 150 153 150 153 149 149 146 136 136 132 129 125 122 121 120 123 121 124 119 122 121 119 120 121 120 120 122 118 116 116 111 109 
148 149 155 150 153 156 163 165 168 165 167 165 164 162 162 158 156 148 155 150 150 152 152 150 147 147 143 148 148 150 152 149 151 151 147 148 147 146 148 146 149 151 150 152 149 152 148 149 150 150 154 153 150 148 143 141 138 136 129 127 121 122 118 119 118 125 119 119 118 117 120 118 119 118 119 117 116 113 115 107 
145 145 146 151 152 158 160 167 173 166 167 164 163 162 164 160 155 151 152 152 151 152 150 148 144 135 129 130 138 143 150 148 149 152 148 144 144 145 147 147 148 152 149 148 148 150 150 149 152 152 149 149 149 148 142 139 135 133 128 124 122 120 117 122 121 120 119 117 119 118 115 117 119 119 119 118 117 114 117 106 
140 146 149 149 152 157 163 166 165 165 167 165 164 165 160 152 152 149 149 149 150 152 151 144 141 128 118 116 118 126 129 132 139 149 143 142 142 143 145 149 148 150 146 148 147 147 150 147 150 150 154 147 150 147 142 135 136 136 128 121 120 122 118 120 119 119 116 114 116 119 118 121 119 119 118 120 115 115 115 110 
141 143 142 144 150 158 163 162 165 164 162 163 162 162 160 157 154 149 148 150 148 148 148 148 140 121 116 112 116 115 119 116 117 121 124 131 137 140 141 146 144 147 146 147 144 148 146 147 150 149 149 145 147 145 140 134 136 130 128 122 118 116 117 117 117 120 116 116 113 114 117 117 119 120 117 117 118 118 112 105 
138 142 142 142 149 157 161 165 163 162 162 163 161 157 156 152 151 146 149 147 148 153 150 146 129 117 112 108 114 118 113 113 114 115 111 110 115 117 126 141 144 147 149 144 144 143 144 146 147 146 145 146 143 143 139 135 133 129 126 121 120 120 114 117 116 118 114 112 111 115 114 118 121 119 119 115 116 113 115 108 
140 137 139 144 150 155 156 160 164 161 161 159 159 156 157 152 149 145 146 146 147 146 144 140 125 116 113 112 114 117 114 111 111 111 110 112 111 109 111 133 141 150 151 145 141 143 142 144 146 145 145 143 143 142 137 133 132 128 126 117 121 118 112 113 117 117 113 115 111 116 112 115 112 118 115 118 116 114 111 113 
134 133 139 139 143 154 159 156 163 161 159 157 158 157 156 152 153 154 149 145 140 141 140 134 119 116 113 112 118 116 116 116 112 112 112 108 109 108 113 132 140 149 144 142 143 140 139 141 142 142 140 144 141 138 133 132 126 124 120 116 114 114 112 110 113 115 112 111 109 114 114 117 114 114 115 112 114 110 109 107 
135 135 136 139 143 149 155 155 158 159 158 159 156 152 152 151 160 179 172 145 134 128 123 123 121 117 121 122 122 123 122 119 118 123 122 123 118 113 118 137 139 141 143 138 142 141 138 141 143 140 144 139 139 143 134 129 128 127 120 117 116 113 109 110 110 112 109 109 111 115 111 111 111 111 112 111 109 108 110 105 
134 133 134 138 146 148 154 152 158 156 155 154 156 151 151 147 156 168 169 146 126 120 118 117 116 119 118 120 124 124 124 121 125 125 130 130 126 121 118 123 125 132 137 138 139 140 137 142 142 143 143 139 135 136 130 131 127 125 119 116 111 114 108 111 112 114 110 113 110 111 110 112 113 112 113 112 111 106 108 108 
133 130 132 136 143 149 150 153 154 154 152 155 153 151 146 142 146 153 146 128 115 116 112 109 110 111 110 112 112 117 116 111 114 115 120 119 117 113 110 115 115 121 116 128 135 133 138 135 143 141 138 141 136 134 133 132 129 119 118 118 112 114 110 111 111 112 112 111 109 113 110 109 111 115 112 109 110 109 107 104 
130 129 130 132 142 144 148 150 151 148 149 149 147 145 143 134 132 132 121 111 108 112 108 105 106 105 106 110 113 110 111 108 109 105 106 105 107 103 100 105 98 107 108 117 132 133 131 134 139 140 138 135 136 132 128 124 121 118 114 116 111 111 112 108 112 110 114 110 111 114 112 111 111 113 110 109 108 107 107 102 
125 128 129 128 137 144 148 150 146 148 147 145 146 142 142 128 116 113 108 105 105 106 107 101 102 101 103 103 104 103 105 103 105 102 102 96 96 96 96 104 101 102 107 116 123 126 127 130 133 138 136 135 127 133 125 123 120 116 110 111 111 108 109 107 110 112 109 113 112 110 111 110 113 110 110 109 107 107 103 96 
122 123 124 126 135 140 143 145 144 145 144 143 141 139 136 117 104 103 101 99 100 101 102 99 102 99 99 99 103 105 102 103 102 100 99 94 95 94 93 99 97 100 105 117 123 126 123 127 133 136 131 130 128 128 125 121 116 111 108 109 105 105 107 107 112 112 109 111 108 113 109 110 106 105 107 106 103 103 105 95 
120 117 122 121 129 132 134 135 136 135 138 136 142 138 131 111 99 100 100 100 99 100 98 97 99 99 99 100 101 106 100 101 100 100 96 93 92 96 95 98 100 99 99 119 123 123 120 125 126 129 126 125 123 126 123 118 116 112 108 107 104 103 105 103 105 108 107 106 106 109 107 109 106 103 105 105 104 101 100 94 
118 114 120 122 118 118 118 115 119 119 118 118 123 117 115 103 93 94 94 98 98 98 93 96 97 96 100 97 97 102 101 97 95 98 96 92 92 93 93 94 93 94 95 115 118 122 118 125 130 124 124 123 123 123 120 117 113 108 105 107 101 101 99 105 105 104 103 105 105 109 106 107 105 101 104 105 100 101 101 94 
110 117 113 115 112 110 111 106 107 107 107 107 107 107 102 92 94 92 95 95 94 98 96 93 91 95 94 99 99 100 99 98 96 98 91 88 91 92 94 97 91 94 93 113 118 118 117 122 126 121 124 122 116 120 117 112 107 104 101 99 96 98 99 103 102 104 102 103 101 103 101 104 102 102 105 103 99 102 98 94 
110 110 107 110 106 109 103 99 99 101 102 103 103 100 97 92 91 91 94 97 93 96 93 93 90 97 91 94 93 96 101 97 96 94 87 86 93 91 92 92 90 91 96 115 119 118 119 120 126 122 122 117 116 116 115 112 104 102 99 97 94 99 94 98 100 100 99 100 100 100 101 99 98 100 102 98 102 100 96 86 
103 107 104 103 100 100 94 92 92 94 93 95 96 92 94 91 89 88 91 90 90 93 92 92 90 91 91 92 93 92 93 91 91 91 86 84 88 88 88 89 84 87 93 113 113 114 115 118 115 119 115 112 112 113 114 108 101 102 95 93 92 97 95 98 97 99 95 97 98 97 98 96 100 96 101 99 98 97 97 88 
97 105 102 101 90 98 92 89 88 92 90 87 91 89 89 87 86 88 88 87 89 94 93 89 88 90 91 89 84 82 82 82 87 88 87 84 86 84 87 91 85 88 93 107 107 106 108 98 93 101 102 105 108 109 109 106 99 100 95 92 90 94 92 94 94 96 96 94 90 97 96 94 91 93 94 91 94 90 90 79 
98 99 99 97 92 87 85 83 85 82 85 83 82 83 86 82 85 86 89 88 89 88 91 84 88 89 86 80 80 83 76 72 75 80 86 86 86 84 87 85 85 84 90 101 102 99 96 92 78 75 77 80 82 95 92 96 100 103 96 90 89 90 89 89 89 90 88 90 88 94 91 93 91 91 89 88 88 84 84 80 
94 96 93 91 86 84 78 76 74 76 80 80 80 76 83 78 82 80 82 87 85 87 87 84 85 84 83 74 74 80 80 69 73 76 80 83 83 82 85 83 86 82 86 97 96 92 89 84 71 66 65 66 68 77 82 88 98 97 92 91 87 83 84 86 87 84 87 86 87 89 88 85 81 82 83 81 82 83 80 75 
92 92 90 87 83 81 76 72 73 74 76 75 76 72 81 74 79 78 80 86 81 87 84 82 82 84 79 70 75 79 74 68 67 72 77 77 78 79 84 83 78 77 82 90 92 86 84 78 66 59 59 59 64 79 89 93 95 95 89 85 85 84 82 81 79 82 79 79 82 82 81 79 82 81 82 76 75 75 75 72 
91 88 85 84 80 74 73 71 68 69 69 71 72 72 70 71 78 74 79 79 81 81 83 80 82 84 81 74 70 71 67 66 69 77 76 79 76 79 81 81 80 73 81 86 87 80 75 71 58 46 48 52 57 76 84 92 92 90 85 80 77 80 79 77 77 75 77 78 79 74 75 76 77 76 73 73 73 72 68 70 
88 85 83 84 76 74 71 67 67 67 66 64 69 69 67 70 76 74 76 80 80 81 81 78 81 81 81 79 76 74 67 72 78 77 78 75 79 74 77 79 75 71 79 88 84 80 69 66 51 44 41 43 50 65 83 88 87 86 79 79 76 78 74 75 72 74 70 72 74 73 76 75 71 72 70 69 70 69 69 64 
82 83 83 78 73 70 65 67 63 64 65 64 65 62 66 65 75 74 76 76 75 81 79 78 80 81 83 80 79 77 76 79 78 76 75 77 74 72 75 74 70 70 78 80 77 70 66 58 47 34 34 35 38 55 78 81 83 81 78 77 75 72 75 69 71 74 71 71 72 73 71 68 71 71 67 64 63 63 63 62 
80 79 80 76 70 69 66 63 63 60 63 61 63 62 63 65 72 67 74 74 76 78 76 77 77 80 78 80 78 79 78 82 81 76 73 73 74 71 75 72 69 67 75 80 73 66 60 54 40 32 29 26 30 40 63 74 78 77 76 74 72 71 71 68 66 69 66 73 67 70 69 70 69 70 63 60 58 60 59 58 
82 80 78 73 68 63 65 63 61 59 58 60 58 62 60 66 75 73 72 73 73 77 74 75 76 76 76 79 77 79 80 78 77 77 76 73 72 68 69 70 66 62 72 74 70 62 57 49 37 25 20 22 24 30 37 43 63 75 72 71 70 69 69 62 64 63 64 65 67 69 64 66 69 62 63 58 58 56 58 56 
79 78 74 69 67 62 64 60 58 57 58 59 59 58 60 65 68 67 71 70 71 74 74 72 73 76 79 76 78 79 76 78 76 75 75 73 75 68 72 68 66 65 69 70 66 58 53 44 35 24 24 18 14 18 27 29 44 64 67 67 67 65 65 64 62 57 59 61 63 64 63 66 65 64 62 57 54 59 55 50 
75 77 71 68 63 61 61 60 59 58 56 57 54 57 56 67 68 68 69 69 70 72 75 70 77 75 74 77 77 77 75 75 72 76 75 68 71 65 67 66 68 56 55 55 48 44 39 36 34 31 28 22 10 15 19 18 27 51 60 62 64 64 61 60 57 56 54 58 59 60 59 65 64 56 56 53 54 52 53 47 
71 74 69 64 66 62 62 56 56 56 58 57 55 55 56 64 66 64 67 66 67 69 69 67 69 69 70 72 74 75 74 75 75 73 72 70 67 66 63 63 61 54 46 37 23 22 27 28 32 30 22 18 9 13 13 18 22 39 53 59 60 59 62 58 52 53 52 58 53 62 60 62 58 55 52 51 52 52 51 47 
73 68 65 62 65 61 61 56 56 54 57 55 53 53 58 64 64 63 67 67 67 64 65 65 63 63 64 70 69 73 69 67 70 72 70 65 66 65 62 64 60 50 42 31 23 23 26 26 38 30 18 10 7 12 10 11 14 23 47 57 58 58 55 56 49 51 52 54 52 57 57 57 53 50 54 51 50 50 46 48 
67 71 62 64 62 60 58 53 53 54 55 54 53 53 57 60 61 62 65 64 65 66 61 61 55 54 56 61 65 63 60 62 66 64 66 65 64 61 64 63 57 49 37 30 22 20 25 26 37 33 21 8 10 9 8 10 8 15 34 48 50 55 52 54 47 51 50 55 51 54 56 57 54 52 50 51 49 49 46 41 
70 65 64 61 59 55 61 54 55 52 54 52 50 51 56 59 60 63 64 66 62 66 63 61 57 59 60 60 55 52 51 49 55 63 62 65 59 56 64 60 60 44 36 26 20 24 26 27 37 37 19 12 4 4 3 3 5 6 23 45 45 50 51 51 45 49 47 47 51 50 52 54 51 48 49 47 46 43 43 35 
65 65 64 63 63 58 59 55 51 54 50 48 51 49 56 60 58 61 63 63 62 61 58 55 55 66 62 61 53 51 48 47 51 52 59 59 59 56 61 59 52 42 32 24 23 23 22 24 35 31 24 15 6 3 3 2 3 2 11 37 43 47 48 45 42 46 46 47 44 46 47 46 46 46 43 43 45 44 38 39 
64 64 61 58 61 57 58 56 56 57 53 51 51 49 55 57 58 59 59 64 63 59 56 55 58 61 61 58 50 46 47 43 46 52 58 60 58 54 57 57 55 41 34 24 23 23 27 27 31 31 20 12 7 7 3 0 1 3 5 26 38 46 45 45 39 44 45 43 41 45 45 42 44 39 45 44 43 38 40 31 
63 63 61 58 54 58 59 55 53 54 56 50 53 54 56 58 58 59 62 61 60 63 56 58 57 62 57 58 47 42 40 42 41 49 55 59 60 56 57 57 50 39 27 21 20 23 24 24 32 29 28 17 5 6 3 1 0 3 2 10 31 41 42 42 39 42 38 42 38 37 39 43 43 37 44 39 40 37 34 31 
64 64 63 57 61 57 57 55 56 51 53 51 50 55 55 60 56 59 60 61 61 62 59 57 56 62 59 54 46 43 43 43 40 55 60 59 60 56 54 54 49 40 29 20 21 22 28 23 18 25 23 17 12 6 4 0 1 3 1 6 25 39 40 35 35 39 36 33 32 35 36 40 39 39 38 36 35 35 33 25 
64 62 59 58 60 60 59 56 55 54 52 54 54 53 53 60 56 56 61 58 61 63 59 58 60 62 57 59 53 50 48 51 55 61 60 57 58 57 54 56 46 34 25 21 18 22 27 23 17 19 19 16 13 10 7 2 2 4 2 5 13 34 35 35 36 37 34 35 35 34 31 39 37 35 36 34 35 34 35 27 
62 65 61 60 62 63 60 57 57 55 53 52 52 50 58 57 56 58 62 62 61 59 58 59 58 57 59 61 58 61 60 63 60 61 57 57 56 52 53 53 47 34 28 22 24 25 28 22 19 13 15 15 12 12 9 7 4 7 3 6 11 27 34 33 36 37 33 32 33 33 37 35 33 32 33 33 33 30 29 27 
70 68 62 60 63 60 60 58 57 55 57 52 55 52 57 56 57 57 58 59 63 60 58 57 60 60 60 57 62 62 62 60 60 63 60 56 57 54 56 54 42 33 28 25 28 28 29 26 20 16 15 16 15 15 12 9 6 7 7 11 11 17 28 31 32 37 36 34 33 37 33 36 33 32 31 31 34 28 28 26 
69 70 63 62 62 63 62 61 61 57 55 56 55 55 56 57 57 56 55 58 61 60 57 56 58 55 58 58 61 63 63 61 61 62 56 55 52 53 54 52 42 40 37 31 32 36 36 33 23 24 23 22 19 19 16 12 11 8 6 14 13 20 26 32 34 35 39 31 32 36 36 33 36 31 31 32 29 27 25 18 
73 69 68 65 65 64 61 60 57 58 59 57 59 55 56 59 57 53 53 58 59 61 58 57 59 58 56 56 63 62 62 60 62 62 60 56 52 50 52 48 44 43 38 33 34 39 39 36 33 26 25 23 22 24 21 17 17 15 10 14 17 25 26 29 34 40 40 32 32 35 34 32 33 30 32 30 30 26 22 19 
73 71 67 67 69 67 63 64 60 59 59 57 59 60 60 59 56 54 53 57 57 60 57 58 56 58 58 59 60 61 60 60 58 59 61 54 52 52 50 48 43 47 40 41 41 38 41 44 35 32 27 28 26 26 24 20 18 20 14 20 18 27 28 30 37 34 34 31 29 32 35 33 29 31 32 29 25 23 25 20 
78 72 72 71 68 67 65 63 63 58 59 58 57 56 59 57 55 53 55 55 55 58 59 58 59 59 60 54 61 60 58 60 62 62 59 55 54 49 50 46 44 45 43 42 42 42 42 42 38 32 29 29 30 25 25 21 22 20 17 22 22 28 28 31 34 32 34 30 31 32 33 31 31 30 32 32 24 23 27 19 
76 74 69 71 68 71 65 67 64 60 58 57 57 56 57 56 54 51 55 58 56 59 56 58 57 60 57 57 57 55 60 57 60 57 58 54 56 54 51 48 45 48 44 41 42 42 43 47 41 35 32 30 31 26 25 21 22 23 20 24 24 29 28 28 30 32 30 26 27 30 28 32 26 28 30 29 26 22 21 21 
80 77 72 71 74 71 70 68 63 61 59 58 60 58 61 52 56 54 55 58 59 59 58 59 59 59 56 62 60 61 60 60 61 60 56 56 55 54 56 47 45 46 46 43 44 41 44 45 40 34 33 29 30 35 31 26 22 25 22 26 28 27 30 29 31 32 29 26 25 32 32 31 28 28 27 29 24 23 26 25 
86 76 76 71 76 72 75 69 68 61 63 58 59 59 56 52 55 54 53 58 59 61 62 57 62 61 63 66 68 65 64 59 62 57 57 54 52 52 50 51 48 49 46 46 42 42 45 43 40 28 31 29 34 35 34 29 29 30 32 31 35 33 35 32 31 34 35 33 32 34 38 39 36 41 39 36 38 36 29 21 


