P2
80 60
159
137 139 141 141 140 144 143 151 149 147 152 150 158 151 148 152 150 152 151 148 146 143 139 137 138 136 137 136 130 131 128 131 127 133 128 132 130 126 128 133 128 128 131 130 129 130 130 121 124 123 126 126 126 124 125 125 127 125 123 117 114 113 109 111 107 106 112 114 110 108 105 102 100 99 95 96 92 92 91 98 
140 140 139 147 145 147 145 147 145 151 147 153 154 153 150 152 154 149 150 153 147 144 139 136 138 137 135 134 136 135 132 137 136 136 134 134 134 132 129 134 132 133 130 131 136 138 132 127 121 122 127 128 128 129 128 128 126 122 123 119 118 109 112 108 112 109 110 113 110 103 102 106 102 97 97 94 96 96 94 97 
143 142 144 144 147 143 145 148 149 151 154 154 154 153 151 153 153 151 152 149 147 141 139 137 137 136 137 138 141 136 136 139 139 136 136 138 136 132 135 135 136 135 140 143 144 140 142 136 129 124 128 128 132 130 134 129 129 126 121 123 121 114 111 112 113 111 111 113 109 105 105 103 104 99 96 100 97 97 97 97 
140 141 146 145 147 146 146 149 150 154 155 154 155 155 150 155 155 153 153 150 150 144 139 140 143 140 136 140 140 141 139 138 136 139 137 140 139 133 140 136 137 141 141 142 143 145 146 140 139 131 133 134 134 135 132 135 134 126 124 123 118 117 114 113 113 114 115 111 111 110 106 107 107 100 104 102 99 98 100 99 
139 140 146 145 141 149 146 148 151 151 155 155 153 155 155 153 155 153 150 150 149 143 137 138 138 139 138 138 141 140 136 140 140 140 140 141 137 134 136 138 138 140 140 146 145 145 148 143 143 136 137 134 138 138 138 136 136 128 129 124 122 118 116 118 115 118 113 113 113 112 108 109 107 104 106 103 97 101 96 98 
137 145 144 150 143 146 147 150 152 152 157 152 153 150 154 150 152 153 152 150 150 146 141 142 138 143 139 139 138 137 137 138 135 141 137 140 138 133 134 139 135 137 143 145 147 145 146 146 140 143 139 141 140 142 139 137 134 133 127 127 123 126 119 117 118 118 116 119 115 111 108 109 109 106 108 105 106 101 98 97 
139 146 146 144 144 148 145 154 153 153 152 153 156 152 154 152 151 151 152 149 148 146 142 142 140 142 140 135 140 137 137 138 136 142 137 143 137 135 134 139 136 141 142 144 145 145 144 145 144 146 144 143 145 144 142 144 142 133 128 130 129 124 124 119 121 120 118 116 116 110 112 115 108 112 110 106 106 103 100 101 
138 141 144 148 144 146 148 153 154 153 153 155 150 155 155 157 154 154 153 154 148 144 142 140 139 141 138 138 138 139 137 138 137 142 136 138 138 131 133 134 133 136 143 143 146 144 146 142 145 147 147 147 149 146 142 144 141 138 133 132 129 129 126 121 120 125 121 120 117 115 118 114 113 111 111 109 104 107 101 103 
139 142 145 142 142 145 152 152 155 156 154 154 156 156 154 155 156 157 150 155 147 145 142 141 141 141 139 138 139 138 142 139 134 138 141 140 139 130 134 136 134 136 144 143 145 144 150 146 145 147 150 150 146 149 145 145 144 137 133 139 130 130 129 126 125 129 125 126 124 120 116 112 116 114 110 111 107 105 101 106 
137 141 145 148 144 147 149 155 158 151 156 155 151 155 152 154 155 156 154 153 149 145 143 143 143 144 140 138 135 137 137 138 138 136 137 140 136 135 133 136 133 140 141 144 143 144 144 143 144 145 145 146 145 149 145 142 139 136 136 137 132 131 131 128 128 129 127 130 125 122 120 121 120 118 113 115 109 108 103 104 
141 142 144 143 145 148 151 155 158 154 157 153 154 155 153 155 154 156 153 154 147 143 144 144 141 138 139 137 136 135 137 137 136 134 137 139 138 135 134 136 137 140 141 142 142 146 148 145 146 147 146 149 146 145 146 140 139 133 138 133 130 130 126 126 128 126 124 128 124 122 121 120 120 119 119 117 112 112 108 108 
136 139 146 147 146 149 154 157 158 153 158 156 153 156 154 156 155 156 154 150 151 145 141 142 143 141 138 139 136 134 136 137 137 133 134 139 135 133 133 137 134 140 139 142 142 143 145 145 146 148 145 146 146 143 144 138 139 136 135 131 128 126 128 123 126 123 127 126 125 123 120 122 117 122 119 118 114 114 108 108 
142 140 143 142 145 148 149 155 158 157 155 153 157 157 154 155 155 154 155 154 149 143 144 140 143 140 142 137 137 136 134 136 130 136 134 139 138 132 132 132 135 138 138 140 140 143 143 143 145 147 148 147 145 143 141 140 138 137 132 129 126 125 127 125 122 121 123 122 122 119 118 121 120 120 119 115 113 114 110 111 
142 140 145 145 143 148 153 153 156 153 155 154 153 157 155 156 156 154 155 150 145 144 139 139 139 140 138 137 137 135 134 133 132 134 134 135 135 131 132 133 129 138 136 144 139 135 140 141 144 146 147 147 147 144 142 140 135 133 132 128 122 124 122 121 122 120 121 120 119 119 117 120 122 122 120 117 113 114 107 109 
140 140 142 143 144 147 150 154 157 158 152 151 156 158 157 155 155 155 152 152 150 144 140 138 141 139 138 136 133 131 134 133 135 135 133 135 133 131 130 132 132 138 137 142 140 140 142 141 145 144 146 145 143 144 143 138 134 133 130 124 126 125 119 119 117 119 117 120 117 115 117 115 120 117 114 114 111 112 110 106 
139 139 139 142 146 146 150 154 156 156 152 154 152 154 155 155 155 153 155 150 149 143 138 140 139 139 136 136 132 133 135 136 133 132 134 133 134 131 130 131 132 137 136 142 143 139 142 141 145 142 144 144 142 144 142 139 136 131 131 125 125 119 115 116 113 117 116 120 114 116 116 117 118 117 113 115 111 113 109 110 
134 140 141 138 139 147 153 153 159 151 153 154 155 151 153 151 154 152 154 148 146 142 139 133 138 134 136 134 131 131 132 131 134 135 136 136 135 130 132 132 130 136 136 139 137 140 140 141 144 143 143 143 144 144 145 138 134 134 129 124 123 122 119 118 117 117 114 117 115 116 115 118 114 114 116 112 114 114 109 112 
134 134 136 139 141 143 152 151 152 151 149 152 153 154 151 150 157 151 151 148 146 141 138 134 136 134 134 132 132 133 132 132 126 134 128 133 133 128 130 130 132 135 135 138 139 132 135 138 144 142 143 144 139 139 139 136 133 130 126 126 123 120 119 115 120 113 115 118 112 116 112 114 116 117 114 114 114 113 107 107 
131 133 135 135 140 141 149 151 153 148 149 149 151 150 150 150 152 151 149 148 147 137 137 134 135 133 133 131 130 129 126 128 127 127 129 132 132 124 130 129 129 131 135 137 135 137 136 135 142 142 142 139 138 138 137 135 131 130 128 122 122 121 118 116 114 120 115 115 116 116 116 114 115 116 115 112 108 111 103 107 
129 132 136 136 141 140 147 150 147 148 148 149 151 152 148 150 149 147 145 140 140 134 133 130 131 130 129 127 125 125 126 126 128 128 128 129 131 128 129 128 124 132 134 134 139 137 135 134 142 139 141 136 140 134 136 131 128 126 125 124 120 118 115 115 117 116 113 114 112 111 114 113 117 116 114 111 111 108 106 110 
130 130 129 131 134 142 147 148 150 147 147 144 149 150 148 147 146 141 139 141 141 132 129 127 129 126 127 128 125 126 126 126 125 124 131 130 131 125 126 125 124 127 137 132 134 137 137 133 139 140 138 136 134 133 135 132 129 127 124 122 120 118 115 115 110 112 111 115 115 112 114 115 118 115 114 114 110 108 104 105 
128 130 133 133 138 141 142 145 148 143 147 143 144 148 145 142 146 141 138 134 134 134 131 126 127 127 124 121 123 125 122 125 123 122 126 125 126 123 124 121 123 126 129 134 135 136 131 134 136 138 136 135 135 134 135 132 127 129 125 121 119 116 115 112 113 115 115 114 112 113 112 114 114 112 114 112 108 108 109 106 
126 123 129 129 132 136 142 143 142 144 143 138 142 143 138 140 140 142 136 136 132 130 125 123 124 121 120 122 118 118 119 118 119 117 118 125 124 121 117 118 116 120 122 127 129 128 129 129 138 135 133 136 133 133 131 134 128 126 122 121 118 116 112 111 112 114 113 113 113 111 108 111 114 114 111 109 103 107 102 107 
123 121 128 128 133 138 138 141 140 140 138 137 139 138 138 139 139 137 137 134 129 126 123 125 122 117 118 114 114 118 118 116 113 117 115 116 115 109 112 111 112 114 119 117 123 126 123 128 136 134 130 133 130 131 131 130 125 124 121 116 112 114 114 110 112 115 111 114 114 108 111 112 113 109 109 107 106 105 102 104 
122 122 125 124 131 132 134 137 138 136 137 133 137 138 135 138 136 133 131 130 127 132 139 129 117 113 113 114 112 113 113 113 112 111 110 114 109 108 105 109 111 112 113 113 116 116 119 124 132 131 130 126 127 126 128 125 126 120 113 112 116 113 112 109 106 113 112 112 109 110 111 108 111 109 107 105 105 107 101 101 
119 118 119 121 126 129 134 137 134 135 134 133 132 136 131 134 134 131 130 127 126 132 141 127 111 103 99 104 106 106 103 109 108 105 109 107 110 106 108 108 108 110 113 113 114 117 115 121 131 127 128 128 125 124 126 126 119 118 115 114 110 111 111 109 107 111 113 110 110 110 108 111 110 107 107 107 103 105 103 98 
113 114 118 119 120 122 123 125 126 126 125 127 131 132 129 129 130 128 130 126 124 123 116 103 102 93 91 94 97 94 92 96 93 92 91 97 103 101 107 105 110 112 110 111 112 113 116 120 124 124 126 120 123 124 122 118 117 114 115 112 109 104 109 107 109 109 107 108 109 108 105 107 108 108 107 102 101 103 96 101 
115 111 115 111 113 109 107 106 107 109 107 110 114 114 115 114 122 124 123 125 124 116 101 93 92 91 90 89 89 88 87 90 86 82 82 90 88 93 105 107 109 108 113 112 115 109 110 115 123 124 120 117 116 121 118 117 111 111 111 108 103 104 105 106 105 106 105 106 108 107 105 104 105 107 102 101 99 99 93 95 
109 107 107 108 104 101 99 97 97 95 95 95 97 99 94 95 97 96 105 111 116 102 93 91 90 88 87 84 86 85 82 84 78 80 84 84 84 93 104 106 107 110 110 109 109 109 111 113 121 116 116 116 115 118 117 112 105 105 103 103 101 100 106 105 104 104 104 104 104 105 103 101 101 101 101 98 98 100 93 94 
109 106 105 103 97 96 94 89 88 86 93 88 90 90 87 91 90 88 89 89 94 85 89 86 88 90 84 82 84 82 79 79 77 82 79 80 83 93 100 106 102 108 108 111 107 108 108 113 118 118 113 111 111 110 110 106 103 105 102 99 100 101 103 101 101 102 100 102 102 102 104 99 100 99 99 100 94 96 90 93 
101 103 101 98 92 90 83 84 83 80 83 83 85 86 83 83 85 82 78 79 79 79 83 80 82 83 79 80 84 82 80 77 77 77 75 79 79 90 100 98 98 103 104 102 99 104 105 108 115 114 109 109 110 109 111 108 100 98 100 96 96 101 97 100 97 96 97 98 98 98 97 96 96 93 96 92 96 94 87 90 
99 95 96 95 90 84 82 78 79 80 74 79 81 78 76 75 77 76 73 75 74 73 80 79 80 78 79 77 78 79 77 76 71 72 74 76 79 91 95 95 98 98 101 99 101 100 98 95 93 98 96 98 99 106 106 106 105 99 101 94 97 98 96 98 95 93 93 97 94 97 97 97 95 91 92 87 86 93 87 87 
94 93 96 88 80 79 74 74 70 70 71 73 76 79 74 70 72 73 67 66 71 69 73 76 76 72 78 75 72 75 74 71 71 69 73 74 76 86 93 93 89 93 95 91 95 92 91 86 75 78 78 80 80 92 94 95 102 105 101 98 96 96 94 95 91 92 92 93 93 92 88 92 93 85 87 84 82 87 83 84 
88 90 90 84 78 73 70 72 70 68 67 66 72 71 73 68 67 63 62 64 68 67 69 74 74 71 71 70 75 80 77 63 62 68 68 75 71 82 88 87 86 88 90 88 91 86 82 82 70 62 67 63 67 77 84 89 97 101 101 99 93 91 94 90 90 88 87 90 86 85 86 86 91 85 83 79 82 85 79 82 
85 85 87 83 74 74 65 63 62 64 62 64 68 68 62 64 63 58 59 58 64 67 69 68 72 68 68 66 75 77 71 59 57 64 65 67 68 75 83 86 85 86 82 81 83 79 77 72 63 53 52 55 57 76 84 93 94 98 94 90 88 87 88 83 82 84 82 85 84 82 82 80 78 78 75 75 77 78 79 76 
83 85 82 81 70 66 65 64 62 59 63 61 64 65 63 56 58 54 55 55 59 62 68 64 66 64 67 64 70 71 69 55 55 61 65 61 64 74 80 80 79 80 80 80 82 74 72 65 55 45 41 46 50 70 88 91 93 90 92 87 86 82 82 82 80 78 77 77 78 76 75 76 79 72 71 70 66 74 73 73 
82 81 81 74 72 63 62 60 58 55 59 56 57 61 54 57 53 52 50 55 55 59 62 64 64 65 65 64 65 65 65 62 60 62 59 61 61 73 75 77 77 79 77 79 79 73 65 61 47 36 36 39 47 62 87 88 86 89 86 84 82 80 81 79 76 76 71 75 75 74 72 71 71 69 69 62 68 70 65 67 
82 81 77 74 70 64 60 58 54 55 58 53 58 56 56 54 48 49 48 51 55 59 63 63 61 60 61 64 59 60 62 61 59 59 59 61 59 69 74 77 73 75 72 74 71 66 62 54 45 31 31 31 35 52 78 88 89 86 85 83 83 78 76 77 74 73 68 74 75 72 74 69 67 69 66 63 66 64 62 64 
76 75 75 73 66 62 60 55 58 52 56 54 53 55 52 49 44 43 45 48 51 55 57 59 63 59 66 60 60 58 59 58 61 59 59 58 60 67 71 70 70 73 69 71 69 61 58 47 36 28 23 23 27 40 62 76 84 82 78 82 78 75 76 73 70 69 65 69 70 67 70 64 69 65 62 56 61 62 59 63 
75 74 73 69 64 60 56 53 52 51 53 51 51 51 50 46 41 38 45 45 49 53 57 58 57 60 64 59 60 58 59 57 58 59 57 56 58 66 70 68 65 68 65 67 62 57 51 41 33 26 19 14 18 29 36 43 67 74 76 78 78 75 74 69 68 66 63 64 66 68 67 66 64 61 56 55 56 62 57 60 
76 71 70 63 63 55 52 49 48 50 50 51 50 50 47 42 40 40 40 45 48 53 58 56 61 57 59 58 59 54 56 57 53 54 54 54 56 61 64 63 60 63 59 60 58 54 43 37 33 25 19 13 13 17 26 30 45 70 71 72 76 75 70 67 65 61 59 61 65 66 63 63 65 58 56 57 53 58 52 57 
69 69 68 62 58 54 52 49 47 48 48 49 48 49 42 42 37 37 39 42 48 52 52 52 52 54 53 50 55 52 47 51 49 52 53 52 55 59 59 51 42 46 47 47 38 39 35 31 29 25 24 13 10 12 20 19 32 57 67 66 70 67 68 65 62 58 55 63 62 64 63 59 61 57 55 52 54 54 51 50 
67 69 66 58 57 53 49 51 46 46 45 45 46 47 43 39 40 36 41 40 48 49 50 51 52 47 49 49 48 49 49 46 49 49 52 49 52 56 55 40 33 32 28 29 19 16 24 24 29 27 20 9 9 8 12 17 24 44 62 65 66 64 62 60 55 54 55 57 59 60 61 59 57 53 50 51 55 52 44 45 
64 65 64 58 56 54 52 49 50 44 45 46 45 44 40 39 35 37 40 39 46 47 48 48 49 47 50 47 48 48 48 46 45 46 49 48 52 56 48 34 28 27 27 24 17 16 20 26 34 28 14 8 5 4 10 14 17 25 50 56 61 63 61 58 55 55 52 58 58 57 58 54 54 49 50 49 48 50 44 52 
59 60 60 59 59 55 49 47 46 44 46 42 42 43 40 38 38 35 36 39 42 44 48 46 46 45 45 44 47 46 42 45 44 46 46 44 49 51 47 31 27 26 21 23 16 15 19 22 31 30 19 7 2 2 5 10 9 17 40 52 55 57 58 56 52 52 54 52 60 55 52 52 48 52 51 46 47 48 43 44 
60 61 61 56 52 52 50 47 43 43 43 42 41 39 39 35 34 31 34 39 42 43 48 46 44 43 43 42 43 46 41 42 41 39 40 41 46 50 40 22 19 21 21 20 17 15 19 19 30 31 17 5 2 0 5 4 3 9 21 45 50 53 54 50 48 48 47 49 53 52 50 51 49 47 47 41 44 43 41 42 
62 60 59 57 52 50 48 47 47 42 43 41 42 41 39 33 35 31 31 35 38 42 44 41 45 44 40 44 44 43 41 43 42 40 37 40 47 44 36 24 20 19 22 16 13 16 18 22 28 27 19 10 2 2 4 3 5 8 16 39 48 49 50 49 46 48 45 50 45 47 52 44 46 46 41 44 42 41 38 39 
55 56 54 53 50 51 49 47 45 42 41 41 40 40 36 35 32 32 29 32 43 39 46 42 41 42 42 43 39 42 42 40 38 39 35 37 40 40 32 21 17 19 19 17 17 16 15 20 30 28 22 9 2 2 0 3 3 5 10 29 44 47 47 47 45 46 44 46 43 42 43 45 45 42 42 39 40 40 36 37 
56 56 52 52 53 48 45 44 43 44 41 41 40 37 35 33 31 29 32 33 36 39 44 43 45 41 43 42 40 42 41 42 41 37 36 35 40 37 29 20 16 17 14 11 11 15 15 17 25 27 19 11 4 3 0 2 1 7 8 17 37 44 45 42 42 42 42 43 42 41 40 39 40 37 38 42 36 38 35 34 
56 53 55 52 50 50 41 44 43 44 42 38 36 38 35 31 28 29 29 30 37 40 43 41 42 39 40 35 38 39 39 38 35 33 31 33 39 34 27 20 13 18 13 12 13 13 14 16 16 20 19 11 3 3 0 1 3 5 3 9 33 44 45 40 40 43 36 38 37 35 36 36 41 38 37 35 38 37 34 38 
54 55 55 52 51 50 46 46 44 41 40 40 42 39 36 32 33 32 32 35 40 40 40 39 39 39 39 38 37 37 36 36 34 33 30 27 33 28 20 16 16 12 12 14 12 16 18 16 14 13 11 10 6 5 3 2 3 5 4 8 20 35 41 37 38 38 37 34 37 33 34 35 37 37 33 32 35 36 30 35 
58 57 54 52 53 49 48 46 45 42 42 36 40 39 37 33 36 37 35 39 42 40 40 36 37 37 36 36 34 38 34 31 36 33 29 24 33 28 20 15 17 13 13 13 12 17 18 16 14 13 9 9 8 6 3 4 3 4 4 8 12 31 36 36 39 38 37 37 36 36 34 31 34 31 31 30 32 35 32 31 
61 56 52 56 51 50 49 48 47 43 43 44 39 43 40 37 40 42 38 37 40 38 36 37 38 37 34 33 32 32 33 31 33 30 26 26 33 29 24 21 15 17 16 15 20 22 22 17 18 14 13 11 10 9 9 9 4 9 10 7 16 25 32 34 36 35 35 34 34 32 33 34 33 29 32 28 30 30 25 27 
63 59 60 58 52 52 47 46 42 46 41 42 42 46 43 44 42 42 42 37 37 34 34 33 37 31 31 29 32 28 27 29 28 26 23 24 32 30 29 24 19 18 20 22 25 23 25 24 21 15 15 14 12 14 13 11 10 12 11 14 17 20 28 35 35 35 34 36 33 34 31 27 29 26 30 25 25 27 24 26 
59 59 59 56 56 53 49 48 46 46 43 41 45 44 43 43 40 42 44 43 37 33 31 31 31 29 27 29 26 25 25 27 26 25 23 28 37 31 31 29 25 28 28 29 28 33 32 30 28 19 18 20 17 16 19 18 15 16 13 18 19 23 31 28 35 36 35 37 33 36 30 32 30 26 27 25 23 24 27 19 
61 60 60 60 57 56 52 50 49 46 42 45 46 45 41 46 46 45 44 45 37 34 30 26 31 29 26 25 27 27 28 28 26 23 23 30 40 34 28 27 28 25 28 32 34 34 33 33 31 27 24 20 20 20 20 22 18 18 18 19 24 28 31 30 31 35 35 37 32 32 30 28 25 26 24 20 25 23 26 25 
63 61 60 59 59 55 54 52 47 45 46 47 44 46 42 48 51 47 45 43 44 32 32 30 34 31 31 25 31 27 29 30 28 30 27 33 38 33 27 28 27 29 33 32 32 34 34 35 31 27 23 25 20 20 22 18 17 18 20 23 28 29 30 27 32 32 32 34 36 31 32 29 28 26 23 23 23 21 17 23 
63 63 62 63 59 56 51 51 48 48 48 43 48 48 46 48 46 49 46 45 39 35 35 31 32 32 29 31 28 27 27 27 28 27 28 29 31 29 26 27 28 31 29 32 34 33 32 36 32 25 25 23 20 18 22 20 20 20 19 26 29 30 29 27 33 33 29 31 30 28 26 24 25 21 19 21 19 20 22 20 
69 64 62 66 60 59 56 53 50 50 49 45 49 47 48 49 49 52 49 49 41 35 36 32 34 33 32 31 29 26 31 29 24 32 32 31 32 30 27 33 28 33 32 36 36 34 34 34 34 29 23 24 24 22 25 21 20 22 23 25 32 32 31 30 31 30 29 32 30 26 22 22 27 23 24 23 21 20 14 16 
74 64 66 66 63 61 59 58 55 54 50 52 55 51 56 55 54 55 51 50 46 41 39 37 38 34 31 31 27 28 30 32 28 33 35 35 35 31 28 36 32 32 37 44 37 36 37 39 36 27 21 25 23 28 29 26 24 25 29 34 37 33 34 31 33 34 32 33 35 24 22 24 22 20 20 22 21 21 17 19 


