P2
80 60
192
137 137 138 152 180 185 188 183 168 141 123 117 114 111 107 104 106 107 107 106 106 104 108 105 105 107 107 109 101 107 103 102 106 106 107 104 100 105 104 101 107 100 100 97 100 98 92 96 93 98 95 98 95 100 101 95 98 99 102 102 100 99 95 90 88 81 78 80 86 87 82 86 86 85 83 81 83 84 81 87 
135 136 142 160 189 188 192 188 171 141 125 113 114 113 104 105 107 106 105 108 108 105 105 105 104 107 110 106 105 105 102 100 103 105 106 101 104 104 106 100 104 100 98 98 97 96 95 94 93 95 96 100 95 95 103 103 102 105 106 102 99 96 95 91 92 87 83 81 85 86 76 77 78 80 80 81 84 86 84 81 
131 133 139 158 178 172 179 174 158 136 119 114 113 107 107 108 107 110 105 104 103 106 107 105 104 112 107 108 107 104 102 99 105 102 103 102 102 105 102 105 103 104 105 99 101 98 98 96 96 98 96 100 100 102 103 103 105 109 106 101 101 97 95 93 92 89 88 80 86 84 80 76 76 77 77 80 83 81 85 77 
131 135 138 164 166 160 156 147 140 128 116 111 107 105 106 106 104 103 102 102 104 104 105 104 105 107 108 107 106 106 100 102 105 107 105 102 99 102 102 103 101 104 101 98 96 96 97 93 97 99 101 101 100 104 103 103 107 103 101 103 102 97 91 88 89 89 84 81 82 81 78 78 74 74 78 82 82 82 85 81 
132 136 138 156 158 148 143 136 129 121 112 110 110 105 108 104 103 103 101 104 106 104 105 103 104 112 105 107 104 106 104 106 103 105 106 103 103 105 103 104 105 102 103 102 98 97 98 97 97 103 102 105 100 103 105 100 103 106 103 104 101 99 94 89 87 87 86 76 85 83 80 80 73 74 76 85 87 83 85 80 
127 132 143 155 154 144 136 129 118 112 111 110 108 106 107 103 102 103 101 103 107 103 106 107 102 107 107 105 103 106 107 103 109 105 106 103 102 101 103 105 102 106 100 101 103 98 95 96 101 100 102 104 101 99 97 102 105 106 102 100 96 98 93 86 88 85 87 84 83 83 79 79 78 75 77 86 85 86 81 85 
128 132 140 150 142 140 127 119 113 112 107 106 108 108 101 101 105 102 103 103 105 108 105 108 102 109 110 110 104 107 103 102 108 108 106 104 104 103 105 103 102 101 103 101 99 97 99 97 100 102 99 104 100 102 98 100 103 105 98 94 99 96 95 88 85 89 86 79 87 83 73 70 72 70 76 85 87 88 85 86 
133 130 135 128 125 125 116 112 110 107 104 106 105 105 107 105 100 101 104 104 104 105 107 107 103 105 108 107 104 104 104 104 104 103 105 103 106 104 99 99 100 101 100 98 99 99 97 100 99 99 100 103 98 98 95 98 100 101 97 94 96 95 89 83 85 85 81 77 81 81 74 69 69 72 75 85 92 90 88 93 
129 131 126 119 117 113 111 105 102 104 102 103 109 105 103 106 104 99 106 104 105 105 105 105 100 107 105 103 102 106 103 103 104 102 103 104 103 102 99 100 101 100 101 99 98 98 97 99 99 98 101 102 99 98 93 94 97 98 97 93 91 91 91 84 85 78 76 74 79 79 69 65 67 66 79 86 92 91 92 90 
126 130 124 113 109 110 103 104 102 106 102 104 106 105 103 104 99 103 103 103 107 104 104 107 100 106 107 104 101 103 103 102 102 101 103 102 103 102 99 99 99 99 99 98 94 95 98 96 97 99 100 100 99 97 98 98 98 96 94 91 94 88 84 79 83 76 79 73 76 70 62 61 62 68 76 89 93 93 91 95 
126 126 122 112 108 108 105 103 99 100 104 105 105 105 104 98 99 102 101 102 105 102 105 103 104 104 105 104 101 102 105 100 100 102 101 103 101 102 99 100 98 100 97 96 97 94 97 94 101 100 101 102 99 99 96 99 95 99 96 91 93 87 86 83 80 76 76 74 76 72 62 59 61 66 75 92 98 96 92 95 
128 128 123 111 105 109 102 99 102 100 99 102 104 102 102 102 98 96 106 101 102 103 109 103 102 103 105 102 103 102 99 101 99 100 102 104 102 102 99 100 96 99 96 92 95 92 91 94 98 101 100 100 96 97 99 96 95 97 95 93 91 85 86 79 78 76 77 74 76 76 61 59 61 66 78 91 101 98 97 96 
127 125 118 109 106 104 100 98 99 99 99 97 100 105 98 97 97 98 99 99 100 103 104 102 100 105 106 102 100 100 100 100 98 100 101 100 98 101 98 99 96 96 97 93 94 93 92 97 96 99 101 99 97 97 97 96 96 94 91 88 92 87 83 80 76 76 75 71 74 71 61 59 60 66 74 89 93 96 98 96 
123 125 114 108 102 103 99 99 98 99 98 100 103 101 97 101 95 97 100 98 101 100 102 98 97 101 103 99 97 98 99 99 101 99 99 99 100 100 99 95 94 95 93 90 92 91 88 91 91 92 96 95 94 93 95 94 93 90 89 90 87 87 79 76 75 77 71 70 73 69 61 58 61 66 75 86 93 94 95 90 
123 122 112 106 102 101 100 98 100 98 100 99 99 101 97 100 96 99 98 98 102 103 100 97 97 97 101 99 101 100 98 97 100 96 98 97 97 97 99 96 96 97 95 96 88 90 91 91 92 90 90 95 94 94 97 94 91 89 88 89 87 81 77 78 76 70 71 74 71 71 59 59 62 62 74 88 95 95 97 94 
122 118 112 102 103 103 97 96 97 102 99 98 99 101 100 99 100 95 100 99 98 99 101 96 99 101 100 99 97 97 97 97 98 97 99 96 96 98 94 98 95 98 96 91 91 89 88 87 91 91 93 90 90 90 93 94 89 89 85 84 84 80 77 74 71 71 68 68 73 69 61 55 59 61 74 87 92 94 97 92 
121 116 106 102 95 98 97 94 96 98 96 97 97 96 95 96 97 96 95 96 100 101 103 98 94 100 101 99 98 93 92 96 96 96 95 95 95 95 98 98 95 95 94 90 90 86 90 90 90 89 91 87 84 87 88 84 87 85 79 82 76 76 77 73 70 68 66 65 67 66 58 59 58 59 75 90 89 96 97 98 
118 112 105 95 94 98 93 95 93 93 96 96 97 94 97 98 96 96 96 95 102 99 100 97 92 100 97 96 97 93 93 95 94 99 95 94 97 96 95 94 94 95 94 93 89 88 86 90 91 91 88 89 84 89 86 85 81 83 78 78 80 79 77 73 72 68 65 64 65 69 59 61 62 60 75 90 96 97 96 93 
116 109 104 96 95 95 90 93 94 96 93 96 95 95 95 96 98 95 95 96 97 98 95 96 92 91 93 91 91 89 94 92 91 93 95 97 96 89 91 93 92 96 92 91 89 89 84 88 89 82 88 88 84 85 82 81 81 80 78 77 75 79 72 71 71 67 66 65 65 66 60 63 58 62 72 88 93 96 94 92 
112 109 105 96 92 92 91 93 93 92 94 95 94 94 95 94 92 92 92 92 92 95 95 94 89 93 87 91 90 91 87 88 89 91 91 91 92 89 90 93 92 91 91 88 87 87 86 86 87 84 85 87 85 86 81 84 81 81 76 76 77 76 72 73 67 66 67 64 64 63 59 64 63 60 72 84 91 91 91 92 
110 105 101 93 89 92 89 88 88 89 95 92 96 96 96 92 90 91 89 94 93 91 95 89 93 92 88 88 87 89 88 84 89 87 88 91 88 89 87 89 86 88 87 88 87 86 82 84 83 85 84 83 80 80 80 79 82 80 75 75 72 73 70 68 69 68 65 64 68 60 58 63 58 60 70 81 87 88 92 89 
105 101 97 93 94 91 92 86 90 94 92 92 93 96 91 91 94 89 93 92 94 91 95 90 91 90 89 86 85 82 81 77 79 77 83 79 78 84 85 86 84 86 86 86 85 82 83 86 86 83 83 82 78 81 81 84 78 77 73 73 75 75 70 70 67 64 65 65 69 64 61 65 57 60 73 82 86 89 91 90 
104 100 97 98 94 90 88 85 90 93 92 93 94 93 90 90 93 92 88 87 89 91 100 92 85 91 87 84 81 80 74 71 74 74 76 75 72 74 71 78 80 83 80 83 79 80 82 83 84 80 86 83 80 78 77 78 76 78 76 71 71 75 72 67 65 68 65 65 64 65 63 65 55 55 70 81 87 92 88 91 
103 100 95 91 88 89 87 86 89 90 87 90 91 90 93 90 93 91 91 91 89 93 90 91 82 90 89 83 78 75 71 69 69 69 69 67 66 65 66 70 70 76 75 77 78 80 83 82 85 81 82 83 82 80 80 78 79 73 76 71 76 72 71 69 66 64 66 60 64 67 64 67 56 57 69 82 86 87 90 85 
100 93 90 91 89 90 86 87 87 90 90 91 91 92 93 91 93 91 91 87 88 91 90 92 84 86 82 77 70 71 67 66 68 66 68 68 62 65 64 72 69 77 74 72 73 77 80 81 83 81 83 78 78 79 77 77 78 83 74 72 74 73 70 69 66 65 64 66 65 65 62 66 60 57 65 82 82 86 88 86 
100 96 92 93 85 86 88 88 90 87 89 91 94 89 90 89 88 87 87 88 87 89 89 88 79 85 76 72 69 69 69 65 70 66 64 64 63 63 67 69 71 72 74 74 73 77 80 80 85 79 82 80 78 77 75 75 76 80 74 71 72 68 72 71 70 65 65 62 68 63 60 65 56 56 68 83 85 82 86 85 
94 92 92 88 86 88 84 85 87 90 88 89 93 90 92 90 86 87 87 86 87 83 88 84 78 77 75 75 73 69 73 71 71 63 67 64 67 68 69 70 70 72 72 72 73 76 77 78 80 81 80 80 77 77 76 75 73 76 73 70 74 70 70 68 69 66 64 61 62 61 59 64 56 58 69 80 82 86 80 82 
92 89 88 87 86 91 86 86 88 87 92 94 91 91 90 91 89 88 86 86 86 91 84 85 75 74 71 68 67 72 72 73 74 70 70 68 69 70 70 71 71 71 70 73 74 71 79 77 77 82 85 77 73 75 76 73 70 71 73 74 71 71 70 70 71 69 63 58 62 59 60 63 56 58 68 81 83 81 84 78 
89 89 86 83 85 87 86 91 89 91 90 92 91 92 89 89 90 88 88 85 87 84 86 79 73 73 70 67 62 67 73 75 77 76 70 70 68 71 72 72 71 73 68 72 73 72 74 73 76 78 78 79 75 74 73 73 72 71 72 71 72 70 72 73 70 66 65 60 64 57 57 60 55 57 65 77 77 81 73 83 
87 85 86 81 82 87 87 85 90 90 90 94 93 93 89 88 86 85 89 86 84 84 86 80 72 68 71 69 67 70 72 74 80 76 72 68 69 74 74 70 66 74 70 66 71 71 74 76 77 79 78 80 74 76 72 75 76 74 74 70 72 70 69 67 67 65 61 57 62 60 58 61 54 58 68 77 76 80 79 70 
82 83 84 82 79 85 87 85 87 86 87 92 91 91 90 90 86 86 87 85 88 84 87 80 76 72 71 69 66 67 69 70 77 74 71 66 66 72 72 73 66 68 65 68 70 71 72 76 81 78 80 76 75 73 74 74 76 72 68 70 70 70 67 68 66 64 61 54 55 55 60 59 53 58 68 74 75 75 75 78 
78 80 82 81 84 89 86 85 86 88 89 90 91 91 87 85 81 85 87 86 88 83 89 83 77 71 71 72 67 66 69 68 73 73 74 65 71 74 72 70 66 66 64 71 72 73 73 74 78 79 79 76 74 73 75 75 73 72 68 68 71 68 69 71 66 62 61 58 59 54 56 60 51 58 64 72 70 75 74 75 
79 81 85 81 85 88 86 85 87 84 86 86 87 86 84 84 86 88 89 86 87 82 90 85 76 70 67 65 64 70 63 67 68 72 69 67 66 70 67 67 63 61 60 70 73 69 71 77 80 78 78 79 77 76 77 75 72 70 71 66 68 67 63 69 64 62 60 62 61 55 60 52 52 53 64 68 66 72 66 64 
77 78 82 84 84 83 82 85 86 84 86 85 89 86 87 85 85 87 85 87 87 86 88 82 78 71 68 63 61 61 66 59 67 70 72 68 65 65 67 66 63 61 65 72 72 73 72 72 76 73 78 77 75 76 78 75 72 72 72 67 70 64 67 66 64 59 61 60 58 61 55 53 49 50 61 61 64 66 61 63 
72 80 81 81 86 81 83 82 81 86 87 85 86 87 87 85 86 85 84 87 85 84 84 79 76 73 67 62 61 64 63 63 64 68 68 69 66 70 71 67 65 69 68 72 71 69 73 74 76 74 75 75 74 74 71 72 70 72 67 65 70 68 65 63 64 60 57 56 56 55 58 49 48 51 56 55 61 63 56 63 
74 75 79 78 82 86 85 81 82 83 85 86 89 86 86 86 84 85 86 85 83 81 82 82 76 76 62 63 61 67 63 67 68 68 70 64 65 69 69 70 65 69 75 75 74 71 73 72 74 73 76 76 72 68 71 68 68 68 70 67 70 68 67 63 62 59 57 58 55 55 54 50 44 47 54 52 55 55 54 51 
74 76 83 82 80 84 83 81 82 83 83 88 89 83 87 87 87 82 87 84 85 82 82 80 81 77 71 68 65 67 65 68 68 67 70 67 69 68 69 68 68 79 75 73 73 74 76 74 75 74 75 75 71 71 77 71 72 70 70 68 73 66 68 64 62 60 60 56 54 52 52 47 45 47 48 51 53 51 46 45 
73 76 84 81 82 82 83 83 81 86 86 85 86 83 84 85 85 89 86 82 85 82 80 82 81 83 78 72 67 66 67 68 71 69 71 77 71 70 67 72 74 76 73 78 75 77 74 73 79 77 75 72 69 76 72 70 72 71 69 69 70 64 66 61 64 62 58 51 52 49 54 47 44 47 48 43 46 43 45 40 
72 75 82 79 81 84 86 81 84 85 84 84 83 86 86 83 85 85 89 83 86 82 84 81 80 84 86 82 70 68 65 67 71 67 74 76 72 71 75 79 79 80 76 75 75 75 74 75 79 78 77 76 72 71 72 73 73 72 69 68 68 67 66 64 67 60 53 54 51 51 50 43 44 47 46 43 41 44 41 43 
75 79 79 76 79 81 83 82 82 81 84 85 83 84 86 83 83 82 85 82 83 82 85 83 80 84 84 85 80 77 70 68 70 70 75 76 75 78 81 79 75 79 78 76 73 74 75 72 74 80 76 76 70 71 75 73 72 72 69 68 70 65 69 64 65 61 58 53 52 49 47 46 48 47 42 41 39 42 37 41 
70 77 81 78 80 82 84 81 83 83 83 85 88 86 85 83 84 83 82 84 85 84 83 81 83 85 85 83 89 82 79 79 77 81 82 83 83 79 80 80 78 81 77 74 76 73 74 73 73 78 78 78 74 70 74 73 71 69 69 67 68 67 66 61 62 60 60 52 54 54 47 43 43 49 45 40 37 41 37 34 
71 77 79 82 80 81 81 82 81 82 83 83 84 85 82 83 86 83 84 83 84 84 81 81 81 87 84 83 85 80 81 79 80 83 83 83 80 79 80 81 84 82 80 74 79 75 76 74 76 75 77 76 73 73 72 73 74 71 67 66 68 70 68 65 63 62 59 55 51 53 49 42 43 50 37 36 36 37 37 33 
73 76 82 78 77 83 85 82 81 85 84 83 84 83 83 82 83 80 84 85 82 82 84 81 81 85 85 81 87 85 82 79 82 84 85 83 81 81 80 79 81 81 80 77 80 76 79 80 76 81 76 76 74 74 70 73 74 75 72 69 72 68 66 63 57 59 56 52 51 50 49 42 45 47 40 35 36 36 32 24 
68 71 81 80 78 82 80 79 80 85 83 82 84 85 84 82 83 83 82 78 81 82 85 85 79 83 80 82 82 82 84 79 81 81 82 81 82 80 82 80 82 84 84 79 82 79 77 82 77 77 80 78 76 72 73 70 70 73 69 67 73 68 65 62 61 58 57 49 49 51 48 43 45 48 40 38 34 33 30 28 
70 73 76 77 77 81 80 82 84 85 82 85 82 86 85 83 82 84 86 84 81 79 85 82 79 82 80 86 85 86 82 81 82 81 83 85 85 81 82 82 84 84 82 82 82 80 80 79 81 77 80 77 76 75 73 73 69 76 71 69 69 68 68 64 62 60 55 52 51 54 45 41 43 44 38 31 31 31 28 26 
71 74 78 78 78 80 82 81 82 82 84 86 85 85 82 84 83 84 86 83 84 83 86 81 77 84 84 86 81 83 82 79 81 79 82 83 83 84 84 82 85 85 84 83 82 85 80 81 76 77 78 80 76 74 72 73 74 77 69 66 65 67 69 66 60 55 57 56 48 53 46 43 43 46 37 31 35 32 25 22 
70 74 78 78 78 79 82 81 84 81 82 83 81 79 81 82 82 82 84 82 83 81 83 83 79 81 81 81 84 82 82 83 81 80 84 83 81 81 83 85 83 86 85 83 83 81 78 79 76 77 81 78 75 74 73 74 73 74 75 67 69 65 64 63 60 58 56 51 51 50 44 37 42 44 33 27 27 28 24 20 
67 74 75 78 76 82 79 81 83 87 84 82 80 83 82 82 81 82 86 82 85 82 84 81 81 82 81 82 86 80 83 80 80 80 83 80 80 81 83 84 82 80 85 81 83 82 81 79 76 75 80 79 75 77 75 75 77 78 74 71 65 66 64 64 61 61 56 56 53 50 42 42 41 43 34 27 27 25 20 15 
69 73 75 78 78 81 79 80 81 86 84 80 81 82 82 86 83 86 84 82 83 85 81 83 81 84 82 85 85 82 82 81 81 84 84 80 83 82 84 83 86 86 82 82 84 82 82 78 78 76 79 79 78 78 75 71 74 78 74 74 70 69 63 62 65 59 55 52 53 48 44 40 45 45 29 22 25 22 14 11 
69 73 75 75 75 80 77 78 78 80 82 80 83 82 84 81 81 84 85 85 82 83 80 82 82 83 86 88 83 85 81 83 80 82 85 85 83 85 84 80 87 85 84 82 83 79 78 79 77 75 77 78 75 79 77 74 77 80 77 71 72 68 61 65 63 57 56 53 50 52 41 41 43 41 28 19 22 20 11 15 
67 72 75 75 76 80 79 78 80 81 84 81 85 81 78 81 84 82 84 84 82 82 81 81 80 80 83 81 82 84 83 80 83 83 83 84 85 84 83 85 85 83 86 83 84 81 82 82 81 79 77 76 76 74 75 73 75 77 73 74 71 68 67 62 64 61 54 54 52 51 45 43 46 41 29 18 19 17 17 10 
68 75 80 78 78 78 83 79 77 80 77 79 84 78 80 83 82 86 82 83 86 84 82 82 80 82 84 83 85 86 83 84 84 83 84 82 84 82 82 83 84 83 82 83 81 80 80 79 80 81 78 77 75 71 73 75 75 76 73 71 74 73 64 63 62 59 56 51 52 52 45 44 43 38 25 19 16 17 15 10 
71 79 80 80 79 79 78 79 78 77 79 80 82 80 83 83 83 85 86 81 87 87 86 87 81 83 85 82 82 78 84 80 83 85 83 83 81 84 85 83 80 84 84 82 82 82 80 80 80 79 80 81 77 75 74 75 73 77 73 71 75 70 65 63 64 61 56 51 50 45 43 46 45 40 23 18 16 16 13 12 
72 81 83 79 78 79 80 77 79 78 78 80 81 83 81 82 84 84 83 84 86 85 89 85 80 83 84 84 81 83 82 84 83 84 81 81 81 81 85 84 82 82 84 82 82 80 78 82 78 80 80 76 76 76 74 72 74 74 75 73 76 72 68 61 63 59 60 52 49 46 45 43 46 39 22 13 14 13 14 13 
75 80 81 78 79 85 78 76 77 79 78 79 78 79 81 82 81 79 81 85 85 84 85 83 83 83 82 83 80 83 82 82 80 83 86 87 83 80 85 83 85 85 83 84 82 80 79 81 83 79 79 77 74 75 74 75 74 80 72 73 76 73 71 63 64 62 59 53 48 48 45 44 44 38 21 15 13 10 8 7 
73 81 79 80 79 84 77 76 76 79 81 82 79 81 83 81 81 79 83 80 85 83 83 87 81 84 81 85 81 81 87 82 83 84 85 84 82 84 84 82 80 86 85 83 83 81 81 80 77 79 79 77 77 78 79 78 75 79 75 72 74 71 68 64 65 64 57 52 47 49 44 42 44 37 21 15 11 12 6 6 
73 82 83 83 78 80 77 77 76 75 79 79 85 83 79 75 81 81 78 79 82 82 82 81 79 84 82 86 80 83 82 83 83 84 84 82 86 86 86 85 80 88 86 86 87 83 81 80 80 81 80 82 77 78 77 78 76 77 75 69 71 69 68 66 65 60 60 51 46 48 45 46 39 33 20 13 10 10 6 0 
76 84 87 84 83 81 79 78 80 80 77 78 81 79 77 79 79 80 84 83 79 81 80 81 80 80 84 85 80 84 81 84 81 83 84 83 83 88 83 84 85 87 88 84 85 85 83 83 80 83 82 84 80 77 82 77 77 76 75 72 71 69 68 67 63 66 59 53 48 50 47 45 44 35 17 12 12 8 7 7 
83 81 85 85 85 86 82 82 79 79 83 79 80 82 80 79 82 80 79 82 79 79 86 81 79 84 82 82 81 83 82 83 83 85 85 88 88 90 88 86 84 88 88 88 89 84 83 84 87 82 84 80 81 82 83 81 77 81 79 74 76 73 71 71 71 63 64 53 47 50 45 48 43 36 19 13 10 6 9 10 
88 85 88 90 90 88 85 82 84 84 86 85 84 85 81 78 78 79 80 79 80 82 88 81 83 80 81 83 83 88 85 88 86 85 89 90 88 91 90 86 86 89 88 88 86 86 88 87 84 80 80 81 79 79 78 78 73 77 75 73 72 72 68 65 60 59 50 43 43 43 44 45 40 37 17 12 7 4 4 6 


