P2
80 60
198
152 155 145 148 147 146 149 151 154 152 155 154 153 146 148 143 140 135 134 136 136 134 137 135 136 132 126 128 125 121 126 125 126 128 125 126 124 121 120 121 127 122 122 120 120 119 123 117 121 120 120 118 123 122 122 122 116 112 112 108 105 102 105 107 105 100 100 96 94 92 90 93 88 88 89 79 81 81 82 78 
144 147 146 151 147 144 147 152 150 153 156 152 150 147 147 141 140 140 138 140 137 137 139 141 140 140 135 133 131 125 127 131 133 132 129 129 133 129 129 125 133 127 125 123 122 124 127 118 119 122 122 121 125 121 122 121 119 112 113 109 107 104 105 108 107 104 99 97 98 92 89 91 86 86 86 81 81 78 80 84 
146 146 146 152 149 146 148 153 152 157 157 152 152 152 152 141 143 143 138 140 138 142 140 140 143 142 142 137 133 129 134 134 139 139 137 138 138 136 137 136 138 134 133 132 131 133 132 124 125 122 124 124 125 117 125 121 121 117 117 111 110 107 107 110 110 106 107 103 101 97 93 98 93 92 87 82 82 80 81 84 
137 145 144 151 150 148 148 152 155 153 153 153 153 152 149 144 142 141 141 139 142 141 143 142 143 139 138 140 137 136 138 137 140 138 135 139 136 137 141 140 144 142 140 139 138 135 141 130 132 131 129 128 127 124 122 124 123 118 118 113 113 110 110 112 113 111 105 104 104 103 100 96 96 94 94 88 86 82 83 82 
137 143 145 147 148 147 149 152 152 153 156 154 153 151 151 145 140 141 142 141 144 140 142 144 146 141 139 138 138 137 136 137 140 140 139 141 135 137 140 141 145 141 141 141 139 142 142 135 134 132 133 134 129 128 128 126 123 120 119 117 113 111 109 115 112 110 108 105 103 105 99 99 101 96 95 86 89 86 84 84 
140 143 143 149 147 149 153 157 152 157 158 155 160 153 152 148 141 140 139 139 140 142 141 146 144 140 138 140 136 140 139 140 146 141 140 141 139 138 139 139 144 144 142 140 140 141 142 138 139 142 138 138 135 131 132 129 128 125 122 119 118 116 114 116 116 108 110 108 107 102 105 101 102 98 99 91 91 90 87 90 
144 146 146 155 152 151 154 157 156 158 160 160 158 155 151 144 144 142 142 141 144 141 143 142 144 144 143 141 141 141 141 139 141 142 141 139 139 138 138 141 144 145 142 140 141 145 142 140 144 144 145 141 138 137 134 132 129 123 125 122 120 117 113 119 117 111 113 112 108 105 106 104 103 102 99 95 95 90 89 88 
142 149 151 154 151 150 151 156 152 154 162 155 156 157 153 144 144 144 146 143 143 142 145 141 143 146 143 139 139 140 143 138 144 141 139 143 138 136 137 136 142 140 144 141 140 141 143 140 146 150 149 142 143 145 139 137 132 126 128 124 123 118 120 120 118 117 116 113 112 113 108 105 104 104 102 94 97 92 94 95 
144 148 148 152 155 151 153 157 154 159 161 157 158 156 153 147 146 148 144 144 144 142 144 143 144 146 144 138 138 142 141 138 143 143 142 139 139 140 137 139 142 142 142 142 140 144 147 144 151 152 150 143 146 142 141 138 134 131 135 128 126 123 123 121 122 121 118 114 112 109 110 109 108 107 103 99 98 97 95 97 
140 151 145 149 152 151 150 157 156 156 159 158 160 158 156 147 144 147 145 146 144 145 149 144 147 146 144 138 138 137 139 138 142 146 141 139 137 135 142 139 143 142 141 139 141 140 145 141 148 149 149 143 144 143 139 139 136 134 131 127 127 126 124 124 123 125 121 121 117 112 110 112 111 105 105 102 103 98 96 96 
142 145 147 148 147 154 152 153 151 150 153 156 159 155 154 147 145 142 146 144 144 142 143 144 143 145 139 139 137 136 139 142 142 141 141 140 136 136 139 138 141 140 142 140 141 143 144 141 151 150 146 143 140 142 138 138 134 130 129 127 128 122 121 125 127 127 123 121 118 114 115 116 114 109 110 108 103 102 100 99 
139 141 144 147 151 156 158 157 155 157 157 156 154 153 154 143 143 141 141 142 141 142 142 143 145 144 139 136 136 134 136 138 139 136 138 140 140 135 138 140 139 142 143 139 139 143 143 144 150 149 148 146 141 139 137 135 134 130 128 127 121 120 121 125 125 125 121 121 120 118 115 118 115 112 112 108 108 104 105 101 
140 142 146 149 149 153 153 162 151 154 156 157 156 155 151 148 144 143 143 145 145 141 144 143 144 143 139 137 135 133 136 138 140 139 141 140 141 136 137 141 140 146 141 138 139 139 142 144 150 152 146 144 143 140 138 135 136 131 127 125 121 119 119 123 119 119 119 121 123 115 116 114 113 113 111 110 109 107 103 108 
139 145 148 151 150 156 157 161 160 159 156 152 156 154 154 147 145 146 141 143 140 141 144 145 142 140 141 137 137 131 135 137 140 139 139 142 140 138 138 140 140 143 141 138 136 136 141 141 147 148 149 143 144 140 137 133 134 128 128 122 121 115 117 120 117 115 119 118 117 113 112 115 112 110 113 110 111 107 106 107 
138 144 148 150 148 157 158 157 158 154 159 152 156 151 149 146 143 148 143 140 140 142 142 140 143 138 137 138 137 131 135 138 137 140 139 141 139 136 139 137 140 142 140 141 136 136 141 143 146 145 149 143 143 142 135 131 133 127 126 122 122 116 117 120 123 114 118 115 114 113 111 117 114 116 112 109 111 108 106 108 
141 142 143 148 153 153 158 160 155 154 158 155 152 153 151 146 143 146 141 143 139 140 141 140 141 138 137 136 132 134 137 136 136 138 137 135 138 136 138 135 139 143 138 139 137 141 142 143 148 145 146 140 140 137 134 133 132 126 125 120 117 114 117 119 120 115 111 115 115 112 113 114 112 114 112 110 109 108 107 106 
141 141 143 153 149 158 159 157 154 158 155 154 153 153 150 144 142 141 143 139 139 143 141 140 140 141 140 137 136 134 133 137 139 137 134 136 137 135 139 137 140 142 136 137 136 141 141 142 148 146 145 140 137 135 130 131 133 125 126 121 116 118 118 118 120 113 113 112 113 111 113 113 115 108 111 109 109 111 107 104 
136 139 142 148 151 154 155 156 153 155 154 152 153 152 150 144 141 142 141 138 138 138 141 139 140 137 136 135 134 132 131 134 133 135 135 134 132 132 135 135 139 139 137 134 134 138 139 143 150 145 144 141 141 134 132 132 131 126 126 123 117 116 117 121 117 115 112 112 111 110 113 113 109 109 109 108 110 108 105 104 
137 138 140 150 147 149 149 154 154 152 153 152 150 149 146 143 142 145 141 139 138 139 137 135 136 134 133 133 129 129 132 134 135 136 133 131 134 132 133 133 134 136 136 135 135 132 137 141 147 143 139 138 137 133 129 134 133 126 124 121 114 115 113 117 120 116 116 113 112 109 112 111 110 107 107 109 105 109 112 105 
134 141 136 146 149 150 150 148 153 150 154 148 147 150 145 144 139 144 136 133 132 135 132 130 137 130 126 132 129 127 130 134 135 136 136 134 134 133 134 129 135 138 134 135 129 135 135 141 145 140 140 138 134 129 129 128 125 123 123 119 115 111 112 115 118 114 113 111 112 111 112 111 109 105 107 108 107 104 102 103 
133 138 136 139 146 148 151 151 149 150 150 146 144 143 141 139 146 166 158 154 134 129 120 119 124 130 128 127 126 124 123 127 131 129 127 131 129 131 129 129 132 132 131 131 130 132 136 135 141 136 140 132 134 130 129 127 126 124 121 115 117 115 112 112 113 113 112 109 111 110 110 110 110 107 107 109 107 102 105 103 
130 131 130 138 141 147 147 148 146 148 150 142 145 143 140 137 152 198 193 184 150 135 124 119 116 115 118 118 121 116 119 113 116 118 117 121 120 119 122 120 123 127 127 127 127 128 130 133 137 137 136 131 134 128 129 130 126 120 123 119 117 110 113 115 116 111 108 108 108 103 105 106 107 106 109 105 105 106 102 97 
127 131 132 140 141 144 145 146 144 147 147 141 144 142 137 132 148 181 165 147 128 120 110 109 109 104 107 105 108 107 106 106 101 103 101 110 105 102 100 102 107 111 110 113 118 121 125 130 133 133 133 130 131 124 126 129 123 122 118 119 112 112 114 115 112 111 110 111 105 105 106 105 107 107 103 103 105 102 99 99 
128 133 134 138 141 143 145 145 144 144 143 141 141 140 136 130 135 149 135 120 112 106 104 102 104 100 100 99 104 98 98 97 98 97 98 99 98 97 94 98 103 101 94 91 111 121 120 130 133 132 130 130 129 123 124 121 121 116 119 111 110 107 108 110 112 112 113 108 107 106 105 104 103 105 107 106 104 101 98 95 
121 130 130 139 138 142 142 141 142 139 144 140 141 137 137 127 123 125 111 108 100 101 98 97 100 98 98 95 98 97 93 89 91 92 93 92 92 89 89 101 96 91 88 91 109 117 120 124 131 126 124 126 128 119 119 116 115 113 112 108 107 102 106 104 107 109 112 110 108 106 104 104 103 100 102 103 101 102 97 100 
120 120 126 132 137 137 134 137 138 137 136 136 137 131 131 123 116 105 99 100 97 95 95 98 99 95 98 93 92 87 88 90 91 92 93 90 89 90 90 93 92 89 91 108 108 114 117 124 126 127 126 125 128 122 121 117 111 108 107 104 105 105 104 106 106 103 108 105 106 104 102 105 103 101 101 103 103 96 95 94 
118 120 122 127 129 134 130 135 135 137 133 133 132 131 129 124 112 101 97 97 95 95 96 96 96 95 95 92 89 82 89 88 90 92 89 89 90 87 88 90 92 91 92 108 108 116 116 123 124 123 124 123 122 121 119 117 110 105 106 101 100 101 102 105 104 102 107 104 105 103 100 100 101 101 101 99 98 96 92 89 
116 116 118 120 115 116 120 122 114 121 124 124 126 123 126 115 105 92 90 93 93 95 93 93 96 96 91 89 88 84 87 91 88 91 87 91 90 87 87 87 90 90 89 107 109 110 116 120 119 118 118 117 122 123 115 113 107 105 105 105 101 103 103 103 101 102 100 102 104 103 101 98 99 98 97 94 95 91 92 94 
105 107 107 106 103 103 104 103 99 103 104 101 105 104 101 97 95 91 90 96 93 93 96 91 93 91 92 89 88 86 88 89 92 89 88 91 88 87 86 86 87 89 89 101 104 109 114 119 116 117 117 115 117 117 116 109 106 103 106 102 101 100 99 99 101 101 102 99 97 96 95 99 96 98 96 94 97 92 90 91 
104 102 108 105 100 97 96 97 88 91 93 94 95 90 89 84 88 92 88 92 95 95 94 90 93 95 95 88 93 89 87 90 93 94 88 86 90 82 85 85 90 89 86 100 107 106 112 116 114 115 112 109 115 112 106 104 105 103 101 95 97 98 99 99 101 100 98 99 97 92 96 98 98 96 97 96 97 90 87 87 
104 105 101 97 90 94 90 94 88 88 87 86 89 87 85 77 81 87 87 89 91 90 94 92 94 94 91 89 89 88 92 92 91 91 89 88 86 82 83 82 88 88 86 104 109 107 110 113 112 113 108 110 109 105 103 99 102 96 96 93 97 97 96 99 102 99 99 99 96 96 93 94 98 93 93 96 91 90 83 85 
98 99 98 94 87 81 82 83 81 82 82 78 82 80 74 71 76 80 83 86 88 88 89 90 92 92 88 90 92 94 96 93 93 88 83 85 87 81 85 86 85 83 83 95 100 98 100 95 110 108 107 106 104 105 98 95 98 94 92 88 91 94 98 94 100 97 97 98 94 88 92 92 90 88 88 90 86 83 80 82 
93 91 88 89 81 83 77 76 76 75 73 75 79 74 70 68 75 82 81 81 82 83 88 86 89 87 87 94 127 133 111 105 96 86 81 86 86 78 82 84 83 80 79 91 91 93 89 76 79 83 87 92 98 100 99 98 97 94 93 87 89 93 91 94 95 95 93 94 91 95 91 90 85 87 86 86 85 79 75 80 
90 90 85 83 73 75 77 75 70 69 68 70 73 74 66 63 74 81 79 83 83 85 86 89 88 87 87 114 155 142 111 101 101 85 79 82 82 79 83 84 81 78 77 87 84 83 80 66 61 66 69 71 77 80 89 102 97 95 100 89 88 85 89 91 92 88 90 93 86 88 84 84 84 77 78 80 77 72 76 68 
84 90 81 75 74 72 68 71 65 67 68 68 73 68 66 63 73 77 73 80 78 79 84 81 85 83 85 119 142 142 111 102 105 95 76 79 78 77 82 83 78 75 72 86 80 77 73 59 51 55 54 59 69 79 86 97 96 92 93 84 88 85 84 87 87 83 87 84 83 80 83 82 79 73 72 72 73 67 64 68 
82 83 80 74 65 70 68 68 62 65 67 63 63 62 63 65 71 80 74 75 79 80 78 80 81 85 81 107 144 152 111 108 110 92 76 76 74 78 79 77 74 70 69 81 75 72 65 48 48 50 50 52 73 89 88 92 93 92 88 81 79 80 75 78 81 78 81 79 74 76 74 76 72 64 67 69 69 62 64 63 
82 81 77 71 68 64 60 63 57 61 63 63 63 60 63 64 70 76 71 78 78 78 79 77 76 76 77 94 161 171 118 111 112 82 78 74 74 75 77 75 72 65 65 74 69 65 58 47 41 39 43 46 69 82 83 89 87 88 84 75 78 78 73 72 78 76 75 72 70 69 70 71 70 66 66 65 63 57 59 59 
77 79 73 67 63 61 60 61 58 58 61 60 59 57 57 64 72 74 70 75 76 75 75 72 74 75 74 81 121 135 113 94 85 77 78 77 74 73 73 74 68 64 66 67 65 60 53 40 38 32 35 40 53 78 85 86 85 85 83 78 75 74 71 70 70 68 71 68 67 68 67 67 64 60 61 58 58 57 55 56 
79 77 70 65 64 61 57 58 58 56 54 56 55 55 58 62 72 74 70 77 75 75 74 70 75 74 75 72 77 80 75 71 76 75 75 75 76 74 71 71 67 62 64 62 59 54 49 36 32 32 28 34 45 69 81 80 84 80 78 77 71 75 68 68 74 71 70 70 70 66 67 66 65 58 59 58 55 51 54 50 
77 74 70 65 57 61 57 57 55 56 54 52 55 56 59 64 69 69 68 73 71 71 71 70 71 73 67 70 71 68 69 66 74 75 73 77 74 73 69 70 66 59 61 61 56 50 45 31 26 23 22 21 29 45 64 72 74 73 74 71 73 68 63 63 65 61 62 69 63 66 65 62 60 54 49 53 53 48 46 50 
77 78 65 65 60 55 58 56 49 48 54 50 51 51 56 63 64 69 68 68 69 69 70 68 70 68 65 65 66 63 65 67 72 74 70 73 74 69 67 70 64 56 63 56 52 44 42 29 21 20 17 17 20 19 32 52 70 70 73 70 69 63 58 61 61 58 62 62 65 63 59 59 53 50 51 51 48 46 45 42 
72 75 67 60 55 55 56 56 53 51 52 49 51 50 59 63 65 66 67 66 68 66 66 67 70 68 67 65 65 61 65 65 73 70 69 73 71 70 69 66 64 54 57 59 50 45 41 29 26 23 18 11 12 16 19 31 65 66 70 66 65 63 59 60 60 59 58 64 64 65 61 60 52 45 50 46 50 41 42 41 
72 69 64 61 57 54 53 53 51 50 53 51 49 50 59 63 60 63 64 66 64 65 70 65 69 67 63 62 63 59 61 61 70 70 69 71 68 67 66 61 61 53 58 53 50 43 35 25 26 29 18 10 7 14 14 21 49 61 64 65 62 58 59 57 57 53 58 62 59 58 58 54 50 43 43 46 45 38 38 39 
67 67 61 59 52 56 52 49 48 48 51 44 47 49 57 60 60 64 60 64 65 60 61 64 66 63 60 59 57 53 57 62 67 68 68 72 68 66 62 59 60 51 55 53 44 39 36 29 26 22 12 7 8 11 12 17 33 56 61 58 61 55 51 51 52 55 54 55 55 53 54 52 48 42 45 42 45 37 37 34 
69 63 60 57 51 50 50 51 48 46 46 42 44 53 56 56 58 57 60 62 61 58 61 58 57 54 49 53 49 52 56 59 66 65 64 66 66 63 59 58 60 49 51 46 40 37 33 35 26 17 11 8 5 12 8 11 21 46 55 56 56 53 47 49 51 53 50 50 52 47 48 49 45 43 39 38 37 32 33 34 
62 62 56 57 52 51 49 47 47 49 48 43 43 50 50 54 56 54 60 56 59 56 59 51 53 48 47 54 51 63 82 95 84 67 63 60 61 59 56 54 55 48 47 46 38 35 34 35 32 14 10 3 3 8 8 6 13 37 53 51 52 50 48 47 50 51 47 50 50 50 46 48 44 38 42 41 33 27 29 28 
60 58 55 56 55 51 52 46 49 47 46 41 42 47 49 54 55 53 58 59 56 53 53 46 49 50 48 58 64 75 89 95 91 75 63 59 59 55 53 50 49 47 49 44 38 35 32 34 35 18 10 5 3 2 2 4 7 18 49 51 49 45 45 45 45 44 47 45 45 45 44 44 43 39 39 35 30 26 27 23 
57 59 57 54 50 52 46 49 46 48 44 41 46 47 51 52 50 55 52 57 54 51 46 41 46 46 45 48 51 54 61 70 75 71 54 53 52 52 54 49 48 45 46 44 42 39 37 32 32 21 10 5 1 3 3 2 6 10 37 47 46 41 45 45 47 44 40 41 43 40 45 39 36 36 37 36 30 21 20 25 
59 61 59 54 50 50 51 55 49 50 49 42 42 45 51 50 53 57 53 54 54 54 51 43 47 48 44 45 45 41 46 46 51 52 53 55 53 52 53 50 48 48 46 41 39 42 36 31 26 22 14 4 2 3 0 3 6 8 27 43 49 44 41 46 46 42 40 41 39 38 38 37 33 36 34 32 26 20 15 15 
54 59 56 53 51 51 49 51 45 44 46 40 40 43 46 50 50 56 50 58 50 55 49 45 47 45 41 40 42 41 37 37 40 42 52 53 50 48 53 46 44 42 39 35 33 31 32 23 23 21 13 5 2 7 5 4 3 2 17 34 47 40 34 43 41 39 36 34 34 34 39 34 32 32 32 30 28 16 17 15 
55 60 57 54 53 52 52 50 43 45 47 42 39 41 40 49 52 55 52 57 53 56 55 52 51 46 43 43 44 38 39 39 44 47 52 54 49 49 49 47 42 35 34 29 29 30 29 25 22 20 18 7 2 3 4 3 3 4 11 30 44 36 38 40 40 35 37 35 29 29 31 33 32 31 34 28 26 19 17 17 
59 62 57 56 56 54 47 52 45 44 44 41 41 37 43 50 52 55 54 55 57 56 56 54 61 53 46 48 49 42 45 45 50 52 55 54 47 46 52 49 45 32 28 27 24 26 31 21 16 17 16 8 6 4 6 4 6 6 8 18 34 36 33 38 36 34 33 32 33 31 29 29 33 31 30 27 25 18 15 12 
62 62 60 55 57 53 50 51 48 49 49 44 47 42 44 49 52 56 53 57 54 56 52 56 58 58 57 49 50 50 50 51 53 54 53 53 52 51 50 45 44 33 31 29 25 24 28 16 16 16 17 11 8 6 8 5 6 7 9 16 24 34 32 35 36 36 33 37 31 29 29 26 28 28 29 26 24 18 18 14 
63 62 58 57 58 59 52 53 48 51 51 47 47 45 47 51 51 54 53 56 53 53 55 54 57 52 51 52 49 49 50 54 55 55 52 54 53 50 49 44 44 35 29 31 25 27 25 22 15 17 15 14 14 12 11 10 11 8 14 16 23 29 34 36 40 36 34 31 31 29 28 26 27 25 28 19 18 16 9 17 
62 64 61 58 58 56 52 53 52 55 47 47 47 47 47 54 49 53 50 55 54 55 52 54 54 53 53 50 51 51 53 55 55 57 53 54 52 51 51 44 40 37 33 29 30 27 27 19 18 22 20 16 17 18 15 14 10 12 17 17 24 30 29 39 38 33 38 35 27 30 30 23 24 23 24 22 18 11 14 11 
66 66 60 63 61 60 57 56 53 51 53 50 51 48 48 50 51 51 51 53 55 55 55 55 55 54 52 53 50 49 50 51 56 57 55 54 51 47 46 46 42 40 37 31 32 30 30 24 22 24 25 23 18 21 18 17 19 13 21 21 28 31 32 38 36 35 32 35 31 31 25 26 26 24 22 17 16 14 15 10 
69 67 68 67 66 63 62 58 54 56 52 51 50 50 50 50 49 54 50 55 56 54 54 56 57 58 49 52 51 50 50 51 55 59 57 52 50 49 47 46 41 37 37 37 35 36 38 29 25 28 27 23 25 24 25 19 20 19 25 29 32 31 33 40 36 31 33 37 31 30 27 27 24 23 25 19 18 13 15 13 
70 68 62 67 61 66 58 57 50 52 50 50 48 41 50 47 47 55 51 57 53 54 56 59 57 55 54 53 50 46 50 54 57 58 57 55 52 50 51 46 41 39 39 40 36 38 37 31 28 35 30 26 24 26 23 23 24 21 31 33 30 31 32 38 39 31 29 32 29 28 25 23 28 26 25 18 17 14 13 8 
74 72 68 67 67 63 61 59 53 50 53 49 50 47 52 49 51 51 53 53 55 54 55 56 59 58 54 51 51 47 48 52 57 56 56 54 54 52 48 46 40 42 41 38 37 38 38 34 30 35 32 26 28 27 25 26 25 26 31 36 35 33 36 38 42 32 32 32 33 28 25 26 28 25 21 20 18 16 15 13 
77 73 70 68 66 68 60 54 52 47 50 48 45 49 50 49 51 55 46 54 51 55 57 59 57 59 54 53 53 53 51 54 63 60 65 56 53 51 48 47 43 41 42 41 34 34 39 32 31 37 29 22 25 14 14 19 21 27 29 40 40 37 38 47 46 33 34 34 28 29 23 23 25 23 21 19 17 18 16 15 


