P2
80 60
124
77 76 80 79 78 79 80 78 79 78 75 72 77 73 77 75 75 74 77 74 68 66 70 71 73 73 72 70 73 75 74 77 77 74 75 80 79 76 72 73 76 72 78 77 73 77 74 77 72 74 75 83 79 85 83 83 85 92 93 95 95 106 99 98 102 100 102 93 91 94 93 89 81 78 80 81 78 81 62 63 
76 79 82 79 77 80 80 79 76 78 79 75 77 74 76 81 75 78 77 76 75 75 79 75 77 76 74 72 77 77 74 77 74 76 76 77 82 75 76 75 78 78 72 76 73 76 74 78 74 74 77 78 80 80 81 82 85 89 90 89 93 97 93 99 105 101 103 100 99 101 98 93 96 90 87 88 80 81 64 64 
79 80 80 81 78 78 80 79 79 79 79 76 81 74 77 79 74 76 81 78 73 77 78 76 78 77 73 77 73 76 74 76 76 77 77 81 81 76 73 74 75 73 76 74 75 76 73 76 76 73 77 82 80 80 82 81 82 86 90 91 91 92 89 94 102 101 98 102 105 102 101 99 103 94 92 91 82 83 69 71 
76 86 82 80 83 81 79 81 75 76 77 79 77 76 80 78 78 78 79 75 75 79 76 77 78 76 74 75 80 79 77 78 78 74 76 77 78 77 74 75 75 75 78 76 76 79 78 76 75 77 77 77 84 81 83 80 81 87 89 89 91 93 90 92 106 103 109 109 104 103 107 100 100 91 93 94 84 88 72 68 
78 79 85 86 79 79 80 76 77 77 77 80 80 79 77 76 77 76 77 76 79 82 80 73 78 76 76 75 75 79 76 76 80 77 78 77 78 78 79 74 77 76 78 77 76 75 79 80 76 77 80 81 82 83 84 79 81 86 87 90 87 88 84 93 107 111 105 107 107 109 109 104 97 95 95 95 85 87 74 68 
81 82 80 83 84 82 79 82 78 77 76 76 74 76 78 78 77 73 78 77 77 79 79 78 79 75 78 77 79 76 76 77 79 74 74 76 78 79 77 75 74 74 77 78 75 78 76 74 75 74 80 79 79 79 79 81 81 84 83 86 86 88 83 94 105 108 108 105 103 109 102 104 100 100 99 96 89 85 70 74 
78 78 81 81 82 81 81 81 78 75 78 75 77 76 77 79 77 77 77 80 79 78 77 81 80 79 78 78 78 77 76 76 75 75 76 77 75 76 77 73 73 77 77 75 75 75 74 73 77 77 78 76 79 81 75 79 79 82 84 86 86 91 85 98 105 111 110 110 107 109 106 105 101 103 104 97 91 93 75 75 
77 80 81 83 81 78 80 79 76 74 76 77 78 76 76 82 78 76 77 80 77 78 80 78 79 74 76 81 80 80 80 78 77 77 76 75 77 77 73 74 74 74 75 75 74 78 75 74 72 73 76 74 75 81 78 76 78 83 83 86 87 89 83 100 108 115 116 108 105 108 104 102 109 104 104 97 94 97 80 74 
79 82 83 80 81 79 79 76 76 74 76 78 78 74 79 75 76 79 74 74 76 82 78 75 81 74 77 81 79 79 83 81 80 78 76 75 75 74 73 74 75 74 74 69 73 75 74 72 74 75 75 73 75 79 79 80 79 84 84 81 84 84 85 101 114 117 122 120 112 113 107 109 106 103 102 96 96 96 88 81 
81 86 83 81 82 83 80 75 81 78 82 75 76 77 77 81 77 79 78 79 80 82 81 79 79 81 79 78 81 86 87 89 84 82 80 79 78 76 75 73 73 76 75 73 74 72 78 77 73 74 76 75 78 82 78 78 79 85 85 82 84 83 84 106 116 118 124 120 119 118 113 115 115 110 111 105 96 99 89 81 
81 83 83 84 83 79 79 80 78 78 81 76 76 73 78 80 76 80 80 83 79 81 81 77 81 79 80 80 82 82 89 91 91 88 83 81 82 76 76 73 72 72 73 70 71 72 72 72 72 76 78 79 80 80 76 80 83 83 86 85 83 86 83 103 118 115 120 119 119 117 112 117 116 114 111 113 102 99 88 81 
83 86 87 84 80 82 79 81 78 79 79 77 78 73 78 80 76 77 75 80 78 80 82 79 80 79 77 80 82 84 95 99 95 93 85 79 83 77 77 73 73 74 75 71 71 70 74 73 72 74 78 81 78 82 79 78 79 86 87 81 82 80 82 100 114 113 118 114 114 115 113 113 114 109 113 108 103 100 93 85 
81 84 80 86 82 82 80 82 80 79 76 75 78 75 76 76 79 79 78 79 76 85 80 79 78 79 81 80 81 80 89 92 94 95 87 80 84 77 74 76 74 73 71 71 70 70 71 71 75 74 79 80 81 79 80 78 78 83 81 81 80 83 79 103 112 112 116 113 115 112 113 114 112 111 113 106 101 100 89 86 
79 85 84 81 82 82 79 79 78 77 77 73 74 74 76 80 75 79 78 79 78 77 78 79 80 78 80 79 79 81 83 86 87 87 85 80 78 75 73 78 74 70 70 71 70 69 71 73 73 72 77 81 77 78 79 77 79 80 82 77 79 80 80 99 111 110 109 110 111 114 109 112 113 109 110 109 98 96 84 81 
83 84 78 82 81 81 78 79 80 78 76 73 76 73 77 78 79 78 77 81 76 76 79 78 78 75 78 79 75 80 79 81 79 80 79 79 75 76 78 75 74 74 71 72 69 68 71 67 72 71 76 76 80 78 76 74 74 82 80 76 74 77 80 100 109 112 111 110 108 111 110 110 113 108 110 106 103 101 89 85 
80 84 84 85 85 81 78 80 79 79 75 76 74 75 78 78 77 77 74 78 77 77 76 75 76 75 74 75 74 71 73 73 71 74 73 75 74 75 79 79 77 73 73 69 68 68 72 69 68 69 70 74 77 74 76 77 76 81 78 75 74 79 76 96 108 105 107 104 106 109 107 111 115 110 108 106 100 97 87 83 
81 83 87 82 82 77 79 81 79 76 75 74 75 76 77 75 76 76 79 78 78 74 77 76 75 74 76 71 72 73 73 70 71 70 70 70 75 74 78 80 81 75 74 67 65 69 70 71 68 70 72 75 77 73 75 76 76 82 79 76 73 74 76 98 105 107 105 109 106 107 109 111 115 108 107 105 99 100 85 85 
80 83 81 83 83 82 79 78 74 78 73 75 77 77 77 74 75 78 76 75 74 74 70 71 70 73 74 70 68 71 70 72 66 68 70 70 71 70 77 75 79 79 78 72 67 69 66 67 65 71 66 70 72 73 73 74 76 79 75 73 72 73 75 93 108 104 108 105 107 108 104 108 110 111 109 103 101 99 88 88 
77 83 83 80 82 77 78 78 80 79 77 75 72 71 73 76 72 73 74 74 74 73 74 72 68 69 70 72 67 68 68 68 66 64 67 68 68 69 72 73 81 83 80 77 69 67 70 67 66 67 68 68 71 71 73 75 73 75 72 73 72 74 75 95 109 107 106 108 109 107 104 108 109 109 108 103 101 104 90 86 
77 80 83 84 79 79 77 80 78 78 76 75 73 74 73 78 74 75 73 72 71 72 71 71 72 71 69 65 66 66 67 61 64 65 68 67 68 70 72 73 80 76 76 74 70 69 66 66 66 69 65 66 64 70 69 69 74 74 71 66 70 72 76 98 105 105 105 105 105 102 105 106 107 105 107 100 97 98 88 89 
77 80 81 81 78 74 75 78 78 75 75 72 73 73 74 75 73 75 75 75 71 73 72 72 71 71 65 69 64 66 67 62 61 66 67 68 65 70 72 73 76 70 73 74 68 67 68 64 63 67 64 63 65 63 71 70 69 74 69 68 68 73 74 98 104 103 101 104 106 103 104 107 107 105 103 100 99 100 91 86 
81 81 77 78 81 74 74 76 72 75 76 74 74 74 75 78 75 73 72 74 70 73 75 74 69 67 64 65 61 64 65 63 59 60 65 67 68 74 75 76 71 68 69 69 73 69 65 66 62 65 65 63 62 61 64 66 68 68 68 66 70 70 76 95 103 101 102 106 104 101 104 106 109 106 102 97 97 98 86 86 
81 80 80 79 78 75 77 77 74 72 76 76 73 74 72 74 72 73 70 71 72 71 74 70 66 64 64 63 62 62 64 59 60 63 63 66 64 62 62 61 58 57 62 65 74 69 66 64 61 63 63 61 62 61 63 64 62 72 64 66 68 71 73 95 102 102 101 103 103 105 106 106 105 103 102 99 97 95 85 88 
75 78 79 79 79 75 76 78 77 72 73 72 71 70 73 75 72 72 70 72 69 70 67 67 62 63 60 60 59 62 62 60 60 57 56 57 50 51 47 42 45 46 49 53 60 64 62 59 59 61 62 65 62 61 61 64 63 65 64 64 69 69 74 98 101 102 104 105 106 106 105 105 102 105 102 98 95 93 87 83 
80 81 81 81 78 78 76 77 76 74 74 75 74 72 75 77 70 69 70 72 69 68 68 66 62 60 57 59 57 58 63 62 53 51 50 50 48 50 48 45 48 46 47 48 56 54 58 60 58 61 61 60 61 60 58 60 63 66 67 67 64 69 76 95 103 103 106 106 106 105 104 102 102 99 102 98 92 93 83 83 
79 82 81 83 80 73 75 76 76 74 74 73 72 70 77 75 71 68 69 70 68 70 65 66 64 59 60 60 58 58 57 52 54 49 45 42 48 50 48 49 47 47 45 46 49 51 50 58 58 57 60 61 61 60 59 62 59 65 66 65 63 70 77 94 100 104 105 102 105 104 104 105 101 96 101 96 94 92 75 81 
78 81 80 80 77 77 77 76 74 75 73 74 75 73 74 73 71 71 70 68 71 69 67 64 64 60 60 59 60 57 57 54 49 48 45 45 52 49 49 48 48 47 48 46 43 43 51 51 55 60 63 61 58 59 58 59 61 65 62 61 63 66 76 98 99 99 100 100 105 106 101 102 102 96 99 95 94 94 74 82 
80 79 83 78 82 77 78 75 76 76 75 73 73 74 74 71 71 70 70 68 68 70 67 65 66 62 61 60 60 59 57 53 51 54 47 49 53 50 49 46 48 49 52 45 44 45 51 49 52 60 59 64 59 60 58 61 56 63 63 63 60 67 77 93 99 99 98 99 102 101 104 101 103 98 97 93 92 89 73 77 
81 82 80 78 78 75 78 77 74 75 76 75 73 70 75 71 70 71 69 71 69 68 71 63 65 59 58 62 59 58 52 51 47 45 45 48 49 46 48 46 45 46 44 46 44 43 45 49 49 60 55 56 55 57 56 54 57 59 58 59 62 65 74 92 97 97 92 94 99 97 101 96 96 94 90 88 89 85 72 74 
82 80 80 79 80 77 76 78 75 74 74 75 75 73 76 72 69 70 68 72 67 65 65 64 62 63 62 63 65 55 55 48 50 45 47 48 45 48 47 44 46 46 40 40 37 41 44 48 48 58 60 58 57 56 54 58 59 59 59 64 62 65 74 90 94 94 94 94 92 97 97 90 94 92 86 87 90 86 69 73 
80 80 80 77 77 78 78 78 76 75 75 71 72 74 74 74 71 69 73 71 67 66 65 69 64 63 63 63 61 56 53 50 53 49 45 52 50 48 48 46 44 46 43 40 39 41 40 47 51 56 56 58 56 55 57 56 58 58 60 61 62 66 74 87 91 89 89 92 93 95 94 93 89 90 89 83 84 85 62 68 
78 78 79 79 83 79 77 78 77 79 75 75 75 73 74 72 75 71 71 71 70 65 66 64 64 64 63 66 64 57 54 50 49 51 47 55 52 53 49 51 47 46 44 36 38 41 41 46 51 54 56 57 57 52 58 56 54 57 61 61 60 60 73 90 90 85 87 89 87 93 92 90 86 86 80 82 81 80 67 64 
79 79 80 81 77 76 78 77 74 75 72 72 73 74 71 74 72 68 68 70 65 66 65 67 67 65 65 65 62 54 54 49 51 50 48 52 52 49 50 51 47 45 43 41 38 40 46 49 50 54 57 56 58 54 56 53 56 57 58 59 58 64 73 85 87 83 86 83 87 86 86 82 82 82 76 75 75 75 61 61 
77 77 80 79 78 76 76 79 74 76 75 73 76 72 74 71 68 68 70 68 65 68 66 64 65 64 65 64 65 56 52 51 46 49 50 50 48 48 48 44 46 45 47 39 38 42 44 47 53 52 56 55 58 55 55 51 51 58 57 58 60 62 74 79 84 81 78 80 77 80 83 79 78 76 72 70 66 71 60 59 
79 79 81 81 77 74 73 74 72 71 74 70 73 73 71 73 63 68 70 68 67 64 68 66 68 63 61 63 63 58 52 51 47 44 44 47 48 48 46 48 45 44 43 37 38 45 45 47 51 52 56 55 56 55 54 51 53 55 55 58 59 63 73 78 77 75 77 75 77 72 76 76 76 71 67 67 63 65 53 54 
78 76 82 80 78 77 78 75 76 70 76 71 75 76 71 70 69 68 68 68 63 66 66 64 66 64 63 64 58 61 51 49 47 45 43 46 45 41 43 44 46 42 43 39 40 44 47 49 51 52 51 52 51 50 49 53 50 56 56 58 57 60 74 74 73 73 70 72 70 71 70 70 70 64 61 60 60 59 50 52 
78 78 77 77 76 75 74 78 75 72 77 75 73 72 72 75 68 65 67 70 65 67 65 63 67 64 63 59 62 61 56 47 48 46 46 46 48 42 41 44 40 42 40 37 44 45 46 52 51 53 51 51 54 54 52 53 55 56 53 57 57 60 72 67 69 66 66 66 68 66 69 68 62 61 55 57 56 59 46 48 
80 76 80 79 81 74 74 75 75 77 71 70 72 72 72 72 68 66 65 66 65 60 65 65 63 63 61 59 59 62 55 52 47 45 42 44 47 42 41 39 39 40 40 42 46 49 53 49 47 50 53 53 51 52 51 50 54 56 53 52 58 63 71 71 65 65 67 67 66 64 66 66 59 56 54 54 49 54 41 42 
78 79 75 78 77 76 73 73 72 74 74 69 73 72 72 69 66 68 68 65 61 64 63 64 65 65 60 64 60 59 58 57 50 45 43 45 46 42 43 39 40 41 47 49 53 53 48 51 47 53 50 53 53 53 53 50 51 55 57 55 55 63 71 67 65 57 62 63 62 63 63 61 55 54 52 53 48 52 41 41 
82 79 78 76 74 77 73 73 71 71 71 72 71 69 72 68 64 64 66 63 61 62 64 64 62 63 61 60 60 60 56 55 54 52 47 44 44 39 42 44 47 50 51 47 53 50 50 50 49 49 52 55 49 52 53 48 52 55 55 52 54 62 68 68 61 56 54 56 61 63 59 59 55 49 47 46 44 46 33 38 
79 77 78 77 75 76 72 74 72 72 70 71 69 68 70 68 65 62 64 65 63 64 65 63 63 60 59 58 61 57 56 60 60 56 51 50 50 48 49 52 53 57 52 48 52 53 51 54 48 54 54 53 51 50 49 55 51 57 53 53 54 60 66 61 58 54 50 56 59 55 58 61 52 49 43 47 41 47 33 36 
78 78 79 77 73 75 71 74 71 71 69 69 69 65 63 66 67 66 68 64 63 64 61 64 63 58 57 61 60 59 56 62 60 56 57 57 57 54 54 52 53 56 53 52 52 53 55 56 53 54 53 54 51 50 49 53 52 60 53 50 53 59 64 56 57 50 48 53 52 58 58 56 52 46 42 44 42 44 33 33 
77 78 75 77 74 72 74 73 72 64 68 68 67 66 64 68 64 65 66 65 63 64 66 62 61 57 58 61 60 62 60 57 56 56 57 57 56 54 53 54 51 50 53 50 55 50 55 54 51 55 56 55 54 52 54 53 55 56 53 52 53 60 60 54 48 47 49 49 58 58 55 54 50 47 43 46 38 39 32 30 
77 77 77 75 70 70 71 72 71 66 69 66 68 61 67 66 66 65 63 64 63 64 63 59 62 57 59 56 57 61 58 57 52 54 54 54 53 54 51 52 52 50 54 52 54 53 56 55 52 53 54 56 55 50 51 51 52 54 53 52 52 58 57 52 47 42 45 49 50 52 51 47 48 42 41 41 36 36 25 27 
74 76 78 76 71 71 71 71 70 67 68 67 65 67 64 68 67 66 66 65 61 65 60 60 60 60 59 60 58 58 62 58 60 55 52 53 57 54 53 52 53 51 55 51 51 55 55 56 52 52 56 56 52 48 49 47 50 52 54 53 54 60 60 51 45 41 46 49 46 49 52 47 45 42 41 37 36 36 20 24 
72 78 75 74 74 72 71 69 71 68 67 65 66 62 65 69 69 66 63 66 64 64 62 59 61 57 57 58 56 60 57 57 57 54 54 54 55 51 52 54 52 53 54 56 55 56 54 51 52 52 50 52 54 51 48 51 47 51 51 50 54 60 54 47 40 38 42 47 46 47 45 44 43 42 36 36 35 36 22 24 
74 75 77 73 73 71 72 70 70 70 68 65 66 64 67 68 69 65 65 65 63 65 64 59 62 59 57 60 59 58 58 58 57 54 54 55 53 52 54 51 54 53 54 55 57 56 53 53 49 52 52 50 52 51 51 51 51 52 54 51 51 61 52 47 39 38 41 43 45 42 45 41 42 38 36 31 32 32 20 21 
76 75 75 73 72 72 70 71 70 65 66 66 65 59 68 70 71 66 65 64 66 64 63 61 64 61 56 62 60 63 59 57 58 54 51 55 53 54 51 55 55 54 55 53 54 55 56 57 53 53 50 53 50 53 54 55 53 53 56 53 56 59 54 43 38 37 40 43 40 40 39 42 39 30 31 31 33 32 18 18 
70 75 75 75 70 69 70 69 65 67 67 64 64 63 67 71 68 67 66 64 65 63 65 61 61 59 57 63 58 62 54 59 56 54 56 53 54 54 52 53 53 51 54 50 55 53 52 51 50 53 52 52 52 50 53 52 53 52 54 55 56 58 53 41 38 36 37 39 37 37 38 37 34 28 24 29 28 30 16 21 
80 78 79 75 76 71 69 70 67 71 69 65 70 64 67 67 68 66 67 65 62 62 65 61 63 57 62 60 56 60 58 56 56 57 58 58 57 58 52 52 55 54 51 50 52 52 53 51 54 51 52 54 55 51 52 50 54 55 55 56 51 59 52 39 35 33 36 39 35 35 32 33 32 25 26 28 26 24 19 16 
78 79 78 77 75 72 76 74 68 68 71 63 67 64 65 65 66 67 64 66 69 61 63 64 62 60 61 60 59 61 58 56 58 60 57 59 59 56 56 53 53 54 56 51 53 54 51 53 51 50 53 52 54 52 51 46 53 56 56 53 54 56 44 37 34 30 35 32 30 32 29 31 33 25 26 23 27 27 18 18 
79 79 77 77 75 72 76 73 72 66 65 65 64 62 69 68 65 68 66 65 64 66 66 65 63 61 60 58 59 59 58 57 56 54 54 59 60 55 52 54 54 50 52 48 51 52 53 57 53 54 52 52 53 53 53 51 52 57 56 54 55 51 40 33 28 30 32 31 30 30 28 27 28 22 20 21 23 22 17 15 
76 80 78 81 79 74 77 76 74 69 70 67 68 63 66 71 65 67 69 68 67 67 65 64 63 61 62 60 60 60 55 55 60 57 55 59 59 55 54 53 54 51 53 54 55 56 51 54 54 52 55 57 55 54 54 54 51 56 57 55 55 50 39 31 31 31 34 36 32 29 29 29 27 20 17 22 18 18 9 13 
79 78 82 80 80 74 75 75 71 69 71 66 66 63 62 68 67 66 66 66 66 65 65 67 64 61 60 60 61 58 62 58 59 59 55 60 57 59 58 57 53 58 55 57 57 62 59 57 56 53 52 55 54 51 53 56 55 52 59 56 56 54 38 34 31 31 31 34 33 33 31 26 27 17 20 19 17 17 9 10 
77 84 78 80 77 72 75 74 69 67 67 68 69 66 66 68 68 63 64 66 66 65 67 65 65 63 60 60 58 60 60 61 60 60 58 62 62 61 59 57 55 56 57 55 56 58 59 55 51 49 53 52 53 52 56 55 51 54 54 54 51 50 42 32 32 27 34 32 34 31 30 29 28 16 18 23 13 10 4 7 
80 82 79 83 77 78 74 75 73 68 69 64 65 64 65 68 66 66 69 72 71 67 67 65 67 62 65 58 60 62 62 60 61 60 57 61 60 60 57 56 56 57 56 55 54 57 54 54 47 48 54 54 52 52 54 54 54 50 52 53 53 50 41 34 30 30 31 34 31 28 25 24 23 19 17 15 13 8 9 6 
80 84 78 82 76 74 70 71 69 67 67 65 68 65 65 69 67 71 71 72 71 70 69 63 67 66 62 60 62 60 60 61 59 60 56 60 63 61 57 56 57 57 58 55 55 58 54 53 52 51 54 54 50 53 52 52 52 53 54 55 54 49 38 32 31 27 27 30 28 24 24 26 25 16 16 16 6 10 0 4 
85 83 80 81 79 74 74 74 74 68 69 67 66 65 67 70 67 69 69 70 68 66 64 65 66 61 63 63 64 60 56 54 58 58 57 62 62 58 58 58 56 54 56 55 56 56 56 59 53 56 54 57 53 55 54 53 49 53 55 52 52 49 35 27 24 24 26 26 27 22 23 21 19 11 16 11 10 7 3 2 
87 87 81 79 81 77 78 75 70 68 72 71 69 65 67 70 65 69 68 67 66 65 67 63 64 62 61 62 60 57 59 55 58 59 57 61 61 60 60 55 59 55 58 53 50 54 56 53 54 53 56 56 57 56 53 54 53 57 54 52 52 51 34 29 26 24 25 22 21 21 15 17 19 11 10 9 6 8 1 5 
94 86 83 81 80 81 82 80 76 70 70 70 71 65 68 68 65 67 71 70 68 65 68 65 68 66 62 60 61 58 59 59 60 58 58 63 60 58 59 58 64 59 61 57 57 60 56 53 54 55 56 55 59 55 57 55 53 57 54 55 53 52 34 28 26 21 23 18 18 19 13 19 17 9 10 4 0 9 2 2 


