P2
80 60
115
97 104 100 98 100 102 101 101 107 105 104 104 104 107 107 100 104 101 103 100 104 102 101 102 105 105 106 108 108 109 108 107 109 108 106 109 104 107 107 107 106 101 100 98 101 101 98 93 97 102 102 103 100 99 100 103 101 103 107 103 107 103 102 104 104 108 105 97 96 89 90 89 93 90 93 87 89 85 83 81 
101 107 103 102 101 104 104 104 99 103 102 100 104 105 101 100 101 102 105 103 104 98 100 104 105 107 109 106 107 106 106 105 108 107 110 109 111 108 111 108 106 103 104 98 100 100 101 95 101 101 100 106 97 99 100 104 100 104 103 105 105 105 108 106 105 107 104 103 95 89 89 89 90 90 90 88 89 82 83 77 
99 103 98 101 104 103 102 101 104 103 104 101 103 101 102 100 101 101 101 104 105 100 103 106 103 107 106 107 112 107 108 105 105 107 109 109 107 107 108 110 107 103 106 103 103 101 100 99 101 102 100 100 103 105 105 102 105 106 104 103 107 107 102 107 105 105 104 103 95 96 93 92 91 91 90 87 89 88 83 77 
101 103 103 106 104 105 103 102 101 105 102 99 104 104 100 101 99 98 101 100 103 100 107 102 107 106 108 110 108 108 108 107 111 113 109 109 109 109 110 107 106 105 104 102 101 102 101 99 102 102 101 103 105 104 105 103 105 103 106 108 108 105 109 105 102 107 104 103 99 96 94 97 92 89 92 86 84 85 86 78 
97 104 106 103 101 104 104 100 103 102 102 102 102 100 100 98 101 102 104 104 98 103 102 106 104 110 109 109 105 105 111 108 110 110 113 110 110 107 111 111 107 105 105 101 102 98 101 100 102 107 104 104 101 104 108 101 102 106 107 104 104 108 103 105 104 105 103 101 101 106 100 96 95 93 92 89 89 84 81 79 
96 101 103 105 106 104 104 106 104 102 104 101 103 104 102 102 101 102 102 102 104 103 104 107 104 107 111 110 108 111 111 107 110 109 108 110 110 108 111 108 106 105 103 103 103 102 101 100 103 102 104 104 102 103 99 105 105 107 105 103 101 107 107 103 101 103 105 102 101 106 100 98 96 96 99 95 91 87 84 86 
98 98 101 102 103 102 100 102 101 102 102 99 104 105 101 102 106 102 104 101 104 105 105 106 104 110 108 112 107 110 109 109 113 109 109 110 110 109 108 106 106 103 102 101 101 101 105 100 101 100 101 101 102 103 101 102 105 106 103 101 105 102 105 104 105 101 104 103 104 105 99 99 101 96 100 94 91 90 86 86 
98 100 99 98 98 103 100 101 101 105 98 100 103 106 103 105 104 105 102 103 105 106 106 106 105 108 112 112 106 109 108 110 110 109 111 108 109 107 105 104 105 103 102 100 102 99 102 102 100 104 105 104 102 101 99 103 99 103 101 102 101 104 102 100 100 98 101 97 100 102 104 104 103 104 98 98 97 91 90 90 
98 102 99 99 101 104 101 100 95 101 100 101 105 102 102 104 103 100 106 103 106 104 109 107 107 107 109 109 109 108 110 109 110 107 106 111 108 107 106 103 102 102 103 101 100 101 101 100 102 101 102 104 105 100 96 99 100 101 100 99 98 100 97 95 98 98 102 100 99 108 107 106 105 100 101 98 99 95 92 86 
98 102 101 97 100 100 101 101 101 103 100 102 103 103 102 103 101 104 102 103 106 104 105 110 103 106 112 109 107 108 110 110 108 106 109 111 110 105 105 102 108 102 102 99 98 100 100 97 101 101 102 102 102 101 99 100 101 101 97 98 100 97 96 96 100 97 95 98 99 106 110 110 106 108 104 103 96 93 90 89 
97 98 101 101 102 104 102 101 100 102 104 103 104 102 103 101 103 103 103 101 105 102 105 107 105 109 108 109 108 108 109 105 106 106 106 108 107 106 105 107 105 102 100 99 103 101 100 97 103 102 105 108 102 99 98 101 99 99 99 97 99 98 93 95 99 95 96 97 99 109 111 109 110 109 108 101 101 97 96 93 
99 101 103 102 103 100 101 100 104 100 102 101 105 102 101 105 102 98 107 103 102 106 106 106 106 108 109 107 109 107 107 108 105 107 107 109 109 109 107 102 106 100 100 98 97 101 99 99 102 103 104 104 101 101 99 100 96 99 97 98 100 97 99 97 96 93 95 95 97 109 111 115 109 110 109 105 109 100 99 94 
97 102 101 103 106 101 102 105 103 103 102 101 103 101 102 101 100 100 102 102 101 103 104 106 106 106 106 106 104 107 110 107 103 104 106 108 108 105 104 106 105 102 99 96 97 100 98 99 102 101 104 102 103 102 97 96 99 97 96 94 98 98 95 94 91 93 92 92 96 104 110 109 111 107 108 106 98 100 98 98 
97 104 100 99 101 99 99 102 102 103 102 103 102 102 100 98 98 99 103 99 100 100 101 105 101 105 105 105 104 105 111 104 104 107 104 108 110 107 103 100 103 102 100 96 95 98 96 94 99 100 101 101 100 98 97 95 95 96 95 97 91 94 94 93 91 94 92 92 92 104 106 107 108 107 105 106 100 99 97 95 
98 101 99 100 99 100 102 98 102 100 101 99 98 99 100 102 99 100 101 98 103 102 101 103 102 104 103 106 104 102 107 102 105 105 106 106 104 104 105 101 102 101 97 96 92 94 96 92 96 101 99 103 99 97 96 96 92 95 95 93 93 90 89 94 91 87 90 86 89 100 105 107 107 106 108 102 103 99 101 96 
98 99 101 103 99 100 97 97 98 102 102 100 100 102 101 101 101 98 100 101 102 102 100 100 101 104 99 100 101 100 104 103 105 104 104 103 104 105 101 102 101 99 99 95 94 92 95 95 95 100 99 101 98 98 97 96 94 96 93 93 93 90 89 88 89 88 87 85 90 101 106 107 106 104 104 101 99 98 99 96 
98 99 98 100 100 98 100 99 101 99 98 100 98 101 97 101 98 96 99 99 105 102 102 100 99 102 105 102 100 101 100 103 102 103 102 102 104 104 106 101 102 98 98 96 94 91 94 94 94 94 94 100 99 96 95 94 95 93 91 90 88 88 89 89 90 88 87 84 90 98 104 105 106 103 101 103 102 100 98 99 
98 100 99 98 101 96 98 101 100 94 98 98 99 97 99 98 95 95 98 95 102 100 101 99 95 99 100 102 101 100 101 103 103 104 101 101 105 102 102 100 100 99 97 94 91 90 92 93 92 93 92 95 92 97 94 91 89 90 91 86 87 87 88 87 84 89 87 85 87 99 100 105 106 106 105 98 98 96 98 100 
98 99 99 100 98 95 95 98 102 100 98 101 99 99 99 98 98 95 97 96 98 97 98 98 97 96 98 97 99 98 102 97 100 100 102 102 104 100 99 103 99 100 100 93 90 91 91 91 92 89 91 89 87 90 91 88 92 92 85 88 86 89 86 85 85 85 85 84 87 101 105 106 108 106 103 101 98 97 95 96 
93 100 98 97 98 97 100 98 100 103 97 99 96 98 94 97 94 94 95 93 94 96 95 95 95 97 93 93 95 98 101 94 99 100 100 100 100 100 97 100 98 98 95 93 91 91 92 88 90 90 88 89 89 89 88 86 87 86 82 85 85 85 86 86 84 88 85 82 85 98 102 100 106 106 105 100 99 97 98 94 
103 104 98 99 97 94 94 93 96 101 98 100 98 96 96 98 92 94 94 93 94 92 95 95 96 95 92 95 92 96 99 92 96 98 97 103 99 98 96 96 95 96 95 91 90 90 89 89 87 89 88 85 84 84 83 86 84 87 82 86 83 86 84 86 87 84 83 83 88 101 100 103 102 102 103 97 95 94 98 95 
95 97 99 94 97 95 95 92 95 101 95 98 97 96 97 96 96 91 95 93 95 92 91 94 91 91 89 87 84 87 86 85 87 87 91 94 92 92 93 93 94 91 90 89 88 88 89 87 89 87 88 87 82 84 84 85 81 83 80 81 83 85 86 84 85 83 82 80 85 99 99 101 99 101 98 98 95 94 94 91 
90 95 96 94 97 95 95 94 95 102 98 97 96 94 94 90 95 93 92 93 91 91 94 90 88 91 88 82 81 83 84 81 81 85 86 87 86 88 86 86 86 89 86 87 88 86 89 89 85 85 86 87 84 80 81 80 81 80 84 79 81 85 83 83 82 81 83 77 87 99 97 100 99 97 97 95 94 93 93 89 
94 96 97 95 92 93 94 98 98 95 94 95 96 95 92 94 93 93 92 90 88 91 87 86 83 84 79 79 81 80 82 78 80 79 81 82 80 76 78 80 82 84 81 80 81 84 87 82 89 86 85 85 84 81 82 79 83 78 82 77 84 79 84 84 84 81 79 81 88 98 97 101 100 97 98 97 91 100 92 89 
96 97 96 96 95 92 94 95 97 97 97 95 96 93 93 91 92 93 89 88 89 90 85 86 79 76 75 76 78 80 81 77 79 78 77 78 79 75 74 75 77 84 80 76 79 81 88 86 85 87 84 84 84 85 79 81 84 83 83 83 83 83 83 82 82 82 81 80 88 96 99 99 100 94 96 95 94 94 91 88 
95 99 94 96 92 92 93 93 99 97 96 93 95 93 92 89 90 90 89 88 85 84 82 84 71 78 73 75 77 75 80 76 82 78 75 75 75 73 71 71 70 75 80 78 77 80 82 83 87 85 85 84 80 78 79 79 78 81 83 78 80 81 85 84 84 81 81 78 89 96 97 98 97 94 95 95 94 92 89 88 
93 94 95 92 92 94 95 94 94 97 95 94 98 96 93 88 89 85 87 87 88 82 83 82 81 76 77 77 77 77 81 76 79 74 75 74 73 72 70 67 69 72 76 78 78 78 80 83 84 84 80 81 80 80 77 79 80 80 78 80 78 78 82 83 83 83 82 79 89 97 96 95 97 96 93 90 87 88 85 82 
92 93 91 89 91 95 95 94 95 95 96 97 95 94 90 93 88 88 89 85 84 85 77 85 80 77 75 77 78 77 78 78 78 76 74 70 72 71 71 67 69 64 74 75 74 78 82 79 83 85 85 81 79 76 76 76 76 80 76 78 78 81 78 85 83 83 80 75 86 94 94 94 92 93 91 88 92 87 82 77 
95 94 92 90 93 92 94 98 94 98 96 95 96 94 91 90 90 87 90 85 84 82 79 80 80 80 79 81 76 77 81 76 75 76 73 72 71 69 70 71 69 65 67 75 76 75 79 79 81 81 80 81 79 75 74 73 74 76 77 78 79 81 79 86 84 86 82 77 88 92 93 91 90 89 87 85 87 83 81 80 
92 92 89 90 89 93 94 92 98 99 96 96 94 94 91 93 87 87 93 87 83 81 79 77 79 78 78 79 78 80 82 81 78 80 76 71 72 71 74 71 64 66 70 71 74 76 78 81 78 82 81 84 78 76 74 74 76 79 80 78 79 82 80 79 83 84 78 76 87 94 90 90 84 88 86 84 82 82 80 78 
87 89 93 87 89 93 99 95 95 93 92 96 95 93 96 95 90 89 88 84 85 85 78 77 79 82 76 78 74 80 79 78 82 80 76 69 69 71 68 69 67 64 66 75 72 75 79 79 82 82 83 79 79 74 78 77 76 77 77 77 78 80 79 80 80 82 81 75 84 87 90 87 83 85 83 81 82 80 77 74 
87 91 92 90 92 93 97 95 98 96 94 95 93 91 91 89 87 85 86 87 86 81 76 74 78 82 77 72 73 78 79 76 79 75 70 68 70 69 70 69 68 67 68 74 75 77 78 76 81 83 80 76 79 79 78 78 75 76 74 75 75 77 78 82 80 80 75 74 88 89 88 85 80 81 80 74 74 75 74 72 
83 92 90 90 91 94 97 94 94 92 92 91 94 88 89 89 86 89 89 84 89 83 74 75 75 78 74 72 70 75 73 70 69 70 65 64 66 67 69 67 70 65 71 74 73 76 76 81 81 84 78 79 79 77 79 80 74 73 73 75 75 76 76 78 76 77 76 75 85 83 80 78 77 78 80 74 72 71 70 64 
83 88 88 91 89 91 90 93 94 91 95 89 91 91 91 84 88 87 87 87 89 83 75 74 76 75 75 75 68 71 72 67 68 67 65 66 67 62 64 64 68 68 72 76 74 76 76 77 78 80 82 79 80 79 81 79 73 72 73 72 76 75 74 80 77 77 75 74 80 76 77 76 74 74 73 69 68 69 66 58 
86 91 88 93 94 92 91 91 89 93 94 92 93 90 91 87 88 88 84 86 84 84 74 73 72 80 78 77 73 74 73 68 68 70 67 67 68 68 67 66 63 72 73 75 75 75 77 77 77 83 81 80 75 75 69 74 77 73 70 72 72 75 75 75 76 74 73 73 78 75 72 73 70 68 64 63 65 65 59 50 
86 88 90 87 90 92 91 91 89 90 93 93 92 88 90 88 87 91 88 87 86 82 78 75 70 79 78 77 79 81 73 72 71 67 70 68 68 68 70 67 68 75 78 78 78 77 79 78 78 79 77 78 77 71 72 76 73 73 69 72 74 77 77 77 74 74 72 71 79 76 72 66 63 61 60 60 60 57 54 49 
85 87 90 93 89 92 90 91 89 91 91 92 90 88 91 91 89 86 88 84 86 86 83 77 75 77 80 79 82 79 75 75 72 67 70 66 70 69 70 70 76 82 80 78 77 76 78 78 78 79 78 76 72 74 74 72 75 74 72 72 76 73 75 74 77 73 70 71 77 70 68 65 62 58 58 57 56 56 50 49 
84 90 90 91 91 90 93 94 87 93 91 89 90 88 90 90 90 88 89 84 83 81 84 84 78 77 81 82 83 80 75 74 73 71 71 75 72 70 72 77 80 82 79 80 79 77 77 78 80 78 78 76 73 73 73 72 74 73 73 73 72 75 76 76 78 73 72 70 75 67 67 62 60 56 57 52 50 47 48 37 
84 90 87 86 89 89 92 91 90 91 89 89 87 89 89 88 87 85 87 84 86 83 85 85 82 81 79 78 76 78 76 75 76 73 73 75 75 76 85 84 85 82 80 77 78 77 80 77 80 77 78 77 74 73 74 74 73 73 71 74 74 74 72 75 75 74 68 67 70 61 61 58 58 56 50 45 44 42 40 35 
86 90 88 89 91 89 90 92 88 91 90 91 86 88 90 90 84 84 85 84 85 84 89 86 86 88 88 83 78 81 80 76 79 79 81 85 86 86 87 84 85 82 81 78 77 79 81 75 78 83 78 77 75 74 74 75 79 73 73 73 75 72 76 75 76 75 73 69 70 61 60 59 53 55 45 43 43 43 42 34 
89 91 89 87 90 90 93 91 90 90 90 89 87 91 87 89 89 88 86 85 87 83 85 84 86 89 87 87 87 86 89 87 86 89 89 92 89 85 85 86 85 83 81 78 79 78 82 78 79 81 80 80 76 77 76 74 73 73 71 73 72 74 73 71 72 69 69 66 70 61 58 53 51 52 45 44 44 40 37 32 
88 87 86 92 89 90 88 88 87 89 88 91 89 89 88 89 88 84 87 84 86 85 84 87 89 89 91 89 90 87 92 87 89 88 90 92 87 88 87 86 88 87 83 82 80 81 81 75 80 80 76 79 74 75 77 76 75 71 70 72 73 75 73 74 75 70 68 66 72 61 54 54 53 50 42 41 42 39 36 34 
92 91 89 89 87 90 91 89 87 88 90 86 84 86 85 87 88 83 86 84 84 84 82 86 86 87 89 88 90 90 89 85 87 89 85 90 88 87 84 88 85 85 84 80 83 80 82 79 80 80 80 76 78 76 74 73 76 72 73 70 72 73 73 71 71 69 64 68 67 56 53 51 48 46 43 42 38 39 34 26 
85 87 87 91 90 90 89 89 86 88 87 86 88 87 86 86 87 88 84 82 83 83 86 87 85 89 89 87 86 89 88 87 85 86 88 88 89 87 88 87 85 86 87 82 82 83 84 81 79 81 83 77 77 76 76 72 72 73 73 73 75 74 73 75 75 68 66 67 67 54 55 52 48 42 40 37 37 33 28 25 
85 87 88 88 87 92 90 86 90 87 89 86 87 85 85 85 85 86 86 83 85 84 87 87 87 88 86 88 90 89 88 88 87 87 88 91 88 89 88 89 88 87 83 83 83 83 84 79 79 77 80 78 79 75 76 74 75 78 74 72 73 73 72 73 70 68 65 65 65 57 53 46 44 42 38 34 34 33 31 21 
89 85 88 88 89 88 91 90 88 86 88 86 84 85 86 86 87 86 87 84 86 86 86 86 82 89 89 88 89 87 87 88 85 87 89 87 89 89 91 87 88 85 88 84 86 86 85 80 79 78 79 81 78 74 73 72 72 74 74 71 71 71 72 73 69 67 63 69 64 48 46 42 40 36 35 33 31 30 25 17 
88 90 86 87 90 90 93 89 90 88 88 87 86 85 84 86 85 87 89 83 83 85 83 90 85 88 87 88 88 89 88 89 88 86 89 93 90 86 89 87 89 88 85 84 85 85 84 78 77 79 83 82 79 78 73 78 75 76 79 74 70 70 70 70 71 66 65 65 62 49 44 39 36 31 35 29 29 34 18 14 
87 88 87 86 88 90 87 90 92 89 86 89 86 84 84 88 84 85 88 86 84 88 87 89 85 87 86 88 87 89 90 87 88 86 90 88 87 86 87 87 85 82 87 85 85 83 83 81 79 77 77 78 78 75 76 74 78 76 78 71 70 71 72 75 71 67 63 66 59 43 39 39 32 32 30 27 30 25 19 16 
87 90 87 88 92 89 87 89 89 91 91 85 86 82 85 89 88 86 85 85 84 86 86 88 88 89 89 87 89 92 91 88 89 91 88 87 90 87 90 89 88 88 86 88 86 86 86 82 79 80 79 79 78 78 78 78 77 77 76 74 73 72 69 71 72 64 65 63 55 38 38 37 33 29 28 24 27 24 16 10 
86 90 84 86 87 89 88 88 85 87 87 86 89 85 86 88 83 86 87 88 85 85 84 86 90 87 89 89 88 90 88 89 87 90 90 91 91 89 89 86 86 84 84 84 84 83 82 83 82 81 78 81 79 82 76 78 80 77 79 74 75 72 71 72 72 68 65 63 53 40 33 32 31 27 25 25 23 22 15 11 
87 86 84 87 87 90 86 86 85 86 89 89 84 85 83 85 84 86 85 85 82 85 86 86 86 86 87 85 88 89 90 86 90 89 86 91 91 87 89 87 91 88 86 85 82 83 83 83 80 82 80 76 76 77 76 75 79 75 73 76 75 71 72 74 70 69 64 61 47 35 33 30 27 25 27 25 21 19 13 9 
87 89 88 84 85 87 91 87 84 87 86 88 87 84 83 86 88 87 87 85 86 89 88 85 89 87 86 89 87 94 91 91 89 90 89 88 90 89 89 89 87 85 83 84 84 83 84 83 78 83 81 78 78 74 76 75 78 75 73 71 77 76 72 74 70 67 63 62 49 40 34 27 26 25 29 24 18 21 12 7 
87 88 89 91 84 85 87 87 83 84 86 88 84 83 87 85 85 85 87 86 88 88 88 90 87 86 87 84 84 85 91 88 90 89 89 87 88 87 89 86 90 88 85 82 81 83 83 81 79 80 81 79 82 76 74 74 75 77 76 75 77 78 72 70 68 65 65 60 50 36 34 27 26 18 21 15 22 17 16 9 
85 92 91 94 86 88 88 86 83 88 86 85 85 86 86 83 89 86 87 85 88 90 91 91 86 89 88 85 88 89 87 89 91 95 88 90 89 86 92 87 87 86 85 86 85 81 86 83 78 81 81 79 78 75 76 73 74 73 77 73 77 76 73 73 72 67 69 65 49 41 39 28 25 21 17 18 16 15 12 6 
88 94 87 91 90 90 87 85 86 86 85 84 83 84 84 86 88 84 86 87 86 86 90 88 87 91 87 86 86 89 89 88 88 90 92 90 91 88 92 89 89 88 85 84 83 86 84 82 84 80 80 81 77 75 79 73 73 74 72 75 76 79 76 71 71 68 66 61 47 36 33 27 22 18 16 16 17 12 11 0 
91 94 89 91 86 88 85 85 83 87 85 84 80 83 81 84 86 84 86 83 87 87 84 90 86 89 89 87 86 89 92 89 91 87 89 92 90 90 89 85 85 88 88 82 84 82 84 81 81 83 76 75 78 76 76 75 73 77 76 73 75 73 71 69 70 68 65 61 45 34 28 26 19 18 16 13 12 8 7 4 
91 94 91 92 90 89 86 84 85 84 85 83 86 84 82 82 86 82 85 84 84 85 86 85 86 95 87 89 85 86 90 89 89 91 90 90 91 90 93 91 88 90 87 85 87 85 88 82 82 81 82 81 79 78 78 76 74 74 73 75 75 73 73 73 66 65 64 61 44 33 28 22 21 15 17 11 10 8 2 8 
95 98 92 90 91 91 89 86 85 88 87 80 82 83 84 84 83 85 86 82 82 83 87 91 85 88 90 87 85 88 88 86 88 87 92 91 92 89 89 88 89 87 90 84 86 88 85 82 83 83 83 81 80 77 82 79 75 76 74 74 76 70 72 75 69 68 61 60 43 33 27 21 20 16 11 14 6 6 8 0 
98 97 95 95 98 95 91 92 90 90 85 85 83 84 85 86 84 85 84 83 84 86 89 91 87 86 88 86 87 90 90 89 87 92 92 94 95 92 92 92 92 92 89 89 89 85 85 82 84 85 83 80 80 82 82 79 78 80 79 77 75 75 76 78 72 67 67 60 38 32 26 25 19 15 17 15 11 7 8 0 
104 96 98 100 99 100 95 90 93 93 90 88 88 87 83 83 86 85 85 85 87 89 90 90 86 88 85 89 88 92 95 91 89 92 96 98 97 94 94 92 94 92 88 89 85 84 91 86 87 85 81 85 82 84 84 83 79 82 86 87 80 83 86 79 73 71 63 57 37 30 22 25 16 13 16 14 12 7 8 2 


