P2
80 60
167
148 151 153 151 156 154 150 154 157 156 160 155 156 155 155 157 155 162 158 156 155 153 155 146 144 145 142 145 141 139 140 135 135 131 128 126 127 126 126 127 127 128 125 124 130 129 131 128 125 119 124 124 129 125 124 130 129 130 126 120 119 122 114 116 118 116 116 112 114 110 114 109 111 107 108 101 98 97 99 98 
148 152 156 151 153 152 152 158 157 158 158 158 159 157 157 156 160 156 161 157 156 155 153 151 149 148 145 146 146 142 139 141 139 135 129 130 127 129 125 131 130 130 130 128 128 129 130 127 122 121 123 126 126 127 128 130 132 125 124 123 122 120 116 118 118 117 116 117 115 112 115 108 107 108 107 101 102 100 96 96 
143 149 149 155 156 153 151 154 160 158 158 159 158 157 158 161 161 161 155 159 157 153 153 149 146 147 148 145 145 146 142 144 142 137 135 131 134 134 131 129 137 140 137 137 139 138 138 139 129 126 128 128 129 127 129 132 131 132 128 124 124 121 119 119 120 117 118 118 118 114 114 110 110 106 105 107 106 101 100 94 
148 151 152 152 155 153 154 156 158 162 160 161 158 159 158 162 157 156 158 158 160 159 153 151 147 149 148 148 149 144 145 144 146 135 135 134 135 137 132 135 139 140 142 143 146 141 144 141 134 135 132 133 136 132 133 132 131 132 127 125 125 120 123 126 124 122 122 123 119 119 115 111 106 108 106 106 103 104 103 98 
150 152 155 156 155 154 153 158 161 157 164 166 157 162 162 158 161 160 157 156 157 156 158 153 147 150 147 147 148 144 144 143 142 136 136 134 136 136 134 140 140 139 137 142 141 143 146 142 141 134 139 138 138 135 134 135 130 134 132 126 126 122 124 127 125 123 123 125 120 119 120 112 111 112 110 111 109 101 103 100 
148 150 152 152 154 152 155 160 160 164 163 158 161 161 159 159 157 159 157 160 158 156 154 151 150 150 148 146 148 149 148 147 143 139 134 132 135 133 133 135 136 138 138 143 141 141 146 144 143 139 139 142 140 137 138 133 136 134 134 128 127 129 125 131 125 126 127 126 123 121 121 115 109 116 112 113 109 105 107 100 
146 151 155 156 152 152 154 160 160 160 162 159 158 161 161 159 162 160 159 159 157 156 156 152 151 148 149 147 149 150 149 147 145 138 134 133 135 136 136 136 133 137 135 138 142 144 146 143 142 147 146 146 146 141 141 139 140 138 133 131 134 129 129 128 128 127 130 126 129 119 122 118 118 118 115 114 109 108 104 107 
147 153 153 153 151 155 154 162 161 159 161 162 160 163 160 163 160 163 158 159 157 159 156 148 148 148 150 149 148 147 150 146 146 136 135 138 134 134 135 136 138 139 137 142 146 143 146 148 143 149 152 149 146 145 144 146 145 138 139 132 137 134 129 135 129 131 130 128 126 121 125 116 119 117 116 117 114 109 109 108 
147 151 152 157 154 156 153 161 161 162 164 163 162 163 166 165 166 163 160 160 156 156 154 150 146 151 150 149 148 145 148 146 145 137 134 131 136 132 129 133 137 138 137 142 143 143 145 145 142 148 150 149 149 144 148 144 142 141 139 139 139 133 133 135 133 133 131 131 127 127 124 121 121 122 123 118 112 112 107 104 
145 147 151 154 150 156 155 157 159 164 161 162 160 165 162 161 162 162 161 159 161 158 156 151 149 149 146 150 143 146 146 148 141 138 135 136 135 133 131 134 136 137 136 136 138 143 146 146 143 149 150 151 150 145 140 142 142 140 141 134 135 135 130 131 132 136 132 132 132 130 130 124 127 120 123 120 112 115 109 112 
147 150 153 151 152 153 157 162 163 164 163 164 162 159 161 164 162 162 162 159 155 153 151 150 146 147 148 149 146 145 144 145 143 136 134 133 135 132 130 133 137 136 136 137 141 140 144 142 144 143 149 148 148 144 145 139 145 137 132 132 131 129 129 132 130 133 130 134 131 128 130 129 126 127 125 124 121 118 115 109 
147 147 153 149 153 154 160 163 161 163 160 163 159 159 160 163 159 163 158 162 160 154 152 151 148 146 144 143 144 146 139 144 137 133 135 136 134 134 133 132 135 138 136 139 141 140 142 142 141 144 149 146 147 143 146 142 141 138 133 131 128 126 128 127 130 130 130 129 127 129 130 129 128 125 124 123 122 120 114 110 
147 147 149 155 151 154 156 163 163 159 162 160 158 159 163 162 158 162 159 158 155 154 153 147 146 141 144 143 141 142 142 138 139 132 134 134 130 131 130 134 135 134 135 139 141 137 144 143 143 146 147 148 145 145 138 139 140 136 132 130 131 125 125 127 130 130 128 128 126 127 126 128 122 126 126 122 121 119 117 113 
145 151 152 150 151 151 160 167 162 162 164 161 161 159 161 163 160 162 160 158 158 155 148 146 143 142 141 141 141 141 139 139 139 133 132 133 131 129 130 130 134 135 134 136 139 140 140 142 145 147 145 146 146 146 140 139 138 136 134 129 130 129 127 127 128 126 127 126 124 123 126 122 125 125 122 121 121 116 115 110 
146 147 150 153 153 156 158 162 163 163 162 161 158 157 161 162 160 159 159 158 157 155 151 148 142 145 141 140 145 140 143 135 139 132 134 131 129 131 128 132 130 133 134 134 139 138 145 144 144 147 144 148 145 147 139 138 139 135 131 129 133 128 125 126 125 124 128 126 125 124 127 124 122 121 122 119 116 117 116 111 
143 147 149 150 151 151 159 161 163 161 162 161 160 156 160 160 156 155 157 154 155 154 148 144 144 141 145 143 141 139 141 141 140 133 129 127 132 129 126 129 131 130 133 136 139 137 143 142 143 148 149 143 145 143 139 139 139 135 134 125 131 124 122 125 125 125 123 126 124 123 124 121 123 125 123 119 118 121 112 113 
139 144 146 147 152 153 157 163 163 159 159 158 156 155 156 159 160 159 157 159 154 153 149 145 142 140 141 141 142 138 141 136 139 130 130 129 130 129 127 130 132 131 131 137 135 138 138 142 143 144 143 141 140 141 137 137 136 133 132 127 128 122 120 125 125 125 125 122 117 115 127 124 122 121 120 121 118 118 113 111 
138 140 142 145 151 154 157 157 159 162 156 156 156 157 155 155 156 155 157 153 153 152 150 143 140 140 139 139 140 137 140 137 135 129 127 126 127 127 123 129 130 132 134 133 133 136 135 138 141 144 141 137 138 137 137 135 136 132 131 125 126 122 123 121 123 124 121 121 123 119 119 122 122 120 119 120 119 115 116 112 
136 140 144 146 148 150 153 158 161 158 160 154 152 153 156 155 153 154 154 150 150 148 142 142 138 138 137 138 140 137 134 136 134 130 129 127 127 122 125 130 130 129 131 134 132 131 136 137 138 138 139 138 138 136 135 137 134 129 131 124 124 124 124 124 125 122 120 119 120 119 125 121 123 122 118 118 114 118 113 110 
134 137 143 145 148 146 152 154 158 155 155 153 151 150 153 155 150 146 149 149 144 142 143 141 135 137 135 134 134 134 136 133 132 129 124 125 126 121 123 126 127 130 129 132 131 133 132 135 138 137 137 139 139 134 131 133 130 127 125 120 125 120 120 124 122 121 120 119 117 118 118 116 122 116 120 115 115 112 116 114 
135 138 139 140 145 147 152 155 157 158 155 154 151 153 152 151 144 147 146 146 145 146 140 135 134 132 132 127 131 131 131 129 130 127 122 124 127 124 119 122 129 128 126 127 129 129 133 133 136 133 137 135 136 135 129 133 130 132 124 121 123 119 119 119 119 120 119 116 116 118 117 116 115 113 120 114 116 111 112 114 
134 135 136 141 143 151 148 155 153 155 150 151 149 147 146 149 143 147 145 144 141 138 138 135 134 131 126 109 114 122 124 125 125 121 119 121 120 119 118 123 121 122 130 128 127 129 130 130 141 136 138 136 133 131 132 132 130 129 128 123 121 118 117 115 118 118 121 118 116 117 116 117 117 115 119 113 114 112 114 108 
126 132 133 137 141 145 146 153 148 150 147 149 147 148 146 145 142 147 143 141 138 137 138 130 127 128 120 109 107 105 111 119 120 120 120 117 117 116 113 116 117 121 121 127 122 123 128 129 139 134 133 134 132 131 131 130 128 127 123 118 122 118 116 116 117 121 120 117 115 120 115 116 119 116 114 112 109 111 107 108 
125 130 132 132 138 144 147 150 144 146 145 145 143 144 143 145 144 144 141 135 134 134 133 131 127 126 117 108 104 100 100 106 117 114 114 108 114 112 109 115 113 117 117 118 117 120 122 124 132 132 127 131 129 129 128 127 124 123 118 119 117 115 116 118 116 116 118 119 115 113 115 115 115 115 111 111 109 109 107 103 
127 128 132 133 135 142 141 145 143 146 146 141 140 139 138 139 141 140 136 133 134 127 128 138 162 138 117 108 101 98 93 96 114 113 113 109 108 108 106 114 115 115 116 116 114 119 123 122 130 129 129 126 125 127 127 126 119 118 114 113 117 114 115 115 115 117 118 118 115 115 118 117 116 113 113 110 108 110 105 100 
127 126 127 130 134 139 141 144 144 143 138 139 137 139 136 138 138 138 128 128 132 119 113 130 159 133 114 111 113 106 105 99 114 108 107 108 104 106 106 110 108 112 111 112 114 115 117 118 125 125 126 124 126 124 125 124 117 112 112 113 111 112 113 114 114 115 117 116 116 115 114 114 115 109 112 110 105 107 104 103 
123 123 128 126 129 132 131 135 135 134 132 138 134 136 133 139 135 124 112 107 106 104 105 121 140 120 105 103 106 106 110 108 110 106 108 105 104 106 104 110 105 110 110 113 116 116 116 118 123 122 125 122 124 121 120 118 115 114 111 111 110 109 111 110 113 113 117 114 110 118 115 115 113 108 108 108 108 105 104 98 
118 118 121 121 118 116 114 116 118 117 115 116 114 114 119 122 121 110 100 98 95 93 94 103 107 100 98 101 105 97 98 100 102 99 103 105 104 104 105 106 106 107 105 109 110 112 117 115 120 118 118 116 118 119 118 119 113 111 109 110 107 108 106 108 108 109 110 112 109 113 111 110 109 104 109 108 103 99 100 96 
113 113 113 115 115 106 108 108 104 104 103 101 103 103 104 105 101 98 93 94 87 87 85 87 93 95 92 93 94 93 95 94 94 98 105 105 102 108 107 106 110 108 107 107 106 110 112 115 116 112 119 115 114 114 114 111 108 106 108 102 102 104 104 111 111 109 107 110 112 111 107 107 106 103 109 105 99 105 100 93 
109 113 110 113 105 101 98 98 100 96 98 96 95 96 93 96 92 91 93 90 84 83 81 82 84 88 91 92 90 89 85 88 89 96 104 105 106 103 109 104 107 109 108 109 108 107 107 111 118 115 116 108 113 115 116 110 104 104 105 102 98 100 105 107 106 103 105 107 105 104 103 103 103 100 103 101 102 101 99 94 
106 104 109 106 100 93 91 91 90 89 91 94 89 90 89 94 88 92 86 82 83 82 76 78 83 88 85 83 91 88 84 85 84 92 97 97 99 98 100 100 98 102 102 101 102 102 101 110 108 110 111 107 112 110 111 109 101 104 102 96 103 100 101 105 103 103 103 106 105 103 103 98 98 97 99 102 100 97 94 91 
101 102 105 103 96 88 90 88 87 87 85 86 86 87 85 82 83 85 86 80 84 78 74 76 78 88 86 84 85 82 83 81 79 85 91 95 92 93 94 94 94 96 98 96 96 95 95 92 83 95 93 96 103 105 104 103 101 103 101 97 97 98 100 100 102 102 102 98 98 102 97 97 96 97 97 97 96 94 89 90 
99 100 103 95 94 86 85 80 80 79 80 78 78 80 78 88 82 83 81 80 78 76 74 77 77 80 84 82 86 78 80 78 78 85 88 89 86 89 87 88 88 91 90 86 89 89 93 83 72 69 71 70 77 90 92 93 105 102 102 99 96 97 96 99 94 94 94 96 95 98 97 94 93 93 91 92 88 88 86 84 
95 95 97 95 87 84 79 75 76 75 73 71 74 70 76 74 76 80 78 76 75 73 70 74 73 79 80 79 67 65 69 70 73 80 90 82 84 85 86 86 88 90 87 87 87 86 83 76 62 56 58 60 66 76 83 90 98 97 99 96 93 94 90 97 91 89 90 95 93 92 91 91 87 88 83 86 85 84 82 82 
90 94 94 90 86 77 74 75 71 69 73 70 70 73 68 71 75 79 77 74 74 71 67 69 72 80 77 76 61 59 67 71 71 80 80 80 83 85 85 83 81 84 79 82 80 78 78 70 57 52 52 55 60 73 85 93 98 97 95 95 92 94 91 92 87 88 87 89 87 91 86 84 85 85 83 81 80 80 79 80 
87 89 90 88 80 74 73 73 69 68 66 69 67 68 69 67 69 72 70 70 66 63 62 66 70 78 74 71 62 60 69 68 67 75 77 78 81 82 80 80 78 79 78 82 78 78 72 62 50 44 44 46 53 73 85 92 94 92 87 85 85 90 88 85 86 83 84 85 80 79 82 81 81 76 79 77 75 71 74 74 
85 85 88 87 79 73 67 70 67 67 67 65 64 63 63 63 62 64 59 58 59 53 54 62 68 75 72 69 64 65 67 66 69 74 75 76 76 76 75 78 76 78 75 75 76 72 65 56 45 37 37 41 46 60 82 86 88 89 86 80 80 77 83 81 80 79 79 77 76 78 80 79 75 75 77 67 70 69 69 67 
87 83 83 81 76 72 66 65 64 63 62 61 61 61 58 59 54 54 57 52 56 57 61 65 66 73 70 68 69 64 66 59 65 71 76 72 73 73 76 73 71 73 71 73 72 63 60 53 38 29 28 32 33 47 76 84 88 83 85 81 79 82 79 80 80 77 78 76 77 74 77 75 75 73 69 67 68 65 64 64 
83 82 86 79 71 72 64 62 64 59 61 59 58 60 58 56 57 52 53 54 57 63 72 67 62 70 68 69 65 66 62 62 64 70 69 67 71 69 70 69 69 67 67 69 64 61 50 48 34 27 25 25 29 35 60 75 80 80 80 79 79 76 74 76 74 75 73 75 72 70 75 73 75 72 68 63 65 66 62 61 
84 84 83 76 68 66 61 64 63 57 57 58 55 58 55 52 50 49 50 51 54 59 67 64 66 66 66 64 66 63 62 58 62 68 68 67 68 68 66 66 69 69 63 62 57 56 50 43 31 22 16 20 19 24 36 45 66 75 79 76 76 76 76 75 71 68 71 68 70 67 72 69 71 67 64 61 61 58 56 52 
81 80 82 71 67 60 58 59 56 56 57 55 54 50 51 52 48 47 44 46 50 61 65 64 61 66 62 63 62 58 61 57 63 67 62 65 66 66 64 60 60 60 58 57 53 50 42 37 29 20 16 15 14 15 24 27 48 68 72 74 73 73 71 71 70 65 63 66 64 68 67 70 69 64 63 61 58 59 55 52 
78 79 80 72 69 65 58 58 57 52 53 54 53 53 53 50 45 44 45 43 48 61 64 61 58 64 58 54 55 57 58 54 60 63 64 62 63 63 58 47 46 44 45 44 41 35 32 31 29 25 22 15 9 8 17 20 30 58 64 66 70 72 69 67 62 64 60 65 62 65 70 68 63 61 63 57 59 57 52 52 
75 76 77 68 66 62 58 57 53 57 55 53 48 51 48 49 42 45 44 43 47 55 60 57 57 62 54 58 57 61 53 54 61 65 64 61 61 60 55 38 35 31 29 26 19 20 22 24 27 24 21 12 8 8 12 17 24 44 62 66 66 71 66 67 62 64 60 64 62 65 65 65 61 60 58 56 59 57 53 47 
76 77 71 66 66 62 58 57 57 50 53 52 51 53 47 48 42 43 41 44 48 55 56 55 53 53 59 64 68 64 50 50 57 62 65 61 58 52 47 35 30 30 27 24 18 19 21 21 33 24 14 6 6 4 7 13 16 28 53 61 64 64 61 64 58 61 58 59 62 61 59 62 61 56 57 54 55 54 47 45 
76 74 69 66 63 60 57 56 53 56 50 51 47 45 45 46 42 38 40 40 45 54 57 56 55 55 63 66 66 59 52 49 58 59 60 55 54 48 45 30 28 26 24 18 16 17 20 23 31 30 13 4 6 3 6 10 11 15 37 53 57 60 59 61 56 54 58 60 58 60 58 59 54 55 52 54 53 52 50 44 
73 68 68 63 66 56 55 54 53 51 50 47 48 48 46 44 40 40 38 40 43 52 54 53 52 52 55 58 58 53 48 50 50 54 55 51 52 45 42 27 29 23 24 18 17 19 22 23 31 31 15 9 3 1 5 7 9 12 27 48 54 57 57 58 53 55 55 58 57 55 55 54 54 49 51 47 48 48 44 43 
72 67 68 63 61 59 54 56 54 53 50 49 46 47 44 40 37 40 38 39 42 48 49 52 48 47 48 51 48 45 45 44 43 41 41 40 47 45 40 29 25 24 20 16 16 17 19 23 27 30 18 12 6 0 2 3 9 9 16 41 50 53 53 55 51 52 53 49 50 53 55 56 51 48 49 49 48 45 42 41 
72 70 65 61 62 61 55 54 53 52 50 49 49 47 42 42 39 37 37 37 43 51 54 52 47 46 47 51 51 48 43 44 41 34 31 31 44 40 33 23 24 20 16 14 16 19 22 19 28 26 17 9 7 0 5 2 8 7 10 29 45 52 52 50 48 50 52 52 46 49 50 46 47 44 46 44 44 43 40 37 
66 66 66 62 64 57 52 53 50 51 50 46 49 44 43 38 38 38 37 40 39 48 48 49 47 47 47 49 50 46 43 43 33 28 28 33 42 37 27 23 23 19 18 11 14 19 17 18 24 23 22 15 6 2 2 3 6 8 5 19 38 51 47 49 51 47 49 47 45 48 48 46 48 43 44 44 42 43 38 37 
63 66 65 58 61 56 55 54 52 49 48 47 43 47 43 43 38 39 42 39 46 49 52 48 51 50 52 50 50 48 43 42 30 27 20 30 40 35 24 22 19 19 16 11 12 17 20 17 15 17 20 13 8 1 1 1 4 5 5 12 33 48 50 44 41 44 47 44 41 41 44 44 43 42 43 42 39 40 37 32 
63 63 67 60 63 56 56 55 55 51 48 47 45 48 46 42 39 40 46 46 50 48 48 50 47 47 47 48 44 46 39 39 35 26 25 31 37 30 23 20 21 16 13 10 14 17 18 19 17 15 17 14 10 4 3 3 6 9 6 14 22 42 45 42 46 45 41 41 40 41 40 43 41 39 40 39 36 38 34 35 
66 64 68 67 63 60 55 56 56 53 48 48 46 47 43 41 44 46 48 49 51 51 52 46 49 47 47 51 45 44 39 40 36 29 26 28 31 30 25 23 22 19 17 15 12 18 21 17 15 16 13 14 11 6 8 4 6 8 9 12 20 35 37 39 41 42 42 41 39 38 38 39 37 37 40 39 39 36 34 25 
65 70 68 63 61 61 55 54 53 53 50 48 49 46 48 46 46 50 49 49 51 49 51 46 47 46 45 43 43 41 40 37 43 34 34 34 35 31 28 25 22 20 18 20 20 18 22 20 17 16 13 13 10 8 9 7 12 9 11 12 18 25 35 38 41 45 43 41 37 43 42 39 40 36 35 41 36 34 28 30 
66 66 67 64 63 58 56 60 54 53 51 49 52 49 48 51 48 51 54 49 54 52 51 50 45 49 43 43 41 43 41 39 47 36 33 34 35 35 30 26 22 25 25 24 22 25 31 25 21 20 18 18 16 11 13 16 11 12 15 16 23 28 35 40 41 42 45 40 36 37 38 40 38 33 34 42 34 30 26 19 
66 70 68 70 66 62 57 57 57 56 54 50 52 50 50 51 51 49 55 51 56 53 51 47 43 46 39 39 44 42 40 38 44 37 36 37 40 35 34 28 29 26 32 26 25 30 35 25 25 23 20 21 19 19 20 19 18 16 18 20 27 31 33 38 39 44 41 41 36 37 39 38 34 34 36 36 33 27 26 23 
71 72 71 67 69 67 63 63 58 54 53 54 53 54 52 55 52 54 55 53 55 54 50 45 45 46 43 44 40 39 38 36 41 39 38 36 41 36 30 30 31 30 30 31 33 32 34 31 31 28 24 25 24 19 19 22 19 24 20 22 29 33 38 40 41 40 39 39 39 37 39 38 37 34 33 33 30 30 28 28 
73 75 74 71 70 67 61 61 56 58 55 56 53 57 53 58 57 56 57 53 58 51 50 46 48 44 45 41 43 38 40 37 42 38 37 35 39 36 29 29 32 33 33 33 32 35 36 35 34 29 24 26 25 21 24 26 26 25 27 26 33 37 38 39 42 41 37 38 37 38 38 37 32 33 32 33 28 29 29 24 
78 73 72 74 73 69 62 64 58 56 56 53 54 58 54 56 55 56 59 55 54 50 53 49 49 46 48 41 46 40 38 39 40 39 35 32 37 34 29 30 30 31 34 33 35 35 37 34 36 28 28 28 25 24 24 25 27 26 32 28 35 37 38 38 42 39 39 37 37 35 38 33 32 32 35 31 30 28 28 27 
79 79 75 74 77 71 65 63 62 61 57 57 57 62 55 57 55 57 58 58 56 54 51 53 50 46 46 46 45 41 39 41 41 37 37 37 35 31 30 32 34 35 36 34 35 36 39 33 32 28 28 29 27 27 30 27 26 29 32 33 37 43 37 43 37 39 40 39 37 36 41 37 35 35 33 32 28 31 29 25 
82 77 77 76 76 70 68 68 67 64 61 62 60 63 57 58 57 56 56 59 60 58 53 51 51 49 47 43 42 42 40 42 41 40 38 33 39 33 35 39 39 38 40 34 35 41 43 37 34 28 27 27 26 27 29 31 30 28 33 35 41 43 44 40 38 43 43 35 37 37 42 38 39 39 36 35 31 35 32 32 


