P2
80 60
160
129 131 136 145 137 142 140 141 150 147 150 150 154 148 145 153 151 152 149 150 148 147 138 141 140 136 135 134 134 136 136 135 135 134 127 124 127 129 126 132 131 132 132 128 123 124 126 127 126 124 125 127 126 124 125 124 125 127 124 118 113 115 109 112 110 108 111 112 108 103 101 97 97 93 96 92 93 92 87 99 
133 133 132 140 146 144 142 142 146 151 145 148 152 148 149 157 155 150 150 151 149 145 141 140 139 139 139 135 138 139 138 140 141 138 130 123 128 129 131 132 132 132 133 132 128 127 129 132 123 123 124 128 128 130 127 130 125 126 125 117 120 114 111 107 111 109 110 110 107 103 100 99 98 93 97 93 95 88 88 92 
139 135 136 141 142 144 143 145 146 152 151 149 150 149 150 157 150 152 154 147 144 145 143 143 137 138 144 141 142 140 145 142 143 140 133 128 129 132 133 135 137 135 136 139 139 137 137 140 128 124 131 128 131 132 129 129 126 125 123 123 122 116 114 115 117 108 109 109 108 104 105 99 102 96 101 97 96 91 89 95 
135 133 137 143 141 142 144 146 148 149 154 151 152 149 151 153 152 154 150 152 147 147 143 141 142 137 138 139 140 141 146 141 145 140 134 127 128 131 136 138 140 134 141 141 139 142 143 142 136 135 136 136 136 135 132 132 130 124 126 124 121 121 113 113 115 114 114 113 113 109 105 102 103 99 105 103 100 93 90 95 
139 135 140 142 139 143 141 145 145 149 156 153 153 153 149 153 156 153 153 152 149 145 141 143 145 143 140 137 143 145 142 143 145 139 137 129 130 134 138 138 140 138 141 147 145 142 146 147 143 138 138 137 139 139 136 138 134 127 134 128 123 119 114 119 119 114 115 115 111 112 109 107 103 103 104 103 98 94 91 94 
133 136 138 145 142 145 144 144 150 154 155 151 154 151 149 153 154 150 150 152 150 144 141 143 141 142 143 140 142 139 142 141 140 139 133 132 129 132 135 140 136 134 142 144 144 145 146 146 142 141 141 142 143 142 137 136 135 135 130 130 123 123 119 118 117 118 117 117 114 112 107 106 105 107 103 104 100 94 94 93 
137 138 137 144 144 144 145 148 152 150 155 154 154 149 152 152 151 151 149 149 151 146 146 144 143 141 145 140 141 142 142 145 143 143 131 134 131 135 134 138 139 139 146 140 141 143 142 149 143 149 147 145 146 146 143 141 141 132 135 134 127 127 122 122 121 123 121 116 116 114 110 112 110 106 106 105 105 98 94 96 
135 134 138 145 143 144 143 148 150 150 151 154 151 152 158 154 155 154 152 151 152 146 144 143 141 140 141 140 142 145 143 141 145 142 135 130 130 133 134 137 139 141 145 145 144 141 144 146 145 149 149 150 149 147 141 142 140 139 137 136 132 130 128 124 120 124 126 122 113 115 117 116 113 108 113 107 100 101 98 100 
135 134 139 141 146 143 148 150 151 152 154 154 153 157 158 155 155 156 155 155 153 148 145 145 144 143 145 144 144 144 147 142 143 140 136 134 132 134 135 136 136 139 142 143 144 144 149 149 146 148 150 155 149 147 143 147 142 140 140 142 136 132 134 130 127 133 131 123 126 122 117 113 117 111 114 109 110 100 98 101 
134 136 139 143 146 143 149 153 157 152 156 156 153 155 156 156 156 157 156 153 150 149 150 147 144 146 143 141 140 144 150 142 141 139 136 133 133 135 136 140 134 139 140 142 142 142 144 150 148 149 148 149 149 147 144 142 141 137 142 139 135 129 133 133 128 132 131 129 125 122 121 119 121 115 114 112 111 104 100 103 
138 135 136 143 142 146 150 151 153 154 158 154 151 156 153 154 156 158 152 155 151 146 144 146 144 142 142 139 140 139 143 142 145 136 133 132 133 135 137 139 138 139 142 143 140 142 147 149 148 152 149 151 149 148 144 142 142 137 139 134 132 129 128 130 129 127 131 128 130 124 120 121 119 116 119 116 114 107 105 108 
137 132 139 141 145 147 152 152 155 156 158 156 155 155 153 154 154 158 154 158 155 151 146 147 144 145 141 138 138 142 143 142 141 135 132 130 132 137 136 140 138 142 140 142 142 142 145 147 148 153 151 151 150 144 142 142 137 139 138 136 131 128 127 127 126 125 132 127 124 125 118 117 120 122 120 119 114 111 105 106 
136 136 139 143 140 146 149 152 156 157 157 154 160 153 151 157 155 152 152 157 152 149 148 146 144 145 144 140 139 141 140 139 138 140 132 134 132 135 136 136 139 139 141 139 138 141 144 148 148 153 149 146 147 147 142 141 137 139 139 136 127 127 126 126 125 127 128 124 122 119 121 119 119 118 115 119 114 110 109 112 
135 135 142 143 142 144 151 152 156 153 155 157 156 154 154 153 152 156 156 156 150 148 145 142 139 140 140 139 140 137 139 136 139 141 134 131 134 133 132 136 135 137 138 140 139 136 142 143 146 152 148 149 149 149 140 141 135 137 136 130 122 127 122 125 123 121 122 122 119 116 120 119 119 118 119 114 112 110 104 104 
136 135 134 139 142 147 152 155 154 157 157 153 155 153 155 159 155 155 154 155 151 151 145 142 142 138 142 140 139 139 140 140 141 139 130 128 130 130 134 136 134 137 138 139 140 139 141 141 146 147 148 148 148 142 143 140 134 134 135 127 126 124 117 121 120 118 121 121 120 115 117 116 120 117 115 112 111 110 101 104 
137 136 139 142 144 148 148 156 152 158 160 160 153 152 152 156 154 156 154 156 150 146 143 142 142 141 139 138 138 136 142 143 141 138 131 128 130 132 131 136 139 138 136 142 140 142 143 146 149 148 149 147 144 148 141 140 138 131 133 129 124 125 117 120 116 119 117 117 120 116 114 116 117 116 116 113 112 112 104 105 
132 134 136 137 143 144 152 152 153 156 156 152 153 152 152 155 152 155 152 151 152 147 143 137 138 137 141 134 135 138 140 137 139 135 132 126 129 131 133 134 136 136 137 139 139 138 137 143 147 147 147 147 146 148 142 138 135 135 129 131 127 122 117 118 118 119 117 119 117 115 118 115 113 114 118 112 114 106 107 106 
130 129 133 137 140 145 148 150 150 152 152 156 153 152 148 151 153 152 155 152 149 146 138 140 137 134 137 134 135 137 140 138 135 134 127 129 126 130 132 132 137 135 138 139 138 133 137 139 145 146 146 147 139 143 140 136 134 132 128 130 125 123 119 121 120 119 120 120 115 116 115 117 114 116 117 115 109 108 104 108 
133 128 131 136 138 144 148 146 150 151 150 151 149 150 149 150 150 149 150 151 150 143 141 138 137 136 136 133 133 136 136 136 136 133 125 125 126 127 130 133 134 141 136 137 133 137 138 139 145 144 144 145 143 141 136 137 132 130 131 130 124 120 121 121 117 120 121 118 116 113 116 115 118 114 117 112 107 110 104 104 
128 128 133 133 138 145 147 148 149 150 148 148 146 150 150 149 148 150 148 146 144 141 137 135 135 136 135 133 132 134 135 132 134 131 126 126 127 129 128 131 132 133 135 137 138 134 135 138 144 143 144 143 140 139 134 134 131 127 129 129 122 123 120 118 120 122 119 116 113 116 115 116 116 116 114 112 111 105 101 106 
125 127 125 131 133 143 143 146 147 148 146 146 148 147 147 146 148 144 144 142 142 135 129 131 133 131 133 130 129 131 132 129 131 128 123 121 122 122 123 130 124 128 133 138 135 138 137 137 140 144 142 140 136 137 136 135 129 126 127 124 121 122 115 117 116 119 116 116 114 110 112 117 114 112 114 109 110 108 102 107 
121 124 126 130 134 141 139 141 143 143 146 144 144 143 144 141 142 140 138 137 138 136 132 131 126 124 128 126 127 130 128 125 126 124 121 117 122 124 122 123 124 123 128 132 131 129 132 133 139 140 142 139 138 135 131 134 128 132 127 124 124 118 114 112 115 115 117 116 114 111 113 111 113 113 114 111 109 104 104 100 
119 122 122 130 130 134 141 143 143 144 142 140 139 140 139 142 143 138 137 136 134 135 129 129 125 121 123 125 123 126 126 124 121 121 117 116 119 119 116 119 119 120 121 126 129 127 129 132 140 139 137 141 137 135 132 132 130 128 124 125 122 117 114 116 116 114 118 114 112 112 110 113 113 111 110 110 107 103 100 104 
119 120 120 124 130 135 137 141 140 142 139 141 136 137 138 138 140 138 138 133 129 128 126 127 124 119 123 123 125 121 121 125 119 117 115 110 109 107 114 116 113 112 118 118 124 124 125 132 138 137 134 135 133 132 131 129 122 122 123 117 115 114 117 113 114 115 116 114 114 112 112 110 112 106 107 108 106 103 97 101 
118 120 121 127 128 133 134 135 136 135 138 136 137 134 136 138 136 137 138 133 128 126 122 126 136 126 117 118 119 116 122 119 118 116 108 107 103 111 107 116 118 113 112 114 115 117 118 126 134 136 132 130 129 130 125 128 118 114 112 117 113 113 114 113 113 114 117 111 113 112 114 110 113 106 108 103 103 99 97 103 
115 114 113 123 122 129 133 135 133 133 134 131 133 133 132 134 133 132 132 128 126 122 120 123 135 120 103 104 102 111 111 116 117 110 105 104 104 104 109 111 112 114 117 111 114 117 120 124 133 131 129 129 126 127 123 124 118 113 111 110 106 107 109 112 110 115 117 112 112 112 111 112 108 107 106 105 98 97 94 94 
116 110 111 120 117 121 124 123 125 128 125 129 131 133 132 131 127 126 130 129 126 120 116 115 117 100 94 95 102 101 100 103 105 104 100 104 104 105 106 112 110 111 111 111 112 112 115 122 125 129 128 124 123 127 122 121 119 111 113 111 106 105 110 109 113 117 110 110 110 108 109 105 106 103 105 103 100 97 95 99 
112 105 110 109 109 109 107 104 104 107 108 112 115 111 117 117 117 125 124 129 127 123 118 111 103 94 90 91 92 93 94 92 93 89 97 99 98 106 109 112 111 111 113 112 114 110 112 120 124 126 125 120 121 123 118 117 112 113 111 113 104 108 106 110 107 110 111 107 110 106 107 104 103 103 99 98 99 97 91 96 
109 105 106 107 104 101 99 98 93 92 97 99 100 95 94 96 98 103 107 116 120 122 114 110 97 88 88 86 90 94 91 86 87 91 103 101 103 108 109 111 111 111 113 110 108 110 111 116 124 121 121 119 118 121 118 114 109 106 107 109 105 106 105 107 107 106 104 104 105 103 105 103 100 101 97 98 99 95 91 95 
103 102 100 102 97 92 90 91 90 88 92 91 91 89 88 90 89 89 92 92 98 107 110 101 93 90 85 85 88 87 88 82 80 91 99 102 102 108 106 112 111 111 111 109 106 109 110 116 120 119 117 118 115 116 112 109 107 106 103 105 102 103 107 106 102 101 102 104 102 104 106 100 99 97 99 98 96 94 92 92 
99 97 97 97 87 86 82 83 79 81 84 85 86 88 86 85 86 81 82 84 85 98 101 94 87 83 85 82 88 88 86 79 82 85 95 96 99 106 106 107 102 106 107 104 101 105 106 116 113 116 115 113 113 114 112 108 104 101 103 97 97 102 101 106 101 100 99 102 98 101 101 98 95 96 94 91 93 90 85 84 
96 94 91 94 86 84 83 78 76 77 77 81 81 79 78 78 77 77 78 76 77 83 98 89 80 78 81 80 84 88 83 78 78 85 89 88 94 102 99 100 103 100 102 99 100 102 98 100 92 101 101 103 104 108 108 108 106 101 104 101 100 100 102 100 100 98 101 97 99 101 98 95 91 93 92 90 89 89 87 85 
91 89 87 86 80 79 74 71 68 67 73 73 74 73 71 70 71 71 68 70 72 76 88 84 75 75 78 78 78 79 77 74 75 79 85 84 89 95 93 96 93 95 97 93 91 91 92 91 78 80 77 80 82 92 92 98 106 105 103 100 96 95 95 101 95 94 93 93 92 93 87 93 90 84 88 88 85 86 82 81 
89 86 83 84 76 77 72 69 68 71 71 67 70 68 70 72 67 66 63 67 70 74 86 79 75 70 75 71 70 72 67 69 69 79 84 85 84 89 90 93 90 92 90 90 87 86 85 84 73 63 72 68 71 81 87 91 99 103 104 100 95 90 93 94 91 88 93 92 90 88 91 88 85 86 82 83 85 84 78 81 
83 80 82 79 74 73 67 63 62 66 66 64 67 65 61 66 62 60 61 62 66 71 83 72 71 72 73 69 67 67 62 64 67 76 78 79 78 83 85 90 86 89 85 82 83 80 78 73 66 58 55 57 61 80 83 94 95 99 97 92 90 88 90 88 84 87 86 83 86 83 84 80 78 77 79 75 79 79 71 71 
79 79 80 78 71 63 65 63 59 61 65 63 64 60 61 60 56 58 55 59 62 66 75 70 68 70 69 68 65 65 62 59 64 74 76 78 79 82 85 89 85 82 85 84 82 77 72 66 57 46 45 51 57 73 87 94 94 92 94 90 87 85 86 85 82 82 81 79 82 79 77 76 75 76 73 72 70 70 70 71 
79 79 76 72 69 65 62 62 58 58 60 59 59 59 55 57 52 51 54 57 60 64 72 66 66 66 71 62 62 61 66 69 61 74 71 74 75 81 79 81 81 82 80 79 80 74 65 65 51 40 41 43 47 65 88 89 89 90 91 87 86 79 84 82 82 79 76 75 79 72 73 71 71 69 69 66 68 63 65 68 
77 75 73 71 68 62 60 59 54 58 61 55 59 55 56 51 48 51 48 56 58 62 66 64 66 63 67 67 65 66 66 65 65 71 70 72 71 76 75 80 78 76 76 73 73 70 63 57 47 36 35 35 40 54 80 87 89 84 91 88 85 79 77 82 78 76 74 76 74 73 74 68 69 67 65 66 65 63 62 67 
74 73 71 70 63 61 57 54 55 55 59 53 56 53 54 53 47 44 48 51 55 59 65 65 62 61 67 61 63 63 67 64 63 65 71 68 71 71 72 75 72 73 74 69 67 65 57 51 37 31 29 25 32 44 62 76 86 84 83 84 81 79 79 78 73 72 69 69 72 69 69 62 66 62 61 62 61 58 57 62 
74 72 71 67 64 60 56 53 54 54 57 53 53 52 51 52 42 42 46 49 51 54 58 58 60 63 68 64 64 68 67 62 64 67 68 68 67 73 76 72 71 72 69 69 60 55 51 44 40 28 22 19 19 28 37 46 67 77 80 84 77 78 73 75 70 70 68 66 70 69 65 65 60 57 60 59 56 58 57 56 
73 72 65 62 61 58 55 49 49 52 54 51 51 47 48 44 41 40 45 49 48 54 59 57 61 61 66 61 64 64 61 57 61 66 64 62 63 65 68 64 66 64 63 62 57 54 43 41 36 27 22 18 18 22 26 28 43 71 76 73 76 77 71 71 67 64 64 64 67 66 64 61 62 56 59 57 56 51 50 54 
72 64 60 62 58 55 50 51 51 51 51 47 47 45 41 43 41 39 42 46 47 56 54 54 55 57 59 56 58 58 57 56 56 65 61 59 59 61 58 47 44 48 51 46 39 37 34 35 33 28 28 18 17 17 21 20 33 57 72 69 70 71 67 67 63 62 62 64 60 64 63 57 58 54 56 51 50 49 47 53 
69 66 62 56 55 53 47 49 46 47 46 46 46 44 44 41 39 38 44 43 45 51 50 50 53 52 55 53 53 58 54 54 53 60 63 57 57 60 56 45 36 33 32 28 19 15 23 32 32 29 23 14 12 11 16 19 27 44 64 70 70 69 65 64 60 56 61 59 64 60 63 60 58 51 53 52 51 51 47 46 
68 62 60 57 55 52 51 47 48 46 45 47 45 39 39 41 35 38 40 42 44 47 46 52 51 52 49 51 57 56 53 50 54 60 58 53 53 57 51 38 31 28 32 25 14 14 20 27 37 31 19 14 8 8 14 17 20 29 53 62 66 63 60 60 57 58 57 58 60 58 59 58 57 48 48 51 49 48 43 47 
60 57 56 56 56 55 49 46 44 42 46 43 41 40 41 38 35 34 39 40 38 39 41 47 47 49 49 48 47 50 47 50 49 60 55 52 54 51 45 34 29 28 24 23 16 15 20 24 34 34 21 10 3 2 4 7 7 18 41 57 59 58 59 58 55 52 56 56 59 57 52 52 47 50 47 48 45 41 40 39 
60 55 55 54 51 52 48 48 45 47 44 39 42 38 35 36 34 32 34 38 35 36 42 44 45 47 47 47 49 50 49 48 45 50 52 50 50 49 43 28 23 22 23 20 14 16 20 21 33 31 22 9 5 5 3 7 3 9 27 48 55 55 56 55 49 48 54 50 50 54 52 50 51 44 46 44 43 40 40 47 
56 55 55 55 49 53 44 44 41 44 47 41 42 36 39 35 35 34 35 31 29 33 37 42 46 47 47 43 47 49 47 45 41 40 42 45 45 47 37 25 27 21 22 19 15 18 19 25 33 30 20 9 2 4 6 4 7 8 19 41 49 54 54 53 48 49 48 51 51 47 50 48 45 43 43 42 40 37 40 39 
56 53 49 52 49 48 48 42 43 41 42 38 40 37 35 32 32 31 29 31 28 28 36 44 44 46 43 41 41 44 46 40 36 30 33 44 41 41 33 25 19 20 20 16 15 15 16 22 32 32 24 9 6 3 1 5 4 6 14 29 45 48 51 50 48 45 46 44 43 45 43 46 43 38 38 40 38 33 31 35 
53 48 48 49 48 46 44 44 41 44 42 41 41 34 34 34 31 26 33 31 24 25 36 40 43 42 46 43 44 45 45 39 33 30 35 37 39 38 31 18 20 17 16 11 10 15 16 20 29 29 22 12 5 4 0 2 1 5 10 17 40 46 46 49 46 42 44 45 40 38 40 43 40 36 33 38 35 34 32 33 
50 48 48 49 50 50 45 42 41 45 40 37 39 37 31 33 30 31 31 31 26 33 33 42 40 42 45 41 43 44 45 35 30 23 31 35 33 34 26 18 13 15 15 10 11 13 14 18 20 22 24 15 7 4 1 1 1 6 8 13 34 43 43 42 43 43 40 37 36 36 35 40 41 36 33 33 36 35 28 34 
50 52 47 50 48 47 48 43 39 40 42 38 38 35 35 34 32 32 29 32 29 27 33 39 39 42 39 40 37 43 40 35 26 25 29 31 29 28 21 14 17 12 12 12 13 12 15 16 16 13 13 13 9 4 2 5 2 4 7 10 21 35 41 40 39 40 39 37 35 35 32 37 34 34 32 32 34 29 26 27 
54 49 49 52 48 50 45 42 41 46 43 38 38 33 35 36 35 37 36 37 36 36 35 37 37 39 38 38 37 41 37 32 29 32 33 30 32 26 20 16 18 10 13 13 10 14 15 19 17 14 10 10 9 7 6 6 6 6 8 9 15 29 34 38 36 39 39 37 39 40 32 31 32 29 34 33 31 27 27 33 
51 49 49 53 49 48 48 46 43 43 43 41 36 39 39 39 39 41 42 39 37 37 37 38 38 35 36 35 37 37 37 31 30 31 31 33 28 31 23 19 17 19 16 16 17 19 22 23 18 14 15 10 15 10 10 9 4 7 9 10 17 25 32 35 37 34 39 35 35 35 33 34 28 27 28 28 28 26 22 27 
47 49 51 57 50 52 47 48 47 47 45 45 42 40 40 46 43 42 46 41 41 39 39 39 35 35 36 33 34 35 34 29 29 39 35 34 30 30 30 25 22 21 24 21 24 24 24 24 23 16 22 17 16 15 15 12 10 9 13 13 17 21 29 36 37 37 36 39 35 35 33 30 28 25 30 28 26 18 23 22 
53 50 50 54 54 51 47 46 48 46 44 45 43 39 41 42 40 43 43 41 41 38 36 33 30 30 31 29 30 32 32 29 31 37 38 35 36 33 29 29 26 25 28 28 29 30 30 31 29 19 21 19 16 17 17 15 10 15 17 17 20 25 29 32 34 38 35 37 36 34 30 26 29 23 24 24 21 19 18 23 
56 53 52 56 51 51 48 46 45 43 43 44 41 40 43 44 45 43 44 47 40 37 35 30 29 30 30 26 30 34 34 28 34 34 33 32 35 34 27 27 30 27 27 29 32 30 32 35 31 25 25 20 19 17 20 21 18 17 22 18 24 25 28 30 31 37 37 37 33 31 32 29 23 24 22 19 21 19 17 21 
58 52 54 56 54 51 55 46 45 45 45 44 42 44 44 47 46 48 48 45 43 38 32 27 33 29 30 28 31 33 36 33 34 35 35 31 33 32 28 29 25 26 30 29 31 31 30 35 33 26 21 24 22 22 23 21 16 18 21 24 27 31 28 31 29 33 34 28 32 32 29 28 23 21 20 21 18 16 15 19 
61 58 58 61 53 51 53 50 47 48 46 44 46 44 44 49 47 48 49 48 44 39 36 30 36 34 32 32 30 34 33 31 38 35 34 27 30 29 26 29 29 33 29 34 34 31 32 37 34 29 26 25 20 20 22 22 21 18 23 27 28 30 28 30 31 34 30 32 29 26 24 25 25 18 16 16 17 15 14 12 
63 59 60 62 58 58 55 49 46 52 52 48 45 47 47 46 50 52 49 49 45 41 39 32 39 36 32 32 33 34 35 32 37 38 34 30 28 30 28 33 32 31 36 37 36 31 34 37 34 29 24 25 25 23 24 22 20 24 26 27 32 31 28 30 29 29 34 32 31 26 23 22 22 18 18 18 16 14 13 14 
69 58 60 60 61 60 59 53 46 46 52 50 46 48 53 54 56 58 54 51 46 46 39 37 37 33 37 31 32 32 36 37 33 39 32 26 28 30 27 32 34 32 37 37 36 35 35 37 37 31 26 23 26 26 25 24 24 28 35 34 36 33 32 34 29 30 33 32 32 25 23 22 20 17 17 21 19 16 16 19 


