P2
80 60
173
134 137 133 134 130 132 134 133 141 144 152 149 151 153 151 152 151 150 147 138 126 118 117 113 112 112 113 112 112 114 115 113 117 121 120 121 120 118 126 129 129 127 129 130 129 129 129 130 130 136 141 143 143 133 133 131 121 121 122 114 113 109 110 107 106 108 103 109 102 101 94 90 98 93 92 89 86 89 80 87 
133 135 133 138 133 135 130 136 142 145 150 149 150 153 153 151 151 150 150 141 127 121 117 113 114 111 111 112 113 116 115 113 118 119 118 117 115 113 114 121 120 119 125 124 127 130 133 135 130 137 143 144 150 131 131 130 124 124 122 120 114 110 111 109 108 107 108 107 100 102 100 98 93 94 95 91 88 90 84 87 
138 138 134 137 136 136 138 141 144 147 154 151 149 152 154 155 155 149 149 141 124 122 120 116 112 114 115 113 114 115 115 115 118 119 117 117 112 116 115 119 116 118 120 117 118 120 139 143 142 141 144 151 154 138 136 134 131 128 125 118 115 115 112 113 112 113 108 108 108 109 105 99 95 95 95 96 91 89 88 82 
136 139 135 134 136 137 138 140 142 148 150 143 152 150 150 150 147 145 147 136 124 120 116 117 113 119 116 116 113 117 112 121 120 118 119 117 113 115 114 116 113 113 113 114 116 118 136 146 149 146 153 158 156 142 138 133 132 128 125 119 118 111 115 116 114 116 110 111 110 106 104 97 96 98 97 91 94 87 88 84 
135 139 138 133 137 138 136 141 144 146 149 148 149 151 153 150 152 149 144 135 125 119 118 117 115 117 118 118 115 117 117 121 120 117 120 116 117 113 115 116 113 111 112 113 112 118 140 147 149 153 157 162 161 150 146 134 133 131 126 123 118 115 122 118 114 113 113 114 113 114 105 98 99 95 100 94 96 93 87 86 
132 137 138 133 131 132 137 142 145 146 152 148 148 150 155 149 149 146 141 134 123 119 122 121 120 122 122 122 119 122 121 118 121 123 121 121 117 116 117 113 114 111 112 113 115 124 141 147 147 157 161 159 164 147 144 138 135 131 128 124 117 122 121 120 117 117 116 116 112 109 107 104 102 98 101 99 97 94 89 91 
132 136 136 131 135 136 141 144 149 149 149 146 147 146 146 146 148 144 139 129 126 127 125 124 121 124 124 127 125 125 122 122 124 126 123 127 121 114 117 118 112 115 110 114 115 123 145 147 151 163 166 167 170 152 144 143 136 136 133 124 127 123 121 124 118 121 123 124 118 116 108 106 109 103 105 98 100 95 95 95 
137 135 134 134 134 138 145 151 157 157 145 138 137 132 134 133 136 137 134 132 134 130 132 128 132 130 131 131 127 131 130 128 130 130 127 132 126 126 121 118 119 120 118 117 118 130 143 151 152 165 168 170 171 155 145 147 146 140 138 130 129 128 129 126 124 123 121 122 117 114 112 109 110 106 109 106 104 100 94 96 
136 137 135 133 133 138 152 157 162 156 143 133 133 129 128 127 130 126 132 130 132 133 132 132 130 132 131 132 129 133 133 133 138 139 136 141 136 136 136 132 127 123 123 122 123 131 143 149 153 163 164 169 173 153 148 147 142 143 136 132 130 131 130 128 125 124 128 126 122 120 112 114 113 107 105 106 105 98 97 95 
133 134 132 136 131 140 152 156 162 158 143 132 129 124 125 124 123 123 121 126 123 124 125 129 128 130 133 131 128 130 131 133 135 138 138 137 139 141 144 147 138 132 126 127 122 125 134 142 151 156 153 157 166 154 146 144 140 135 133 128 126 129 128 125 126 125 126 126 126 124 119 114 116 116 112 109 102 103 97 96 
136 134 134 131 131 140 145 149 155 151 142 128 126 120 116 113 115 117 120 121 124 121 123 122 125 123 126 126 124 126 127 127 127 128 127 129 128 132 135 138 134 138 129 127 127 120 126 132 143 143 142 142 151 147 145 143 136 131 133 131 126 125 120 124 126 125 127 124 121 121 119 114 116 112 114 111 110 107 100 100 
133 133 132 131 133 139 144 144 142 140 132 122 119 115 115 115 115 112 117 116 116 118 124 120 122 120 121 122 122 125 123 126 121 124 120 121 120 119 123 127 127 122 127 123 121 116 120 124 130 138 134 134 133 136 140 141 136 138 132 128 125 122 122 122 123 120 121 120 119 120 116 115 112 116 114 110 108 106 102 98 
131 131 130 130 130 132 137 134 131 126 123 116 114 116 115 112 116 112 119 116 114 117 117 116 118 120 118 121 118 122 121 123 120 120 118 116 114 115 113 118 117 120 118 118 117 111 113 117 118 123 124 124 129 130 143 139 136 132 129 124 125 123 121 119 122 120 120 121 117 118 112 116 113 114 115 109 105 102 100 97 
129 131 128 129 128 128 130 125 122 119 114 113 111 111 112 113 110 109 115 114 116 114 113 115 115 116 114 117 117 115 116 119 118 118 116 116 116 109 111 109 114 111 111 111 108 108 111 114 112 110 113 121 123 125 139 136 134 132 130 126 122 122 119 120 121 122 118 117 116 119 112 111 115 112 111 107 109 105 102 101 
130 132 129 130 125 122 118 118 116 112 110 106 108 109 111 112 107 109 110 113 113 116 111 113 112 115 114 116 114 115 116 116 117 115 114 113 111 107 110 109 109 111 110 107 109 107 110 111 109 109 111 121 121 129 140 137 130 131 128 123 121 119 120 119 120 117 116 114 117 114 115 112 115 113 111 106 105 106 100 103 
127 130 130 126 124 118 113 109 109 110 108 103 107 108 110 108 107 107 111 111 114 114 109 112 109 115 113 110 112 111 115 112 114 115 111 110 110 107 105 107 108 107 105 106 110 105 109 108 108 108 112 119 121 130 138 137 132 130 127 121 119 117 122 117 119 117 115 111 117 116 111 111 112 111 112 105 106 107 104 101 
125 127 122 122 120 110 106 107 104 107 102 103 104 105 106 105 109 107 105 112 112 113 111 109 108 113 112 113 109 112 109 112 115 113 112 109 109 104 108 108 105 107 106 107 108 105 106 107 105 108 109 114 120 131 140 135 131 130 128 122 121 120 117 117 117 113 112 115 113 113 110 109 112 110 109 107 108 106 104 100 
123 126 124 118 118 109 103 105 104 102 102 101 103 103 104 106 107 103 109 110 112 110 114 111 108 109 111 109 110 110 107 112 111 112 111 107 110 108 106 103 106 109 108 107 106 102 102 110 105 108 106 111 116 134 135 134 131 128 130 125 123 119 119 116 115 114 116 115 112 114 110 110 111 111 109 111 110 106 100 104 
121 123 122 117 111 109 99 102 102 101 100 101 103 103 105 105 107 103 103 110 111 109 110 110 111 107 109 106 107 110 110 108 108 110 111 109 108 106 104 104 107 109 112 109 106 105 103 104 102 103 107 110 117 134 135 132 130 127 123 123 121 119 117 120 116 115 114 114 111 111 114 111 115 113 109 112 105 103 102 102 
120 120 122 119 111 103 98 99 97 101 98 97 100 103 104 104 102 102 105 104 108 108 108 107 108 107 103 103 108 107 103 108 109 111 110 103 107 103 103 105 107 109 109 107 106 103 102 100 104 103 106 107 115 129 132 129 126 127 121 121 115 112 114 115 112 111 110 113 112 112 110 110 114 106 109 105 108 103 101 98 
116 120 119 119 106 104 101 95 96 100 102 100 100 105 102 101 100 101 102 104 108 105 108 106 109 110 104 102 105 108 110 105 109 109 110 110 107 104 101 105 101 104 109 106 103 103 99 102 100 100 101 106 109 129 133 131 130 127 121 115 116 114 110 110 112 113 110 111 112 111 107 106 105 104 108 106 105 103 100 99 
115 118 115 109 105 99 96 94 96 99 98 99 99 103 100 98 103 95 103 105 104 106 105 104 106 105 104 103 101 107 105 104 105 104 109 110 103 101 101 103 101 103 105 104 104 102 104 103 102 99 103 101 107 128 132 130 130 126 121 120 116 112 112 115 115 112 112 110 109 111 107 106 105 107 105 104 102 98 92 98 
114 115 111 104 101 95 91 95 93 98 96 97 98 99 99 97 98 98 99 101 104 104 107 106 101 101 104 103 102 104 103 104 99 101 101 102 99 100 96 98 99 98 100 102 103 101 100 102 103 99 99 101 108 128 130 127 126 120 123 117 115 116 114 111 110 111 110 110 110 106 108 106 105 102 107 102 99 98 92 95 
112 115 113 103 100 94 88 92 92 94 92 90 93 97 98 95 98 97 100 101 99 101 102 102 100 99 99 101 103 102 101 100 98 101 98 97 92 91 92 93 94 97 95 94 95 100 101 98 104 101 102 100 107 128 130 129 123 117 118 114 116 111 111 111 111 108 109 107 109 108 108 106 106 103 104 102 97 102 93 97 
111 110 106 98 94 92 87 89 90 91 89 94 93 94 96 95 97 94 97 95 99 99 97 101 97 97 96 97 97 101 98 101 101 96 98 94 90 89 87 94 88 94 89 90 90 96 98 96 97 98 99 99 106 126 130 128 119 119 116 112 107 111 113 110 110 110 106 112 109 110 110 107 107 102 101 101 98 98 98 92 
107 109 107 105 89 89 90 87 90 89 93 88 92 95 95 94 95 95 93 94 95 98 97 95 93 95 94 94 95 96 98 98 102 98 93 94 91 91 86 89 91 86 88 90 87 90 93 93 93 94 98 96 107 125 124 124 116 114 115 110 107 107 106 112 109 108 106 106 106 107 104 103 102 100 99 101 97 94 92 88 
105 104 104 91 92 87 88 88 88 90 92 92 96 96 94 94 92 91 92 95 96 95 97 95 92 93 93 93 92 93 94 97 96 93 93 90 92 89 90 94 90 90 90 89 88 88 90 94 93 94 91 94 105 124 125 122 116 114 114 109 104 107 106 109 107 107 103 108 107 106 107 99 103 100 100 96 93 93 89 93 
98 101 98 92 91 90 93 89 91 90 93 93 93 94 94 94 92 92 92 94 97 95 95 92 91 93 91 85 85 86 85 86 89 88 89 89 90 89 87 92 89 90 87 87 87 84 88 89 89 90 95 88 105 120 121 118 111 105 110 105 103 102 105 105 104 107 102 103 104 103 103 99 102 97 96 95 97 92 89 90 
96 99 92 88 92 86 88 91 90 89 92 93 94 92 92 90 93 90 93 93 92 93 91 88 86 87 83 80 81 83 80 83 81 83 81 83 84 84 87 89 90 89 86 86 84 82 89 86 87 89 92 87 106 117 116 112 104 104 106 101 99 101 103 103 103 103 100 98 101 101 99 94 99 95 94 90 92 90 87 85 
94 93 90 87 85 86 88 85 91 91 88 89 91 93 93 89 90 90 94 95 91 92 93 89 84 82 81 80 83 84 83 82 80 78 77 78 85 86 88 86 86 87 87 83 80 82 84 88 84 87 92 90 109 117 114 113 103 104 103 97 95 98 98 103 100 98 96 99 96 99 96 93 97 92 93 91 93 89 88 83 
89 91 90 84 84 84 87 85 86 87 88 90 89 93 91 91 92 91 95 92 91 93 92 89 82 82 82 82 81 82 80 81 80 79 73 73 81 85 87 89 85 87 85 86 80 80 84 86 86 87 91 86 109 114 116 106 101 100 99 93 96 97 101 101 96 96 95 93 93 96 93 91 92 88 90 86 89 87 87 81 
86 90 84 79 86 84 86 84 85 88 86 86 90 90 86 88 86 90 90 94 93 92 92 86 79 79 79 83 80 83 80 78 85 77 75 73 82 87 86 88 86 87 83 85 83 80 84 86 84 87 84 81 105 112 112 106 100 100 100 94 91 92 97 99 91 91 93 94 93 91 88 87 88 86 86 83 83 80 75 81 
79 83 82 79 84 87 86 86 85 82 84 84 86 85 87 89 88 90 89 92 93 93 95 91 78 76 73 76 77 82 77 78 73 74 72 72 81 83 83 87 86 89 84 80 82 78 85 89 82 83 84 83 99 96 94 97 104 102 101 93 93 91 91 90 90 87 87 88 88 89 85 85 83 80 81 77 75 79 74 71 
78 81 77 81 79 84 83 84 86 85 85 86 88 87 90 87 89 87 91 91 92 90 93 87 76 72 74 74 73 75 77 74 69 72 75 71 81 83 86 89 88 88 83 81 80 75 77 81 80 79 83 79 89 83 82 86 99 102 96 91 90 88 86 89 86 83 82 84 80 81 84 77 79 75 76 76 70 73 66 69 
76 78 77 81 79 78 82 81 82 81 83 84 85 85 86 88 87 89 89 90 89 92 89 85 76 77 76 77 74 73 71 68 67 69 68 71 79 84 85 88 83 84 79 79 76 75 80 82 79 80 81 79 82 81 89 96 95 96 92 87 85 84 86 86 80 78 74 79 77 80 74 74 74 71 68 70 69 71 62 65 
71 74 75 78 79 84 82 82 80 82 87 83 87 86 84 87 86 87 88 87 89 88 88 85 78 77 77 76 76 77 70 70 68 69 70 76 81 86 85 85 85 84 81 82 78 76 77 80 77 74 77 75 76 76 88 91 89 90 85 81 79 80 82 80 74 76 73 76 72 74 71 69 69 65 64 66 61 63 58 62 
73 77 75 77 79 81 75 78 79 80 83 83 84 84 86 85 86 86 90 88 89 87 86 85 83 81 80 78 81 78 72 74 72 69 72 80 83 85 86 87 83 85 81 82 81 77 79 79 78 78 74 74 71 67 86 89 88 89 85 79 77 73 78 73 73 71 72 70 70 68 70 67 66 63 63 62 59 57 54 54 
70 71 71 77 78 78 81 78 78 82 82 82 84 82 83 83 88 85 89 86 89 85 84 88 87 86 85 82 82 78 75 75 75 83 85 85 82 83 83 84 81 84 79 82 82 77 75 78 79 76 75 69 61 59 79 85 84 84 80 79 74 74 77 72 72 70 72 66 68 68 67 64 66 60 60 54 55 53 49 54 
69 68 69 75 77 80 80 79 81 82 84 82 83 86 82 84 87 84 89 85 87 87 89 84 84 88 89 88 83 86 87 86 90 91 88 89 86 83 82 83 81 82 84 78 77 77 78 80 76 77 73 68 58 45 63 78 79 79 79 76 72 74 75 74 73 67 67 69 66 66 64 62 63 59 53 51 51 51 50 51 
66 71 68 75 75 77 80 79 78 83 82 82 82 81 82 83 82 81 87 84 86 87 88 85 86 88 84 87 87 89 91 91 90 90 89 86 84 81 82 86 79 80 80 76 77 76 77 76 75 77 71 64 48 34 40 46 62 78 79 74 75 71 71 68 67 65 65 62 61 60 61 59 61 50 52 49 51 48 43 46 
65 68 67 71 76 79 78 77 81 80 79 80 83 84 81 81 85 83 82 85 86 85 86 82 86 86 87 85 88 87 89 87 86 90 85 88 83 81 81 80 78 79 78 76 78 78 76 76 73 76 73 65 42 29 28 28 42 67 69 69 70 66 69 64 62 61 60 56 58 61 60 59 60 54 49 49 46 45 45 44 
64 65 67 71 74 77 74 75 75 77 76 79 79 80 81 82 84 82 82 82 84 83 84 83 88 84 87 85 88 89 88 86 84 89 91 88 80 82 79 80 81 80 78 77 79 77 76 75 74 72 69 59 38 21 20 21 27 51 65 65 63 63 63 61 59 57 54 54 55 56 57 57 56 54 50 44 43 44 39 41 
62 61 64 72 75 78 79 76 73 79 77 75 80 76 80 78 82 80 80 81 84 84 81 83 86 85 87 84 87 89 86 85 88 90 87 86 83 80 78 80 80 82 80 81 80 77 76 78 74 75 69 54 32 17 18 18 22 39 61 61 60 64 62 60 53 53 52 54 51 56 55 55 53 47 45 42 41 42 35 40 
62 62 64 71 73 78 77 76 73 79 75 74 79 80 81 80 82 81 79 80 79 83 83 83 82 83 85 85 83 88 86 87 88 90 87 84 83 76 77 79 80 79 80 81 80 76 78 80 73 74 71 56 34 17 15 15 12 26 48 56 57 60 62 58 53 50 50 53 52 56 55 53 50 46 44 42 39 42 34 33 
61 61 60 72 71 75 73 73 77 77 77 78 76 80 83 81 80 82 83 82 83 83 80 85 80 82 83 86 85 88 87 87 89 89 90 87 84 80 79 83 80 82 80 80 80 78 77 77 73 70 66 52 30 13 12 10 7 13 41 52 56 58 55 53 50 50 49 54 48 54 51 49 49 43 43 41 43 38 30 30 
60 58 61 69 72 73 74 73 76 76 76 77 78 79 78 80 79 82 86 84 84 83 83 83 79 85 83 84 85 87 86 87 85 86 85 84 81 81 81 81 80 78 81 82 81 78 78 78 72 70 65 46 32 10 5 5 3 9 23 44 49 54 54 50 48 45 49 50 47 50 48 45 44 42 38 37 35 36 28 27 
57 57 61 67 68 74 75 72 76 75 74 70 78 76 78 79 78 79 84 82 81 83 84 83 82 85 80 82 83 85 84 87 88 86 85 87 81 80 81 82 80 80 83 82 82 79 74 76 70 69 66 48 29 11 8 5 4 5 18 36 45 49 49 48 43 45 46 44 43 47 46 40 41 36 40 37 36 32 26 28 
54 59 60 68 70 76 73 70 75 80 76 76 77 75 78 79 77 78 82 81 81 81 82 81 81 80 81 83 82 84 82 87 87 85 87 83 80 81 80 82 78 80 79 83 79 76 77 73 69 68 62 41 29 12 8 6 1 7 8 23 40 45 46 46 41 42 38 43 38 41 44 38 39 35 40 32 34 29 22 23 
58 55 59 67 68 70 72 70 75 74 74 75 74 72 77 80 80 77 79 77 80 82 80 80 80 80 80 81 81 85 83 84 83 81 82 82 80 79 82 81 78 82 77 81 79 74 74 73 69 65 63 40 30 10 7 6 0 1 4 14 34 43 42 40 42 40 37 37 34 39 41 33 37 33 31 28 30 28 21 23 
53 50 61 65 70 70 72 72 72 72 74 73 74 73 77 78 81 77 77 76 76 76 78 79 78 79 80 79 79 82 79 81 81 83 84 81 82 82 81 79 78 78 79 78 76 76 74 74 67 64 58 44 31 14 4 4 2 5 2 7 27 39 40 42 40 40 36 35 33 38 35 31 33 28 30 27 29 21 19 21 
53 52 57 64 68 72 70 72 68 70 72 70 77 76 75 76 76 76 74 74 69 71 75 76 74 79 76 75 79 80 78 76 80 82 80 82 82 77 79 76 75 78 78 78 79 76 73 74 72 66 57 44 33 15 8 5 3 3 3 4 16 33 41 38 40 37 32 33 30 31 31 30 32 30 30 23 23 25 18 15 
55 58 64 69 67 71 69 69 67 68 67 69 72 74 73 75 73 69 65 61 60 62 65 69 70 73 72 71 73 77 72 72 75 77 79 80 78 76 76 77 75 77 74 75 78 74 72 75 67 63 55 40 35 10 8 5 3 5 4 6 12 28 33 32 35 36 33 31 30 30 29 32 28 23 27 23 26 24 19 19 
57 55 66 66 66 69 69 71 66 70 69 67 69 72 74 71 67 61 57 52 58 59 58 63 63 66 71 67 68 65 64 62 63 68 70 69 74 74 74 76 73 76 75 76 74 72 72 71 68 64 55 41 37 17 12 9 5 7 5 9 8 18 30 31 34 36 30 32 27 31 33 29 30 26 22 20 26 21 20 20 
58 61 64 68 65 70 68 68 70 68 70 68 70 73 70 72 66 52 50 52 57 60 63 62 60 63 63 61 59 59 56 55 59 59 59 61 70 70 75 76 75 75 72 73 72 70 69 71 64 60 58 46 40 26 19 12 13 5 9 11 13 18 28 32 33 34 34 33 24 33 34 29 30 19 22 20 20 19 17 21 
59 61 63 64 71 70 71 69 68 66 70 67 67 70 70 68 57 46 51 55 55 59 65 64 61 65 62 59 55 55 54 56 57 56 58 60 64 69 74 72 74 72 71 70 71 68 69 70 67 60 54 46 44 27 25 18 16 13 12 12 16 23 27 33 31 35 30 30 25 33 31 26 29 19 21 20 20 13 11 16 
62 62 63 68 71 67 68 69 69 68 68 67 67 67 65 61 52 47 51 50 59 62 63 61 62 65 61 59 57 58 57 55 57 57 58 59 62 71 73 70 69 72 72 72 72 71 69 68 62 57 50 44 47 32 28 20 19 18 13 20 23 31 30 31 34 37 32 29 27 30 34 29 29 19 23 19 19 13 11 9 
64 66 65 68 68 67 67 64 67 66 69 64 68 67 63 53 52 48 50 53 57 58 63 61 61 64 65 63 60 58 60 59 58 63 66 65 64 66 72 75 67 72 71 76 70 66 67 67 62 62 53 50 47 34 26 20 23 20 19 19 25 30 33 28 32 32 29 30 25 30 30 26 24 20 25 18 16 11 12 13 
62 65 69 67 73 73 69 70 65 70 70 67 66 69 63 55 52 51 53 55 56 60 64 63 61 63 64 66 60 61 64 62 61 66 65 65 64 68 70 74 77 73 72 71 73 69 67 68 65 58 55 51 49 35 30 23 24 23 23 22 28 28 29 29 33 32 29 27 22 28 27 22 22 17 19 17 12 11 7 12 
65 67 69 71 75 75 72 72 73 70 69 66 68 71 66 59 56 53 55 56 61 62 66 63 65 66 64 61 66 69 68 68 66 73 70 68 70 72 75 77 76 76 71 76 76 71 70 68 65 63 55 53 52 36 30 24 21 25 24 27 32 30 28 29 30 31 31 24 20 24 26 23 23 15 18 18 15 12 8 8 
72 65 71 69 72 74 69 71 72 70 70 67 69 73 69 65 64 58 61 60 66 69 70 66 70 69 68 66 65 69 70 69 67 75 74 73 75 76 76 75 78 76 72 79 71 68 71 69 66 57 56 53 49 34 31 28 21 28 28 29 31 31 27 29 28 31 29 23 21 29 27 22 23 19 19 21 15 14 8 8 


