P2
80 60
258
139 139 139 140 138 130 129 138 141 150 151 159 171 163 149 140 139 142 140 141 139 138 135 137 129 127 125 120 120 122 121 120 123 122 122 126 122 121 111 111 110 108 106 110 114 116 120 119 117 123 120 119 120 120 123 116 117 118 113 113 108 113 109 109 103 100 97 98 97 97 91 91 86 86 86 85 83 87 80 78 
134 139 134 139 135 132 129 139 145 152 170 219 230 200 171 154 143 140 140 142 141 140 139 138 133 137 131 130 123 124 125 121 127 126 125 126 129 126 119 114 118 117 117 112 117 120 120 121 116 123 122 121 125 123 126 121 122 118 113 110 110 110 107 111 106 107 104 104 104 99 93 98 94 86 90 85 81 85 79 76 
140 138 132 139 137 132 134 140 146 153 175 229 243 242 210 173 149 145 143 145 146 141 141 143 136 137 131 134 126 131 131 126 131 134 131 132 133 137 131 127 127 126 124 123 125 129 128 126 121 126 126 126 126 123 123 117 123 117 117 113 114 112 113 114 112 110 111 106 106 105 101 100 95 93 90 90 87 85 83 79 
136 139 135 137 139 135 134 138 147 157 179 223 245 258 232 188 156 141 137 141 141 141 143 144 137 138 140 136 135 134 134 132 131 133 133 134 135 136 132 128 128 132 126 127 130 134 138 130 127 127 131 131 129 125 129 123 126 116 118 118 117 114 113 116 114 109 112 113 113 112 105 102 102 100 96 94 89 88 81 82 
130 135 138 141 137 139 134 139 144 155 181 219 238 254 231 191 156 140 132 134 136 139 140 140 140 137 135 132 133 135 131 133 134 135 134 135 137 137 133 127 129 131 131 131 132 136 139 129 135 138 136 133 130 132 130 127 124 121 118 116 118 114 115 115 115 111 113 110 107 108 106 107 103 101 94 92 89 90 84 82 
132 140 136 138 136 133 135 140 144 161 186 216 238 246 219 185 155 130 124 120 123 121 130 135 139 141 135 133 132 135 134 129 134 134 133 135 136 134 127 129 129 134 128 132 135 136 140 135 135 138 139 138 137 132 132 132 126 121 120 120 120 119 117 116 114 111 111 114 111 111 108 107 104 99 98 96 93 93 89 86 
133 138 138 140 138 136 133 142 145 157 194 218 233 233 204 173 146 124 119 115 113 116 119 123 129 134 135 133 131 131 130 131 132 132 135 132 133 134 129 128 129 132 131 132 136 135 139 137 141 144 141 141 138 135 134 132 128 129 124 124 121 118 117 117 116 115 113 116 113 111 109 106 106 106 101 100 96 96 89 89 
138 139 133 139 136 136 134 142 146 158 196 209 208 201 180 154 134 120 115 109 113 106 108 114 113 123 127 128 130 130 135 133 138 133 135 135 136 134 132 130 129 129 133 129 134 135 141 139 145 145 148 145 144 140 134 135 132 131 127 125 124 121 118 117 118 115 112 115 114 111 110 111 109 107 102 99 93 97 86 87 
130 140 135 140 141 136 135 138 141 154 182 181 170 163 150 134 119 114 109 109 107 102 105 108 110 112 117 120 125 130 133 132 133 132 132 132 137 135 128 129 128 133 129 132 135 135 140 143 147 153 148 146 144 145 141 135 136 132 130 130 128 126 123 119 119 119 118 119 116 114 111 113 112 109 103 101 96 101 93 94 
135 137 132 137 138 135 132 139 141 143 158 154 149 138 125 118 113 109 108 107 104 106 103 104 106 108 111 110 114 117 125 130 134 132 133 132 132 135 126 125 126 129 128 131 134 138 138 143 147 150 150 149 144 143 138 132 135 133 131 133 131 130 125 125 124 125 125 121 119 117 115 116 112 112 104 101 103 100 95 97 
137 139 137 142 136 137 135 134 133 133 132 130 125 117 113 108 105 106 101 104 102 103 102 104 99 103 104 105 108 111 111 114 123 133 131 133 134 135 127 124 125 129 129 129 134 137 138 143 147 150 150 149 145 142 138 135 133 131 127 131 128 126 126 126 123 128 125 125 124 121 118 119 117 117 111 105 105 109 100 95 
133 135 131 137 135 135 134 137 130 123 118 111 110 106 102 103 100 98 99 102 100 99 100 98 98 98 100 100 102 108 107 108 108 115 125 131 136 130 131 124 126 129 130 129 132 134 139 145 148 146 145 143 144 137 138 135 134 132 126 126 127 124 123 123 124 122 122 120 120 121 120 118 119 115 114 111 110 112 105 99 
137 137 133 135 138 134 134 134 126 118 106 101 104 101 97 96 94 98 101 103 101 101 98 96 94 97 95 100 105 103 100 100 105 106 111 118 126 128 125 122 125 128 126 128 130 134 137 140 149 145 144 143 141 138 137 135 134 128 127 125 121 117 119 121 117 117 121 119 120 117 120 119 116 114 113 108 108 112 105 99 
133 133 132 134 136 133 134 133 129 115 105 98 98 96 92 93 93 95 97 96 98 96 97 98 98 93 94 95 97 98 94 97 97 99 102 103 106 114 124 124 125 128 127 125 125 134 141 141 144 147 144 143 140 140 139 138 129 127 126 126 120 123 118 121 117 113 115 119 120 120 117 116 116 115 116 113 110 115 107 103 
130 132 132 133 134 135 137 137 132 122 106 90 93 94 93 93 91 98 95 95 95 95 97 96 94 92 90 91 89 92 91 89 96 96 96 98 99 99 102 113 122 128 126 128 130 131 136 142 146 148 147 143 139 138 138 131 133 129 122 124 122 121 120 118 118 117 117 116 114 116 116 118 117 114 115 109 110 113 108 103 
132 132 129 132 134 137 133 137 135 121 100 91 92 92 94 93 94 94 97 95 97 97 99 94 90 90 90 91 87 89 85 86 89 91 92 94 95 98 92 103 122 124 124 123 127 131 133 139 142 143 144 141 139 138 136 133 130 129 122 122 120 125 118 119 113 114 114 117 114 114 114 116 114 114 111 110 112 114 104 100 
131 134 127 133 135 137 133 136 134 122 103 92 90 90 90 92 93 91 95 95 92 94 94 95 90 88 89 89 85 88 85 87 89 86 88 92 94 92 89 98 122 126 124 126 129 133 135 141 143 143 146 139 139 134 137 133 128 126 123 122 123 125 121 120 112 114 116 113 114 114 115 117 113 111 111 110 111 109 104 104 
134 129 126 134 130 134 132 135 130 121 101 91 90 89 89 89 91 92 94 94 95 94 91 93 87 87 85 84 82 84 83 85 84 87 88 90 93 93 88 100 119 125 124 125 126 131 129 139 142 142 141 136 136 136 136 134 130 125 124 121 121 121 118 116 116 113 109 114 112 113 114 115 112 113 111 107 108 114 107 101 
129 126 125 133 134 133 128 132 128 113 96 88 89 90 85 91 87 91 90 95 92 92 90 92 87 90 86 84 82 84 79 83 82 86 85 87 85 90 89 110 118 122 121 122 126 131 132 145 143 140 140 136 135 133 131 131 129 124 124 126 122 121 119 118 115 115 114 114 110 114 112 115 113 112 108 106 109 111 106 101 
121 127 120 128 129 126 123 123 120 105 94 87 87 86 85 88 89 90 87 92 90 93 93 93 87 86 84 86 83 83 79 82 84 84 85 87 90 92 88 107 116 122 122 122 125 126 128 137 136 141 135 135 135 129 128 127 122 121 120 122 117 119 117 115 115 114 113 114 113 112 108 112 112 111 109 108 104 110 100 101 
127 122 121 125 125 119 114 111 106 98 90 84 83 86 83 88 89 87 90 90 92 92 90 87 84 87 83 82 78 80 79 82 82 78 83 84 85 83 87 108 115 118 118 116 123 127 126 135 139 137 135 134 130 128 125 123 124 122 120 117 114 118 115 114 112 111 111 111 110 110 111 113 109 110 111 107 102 110 104 98 
128 128 125 126 118 110 102 102 102 94 89 86 84 82 87 84 83 86 88 90 90 90 86 90 85 85 85 82 80 79 73 77 77 77 82 81 81 81 84 107 111 116 114 117 118 121 121 130 134 135 135 130 130 129 127 125 123 119 118 117 116 112 117 113 110 111 111 110 111 108 109 110 107 108 105 102 103 107 102 96 
125 126 120 120 113 100 94 94 92 92 87 80 84 83 83 82 87 87 87 89 84 88 86 83 81 81 80 76 77 76 72 74 73 77 76 76 77 77 82 100 109 110 111 114 114 116 120 130 132 132 131 129 130 128 124 125 122 120 118 116 113 113 117 113 112 110 110 108 109 110 111 111 104 106 105 101 103 105 99 103 
126 126 118 120 115 103 95 94 88 87 85 80 85 84 82 83 84 85 87 85 84 85 87 85 79 81 77 79 74 74 70 71 72 73 76 74 77 73 79 98 104 106 109 108 112 113 117 127 133 130 129 125 127 122 123 118 118 117 114 112 111 111 111 111 112 110 109 110 106 108 108 112 107 105 104 102 100 103 96 100 
124 122 117 116 111 100 92 89 88 85 83 79 84 86 83 81 82 85 85 84 83 86 82 85 77 79 78 75 75 72 71 72 74 73 74 73 77 73 82 96 98 106 103 108 108 108 114 125 129 130 128 126 124 123 121 114 112 111 111 109 107 110 108 105 108 106 109 110 105 107 106 109 105 102 100 100 100 101 92 98 
120 116 112 113 107 94 87 86 87 86 83 81 80 83 81 80 83 82 83 82 82 83 81 83 77 75 76 75 74 75 70 70 74 73 70 73 72 71 78 94 99 100 101 100 106 106 115 124 125 124 126 120 124 123 122 113 108 108 108 105 103 107 104 103 109 106 108 106 105 109 107 103 103 100 100 101 101 102 93 90 
113 114 109 112 103 96 90 89 87 87 80 77 80 77 78 80 80 81 85 80 82 84 80 81 76 75 75 75 69 71 70 71 73 68 71 70 72 78 84 94 99 103 102 104 103 110 111 118 125 119 122 120 121 121 117 113 109 107 103 104 105 107 104 104 103 104 107 107 101 104 103 103 101 99 98 97 95 94 87 88 
110 107 106 107 102 94 85 86 84 83 80 78 79 78 79 78 82 80 80 84 83 82 80 81 74 76 75 74 76 76 75 72 72 67 71 70 71 75 81 94 93 99 98 98 101 104 107 116 122 117 115 115 119 121 116 115 107 108 102 103 103 103 103 102 101 103 102 105 101 102 104 105 100 99 96 93 92 93 84 87 
107 108 103 104 99 92 87 85 80 82 78 76 79 80 78 76 81 80 83 82 82 82 78 78 71 73 86 95 96 82 75 67 71 68 70 71 73 79 85 95 96 99 99 97 98 102 107 115 114 115 116 115 115 117 113 109 109 102 100 99 101 101 101 100 100 98 100 102 100 99 99 101 97 97 92 92 90 92 83 82 
108 110 100 104 96 89 86 83 80 81 79 77 76 79 76 76 76 80 79 79 83 81 77 76 75 85 103 108 104 97 78 70 69 69 69 69 70 71 87 94 98 99 98 97 99 100 106 112 112 111 112 108 113 111 110 103 106 102 98 97 101 103 99 99 97 100 99 100 98 100 96 97 94 94 93 95 91 90 80 80 
105 103 101 99 97 88 86 79 84 80 77 74 80 78 76 75 77 78 83 81 81 79 80 78 76 98 111 110 108 106 82 67 64 69 67 67 70 72 87 95 97 98 97 97 95 98 106 112 108 112 107 108 108 112 108 102 99 101 96 96 98 100 98 93 97 94 96 96 96 95 96 97 96 94 91 91 89 90 78 79 
99 101 96 101 95 90 84 82 77 79 80 75 78 79 74 73 76 78 79 79 78 81 82 78 88 110 109 105 103 104 87 74 66 67 65 67 72 72 82 91 91 92 93 93 92 96 97 96 104 109 106 103 105 107 103 101 101 98 96 93 96 100 98 93 93 94 95 92 95 92 91 95 94 90 90 89 91 86 78 73 
98 102 95 98 97 94 83 81 80 78 76 77 75 73 74 74 77 79 79 79 79 77 80 77 88 105 106 95 95 90 81 68 65 65 67 68 71 73 79 86 88 86 85 88 85 85 82 75 81 83 87 96 100 98 102 101 102 97 92 95 94 97 92 92 90 89 91 93 92 90 93 91 90 81 83 83 83 84 74 73 
97 99 95 99 96 89 87 84 81 78 76 74 77 77 74 74 75 80 81 78 77 75 78 80 89 114 104 95 89 92 81 64 61 62 63 68 69 70 82 81 82 85 79 78 78 79 74 63 61 66 68 72 78 79 88 98 101 98 94 93 93 93 89 86 88 86 85 88 86 86 87 84 84 80 79 78 77 76 72 69 
96 98 93 94 89 86 86 89 84 79 79 76 79 75 74 78 76 78 77 77 75 74 75 75 91 108 110 108 103 102 82 66 60 62 63 68 67 70 76 75 75 79 75 76 76 71 67 54 52 54 56 61 72 78 84 97 98 93 87 86 88 89 86 84 83 83 85 82 85 81 79 81 81 76 72 73 70 71 68 61 
93 98 92 93 91 82 81 90 82 79 76 73 76 79 76 75 74 77 76 75 76 75 73 72 84 100 107 104 104 101 81 59 63 61 62 65 68 68 74 76 70 70 70 71 68 65 59 52 46 49 50 54 79 89 92 91 93 90 85 82 83 85 80 76 83 83 81 78 80 77 78 77 74 69 68 65 65 66 60 61 
95 97 92 92 84 82 82 93 83 80 76 73 76 74 75 73 75 78 74 76 74 74 72 73 73 96 106 102 103 95 72 63 64 61 61 62 66 70 70 70 67 67 64 66 67 61 53 46 41 40 45 49 69 85 91 88 86 84 81 79 80 82 76 72 74 76 75 74 76 73 74 72 69 66 61 63 63 62 57 57 
92 96 90 91 87 80 84 92 80 78 76 73 73 73 74 75 72 73 77 76 74 72 71 72 69 83 101 99 94 77 66 58 64 65 65 62 63 67 68 71 61 67 66 63 60 52 48 38 36 34 37 41 59 79 86 82 83 82 78 76 74 79 73 69 75 72 71 73 71 70 69 71 65 63 63 60 56 59 51 46 
93 97 90 90 88 82 87 93 82 78 77 75 76 77 75 71 77 76 73 72 73 71 69 67 67 72 83 83 72 63 60 59 61 63 62 60 60 63 66 63 62 60 59 59 55 48 40 35 29 27 29 33 48 70 80 80 76 77 77 73 74 74 72 65 74 72 73 67 66 69 68 69 64 57 59 57 55 55 51 54 
94 95 88 91 88 82 90 92 80 79 72 73 76 74 71 74 72 71 72 72 70 71 71 69 65 65 66 63 59 58 59 59 61 61 61 62 57 66 64 60 57 57 55 50 52 46 39 31 23 23 22 26 32 51 63 73 72 77 72 70 71 72 64 63 65 63 69 66 65 68 68 66 55 54 54 54 52 52 45 47 
93 94 88 92 88 82 91 93 82 80 75 76 75 74 73 71 75 73 72 70 72 70 66 71 65 63 62 60 61 59 58 60 58 60 62 64 56 62 63 59 59 56 52 48 48 41 38 30 17 16 17 18 22 28 36 53 71 72 73 72 71 72 61 60 62 60 62 64 63 64 65 63 56 56 51 53 49 52 43 42 
88 90 87 89 87 81 96 88 76 75 73 74 74 73 72 71 72 70 75 68 71 69 70 65 64 63 60 57 57 57 60 61 62 61 62 62 58 59 55 51 50 52 51 46 44 38 34 26 22 19 13 9 15 15 21 32 61 69 62 67 67 65 59 57 59 59 60 62 64 60 63 61 52 50 48 47 48 49 39 38 
88 95 87 90 90 86 93 92 82 77 76 71 73 74 72 69 73 73 69 71 70 68 70 64 64 61 61 59 60 56 59 57 60 61 60 58 59 57 54 49 50 48 47 44 42 37 27 25 29 26 17 7 9 14 14 26 49 65 64 62 60 61 55 56 57 55 58 61 60 59 60 55 52 47 44 45 45 46 37 35 
90 92 88 90 89 87 101 89 80 78 77 69 73 71 69 68 70 70 70 69 71 65 66 65 65 63 60 55 53 53 56 54 57 60 60 62 57 54 50 46 48 41 44 42 36 34 29 27 23 15 9 4 9 12 15 19 32 57 59 57 61 62 54 53 56 55 55 56 55 57 56 56 48 44 42 44 42 42 33 35 
90 92 88 91 88 93 106 94 81 79 76 70 70 71 72 69 72 68 70 70 69 68 65 64 61 60 58 54 52 54 53 58 58 62 60 59 55 53 48 43 42 40 42 38 34 33 27 35 25 12 7 5 3 10 13 7 22 52 56 55 54 58 52 49 56 51 53 53 55 51 53 50 48 43 39 43 45 36 31 30 
89 96 85 90 88 92 109 92 80 78 74 67 71 72 70 66 64 70 71 70 70 67 66 63 60 59 56 54 51 51 55 56 55 55 57 56 51 50 44 40 42 40 37 36 30 30 28 35 30 11 4 3 3 7 8 2 10 37 51 53 53 55 46 48 51 50 49 51 53 51 51 48 43 39 38 38 36 33 22 26 
93 91 86 88 89 96 106 97 82 76 75 72 73 68 70 65 68 68 71 69 70 67 67 65 57 58 55 53 53 49 54 56 55 58 54 57 50 49 41 40 37 36 36 31 28 27 25 37 30 16 8 4 3 3 4 4 6 20 45 48 49 50 44 45 49 48 48 48 50 50 47 48 41 41 38 35 31 28 19 20 
88 94 82 90 92 100 103 91 81 77 72 67 72 68 68 66 67 69 70 69 68 66 61 63 58 56 54 51 50 54 51 54 57 51 53 53 49 49 39 35 37 36 36 35 34 34 35 32 30 17 10 4 4 3 4 1 3 13 37 50 49 50 41 45 50 48 46 43 47 45 46 44 36 37 37 33 28 25 19 19 
85 90 87 87 89 109 108 91 80 77 73 71 69 71 70 66 71 69 68 69 68 66 65 59 55 54 54 50 49 51 53 54 56 55 53 49 48 41 38 37 31 35 34 31 36 36 34 29 29 20 10 4 0 1 4 4 2 5 23 43 48 49 44 42 47 41 41 40 42 41 42 40 35 36 37 33 26 22 14 17 
80 84 81 86 90 112 108 94 81 76 71 68 70 67 68 65 69 69 67 65 67 62 63 60 56 55 51 47 49 50 51 51 53 54 51 54 46 42 35 30 24 27 29 26 31 33 32 25 24 20 11 6 4 1 4 6 1 4 13 40 47 49 40 40 43 39 34 37 36 39 39 39 33 34 36 32 24 21 14 13 
76 80 79 81 91 115 115 91 79 73 72 68 69 69 68 66 70 71 69 64 63 62 60 59 55 53 49 44 48 49 47 47 51 48 50 48 46 40 29 27 23 21 23 20 23 28 30 25 22 22 15 8 3 2 3 1 4 3 10 31 43 42 36 39 41 35 36 35 33 35 38 39 30 31 29 29 25 19 13 13 
70 72 67 78 92 113 109 89 74 72 70 65 67 66 66 62 62 68 64 63 63 59 57 53 53 53 48 49 63 62 50 48 50 49 50 48 44 35 31 20 20 17 20 16 24 23 26 20 16 13 13 9 6 2 4 2 4 1 5 19 36 39 34 34 36 33 33 35 31 36 31 33 28 30 30 25 23 20 12 9 
62 62 66 74 84 97 93 74 68 68 69 63 65 65 64 62 64 65 65 64 61 55 51 52 51 50 51 73 87 86 56 50 51 51 49 52 43 36 25 22 22 19 21 19 21 22 23 15 13 13 14 10 9 3 6 0 4 5 7 13 30 37 34 33 33 32 33 33 29 30 31 31 31 27 27 25 22 17 12 5 
58 59 60 68 74 74 71 69 66 70 70 65 69 67 64 60 62 64 61 62 55 54 54 62 57 50 59 84 89 88 60 49 48 50 49 48 43 38 30 23 22 20 20 22 24 24 22 18 16 16 14 16 13 11 11 6 7 7 10 11 23 36 32 33 35 34 32 33 34 31 29 30 29 27 27 21 19 16 10 5 
63 61 57 66 66 62 63 64 65 69 69 66 66 68 63 60 63 67 63 61 54 53 52 66 61 57 64 70 70 68 55 48 53 54 52 46 44 41 29 27 22 26 24 23 25 25 27 18 19 21 23 20 18 14 16 11 11 13 17 19 28 33 32 36 41 34 34 35 33 34 30 31 28 27 27 22 20 16 14 14 
61 62 57 63 65 60 58 59 64 70 65 67 66 63 66 60 64 61 61 58 51 49 46 54 53 52 50 50 49 46 44 44 49 52 52 49 48 44 35 30 31 26 27 30 30 27 31 21 22 22 27 24 21 20 22 14 19 17 17 23 31 36 33 40 38 34 36 36 33 32 28 28 26 25 22 20 16 16 10 9 
64 64 63 65 66 56 57 61 69 66 67 64 64 69 63 62 59 64 60 55 49 49 48 46 46 42 43 41 36 37 41 44 52 51 52 50 46 45 35 29 30 28 26 31 32 32 34 27 29 29 27 25 27 26 23 17 21 20 19 27 33 35 39 37 40 37 35 34 29 31 32 26 29 27 23 23 15 17 9 13 
67 64 66 65 65 55 52 57 66 65 67 64 68 63 63 64 60 59 58 55 47 50 48 45 44 39 38 34 31 34 39 45 51 51 53 48 49 48 39 34 30 31 28 32 31 35 35 29 30 29 30 29 26 26 26 25 24 27 28 32 33 33 35 37 37 34 31 35 29 30 32 31 26 25 23 19 15 19 10 12 
70 74 66 66 65 55 52 56 63 66 67 66 68 64 60 63 61 62 56 54 49 48 49 47 41 41 36 33 33 31 43 49 51 52 53 49 52 49 41 35 30 27 29 33 32 34 36 33 31 31 32 30 29 29 27 25 30 26 32 35 32 33 33 35 37 30 28 33 30 30 28 29 29 24 24 18 17 14 11 12 
78 70 66 68 64 58 51 56 65 66 65 68 72 68 65 65 65 61 54 52 52 50 46 48 43 40 37 32 34 39 44 51 55 51 57 54 50 51 43 36 36 33 30 35 32 37 36 33 31 35 30 29 29 26 24 27 27 26 31 33 28 31 32 33 31 27 27 30 26 27 22 23 30 24 24 18 19 20 11 11 


