P2
80 60
173
148 151 149 145 145 145 150 153 152 152 151 147 147 146 149 151 149 143 144 141 136 131 125 126 122 121 122 119 124 117 114 115 118 120 119 119 117 123 123 122 119 116 114 110 113 114 110 109 112 113 118 116 113 112 114 111 113 111 110 110 106 104 104 107 107 103 102 103 104 100 97 99 98 94 90 91 91 88 90 86 
140 149 148 145 143 149 148 152 149 150 154 149 147 149 145 148 146 141 144 142 136 131 127 127 124 122 125 122 122 119 114 116 118 117 121 122 123 124 126 120 123 117 113 115 114 114 109 111 109 114 120 119 116 113 115 111 116 113 111 105 106 106 105 111 106 109 102 104 101 101 97 98 96 96 93 88 87 89 89 84 
142 148 147 147 145 146 149 153 154 153 157 148 151 148 145 149 144 143 142 141 132 132 127 128 126 126 122 122 122 119 117 117 123 122 125 125 128 127 131 127 129 124 124 124 120 122 117 111 118 119 114 118 114 113 117 114 117 113 110 108 107 109 109 109 106 108 107 104 108 100 100 96 98 97 96 91 93 87 90 89 
144 149 147 147 148 146 149 152 153 152 154 149 151 151 145 149 149 147 142 143 135 130 128 126 130 123 122 119 121 119 120 121 122 124 129 127 128 132 132 132 129 128 126 129 127 128 123 123 119 123 122 119 121 121 116 116 119 116 114 115 106 109 108 115 110 111 108 109 108 108 104 100 100 101 98 96 91 90 92 88 
143 148 149 151 146 151 152 154 152 153 154 150 151 151 143 153 149 147 143 141 135 132 129 131 129 125 125 122 120 124 121 122 127 128 127 130 130 132 134 133 129 131 126 128 130 130 126 125 123 127 126 127 125 123 124 120 120 116 116 116 113 112 114 111 107 113 107 108 106 106 104 106 107 102 95 96 94 95 92 93 
144 150 147 147 144 147 152 156 155 154 157 150 153 152 148 149 146 145 147 140 135 129 129 130 130 125 126 128 125 122 122 125 124 132 128 131 128 130 132 133 132 132 129 128 130 131 126 129 128 129 132 131 130 125 125 123 122 120 115 119 115 113 114 113 115 116 111 112 111 106 107 107 108 102 101 101 97 97 95 92 
143 148 150 145 148 147 151 151 152 156 153 149 148 149 150 150 150 147 145 139 138 132 128 126 126 129 124 125 122 124 124 124 125 127 128 130 131 127 129 131 127 132 128 130 128 132 129 130 135 133 132 133 130 129 128 126 127 121 121 116 114 117 115 116 113 115 114 112 110 108 107 107 107 108 103 101 99 96 95 95 
146 150 149 152 147 150 152 154 154 152 156 149 152 153 147 149 148 147 145 138 140 130 133 131 126 125 123 129 127 124 120 127 126 127 129 132 134 129 131 132 132 130 128 129 129 128 129 132 136 138 141 137 138 133 134 129 127 123 123 121 121 121 121 121 116 117 118 113 116 111 111 107 108 108 110 101 103 100 101 99 
145 152 147 150 150 154 152 151 154 153 154 149 151 150 153 152 150 152 147 141 138 132 132 128 128 127 127 125 125 124 124 128 124 125 129 130 129 130 128 135 132 129 125 127 128 129 132 137 135 137 140 138 138 134 133 131 129 124 126 124 125 121 122 120 119 120 119 117 116 115 112 111 111 113 109 106 105 102 100 96 
146 152 150 147 150 152 154 153 153 154 156 152 151 153 150 150 148 148 146 143 140 138 134 133 128 130 127 130 127 123 123 125 127 128 131 131 131 131 133 129 131 130 127 128 128 132 135 136 139 136 138 137 133 136 131 132 129 129 126 127 125 124 121 121 122 121 121 121 121 116 116 117 117 114 111 108 107 105 106 102 
142 150 147 150 154 153 155 151 149 153 153 153 152 152 149 151 149 151 152 142 136 132 136 129 128 127 129 124 126 124 120 127 126 127 130 131 130 131 131 133 130 130 129 121 126 133 137 137 141 140 136 137 134 131 132 130 124 124 124 120 125 121 123 119 123 124 123 121 123 118 117 117 118 118 113 112 111 109 109 101 
145 150 150 150 154 156 152 155 154 152 154 149 151 148 150 152 149 152 144 144 137 135 128 130 128 127 126 123 125 119 124 125 125 125 129 129 130 132 130 131 133 130 123 126 129 133 132 138 142 143 135 137 136 131 128 128 125 124 124 123 117 120 121 123 124 122 122 122 117 121 118 117 118 119 115 113 115 111 105 104 
145 150 147 155 152 155 158 155 151 151 152 151 152 150 147 155 153 147 146 142 138 133 133 131 126 125 124 126 126 119 122 124 125 128 127 131 131 132 130 131 130 131 125 125 126 133 131 136 141 140 137 139 135 130 130 130 126 124 124 122 119 117 121 117 120 120 117 120 119 118 121 118 115 117 116 114 112 113 109 106 
147 151 149 151 154 154 155 158 153 153 154 152 148 149 147 148 149 150 148 141 134 131 133 127 129 124 123 127 120 120 121 120 124 126 131 130 130 130 130 130 126 128 130 125 125 130 131 137 140 141 141 141 133 131 130 132 127 126 124 119 118 120 119 118 118 117 119 115 115 116 115 117 117 114 118 114 115 113 111 102 
145 151 150 153 155 155 155 155 153 154 154 147 149 148 149 153 149 148 146 143 134 133 129 127 130 124 124 127 121 120 120 123 124 123 119 127 126 130 130 130 126 127 127 126 126 129 133 139 136 140 139 139 136 131 130 127 125 125 123 120 118 118 120 115 117 116 117 118 116 119 113 119 119 116 116 114 118 111 111 111 
146 153 153 152 152 152 157 157 157 153 155 151 153 152 149 149 149 149 142 141 136 130 128 126 124 122 123 123 126 123 122 119 122 122 123 128 125 131 131 132 126 128 128 127 129 131 131 137 137 137 137 135 136 130 129 125 124 122 121 116 116 120 118 118 120 117 114 118 118 118 113 115 118 119 120 115 114 115 112 113 
147 149 148 150 150 155 157 155 154 156 153 148 148 152 150 150 151 149 143 139 135 129 126 126 123 120 121 119 125 121 120 124 123 121 125 126 128 131 128 131 127 129 126 125 126 128 132 136 134 137 133 133 135 126 127 125 129 125 122 115 118 118 117 120 118 114 111 114 117 115 113 113 118 113 116 114 116 113 112 108 
144 148 148 151 156 154 154 154 153 155 154 148 149 149 148 148 147 144 139 138 134 130 126 123 126 122 122 118 117 119 118 119 121 121 125 125 125 127 126 128 127 130 128 125 125 128 130 134 140 134 136 136 133 129 126 124 128 122 122 119 118 115 117 115 116 115 112 113 111 113 112 114 113 114 118 116 115 116 111 108 
144 147 148 150 153 152 153 155 150 154 153 149 146 149 148 147 144 144 137 138 134 127 127 123 122 119 119 117 119 116 116 119 119 122 124 126 126 128 125 129 127 125 123 118 121 124 130 137 132 133 134 130 133 124 126 121 126 122 120 116 117 112 112 114 114 115 114 114 111 114 112 114 114 116 113 115 114 116 113 112 
144 148 146 146 147 150 148 154 149 149 147 145 145 146 144 147 143 138 136 135 129 126 123 121 118 118 118 117 117 114 116 116 118 119 124 124 121 123 124 127 125 127 121 122 120 121 127 135 134 131 131 131 129 123 121 122 120 121 118 115 115 111 111 115 113 115 110 113 112 110 111 110 113 113 112 114 114 111 116 112 
138 141 143 147 146 151 148 150 151 145 148 142 143 143 143 139 137 136 135 132 126 123 122 119 120 117 115 116 111 112 108 114 117 118 115 121 123 124 121 123 123 124 117 121 120 120 121 129 133 130 131 130 129 122 122 122 119 116 117 112 114 114 110 110 112 111 109 109 111 111 112 108 112 115 111 113 115 113 110 107 
136 141 141 143 147 147 146 150 148 149 146 141 146 148 142 142 134 133 131 129 126 122 118 118 115 114 114 112 115 106 110 109 110 111 114 116 117 117 121 122 114 118 116 117 115 117 120 125 125 127 126 128 128 119 123 122 120 121 119 112 112 112 112 113 112 112 108 112 108 109 111 111 114 111 110 107 112 109 107 106 
136 140 139 144 145 146 144 149 145 146 142 138 140 137 134 136 133 135 128 126 121 118 120 114 114 112 112 111 109 109 105 103 108 111 112 114 117 112 116 112 113 112 114 113 112 113 115 123 125 125 125 125 125 118 119 119 117 117 114 111 108 111 113 111 109 111 110 111 109 109 110 109 110 115 110 109 112 108 104 105 
132 139 136 142 144 147 143 142 140 142 142 139 136 138 135 136 134 130 129 125 120 118 115 113 111 111 109 108 106 103 102 102 103 108 107 108 110 111 109 109 111 111 108 108 106 111 114 124 123 121 122 124 122 115 117 118 118 112 112 110 110 106 111 111 111 110 110 107 110 111 108 109 108 110 107 110 109 106 104 101 
129 138 138 141 145 145 142 141 140 141 139 136 132 137 133 133 132 133 127 124 121 117 115 111 110 107 105 108 104 100 98 102 102 107 106 109 108 106 109 108 108 107 111 104 107 109 114 119 121 120 120 123 122 118 115 114 112 111 108 107 107 103 107 108 107 110 110 109 110 114 112 107 108 110 108 106 108 105 102 107 
129 137 132 137 139 142 140 141 137 137 137 133 133 132 133 129 134 128 123 124 119 126 123 107 106 105 102 104 104 98 103 99 99 105 104 112 110 106 108 111 106 107 105 106 103 104 113 120 119 120 121 123 122 115 115 114 113 110 105 107 105 103 105 105 107 102 107 106 107 108 108 108 107 108 107 108 108 102 102 97 
125 131 132 136 137 136 135 135 135 133 134 133 131 133 130 131 130 126 122 121 120 167 167 118 106 101 98 100 101 95 89 93 93 94 103 108 108 119 120 113 105 105 102 102 101 104 111 115 115 117 116 116 117 116 116 113 112 111 105 104 102 102 102 103 101 105 105 107 106 108 106 103 107 106 109 102 106 103 100 97 
121 130 123 122 123 120 121 118 121 121 124 122 120 122 124 125 126 126 124 125 124 168 143 107 95 93 96 91 94 86 82 85 84 90 95 95 98 121 115 118 104 101 98 100 99 103 112 114 113 110 113 115 116 114 113 111 107 107 103 102 100 100 101 100 99 100 103 105 105 106 102 103 104 106 104 102 102 99 98 94 
119 121 120 115 110 110 107 105 105 104 104 103 105 103 103 105 112 117 122 122 121 122 109 93 94 92 89 85 86 82 80 78 80 82 88 89 86 100 99 103 94 89 91 94 97 98 106 110 110 106 111 111 112 108 114 112 107 103 105 102 99 97 101 97 98 100 101 100 101 102 100 100 100 103 104 100 100 97 95 95 
109 114 109 110 108 101 101 100 102 97 99 95 98 94 93 95 97 96 104 107 111 99 92 89 91 89 88 84 85 83 79 79 80 83 84 86 86 81 86 85 81 79 81 91 98 100 106 105 109 108 108 109 109 108 108 108 106 103 100 104 98 99 94 99 98 97 99 101 100 97 101 100 103 104 100 98 97 97 99 91 
108 110 107 103 98 97 94 94 96 94 92 91 90 88 88 88 87 88 92 95 99 89 84 86 89 84 87 89 87 85 78 79 78 79 82 80 78 75 75 75 75 72 75 87 93 93 101 103 105 108 102 106 104 101 105 102 100 98 98 98 95 97 96 99 97 96 98 100 99 96 101 96 103 102 101 99 98 95 93 87 
103 107 101 100 94 87 90 89 91 89 87 86 87 86 81 83 81 82 81 84 87 86 84 82 85 84 85 87 88 80 79 78 78 77 76 79 79 76 75 72 65 69 70 78 86 86 84 92 101 100 103 101 99 101 101 106 102 100 97 95 96 98 93 95 94 95 98 99 98 95 94 96 97 98 94 94 95 94 88 86 
99 104 100 95 91 87 85 85 85 81 82 79 81 79 76 77 76 76 72 75 77 79 82 84 83 82 82 85 90 88 80 77 79 74 78 81 79 73 73 69 64 69 65 76 81 81 71 69 74 74 81 91 93 94 97 101 99 97 94 91 92 95 93 94 91 92 93 95 91 94 93 97 93 92 92 90 92 83 87 81 
97 102 94 90 90 86 81 79 80 82 81 75 78 76 77 75 72 72 71 72 74 74 78 78 80 79 81 103 173 141 91 77 76 73 77 75 74 68 70 68 67 64 64 75 74 76 67 55 57 59 63 69 75 77 93 97 94 97 94 90 88 88 90 90 90 92 90 93 86 89 89 88 87 88 82 83 84 78 81 75 
92 96 94 89 82 81 80 79 78 77 80 73 75 72 68 70 69 66 69 70 73 74 75 76 75 75 80 129 165 153 114 79 75 73 69 74 74 65 65 66 60 61 61 69 67 66 59 51 46 52 53 62 76 82 92 94 94 89 90 85 84 85 87 86 84 86 87 87 88 82 84 85 82 81 77 79 80 77 73 70 
89 97 88 87 80 78 73 77 71 72 72 69 71 70 66 66 66 67 64 63 67 71 73 72 75 76 76 112 110 126 122 77 71 73 70 69 63 65 63 65 60 60 55 68 64 59 57 43 43 43 49 58 76 81 84 91 91 88 83 79 76 81 79 77 79 81 84 79 78 83 79 80 80 75 75 75 75 69 71 73 
90 92 84 82 77 73 70 71 71 72 70 64 67 66 65 65 63 62 61 60 65 68 73 71 70 69 68 84 90 98 92 65 69 68 65 62 59 55 60 60 57 58 57 63 59 54 49 37 38 41 46 53 74 82 82 87 85 86 82 77 78 77 79 75 76 79 78 77 75 78 77 81 78 74 73 72 69 68 69 67 
85 88 79 81 76 71 72 68 67 66 63 63 64 63 58 61 59 60 58 60 62 66 69 70 69 67 63 64 72 70 65 62 68 72 63 60 56 54 57 55 54 56 57 58 55 52 44 37 37 33 42 46 66 78 82 86 82 83 79 76 78 77 75 77 73 74 76 74 75 76 73 73 70 72 71 68 67 66 66 62 
83 82 82 78 71 67 68 64 64 63 63 60 60 57 58 55 52 56 55 55 60 65 62 63 67 62 60 61 64 61 65 67 67 68 62 55 53 51 56 52 51 53 52 54 46 47 38 31 31 31 33 37 54 68 80 78 81 81 77 75 75 77 71 73 75 74 76 73 74 72 75 73 71 68 65 67 65 65 63 60 
80 82 76 78 70 67 67 67 62 63 59 57 57 60 55 51 52 52 51 55 60 63 60 59 62 63 58 56 58 58 62 67 65 63 59 54 50 47 51 53 46 50 49 50 44 46 35 26 22 23 27 28 35 45 64 70 73 77 75 78 74 72 65 66 69 67 71 74 73 72 71 65 62 62 59 61 60 57 56 57 
79 76 75 69 68 64 64 61 60 58 58 56 53 56 52 51 47 49 47 53 57 57 59 59 55 54 54 53 54 56 60 62 60 62 57 50 48 46 48 47 44 45 44 44 42 39 35 24 21 23 22 19 23 23 34 58 69 75 73 70 69 66 62 64 67 67 66 67 72 69 67 67 63 59 60 60 59 52 53 53 
79 79 77 69 66 60 61 62 56 55 54 52 55 56 51 47 48 46 48 49 53 55 60 58 54 50 49 51 54 56 59 61 59 56 53 48 47 45 46 47 47 46 40 46 41 35 29 29 25 24 18 18 18 17 24 40 67 66 69 67 64 65 59 60 63 67 64 68 71 70 66 60 60 55 55 54 54 52 50 50 
77 78 70 71 64 60 59 61 58 57 55 51 55 51 50 46 47 45 47 47 49 51 53 52 48 49 50 52 69 98 71 54 58 52 52 47 42 43 45 44 47 46 42 41 38 32 28 27 24 29 15 10 16 12 19 25 57 66 65 66 61 62 59 57 62 62 63 63 65 64 64 60 58 55 50 54 52 51 49 45 
76 75 73 66 65 60 59 57 56 56 56 51 49 48 47 43 43 44 43 46 49 48 49 48 45 48 49 51 63 84 82 52 49 45 47 45 41 40 41 41 41 42 41 36 34 32 28 27 16 16 9 10 13 15 16 18 42 59 58 61 58 56 55 55 59 57 60 63 61 58 58 57 51 50 48 50 49 48 45 47 
72 72 70 63 65 60 56 56 57 53 55 47 46 47 44 41 42 45 38 45 47 44 46 44 46 48 47 47 49 51 51 47 43 49 47 42 41 41 37 39 40 41 39 35 30 29 28 33 17 14 7 8 7 11 8 11 32 54 56 56 57 55 54 52 60 60 55 58 57 53 55 52 50 54 49 49 47 43 45 40 
70 72 69 64 66 58 57 50 53 52 53 46 47 43 39 43 40 42 40 44 42 47 44 44 46 45 44 44 42 38 39 43 42 40 45 42 38 41 37 42 42 39 35 33 29 33 32 32 23 9 7 6 7 9 11 9 20 44 55 56 53 56 48 49 54 56 52 55 56 56 56 50 49 47 49 45 41 37 40 40 
68 71 65 65 63 60 54 53 52 49 53 47 45 45 39 40 38 38 42 46 48 46 46 47 45 44 43 40 42 40 39 36 40 42 45 40 38 37 38 40 40 38 36 34 30 29 30 34 26 11 7 3 2 6 6 8 13 29 51 54 53 45 46 51 53 51 52 54 56 53 53 50 53 48 46 42 37 36 36 37 
67 69 65 65 62 56 53 52 55 53 50 47 43 42 40 38 39 38 39 46 43 47 42 42 41 39 39 38 39 39 36 41 39 40 43 42 37 38 39 35 35 35 38 44 39 46 36 35 28 14 8 6 5 7 2 5 11 21 43 48 49 44 47 49 49 52 45 51 53 46 50 46 44 47 43 37 35 33 30 30 
67 70 65 62 62 54 51 55 54 50 51 44 41 43 39 39 38 37 39 45 46 46 44 44 42 41 37 35 35 36 36 39 38 39 42 36 36 33 35 37 35 36 40 43 42 43 38 39 31 16 10 7 2 3 3 6 7 15 31 47 48 46 43 45 46 44 42 46 46 46 43 41 42 42 39 39 30 30 28 29 
69 69 66 64 59 54 55 53 50 51 47 41 44 42 39 42 36 39 40 41 43 43 41 41 42 42 40 42 38 39 36 38 39 39 39 38 37 35 33 38 34 35 42 43 42 43 45 41 32 21 15 5 4 3 3 5 5 9 26 43 47 44 39 43 46 41 39 40 41 41 44 41 41 43 41 36 33 26 26 30 
68 68 69 65 61 57 56 55 53 49 48 44 42 43 42 40 36 37 39 43 45 43 43 38 43 41 41 38 43 40 38 39 39 40 39 34 31 36 33 35 37 34 43 46 41 49 46 37 35 19 15 7 4 5 4 6 3 8 18 39 44 42 39 43 41 38 38 39 38 37 39 37 39 38 38 37 31 29 26 26 
69 71 67 64 62 55 53 53 53 53 48 43 42 41 41 44 39 40 40 45 44 42 44 36 38 37 36 37 42 40 35 39 38 36 38 35 34 30 34 38 35 33 38 44 41 43 40 37 26 19 15 9 7 2 3 5 7 6 11 27 40 42 37 39 38 37 34 35 37 37 37 35 39 39 37 35 29 25 26 23 
68 72 70 64 61 59 58 55 54 50 51 45 42 44 43 44 43 46 41 45 44 42 43 40 39 37 37 38 39 41 40 37 39 42 38 35 31 36 35 36 35 37 39 41 40 44 42 35 27 20 13 11 9 0 8 5 9 7 12 23 30 35 37 38 39 41 37 37 37 36 36 36 35 39 31 33 28 25 25 24 
70 72 67 65 60 60 55 56 54 50 50 50 46 47 45 47 50 46 44 46 42 43 43 40 36 32 37 38 37 39 39 36 38 41 36 35 33 35 34 31 33 34 39 40 42 42 41 36 25 19 14 15 13 8 9 8 14 9 15 21 33 32 35 39 39 39 38 38 36 34 36 35 32 33 32 30 26 23 24 26 
68 73 67 62 63 60 60 56 57 53 53 49 48 48 49 50 46 50 49 48 42 43 41 40 37 35 37 37 39 40 37 38 41 41 35 37 33 33 31 35 34 37 36 42 43 41 38 34 27 20 19 16 18 13 12 9 12 11 17 22 33 33 35 41 37 38 37 37 34 34 35 32 36 31 26 26 21 22 23 21 
76 75 71 69 64 61 57 57 59 56 53 53 52 51 51 55 50 50 45 46 42 42 40 38 37 36 34 38 40 37 36 36 41 41 37 40 34 34 33 33 33 33 37 40 41 40 39 33 26 24 23 21 18 20 17 13 15 16 18 27 33 31 36 39 37 38 35 36 35 34 34 32 30 32 31 25 23 27 26 23 
76 77 72 70 67 62 59 58 56 56 57 54 56 56 51 54 53 50 51 48 44 45 37 42 40 40 40 38 37 35 38 39 41 39 39 37 35 35 27 36 31 34 33 37 38 38 36 28 24 26 24 22 24 20 21 19 19 24 27 31 33 33 34 39 41 36 35 37 38 32 33 31 34 31 27 26 25 26 25 25 
78 78 72 67 64 63 59 60 54 55 57 56 57 57 59 59 56 56 51 51 47 39 43 40 40 37 40 39 37 36 36 40 40 44 40 41 39 36 35 36 33 34 35 36 34 36 34 30 27 28 27 24 27 23 24 20 24 24 33 37 32 39 37 40 38 37 33 37 37 36 34 32 34 33 30 24 27 23 22 24 
81 80 76 70 66 63 61 60 59 59 60 58 60 63 60 60 61 58 54 57 49 45 45 41 42 38 38 36 40 41 39 38 40 42 42 43 43 40 44 41 37 38 38 38 39 40 33 33 29 30 28 24 23 24 24 22 25 31 34 36 36 38 37 40 42 38 36 34 34 32 35 33 35 34 30 29 25 25 23 23 
85 83 74 75 72 64 63 65 62 62 65 62 62 68 68 64 64 62 57 59 50 47 50 44 42 38 40 39 40 44 44 42 45 45 42 40 40 44 43 48 45 43 42 42 40 41 38 35 29 31 29 25 26 26 23 21 23 31 31 36 37 37 40 42 42 38 34 35 33 32 29 34 34 35 29 28 33 25 21 28 


