P2
80 60
152
128 127 116 91 92 94 90 85 85 89 89 84 86 83 85 87 87 88 87 87 85 84 82 85 89 85 89 86 89 90 92 92 92 90 95 96 94 94 97 97 95 93 95 95 94 100 107 111 124 123 123 129 126 133 130 131 129 125 124 119 116 119 113 116 114 117 112 108 111 109 103 98 92 95 97 96 95 92 79 87 
125 130 113 99 89 91 90 89 83 84 90 86 85 86 87 92 88 87 88 87 91 90 90 94 86 90 89 91 93 90 94 94 95 94 96 97 98 93 94 98 96 99 97 97 92 97 104 107 125 123 124 127 129 129 130 132 131 126 126 118 117 114 115 112 119 119 117 111 113 110 107 108 101 102 104 101 98 93 82 80 
127 129 105 100 89 94 93 89 89 85 87 85 88 86 84 88 92 87 87 83 91 91 90 86 82 89 94 90 91 89 92 94 97 98 101 101 99 95 92 94 96 97 95 95 93 96 103 105 110 119 125 129 129 129 132 130 132 130 128 121 117 118 117 119 117 122 116 113 116 111 114 111 111 105 106 104 98 97 83 84 
131 125 106 97 87 92 90 88 85 85 90 90 83 88 85 86 90 87 83 85 90 92 89 87 84 91 88 90 94 89 90 92 97 96 94 96 98 93 95 97 98 95 97 93 95 92 96 102 107 108 124 130 136 134 133 132 131 132 129 124 121 118 119 120 120 120 118 119 119 112 114 109 109 107 106 105 101 100 91 88 
128 122 106 100 89 91 93 88 83 84 88 92 88 90 84 88 89 89 88 91 94 92 91 89 90 86 90 90 91 91 92 93 100 99 97 98 99 95 94 96 96 96 97 98 96 93 99 104 110 102 123 139 138 142 141 132 134 134 130 127 125 124 121 121 122 127 119 120 120 118 117 116 113 109 110 110 103 103 93 89 
121 113 103 96 90 95 92 93 87 87 85 91 87 87 88 84 88 87 87 91 94 92 92 89 87 88 89 91 91 91 91 96 98 97 95 97 98 92 97 94 95 96 100 96 94 96 97 104 101 106 125 140 142 138 144 140 136 136 131 130 128 128 123 121 124 129 124 123 120 119 116 117 112 112 115 111 111 102 89 84 
114 111 98 92 90 92 93 88 91 87 90 89 89 87 85 90 90 89 90 91 90 90 91 91 89 90 93 90 89 89 92 92 94 98 95 95 95 95 95 93 96 96 98 95 93 93 95 98 101 103 121 141 147 144 142 139 137 138 135 131 126 130 125 126 126 129 123 123 121 119 118 113 114 116 113 116 111 107 91 88 
108 106 97 93 87 91 94 90 88 88 90 93 91 90 86 91 91 85 88 92 90 94 91 90 88 89 90 89 90 92 92 97 98 96 97 95 94 94 91 94 93 95 94 93 94 97 95 99 100 104 127 145 147 152 150 147 144 143 139 137 134 132 128 128 126 131 128 126 119 117 116 114 119 117 114 111 110 108 99 100 
107 105 98 97 90 96 93 88 92 89 92 93 90 89 88 87 90 88 86 90 94 92 88 88 90 93 93 91 91 92 94 98 103 100 97 93 94 90 91 95 92 93 95 90 92 93 98 97 103 107 134 147 151 149 146 145 147 146 145 141 137 137 132 131 131 136 135 134 124 123 121 120 120 117 121 112 109 110 105 99 
106 103 102 93 90 92 91 88 93 92 91 89 88 91 90 94 91 89 86 91 90 91 89 90 90 94 92 93 90 91 93 99 103 101 99 96 92 92 92 92 90 91 94 91 89 91 97 100 101 111 138 149 151 150 145 142 145 140 139 137 137 136 134 132 133 136 135 132 133 131 126 122 124 121 120 118 113 109 105 102 
109 101 97 96 92 94 94 91 88 89 90 92 87 87 89 91 91 90 86 91 96 90 89 87 88 90 87 91 91 87 94 99 108 107 104 98 96 93 94 89 94 92 92 91 90 90 93 100 99 108 138 148 146 146 142 140 144 141 138 138 135 132 133 129 130 132 135 131 130 126 124 125 130 127 123 120 118 111 104 100 
105 101 95 95 91 95 93 91 92 87 92 90 88 87 89 92 89 89 83 92 92 93 91 89 86 89 91 89 88 87 94 101 108 110 100 99 95 92 94 86 93 93 93 93 92 89 96 98 101 108 140 145 145 145 144 143 141 142 142 134 130 131 128 128 130 132 131 127 126 124 122 123 130 122 125 117 116 112 107 106 
101 100 95 96 90 91 90 92 95 89 89 90 87 91 91 96 92 89 91 92 92 91 90 88 84 92 91 89 90 86 90 95 104 107 103 96 95 93 89 91 90 91 91 92 90 90 91 97 99 112 142 149 148 145 143 142 139 142 137 132 130 129 130 126 129 129 129 127 126 123 120 124 124 121 124 117 115 112 104 101 
102 98 94 91 92 91 91 92 90 86 88 88 86 88 93 91 90 92 90 90 91 92 87 91 86 88 89 92 91 87 91 93 97 101 99 95 96 94 89 92 91 88 94 91 91 89 91 93 100 111 144 147 146 143 145 141 140 138 134 128 129 125 125 129 130 129 123 123 125 123 121 121 128 122 125 120 114 109 104 107 
101 98 92 90 90 92 89 90 89 87 89 85 88 93 87 87 91 89 88 92 93 87 87 91 84 87 87 92 88 88 88 88 92 98 97 93 95 92 87 83 89 90 93 92 90 88 90 94 98 110 139 142 142 146 140 137 134 137 134 126 125 124 125 124 125 128 122 120 123 118 117 119 126 119 123 116 115 111 104 101 
97 96 91 95 94 94 90 90 91 87 86 89 89 91 91 88 88 89 86 89 88 88 88 84 84 88 87 89 91 87 88 87 92 90 92 94 94 92 90 87 85 86 92 89 85 87 94 93 99 113 138 142 141 146 141 139 135 137 131 128 124 125 122 123 124 127 120 122 119 118 115 122 124 118 123 118 115 110 105 95 
97 99 96 93 92 90 92 91 94 87 89 87 86 89 89 89 92 87 87 91 95 89 84 84 83 87 86 89 86 88 89 88 91 90 90 89 94 94 92 88 90 88 91 87 85 90 90 97 97 112 139 141 142 142 141 139 138 140 133 133 127 121 119 122 121 126 118 120 117 116 118 118 126 118 122 119 110 111 104 100 
93 95 90 91 92 90 92 88 88 91 88 84 85 84 86 83 87 86 87 88 86 88 85 85 80 84 87 85 84 84 85 89 84 85 87 91 93 90 95 89 89 84 88 87 83 89 91 93 92 114 139 139 138 141 140 136 141 135 132 130 124 121 120 116 124 122 119 117 118 115 115 118 119 118 122 116 113 112 105 98 
92 93 95 94 89 88 94 89 90 90 87 84 85 86 83 85 87 86 86 89 86 87 87 83 80 83 83 87 81 81 86 86 84 79 84 90 93 92 97 88 86 86 85 86 83 86 90 90 93 114 139 140 136 138 136 135 134 130 130 125 122 122 120 120 120 123 117 118 120 117 114 114 120 120 120 116 114 112 104 100 
87 91 91 88 87 90 89 91 87 92 87 89 85 85 84 91 87 85 84 86 87 87 82 84 81 81 83 84 83 80 84 83 85 82 86 89 89 91 93 91 94 88 86 84 85 85 88 93 97 118 138 137 136 135 133 128 130 129 125 124 120 121 117 120 120 121 118 118 113 113 114 114 121 117 120 113 110 110 105 98 
88 90 90 89 88 88 88 87 88 89 89 86 85 86 87 87 86 84 83 86 83 88 83 83 84 80 86 82 82 79 85 83 83 80 84 85 87 92 88 90 90 90 88 85 83 87 85 93 97 121 137 139 134 136 135 130 131 131 127 125 121 119 116 119 116 123 113 116 115 114 112 117 119 116 116 116 112 111 104 100 
86 92 91 89 86 86 92 87 85 85 87 87 86 88 86 88 88 82 81 84 87 86 87 81 77 78 82 80 81 75 81 80 78 78 80 84 88 90 84 88 88 85 87 86 82 84 82 85 92 119 135 132 133 131 134 134 134 129 128 123 120 116 118 115 115 120 115 115 115 111 112 115 117 115 116 112 108 113 104 96 
89 91 92 89 88 86 89 88 87 85 85 88 84 89 85 87 87 81 82 83 85 87 85 85 77 80 83 80 74 74 79 77 78 77 77 81 85 83 79 83 76 75 82 84 83 86 83 85 90 119 133 132 130 132 131 132 129 129 123 123 118 118 117 117 117 124 113 115 115 115 114 113 116 115 113 111 107 109 101 102 
90 91 89 89 87 86 95 89 89 85 89 85 86 86 83 85 81 82 82 84 85 87 80 80 76 79 77 76 73 74 75 78 79 73 74 73 71 70 69 70 71 71 73 72 74 79 82 86 86 119 130 130 130 131 131 128 128 124 123 120 120 116 117 116 116 122 117 115 113 114 116 117 116 115 117 111 107 104 102 97 
88 91 88 90 88 89 89 92 90 87 87 87 85 86 83 86 84 85 83 83 84 81 80 79 75 75 75 74 74 71 76 76 72 69 67 62 65 66 71 71 71 70 70 70 71 72 77 84 90 120 130 126 127 129 128 127 125 120 122 118 114 116 115 111 117 121 116 118 114 112 112 113 113 114 115 108 104 102 98 97 
86 90 86 89 85 85 91 94 89 87 85 85 88 85 85 85 82 79 82 83 80 81 79 77 76 76 76 73 73 72 73 74 70 66 61 59 64 65 66 69 68 69 72 67 71 68 73 81 89 120 126 125 122 126 124 124 121 117 115 117 111 117 115 112 112 118 115 114 112 114 112 114 110 108 112 105 105 104 98 97 
84 88 88 90 84 86 92 90 88 90 85 89 87 87 83 88 86 83 82 85 84 82 78 75 73 75 73 74 76 71 74 70 68 64 66 65 66 65 64 66 71 69 73 76 70 68 69 74 84 118 124 124 120 123 124 120 120 116 113 111 109 111 116 111 113 114 115 114 114 113 112 111 113 108 111 104 105 105 93 92 
85 89 87 86 89 92 90 86 89 87 85 85 82 86 84 84 84 80 82 81 80 84 81 75 74 74 76 74 73 70 71 67 67 69 66 69 67 65 66 60 69 68 77 71 71 71 73 73 80 119 119 119 119 120 121 119 116 116 113 110 107 108 112 108 109 111 109 109 111 111 114 109 112 110 107 101 104 102 92 90 
84 90 88 87 85 91 93 91 90 86 88 89 86 84 83 83 84 82 79 84 86 84 81 80 78 77 75 78 75 73 69 67 67 63 65 69 66 63 63 59 66 68 71 71 68 68 70 77 86 118 117 117 114 119 116 114 108 107 106 107 105 107 109 108 111 115 105 105 110 111 109 106 108 106 103 100 103 101 90 89 
85 89 91 89 88 90 93 92 88 87 84 88 85 85 83 82 83 81 76 83 82 81 77 77 76 78 77 76 76 72 74 65 66 61 65 69 64 63 61 56 63 67 66 67 63 66 71 74 85 114 117 113 113 115 113 106 105 104 105 103 98 104 106 106 108 109 105 104 106 106 101 107 105 108 101 96 100 98 88 86 
82 88 87 84 89 89 93 91 90 87 83 85 84 86 83 82 82 81 80 83 81 81 79 79 74 76 78 78 78 72 70 68 71 64 64 69 64 63 63 61 62 67 66 64 65 64 68 71 82 111 112 110 108 110 108 107 103 102 102 98 100 100 102 102 102 103 101 101 105 101 102 100 98 101 98 96 96 96 83 82 
83 86 90 90 92 93 91 90 87 88 87 84 84 84 83 82 81 80 81 82 81 80 78 82 76 78 77 80 80 73 73 69 71 69 65 69 64 69 64 66 69 70 69 64 64 66 66 70 80 97 100 100 101 105 107 103 101 102 103 99 96 99 99 99 97 97 97 97 98 97 98 98 95 96 92 94 92 93 83 79 
85 83 87 89 90 88 90 92 86 85 86 85 80 85 83 82 86 80 81 79 81 79 77 76 76 79 79 78 76 71 72 65 65 65 64 71 67 66 67 67 68 66 66 66 62 63 68 69 74 78 75 77 81 93 94 93 104 106 103 99 95 96 97 94 92 98 92 93 94 93 92 90 89 90 90 88 85 85 77 75 
83 84 87 87 85 86 89 88 84 85 84 85 85 84 83 81 82 79 78 80 82 79 78 76 76 79 79 75 75 68 71 63 64 62 67 69 64 63 64 66 68 65 68 66 62 61 67 71 69 65 64 63 68 75 74 80 101 101 99 97 95 91 93 91 93 93 90 90 91 88 90 87 85 86 83 81 78 81 75 73 
83 84 85 86 84 84 87 86 88 84 85 82 85 85 84 81 77 79 78 81 81 80 78 79 74 75 76 76 73 74 68 63 64 59 64 67 63 61 64 69 68 71 67 62 64 64 62 66 67 57 55 59 59 80 88 93 98 98 97 94 89 90 93 87 85 91 87 85 87 81 82 81 82 80 77 77 76 75 68 67 
79 83 86 85 82 86 90 88 86 83 86 81 85 84 81 80 81 80 78 81 82 81 79 79 78 74 76 76 74 73 71 63 62 60 63 64 60 58 63 68 70 68 67 64 66 61 62 64 62 50 45 48 52 75 88 91 95 97 96 87 87 87 89 84 85 86 82 80 82 80 81 78 81 76 73 72 71 70 66 68 
80 91 87 84 85 86 89 88 86 84 87 86 82 84 85 84 81 77 79 81 80 86 77 75 78 77 77 77 72 72 73 67 67 64 64 62 60 61 66 69 71 66 66 65 64 62 63 69 59 44 40 40 46 66 86 90 93 93 86 88 82 82 85 79 78 80 77 77 77 76 74 74 74 72 68 66 68 69 62 62 
81 83 89 88 84 87 90 85 90 87 83 85 83 83 82 81 82 78 80 77 80 75 77 77 76 80 77 75 71 72 71 72 67 62 61 61 63 66 69 68 70 67 66 66 62 62 65 64 51 36 31 31 34 50 76 85 91 87 85 84 82 83 85 79 76 82 78 75 74 75 74 74 69 72 74 62 68 64 60 54 
80 84 80 86 85 86 85 85 83 83 86 83 82 85 83 80 82 81 79 80 76 77 75 75 75 78 77 75 72 72 72 71 68 65 62 61 66 70 68 63 68 66 63 63 65 62 63 63 45 30 25 25 27 39 63 73 81 83 82 81 81 82 80 77 74 74 73 71 70 73 71 66 65 64 61 66 62 64 56 54 
80 87 86 83 84 87 88 86 83 82 84 82 84 83 81 82 81 78 77 76 78 76 78 75 73 80 79 73 76 72 72 74 74 64 65 71 73 69 66 66 69 67 67 63 64 60 63 60 44 26 23 18 18 27 38 46 67 81 80 79 78 76 78 74 71 68 65 70 70 70 68 65 64 62 60 57 56 57 60 51 
83 84 85 85 84 88 84 83 84 84 81 83 82 81 81 80 82 79 76 80 78 81 75 74 74 76 76 72 75 73 71 75 76 70 69 71 67 67 65 69 70 70 68 61 64 62 60 61 41 28 18 13 12 16 24 27 46 73 73 78 74 75 75 72 68 67 64 65 67 67 68 63 66 58 55 59 55 56 49 50 
79 82 89 83 84 87 83 84 83 85 85 82 82 83 79 77 80 76 75 77 78 78 74 72 72 73 72 76 73 72 72 74 75 73 71 69 71 66 65 65 68 64 68 64 60 59 60 60 44 36 27 19 9 12 18 18 30 59 68 67 67 73 70 64 64 63 59 63 63 65 67 62 60 56 53 57 56 54 48 42 
80 87 86 87 84 83 88 87 90 86 83 82 81 83 81 78 79 78 76 78 78 77 76 72 72 71 73 74 76 73 77 73 72 72 69 69 70 67 67 69 67 65 68 65 61 62 60 60 44 33 25 19 14 12 19 20 28 45 60 69 68 68 66 65 61 61 61 61 65 66 66 62 61 59 56 57 54 54 45 43 
76 81 85 86 84 85 86 84 87 83 88 81 82 78 78 78 81 78 74 78 82 76 74 74 72 71 72 73 71 77 73 73 70 68 68 70 67 66 69 70 65 64 67 68 65 62 61 57 48 38 17 15 12 8 12 20 20 30 55 64 62 67 61 61 57 57 55 58 61 63 61 55 58 51 50 49 52 51 43 40 
80 81 85 85 84 86 86 85 84 82 80 84 78 81 78 80 82 77 78 80 77 77 74 71 72 74 71 74 75 71 74 70 75 69 68 68 69 68 68 68 67 64 65 69 62 59 57 57 48 39 19 11 9 4 6 7 9 14 41 59 59 62 60 55 55 58 58 57 58 59 62 54 58 52 52 44 50 49 40 37 
77 82 87 83 84 87 88 82 85 83 79 79 78 77 77 83 83 79 78 80 78 76 76 73 72 74 72 74 70 71 70 72 72 70 69 67 67 70 68 68 69 66 66 66 66 62 56 53 48 39 15 8 5 2 2 10 7 9 28 50 57 61 55 55 52 53 51 55 58 56 55 54 52 49 49 51 47 45 38 34 
76 83 81 84 86 87 88 83 86 79 81 80 77 81 78 78 83 78 78 80 77 79 76 73 73 74 72 71 74 69 72 72 70 67 71 73 69 70 71 68 67 67 67 68 67 61 54 51 41 37 21 8 2 3 2 8 7 9 18 42 48 55 54 50 50 53 51 52 55 50 54 50 54 46 46 43 44 40 33 35 
77 82 85 88 85 87 90 84 84 82 81 78 78 78 81 82 83 79 76 77 77 78 74 74 73 74 72 73 71 70 70 72 74 70 68 72 68 71 71 69 67 64 68 66 65 64 58 50 41 35 22 12 5 1 3 6 6 10 11 32 49 56 54 51 47 55 57 52 51 50 48 49 52 43 41 40 42 38 31 30 
78 86 89 89 82 89 89 86 80 81 79 81 78 82 81 83 82 78 75 78 81 84 76 76 71 72 75 74 69 73 73 72 71 73 76 71 70 69 71 67 69 65 66 62 69 57 60 49 35 33 23 10 4 3 1 3 10 9 8 22 43 53 51 47 51 52 50 49 52 45 46 47 50 42 37 42 44 38 31 31 
79 82 84 88 87 88 87 86 83 80 84 76 79 80 82 81 84 78 81 77 83 82 79 74 74 74 75 75 71 74 74 71 72 71 76 71 71 70 69 63 64 61 63 62 65 62 59 43 27 29 23 14 6 3 3 3 4 9 8 14 35 49 49 46 46 49 46 45 47 43 42 41 45 38 38 39 39 37 30 30 
79 86 84 86 85 86 88 86 83 78 79 77 80 79 82 82 82 80 77 78 83 77 78 77 72 73 75 73 69 75 75 68 71 72 71 71 69 67 67 61 63 63 65 64 62 61 58 50 28 20 18 14 10 6 0 1 4 9 8 9 24 40 42 44 43 43 45 43 44 39 37 38 42 31 35 38 40 35 30 31 
79 87 84 87 85 85 85 86 81 81 76 76 79 79 80 79 83 78 79 76 78 79 76 74 73 74 74 72 73 71 72 68 70 66 69 69 67 69 66 62 67 62 64 62 62 59 56 57 32 20 13 12 10 6 5 4 2 8 8 9 19 34 39 38 36 43 42 41 44 38 37 35 37 31 32 32 35 33 28 27 
76 84 86 87 84 88 84 83 83 79 80 78 78 78 79 83 81 82 77 81 79 80 76 78 73 74 76 74 72 70 70 68 67 67 65 70 68 70 73 69 65 60 62 64 61 57 55 54 33 18 16 13 12 10 13 10 6 9 9 15 13 24 34 38 38 43 41 43 43 38 37 36 32 31 31 30 32 27 24 25 
79 85 85 85 87 84 87 80 80 78 79 79 76 80 74 79 80 77 79 77 79 79 78 77 73 75 76 72 74 71 71 69 70 70 70 73 74 72 72 67 64 64 62 64 60 59 55 57 38 24 20 18 15 15 19 14 16 10 15 17 17 26 34 38 39 44 40 45 41 43 36 33 37 29 31 32 26 26 22 24 
80 85 86 87 86 80 82 78 78 78 78 78 77 76 74 80 79 76 77 78 81 79 77 75 74 75 75 75 71 71 70 69 71 70 74 73 70 66 64 62 62 62 66 65 63 59 60 56 36 28 24 19 16 22 18 17 16 14 14 18 19 30 36 37 39 43 46 40 41 40 38 33 39 26 30 32 28 19 23 15 
85 88 88 85 85 83 83 80 77 74 77 76 74 77 73 77 75 77 77 78 82 78 76 74 71 75 74 72 72 69 73 76 73 68 68 72 68 68 65 68 70 67 69 68 60 59 55 55 43 30 25 25 22 20 21 17 20 20 19 23 26 31 35 35 38 44 41 40 38 36 34 34 34 29 32 28 25 17 21 18 
85 89 87 90 85 83 81 78 77 78 78 76 76 74 74 77 77 80 77 80 81 78 79 75 71 78 76 76 76 73 73 70 71 69 70 68 72 69 69 68 70 68 69 69 62 60 59 54 43 31 26 26 21 22 22 20 23 21 24 25 30 36 34 34 38 41 40 36 40 33 32 32 35 25 25 24 22 19 16 14 
87 90 89 89 82 80 83 80 81 74 77 75 75 74 75 75 81 75 78 80 75 77 73 78 78 78 79 77 74 69 69 68 70 70 72 71 75 71 70 70 66 66 70 67 63 62 60 56 44 36 28 25 28 22 23 21 24 23 26 29 38 34 32 34 35 39 34 34 36 33 28 30 32 25 26 23 20 17 18 15 
94 90 88 90 89 86 86 80 82 81 76 79 77 77 76 80 77 77 79 81 79 80 76 80 75 76 78 76 72 68 72 71 73 74 72 75 74 72 71 70 70 69 68 69 63 61 60 57 42 33 27 25 24 26 25 25 26 26 29 35 36 35 32 32 32 37 33 30 31 30 22 27 30 22 24 22 22 17 20 14 
99 93 89 88 85 90 92 86 84 83 77 82 80 75 79 79 75 77 80 83 83 81 80 80 79 80 79 74 72 71 71 71 73 71 72 78 73 70 71 72 73 69 72 69 64 63 52 54 43 32 28 26 26 24 26 24 22 24 31 34 36 38 32 31 32 36 31 30 26 25 22 26 27 21 23 20 17 19 15 14 


