P2
80 60
155
134 143 145 143 143 142 142 144 146 143 150 146 145 141 144 140 144 142 143 142 141 138 142 139 144 140 140 138 138 136 137 136 136 137 134 134 136 134 138 138 138 135 133 130 134 127 127 128 127 129 130 138 138 145 141 128 121 116 118 111 116 111 110 105 111 108 110 106 102 103 103 98 94 99 95 93 92 91 93 94 
139 143 140 142 142 141 142 148 145 148 149 144 143 142 142 145 143 143 145 141 145 145 146 147 149 143 142 142 142 140 137 139 143 138 137 140 140 139 140 142 141 138 138 138 134 133 129 128 129 127 131 134 140 147 141 130 125 119 119 112 114 113 109 108 114 110 113 108 106 107 105 99 100 98 100 97 93 91 89 93 
143 143 142 143 142 144 142 146 150 146 148 146 145 142 147 144 145 142 142 141 145 144 147 148 150 148 147 144 142 144 141 141 143 141 139 141 142 142 142 144 142 143 141 142 141 139 139 135 135 134 135 144 143 148 145 132 127 122 121 118 116 112 107 111 112 108 113 110 109 108 107 104 104 103 102 101 96 97 91 95 
143 146 143 142 145 145 142 151 148 147 151 148 143 141 145 142 142 144 146 139 145 143 146 145 150 148 146 146 146 142 142 140 143 143 142 140 142 145 142 144 143 145 148 146 142 145 141 143 141 140 139 142 146 151 146 134 127 121 118 118 118 112 115 114 119 115 115 116 111 107 110 109 106 104 103 106 97 99 93 95 
139 140 144 144 140 140 144 148 151 146 150 145 142 141 146 138 146 143 144 142 143 142 147 146 154 149 150 147 145 141 141 145 143 144 141 143 141 146 144 145 141 143 147 142 144 145 142 148 146 143 144 148 150 154 154 139 133 126 121 121 119 116 116 114 114 118 121 112 113 111 110 111 108 107 108 109 101 95 93 97 
139 149 142 145 137 144 144 148 150 148 150 148 144 144 145 140 140 142 144 141 146 142 147 147 150 150 149 142 142 143 140 143 142 141 139 141 141 143 146 143 141 144 145 144 141 144 142 147 143 144 144 146 146 153 151 140 137 128 124 120 122 119 118 117 119 116 119 117 110 109 112 110 111 109 111 105 103 98 97 97 
136 142 139 141 142 140 147 152 151 150 148 147 142 141 147 144 141 140 142 144 143 143 145 147 146 148 149 142 144 140 138 136 139 138 133 134 138 141 142 141 138 138 140 140 138 137 137 133 133 132 134 136 137 146 147 139 141 130 128 124 125 123 117 117 120 117 118 114 112 114 112 109 112 112 110 112 107 105 102 103 
134 142 142 140 142 144 146 150 153 147 148 149 143 143 144 144 142 141 144 142 144 142 143 145 144 146 143 143 141 140 134 132 132 133 130 125 129 132 126 126 125 121 125 125 123 122 123 119 119 119 117 120 119 125 129 130 137 134 131 129 131 124 122 121 122 122 123 119 117 115 116 114 114 113 116 110 107 101 102 106 
138 143 143 142 140 144 149 154 153 148 148 144 144 141 145 140 142 143 140 138 140 143 137 136 136 133 133 132 126 121 120 115 114 116 111 111 115 109 110 113 112 112 115 115 121 125 118 116 122 116 116 114 115 116 115 114 130 132 134 134 131 126 126 127 127 125 128 125 121 119 117 116 115 118 113 111 107 108 107 105 
137 145 144 141 143 143 148 152 154 148 150 147 140 145 140 139 137 138 134 130 129 127 125 118 121 119 119 115 112 112 107 109 106 106 105 103 109 106 106 108 109 111 110 112 112 114 121 123 117 115 113 109 111 114 107 101 122 134 131 132 130 124 123 129 127 128 128 130 126 120 117 117 123 120 118 116 104 110 108 109 
141 141 140 142 142 144 145 151 151 151 150 144 137 130 131 130 125 127 122 121 119 115 114 114 116 113 112 113 110 104 104 104 101 103 102 103 106 106 104 106 105 105 105 108 107 108 105 109 107 107 107 107 108 112 104 99 117 129 131 131 133 126 123 125 126 124 126 125 125 123 119 122 120 119 121 118 112 111 108 110 
137 143 138 143 143 142 147 148 153 148 151 143 135 125 123 117 115 115 113 112 111 109 110 110 113 108 107 108 106 99 101 101 98 100 98 102 104 101 106 105 104 102 104 103 100 105 106 106 104 100 103 105 108 119 112 103 117 130 135 130 127 127 122 122 127 123 126 126 123 122 117 120 121 121 117 117 111 114 110 107 
136 136 142 139 139 143 148 149 153 152 151 140 135 120 120 115 115 109 111 107 106 110 104 107 107 108 108 105 102 101 98 98 96 98 99 97 102 100 100 106 99 98 99 101 98 97 97 106 103 98 98 105 109 116 109 108 127 128 127 128 126 121 121 123 122 120 122 119 123 116 116 119 120 120 120 117 111 110 111 109 
133 138 139 139 143 142 150 153 149 151 144 142 130 119 115 113 110 108 106 106 108 108 105 109 110 106 104 106 105 100 100 96 98 98 95 96 100 101 98 104 96 98 98 99 100 100 95 98 100 98 100 101 108 120 111 110 126 124 126 121 123 121 118 120 121 120 121 116 119 116 116 121 118 119 118 117 110 109 110 107 
131 135 140 138 137 145 149 151 151 150 147 140 128 115 112 106 107 105 106 106 107 106 105 107 107 106 105 105 104 99 97 97 94 98 97 96 98 100 101 99 97 98 99 97 99 95 97 100 98 98 98 104 105 118 108 111 124 126 123 120 123 121 118 118 120 121 120 117 114 112 110 113 119 117 120 113 108 112 109 110 
132 138 139 138 139 143 149 152 155 148 144 136 122 108 107 101 105 103 101 103 102 104 104 102 105 106 100 102 104 97 95 95 94 96 92 95 94 95 97 98 95 95 99 96 93 95 97 101 97 97 98 98 103 112 108 108 126 128 124 119 121 117 116 113 117 117 112 115 115 115 114 115 115 117 116 114 109 108 106 113 
126 140 135 136 137 143 149 151 153 149 145 137 120 108 104 101 103 101 100 103 104 102 102 103 101 105 105 102 101 99 97 96 95 94 93 93 94 96 94 100 94 93 99 94 98 99 93 97 97 97 95 97 103 104 106 111 126 127 125 119 119 118 115 114 113 113 110 112 114 113 114 110 114 116 120 116 109 109 107 107 
130 131 136 133 137 142 146 150 145 146 143 135 119 102 102 98 100 100 99 99 102 99 99 100 98 104 101 100 96 99 96 94 93 89 91 92 96 97 97 98 97 96 99 97 96 98 91 96 91 95 94 97 99 101 102 111 127 127 122 119 118 116 113 113 117 115 112 115 112 111 109 112 113 118 115 112 109 111 104 109 
123 129 132 127 136 138 148 146 148 143 142 135 116 101 97 97 93 95 95 100 99 99 98 98 98 98 101 97 97 94 92 94 91 89 93 91 93 94 100 100 95 95 95 96 93 94 90 96 90 94 95 92 95 102 99 110 120 120 123 116 114 117 113 110 113 112 113 112 113 111 111 110 111 116 114 113 110 109 105 104 
122 125 128 131 130 137 142 147 144 142 142 133 110 98 94 95 95 94 94 96 95 99 97 98 104 95 99 95 98 97 93 92 93 92 88 93 96 96 95 99 94 93 93 95 92 94 90 93 97 92 90 93 95 99 94 110 121 118 117 115 116 110 111 110 112 111 109 108 110 108 108 111 111 111 114 113 102 106 105 106 
120 124 126 126 130 137 142 144 142 140 136 127 107 96 94 90 92 91 91 93 98 98 97 96 99 96 101 102 100 105 110 107 97 93 89 89 93 94 98 100 95 95 95 92 91 95 91 89 91 91 90 92 92 96 92 113 120 122 118 114 114 111 111 111 111 108 109 110 109 109 106 108 113 114 115 114 106 104 103 108 
117 124 127 127 130 133 137 142 141 137 135 123 105 92 95 91 91 89 91 92 92 94 98 96 97 98 102 104 106 121 132 125 113 98 89 90 91 93 92 92 93 95 94 95 94 93 93 91 91 91 90 91 90 92 91 112 124 121 119 119 114 108 109 111 108 108 108 110 109 106 111 110 110 110 112 111 106 105 100 102 
118 121 123 124 128 136 137 141 138 133 132 123 100 90 90 91 89 88 88 89 91 93 99 94 94 94 102 106 107 112 121 119 114 103 93 92 93 91 86 88 83 83 86 88 92 92 94 91 87 87 85 92 89 91 91 111 120 121 120 113 113 111 110 109 112 111 113 107 109 104 110 108 110 110 110 109 104 105 103 102 
119 121 120 127 128 134 139 138 136 133 129 123 101 90 92 88 85 89 87 88 91 92 87 94 90 92 94 102 100 99 98 104 99 97 94 96 86 84 78 78 76 76 77 77 82 88 92 91 85 84 81 88 90 89 90 112 115 115 116 110 114 110 111 110 110 111 109 110 109 109 105 111 110 108 112 107 103 100 100 101 
113 117 118 121 123 129 136 139 133 132 128 114 96 86 89 87 87 84 88 86 87 87 87 90 88 88 88 94 91 88 92 90 88 88 84 87 83 79 79 77 77 78 75 74 79 81 88 87 86 83 84 86 86 88 89 111 116 113 110 110 109 108 106 108 110 110 112 110 110 106 109 109 108 112 107 109 99 103 103 96 
110 115 120 117 121 128 133 133 132 130 126 106 97 86 86 85 84 86 86 84 88 84 85 84 86 84 86 87 88 85 86 88 85 82 77 76 82 78 79 80 79 81 78 76 77 80 81 86 85 84 81 85 83 85 88 111 114 114 110 108 107 108 109 108 110 107 112 107 109 106 108 109 109 110 109 104 99 99 101 102 
107 112 116 118 116 119 121 124 123 124 119 107 93 85 84 86 87 84 84 83 86 85 85 85 83 84 86 82 86 84 86 90 91 84 75 78 78 77 82 80 78 73 80 79 78 78 80 83 79 83 80 81 82 85 86 112 113 108 111 107 107 105 105 105 108 104 109 107 106 104 107 104 104 107 106 103 97 100 97 98 
103 109 111 110 108 108 103 105 106 101 100 93 86 81 85 82 84 80 80 84 82 83 84 80 84 85 87 84 86 91 98 100 102 100 82 74 79 76 78 77 78 77 80 75 76 79 79 80 81 81 80 83 83 84 88 112 110 107 104 106 102 103 102 103 106 104 102 105 106 106 105 104 106 106 104 98 97 95 96 96 
105 108 107 105 100 96 98 93 96 91 91 84 84 82 84 79 80 82 84 85 84 83 84 85 85 85 80 84 91 104 106 108 109 109 103 91 79 78 74 77 76 75 79 74 76 76 76 78 78 82 81 81 81 80 87 108 104 101 102 102 101 101 102 105 103 104 102 100 102 102 104 102 100 101 98 101 98 92 92 93 
100 103 101 98 92 92 91 87 86 86 81 83 81 80 85 79 80 82 81 84 84 82 80 85 85 85 80 80 97 109 107 105 108 103 106 110 89 76 72 74 73 75 74 74 75 75 75 75 77 77 81 81 80 80 89 106 99 100 96 98 99 100 99 98 102 101 99 97 96 100 102 99 99 98 101 94 96 96 87 92 
97 100 103 95 94 86 85 83 82 79 79 76 75 80 80 82 80 80 80 80 81 82 80 85 84 83 81 89 103 104 105 99 107 105 104 103 102 76 75 76 76 76 74 70 70 74 73 77 79 78 77 80 81 80 85 106 102 98 94 99 95 97 95 94 98 95 97 97 97 97 98 94 95 95 99 92 94 95 85 84 
95 96 94 94 89 83 81 76 76 73 75 73 78 77 80 74 78 80 78 81 81 80 84 85 85 83 82 94 101 102 98 94 99 102 99 103 100 82 75 79 77 73 77 73 71 72 76 75 75 79 72 77 76 77 87 100 98 99 94 93 94 92 94 93 95 91 91 92 92 93 93 90 93 93 94 87 91 86 85 83 
91 92 94 85 78 74 73 73 70 66 69 73 74 75 76 78 78 76 77 80 81 78 82 82 85 84 83 95 100 93 92 91 94 100 97 95 97 82 76 78 76 74 74 73 71 72 71 74 77 74 72 75 75 78 84 91 98 101 97 95 92 93 88 91 90 86 88 89 89 88 91 88 90 87 84 87 82 82 79 79 
85 90 86 84 76 70 69 68 63 61 65 70 75 75 77 76 76 74 80 77 78 78 81 83 83 80 82 93 97 89 88 90 92 96 93 90 90 81 77 79 78 74 76 71 72 72 72 75 74 73 71 72 76 74 78 81 95 97 96 90 91 87 89 89 89 84 83 86 85 82 85 81 81 84 82 79 74 79 77 81 
84 87 86 80 74 67 62 61 61 61 64 69 74 74 77 75 74 76 80 77 79 80 82 82 82 81 81 93 92 90 84 87 87 87 88 85 86 76 78 79 76 77 76 72 70 75 74 71 75 73 72 75 74 72 84 92 94 96 90 88 88 85 85 84 83 81 85 81 79 76 82 78 80 81 76 76 74 75 78 73 
80 81 81 73 69 63 62 58 56 56 62 69 74 74 78 71 73 75 74 74 76 76 80 80 84 79 82 86 86 83 82 83 86 81 79 80 79 73 74 72 74 73 74 71 71 70 72 75 73 73 68 72 70 70 88 91 87 87 85 83 80 78 81 80 77 76 77 74 75 74 78 71 74 71 70 69 66 69 71 72 
79 80 79 73 67 61 58 57 55 56 60 71 72 71 77 74 74 73 74 74 73 74 75 78 80 77 81 82 79 77 79 78 80 80 78 79 71 70 71 74 72 73 72 70 72 72 69 70 71 71 68 67 68 73 84 91 87 86 79 81 77 77 77 75 77 73 71 71 72 73 72 73 71 67 66 66 64 64 65 65 
75 78 75 72 65 59 57 57 56 55 57 67 70 69 75 70 74 69 73 69 73 73 73 77 79 77 80 78 78 78 74 77 78 77 71 72 74 75 70 72 71 73 72 70 72 71 70 70 71 70 66 68 64 69 83 87 88 83 80 77 80 78 78 73 77 75 72 72 69 71 69 68 64 68 66 64 63 64 64 64 
74 77 73 72 62 60 54 54 53 49 58 63 67 69 74 68 72 69 73 73 72 72 72 75 80 79 79 79 77 73 73 72 72 75 70 67 71 71 73 72 73 70 72 73 71 76 68 68 68 68 67 70 64 69 79 77 79 78 75 77 75 74 71 74 70 67 67 67 66 66 68 62 62 63 60 61 54 60 59 59 
73 74 71 65 57 58 51 54 51 48 59 67 72 71 72 70 68 69 73 69 72 70 70 75 77 78 78 75 73 73 68 69 72 74 74 69 73 70 71 71 73 70 72 74 73 69 68 70 65 66 66 66 61 66 54 47 61 71 74 74 74 72 72 69 66 63 61 63 70 65 63 62 62 60 54 54 54 59 52 54 
72 71 68 62 56 55 52 52 50 50 55 63 67 69 69 71 70 70 66 69 72 71 73 71 77 75 75 72 71 72 69 70 69 69 69 70 71 68 71 71 71 70 69 70 69 74 70 68 69 67 68 67 59 63 45 31 42 65 68 71 70 69 70 69 62 62 58 60 64 61 63 60 61 54 57 56 52 54 53 55 
69 69 64 58 59 52 49 52 50 49 57 61 66 63 68 67 67 68 71 71 71 72 70 73 76 73 70 73 73 69 67 66 66 69 69 71 70 69 70 69 68 71 71 70 70 69 70 72 68 70 64 65 60 61 39 25 28 54 62 65 67 64 64 62 61 56 54 59 59 60 61 58 57 53 52 52 52 54 51 52 
64 68 65 62 53 53 49 49 47 48 53 60 64 64 68 65 67 67 70 69 75 73 70 69 73 70 73 73 72 68 66 69 64 66 64 69 73 72 71 69 68 68 71 70 68 71 67 67 67 67 69 67 61 62 39 21 22 36 54 60 64 64 59 59 56 52 55 55 59 59 59 54 56 55 50 53 47 48 50 51 
62 64 64 59 52 51 48 48 47 46 54 61 62 63 71 67 68 68 67 68 73 72 72 69 71 71 74 72 68 69 66 66 66 69 68 66 72 70 70 71 70 69 69 71 72 69 69 70 63 65 66 65 60 54 33 21 15 22 42 55 59 59 56 55 53 50 52 53 58 60 57 52 55 50 49 45 45 46 44 46 
60 63 62 54 54 50 45 48 48 48 52 63 65 65 68 68 71 69 68 70 70 69 69 73 72 71 75 70 70 69 67 66 72 69 68 69 72 69 69 71 71 69 69 71 69 71 69 69 68 67 66 64 57 50 27 13 6 11 36 50 53 56 53 53 51 48 50 53 58 51 51 54 52 49 46 45 43 44 43 45 
58 59 59 54 54 52 48 47 48 47 56 65 70 65 71 70 73 69 69 70 74 73 73 76 74 73 74 70 71 69 67 69 71 69 71 68 72 74 72 76 74 74 71 74 70 74 72 69 66 67 61 63 58 51 27 13 5 6 22 45 49 54 51 52 46 46 49 52 53 51 50 51 51 49 48 48 42 45 43 45 
56 62 58 57 52 48 46 45 46 46 57 65 66 67 70 68 71 71 70 70 73 73 76 74 76 77 73 69 74 70 65 68 67 68 72 75 76 76 77 75 75 74 73 76 74 75 73 71 69 66 62 62 55 48 25 11 4 2 12 39 47 50 51 47 46 45 49 47 48 43 51 45 51 45 45 42 41 40 43 41 
49 57 56 54 52 48 45 45 43 45 52 58 63 61 70 66 71 69 71 71 73 73 73 75 74 72 73 75 72 69 69 68 70 69 70 73 73 73 75 79 74 73 78 73 72 72 72 71 69 67 63 59 56 44 24 12 6 2 5 27 44 47 47 50 43 43 45 44 46 45 47 46 45 40 40 43 37 37 33 36 
47 56 56 52 52 51 47 44 43 45 53 60 65 63 68 69 69 67 71 70 72 73 74 72 72 70 72 75 72 67 66 69 70 70 72 73 75 78 78 77 74 76 75 73 73 74 73 72 69 66 65 59 55 44 26 9 5 3 5 16 38 46 46 40 43 45 45 45 41 40 43 42 41 39 35 37 37 37 35 35 
47 53 53 52 50 47 46 45 44 48 57 62 63 63 70 65 69 69 71 68 71 71 74 70 74 71 70 70 72 65 72 68 70 71 66 72 75 77 78 72 77 75 75 73 74 75 72 71 74 68 65 60 54 42 22 7 4 5 2 8 35 41 45 44 43 42 42 43 39 39 36 40 40 34 36 38 37 37 32 40 
49 57 53 56 49 49 47 48 44 45 61 58 63 62 66 65 68 69 66 67 70 69 70 72 73 70 70 71 66 68 69 67 65 70 67 67 71 74 74 74 71 74 73 71 75 73 71 74 72 66 64 64 54 39 21 8 2 0 4 8 19 37 38 42 38 39 39 40 38 36 34 33 38 34 36 35 35 35 30 35 
51 61 56 54 56 50 49 49 50 46 55 59 64 64 70 66 68 67 66 68 69 69 67 68 69 67 70 67 71 67 66 63 68 67 70 67 72 72 74 74 75 70 72 72 73 76 70 73 70 66 65 62 54 41 26 11 2 3 2 9 15 30 35 35 36 35 38 37 35 35 34 32 35 30 33 35 30 33 30 28 
55 58 59 55 53 53 50 47 49 48 58 65 65 65 67 67 66 68 71 67 68 70 69 67 66 68 67 68 68 64 66 64 67 68 68 68 69 69 71 76 72 72 72 71 74 75 71 73 69 66 66 61 53 42 32 15 7 4 9 11 13 24 32 36 36 36 38 37 36 32 33 35 34 30 31 33 30 31 30 29 
51 57 56 59 53 53 48 48 46 47 57 62 67 64 64 64 66 65 66 67 65 64 65 70 67 65 66 65 65 66 65 64 65 65 62 66 68 70 70 73 71 71 69 72 70 75 71 75 68 66 64 59 54 44 35 21 13 6 10 15 15 23 29 30 34 37 40 42 38 34 32 34 33 29 31 30 27 28 29 26 
55 62 62 59 53 49 49 48 46 49 57 61 64 63 63 66 63 62 65 62 63 65 64 65 68 65 65 60 65 60 61 62 60 63 64 64 68 70 71 73 68 67 69 70 72 74 70 71 69 66 64 59 52 45 36 21 19 11 11 15 20 24 28 33 35 32 36 36 35 34 34 32 34 28 29 30 26 23 21 20 
62 63 62 57 55 55 53 49 49 51 57 57 62 62 64 65 65 63 64 63 68 65 65 65 64 64 63 63 61 60 59 61 62 65 60 63 69 70 69 72 70 70 74 70 73 73 72 69 68 65 62 57 52 47 39 24 22 13 18 18 22 27 29 33 32 34 37 38 36 32 33 30 32 28 27 28 22 22 23 20 
62 65 61 60 56 54 50 48 46 53 56 58 65 61 63 60 63 65 67 62 67 65 64 63 63 65 65 62 66 62 60 62 60 62 61 63 67 73 70 71 68 72 71 73 68 72 68 68 68 64 61 57 52 42 39 26 23 16 19 23 28 29 27 32 36 34 36 35 35 30 29 29 30 27 26 26 20 18 16 23 
61 62 60 59 56 54 50 50 49 50 54 60 58 59 61 61 61 66 66 65 63 63 61 66 67 66 67 64 62 61 60 61 62 61 63 63 69 72 72 72 68 70 70 71 68 71 67 69 69 65 62 57 52 45 37 27 22 16 19 23 30 28 29 31 35 31 32 31 31 29 26 24 27 22 23 25 21 17 15 25 
69 69 61 59 58 58 56 54 49 54 58 61 61 56 60 64 63 62 65 64 69 63 65 66 68 69 67 68 64 64 60 60 63 63 62 62 71 71 72 71 75 70 69 71 70 68 69 74 70 67 63 56 50 43 42 27 21 22 22 29 33 32 29 27 31 34 31 28 28 26 21 23 25 24 18 25 20 20 18 22 
73 70 62 62 56 54 55 47 51 56 58 61 60 58 61 60 60 60 64 66 69 62 67 67 71 71 68 67 63 62 59 62 62 60 61 61 67 70 70 72 74 73 71 71 70 69 71 71 68 68 62 56 48 44 42 31 20 28 26 31 35 31 28 29 36 29 30 28 23 21 20 22 25 26 20 24 21 23 20 21 


