P2
80 60
202
118 115 122 123 127 129 129 132 134 133 132 127 132 132 129 131 124 122 110 104 100 93 92 91 90 85 84 73 72 73 70 69 71 72 72 74 73 74 77 73 79 72 72 68 66 67 66 64 62 65 61 59 61 63 64 61 58 59 64 56 55 60 61 56 55 52 53 51 48 51 44 44 44 41 44 46 44 42 30 36 
119 116 126 126 128 129 132 134 138 136 133 128 134 136 133 135 128 120 115 101 98 94 96 94 90 82 81 72 72 76 73 75 75 80 78 75 77 75 79 74 75 74 73 70 72 67 66 65 62 65 63 59 61 68 70 62 60 60 65 62 61 58 60 55 56 51 53 48 49 49 44 48 42 40 44 41 46 37 30 27 
123 122 131 126 125 129 138 135 136 136 134 132 133 143 144 145 126 116 110 99 94 95 98 89 87 83 82 76 75 76 74 78 79 80 82 79 81 81 78 77 80 74 76 73 74 72 68 69 69 68 67 61 66 68 67 64 63 61 58 65 63 60 59 59 55 50 53 50 52 48 45 44 42 40 43 36 38 36 27 26 
122 124 130 126 124 127 133 136 139 138 132 130 134 144 150 141 122 108 102 93 94 91 93 90 86 79 79 78 73 76 76 77 77 78 77 81 81 81 79 80 76 78 74 72 74 71 70 66 68 68 64 61 63 71 68 63 61 60 62 60 59 58 62 59 49 49 54 48 49 48 46 45 41 39 40 33 33 31 23 25 
126 118 130 128 128 133 136 136 138 137 133 134 133 143 148 139 119 105 102 93 92 91 93 89 88 80 77 75 71 77 78 76 76 81 80 78 79 80 78 77 79 75 78 75 71 71 68 67 66 68 64 62 66 69 66 66 60 62 61 60 64 56 58 58 52 52 47 51 49 49 46 42 40 41 33 32 30 28 24 24 
126 123 133 129 131 136 136 139 141 139 135 133 134 151 148 131 112 102 98 88 88 89 92 91 90 82 79 77 75 77 78 78 80 83 79 81 78 78 77 74 78 78 75 76 74 72 69 69 67 68 66 63 66 67 68 63 61 64 61 60 61 56 54 54 50 51 52 50 50 45 44 42 40 37 35 30 27 27 17 20 
123 120 131 129 128 136 137 137 141 137 136 132 133 143 145 129 108 99 96 91 90 91 92 88 86 79 82 73 72 76 77 81 78 80 80 79 76 77 75 74 75 74 72 73 69 69 68 70 69 70 65 61 65 66 65 63 59 59 58 53 60 51 54 54 51 50 51 51 48 48 38 40 39 35 30 27 23 22 15 17 
121 124 130 130 128 132 137 139 140 139 134 135 135 136 136 119 105 102 94 94 88 93 91 88 84 80 80 75 75 77 79 84 81 83 82 79 82 77 78 74 76 78 76 75 72 72 71 70 72 68 64 62 67 65 63 59 59 57 57 56 56 52 53 53 50 47 44 50 46 49 38 42 37 36 31 27 21 25 13 16 
125 122 131 130 129 134 135 138 139 138 137 132 137 138 130 112 98 99 94 90 93 93 90 90 84 82 81 75 74 79 76 82 86 80 82 79 80 76 76 74 77 75 78 78 73 71 72 72 69 68 70 70 64 64 64 61 57 58 55 54 53 52 53 52 48 46 49 49 43 42 42 39 35 33 29 26 27 18 9 14 
126 122 134 133 132 134 136 138 144 137 136 132 134 129 118 102 93 97 96 90 94 93 93 86 84 80 81 73 78 77 80 79 80 79 80 80 80 76 77 74 76 75 76 75 70 72 70 71 69 70 68 64 65 64 64 63 55 58 60 54 52 51 51 50 44 44 48 41 41 42 37 39 34 31 28 25 20 18 6 10 
123 121 129 127 128 135 138 137 144 138 133 131 130 122 107 100 92 91 93 91 89 92 91 84 83 78 80 72 71 74 74 75 77 75 78 78 79 77 75 75 73 76 74 71 70 68 71 70 68 71 67 64 65 68 62 61 60 55 56 51 52 49 54 52 46 45 45 45 43 40 38 36 30 29 25 27 21 12 1 7 
122 119 125 128 127 135 137 136 144 135 134 131 125 108 99 95 90 94 88 94 92 89 88 85 83 78 80 74 70 71 71 78 77 74 79 78 79 77 74 75 76 70 71 71 69 69 71 70 69 68 67 65 66 68 60 60 55 56 55 52 54 49 51 48 41 46 45 41 40 40 39 36 35 30 27 23 17 14 5 5 
122 118 129 128 129 135 138 138 140 140 132 130 122 105 99 92 90 87 91 91 89 87 86 84 82 80 74 72 73 75 78 74 75 74 76 75 76 78 76 74 73 69 69 68 67 68 70 67 65 68 65 64 68 68 64 61 55 55 53 54 50 48 46 48 41 41 41 39 43 39 38 34 31 25 22 20 14 11 3 11 
118 119 128 130 132 140 142 141 140 142 133 128 120 102 93 90 86 90 92 90 91 90 85 84 85 78 75 70 72 74 74 76 75 74 75 73 73 76 76 68 68 67 70 69 66 69 69 69 65 66 70 64 69 68 64 60 57 53 56 51 52 51 48 45 41 42 43 40 43 40 38 36 33 25 26 23 14 11 3 5 
119 121 128 128 130 136 141 137 140 138 128 129 116 101 91 90 88 88 88 91 89 90 84 83 81 74 77 70 70 74 74 74 75 76 72 71 70 72 71 70 69 67 65 66 68 67 69 71 66 68 64 67 76 76 60 58 53 51 52 51 49 50 48 47 38 41 40 42 41 38 38 34 30 28 24 18 19 13 5 3 
116 118 127 129 130 143 140 139 141 138 131 128 110 95 89 88 87 87 91 87 89 87 86 86 81 75 74 74 74 73 73 74 76 73 73 73 71 70 67 70 68 67 69 67 64 68 69 71 67 67 64 64 79 78 62 58 54 51 53 51 48 46 49 46 38 41 42 40 40 38 34 34 29 26 22 20 17 14 3 8 
115 118 125 126 133 137 141 139 139 137 131 125 108 95 86 88 84 90 92 88 88 91 83 87 85 75 75 71 71 72 73 71 72 74 73 72 70 70 68 69 68 70 66 69 66 65 68 69 67 65 64 64 74 73 60 59 50 52 52 53 51 47 47 43 35 40 42 38 36 39 32 32 29 27 23 19 17 15 6 4 
116 113 124 125 131 138 138 136 139 136 130 121 104 90 87 87 82 86 88 87 84 90 84 84 79 80 71 72 71 70 70 70 71 77 75 71 71 69 69 69 68 67 67 65 67 67 67 68 64 62 60 63 74 70 60 56 50 49 50 46 47 45 43 42 32 40 39 35 38 33 34 32 27 23 23 20 14 10 2 7 
111 113 121 125 128 134 135 138 138 135 131 121 102 92 85 84 85 86 88 86 88 87 84 83 80 76 74 70 72 69 74 72 75 77 75 70 70 69 70 74 67 68 70 68 65 66 66 64 64 61 58 61 77 67 55 54 49 48 50 47 48 47 46 41 32 37 37 34 33 34 30 30 27 24 22 17 8 13 3 2 
112 112 122 122 124 133 133 135 131 132 128 118 99 85 82 81 83 85 84 85 84 86 84 81 79 74 75 73 70 72 72 73 72 77 75 69 68 73 71 69 65 68 69 65 68 65 65 66 65 64 59 60 72 66 55 50 48 47 50 44 48 45 47 41 31 36 39 36 36 35 31 31 26 25 20 20 9 10 2 2 
109 112 118 122 129 130 134 136 135 132 124 116 94 84 80 83 85 81 83 84 82 81 82 84 80 76 77 79 75 73 73 74 70 74 73 73 71 68 68 71 68 69 66 65 64 60 62 62 64 62 59 58 67 60 52 51 49 46 45 48 48 45 46 43 31 36 37 35 34 37 37 28 28 25 22 15 8 9 0 3 
107 110 116 119 124 129 129 131 133 127 123 110 91 85 80 83 78 81 81 84 85 84 83 80 80 83 98 105 97 78 72 70 69 69 70 73 71 67 65 69 68 68 70 63 66 64 60 60 61 60 57 56 63 60 49 48 46 46 44 43 45 41 43 39 34 35 38 34 32 36 33 31 27 27 25 15 8 8 1 3 
108 104 119 122 124 127 130 126 130 127 120 107 90 81 78 78 79 81 80 83 83 86 78 86 86 96 124 160 173 119 77 64 63 65 71 66 62 62 63 66 62 62 64 61 60 61 63 63 60 59 56 56 63 55 45 47 41 44 44 43 44 41 40 37 38 39 39 38 36 32 31 30 25 26 19 12 10 10 7 3 
108 103 115 117 122 126 128 126 126 125 119 105 86 80 78 80 79 79 81 78 81 83 84 89 93 115 140 164 190 193 88 66 62 59 69 64 63 63 59 60 60 60 61 61 61 59 59 60 58 60 55 55 60 52 46 48 47 45 45 42 39 41 42 40 36 40 41 38 32 33 31 26 27 25 20 17 12 10 7 5 
102 102 112 116 119 127 123 122 125 123 117 103 84 81 78 79 78 81 77 80 79 83 82 91 105 126 136 148 177 202 132 74 69 68 64 69 61 59 54 59 60 58 60 60 59 59 56 58 59 61 58 59 64 54 46 45 47 41 44 40 40 39 43 40 39 36 35 34 32 31 29 28 28 23 19 16 12 11 3 7 
99 101 112 113 121 124 125 120 121 120 113 99 83 75 77 76 77 79 80 81 79 79 84 94 119 134 143 139 157 179 160 74 64 66 65 61 58 60 57 62 59 57 59 55 58 60 58 60 56 59 55 58 65 53 46 46 45 43 41 41 43 40 41 37 34 36 37 34 30 30 28 31 27 24 21 17 12 9 4 4 
98 99 108 111 113 117 117 115 118 114 109 93 82 75 76 77 78 75 81 78 80 77 85 104 131 140 151 154 156 163 151 76 66 67 66 62 60 63 62 61 59 59 60 57 58 59 59 57 57 60 53 60 65 49 46 46 42 43 43 39 44 39 40 36 35 38 38 32 33 28 31 29 25 24 21 17 10 10 3 7 
91 96 102 100 98 96 97 98 100 99 94 85 75 73 74 75 74 76 80 77 77 80 89 108 134 144 149 156 164 164 132 76 64 66 61 60 60 64 61 61 61 58 59 58 56 57 57 57 56 55 55 56 60 47 41 45 42 41 41 40 40 39 42 37 36 38 36 34 30 27 26 26 23 21 16 15 9 8 4 7 
90 87 97 91 91 87 84 84 86 85 78 74 75 71 74 75 74 76 76 73 78 81 93 119 134 145 152 159 169 158 129 74 66 63 61 60 63 61 59 60 57 62 57 55 56 59 57 56 52 55 54 56 59 48 46 48 42 44 43 39 44 39 38 34 38 40 40 35 31 29 27 28 23 20 15 15 11 13 2 2 
90 84 91 85 84 80 80 77 81 79 75 74 72 72 73 73 73 75 76 74 79 82 95 124 140 154 160 161 170 149 121 73 64 62 60 62 60 61 61 59 57 57 58 53 55 56 57 53 53 57 54 58 58 47 43 45 40 42 41 39 47 44 41 35 38 43 40 35 33 32 26 27 24 19 18 15 14 10 2 5 
81 79 86 78 77 75 77 73 76 73 70 70 72 69 67 72 74 76 75 78 80 81 100 126 149 159 166 167 166 141 120 70 63 63 63 61 62 63 61 61 62 56 58 56 55 55 54 55 52 52 48 56 58 41 39 46 43 41 41 39 41 37 40 34 42 43 38 36 32 32 28 26 24 23 21 14 11 15 9 7 
76 77 84 77 70 70 71 69 68 68 66 66 67 66 66 72 70 76 76 80 80 88 105 139 155 160 162 159 147 142 119 73 64 66 62 61 61 66 61 62 61 59 58 56 55 54 55 55 53 55 49 53 55 40 42 40 43 41 44 40 40 39 39 30 42 41 41 34 31 33 28 23 26 26 22 18 12 10 9 5 
73 71 76 68 71 69 65 64 64 62 61 61 66 67 66 67 68 72 74 76 74 83 108 143 154 155 158 158 153 148 108 66 65 65 61 61 63 62 60 60 61 58 59 54 56 57 54 53 52 53 51 57 55 42 46 47 41 39 42 41 44 38 40 34 40 37 35 32 32 29 28 25 26 24 18 18 16 16 7 8 
69 69 73 65 58 60 59 63 61 58 55 58 65 69 65 72 70 73 75 79 77 83 110 148 156 157 165 168 166 160 103 69 63 66 65 61 60 61 61 59 59 64 61 56 56 58 51 53 52 53 53 59 53 46 46 46 41 39 41 40 43 39 40 37 38 42 34 34 28 25 28 26 29 21 20 17 14 15 7 9 
68 66 66 60 58 56 58 55 58 56 53 64 65 67 65 68 69 69 75 75 74 86 106 146 161 161 171 176 176 163 87 64 62 61 61 64 62 65 64 62 62 55 57 57 59 60 53 52 50 53 54 59 48 39 43 42 36 39 39 40 44 41 40 37 41 36 34 34 29 26 28 25 27 21 20 17 15 16 9 9 
69 63 63 57 56 57 54 54 53 54 56 61 64 68 67 70 66 70 72 75 76 81 102 153 170 175 183 181 176 127 71 60 61 62 66 63 62 66 64 63 58 58 50 58 60 58 55 52 55 52 51 59 46 39 45 42 36 41 38 41 45 43 35 32 44 38 36 33 29 28 24 23 22 20 19 19 10 15 6 12 
65 61 61 56 53 54 50 51 50 54 51 60 64 66 64 69 67 70 71 72 75 81 98 153 171 174 172 162 143 87 65 61 61 61 64 62 64 65 59 61 57 56 54 58 57 57 53 51 57 55 51 60 46 40 42 41 36 38 40 41 38 41 35 34 42 40 39 33 30 24 24 20 24 17 10 14 13 17 6 7 
61 56 59 53 49 49 47 48 48 48 51 60 64 68 66 67 69 72 71 68 74 76 88 129 159 162 161 139 91 68 60 61 61 62 65 62 61 60 59 57 51 58 58 57 53 53 51 50 53 53 52 56 45 39 43 42 40 40 42 39 40 43 33 33 41 40 37 29 29 25 24 22 21 17 17 16 13 11 5 7 
58 56 57 51 47 48 45 45 46 42 49 60 62 64 64 66 65 70 74 72 70 71 79 95 138 157 143 98 65 63 59 61 59 61 62 61 63 56 55 56 60 58 54 54 56 52 49 53 51 52 53 55 44 34 40 39 37 37 40 36 38 38 32 32 40 36 33 30 24 28 24 25 21 20 14 13 10 11 4 5 
57 52 55 46 43 48 45 40 44 42 50 57 62 65 63 67 68 65 70 68 69 68 72 77 97 113 91 69 61 60 63 60 59 61 63 57 61 58 60 58 57 57 55 56 55 54 52 52 53 57 53 51 44 35 39 38 38 41 38 36 40 34 30 30 38 36 31 29 27 28 27 25 25 21 15 15 13 15 8 8 
55 51 52 42 43 43 43 42 43 39 52 57 60 61 62 66 66 70 72 67 67 68 67 68 66 70 67 60 59 61 61 61 63 63 61 62 61 60 62 60 58 56 56 56 55 54 55 53 51 52 55 53 42 40 38 40 39 36 35 35 39 36 32 36 41 35 30 30 24 26 27 26 24 22 19 16 15 16 8 10 
53 49 48 45 42 42 43 38 38 41 49 58 59 61 61 64 67 64 70 69 68 68 65 67 61 64 61 59 59 59 60 62 63 65 61 63 61 63 62 61 57 59 55 57 54 58 55 53 51 55 52 50 40 34 41 38 40 38 37 35 39 36 28 36 41 35 31 29 25 24 25 23 28 22 19 18 17 20 9 15 
51 46 47 45 43 40 42 41 39 42 49 55 61 65 63 67 63 67 67 64 66 65 68 64 64 59 57 53 54 59 59 62 66 62 63 61 59 59 61 56 60 59 54 58 58 61 56 56 53 53 57 54 41 40 40 39 40 42 38 37 38 33 31 35 41 34 34 27 25 24 22 23 26 22 20 19 16 22 13 12 
50 44 47 44 40 40 40 37 39 41 49 55 59 60 64 64 64 68 67 68 67 66 66 67 66 58 61 57 53 56 56 63 62 60 64 60 58 61 55 61 57 58 57 58 60 62 58 56 52 54 57 57 41 37 40 42 40 41 39 35 39 36 26 33 43 36 32 27 30 25 25 24 26 24 24 21 19 25 15 18 
48 39 44 45 41 37 40 33 44 46 52 56 58 61 62 64 64 64 65 67 69 65 65 66 62 59 60 55 57 58 58 61 64 65 63 63 61 58 57 62 60 60 56 58 61 62 62 58 53 52 58 55 41 38 41 42 43 44 39 37 39 40 29 37 44 35 33 28 27 26 25 23 29 24 21 19 26 26 20 20 
43 41 44 43 40 40 40 34 40 41 50 53 55 62 60 65 61 67 68 66 65 67 63 60 60 59 60 54 57 58 59 62 63 66 66 64 60 58 60 61 63 60 60 61 60 63 60 59 52 54 57 55 39 41 43 44 42 43 44 40 39 34 31 35 41 35 31 27 27 26 23 22 23 22 20 22 21 27 21 21 
43 41 46 40 41 40 37 37 37 43 50 54 56 61 60 64 62 63 70 68 69 66 63 68 60 62 58 56 55 57 58 64 64 66 65 63 61 61 62 63 60 63 61 62 61 62 59 58 52 53 60 55 44 41 43 42 42 45 45 42 40 38 29 37 44 32 29 29 29 29 26 26 23 21 23 22 20 28 25 26 
45 40 45 40 38 40 39 35 38 42 48 53 58 57 57 61 63 64 71 68 69 64 65 67 61 58 56 55 58 59 59 65 64 64 65 65 61 61 62 60 62 63 63 60 61 62 58 59 54 55 62 53 40 40 45 43 45 45 45 39 40 35 32 40 39 32 31 28 28 27 26 25 26 21 22 24 21 31 26 24 
42 40 46 37 40 39 36 38 39 43 46 52 54 59 59 63 63 66 66 70 67 68 68 63 63 56 56 57 55 58 60 63 65 63 65 67 64 61 61 61 60 62 62 58 62 59 57 59 55 53 61 48 38 43 48 44 45 42 45 45 43 38 31 40 45 31 36 31 33 29 27 27 27 23 23 23 26 31 24 27 
43 36 41 39 39 38 39 33 39 40 50 51 54 56 58 63 61 62 67 66 69 65 65 64 61 59 58 57 57 58 61 64 62 65 62 63 62 61 61 66 60 63 58 57 60 58 60 57 55 56 59 48 36 40 45 47 44 44 46 47 46 42 35 40 41 32 31 37 30 29 24 27 28 22 25 23 21 34 26 30 
39 37 42 41 40 39 37 34 39 41 51 56 55 57 57 60 61 66 70 66 67 69 67 62 65 55 58 56 57 56 60 64 62 62 63 64 60 61 59 63 62 61 62 59 62 62 64 62 55 58 59 51 39 42 47 47 47 47 45 47 49 41 36 41 39 38 33 31 32 31 27 29 25 29 28 24 22 31 25 31 
40 39 43 44 41 42 37 33 38 39 53 50 52 56 57 59 59 65 68 67 64 62 64 64 65 59 55 56 58 61 62 63 62 67 64 60 61 60 59 65 64 60 62 62 64 64 59 59 57 57 61 47 40 44 47 45 44 44 45 47 50 40 36 44 39 37 37 34 33 31 30 31 28 27 26 22 25 23 24 26 
38 39 45 41 41 40 36 35 39 41 48 51 53 56 53 58 56 63 65 65 67 65 64 66 61 58 58 55 56 60 64 61 66 66 67 64 63 59 60 64 63 64 63 61 61 57 55 56 54 57 61 46 38 43 43 44 43 46 45 49 49 40 40 41 40 38 35 35 31 31 28 31 30 25 28 22 25 26 22 30 
43 44 45 41 41 40 42 41 38 41 47 50 52 55 54 57 59 61 66 67 65 63 63 61 62 57 58 56 56 58 62 66 66 69 67 66 63 63 62 65 61 61 61 64 61 60 55 55 54 59 59 42 38 41 47 42 43 44 44 46 53 39 40 38 37 35 33 36 33 34 30 31 27 30 31 26 25 28 20 28 
45 42 48 45 44 43 41 39 42 45 48 52 53 55 54 57 61 64 61 64 65 64 64 63 57 60 57 55 55 57 61 63 66 66 66 63 65 62 64 61 61 60 60 64 61 58 56 54 52 57 58 45 36 39 44 42 45 40 48 51 49 39 42 43 39 34 35 35 34 34 29 31 28 28 26 22 25 30 21 27 
47 44 47 50 46 43 41 41 43 41 47 51 50 55 55 57 60 61 59 61 63 62 62 63 59 56 56 53 56 59 61 63 67 70 70 67 63 64 63 63 62 61 65 63 59 59 54 53 57 59 56 43 38 41 46 40 46 43 44 49 47 36 40 44 42 38 34 32 32 34 30 30 29 30 28 23 26 31 20 20 
50 41 50 46 52 47 40 39 41 49 50 53 53 56 56 56 56 58 58 59 63 64 62 60 61 58 55 52 53 57 62 66 65 70 69 68 65 65 61 61 63 61 64 59 61 58 57 53 54 59 58 43 40 42 44 43 47 45 48 46 48 37 45 43 43 41 36 32 36 35 31 32 31 29 26 24 28 26 18 23 
56 44 52 50 49 45 44 42 45 48 48 53 54 58 57 57 53 57 59 57 58 64 61 62 59 55 55 52 55 56 60 64 66 71 69 66 67 65 63 64 62 64 61 63 62 59 60 57 58 60 58 45 40 47 46 46 47 46 46 49 49 38 45 46 43 40 35 35 39 38 34 35 33 33 30 28 28 30 20 22 
58 53 52 51 47 49 47 43 45 48 49 52 54 57 55 57 50 53 56 59 61 61 65 64 62 56 58 54 55 58 61 65 66 69 69 68 67 67 65 66 63 65 65 63 63 63 61 59 58 64 60 44 44 47 49 47 51 48 49 47 46 36 45 47 47 42 38 37 36 38 36 33 36 32 31 28 30 31 21 22 
64 48 50 50 47 44 42 40 43 48 48 47 51 54 53 53 52 52 63 62 65 70 67 63 66 58 60 58 56 62 64 67 66 71 71 75 70 72 68 68 66 69 66 62 60 65 70 66 65 66 64 53 46 48 50 51 51 53 54 50 45 35 45 52 50 42 40 40 40 35 34 34 37 39 33 33 30 30 20 26 


