P2
80 60
180
138 140 141 143 143 141 143 148 149 150 153 156 151 151 148 151 153 152 156 152 153 146 147 144 142 141 138 136 130 131 136 131 130 130 127 131 129 133 133 127 128 124 124 126 123 124 124 122 123 118 120 122 126 121 122 122 124 126 118 121 120 116 109 108 108 111 109 105 101 104 103 98 94 95 94 91 86 86 87 90 
136 142 143 142 145 145 145 152 146 153 156 155 154 154 151 150 153 153 156 155 152 149 145 145 142 143 138 138 133 136 133 131 134 131 131 134 129 133 131 131 128 129 128 127 124 122 124 124 121 118 120 124 121 125 127 125 125 122 121 119 120 116 111 110 109 111 109 111 103 102 105 98 97 96 93 90 92 89 85 85 
136 136 140 147 146 142 144 150 149 153 151 153 156 152 155 151 154 155 149 152 155 148 145 141 142 142 137 137 135 136 138 139 136 138 134 132 134 142 135 129 135 134 133 136 131 133 133 132 127 127 124 127 127 124 124 126 125 125 126 124 120 115 113 111 113 114 112 111 104 109 103 100 97 95 94 95 93 88 86 85 
132 137 143 142 146 145 146 150 149 156 154 156 154 158 154 155 154 153 154 153 153 150 143 143 141 142 142 138 138 133 138 139 136 133 136 135 136 142 137 136 136 136 135 139 138 136 137 137 131 132 127 132 131 128 129 128 127 127 123 121 120 117 117 115 114 116 112 115 113 110 105 104 97 99 98 97 90 92 90 92 
138 137 142 145 146 147 149 154 152 153 156 160 154 156 153 152 156 157 156 153 152 147 145 146 139 143 139 141 135 134 140 138 137 138 133 136 137 141 140 141 138 138 134 139 134 135 138 140 136 134 135 136 134 132 133 132 129 129 126 125 128 119 117 119 116 118 112 118 115 111 108 104 103 102 99 104 96 93 88 92 
140 140 145 145 144 146 152 156 153 160 159 155 157 157 155 153 155 157 156 155 155 152 146 146 146 144 144 139 135 140 140 139 140 138 135 133 138 137 141 138 140 134 138 139 136 138 139 138 137 140 139 140 138 134 134 134 130 132 128 126 126 122 118 122 119 116 119 116 115 116 110 107 103 106 102 103 96 93 97 92 
143 139 145 145 144 144 148 155 153 158 158 157 158 155 157 152 155 157 155 157 153 150 147 147 145 145 141 141 139 141 147 139 142 141 134 134 137 139 140 138 131 136 138 140 137 137 137 140 139 147 144 143 140 140 136 138 133 133 129 130 130 125 124 122 122 122 120 120 119 112 111 108 108 109 105 104 101 100 103 93 
142 140 139 144 146 147 152 154 153 154 156 156 156 159 155 158 158 157 155 153 156 153 149 144 146 146 143 141 138 139 147 139 141 141 137 140 138 140 138 140 136 136 136 141 141 137 141 141 139 148 149 147 145 144 141 144 137 137 131 131 137 128 126 125 123 124 122 124 118 114 116 108 109 107 108 108 105 97 97 99 
143 140 140 146 146 147 149 154 154 162 158 158 163 163 163 159 158 159 157 158 154 151 148 147 146 148 146 142 137 138 143 143 143 138 133 135 142 139 136 135 136 138 138 143 144 139 140 140 140 152 148 150 146 144 143 143 138 142 135 136 140 133 129 129 129 125 126 123 121 118 114 118 114 113 112 110 105 102 103 102 
142 141 140 149 145 153 152 152 155 163 158 160 161 163 159 157 157 158 160 157 160 152 151 145 145 144 142 141 138 141 140 145 138 138 136 138 136 142 136 138 132 137 137 141 137 138 137 143 140 148 146 149 150 145 140 143 137 139 136 134 133 131 126 127 127 131 126 130 124 123 121 118 118 119 113 109 110 105 105 98 
142 141 144 148 146 148 151 158 154 163 157 159 160 159 159 156 159 158 159 155 156 151 148 146 147 147 143 140 138 141 142 142 138 135 137 138 141 141 141 133 136 135 136 136 136 137 139 140 143 145 146 148 148 141 142 137 138 136 129 131 130 129 129 126 129 126 125 126 124 122 124 120 120 118 118 115 111 108 106 104 
140 141 146 142 147 148 155 159 158 162 159 158 160 157 156 158 155 158 158 160 156 151 146 146 148 143 139 138 136 141 141 139 133 133 138 137 141 141 138 134 134 137 133 138 137 137 136 139 143 144 145 146 149 144 144 141 135 135 130 130 127 125 122 124 126 129 125 123 125 120 121 120 121 123 120 116 113 109 105 106 
144 141 143 147 146 151 152 162 159 158 160 158 160 159 159 159 157 160 159 156 155 152 146 145 146 144 139 137 137 138 137 134 138 136 135 138 139 140 139 138 135 133 134 139 135 138 138 142 145 144 146 148 145 144 143 138 134 134 128 132 128 127 124 124 125 128 124 125 121 121 122 122 115 120 117 112 115 110 106 106 
139 141 145 142 148 151 157 160 158 159 159 160 159 155 159 159 155 158 158 155 158 153 142 143 142 139 139 135 131 134 135 134 133 134 136 137 135 136 137 138 135 134 133 135 134 137 134 140 143 147 146 148 146 144 142 140 136 132 132 130 130 128 125 122 122 121 121 121 125 117 119 117 115 116 114 112 111 108 110 109 
139 138 142 146 145 150 153 158 155 161 162 161 156 155 158 157 155 157 157 156 155 149 143 145 143 141 140 135 132 135 138 132 133 135 134 135 134 141 133 133 130 132 130 132 134 138 137 142 143 147 146 146 144 143 140 138 136 134 130 129 128 127 124 121 123 122 121 123 117 118 117 118 115 113 115 112 112 110 109 107 
139 138 139 145 145 150 154 158 155 158 160 159 157 160 155 155 156 154 158 154 155 151 143 141 143 140 139 138 132 133 138 136 135 138 132 131 133 138 135 138 132 133 132 136 136 137 139 137 140 146 148 145 144 143 140 136 135 131 130 125 129 122 120 122 121 122 117 120 116 118 117 117 114 116 113 115 112 112 108 104 
136 137 135 141 146 152 155 160 160 158 157 156 157 153 155 152 158 158 161 158 155 148 142 141 139 140 136 137 134 133 136 133 133 130 130 134 135 136 136 135 133 130 131 138 130 136 133 136 144 144 144 143 140 140 141 138 134 131 129 128 128 126 118 122 122 121 117 121 118 115 116 115 117 118 114 116 110 112 110 105 
136 133 133 139 145 144 156 156 155 159 152 153 159 155 153 153 153 154 158 154 153 149 142 140 140 139 132 134 134 134 133 132 134 134 132 132 132 133 133 133 131 130 132 133 129 132 132 137 143 144 139 142 138 136 136 134 134 131 129 127 127 122 120 120 122 119 117 118 120 112 117 114 116 116 113 112 113 107 110 109 
131 135 136 139 144 149 153 160 155 157 159 153 152 151 154 152 151 152 151 150 152 149 140 138 137 137 135 135 132 133 134 133 132 130 132 132 134 134 132 133 131 132 131 134 126 129 133 134 139 141 140 139 139 136 137 134 132 127 126 124 127 124 120 118 121 122 114 117 117 117 115 115 115 114 112 112 110 109 104 103 
129 130 136 138 141 143 152 155 153 155 152 153 152 150 153 149 148 149 150 147 147 141 137 136 134 135 130 129 126 130 135 130 129 131 127 131 134 130 132 130 128 131 128 135 131 128 129 134 139 141 138 137 138 135 134 133 128 126 124 119 127 118 121 120 120 119 119 118 114 112 110 115 114 112 111 109 111 109 103 99 
127 126 133 136 139 145 149 151 152 156 156 150 154 151 150 145 142 147 147 146 145 141 133 133 134 132 130 128 124 125 129 126 125 128 127 127 131 132 127 128 126 130 126 130 127 130 130 129 136 137 134 134 134 133 130 129 130 130 122 121 123 117 117 116 117 118 115 114 113 112 112 114 112 109 112 109 105 105 100 106 
123 126 129 134 138 148 147 151 150 151 150 149 151 145 145 142 143 144 146 143 143 138 134 131 132 131 127 121 115 117 121 119 120 118 123 124 125 124 127 124 120 122 126 128 122 128 128 129 138 137 137 135 132 133 128 131 129 128 126 122 121 118 117 117 113 115 115 114 113 111 111 112 107 107 111 107 107 104 104 102 
121 125 125 130 133 141 145 147 143 150 147 150 147 146 144 141 140 143 144 142 139 136 132 127 128 128 121 109 100 100 99 98 103 111 114 116 119 122 123 120 120 117 120 123 120 119 127 126 138 134 132 134 133 132 128 129 125 122 125 121 120 115 117 115 114 115 116 112 112 111 109 110 107 108 108 103 105 103 104 101 
121 119 124 130 132 140 144 149 142 142 144 146 143 143 141 139 141 141 142 137 134 133 129 127 125 122 119 105 93 94 92 92 89 89 92 101 116 117 115 115 116 115 118 115 117 118 120 124 131 133 130 130 129 126 128 125 119 118 117 119 119 114 114 115 114 112 115 114 113 110 111 110 108 106 107 106 106 101 99 99 
119 123 123 129 130 138 143 143 141 142 145 142 140 135 136 137 139 142 141 135 138 128 126 125 122 122 115 99 90 91 92 89 89 88 89 95 111 112 112 120 115 112 113 113 111 112 115 120 129 129 127 128 126 124 125 125 120 116 113 115 120 113 110 113 113 111 113 111 112 111 109 108 111 105 106 107 102 105 99 96 
123 118 120 123 129 135 139 141 138 142 140 138 139 137 136 132 136 136 132 132 135 128 142 151 127 110 112 103 96 96 99 97 97 95 90 97 104 108 117 113 112 110 112 112 110 112 110 116 124 127 125 125 127 126 124 123 118 113 114 113 112 111 110 113 112 111 110 112 113 108 109 108 108 105 103 104 100 101 100 96 
118 118 115 118 125 129 130 132 130 133 134 136 137 134 132 136 134 132 132 132 134 127 161 180 129 109 103 99 98 97 98 98 100 99 96 94 99 102 122 126 116 111 110 111 112 111 112 116 123 124 124 123 124 120 124 119 113 113 108 108 109 107 108 107 109 110 111 108 110 110 107 110 104 104 104 103 99 95 94 96 
114 111 113 117 114 112 111 113 109 115 118 117 117 116 117 117 121 123 132 131 133 129 142 134 110 99 96 97 96 90 94 93 90 92 88 88 93 94 99 105 106 114 101 104 106 108 112 113 120 120 118 119 118 117 117 117 111 108 105 106 107 105 104 105 106 106 104 107 107 109 104 105 104 98 97 102 96 97 92 91 
108 106 108 111 108 103 105 103 100 100 102 104 104 102 103 99 105 102 109 117 125 125 114 101 95 93 90 89 89 86 90 88 85 80 83 81 83 90 87 85 91 95 85 92 96 103 108 112 118 117 119 114 113 115 115 113 105 103 105 100 102 104 101 106 105 103 105 103 104 103 102 100 101 99 96 96 95 97 90 89 
105 107 104 106 100 99 96 94 95 95 100 95 93 93 91 91 91 91 97 96 103 109 102 87 89 87 88 85 83 82 84 84 81 77 74 77 77 75 83 76 78 81 79 88 91 104 105 108 115 117 115 111 111 116 112 110 105 103 103 98 99 96 100 102 101 100 101 104 100 96 100 97 97 98 96 97 98 94 93 93 
100 98 98 100 94 90 89 89 86 88 90 93 90 90 87 89 87 91 86 86 92 101 91 85 81 85 83 80 81 82 78 79 78 74 76 74 72 71 73 74 70 70 75 76 84 97 98 105 107 110 110 108 109 109 110 112 102 104 99 96 101 100 100 102 100 99 97 101 95 97 95 97 92 93 96 93 94 92 87 87 
100 97 97 98 89 87 87 84 84 85 84 85 87 85 82 82 84 85 85 80 84 85 85 82 82 80 83 78 74 75 78 76 75 69 70 73 70 68 71 71 68 68 68 74 81 93 93 89 82 95 92 97 103 104 105 103 101 102 101 98 97 98 99 96 98 98 94 93 99 96 93 94 93 89 88 88 89 87 81 84 
99 94 95 95 86 83 85 77 75 77 79 78 78 79 77 79 78 76 75 75 79 82 80 79 80 79 81 75 74 72 71 69 70 71 69 71 67 64 68 67 65 62 66 68 77 84 86 81 69 70 73 72 77 90 94 94 100 101 98 99 96 95 94 95 92 92 88 90 94 92 91 89 87 88 87 84 85 83 79 76 
90 91 86 90 84 80 76 74 74 73 73 79 75 70 74 72 71 71 73 72 74 75 75 75 76 78 76 73 66 59 58 63 68 67 68 66 68 61 68 64 64 66 65 65 73 81 78 73 61 56 58 60 64 74 83 89 96 97 97 96 91 91 90 91 90 88 86 90 89 87 86 84 83 80 81 79 80 79 76 73 
84 88 87 87 81 76 71 72 65 67 71 73 69 70 68 67 68 67 66 65 71 71 71 72 74 77 72 71 59 57 57 58 60 67 63 64 63 58 62 61 59 63 59 64 68 72 72 69 57 51 50 52 57 76 83 92 93 95 93 94 93 89 87 86 86 85 84 86 86 83 81 77 79 79 76 76 74 74 73 71 
83 84 79 83 77 72 72 71 64 67 65 66 67 69 67 64 62 59 61 61 64 63 68 67 70 71 69 65 58 55 55 56 60 60 60 62 60 56 60 62 58 56 57 62 65 68 65 57 52 45 43 45 49 73 85 91 93 89 86 83 85 83 86 80 85 82 78 81 79 76 77 78 74 72 70 70 68 69 67 64 
83 84 82 79 75 71 67 66 62 63 64 61 65 66 65 59 56 56 58 61 61 62 64 65 69 70 65 66 60 56 58 60 62 59 62 60 57 51 52 53 54 53 54 58 63 66 59 53 46 36 36 41 45 57 81 85 88 89 86 80 79 80 78 78 76 75 75 74 77 71 72 74 70 68 67 62 63 62 66 69 
81 79 80 77 72 70 65 64 60 62 61 63 64 61 60 55 55 54 57 57 57 60 63 65 68 67 66 63 59 58 60 59 62 58 61 55 53 48 55 51 50 47 50 59 60 58 53 48 37 32 30 31 35 46 76 85 83 83 84 77 82 80 77 79 78 74 75 74 75 71 72 72 69 69 65 60 58 60 59 62 
80 78 78 74 67 68 64 61 58 58 59 59 58 60 56 51 50 51 51 52 57 57 60 63 62 65 62 62 54 60 57 57 60 57 57 54 46 47 49 49 47 48 49 50 55 54 45 43 31 28 23 24 30 39 60 73 78 81 77 81 79 73 73 77 73 72 71 74 70 66 68 67 68 63 61 56 53 54 60 53 
80 76 74 72 66 62 60 64 57 57 58 58 57 54 51 47 52 48 50 54 52 56 58 59 63 60 60 58 54 55 60 54 57 56 53 49 51 47 48 45 46 43 44 49 50 52 42 36 30 22 16 19 17 25 34 45 62 72 76 78 75 74 72 72 70 64 64 64 66 61 66 67 67 63 57 54 56 52 52 56 
76 76 71 66 61 60 58 56 53 52 56 53 55 54 51 49 48 45 44 47 48 54 59 56 58 60 57 57 54 52 56 52 56 54 51 52 51 46 44 43 42 42 42 42 47 46 38 34 27 22 16 14 15 18 25 28 47 65 72 73 72 71 71 66 66 61 57 62 63 62 62 62 62 59 57 57 53 48 50 51 
76 72 70 68 61 58 59 57 53 51 53 54 53 49 49 42 45 45 43 45 46 55 55 52 59 57 56 52 49 49 49 48 51 51 49 48 48 45 42 41 39 38 41 40 35 31 29 28 26 26 24 15 12 12 15 19 27 54 65 65 71 68 68 64 61 60 60 62 59 59 61 62 62 57 54 53 50 50 50 39 
70 71 70 65 59 59 56 53 50 52 52 52 51 51 48 45 41 42 42 46 45 50 54 54 52 51 56 60 57 53 46 42 46 47 47 46 45 41 40 36 38 34 37 31 17 17 21 23 27 23 20 15 6 8 13 17 22 41 61 65 66 66 65 62 58 56 57 59 58 59 60 60 56 53 52 49 51 45 45 44 
73 71 62 63 63 59 55 55 52 52 52 52 50 50 46 44 41 40 36 40 42 48 49 53 49 55 59 60 62 60 61 58 52 44 49 47 42 35 38 41 40 36 35 28 16 16 18 22 33 25 15 8 6 4 9 14 15 23 52 63 64 63 59 62 57 55 53 57 58 54 57 56 57 51 47 48 49 47 44 47 
72 64 63 62 58 57 55 55 50 52 48 48 53 45 47 44 39 38 39 38 43 48 49 51 48 53 60 57 61 60 62 57 45 43 48 43 38 37 34 36 34 34 35 22 13 18 19 21 31 28 15 8 6 3 5 11 9 16 39 54 55 59 55 57 53 51 51 55 57 52 52 55 51 48 46 45 45 46 43 39 
72 63 61 57 57 50 52 51 45 51 49 46 47 44 46 38 38 39 37 41 44 48 46 48 49 50 50 51 51 51 57 53 44 44 43 39 35 35 32 37 32 31 32 23 13 15 18 22 30 27 17 7 3 1 4 5 6 9 25 48 55 55 54 54 47 47 49 51 53 50 52 53 47 44 45 39 42 41 41 36 
68 61 60 59 53 55 52 53 45 47 51 47 49 46 42 39 35 35 37 38 42 46 45 47 48 44 45 45 43 41 45 45 41 43 40 38 39 31 36 36 31 31 30 24 15 15 17 17 27 27 16 10 4 0 0 3 6 7 14 44 50 53 49 55 46 47 51 52 47 48 45 48 44 43 41 38 37 36 38 35 
67 61 61 57 58 54 53 54 46 49 48 45 48 46 41 36 39 35 38 37 41 47 46 46 45 44 43 46 42 39 42 44 43 39 39 37 35 32 33 32 30 28 30 23 13 19 17 19 25 25 16 11 4 3 3 1 6 6 10 31 48 49 46 47 45 48 47 45 43 43 44 44 39 42 39 38 38 34 36 35 
64 59 59 54 58 51 50 52 47 47 46 45 48 46 43 39 36 39 39 37 39 47 45 45 47 46 43 43 42 42 46 44 42 39 43 35 34 32 32 31 29 29 26 16 13 16 14 16 22 24 21 15 6 3 1 2 2 8 8 24 42 48 45 44 46 42 41 44 40 37 40 41 40 38 36 38 36 34 30 33 
61 61 56 53 56 50 53 50 48 49 47 44 45 43 42 39 37 35 41 39 42 45 44 44 43 46 44 43 42 43 42 45 42 40 36 38 31 29 32 30 26 26 22 15 13 14 16 13 15 20 18 15 9 4 1 0 2 3 5 14 32 44 44 43 41 40 39 37 39 33 35 38 35 37 34 32 33 33 33 30 
60 59 58 54 58 54 52 56 50 49 48 48 46 45 41 40 37 38 45 43 48 44 42 43 45 44 41 43 39 40 42 46 40 36 38 34 32 30 27 29 27 24 23 14 10 17 16 14 14 17 16 13 8 6 3 1 1 7 6 11 20 37 39 35 40 40 36 36 37 33 36 37 36 32 32 30 30 28 28 23 
60 56 58 56 57 55 49 53 47 49 46 47 44 45 42 36 38 44 45 45 49 46 42 42 45 45 40 42 39 41 41 45 38 37 34 33 28 32 30 29 27 23 22 16 11 16 15 14 14 14 13 14 11 6 6 4 2 6 7 9 19 33 32 32 36 36 34 32 32 33 33 33 34 30 30 28 28 23 15 22 
63 62 61 57 59 57 54 52 52 50 47 48 49 47 47 43 42 47 49 48 49 44 41 41 45 44 41 41 36 36 42 41 43 37 35 33 26 29 34 29 23 23 18 19 18 18 18 17 13 15 12 14 10 9 8 7 7 10 10 14 17 23 31 32 36 37 38 38 32 34 31 34 30 30 29 28 26 24 17 23 
64 60 62 60 57 55 54 55 49 52 51 46 50 48 44 48 45 49 51 47 51 44 41 42 44 44 39 39 34 36 40 39 41 38 34 32 26 27 27 25 21 22 20 25 19 24 25 23 20 19 17 18 15 12 13 13 9 8 13 16 22 28 31 32 37 37 38 37 34 32 33 31 32 30 28 28 26 19 19 18 
63 61 60 66 59 55 54 55 50 52 52 50 51 51 48 45 50 50 52 50 53 48 44 40 41 41 37 38 36 37 39 40 38 37 31 30 25 25 29 25 19 16 20 26 25 26 27 23 26 20 20 19 17 18 19 16 15 16 19 20 25 32 29 34 33 35 38 34 35 34 32 30 29 25 26 23 23 16 19 20 
65 62 59 62 63 58 60 60 55 54 49 49 56 49 48 49 50 53 51 50 50 48 46 41 42 43 38 37 34 35 36 37 34 35 34 30 25 28 25 23 22 19 22 28 27 29 30 29 28 24 23 23 20 16 17 20 16 21 20 23 25 31 31 35 36 35 35 33 31 31 31 30 30 25 24 23 20 21 15 12 
65 64 65 65 66 59 57 57 51 53 52 50 50 51 51 52 54 55 53 49 54 47 43 43 47 39 38 34 32 36 36 35 36 36 34 28 26 29 26 21 23 22 26 32 28 31 30 32 29 27 23 24 21 21 20 22 21 21 23 28 31 32 33 37 36 32 31 34 32 31 29 31 23 24 23 21 17 18 22 17 
69 64 62 68 64 64 60 57 50 52 54 53 51 55 54 51 51 58 57 53 57 48 45 46 46 42 39 36 35 37 39 37 37 38 35 31 30 30 28 26 22 24 25 33 31 31 31 29 32 28 24 25 22 21 22 23 20 24 28 31 35 34 33 36 36 33 34 32 31 29 28 29 27 26 26 19 19 18 15 16 
72 69 68 68 68 63 62 61 54 57 55 54 58 56 55 52 52 56 56 56 54 48 45 44 45 43 41 38 38 39 42 40 39 38 38 33 28 30 30 28 27 26 30 36 33 31 33 33 31 29 27 30 27 25 28 24 20 24 29 32 36 37 34 34 33 32 31 32 31 28 30 29 26 27 24 23 22 21 19 22 
76 69 68 69 66 62 63 66 56 59 56 60 58 56 51 53 53 57 56 55 57 49 43 42 44 43 36 39 33 36 46 41 32 35 37 32 28 25 28 30 33 31 33 33 30 31 33 32 29 25 23 19 21 23 25 21 20 29 34 39 41 40 35 39 35 35 35 35 33 29 32 33 27 27 27 25 25 26 21 24 


