P2
80 60
163
144 135 139 143 140 140 142 144 150 152 152 155 156 151 153 150 142 142 141 143 142 141 143 142 141 141 139 137 137 135 135 134 135 133 135 135 134 136 140 141 137 133 132 129 126 125 126 123 122 124 125 125 126 127 129 129 125 122 118 122 121 108 115 111 113 106 106 108 106 103 100 97 98 96 96 98 93 89 87 91 
141 136 143 141 142 140 143 141 151 152 151 156 152 151 155 156 148 142 143 143 143 143 145 147 142 143 141 143 145 142 141 142 146 144 138 137 139 142 144 144 142 136 134 135 132 132 130 127 125 121 125 129 126 127 127 129 126 123 120 122 120 113 112 110 111 106 109 111 107 102 101 98 100 96 96 94 95 89 86 87 
141 139 146 143 141 144 146 146 150 149 159 156 152 153 153 156 150 145 142 147 144 146 147 148 143 145 145 150 150 145 145 143 149 146 145 142 142 144 143 149 141 142 143 141 142 139 141 141 130 125 126 132 130 125 130 131 128 125 121 124 121 112 117 113 115 112 112 109 105 106 101 99 101 99 95 97 93 92 90 92 
140 133 142 142 141 145 145 147 150 156 155 156 154 149 150 154 147 142 143 146 145 144 144 149 147 146 146 146 144 145 147 145 147 148 146 141 144 143 150 147 144 139 145 144 145 147 145 142 139 135 133 133 133 132 128 130 129 126 122 121 121 117 113 119 113 117 114 109 107 109 107 104 103 101 96 102 97 93 86 92 
143 137 141 142 142 144 147 149 152 156 155 156 156 153 150 153 147 143 144 143 146 144 146 147 144 147 147 148 148 147 147 147 146 146 148 147 144 143 150 148 146 144 143 149 146 146 145 145 141 140 139 136 134 134 134 134 134 122 125 125 125 117 120 122 117 116 115 113 111 109 107 105 105 108 103 101 96 95 92 95 
144 139 143 142 143 145 151 149 150 158 155 159 155 152 154 153 148 141 144 147 144 146 147 149 144 151 147 149 147 148 146 147 147 148 144 147 143 145 150 148 144 146 143 148 145 149 148 148 143 140 142 144 141 139 137 141 135 128 125 125 124 121 122 118 115 118 116 117 110 110 109 106 108 109 102 102 101 95 91 92 
140 136 144 142 144 144 147 148 151 158 153 159 156 154 151 155 148 140 144 144 145 146 147 148 147 146 145 149 148 145 146 148 150 150 144 145 149 147 148 147 146 146 145 146 147 148 148 148 144 144 144 148 146 145 141 137 137 131 131 128 128 124 121 122 119 121 119 117 115 111 109 109 109 110 109 107 99 97 89 100 
141 136 143 143 142 143 152 154 153 157 155 154 156 157 158 156 149 147 148 148 148 146 148 146 146 148 145 150 148 147 146 147 146 147 150 148 149 149 148 146 149 144 144 149 145 152 147 144 145 150 152 150 153 145 147 145 139 138 131 132 131 128 126 124 123 123 120 123 116 114 112 112 111 115 112 108 104 101 97 99 
142 136 142 140 145 146 152 155 156 156 154 157 156 153 153 156 150 147 148 147 150 150 146 150 146 146 150 151 148 146 148 146 148 147 146 150 144 148 150 147 141 144 143 146 149 146 146 145 143 150 150 150 151 147 146 145 141 137 133 137 138 129 131 126 125 127 127 122 120 120 114 111 112 113 111 107 108 104 100 102 
146 134 141 142 141 143 149 149 159 154 158 156 156 154 155 151 151 148 148 147 147 149 152 152 152 147 147 149 144 146 146 146 147 141 146 146 148 145 149 147 146 143 143 147 145 145 147 142 143 148 149 149 149 147 144 140 137 139 134 138 137 127 135 134 130 127 127 130 124 122 122 118 118 116 115 114 109 103 102 108 
142 134 141 146 144 149 152 152 157 162 157 159 156 158 157 155 151 147 149 147 151 146 147 150 151 146 151 148 146 145 144 146 144 146 146 144 147 146 148 150 145 143 143 142 148 148 149 145 147 149 149 150 148 145 143 143 139 133 134 136 132 130 131 132 130 129 129 130 126 121 120 121 117 119 119 116 111 109 102 105 
138 136 141 143 144 148 150 156 161 158 159 162 155 156 158 156 153 146 147 148 152 152 150 151 149 147 151 148 145 145 145 146 143 140 141 144 149 143 144 147 146 142 142 143 143 144 144 143 143 152 149 149 149 143 141 138 139 135 133 131 131 127 128 132 128 127 124 127 121 124 119 118 122 123 119 118 112 109 104 105 
141 135 142 144 143 144 153 156 157 163 162 157 158 157 158 157 152 148 147 147 152 150 152 150 149 146 146 150 148 145 146 141 143 143 142 146 147 147 141 145 142 141 140 143 142 145 145 143 145 151 150 151 145 143 145 140 135 135 132 131 128 129 124 126 127 125 126 124 124 119 122 121 121 118 120 115 114 111 104 105 
139 138 141 144 142 145 152 152 159 159 157 155 157 156 158 160 153 147 150 149 148 145 146 149 149 146 146 146 150 144 142 143 139 143 141 142 146 146 139 145 143 145 138 142 141 143 143 145 147 150 150 147 147 146 140 140 138 131 129 129 126 124 123 126 125 123 125 122 117 117 120 119 121 122 119 115 110 109 104 106 
143 134 138 141 140 145 150 153 156 162 155 154 156 155 155 157 151 146 148 147 145 147 149 147 145 144 145 149 147 141 148 143 142 144 139 141 140 144 141 139 142 143 141 140 143 139 140 140 146 149 146 145 147 144 141 141 135 133 130 126 126 121 122 122 123 122 121 120 116 116 115 117 116 114 118 117 109 111 104 112 
141 135 140 141 145 148 152 156 155 158 154 160 154 157 159 154 149 146 147 150 149 146 149 149 147 145 144 145 144 145 148 146 143 144 142 142 145 141 144 141 137 142 141 141 142 144 142 141 145 148 148 148 148 148 145 138 134 131 128 128 126 123 123 121 118 119 116 121 112 116 119 115 116 117 113 114 109 111 105 107 
137 135 140 142 139 148 154 156 157 158 160 156 157 154 156 154 152 145 144 147 146 146 147 146 140 148 144 146 143 144 144 146 141 142 143 142 146 145 142 144 143 142 141 144 142 142 140 140 148 146 147 146 145 143 141 138 135 131 127 127 124 122 120 121 119 117 118 118 114 118 114 114 113 116 117 112 111 110 100 101 
139 132 134 140 139 147 154 156 157 157 151 155 153 149 155 153 149 145 144 142 147 147 141 142 140 144 141 144 140 140 143 142 142 143 139 143 140 141 143 141 140 141 141 144 140 137 138 140 146 146 146 146 145 140 138 135 133 132 126 125 126 120 118 121 118 114 116 113 114 114 110 112 116 117 115 113 113 107 101 106 
140 128 132 133 138 147 149 153 153 154 153 151 149 151 149 153 149 147 148 145 144 145 144 140 141 139 139 138 139 137 140 138 136 137 137 139 140 137 144 141 140 140 140 138 138 141 138 140 149 147 144 145 141 140 137 136 132 127 126 126 124 120 122 121 117 121 116 114 115 116 116 116 118 114 113 112 113 106 101 103 
137 130 133 133 137 145 148 152 153 154 152 149 150 151 154 150 146 147 151 146 148 136 132 131 130 137 132 136 138 137 136 133 135 135 134 134 138 140 141 139 139 138 139 137 141 135 139 138 149 146 147 140 140 137 134 133 127 125 125 125 121 116 116 119 116 119 113 117 113 112 112 113 115 116 112 109 108 106 101 106 
133 127 133 130 134 139 148 146 151 150 147 149 147 144 147 146 144 139 140 140 134 127 122 119 114 114 118 120 122 127 128 130 129 132 132 133 137 136 137 139 136 135 138 137 136 138 136 135 141 143 141 136 139 136 132 134 128 125 124 120 121 118 115 118 113 116 114 112 110 108 111 112 114 116 115 110 108 103 98 103 
129 121 128 129 131 136 143 146 146 146 148 146 148 144 145 143 141 136 131 129 118 117 113 108 109 106 108 112 111 114 112 110 110 113 120 125 129 131 133 134 136 130 134 136 136 134 136 132 142 141 138 140 139 133 134 133 128 127 124 124 124 116 118 115 115 117 114 113 111 111 109 112 111 116 111 110 107 106 103 103 
127 120 125 129 130 136 143 145 144 146 145 147 144 141 143 144 134 128 121 117 109 108 107 107 105 105 106 109 106 103 105 103 102 106 108 108 109 109 111 117 123 125 128 131 135 129 130 129 141 139 135 135 137 131 134 131 128 126 122 125 119 114 116 115 116 113 114 115 111 109 112 113 113 112 109 109 106 102 100 102 
125 118 124 125 132 138 140 138 142 140 146 142 147 138 142 141 128 118 114 108 105 102 104 101 103 97 104 102 102 106 105 101 101 98 100 99 99 97 100 102 108 121 120 120 121 126 126 129 140 140 136 134 134 131 132 129 124 120 121 119 116 115 113 115 115 115 112 116 112 111 111 110 108 107 109 111 105 103 99 102 
119 116 120 122 127 134 141 140 140 143 140 141 141 138 140 136 125 111 107 104 103 100 98 101 98 100 98 96 100 100 103 102 99 97 94 91 95 97 95 96 109 119 116 116 119 120 120 126 136 137 132 130 131 128 127 128 123 117 112 115 117 113 113 111 115 116 113 111 110 110 108 108 113 107 110 106 106 100 96 101 
117 114 121 120 123 133 137 137 138 137 140 136 139 139 137 136 121 106 107 104 99 97 98 96 99 97 96 96 98 97 98 96 96 91 89 90 91 92 95 95 108 115 116 116 117 119 119 122 133 134 128 126 127 126 128 124 119 116 114 116 112 111 113 112 111 112 113 114 109 108 107 105 109 108 107 106 100 102 94 96 
116 110 114 117 126 123 126 127 132 134 130 133 137 135 133 133 117 107 103 101 98 95 93 97 96 94 95 95 99 96 100 92 94 91 86 90 93 91 92 94 107 113 116 116 116 113 117 120 130 129 126 124 123 124 120 121 119 115 113 112 111 108 112 114 111 110 108 110 107 109 109 105 108 107 106 102 101 101 92 96 
115 106 113 113 112 112 109 111 112 112 112 116 120 119 119 118 109 101 96 95 93 93 92 96 93 93 95 96 97 95 94 89 92 87 86 90 89 90 88 92 109 113 117 113 116 115 113 121 123 126 122 122 121 121 119 119 113 112 110 110 105 110 110 112 108 110 107 108 109 107 108 103 104 104 101 98 101 95 92 95 
107 103 108 106 103 99 103 100 101 99 99 102 105 100 100 100 97 94 93 92 93 91 90 91 92 91 96 95 98 95 93 90 84 88 87 87 88 88 86 88 108 115 116 113 112 113 111 117 125 122 123 116 119 118 118 111 107 106 106 105 104 103 105 107 104 107 104 104 104 107 105 102 101 100 102 100 97 93 92 92 
105 99 105 102 98 94 95 93 94 92 95 92 94 94 96 97 92 85 88 90 89 89 91 89 94 92 91 92 92 90 92 87 83 87 84 85 89 87 87 88 110 113 115 112 109 111 109 114 120 119 117 116 115 115 114 110 108 103 101 99 99 100 105 104 104 105 102 104 100 101 104 99 101 98 99 96 94 90 90 89 
103 99 99 97 93 90 89 87 85 86 89 90 92 90 90 90 87 86 88 89 88 87 85 90 93 88 91 88 90 87 89 87 83 85 83 85 88 83 89 88 107 109 112 112 108 110 108 111 120 119 114 113 116 111 114 110 105 101 97 99 99 99 102 102 98 101 99 100 97 100 98 99 96 96 96 95 96 96 88 88 
102 93 99 95 87 86 84 78 81 79 83 80 83 82 81 81 80 83 83 86 88 87 86 89 85 87 86 86 87 93 86 81 80 79 79 85 86 88 87 87 104 103 106 103 103 104 100 100 96 104 104 104 109 106 110 107 103 102 100 94 97 98 100 99 99 98 96 98 94 97 96 94 89 94 92 88 90 92 84 85 
98 92 95 92 81 79 78 73 76 77 76 78 79 78 80 76 77 79 82 83 83 85 87 87 87 84 86 87 96 92 84 78 75 78 77 79 83 84 81 85 97 101 101 94 97 95 94 90 85 84 82 83 88 93 99 101 105 101 97 99 98 95 96 99 96 97 91 94 92 91 91 90 90 87 88 87 86 84 80 76 
96 87 92 86 78 74 73 70 72 72 73 72 73 74 74 78 74 80 76 77 79 84 85 86 82 82 81 94 97 92 76 75 73 78 79 83 81 82 80 84 98 97 96 90 91 93 88 85 73 68 69 69 72 79 88 94 102 101 98 95 94 92 96 93 91 91 88 92 84 85 85 87 83 82 82 83 80 81 76 80 
95 82 87 81 74 71 66 67 65 66 65 70 70 69 70 71 75 75 77 79 80 80 82 81 78 80 83 91 92 87 74 73 71 76 73 73 76 75 79 81 93 93 90 87 84 86 81 74 68 59 56 60 64 78 83 93 97 94 93 96 87 86 90 89 84 86 85 85 81 84 84 80 80 80 81 77 77 77 74 76 
90 81 86 79 70 68 68 66 65 64 63 66 67 64 68 71 70 73 72 77 80 82 78 82 82 80 80 86 90 82 67 65 73 74 75 76 74 71 75 78 89 89 83 82 85 81 71 68 59 48 49 52 54 76 86 95 94 90 89 89 87 85 86 84 83 82 78 80 77 75 79 78 74 74 71 73 70 71 70 71 
83 76 78 79 72 64 64 61 63 63 65 62 65 63 62 65 70 73 75 76 76 76 76 78 79 77 78 83 83 75 71 74 73 70 70 74 71 70 72 74 86 83 84 80 81 76 69 65 53 41 40 47 52 69 87 93 91 87 86 89 84 83 83 82 80 79 76 76 74 73 75 71 71 70 66 68 66 63 62 67 
78 73 80 72 65 64 60 59 61 60 59 58 59 58 59 63 65 71 70 74 74 73 77 78 78 78 79 80 76 75 73 69 69 70 69 72 72 69 68 74 83 83 77 77 75 72 64 56 48 37 35 40 43 56 84 89 90 86 85 86 85 81 79 81 78 77 72 79 72 71 71 68 65 66 63 67 65 64 59 64 
75 72 76 71 65 63 62 57 60 55 57 58 57 57 58 61 63 65 69 70 72 70 72 72 78 75 77 77 74 72 73 74 71 69 70 69 69 66 68 76 78 78 73 72 68 64 58 49 40 30 31 27 33 41 63 80 85 80 80 80 77 74 78 80 73 71 70 71 66 69 69 64 65 66 61 58 58 55 57 61 
74 71 73 69 59 59 59 55 56 57 59 56 55 55 53 58 62 65 66 71 70 68 70 70 72 74 76 76 76 70 71 69 71 69 68 67 68 64 67 70 78 72 70 69 67 60 53 44 38 27 23 20 21 30 41 51 68 77 76 78 77 75 76 71 68 68 67 70 67 67 66 66 65 61 60 55 57 58 51 56 
69 68 69 63 59 58 57 54 56 54 56 54 54 52 55 54 64 66 69 68 68 68 71 68 71 69 72 73 76 69 69 73 69 68 65 64 62 61 63 69 71 66 65 65 64 58 48 41 37 26 20 15 16 20 25 30 44 72 74 72 75 75 71 71 64 65 62 67 65 66 65 62 58 58 56 55 54 54 52 53 
69 65 67 62 55 56 55 51 51 48 54 52 51 50 50 55 58 64 65 65 69 69 70 69 72 70 70 74 73 70 69 70 66 67 65 65 63 62 61 56 56 53 52 49 45 42 38 35 34 32 30 18 13 16 22 20 35 56 69 71 71 69 70 67 64 60 56 63 63 62 60 60 60 57 56 53 51 49 48 56 
69 66 62 56 55 54 52 49 50 50 51 51 47 48 51 57 60 61 67 70 69 72 73 70 69 69 72 70 72 69 69 67 67 65 64 67 64 62 59 51 44 40 37 32 21 23 24 30 36 32 26 16 10 12 15 19 24 44 61 68 68 70 64 64 61 55 57 57 63 59 61 60 58 53 53 53 53 51 47 44 
68 62 61 63 53 55 52 48 47 51 49 48 46 46 46 56 58 66 67 67 68 72 70 71 66 67 69 65 64 69 69 66 63 65 63 64 61 59 59 48 40 35 30 28 17 19 25 27 34 34 19 9 10 8 9 17 18 28 50 62 63 62 63 62 59 56 54 58 60 61 60 55 52 50 53 48 49 47 45 46 
64 58 60 58 54 51 51 49 49 48 48 48 48 50 48 58 61 60 64 68 63 69 67 66 63 63 61 63 62 62 65 63 63 63 61 65 65 62 56 44 38 32 28 26 16 23 21 27 39 35 18 10 8 3 6 10 10 17 40 57 55 59 61 61 56 51 51 57 60 55 57 52 50 50 47 47 44 44 39 46 
63 62 60 53 49 50 51 53 49 49 44 45 45 43 47 57 58 58 62 63 62 62 60 56 59 57 57 55 59 60 60 62 62 59 60 60 60 60 55 41 31 28 25 23 21 19 22 22 35 32 18 8 5 4 7 4 6 9 24 48 53 54 55 55 49 49 52 51 53 52 55 51 50 46 47 45 42 43 37 38 
60 56 58 53 51 50 52 48 46 47 45 46 43 44 44 54 57 59 63 60 61 62 60 57 58 56 56 57 55 58 60 57 58 55 60 57 61 59 56 38 32 26 27 20 18 19 21 20 33 32 19 8 5 0 6 6 4 6 16 41 46 53 54 50 50 48 51 51 49 46 48 47 45 43 44 41 42 41 37 38 
55 51 53 51 50 52 52 45 46 47 46 43 42 41 45 57 55 57 59 58 59 58 58 58 59 56 56 59 59 59 57 57 56 57 56 56 57 58 53 38 30 29 22 18 16 18 17 18 33 29 22 10 7 4 3 5 6 3 11 30 46 51 53 48 49 47 45 48 47 44 45 47 44 38 38 37 38 38 32 36 
51 52 54 50 47 48 49 46 47 47 48 45 44 44 43 55 58 58 59 59 59 57 59 56 58 57 57 56 59 58 57 57 56 58 56 56 56 53 49 36 27 23 19 14 15 16 16 17 27 27 21 10 5 2 4 5 1 0 7 21 41 48 49 47 49 46 43 42 41 41 40 40 42 39 35 37 33 36 31 38 
52 48 52 48 49 49 48 45 49 49 46 41 40 43 44 50 56 55 58 59 61 54 56 59 58 56 57 59 58 57 60 57 55 53 53 57 54 52 50 34 28 24 18 11 13 13 17 15 19 25 23 13 9 2 5 3 2 5 5 13 34 42 47 46 43 44 40 38 37 36 37 37 40 38 32 36 36 31 29 34 
52 50 53 51 51 47 47 48 46 46 46 46 43 42 43 54 55 59 56 59 57 53 57 57 58 55 54 61 57 53 57 54 57 55 54 53 51 51 45 33 29 21 17 10 14 15 17 18 18 17 17 14 8 5 6 1 1 3 6 7 22 37 45 40 42 39 37 35 36 34 37 37 36 38 30 34 33 32 25 33 
53 52 53 52 54 51 51 46 44 46 44 47 45 45 46 53 54 56 54 60 55 56 59 57 54 55 53 58 52 56 56 54 56 51 52 55 50 48 47 32 28 24 18 12 16 16 19 18 18 15 13 13 11 7 5 5 6 3 8 4 13 30 37 37 38 38 36 36 33 33 32 31 35 30 31 32 29 29 24 25 
58 49 57 53 54 51 47 47 47 46 44 44 45 41 48 55 53 55 56 57 56 58 58 57 55 56 53 54 52 53 54 52 55 54 52 52 51 45 42 33 28 18 20 17 21 23 23 19 17 17 17 12 10 6 10 8 6 5 6 8 16 24 33 33 38 36 37 40 35 34 34 34 33 32 28 29 26 31 22 24 
56 52 57 56 53 48 51 49 49 48 46 49 46 47 48 52 56 53 54 55 52 56 58 57 56 55 53 55 54 55 53 52 52 54 51 54 50 44 42 38 33 29 27 23 29 26 25 23 23 19 19 16 17 14 12 13 14 7 9 12 18 22 31 35 39 34 37 38 32 33 31 31 27 29 27 28 23 22 21 30 
58 53 59 55 53 56 54 47 47 51 48 47 50 48 49 54 49 54 52 56 55 54 55 55 54 52 52 52 55 52 51 54 53 51 50 50 45 46 44 37 35 34 32 31 34 30 32 31 29 24 22 19 17 18 20 14 17 14 14 17 20 23 29 36 39 41 38 38 34 35 31 28 29 24 27 24 20 20 19 25 
59 55 57 59 55 55 50 51 49 51 48 48 47 45 48 53 52 50 52 54 55 55 54 53 52 51 48 54 52 52 51 53 52 52 48 46 45 43 40 39 38 34 33 34 38 34 33 35 32 25 24 25 22 19 23 20 18 15 18 16 27 29 29 33 35 40 35 36 32 34 28 28 26 28 23 24 24 19 17 23 
62 57 64 59 54 54 54 51 48 50 49 48 47 46 48 52 51 50 53 51 57 52 55 52 49 52 52 52 51 50 52 53 52 48 49 50 46 45 40 41 36 34 36 35 37 36 37 35 32 27 24 23 23 23 24 21 17 18 20 23 28 28 30 31 32 34 32 33 31 32 29 25 25 27 23 24 19 17 15 20 
65 57 64 61 55 57 52 50 50 51 49 50 45 46 48 51 52 50 52 55 52 53 52 53 48 52 49 55 49 50 50 49 49 50 51 47 45 43 38 44 37 34 34 36 38 35 33 38 34 30 26 24 24 22 22 21 22 22 23 26 30 29 30 31 31 36 30 33 29 27 27 22 23 23 19 23 18 18 20 19 
65 62 64 61 55 60 56 50 53 52 48 50 47 44 47 50 52 51 50 54 54 49 50 50 51 51 50 53 49 50 47 49 46 51 48 48 43 44 40 41 40 38 37 38 39 37 36 40 36 30 25 24 25 22 25 22 20 20 24 26 35 30 32 30 30 33 33 31 30 29 24 21 24 22 19 18 17 18 13 16 
75 63 66 63 54 64 56 54 52 53 51 52 52 47 46 49 52 45 51 53 51 48 54 54 51 52 50 54 49 48 51 46 49 53 51 46 48 43 42 44 41 38 37 35 33 38 36 42 37 31 29 28 32 31 30 29 25 26 28 32 34 33 32 38 35 35 33 37 30 32 28 24 23 20 22 20 19 20 17 20 


