P2
80 60
165
146 143 145 149 148 145 144 150 154 154 156 155 158 156 155 151 154 158 158 157 154 147 143 146 142 142 139 139 137 134 132 131 139 137 133 135 136 138 136 138 139 135 136 129 130 128 127 120 123 127 128 128 126 123 127 129 127 126 122 120 121 119 118 121 115 121 120 118 116 113 105 103 107 104 102 99 100 108 104 103 
151 141 144 143 151 149 148 153 153 154 155 155 160 155 160 157 157 156 159 157 156 151 146 143 140 143 141 141 139 141 135 139 147 142 140 141 143 141 143 145 143 141 139 139 136 133 132 125 125 126 129 132 127 132 129 127 129 125 124 120 118 119 116 117 116 114 122 118 111 109 107 101 106 100 105 102 104 100 100 98 
144 141 144 145 153 148 153 154 156 153 161 158 156 160 158 155 160 162 158 158 154 149 147 144 140 145 145 145 146 141 142 142 147 148 147 143 146 146 148 151 144 150 146 140 143 146 139 136 132 128 133 132 136 132 134 133 129 127 125 125 122 120 118 120 121 120 120 116 117 113 110 108 107 105 102 106 106 102 98 103 
146 142 144 148 150 150 149 156 154 157 156 161 159 158 158 157 159 160 161 159 155 151 143 146 143 146 147 142 141 143 147 142 144 148 148 143 150 143 150 149 145 145 148 144 146 146 147 145 144 137 135 140 137 139 135 135 132 132 126 122 123 119 119 122 119 121 123 120 117 112 113 113 112 107 108 109 107 103 101 107 
151 142 146 148 149 149 152 153 158 156 159 157 163 159 154 157 158 159 161 155 156 152 146 141 144 143 145 143 143 142 145 145 145 146 148 145 151 146 152 149 150 148 147 147 147 147 147 146 145 144 139 140 140 138 137 135 135 137 131 128 124 120 120 126 124 124 123 123 117 119 114 115 113 109 111 110 108 103 97 110 
151 142 146 150 152 151 148 157 155 160 157 158 160 161 158 155 159 157 158 158 153 152 144 142 146 146 147 144 144 143 145 146 147 143 142 150 150 148 151 149 145 150 149 144 149 148 149 144 146 143 147 147 146 144 143 141 137 135 133 128 131 127 123 124 124 126 128 128 115 116 115 116 117 113 111 113 113 103 106 109 
150 142 140 147 154 154 150 155 162 160 157 159 159 157 157 160 160 155 160 155 158 153 148 146 144 144 150 146 146 140 145 145 145 146 148 146 150 148 152 147 150 151 149 148 143 147 148 147 146 147 148 151 146 151 145 142 140 138 133 133 133 128 128 126 125 126 128 126 122 118 117 119 121 121 117 115 112 108 106 105 
152 145 145 148 149 151 152 158 165 158 160 155 160 159 159 157 158 160 161 158 155 151 147 144 142 144 145 147 144 144 142 144 147 146 147 148 149 149 148 146 145 149 149 147 148 143 145 141 146 152 154 149 154 149 146 143 141 141 132 133 131 131 133 130 125 128 130 127 121 118 116 120 119 119 122 115 116 106 110 109 
149 139 144 146 153 152 150 158 162 160 158 155 158 160 161 157 161 160 160 158 160 154 147 146 147 149 149 145 143 143 145 144 148 145 148 146 145 144 151 146 144 146 148 147 147 147 146 146 143 150 151 155 154 151 147 144 144 142 140 139 137 129 135 134 131 135 134 129 128 124 122 118 120 121 115 113 117 109 110 110 
146 141 142 147 150 149 150 157 162 158 156 157 160 157 161 156 161 164 163 161 160 153 151 149 145 145 146 146 142 141 142 144 146 141 146 144 149 149 149 146 147 145 147 145 143 147 145 143 146 148 151 149 150 147 144 142 140 143 136 138 136 131 135 136 132 130 137 135 126 127 125 123 126 125 122 121 116 112 112 108 
148 139 143 149 149 153 153 158 159 161 155 155 161 159 160 156 160 163 161 161 160 152 147 147 146 145 148 145 143 142 143 143 143 144 143 145 149 145 150 150 148 146 145 144 141 145 145 143 146 146 149 152 146 148 143 141 140 139 139 135 133 131 134 136 137 134 136 134 133 124 124 127 124 127 126 121 121 114 114 110 
142 141 147 145 148 151 154 157 161 160 160 161 159 160 161 158 163 161 159 160 157 152 147 147 144 147 150 144 141 139 140 141 142 136 141 143 146 145 150 147 148 145 145 142 141 143 147 141 146 147 147 149 150 143 142 139 137 143 138 130 131 128 130 130 135 132 131 134 126 126 125 123 127 125 128 123 120 119 114 112 
143 140 147 144 149 152 155 158 159 160 159 157 161 158 158 159 156 162 160 159 160 154 147 147 141 146 144 142 143 139 140 141 141 141 138 143 146 144 144 144 145 144 145 141 140 142 142 142 146 150 152 152 146 148 144 139 137 135 132 130 130 129 130 129 130 127 127 130 126 123 126 122 123 129 129 121 121 117 116 112 
144 139 144 141 145 149 153 154 157 159 160 157 161 156 160 161 159 160 160 154 155 151 145 145 145 149 141 141 143 143 139 141 139 140 141 141 146 145 141 142 143 146 141 141 140 143 143 140 145 151 149 150 149 150 141 138 137 137 133 131 126 128 128 130 128 126 132 125 122 118 123 122 127 125 125 120 117 113 119 112 
146 140 142 148 146 149 152 160 159 163 159 156 159 158 158 158 162 161 160 157 156 152 144 142 141 143 145 142 140 138 140 144 141 142 138 140 139 140 142 141 140 145 143 138 142 142 138 138 143 146 146 146 148 149 142 136 134 135 134 123 125 124 123 122 123 126 124 124 120 119 119 123 126 122 121 123 117 113 112 116 
142 138 140 141 147 151 152 156 157 160 154 160 155 159 159 160 162 159 159 161 155 147 143 141 145 140 139 140 139 140 139 142 138 141 138 140 144 140 144 141 137 142 142 138 140 142 139 136 144 148 145 145 147 148 140 137 134 134 127 128 126 126 121 123 122 121 122 122 119 116 121 119 121 123 121 123 116 114 112 109 
142 135 140 145 144 151 155 156 156 155 155 153 158 156 159 159 160 158 155 157 155 147 144 140 138 144 144 142 138 139 136 141 138 138 138 140 143 143 141 142 137 141 142 140 137 140 138 138 144 145 148 145 146 144 140 136 135 131 129 128 128 125 120 123 120 121 121 123 118 117 117 116 118 119 122 121 118 115 112 110 
143 136 139 139 146 150 153 155 155 155 152 153 157 154 156 159 158 158 157 152 153 148 141 142 136 139 140 138 137 139 135 139 137 141 138 143 140 138 143 142 138 141 143 140 139 137 136 136 143 145 145 145 145 144 138 137 132 132 127 126 127 123 121 120 121 120 124 122 118 118 118 118 120 120 122 121 119 118 113 114 
140 129 132 137 142 146 152 153 152 156 154 150 154 156 153 153 156 157 157 152 152 149 140 136 135 138 134 133 133 132 130 132 131 130 136 136 135 136 139 136 138 139 145 137 135 136 137 137 146 145 143 146 142 143 137 133 129 129 125 124 125 124 122 122 118 121 122 121 121 117 120 121 122 123 120 118 120 113 111 114 
137 128 133 137 140 145 149 153 154 153 151 153 152 154 154 152 154 157 150 148 147 145 138 133 132 136 134 134 131 130 128 127 127 121 121 119 121 118 119 123 132 137 137 133 137 132 132 131 143 144 141 138 139 140 133 135 130 128 124 124 121 119 118 119 120 122 117 121 116 116 115 117 121 120 118 115 116 112 109 107 
135 127 132 135 141 143 146 148 151 156 152 150 152 150 151 147 148 151 147 148 142 141 137 132 129 127 130 129 123 117 112 111 105 105 105 108 102 101 103 97 107 118 129 129 128 138 131 130 138 141 141 135 136 139 132 131 127 127 123 125 120 120 117 117 115 117 118 117 117 112 113 118 120 119 118 118 111 112 107 106 
134 122 127 129 135 143 145 148 147 150 151 145 150 149 150 146 149 149 144 145 140 138 132 130 130 127 117 112 108 107 104 99 102 96 100 99 102 100 94 94 94 98 107 106 115 121 125 126 135 135 137 136 135 135 132 132 125 129 125 125 118 118 120 119 118 117 124 116 118 112 114 118 117 119 118 116 115 112 109 107 
128 124 127 130 134 144 143 147 148 149 146 147 147 146 145 145 143 146 143 141 137 134 130 131 131 127 105 103 100 98 101 96 98 96 95 97 101 100 90 91 84 91 93 94 104 102 105 105 123 129 131 135 131 134 131 130 125 127 123 124 118 118 115 119 118 118 118 119 116 111 114 117 115 116 116 112 110 111 111 106 
127 122 121 128 134 145 142 144 142 143 141 142 145 142 143 141 143 142 140 138 137 133 127 126 124 105 100 96 95 98 94 94 91 91 92 90 91 94 84 83 81 85 84 78 90 101 99 96 104 107 107 124 128 132 133 131 124 121 125 119 116 118 120 115 116 113 119 121 117 112 117 114 112 113 113 113 112 107 109 108 
123 117 119 123 129 135 138 143 140 140 137 137 140 140 140 139 140 138 140 137 135 128 123 120 113 100 94 93 93 95 93 90 90 81 84 81 88 90 80 79 81 82 81 76 85 90 89 93 93 91 91 106 124 129 125 123 123 119 113 113 116 115 116 115 115 117 116 118 116 115 112 116 112 113 110 110 111 105 103 106 
120 117 120 120 130 134 133 139 143 138 138 134 139 141 136 138 141 138 137 134 131 126 120 115 109 100 93 93 95 93 89 90 85 81 78 81 83 90 80 81 81 81 79 76 79 86 84 85 85 86 85 106 122 129 128 124 120 118 114 116 116 113 113 115 116 114 115 115 115 112 111 113 114 115 114 107 108 106 111 110 
118 112 117 117 127 125 126 129 134 136 133 131 139 138 136 137 137 138 138 135 131 125 115 112 101 93 94 89 93 90 86 84 81 79 76 79 85 86 79 83 75 79 80 76 75 78 79 82 82 85 84 104 118 123 121 120 119 118 117 114 113 109 113 111 113 111 112 113 112 114 112 110 112 112 115 109 108 106 103 95 
112 108 112 116 114 116 106 109 109 113 113 114 121 121 121 125 125 131 134 133 133 126 118 110 98 92 91 90 92 89 85 81 79 75 72 78 80 82 76 78 77 79 81 73 74 75 78 82 78 83 85 104 116 123 121 119 114 113 113 115 108 108 110 115 111 110 110 111 115 107 108 107 108 108 107 107 105 100 104 100 
109 106 105 108 112 102 100 98 99 97 97 101 104 103 101 100 105 107 114 119 126 124 115 107 94 87 86 86 89 89 82 78 72 74 73 79 84 82 73 75 74 75 78 70 74 76 79 77 77 76 93 104 112 118 116 112 107 108 108 107 105 106 106 109 109 109 110 110 109 106 105 103 107 106 106 106 104 100 101 102 
108 104 102 103 103 99 93 93 94 90 92 91 96 96 97 98 98 96 97 100 104 112 111 101 92 86 84 86 83 84 79 77 74 75 72 74 82 80 71 72 72 75 73 68 68 71 73 74 75 80 106 111 108 113 113 108 105 107 102 101 99 103 106 104 105 108 106 107 107 103 103 107 102 100 101 102 103 96 99 107 
105 103 102 98 97 92 91 84 86 82 86 88 91 89 90 91 90 90 88 86 90 101 103 93 86 81 82 81 80 80 76 75 76 75 75 75 86 76 73 71 70 67 70 64 64 71 70 72 77 83 113 113 112 111 110 108 102 104 100 99 100 101 101 104 102 105 104 104 103 103 101 105 103 98 100 101 103 101 96 90 
101 94 97 93 91 87 79 78 80 76 81 82 84 84 82 81 84 84 82 81 81 87 96 88 79 79 81 78 78 82 79 71 72 75 73 75 80 78 72 70 68 66 70 65 65 69 68 68 71 85 103 102 104 105 108 105 101 101 101 96 97 99 100 101 100 96 101 101 101 100 98 97 95 96 95 95 97 94 91 91 
97 92 96 89 87 78 76 72 75 75 72 76 77 78 79 75 77 78 76 76 78 82 91 86 80 77 81 76 78 85 86 71 72 71 72 71 78 72 70 72 65 68 69 63 64 65 64 66 69 73 88 82 82 92 95 98 103 104 97 99 98 96 97 101 98 97 98 98 97 97 93 94 93 91 92 92 92 90 89 91 
98 85 93 86 80 76 69 70 70 68 70 71 72 73 73 77 72 73 67 67 73 77 87 81 76 77 78 76 78 88 86 68 68 71 70 71 78 70 68 67 65 66 67 62 62 64 63 66 63 62 72 71 68 76 82 88 96 103 100 98 95 93 97 95 96 90 95 96 90 87 92 88 86 89 88 86 90 85 92 87 
89 84 91 84 77 69 66 66 67 65 63 66 70 69 70 70 67 64 66 68 68 72 82 75 73 75 74 74 77 83 81 66 66 68 66 67 75 64 67 65 63 65 64 58 58 60 61 60 63 61 60 57 58 78 82 90 94 97 93 92 87 87 92 88 86 87 91 90 87 86 85 86 85 87 82 81 83 84 85 85 
87 81 85 78 75 67 68 65 65 60 62 66 66 64 67 65 60 60 56 60 66 70 77 73 73 71 72 72 73 77 74 60 62 66 68 67 70 59 62 62 62 61 61 55 57 55 56 59 59 55 53 51 51 74 85 91 92 93 90 87 86 88 87 85 84 83 85 82 79 80 81 80 81 76 72 77 78 73 79 74 
85 80 80 77 73 65 61 61 64 61 62 61 63 64 61 59 58 60 56 61 61 65 75 69 67 72 72 70 71 69 67 67 65 64 63 64 69 57 60 58 57 60 60 52 53 57 58 57 54 55 49 41 46 65 84 90 89 90 85 86 83 83 83 83 82 78 78 76 78 75 78 73 74 74 67 70 72 69 72 74 
81 75 78 73 69 65 62 59 61 58 58 59 58 60 56 55 53 53 51 57 58 60 70 66 67 69 72 68 65 63 65 61 63 63 64 65 63 55 59 57 56 59 54 49 51 57 55 51 53 51 44 38 36 52 81 83 88 86 86 84 80 82 80 81 80 82 78 78 76 72 76 73 71 72 65 68 70 66 68 71 
79 74 75 72 65 65 62 58 57 52 56 57 57 58 57 53 51 49 50 54 57 60 65 62 67 70 70 70 66 66 65 68 67 65 63 64 64 54 57 56 54 58 53 48 50 51 54 49 52 49 38 26 26 39 63 77 81 83 82 83 78 80 81 80 76 74 74 73 71 72 72 70 68 68 63 66 69 65 66 66 
78 74 71 67 63 62 57 57 58 53 53 55 54 53 53 49 45 46 47 51 53 54 61 60 63 68 67 69 66 65 62 61 64 64 60 60 62 50 55 54 53 51 53 47 47 48 48 49 50 46 33 19 17 29 35 45 65 77 78 78 79 78 77 75 72 71 68 69 72 71 68 68 67 66 60 61 64 64 62 63 
77 69 70 65 62 57 57 55 53 52 50 52 53 51 53 48 44 43 47 49 49 57 60 58 61 63 64 64 63 60 59 63 61 58 56 58 58 50 52 54 51 52 51 47 46 49 48 44 44 43 30 16 13 19 28 28 43 71 77 74 74 79 74 71 71 67 65 69 69 68 70 66 65 62 60 60 60 58 58 61 
79 67 69 62 59 56 55 51 50 48 50 50 50 50 47 42 42 42 45 46 51 56 59 57 59 62 63 64 65 63 60 61 61 59 59 59 54 50 51 51 50 52 50 43 43 45 47 45 46 40 33 17 8 14 19 17 31 57 70 70 71 74 69 69 65 64 61 67 66 66 68 65 64 62 59 59 59 57 60 54 
72 66 69 60 60 57 52 51 50 49 49 46 46 48 46 41 39 42 45 48 51 56 55 57 58 61 65 62 61 62 60 60 61 58 57 60 53 50 50 51 49 50 48 44 48 48 46 50 46 43 28 16 7 9 12 18 22 42 62 65 68 70 67 67 61 60 58 63 64 61 65 61 61 58 54 54 58 57 55 57 
70 64 63 61 60 55 51 52 50 49 46 48 46 45 45 41 39 45 44 47 47 53 53 59 57 59 62 60 60 63 63 61 62 60 59 58 55 49 49 51 47 48 47 46 47 49 49 49 42 38 24 10 5 5 11 18 18 32 52 61 62 61 66 63 59 60 57 64 65 63 63 58 58 53 55 55 53 54 52 51 
70 59 62 57 59 54 54 50 50 44 46 45 48 46 43 41 41 41 42 45 43 46 49 54 53 57 57 56 55 55 59 61 59 59 55 57 50 52 48 51 48 51 46 50 48 52 44 44 41 34 21 7 7 3 5 8 10 17 38 56 59 61 61 59 58 57 56 58 63 60 56 57 52 53 52 53 52 50 47 54 
68 62 59 53 56 57 53 53 52 45 45 44 46 44 44 42 37 37 37 40 39 41 46 49 52 51 52 51 55 56 55 61 58 58 54 53 45 46 47 44 43 44 45 49 49 48 46 41 40 29 18 11 4 5 7 6 7 12 26 49 51 58 57 59 53 53 55 57 56 55 55 54 55 48 52 51 49 47 46 47 
64 60 59 58 54 53 51 48 48 45 45 43 45 43 41 42 37 39 36 35 37 40 44 50 48 53 52 52 53 55 54 56 57 55 54 51 45 46 49 47 46 47 48 46 45 46 42 41 36 29 17 8 3 2 3 3 4 8 17 38 49 55 55 53 52 51 52 53 54 48 52 52 51 44 47 48 50 44 39 41 
64 55 57 56 57 57 53 48 48 46 44 43 45 41 44 39 35 34 33 30 31 36 43 50 51 51 52 53 52 53 54 57 55 54 51 49 43 44 45 45 43 46 46 45 49 45 41 40 32 28 24 9 3 3 0 3 4 5 10 28 45 49 52 51 51 50 51 53 52 50 48 52 47 42 44 44 47 44 43 43 
59 52 57 57 55 56 51 48 47 46 46 44 47 43 39 39 36 34 32 31 38 36 43 49 49 55 54 52 51 53 52 57 57 57 52 46 43 44 48 48 44 45 43 42 43 43 38 36 31 27 22 11 4 2 3 2 3 7 9 20 39 49 51 50 48 49 47 45 48 43 48 45 46 43 41 45 43 41 39 41 
57 49 55 55 57 55 49 46 44 45 45 41 44 42 41 36 37 37 34 35 37 33 45 49 50 53 53 53 51 54 53 56 54 52 51 46 44 43 45 43 42 43 43 41 41 41 35 37 33 25 21 14 7 1 1 2 4 6 7 12 34 45 48 48 48 47 45 44 44 38 40 42 46 40 39 41 44 40 36 38 
58 52 56 56 59 51 48 49 48 45 45 45 45 43 44 40 37 42 38 37 39 40 42 47 50 51 53 55 54 51 53 53 57 52 47 46 41 44 43 44 41 42 43 40 38 39 36 36 33 23 18 14 8 4 5 3 3 6 7 8 23 41 43 43 43 47 43 40 42 38 40 40 39 38 41 38 42 40 35 38 
61 54 56 57 57 56 51 46 48 44 43 48 43 45 44 40 44 43 42 40 45 42 45 51 46 50 50 50 53 53 52 55 57 49 49 45 44 41 44 43 37 41 42 38 40 40 37 34 31 19 11 10 9 6 5 5 6 6 6 7 15 35 39 43 39 42 44 43 40 39 38 36 41 36 36 38 40 39 36 33 
67 56 55 57 61 56 52 48 47 49 44 47 46 44 48 46 45 50 46 48 46 47 47 49 50 52 51 50 50 50 52 53 57 52 49 44 41 41 44 44 37 40 42 39 39 37 37 35 30 22 16 13 10 9 9 6 4 9 9 12 17 27 33 40 40 42 45 43 41 38 38 37 34 34 37 34 36 33 33 34 
65 57 58 57 58 56 52 49 49 48 43 47 46 47 49 46 49 47 47 47 46 46 46 52 52 52 51 49 50 51 47 49 53 49 46 43 40 40 40 42 35 40 43 40 38 37 34 33 32 24 20 18 17 14 15 15 11 11 13 14 17 23 31 40 41 43 41 45 38 40 38 34 36 35 35 37 34 32 33 27 
68 57 62 58 58 58 56 50 50 49 46 47 50 48 48 49 48 50 48 48 47 46 48 48 47 50 49 49 50 50 45 51 51 44 44 42 39 37 42 40 38 39 39 39 37 37 36 33 27 20 19 20 17 17 20 18 17 16 15 17 21 27 32 35 38 41 44 42 41 37 37 34 34 31 29 31 33 27 28 29 
67 60 62 61 63 62 55 52 49 52 49 49 50 50 48 49 48 47 47 50 50 47 47 46 45 49 47 46 49 50 46 50 48 46 42 42 39 42 39 40 37 40 39 36 37 38 35 31 25 23 24 23 18 21 21 22 19 19 21 21 26 31 32 39 40 39 40 43 39 39 35 35 31 31 28 31 32 27 30 28 
63 58 66 63 61 60 54 52 46 52 47 49 48 48 49 48 47 52 51 49 46 47 46 45 45 47 51 48 48 47 48 49 49 45 41 43 40 43 38 42 36 38 39 38 37 35 33 28 23 25 25 22 22 23 22 22 19 20 22 24 28 31 36 34 37 38 40 41 40 35 36 32 29 30 30 32 29 27 24 25 
72 59 61 64 62 61 55 52 53 51 53 50 45 48 47 46 48 54 50 50 48 49 45 46 44 46 49 48 46 46 44 48 48 47 41 39 41 40 39 41 36 38 39 36 36 35 32 29 27 26 24 25 25 21 22 19 21 21 26 27 31 33 33 33 35 37 36 37 34 31 30 30 32 28 26 25 28 23 26 26 
72 65 66 64 60 59 57 54 53 51 50 48 50 48 46 46 55 55 53 51 52 45 46 47 46 46 49 48 44 46 45 48 45 44 42 44 39 42 42 40 34 42 40 38 38 38 32 30 26 27 25 24 25 24 26 21 21 23 29 32 35 33 34 34 36 37 37 37 33 29 31 29 30 30 27 24 29 27 29 28 
77 67 66 65 65 66 59 56 59 55 52 52 52 49 46 46 50 55 55 54 50 47 44 45 43 50 48 47 45 45 48 49 51 50 44 46 48 46 42 42 37 39 40 34 37 37 33 31 33 27 27 30 30 30 29 23 22 29 32 34 38 37 35 38 42 39 37 41 33 31 31 32 30 31 28 25 24 27 21 28 


