P2
80 60
189
144 138 136 148 146 147 148 149 151 151 153 154 153 152 155 152 144 143 143 144 145 145 142 146 141 143 139 136 136 134 130 127 126 123 125 121 123 129 127 129 124 123 123 123 124 126 125 126 124 122 123 126 127 129 129 134 128 129 121 124 119 113 112 108 107 107 102 105 102 103 98 93 91 93 89 91 88 91 86 82 
140 141 139 146 144 145 147 153 148 152 154 154 153 151 154 153 144 142 142 142 147 144 151 145 139 141 139 140 141 139 139 134 132 131 131 129 130 131 136 133 129 131 130 130 129 129 131 130 127 124 124 128 129 129 131 132 127 124 125 122 117 113 110 112 108 106 106 104 103 104 100 95 94 95 91 92 88 87 88 91 
147 142 139 151 149 150 148 148 155 152 154 158 155 155 157 155 146 144 138 140 147 144 146 142 143 143 141 140 141 142 145 142 137 133 134 132 135 137 139 136 132 139 137 138 137 138 138 138 133 129 129 133 134 129 129 130 130 129 127 121 120 116 110 111 109 110 106 109 108 107 103 97 96 95 96 96 93 91 85 85 
143 139 139 146 147 146 149 150 153 151 155 155 156 153 157 155 146 143 142 143 146 149 146 145 140 145 140 140 144 142 141 141 136 133 137 135 135 138 138 139 135 141 139 138 140 139 143 140 139 136 134 137 138 135 133 132 134 129 128 122 118 112 113 113 113 112 106 107 109 105 101 100 93 94 98 98 91 94 86 89 
145 141 141 146 147 146 149 153 155 153 157 159 154 155 156 151 149 147 141 144 142 147 149 144 142 139 141 142 145 142 140 143 135 138 136 136 140 138 140 142 133 142 137 139 140 142 143 144 141 141 143 141 141 138 136 137 135 132 131 123 123 118 117 116 116 114 114 112 109 109 104 101 98 102 98 101 93 91 87 90 
146 144 142 147 147 149 147 155 155 154 158 157 158 154 155 154 146 144 142 145 144 147 147 146 145 145 145 141 145 142 143 144 140 140 137 137 137 137 141 140 136 137 141 142 146 142 147 145 146 143 146 144 141 141 139 139 136 137 131 125 125 121 120 122 116 116 115 113 112 111 110 105 101 104 101 99 94 95 90 91 
144 138 145 143 147 147 151 153 159 154 156 160 158 157 159 151 145 145 141 145 147 148 147 147 142 143 144 142 144 145 146 142 143 135 137 134 138 137 138 141 134 137 140 139 144 141 143 144 145 149 152 150 147 144 141 142 140 136 136 129 128 125 119 122 122 116 119 116 119 113 106 106 105 105 106 103 100 100 91 92 
142 137 144 143 147 146 152 153 154 153 153 157 158 157 157 158 150 147 142 143 146 145 146 148 144 144 145 144 143 143 148 143 138 137 136 137 136 136 139 143 136 138 140 139 143 143 145 145 143 150 155 152 151 149 145 146 142 143 135 131 131 127 124 122 126 120 119 117 115 115 109 110 105 108 105 105 102 96 93 92 
142 135 145 143 143 148 148 154 157 155 157 161 159 157 160 157 153 146 147 143 145 145 146 145 144 142 142 140 141 142 142 144 138 137 132 134 138 134 139 136 136 139 137 140 144 142 142 142 145 149 153 154 151 149 146 143 143 140 137 133 131 128 128 126 127 120 118 121 119 117 110 110 111 108 107 107 103 102 95 96 
140 140 138 146 148 149 149 157 155 155 160 158 159 159 156 158 148 146 143 146 148 143 146 145 145 142 143 141 141 142 144 142 138 132 135 137 139 134 134 138 134 136 138 142 141 139 142 145 147 150 152 152 151 148 144 147 142 139 137 131 131 129 124 122 126 124 122 120 123 122 115 116 113 113 109 110 103 100 98 100 
144 138 143 145 148 148 154 157 155 156 159 158 157 156 157 154 148 144 142 146 144 146 145 145 144 144 142 140 141 143 141 141 141 135 134 136 137 136 135 139 132 138 137 138 140 141 142 143 142 148 151 154 148 145 147 143 144 135 133 134 127 126 124 124 125 124 122 121 124 121 117 117 113 113 114 111 112 106 97 98 
143 141 144 143 145 147 155 157 158 154 159 159 159 155 155 156 146 141 144 141 143 146 143 141 141 140 140 139 141 142 139 138 134 132 134 134 135 136 137 137 134 134 134 136 140 139 143 141 146 147 151 152 150 148 142 140 141 141 132 130 126 125 119 120 121 122 119 115 119 121 116 117 114 112 116 111 109 108 97 100 
145 136 137 143 146 147 152 158 158 154 156 155 155 157 159 155 150 146 146 145 145 144 145 143 139 141 136 138 138 140 139 138 134 133 136 133 133 133 135 137 131 134 139 139 138 139 143 142 147 150 152 150 150 145 144 139 139 134 134 128 125 120 121 123 121 122 119 116 119 119 115 115 110 112 114 113 110 103 97 101 
143 141 144 144 143 147 153 155 158 156 157 157 158 155 154 151 149 145 143 145 142 147 137 137 136 132 126 133 137 137 139 135 134 133 130 134 134 133 138 136 132 137 137 139 137 141 141 142 147 148 149 150 148 144 145 139 142 136 132 126 122 120 118 120 121 119 115 117 116 115 115 114 115 111 111 109 110 103 102 99 
145 137 142 144 147 149 153 157 160 154 161 159 156 156 159 154 149 147 142 145 147 147 143 139 136 122 113 110 120 127 138 132 132 134 128 129 133 133 137 135 135 136 136 140 139 139 142 139 147 151 150 150 149 148 145 143 138 139 131 125 126 123 118 121 118 118 115 115 117 115 113 112 112 110 112 110 109 106 99 103 
136 132 138 143 147 148 153 157 157 158 157 155 157 157 153 150 147 142 142 143 146 144 141 139 130 112 107 104 106 111 119 125 128 129 128 127 130 132 132 134 130 130 134 136 134 137 140 141 143 147 152 148 146 143 141 137 138 138 132 126 125 124 115 122 117 115 113 112 115 114 112 110 110 109 113 107 107 105 100 101 
135 133 134 140 141 150 152 158 156 154 154 156 155 153 153 152 145 141 140 138 142 141 138 138 125 110 105 105 105 105 104 104 110 118 121 124 127 128 133 135 128 132 133 137 132 138 137 140 144 145 149 146 143 145 141 137 137 132 133 125 122 121 116 118 119 117 110 111 112 114 110 112 110 112 113 113 109 107 101 105 
135 131 133 135 143 149 152 157 155 152 150 151 155 155 152 151 145 142 145 142 146 143 137 137 116 106 104 101 105 105 97 101 99 102 101 114 126 125 131 132 131 131 134 130 134 134 134 137 143 140 144 146 141 143 139 137 134 133 130 127 124 124 117 118 116 116 112 112 109 110 108 111 109 109 107 106 105 105 98 103 
131 129 132 137 140 146 149 155 155 151 150 152 150 151 148 146 146 159 159 147 140 138 135 137 114 108 104 104 103 103 102 100 99 97 97 99 105 118 129 132 126 131 135 134 131 133 137 140 141 143 148 140 142 141 137 136 133 130 128 121 123 119 114 115 118 114 110 111 109 112 111 109 110 111 108 110 109 107 98 101 
129 126 127 136 139 144 149 150 155 148 148 148 148 147 143 140 144 188 185 168 142 129 127 123 112 108 104 104 108 104 101 101 97 100 93 94 97 109 127 131 127 130 131 129 131 132 133 137 139 140 141 144 140 139 133 134 131 130 125 122 119 116 112 113 113 113 110 108 108 109 110 109 108 107 109 107 108 100 95 98 
128 125 127 132 137 143 145 147 150 148 149 149 147 144 137 130 138 189 176 166 140 121 114 116 110 110 111 110 111 111 111 103 102 99 104 99 101 113 123 129 123 126 127 127 128 129 134 133 141 140 142 136 140 140 134 132 131 128 122 122 116 117 111 113 113 109 106 106 108 108 106 106 103 105 107 105 102 101 97 98 
130 125 124 129 137 140 147 144 147 146 145 147 150 140 136 126 134 173 154 146 126 112 110 107 104 102 105 108 107 105 108 107 107 108 108 105 102 113 119 122 118 124 132 128 127 128 128 131 139 143 138 138 138 136 134 133 129 126 124 120 115 114 110 111 113 111 108 104 107 107 106 106 101 103 102 102 103 99 101 102 
129 124 122 128 133 143 143 144 145 143 143 149 141 137 128 121 123 140 131 122 110 107 104 104 95 99 96 100 100 103 100 98 101 98 105 103 101 100 106 107 112 122 122 122 128 124 130 127 137 139 137 138 135 132 134 133 130 124 123 120 114 112 112 113 111 109 109 105 106 109 106 105 104 107 103 102 103 100 98 98 
127 117 121 125 130 138 141 140 146 137 141 139 137 131 119 108 105 112 108 103 98 101 99 99 94 95 95 95 97 98 98 93 87 89 91 93 92 90 94 99 98 115 119 115 120 123 123 126 133 137 133 135 134 130 129 129 123 122 121 116 114 114 110 111 109 108 106 107 107 107 105 106 102 104 101 102 100 101 95 99 
123 119 119 121 131 134 138 138 138 137 139 134 134 124 110 105 100 97 95 94 95 97 95 94 93 93 88 92 95 92 92 86 85 87 82 83 81 84 85 91 97 110 114 112 111 118 120 124 131 136 134 134 128 130 126 123 124 121 118 114 112 112 106 107 109 108 106 107 105 107 106 106 105 103 100 103 100 98 93 92 
117 111 115 121 126 129 135 135 134 132 133 137 130 122 104 100 91 88 91 90 93 92 92 93 90 91 85 85 93 90 93 88 86 83 80 82 83 84 86 89 95 109 116 111 113 115 113 118 127 130 129 130 127 126 128 122 120 116 114 114 108 109 106 108 110 109 105 106 109 109 103 102 102 97 97 97 97 98 90 93 
112 111 111 116 120 124 128 126 127 127 127 129 131 114 98 91 86 86 85 89 92 94 89 91 92 89 89 90 89 89 89 87 82 79 79 81 80 83 84 88 95 113 112 110 111 114 114 117 126 128 127 125 124 125 123 122 122 117 114 112 112 107 103 105 102 105 102 102 102 108 105 103 96 96 97 99 95 94 88 90 
115 109 113 111 113 110 108 107 109 106 108 112 108 97 93 90 84 85 85 86 90 90 84 92 87 87 88 86 86 87 84 83 80 78 78 77 78 79 82 82 96 107 110 107 106 113 113 113 125 124 124 122 125 123 122 120 118 114 114 110 109 105 102 106 104 104 98 101 101 106 100 99 97 96 96 97 92 92 89 88 
110 105 104 105 106 101 102 101 99 95 97 98 93 93 87 86 78 79 81 87 87 87 85 83 84 83 85 86 85 83 86 82 78 76 77 73 76 74 80 81 95 108 106 108 108 111 111 116 120 121 121 121 117 122 119 115 115 112 110 105 107 104 100 102 100 102 95 97 101 97 96 96 95 94 96 96 95 93 86 90 
105 98 100 100 98 93 90 92 92 87 92 92 90 87 85 83 80 77 83 84 83 84 84 82 81 79 80 81 80 81 82 81 77 73 71 75 76 77 78 80 97 106 107 105 110 107 109 113 119 120 117 117 118 116 118 116 113 108 109 102 104 98 100 100 99 98 94 97 95 95 93 93 91 92 95 92 90 93 86 84 
100 95 96 96 94 90 86 84 81 87 85 89 88 83 84 81 75 77 80 80 83 84 82 83 81 81 81 77 81 77 75 73 73 74 72 67 72 72 77 78 90 101 103 103 103 105 104 112 113 116 113 114 114 116 115 112 110 106 105 98 101 100 96 99 101 91 95 95 96 92 92 94 89 85 93 90 92 87 82 81 
96 91 93 92 89 84 82 81 80 80 78 84 84 80 82 81 77 76 76 77 85 82 83 79 78 82 79 77 72 67 63 65 69 70 71 71 73 72 75 74 90 96 98 98 96 94 95 92 89 99 96 103 108 108 110 110 108 105 100 98 96 97 94 96 97 92 93 89 90 93 90 89 84 84 86 85 84 84 75 76 
95 88 90 89 85 78 80 75 76 75 76 75 75 79 79 77 74 75 78 77 82 83 81 80 75 79 77 70 63 58 57 53 62 66 67 70 68 72 73 73 84 90 92 91 89 87 90 84 71 74 77 82 84 97 93 100 105 106 101 96 92 92 92 91 90 87 86 86 87 89 85 85 84 82 80 81 80 80 73 74 
91 83 82 84 83 76 69 68 67 68 72 73 75 74 75 75 72 73 74 76 80 82 78 75 76 75 73 68 59 53 52 50 53 64 62 68 70 69 69 71 83 86 85 85 85 83 81 78 69 64 66 69 69 77 83 91 101 98 96 94 89 88 87 90 85 83 78 83 88 83 80 80 77 74 76 77 76 75 69 75 
84 82 81 81 74 73 65 66 60 62 64 70 66 68 72 72 72 70 73 76 77 76 76 74 71 74 69 63 57 51 48 48 49 60 60 62 64 67 70 72 78 82 74 81 79 77 76 74 60 58 58 61 63 76 89 96 98 98 94 89 86 83 81 82 80 77 77 76 74 77 75 75 70 72 71 68 71 69 66 70 
82 76 77 79 72 71 63 62 60 56 62 65 63 64 64 68 71 64 70 71 73 72 73 70 71 73 72 62 52 48 44 44 54 60 60 63 64 64 64 69 74 78 77 77 78 70 69 66 53 51 49 51 55 75 87 93 94 91 88 85 77 81 80 79 76 75 70 72 70 68 68 67 68 67 64 69 67 67 61 64 
81 74 75 74 70 67 61 60 56 56 60 60 61 62 56 61 64 67 68 70 72 72 72 69 70 71 70 64 56 52 52 56 58 56 60 59 60 62 61 65 71 75 74 78 74 71 60 57 46 40 38 45 49 63 84 89 94 90 86 82 77 76 76 75 71 71 70 69 70 68 67 67 63 63 60 60 58 59 57 59 
75 74 74 72 66 64 58 57 54 54 57 59 54 56 57 62 67 62 66 71 68 69 69 71 68 70 71 68 64 62 62 59 62 59 56 59 59 61 58 63 67 72 72 70 67 61 57 51 45 34 34 36 37 52 81 84 86 83 83 78 78 74 74 70 72 71 71 64 67 65 65 66 63 61 57 59 57 52 51 57 
76 69 70 66 63 61 57 56 53 53 57 54 57 56 55 61 63 64 65 70 70 70 70 68 64 67 68 68 65 63 64 63 60 56 57 59 56 57 57 59 67 69 68 68 61 58 51 50 35 27 29 25 29 40 63 75 80 80 78 76 75 72 70 68 66 64 64 62 61 64 63 61 62 58 54 53 52 51 46 46 
73 69 71 63 64 59 57 54 53 50 51 54 51 51 52 55 65 61 65 66 70 67 67 67 68 68 68 65 66 63 63 61 59 56 55 56 57 54 55 59 62 65 64 65 58 53 51 42 30 26 20 19 22 29 35 47 65 77 75 76 71 71 65 64 65 61 60 57 61 61 57 56 62 56 49 50 48 48 44 46 
73 65 68 59 58 56 54 51 54 48 50 53 51 49 49 59 60 59 60 63 64 68 63 63 64 63 64 61 64 63 60 59 58 55 54 55 55 51 53 55 56 59 58 60 57 48 46 37 30 21 22 17 13 17 27 31 46 68 72 71 72 67 64 64 61 55 54 53 54 59 58 61 54 52 51 48 46 50 40 43 
71 65 66 60 57 55 52 51 49 45 51 50 48 47 48 54 59 60 63 61 63 64 61 61 62 62 64 63 62 63 61 57 57 55 55 53 52 50 49 40 41 43 41 43 37 34 32 30 31 28 27 20 13 12 18 19 28 54 63 62 66 61 61 62 58 52 50 51 52 56 54 56 54 47 50 45 48 47 36 41 
68 65 61 57 57 54 50 52 49 47 46 49 47 43 47 53 58 56 58 61 60 62 59 57 59 59 58 62 63 63 56 57 55 55 54 50 51 49 45 37 29 31 29 24 13 14 21 24 27 28 23 16 8 11 14 22 23 39 58 62 62 63 59 58 55 51 49 55 53 55 54 57 49 48 42 45 44 42 40 36 
66 61 54 54 56 55 51 49 47 47 48 47 44 45 47 55 55 55 57 59 56 58 55 57 52 54 55 57 53 56 54 54 53 51 50 50 49 46 40 35 27 26 26 20 11 13 20 23 32 30 18 11 4 8 11 12 15 27 51 57 58 58 55 57 52 47 47 47 51 53 52 48 46 42 43 45 41 43 34 37 
66 57 53 57 53 52 51 48 47 46 45 43 46 43 49 59 54 53 56 55 59 58 58 56 45 44 43 49 49 50 46 52 48 45 48 48 45 43 40 34 25 25 22 17 10 12 21 20 34 31 17 13 7 7 6 10 6 16 37 53 51 55 51 57 47 47 45 48 47 49 49 50 48 40 38 41 40 37 28 30 
65 57 53 52 53 49 48 44 45 41 44 44 42 41 47 51 55 54 57 58 56 57 55 51 44 43 42 39 42 38 46 50 40 41 44 46 42 43 41 31 22 22 23 14 11 14 19 17 32 34 19 12 4 7 4 6 6 8 27 43 46 54 51 51 46 43 43 46 46 45 46 45 42 38 39 38 37 34 23 26 
61 54 52 55 52 50 47 48 42 46 43 44 41 40 44 50 52 55 56 58 55 55 49 48 46 45 49 45 37 38 36 40 37 36 40 40 42 43 39 29 18 21 21 12 12 13 17 17 32 30 22 11 6 3 4 5 5 7 15 40 45 49 48 45 43 41 40 41 42 41 44 42 39 36 36 33 34 33 23 28 
58 55 52 52 52 50 52 47 44 45 46 45 42 40 44 52 55 54 55 54 58 54 48 49 47 48 50 45 36 35 34 31 30 37 40 39 40 40 36 27 19 21 18 14 15 16 22 16 26 29 20 15 7 4 4 2 5 5 9 28 42 46 47 43 42 42 38 41 36 40 35 35 35 33 37 34 36 31 23 23 
58 53 51 52 50 52 46 46 45 43 43 44 42 41 42 52 53 53 56 53 54 53 48 46 45 49 47 46 34 28 30 30 34 41 40 40 40 39 33 24 17 17 15 7 11 15 18 17 26 26 25 14 6 6 1 1 5 4 3 16 32 40 43 41 36 36 35 36 33 36 33 33 33 28 34 31 30 28 21 24 
57 50 49 54 50 51 47 48 46 42 43 43 40 38 44 50 51 51 56 54 53 52 50 49 48 48 48 44 36 31 32 32 34 39 41 41 43 39 30 24 18 17 12 8 8 17 18 16 14 24 24 16 9 4 2 2 4 0 6 6 27 40 36 35 35 33 32 28 31 33 31 31 30 27 28 26 27 24 17 20 
59 50 51 53 49 48 49 44 45 42 43 41 43 40 45 49 51 52 57 53 54 52 50 52 49 51 47 44 36 37 37 40 40 43 39 39 40 37 28 24 15 14 12 8 9 14 17 16 14 16 19 18 10 8 5 5 5 6 6 7 15 34 36 33 37 35 29 29 29 31 29 31 27 25 27 25 26 23 18 20 
60 50 54 54 50 53 51 50 46 46 43 44 41 43 47 50 49 49 54 54 54 54 49 50 50 47 49 48 46 47 43 46 41 42 39 39 38 34 29 23 17 13 11 8 11 15 20 14 16 11 14 14 12 13 9 11 5 8 9 10 12 28 31 32 32 33 31 30 27 31 29 27 25 22 24 28 27 21 17 17 
61 55 54 52 55 51 53 51 46 44 46 45 47 44 48 51 51 49 48 52 53 53 52 49 49 46 50 47 48 50 48 48 43 42 39 39 35 34 30 24 17 15 13 12 15 19 21 20 15 15 14 17 13 10 9 9 10 10 11 11 12 21 29 29 32 29 32 26 31 32 27 27 24 25 23 24 25 19 13 14 
61 55 55 56 58 54 51 53 47 46 49 46 48 45 51 51 50 49 50 51 51 50 52 50 49 51 47 46 45 50 49 45 40 41 39 39 35 33 30 30 21 24 23 20 19 24 29 25 21 22 23 21 18 14 16 13 15 12 13 13 16 19 28 34 34 33 31 31 26 31 27 26 27 20 23 23 18 15 11 14 
66 54 58 61 57 54 54 53 50 47 44 49 50 45 53 57 49 47 51 48 50 52 50 49 47 45 49 45 49 47 45 46 43 41 42 37 39 36 32 32 26 28 24 22 23 25 32 29 30 25 24 25 23 21 20 19 19 14 16 16 22 28 28 29 32 35 34 27 22 31 26 27 22 22 21 24 21 13 11 16 
68 59 61 61 58 58 55 55 50 47 51 48 51 47 52 55 49 49 47 50 50 54 50 49 48 50 47 45 46 46 46 42 38 40 38 35 38 35 32 30 27 28 27 26 30 29 32 33 29 28 29 28 27 23 22 21 21 21 19 20 27 32 33 32 32 32 29 24 26 29 25 26 19 18 23 19 17 11 9 14 
66 59 60 58 58 57 53 54 52 48 47 47 45 45 50 54 48 43 47 49 49 52 50 48 49 47 46 43 44 44 41 39 42 40 38 35 38 30 31 34 26 28 29 26 29 32 33 35 31 29 26 26 27 23 23 25 21 20 19 22 31 31 27 31 29 27 26 28 23 27 23 25 22 17 19 23 16 15 8 11 
67 58 63 62 62 62 53 56 51 46 50 46 46 47 52 52 47 47 47 50 51 49 47 49 50 47 46 45 44 43 42 40 37 37 36 39 36 32 33 33 30 29 27 30 31 32 33 36 34 32 32 29 27 25 24 26 22 27 26 25 29 29 30 28 31 30 24 24 21 24 23 21 18 14 18 18 14 13 7 10 
69 62 65 63 66 61 60 60 56 50 51 49 52 50 53 52 52 46 50 49 53 52 49 52 49 48 45 48 47 46 43 42 40 40 39 38 35 31 34 35 29 31 30 33 33 33 33 34 33 29 30 28 30 30 29 24 27 28 29 29 38 30 29 28 30 29 26 26 23 24 24 22 15 16 18 18 15 16 18 15 
79 62 63 63 61 66 58 60 59 53 56 48 52 52 53 53 48 45 46 47 47 48 47 46 44 44 45 47 51 50 47 42 45 41 45 41 33 31 34 37 25 27 32 36 35 31 33 31 31 26 31 28 32 30 29 31 30 31 34 35 37 40 34 31 28 28 29 27 26 30 30 27 25 21 23 19 23 20 13 16 


