P2
80 60
235
136 135 137 138 140 139 136 145 145 139 139 143 139 139 141 140 137 135 136 136 131 135 136 129 129 131 129 120 122 123 122 122 122 120 118 114 111 109 107 108 109 107 108 112 112 115 121 117 121 124 120 121 125 123 123 121 115 118 113 106 105 106 101 105 105 104 97 96 92 91 92 89 84 87 84 75 78 78 78 82 
139 136 137 140 140 137 142 144 143 141 143 141 139 141 144 140 143 138 138 141 134 133 137 136 131 133 129 128 126 125 123 122 125 125 122 115 115 115 115 114 114 114 111 113 116 115 116 118 119 121 122 121 126 124 122 123 118 119 114 109 107 105 104 103 105 103 100 97 97 93 93 88 89 85 83 77 78 79 78 79 
138 134 136 139 139 137 140 147 144 143 142 140 141 142 142 145 144 139 137 137 136 135 139 133 134 132 132 131 128 128 127 130 131 126 130 119 121 117 124 121 123 121 122 123 122 124 124 124 126 123 122 128 130 124 123 125 121 121 117 109 107 110 110 106 106 106 103 101 101 95 95 92 92 93 89 83 80 79 75 75 
143 139 137 137 140 139 139 150 143 143 141 141 143 145 144 141 145 143 140 138 136 135 137 141 137 135 134 135 127 129 129 131 130 129 130 126 123 123 124 126 125 125 126 127 131 132 134 134 130 131 127 129 129 127 126 128 126 120 118 115 113 108 112 112 111 106 102 104 102 101 100 97 91 98 90 86 85 82 77 79 
138 137 134 134 137 139 141 146 145 145 144 145 148 146 141 145 142 142 140 138 137 133 142 137 136 139 134 133 132 136 130 130 132 135 134 129 125 125 127 123 127 126 128 131 133 133 136 134 131 134 136 133 131 134 128 130 128 129 119 117 112 111 109 118 116 112 106 108 101 104 102 99 99 99 93 87 87 87 78 80 
144 138 136 139 141 140 145 147 146 145 145 145 144 145 147 143 145 146 143 140 141 139 140 138 143 138 137 131 134 134 134 134 136 133 133 128 123 123 124 122 127 127 130 132 133 137 132 137 138 139 137 139 141 134 137 131 133 130 121 121 118 117 116 122 116 113 111 109 108 106 104 101 103 98 93 90 87 92 81 83 
143 138 135 141 141 141 147 146 149 148 144 146 144 142 143 148 144 145 141 141 137 137 141 139 141 140 136 135 133 133 134 131 130 135 134 128 123 122 119 126 128 126 130 133 133 135 134 141 144 143 142 143 141 141 139 131 133 129 126 120 120 116 114 122 117 115 110 112 107 105 104 101 101 102 100 94 90 89 86 89 
139 138 137 143 144 144 143 152 148 145 145 146 144 145 145 144 145 145 141 144 140 139 139 136 139 138 137 136 135 134 134 130 133 133 131 128 123 121 121 125 126 125 130 130 132 129 138 142 146 146 148 144 145 143 142 139 134 131 128 126 124 123 122 126 117 116 115 114 111 109 108 105 100 104 97 95 93 95 87 89 
140 138 138 143 143 146 147 150 149 146 146 148 144 144 148 148 146 146 147 142 141 139 140 136 137 141 136 136 136 135 134 134 133 134 132 129 124 122 123 128 124 124 129 134 130 136 140 141 149 148 150 148 149 147 144 140 140 136 134 128 129 125 120 125 122 121 121 116 112 111 109 110 107 106 104 97 101 97 93 90 
140 139 137 142 144 148 144 151 148 146 144 147 143 146 149 149 147 148 144 143 140 142 141 141 141 145 140 138 137 133 133 134 136 135 134 131 126 125 124 126 128 127 129 131 130 134 139 145 149 147 147 146 149 146 143 143 138 137 131 130 130 123 123 125 121 125 123 126 117 114 115 115 112 107 106 102 104 99 95 94 
141 137 136 141 142 146 147 149 147 144 142 148 146 146 146 147 148 147 146 147 142 140 142 140 138 142 137 138 137 137 133 132 134 134 134 127 129 124 126 127 126 127 130 129 132 136 140 145 153 154 146 146 145 143 142 139 139 135 131 128 131 119 125 127 125 128 123 121 115 114 118 115 113 114 111 107 103 101 98 94 
140 137 140 143 143 149 150 149 148 151 145 147 145 147 146 146 152 147 144 146 140 138 141 136 142 141 140 136 135 131 131 130 132 134 134 128 128 122 124 125 127 128 131 130 131 135 137 142 153 150 147 145 149 140 140 140 135 137 134 126 123 121 121 129 125 125 122 120 120 116 122 118 114 116 111 109 108 103 100 94 
141 138 138 145 142 149 150 150 146 146 148 146 147 145 148 147 145 146 142 144 137 136 142 137 139 138 134 136 131 130 131 134 134 134 134 128 125 122 123 124 123 129 129 130 129 135 136 145 149 153 149 147 146 144 141 138 138 136 131 128 124 123 119 125 121 120 118 120 117 118 120 115 112 114 112 107 107 106 99 103 
141 139 137 142 142 148 152 152 152 146 144 146 145 146 147 148 150 144 142 142 139 136 138 137 136 137 135 136 134 133 130 131 131 133 135 131 126 124 126 129 126 126 127 133 129 134 135 143 149 149 146 149 145 142 142 139 135 138 132 123 124 119 119 123 121 119 117 116 118 114 115 114 113 111 113 109 110 111 104 100 
141 137 138 139 146 149 152 152 152 145 144 148 145 145 146 148 145 148 146 144 138 138 139 135 135 138 138 137 134 131 130 125 134 132 131 126 124 125 121 126 125 126 129 130 133 133 135 145 149 148 149 145 146 144 139 135 134 133 130 125 120 122 119 126 121 119 121 118 117 115 116 113 114 115 112 111 110 110 104 106 
140 137 136 143 145 151 150 156 148 148 148 150 143 146 146 149 146 144 146 144 140 140 138 135 135 135 135 135 135 133 131 128 133 132 129 124 119 119 122 125 127 125 128 131 135 135 138 146 146 150 145 146 148 141 140 136 134 132 129 122 122 119 120 125 124 117 117 118 116 115 115 113 117 117 114 113 107 112 104 103 
140 140 134 138 147 148 152 152 146 149 148 149 142 145 145 147 145 141 143 141 138 138 138 136 134 134 137 134 135 132 131 127 131 130 129 121 124 120 121 123 123 127 129 129 131 135 136 145 146 146 143 144 144 138 134 136 139 130 128 122 121 123 120 123 119 113 116 115 116 112 115 114 116 113 110 109 108 111 103 106 
137 138 138 141 145 148 151 150 151 149 147 147 140 143 149 142 145 146 143 143 139 139 138 134 135 136 129 133 130 130 128 129 130 130 127 124 122 119 120 122 122 125 128 124 130 132 135 142 148 143 143 147 145 140 139 133 136 133 128 123 122 119 117 122 118 118 114 116 110 112 111 112 111 111 109 109 113 110 105 106 
139 135 133 140 146 144 148 150 148 144 146 144 141 142 145 143 142 142 140 143 161 180 153 132 130 135 132 130 128 131 128 128 128 130 127 122 122 118 117 120 123 123 126 127 124 128 133 141 146 145 141 144 145 136 134 132 135 132 129 123 120 116 115 117 119 115 115 114 112 113 115 112 111 110 109 108 108 107 102 106 
136 134 133 137 147 146 147 147 149 147 142 139 137 139 139 141 138 140 135 140 190 235 204 141 121 124 125 127 126 127 124 129 127 128 126 121 117 117 118 123 125 122 122 124 123 127 133 142 146 142 141 142 140 135 132 133 128 133 127 122 117 116 114 121 119 116 114 115 110 108 114 117 112 108 109 108 109 104 104 102 
137 131 132 136 143 142 146 145 149 141 138 139 136 141 139 133 135 132 131 138 188 226 201 137 112 111 108 117 120 118 122 122 126 124 124 120 115 115 114 118 120 121 123 123 123 121 129 141 142 140 141 137 140 133 133 130 130 129 124 120 118 117 114 122 117 114 111 110 110 111 112 115 111 110 107 111 108 104 99 98 
132 128 129 134 141 144 144 144 143 138 138 137 135 138 137 136 135 128 128 133 184 204 174 124 105 105 104 105 109 108 109 110 116 117 119 113 111 109 111 114 115 116 120 117 120 121 125 134 137 137 137 138 138 132 136 132 130 127 127 118 117 114 115 119 116 114 109 108 106 105 108 110 108 109 107 108 109 107 96 99 
128 126 126 134 141 146 143 139 139 135 135 136 134 138 136 131 130 130 128 125 152 168 143 109 98 98 95 96 97 99 97 98 96 100 106 106 108 106 107 108 108 106 113 117 114 117 120 133 135 135 137 133 137 130 132 132 128 125 123 118 113 113 115 116 120 114 109 110 108 106 112 106 108 109 107 103 106 103 98 99 
126 127 127 136 141 144 142 142 137 136 133 134 131 137 134 133 131 129 124 111 124 132 120 100 95 93 92 93 91 91 90 89 91 94 98 92 101 100 106 104 109 107 109 109 109 116 117 128 134 134 133 132 135 127 128 128 126 122 118 113 115 111 112 117 114 115 110 107 107 109 108 108 106 106 108 104 107 105 98 99 
123 128 126 134 136 140 140 142 134 135 134 137 132 133 135 132 130 129 121 107 94 97 100 92 91 85 91 94 94 88 86 87 86 92 90 84 88 97 102 102 104 101 107 106 109 114 116 124 135 131 129 131 132 126 130 122 120 124 116 112 110 107 110 112 112 114 111 110 108 110 110 108 110 107 106 102 103 108 100 94 
126 118 120 129 135 135 134 135 131 130 127 131 127 130 130 130 130 125 119 109 91 86 88 85 89 92 89 90 87 84 83 81 83 85 89 88 98 99 98 104 104 101 105 105 106 108 115 128 132 129 128 130 134 123 128 122 120 117 115 110 106 107 109 111 108 108 108 108 104 108 108 105 106 105 104 100 100 100 93 92 
123 117 121 126 131 132 130 131 128 126 126 127 127 127 129 126 126 122 119 111 90 83 86 84 86 90 90 90 86 84 83 80 81 83 82 87 98 100 104 105 103 102 102 105 104 111 112 126 125 124 125 127 127 126 123 121 114 109 110 104 104 107 102 107 103 107 107 107 107 102 106 105 104 104 106 96 100 101 90 93 
117 113 112 114 113 113 119 117 115 115 114 120 119 117 121 121 122 121 117 109 88 83 85 80 84 88 86 83 84 83 81 80 77 78 79 88 99 98 101 104 102 101 100 106 103 106 112 125 122 121 121 122 125 125 121 116 110 109 106 103 104 105 101 106 105 103 104 106 107 101 104 100 101 102 102 97 94 95 88 89 
109 108 110 105 105 101 99 99 95 98 100 100 94 103 107 107 114 107 99 92 81 81 86 83 83 87 84 86 86 84 79 80 77 75 77 86 98 97 100 101 104 100 102 100 99 104 109 121 120 121 117 119 121 119 122 111 110 107 106 101 105 103 101 104 105 105 101 100 100 101 103 101 99 101 98 94 93 93 85 85 
104 107 103 100 101 95 94 89 91 86 91 97 98 99 97 103 99 93 88 85 78 75 81 79 81 85 81 83 87 81 78 78 75 75 75 86 102 98 103 101 103 104 102 99 102 105 106 116 116 116 112 116 117 114 112 109 113 107 101 97 100 100 101 104 104 104 100 101 96 97 100 96 100 100 97 94 94 92 89 85 
103 101 96 94 92 88 84 86 85 86 91 97 95 94 97 93 91 89 85 81 77 75 78 81 80 81 81 84 86 78 79 76 74 74 73 87 96 97 99 103 99 101 102 102 100 98 105 114 117 115 109 114 118 111 111 109 107 101 101 97 96 100 100 102 103 99 100 98 97 93 96 95 98 96 99 92 93 90 83 81 
101 99 96 89 86 81 82 82 81 87 88 95 95 96 94 89 88 84 80 79 74 75 82 80 81 81 78 81 86 85 79 75 69 71 73 84 89 93 93 95 95 93 90 91 93 91 93 98 113 111 109 110 108 110 108 106 105 105 99 95 96 96 97 101 100 100 96 99 92 91 94 96 95 93 90 92 90 85 81 81 
99 91 89 84 80 79 77 77 81 85 89 94 94 94 94 87 85 79 77 72 69 69 78 78 77 81 79 80 89 83 77 71 69 69 71 83 82 85 86 89 89 87 86 84 86 85 81 75 82 84 87 95 103 104 109 109 105 102 95 96 93 96 96 98 97 95 98 95 90 91 92 91 90 91 88 87 84 81 78 72 
93 89 84 77 75 73 70 71 77 85 86 95 92 92 88 89 85 75 75 70 70 70 74 77 78 81 78 83 85 85 77 72 71 72 71 79 81 84 81 89 83 76 82 82 78 79 73 67 62 67 67 75 81 85 96 108 103 106 101 95 90 90 93 93 93 93 91 92 85 88 86 86 85 80 83 80 78 74 70 71 
88 88 78 79 70 71 70 66 76 83 89 91 87 87 88 82 83 81 75 72 66 69 77 77 76 77 75 83 83 77 72 69 69 72 69 75 78 77 80 82 76 76 79 79 75 71 71 60 58 57 57 64 78 85 92 100 102 100 95 89 88 86 84 91 88 89 87 85 83 79 83 84 79 75 73 75 74 72 64 69 
86 81 76 74 70 65 63 65 73 84 87 87 87 86 87 84 81 78 73 67 66 66 76 72 77 76 70 85 87 84 72 64 67 65 66 72 75 77 76 72 70 71 72 74 71 70 64 53 51 48 52 57 78 89 93 99 97 96 90 86 80 85 83 85 85 83 82 77 74 77 76 79 76 70 70 70 71 61 60 58 
85 80 73 69 68 63 63 63 71 82 86 89 83 87 89 84 78 73 71 72 67 65 69 71 72 71 68 72 82 77 67 64 66 66 64 71 72 70 71 70 69 68 72 70 65 63 54 47 43 43 47 54 71 84 88 94 91 95 87 79 78 84 78 80 79 80 81 74 74 73 75 76 74 68 69 70 63 62 53 56 
79 76 67 66 61 62 59 64 73 84 82 88 84 82 81 82 76 72 73 70 65 66 67 67 68 73 67 69 76 72 65 60 64 65 62 70 68 70 67 69 63 65 65 64 59 54 53 43 39 35 40 45 59 84 90 93 92 92 87 79 77 81 77 79 78 75 73 73 68 72 73 69 70 67 63 63 59 59 55 50 
78 77 68 66 58 60 58 60 70 80 83 81 84 80 80 77 75 71 71 69 63 65 66 67 69 70 66 65 65 62 64 64 66 60 60 65 64 62 65 66 62 63 64 59 53 51 46 34 33 30 32 35 53 71 85 85 88 88 82 79 76 81 74 77 77 76 75 73 69 73 73 71 66 62 59 59 59 55 50 46 
75 76 63 63 59 57 57 60 73 79 80 83 75 78 77 71 72 71 72 66 63 63 67 63 64 67 65 61 62 60 60 64 65 61 55 61 60 55 56 60 58 61 59 54 49 47 39 33 27 27 25 29 31 46 66 75 80 84 77 74 78 70 65 67 68 69 70 68 70 70 68 64 61 59 51 51 54 52 45 44 
75 69 61 58 54 55 53 58 70 74 79 78 74 77 72 72 70 68 73 63 63 62 65 66 67 64 62 61 61 57 60 62 64 60 55 57 58 56 55 59 56 52 51 48 44 41 36 31 25 20 19 20 24 26 35 53 73 79 74 70 72 66 62 66 64 64 66 66 66 64 64 62 58 54 54 50 53 47 38 34 
72 66 59 57 54 50 50 57 67 71 71 72 71 74 72 69 69 68 72 65 62 58 60 61 59 62 59 59 58 56 60 63 61 56 52 56 58 53 56 54 51 53 52 50 43 38 33 32 28 25 19 17 17 21 24 36 66 72 70 65 68 66 61 62 60 63 58 63 66 64 62 61 56 52 49 49 49 47 40 38 
70 65 60 54 54 48 47 54 61 64 64 66 67 66 66 72 69 66 74 67 60 58 63 63 60 65 57 55 53 55 57 58 58 53 53 55 54 51 49 49 50 49 50 46 41 35 31 28 28 29 20 13 17 17 22 24 54 67 64 70 63 63 58 58 57 56 62 63 59 60 62 56 51 47 45 44 42 42 34 34 
65 63 56 55 53 50 45 51 50 50 49 54 53 58 62 65 63 63 78 66 60 54 59 59 57 58 50 52 50 52 53 52 59 50 50 51 49 44 44 46 48 45 48 42 38 35 30 31 26 23 14 10 14 15 19 20 38 61 62 58 64 59 55 55 55 57 57 57 56 52 56 52 48 45 45 43 43 39 30 29 
64 62 51 50 53 52 46 48 44 45 41 43 41 44 46 49 48 65 79 63 58 56 56 51 54 51 49 47 48 49 52 51 52 49 50 47 46 43 40 45 43 37 41 39 35 29 29 33 30 21 12 10 11 14 13 15 25 53 58 56 59 54 52 53 53 55 53 56 53 48 54 49 47 45 44 36 36 33 28 27 
63 58 52 48 50 46 44 43 44 39 36 35 35 39 33 33 39 51 63 58 54 49 54 52 47 46 47 46 58 70 50 45 48 49 47 46 42 40 39 44 40 36 40 38 30 29 29 35 30 18 8 6 8 12 13 8 15 39 55 52 55 57 50 51 52 50 47 52 51 49 49 43 47 41 39 38 33 26 23 21 
60 55 52 50 49 47 45 43 39 38 37 33 34 33 31 29 32 42 50 57 52 47 53 48 48 44 47 53 63 68 50 46 45 44 44 44 41 36 36 39 36 34 35 37 32 29 28 38 34 16 8 5 7 7 7 9 8 22 48 51 53 52 46 49 49 50 49 47 49 44 47 48 43 41 39 34 31 28 22 25 
59 57 51 48 45 44 42 40 40 34 34 29 29 30 27 31 37 41 47 54 53 47 50 47 40 38 40 42 43 42 36 43 46 37 34 41 35 30 31 33 34 30 33 34 32 34 29 32 32 23 10 6 7 7 6 6 8 16 36 47 50 46 46 47 47 48 42 44 42 41 42 43 35 39 41 31 25 22 19 16 
58 56 51 49 48 45 43 42 40 38 35 30 29 27 30 32 39 44 42 52 52 46 48 48 39 40 35 40 33 34 37 41 42 37 31 38 31 32 32 31 30 27 31 31 30 33 27 28 28 21 13 7 10 7 3 7 7 12 23 42 52 45 41 48 43 43 38 39 39 35 43 43 36 35 34 28 24 18 17 21 
56 54 48 46 46 46 41 42 39 38 35 29 32 30 28 33 44 45 44 49 48 47 51 46 38 37 37 37 33 29 36 36 41 37 31 34 32 25 28 26 22 20 24 24 26 24 24 24 22 23 13 7 7 7 9 7 5 7 15 35 44 43 38 42 41 39 37 34 33 33 42 38 33 35 34 27 22 15 17 17 
57 52 49 50 46 45 43 44 35 37 30 32 32 27 32 37 41 38 45 50 50 48 50 47 40 35 34 35 34 35 39 39 42 36 32 31 28 25 24 21 17 12 18 16 18 22 23 21 21 19 18 9 7 5 9 4 5 6 14 27 42 37 38 37 37 32 36 36 27 33 37 30 32 33 31 28 25 18 13 16 
56 51 51 50 49 46 45 44 38 35 32 30 29 30 35 38 39 35 38 46 50 45 48 43 44 42 41 36 42 37 37 37 41 38 33 31 24 21 23 20 17 14 15 12 15 16 22 19 15 15 16 13 9 7 9 4 8 5 9 18 34 34 35 37 34 33 31 30 27 29 32 31 32 31 32 26 23 16 12 14 
60 57 54 51 49 45 46 46 42 38 35 36 30 32 36 38 36 34 41 50 50 49 48 48 47 47 41 43 43 40 41 40 39 40 34 30 23 22 22 19 18 14 18 13 14 18 20 13 16 16 15 15 10 9 8 5 8 9 10 15 26 31 31 40 33 37 33 29 30 30 30 30 25 29 24 23 21 15 9 9 
63 59 55 57 53 50 47 45 37 36 36 38 37 36 37 38 35 36 41 45 46 49 52 48 46 45 45 43 43 38 38 41 42 38 36 31 25 22 23 22 19 19 19 21 17 20 20 18 19 17 16 19 16 14 16 13 12 12 16 14 24 27 35 39 36 39 36 34 29 27 29 26 26 23 25 18 16 14 6 10 
61 56 54 56 58 47 47 45 43 37 37 41 35 38 37 38 36 39 40 48 43 42 49 50 44 45 42 41 38 39 38 37 39 40 40 35 31 30 25 20 19 19 18 18 21 20 20 19 20 23 22 20 19 17 14 15 14 13 18 16 25 31 30 37 35 33 33 32 28 25 32 25 26 22 23 17 14 14 7 9 
57 59 53 62 58 52 50 44 44 41 34 36 35 38 42 38 42 37 43 49 44 44 45 47 45 44 43 43 40 38 36 38 37 40 42 35 31 27 28 25 27 20 23 22 24 23 23 23 22 21 24 22 21 23 21 16 18 17 19 22 28 28 31 39 33 32 27 32 27 29 30 23 26 21 16 15 16 15 3 7 
62 58 62 58 56 53 48 47 43 40 40 39 37 38 38 39 37 39 41 49 46 45 48 47 46 45 45 43 42 38 38 41 41 39 43 37 33 30 28 30 25 25 27 26 25 25 26 27 27 29 28 23 27 26 24 20 20 20 22 25 32 30 32 38 32 35 30 29 28 26 30 26 24 21 22 15 13 13 11 0 
63 63 57 61 55 55 52 47 42 40 38 38 37 36 39 39 37 40 41 48 46 46 49 42 45 46 43 44 41 39 38 39 37 38 42 39 35 31 31 30 26 24 28 28 27 29 31 29 28 30 30 22 29 28 26 24 27 24 28 33 31 33 33 38 37 36 30 29 27 28 30 24 27 24 19 14 11 13 7 4 
68 62 57 57 59 55 52 49 43 41 37 38 35 38 42 40 39 39 45 50 44 47 48 46 48 47 42 44 41 40 36 35 36 40 43 37 35 37 30 31 25 24 27 28 25 30 31 32 32 31 32 24 27 28 26 25 25 29 29 35 36 33 31 35 37 35 30 30 30 22 24 28 25 26 20 14 12 12 8 8 
72 63 58 59 55 53 51 51 43 40 37 41 38 37 43 39 37 44 45 52 46 49 51 47 48 52 45 46 41 39 40 37 41 43 47 41 36 37 33 32 31 27 30 29 28 26 33 30 31 32 29 22 25 19 19 17 22 29 31 34 36 39 40 44 44 36 32 30 24 26 24 23 21 22 19 15 16 15 8 9 


