P2
80 60
122
105 104 103 98 100 101 105 98 104 100 104 100 98 101 100 100 102 103 108 103 101 104 106 102 104 104 104 103 103 105 106 102 103 101 103 101 102 101 100 103 100 102 102 99 99 100 101 101 102 101 100 102 104 104 107 105 107 104 104 102 104 108 106 106 104 103 101 101 104 101 101 100 106 105 100 91 87 84 76 79 
105 105 103 98 101 101 105 101 101 100 102 105 103 103 99 101 103 102 103 103 103 104 108 104 104 105 105 105 107 103 107 106 105 104 102 102 104 103 103 103 104 102 101 104 102 105 104 106 105 100 103 105 104 108 105 104 103 105 102 104 104 106 107 103 103 103 106 106 101 106 106 106 107 104 103 94 94 86 79 80 
106 107 100 100 101 106 107 103 106 102 102 104 102 104 101 103 103 105 107 104 101 102 106 108 106 104 106 105 106 105 107 103 106 106 104 103 104 104 101 102 102 100 102 99 101 103 104 102 104 101 103 108 104 107 105 104 107 107 110 104 106 105 108 108 102 104 103 105 108 108 106 105 103 102 101 93 94 88 81 84 
105 105 102 103 102 100 105 98 105 101 104 104 102 104 102 103 101 103 100 104 104 106 106 104 103 105 105 103 104 105 104 104 105 103 106 102 101 103 100 100 100 100 104 103 102 101 103 103 105 104 102 106 103 105 103 104 105 106 107 103 106 104 102 105 106 102 102 102 106 105 106 104 105 105 105 94 98 93 84 82 
104 104 102 104 101 101 102 100 103 102 100 102 100 105 101 100 99 102 102 104 103 104 109 108 108 102 107 103 105 109 104 103 102 103 101 103 100 101 100 102 102 103 105 101 101 106 105 106 104 107 103 105 105 107 104 102 103 105 104 105 104 105 105 105 104 104 103 104 105 104 106 105 104 104 102 95 96 93 75 76 
105 106 104 102 102 98 99 100 104 98 101 101 102 100 101 101 104 102 104 104 102 105 105 107 108 106 102 104 105 102 104 103 101 100 101 101 100 101 99 100 101 103 101 99 102 103 104 103 106 105 105 103 104 105 104 98 105 108 105 102 103 106 106 107 104 100 107 104 102 100 102 108 106 103 105 102 93 97 78 76 
105 108 99 102 102 100 98 103 102 101 100 100 100 101 103 101 104 101 104 103 101 103 102 106 101 105 107 104 104 103 103 105 99 103 100 98 101 99 98 101 101 104 102 102 99 102 102 101 102 104 102 102 100 103 101 99 104 105 108 103 104 105 106 107 106 103 104 103 104 104 103 102 104 107 102 100 95 98 87 77 
102 102 98 104 99 100 99 99 103 99 100 97 98 102 105 103 104 102 102 104 102 102 106 105 104 104 101 106 105 106 106 104 98 100 100 96 100 99 96 99 99 102 101 99 98 99 103 104 100 101 100 102 102 103 103 100 101 105 107 105 107 105 105 104 104 103 102 103 100 100 100 99 103 105 103 104 98 99 89 84 
103 104 103 102 98 102 102 98 100 98 100 99 101 103 104 99 103 101 99 103 102 103 105 104 102 105 105 105 103 105 101 104 102 101 96 97 97 100 94 99 97 96 100 100 99 101 100 98 100 102 102 102 102 106 100 101 101 106 105 105 104 106 105 108 104 102 102 103 101 102 99 105 101 107 101 101 99 102 90 83 
107 103 103 104 101 99 104 100 99 100 100 101 98 104 100 103 99 98 98 103 98 100 107 104 104 103 106 105 105 106 101 102 101 100 100 98 98 98 93 97 95 97 98 98 97 96 101 101 99 102 101 101 101 103 101 100 101 107 107 104 104 102 106 105 102 103 103 100 100 97 99 101 101 110 105 100 99 99 94 90 
103 105 102 101 99 102 101 99 100 99 97 99 100 101 101 101 102 101 101 100 103 105 104 102 102 105 105 104 98 100 98 101 95 100 97 97 97 95 94 97 95 96 96 95 95 95 98 96 96 101 100 103 103 102 98 97 103 105 106 103 99 101 104 105 104 100 99 101 102 96 99 100 98 106 101 103 100 102 92 87 
104 104 100 102 99 100 101 97 99 99 99 100 104 100 101 99 100 98 99 103 102 100 103 104 100 103 106 104 101 98 99 97 97 97 96 96 98 96 92 96 95 97 92 92 97 96 95 96 99 100 100 101 103 104 102 98 100 104 104 101 100 97 101 104 104 98 100 97 98 97 96 97 101 105 105 104 103 105 94 85 
103 101 99 100 99 102 100 99 100 105 99 94 101 101 99 102 102 101 101 102 102 104 107 104 104 101 107 102 100 100 99 97 95 98 94 97 94 94 93 97 93 95 94 93 96 96 95 99 96 101 100 98 105 99 100 99 101 103 99 97 99 102 102 100 104 95 104 101 99 91 95 95 99 97 103 103 101 102 95 92 
102 101 100 100 98 99 105 103 99 98 99 95 100 99 102 101 103 101 104 106 103 104 104 105 102 101 103 103 103 99 99 98 97 98 98 95 96 98 91 93 96 95 97 92 96 93 95 97 100 98 99 99 99 98 100 101 102 104 97 98 99 96 99 100 95 98 100 97 94 93 95 93 97 99 103 103 98 102 91 90 
102 101 98 99 99 98 102 101 103 96 98 97 96 101 98 99 104 98 102 102 101 102 106 106 101 105 101 102 100 98 98 94 96 95 96 95 91 92 90 93 94 93 92 93 93 96 96 97 94 99 97 98 101 98 96 101 100 103 100 99 97 97 98 99 97 93 93 95 92 91 90 90 95 97 101 98 101 99 95 94 
102 106 99 98 98 101 103 98 100 100 98 96 99 101 99 98 99 101 100 100 100 100 101 102 103 102 102 103 100 98 97 98 95 94 96 94 94 94 90 90 94 92 93 92 91 94 94 97 95 99 97 94 97 97 94 96 100 101 97 97 96 96 92 97 96 92 94 93 96 95 91 90 93 94 101 101 104 98 92 92 
105 101 100 101 100 99 99 98 96 99 100 100 97 99 96 101 101 101 100 101 99 99 105 102 102 100 102 99 101 101 98 97 95 89 91 89 92 93 92 94 91 91 93 93 94 95 95 96 99 97 98 98 96 95 90 95 94 97 96 100 94 93 94 99 95 94 91 94 91 91 92 91 91 97 99 100 104 102 95 94 
100 102 101 99 97 102 101 95 95 97 98 98 96 99 97 97 98 100 100 99 99 98 101 101 98 100 99 98 99 97 95 94 93 93 90 93 93 90 89 93 94 93 92 93 92 94 92 94 97 94 97 95 96 95 94 91 92 91 95 94 94 92 89 91 91 86 89 86 87 92 87 90 91 95 102 101 105 103 92 89 
101 98 97 98 101 100 96 97 97 96 97 94 96 99 95 97 95 95 95 97 98 100 102 99 96 98 97 96 97 94 91 91 88 87 91 89 91 90 89 92 90 92 90 91 91 90 94 93 94 94 97 95 92 94 91 90 88 87 88 88 91 91 89 91 90 87 85 89 85 86 88 89 87 94 99 99 101 105 95 86 
98 97 96 95 94 96 96 94 95 95 97 98 95 98 98 97 99 95 94 95 93 101 99 98 95 95 95 96 94 95 93 89 89 90 88 86 91 87 87 89 86 92 89 91 90 90 90 94 93 90 93 92 90 89 89 88 89 88 88 89 89 89 86 86 86 85 85 86 83 85 88 89 90 96 98 101 101 101 92 88 
96 95 100 95 96 96 97 93 96 94 96 95 98 95 94 95 96 97 96 96 98 98 100 94 93 93 93 93 93 90 91 88 89 89 87 83 87 86 86 86 87 85 88 88 88 87 88 91 92 92 89 92 88 90 90 87 85 86 85 86 84 85 82 86 86 81 79 86 88 86 88 89 88 95 94 97 99 101 91 90 
101 98 96 98 95 93 95 93 95 95 99 91 93 94 95 95 98 97 97 94 97 96 96 94 89 93 92 91 91 87 88 86 85 86 88 84 90 84 85 87 85 89 86 87 89 87 86 88 88 92 92 86 87 88 87 88 87 85 86 83 83 84 86 82 82 80 83 85 84 85 86 87 89 93 95 98 100 98 90 91 
96 94 96 92 95 96 95 91 96 95 95 93 94 95 94 94 96 92 94 94 93 97 98 96 90 92 88 87 89 88 87 83 84 84 88 86 93 99 106 106 103 95 92 87 87 86 80 84 88 88 90 86 87 84 84 82 84 86 85 86 82 85 86 84 82 82 82 82 87 84 85 88 90 94 96 94 97 100 90 89 
94 96 97 95 94 94 97 97 97 94 96 95 94 96 90 92 95 95 91 93 91 93 94 94 90 89 87 89 86 86 86 84 88 85 104 112 116 118 117 120 120 119 118 114 101 85 86 78 84 84 82 86 86 83 82 83 82 81 83 82 84 83 83 85 86 85 84 82 86 84 83 86 91 94 99 100 98 96 91 86 
95 98 95 94 95 94 95 91 94 95 95 92 95 97 96 96 95 93 93 97 91 94 93 88 87 88 88 86 85 84 86 86 92 110 110 114 119 119 119 119 116 118 116 112 115 108 88 82 84 80 83 82 84 82 81 81 80 80 84 81 86 81 84 87 85 85 85 84 84 85 86 84 88 90 96 96 95 97 86 89 
95 96 94 93 91 94 93 97 96 95 96 94 95 94 95 95 98 93 92 95 86 91 92 89 85 83 85 84 84 81 84 99 112 113 112 116 117 118 117 120 122 121 115 115 114 108 109 83 81 80 81 84 82 83 80 80 81 82 82 79 82 81 84 86 85 86 85 87 84 85 84 83 87 91 92 93 96 92 85 81 
96 95 99 94 93 94 97 94 94 94 98 96 92 96 95 96 94 93 91 94 91 92 92 91 87 86 85 86 87 85 94 113 109 114 117 117 118 118 118 121 119 118 119 116 116 114 112 103 83 82 81 83 80 83 81 78 80 82 83 79 83 79 84 87 84 85 86 84 87 84 83 84 86 89 90 94 97 95 87 78 
95 97 96 95 91 97 94 93 94 91 96 96 94 93 91 93 92 91 92 92 91 92 93 86 84 88 89 87 87 89 110 115 117 119 116 117 116 117 116 119 117 118 119 114 113 115 113 106 86 81 77 82 81 78 77 77 79 79 81 83 80 81 85 88 83 86 85 80 84 84 82 84 86 88 92 88 90 93 80 83 
92 98 93 94 92 95 92 91 92 91 93 97 95 94 92 90 91 91 92 94 94 90 91 88 88 89 88 89 87 106 109 115 117 118 118 116 118 120 115 117 114 117 116 111 115 112 111 107 84 81 77 80 79 81 77 78 78 77 77 78 80 80 85 85 86 84 83 79 85 79 82 81 80 89 88 92 93 91 79 78 
93 95 92 91 89 93 95 90 95 91 94 95 96 96 91 93 92 90 94 93 92 90 91 89 88 85 90 91 94 105 115 114 119 118 121 115 117 118 115 116 114 118 114 113 111 111 107 103 83 78 78 77 79 82 79 77 75 78 77 77 80 83 82 82 86 81 80 79 80 80 82 79 85 85 87 90 88 90 76 75 
94 97 91 90 90 92 95 94 92 94 92 97 92 94 95 91 89 90 94 92 92 89 91 91 85 88 92 91 94 102 108 113 113 114 116 113 113 114 112 115 111 115 111 111 112 109 108 102 78 75 76 78 77 78 78 79 79 75 80 80 78 82 81 83 84 81 78 82 83 78 81 81 81 85 88 87 89 85 76 70 
97 94 92 93 93 96 95 93 93 93 95 91 91 92 90 91 93 89 92 91 91 89 91 91 89 93 92 92 96 101 107 107 111 109 108 106 107 109 108 109 108 109 107 103 103 103 97 92 78 76 74 79 79 78 79 77 79 78 81 76 80 79 80 80 80 79 84 81 78 80 77 77 79 83 83 81 84 83 72 68 
97 93 95 91 95 93 93 92 92 90 93 93 93 92 91 91 92 89 91 88 90 88 94 90 88 90 93 93 91 98 100 101 104 106 107 107 103 105 109 105 102 102 104 98 97 95 92 83 75 76 78 79 82 80 81 75 79 79 80 77 79 78 84 81 81 78 78 77 82 79 76 77 79 80 79 78 79 78 69 64 
95 94 94 89 91 93 96 89 93 91 92 90 93 92 90 93 92 87 89 90 90 91 93 92 87 92 89 89 93 95 95 95 99 102 99 100 97 101 101 100 99 101 98 94 91 87 83 78 75 74 76 78 78 79 81 74 73 79 76 77 78 76 83 82 80 76 77 74 78 74 77 77 79 80 76 76 75 74 66 59 
92 90 96 89 91 93 91 88 90 95 92 88 88 92 87 89 92 88 89 91 87 88 92 94 90 88 91 90 89 91 91 94 96 97 95 96 97 98 93 97 93 94 93 90 88 84 78 73 74 77 77 79 78 80 81 76 76 73 72 78 78 77 80 82 78 80 81 75 75 74 74 75 76 74 74 70 73 69 58 61 
91 94 90 93 89 87 89 87 92 92 91 89 93 91 90 90 89 88 88 87 87 87 91 91 89 92 90 90 90 93 92 89 89 92 91 90 94 93 93 92 92 90 90 87 89 81 76 71 73 77 77 79 79 77 79 76 73 76 76 78 79 79 80 80 78 79 77 75 73 77 71 75 76 74 67 65 65 64 56 53 
91 94 90 89 90 90 89 93 89 90 91 90 93 92 89 90 91 89 90 88 86 89 90 92 92 89 90 89 89 91 90 86 89 89 90 88 91 90 89 89 87 87 87 82 81 73 71 70 76 77 78 80 80 76 80 76 78 78 77 75 78 81 83 80 80 76 76 76 76 73 75 74 69 68 65 60 63 61 52 48 
93 96 90 89 88 88 92 89 92 93 93 90 92 91 89 90 87 89 85 86 85 89 90 89 87 92 88 90 87 88 90 86 85 85 85 85 87 88 87 85 83 83 80 77 75 72 72 75 76 76 76 83 78 77 78 79 78 78 76 77 78 78 82 83 79 76 76 72 72 73 72 73 70 70 65 59 60 57 48 50 
91 92 89 89 88 90 89 89 90 89 90 91 92 90 92 89 87 90 90 89 83 86 92 88 88 90 90 88 90 86 87 90 86 83 86 81 86 83 85 81 83 80 79 76 77 78 75 77 76 80 78 82 81 77 79 78 76 74 78 80 81 78 80 78 80 77 77 76 75 74 71 71 70 68 62 60 53 55 46 50 
96 93 91 90 88 92 91 89 86 91 92 90 88 89 90 85 85 86 86 84 86 86 90 89 88 92 92 89 85 85 84 87 86 87 88 82 85 82 82 82 81 81 78 79 80 78 80 80 80 79 81 84 78 81 78 78 78 78 76 78 75 79 80 81 78 78 74 73 74 71 72 72 68 67 58 56 51 51 44 43 
93 94 89 89 87 91 90 86 88 90 91 91 92 89 86 86 85 85 89 84 85 88 89 89 88 88 88 87 89 86 86 85 85 86 84 82 84 80 81 80 79 82 78 78 79 79 79 78 80 83 79 82 77 81 77 77 76 77 79 79 79 79 80 79 78 78 76 72 76 72 74 72 70 63 57 54 46 48 41 41 
93 91 92 92 83 86 85 89 89 86 88 86 88 87 83 83 84 82 89 88 84 86 86 89 84 85 89 88 88 85 86 84 83 83 84 83 81 81 79 79 79 81 80 78 84 81 78 80 84 84 84 84 79 80 76 77 80 78 80 79 77 77 79 77 78 75 75 75 74 77 73 70 69 65 60 54 49 46 37 33 
92 92 92 89 85 88 87 86 86 88 85 89 87 88 86 89 83 86 90 85 86 89 86 86 83 85 87 85 84 85 86 82 84 84 82 79 81 81 79 79 78 77 78 77 79 83 83 82 83 84 84 83 81 80 78 79 79 80 80 81 80 78 79 76 74 74 74 74 74 71 72 71 73 66 58 54 49 44 34 36 
91 89 90 88 85 90 89 86 88 88 86 86 84 86 85 84 84 88 89 87 86 87 88 88 87 87 87 83 88 87 83 82 85 82 82 79 76 80 76 77 77 79 79 81 81 86 83 85 85 84 85 85 82 80 80 77 78 78 77 77 80 80 79 79 76 78 76 73 76 71 76 69 67 66 57 48 47 39 33 30 
92 89 87 90 84 89 88 85 89 86 90 88 87 84 85 83 85 86 88 86 84 87 88 89 86 85 85 86 85 87 86 82 81 82 82 79 78 78 73 78 79 78 78 81 84 86 85 81 84 82 84 84 81 77 79 76 76 76 81 76 79 77 80 79 78 72 77 74 75 73 73 72 69 64 60 49 46 39 35 29 
89 89 88 89 86 89 87 89 88 86 89 89 86 87 84 87 86 88 88 89 85 85 85 87 85 83 85 86 84 85 81 81 81 81 81 81 76 76 75 78 79 79 80 82 84 82 81 84 81 80 81 83 80 79 79 77 75 76 79 76 76 77 75 74 75 76 74 73 76 73 71 72 68 61 55 47 42 36 29 24 
90 88 86 87 84 88 88 84 83 85 85 83 83 84 81 88 86 85 87 87 84 87 85 87 85 88 85 87 86 84 83 85 81 81 77 80 76 78 76 79 77 78 82 82 86 84 85 81 79 81 79 81 78 75 77 76 76 76 76 77 76 75 79 75 71 71 76 73 75 77 71 71 69 67 53 44 41 37 24 23 
90 86 85 84 83 85 85 87 87 84 89 84 87 89 85 86 89 86 89 84 84 85 87 88 83 89 86 86 87 86 82 81 83 84 80 79 77 80 77 78 78 80 80 80 84 83 86 83 83 83 83 80 81 78 78 76 79 80 79 79 79 76 78 74 75 75 75 75 79 77 74 72 70 65 51 44 39 36 22 21 
91 90 86 87 87 88 90 85 86 87 87 84 86 85 84 86 84 87 87 88 85 84 88 86 86 89 86 85 85 82 83 84 79 83 82 79 78 77 78 78 77 77 82 79 83 83 82 82 79 81 81 81 80 82 80 76 76 78 79 78 77 80 77 76 75 74 77 76 77 77 70 74 65 66 45 45 36 29 19 23 
90 85 88 85 86 88 88 85 88 88 89 87 85 88 83 87 86 86 86 87 86 86 87 87 88 87 87 85 87 83 80 86 81 82 82 83 83 82 79 81 78 78 79 81 84 82 82 82 82 82 83 83 78 82 82 79 82 82 83 80 83 79 80 79 76 74 75 80 77 73 70 72 69 57 45 37 35 30 18 20 
92 93 89 90 87 88 88 86 87 88 85 85 84 87 85 86 87 88 88 87 89 88 89 86 90 87 84 83 86 83 85 84 80 85 83 80 83 82 80 81 80 79 80 81 83 83 83 81 80 83 82 82 81 82 82 82 81 80 81 80 80 80 77 76 76 75 77 80 79 75 73 71 70 61 47 39 34 31 17 20 
91 91 87 90 90 89 86 87 90 87 88 86 87 91 85 89 88 91 90 87 90 89 92 90 88 89 88 84 85 84 84 84 84 82 80 81 85 82 81 80 81 81 82 78 83 81 82 85 84 85 87 84 85 85 85 82 85 85 82 83 81 79 80 78 77 74 80 81 80 77 76 70 65 58 46 37 32 26 18 16 
88 92 92 89 89 91 91 88 90 88 87 84 88 91 88 94 92 89 90 90 91 89 92 91 90 88 89 85 87 85 87 85 84 87 85 83 78 79 82 81 80 77 81 82 87 86 84 90 90 88 87 90 87 90 86 88 86 88 92 84 82 82 82 79 77 75 79 79 81 78 77 71 67 57 48 34 30 24 16 13 
95 92 94 91 89 90 91 86 88 86 90 91 89 93 89 94 92 90 94 90 94 91 92 94 92 92 90 89 88 86 86 89 87 88 84 84 85 84 84 81 81 84 82 84 85 87 88 92 91 94 92 92 87 90 85 95 88 91 86 84 84 80 80 81 83 81 84 81 83 81 78 73 65 56 44 34 26 20 17 12 
97 95 91 89 89 89 89 87 85 87 90 89 90 90 86 90 95 91 94 91 90 94 93 91 87 91 91 91 90 90 89 88 88 87 88 86 85 84 84 85 84 84 83 83 84 90 88 92 91 91 85 88 86 89 89 90 92 89 88 85 84 81 83 83 86 80 83 84 84 81 77 75 70 54 43 32 22 18 9 9 
100 96 91 93 93 88 89 86 88 87 91 89 91 91 88 91 94 91 94 93 91 94 92 93 90 91 92 88 89 89 88 87 90 87 88 86 85 85 84 85 85 85 86 85 84 87 86 90 88 93 87 90 88 89 89 91 89 88 87 83 85 81 85 86 87 85 85 88 87 83 77 75 64 57 42 30 19 16 8 8 
95 97 97 93 87 91 90 89 87 87 92 87 90 92 89 93 90 91 95 94 91 92 91 90 87 90 91 88 91 85 85 88 88 86 88 83 86 83 81 81 83 81 83 84 86 87 86 95 90 96 91 94 89 90 90 91 87 87 87 85 83 84 85 88 86 90 87 86 86 78 77 76 67 59 37 29 17 14 8 3 
100 100 96 98 92 93 92 86 86 88 84 88 89 90 90 89 88 89 95 90 89 88 90 88 89 90 87 89 86 86 86 87 86 86 87 83 85 86 82 81 84 85 81 83 84 86 88 94 93 95 90 89 92 93 91 85 85 87 86 81 84 83 87 90 88 87 88 89 82 79 81 75 72 55 38 24 19 15 6 4 
101 101 97 92 91 92 92 88 87 84 87 87 90 86 89 87 89 88 88 88 88 85 88 89 88 88 88 86 86 82 85 82 86 88 89 85 82 84 80 84 84 85 82 84 85 87 90 89 88 93 88 91 90 88 85 82 84 86 87 82 83 86 88 86 89 84 83 85 83 81 77 75 68 55 38 26 17 12 4 0 
111 106 100 98 92 96 90 88 86 84 85 85 91 89 90 86 87 88 89 88 88 87 87 87 88 91 88 85 86 84 84 86 83 86 88 87 85 84 81 85 84 85 83 85 86 86 86 89 89 93 85 88 88 88 85 83 86 87 82 82 82 83 89 88 85 84 88 80 82 79 76 75 62 52 38 26 16 14 5 2 


