P2
80 60
164
143 143 142 143 150 149 144 151 149 153 159 153 155 155 153 146 143 143 146 144 146 140 143 143 143 144 137 140 136 133 133 135 135 132 137 131 129 131 135 135 138 135 130 128 130 125 126 127 125 124 127 128 125 131 126 126 131 126 124 119 117 114 112 116 114 110 114 110 112 107 101 102 102 96 98 100 99 90 85 92 
140 137 138 144 152 147 148 149 150 157 156 151 155 154 156 150 148 143 148 144 148 142 147 145 144 147 141 140 138 139 138 142 143 141 141 139 135 139 139 138 141 141 136 138 134 130 131 129 124 124 128 132 128 133 133 129 128 124 121 121 114 111 113 110 112 110 109 112 110 106 104 99 100 98 100 99 98 92 92 93 
146 144 141 145 154 150 150 153 153 153 161 155 155 155 151 151 152 146 144 146 146 146 146 147 145 149 144 145 147 140 143 141 147 143 148 146 139 144 143 146 145 149 143 145 145 139 138 141 131 126 128 134 136 136 133 130 131 128 126 120 117 116 114 119 119 112 115 114 111 110 105 105 105 103 100 106 105 94 93 92 
145 142 140 147 151 150 148 154 151 155 161 159 155 158 153 153 149 145 148 146 148 147 144 149 145 148 145 147 141 142 146 144 147 145 147 139 141 138 144 146 145 147 147 149 150 146 147 147 142 133 140 141 136 137 137 133 134 130 128 121 120 116 114 122 117 119 115 114 111 114 108 107 108 107 105 108 104 96 96 95 
147 141 141 145 147 148 149 152 151 155 160 154 159 160 147 147 149 144 144 146 151 148 150 145 144 146 146 147 144 143 145 144 145 144 144 142 143 142 146 147 149 148 145 151 150 146 149 147 144 140 141 140 140 140 139 135 137 133 131 126 122 119 117 121 118 118 116 118 113 110 111 112 108 107 110 107 101 97 97 99 
144 141 144 147 151 152 149 151 152 158 155 157 160 157 156 148 148 142 147 148 143 149 147 147 144 148 143 147 145 142 143 146 144 142 141 142 141 143 144 146 147 151 144 145 150 146 149 148 142 142 143 146 144 144 142 140 138 134 127 125 123 126 122 118 119 121 117 119 113 110 110 111 109 108 109 109 108 100 98 98 
144 141 139 147 147 150 148 153 156 157 157 158 157 156 153 150 147 143 144 144 146 148 150 145 146 144 148 144 141 140 144 150 146 142 142 141 142 146 147 144 148 148 145 148 147 146 147 148 148 152 148 150 147 145 148 143 142 134 134 131 128 126 120 123 122 119 121 117 118 113 111 113 113 112 114 111 107 101 101 101 
146 139 141 148 150 149 151 156 158 158 159 155 157 158 157 149 151 147 146 147 149 146 148 150 146 147 145 152 142 142 144 148 144 146 144 146 147 143 142 142 146 147 146 148 149 146 149 144 149 151 152 149 151 151 148 145 143 145 135 136 131 124 127 125 122 125 122 120 117 115 112 117 114 114 116 113 107 103 101 103 
141 141 142 146 151 154 150 160 161 157 159 157 157 157 158 154 150 149 148 145 150 148 148 151 146 145 149 147 143 140 145 145 145 143 145 146 144 141 143 143 145 147 145 144 146 146 149 149 143 153 152 155 153 149 147 144 144 141 140 140 131 129 129 129 130 130 132 127 125 121 117 119 116 117 116 111 112 104 103 105 
147 144 140 142 151 153 155 160 160 159 158 157 160 160 159 153 150 150 149 153 151 150 150 149 146 149 146 145 144 144 147 148 146 144 146 142 140 146 142 145 144 147 146 146 146 142 147 148 148 152 155 155 151 149 146 141 142 142 140 136 132 128 130 133 131 129 130 130 128 126 123 125 119 120 119 117 113 109 106 106 
144 143 140 148 152 150 155 161 160 162 160 156 156 155 157 150 148 147 149 149 149 149 152 150 146 149 146 146 144 143 145 144 146 145 145 142 146 144 146 145 145 147 146 149 149 149 148 149 146 152 153 158 150 149 146 140 140 141 140 133 131 132 128 130 133 129 132 131 128 125 122 125 120 126 120 121 117 113 108 109 
141 140 142 146 149 152 154 161 163 159 160 161 160 160 158 152 152 149 148 148 150 153 152 151 153 149 149 149 146 141 142 140 144 141 141 144 143 147 145 144 143 148 146 144 145 145 146 147 147 152 153 157 152 146 144 141 141 140 137 129 129 124 124 130 132 129 128 129 122 123 121 126 123 125 120 122 119 114 109 112 
145 146 141 145 148 151 156 159 161 163 163 157 159 161 156 152 148 149 148 148 153 150 152 151 148 148 146 145 146 142 145 141 142 145 140 141 147 140 141 143 144 146 144 147 145 144 144 146 143 149 153 154 148 151 144 139 142 137 136 132 130 125 126 124 128 125 123 126 122 122 118 121 123 123 125 118 116 110 108 112 
148 140 142 143 147 150 153 159 160 160 164 157 157 159 158 156 150 148 149 145 149 150 146 149 146 148 146 144 143 141 142 141 138 141 138 139 141 144 138 143 143 148 143 148 146 142 144 146 144 152 155 149 150 148 145 135 137 134 134 130 122 122 122 125 124 122 121 119 118 119 119 119 121 124 122 118 116 109 109 106 
145 139 139 143 147 150 152 159 159 160 159 157 158 161 155 152 149 149 146 147 146 149 148 148 145 145 145 145 144 142 142 144 139 142 142 139 141 142 142 142 145 146 145 145 144 141 143 143 146 150 152 153 152 148 145 135 138 136 134 127 124 119 124 123 121 121 121 120 117 117 116 119 119 116 119 120 118 109 108 109 
142 139 138 141 150 155 156 164 158 162 159 158 161 159 156 151 152 151 153 150 146 148 149 143 146 145 141 141 141 142 141 145 141 141 142 140 138 139 142 142 141 145 143 142 144 141 145 143 144 149 151 150 150 148 142 138 137 134 130 126 124 122 120 122 121 119 118 120 118 114 117 117 116 120 118 120 117 112 110 112 
141 135 137 143 148 153 158 158 157 154 160 154 157 155 153 148 147 146 146 147 149 142 148 145 142 144 142 143 140 142 141 144 140 141 139 140 141 142 137 138 141 142 143 144 142 143 142 142 148 146 148 147 148 145 140 137 139 133 128 131 123 118 116 118 119 118 117 118 114 115 115 117 118 120 117 115 115 110 106 109 
140 137 134 138 147 152 155 159 156 156 155 156 155 155 152 149 148 146 142 144 147 150 146 146 140 140 136 140 136 140 141 140 139 138 138 139 138 137 141 140 139 144 145 143 142 140 138 139 146 148 147 148 144 143 139 136 138 134 130 128 124 121 119 118 120 120 118 118 117 114 113 115 118 119 118 115 116 108 106 111 
137 134 132 135 143 151 152 157 152 156 158 154 152 154 153 147 148 145 144 139 145 145 145 143 143 138 134 138 135 135 139 142 134 134 134 136 135 136 138 139 138 142 139 141 141 142 143 139 145 145 146 145 142 144 142 133 135 130 126 123 122 120 118 120 120 122 117 120 119 114 114 114 118 118 116 120 119 108 108 107 
137 128 132 133 139 146 153 154 152 153 158 154 153 151 151 146 145 145 139 142 138 137 140 137 134 136 132 135 134 131 135 133 132 133 135 133 133 136 136 138 142 141 139 141 141 142 140 138 144 144 146 143 143 141 139 133 131 129 124 122 119 115 113 119 118 115 115 116 115 117 113 116 116 121 116 116 114 108 108 105 
129 129 130 132 141 143 144 150 150 152 153 148 152 150 148 143 137 135 141 136 130 126 128 125 122 125 125 127 125 124 123 128 124 127 133 134 131 133 133 137 136 138 136 139 140 139 140 139 142 143 140 140 138 139 133 129 131 131 127 122 118 116 114 116 117 113 114 113 112 110 107 117 115 117 115 114 112 107 105 106 
129 125 127 129 135 144 145 149 145 147 146 148 146 149 145 140 133 128 134 129 119 119 116 113 112 109 113 113 110 113 110 108 109 111 115 117 120 117 117 125 134 136 133 134 138 138 135 136 138 139 141 138 135 138 134 132 132 129 126 120 120 115 111 115 116 113 114 112 114 111 114 116 115 116 111 116 112 105 105 105 
130 127 125 131 136 142 144 150 146 147 144 146 146 145 143 138 131 122 122 120 112 113 111 108 106 108 105 109 106 104 107 102 103 106 106 107 110 108 105 108 108 114 114 129 134 131 131 133 140 137 140 137 138 137 135 130 132 129 125 124 117 116 114 115 116 115 116 117 113 112 109 113 112 113 113 110 111 105 103 105 
126 119 122 129 134 143 147 146 143 142 143 141 145 146 141 138 129 126 117 109 107 106 106 105 105 109 107 101 108 108 103 101 99 100 103 100 96 94 97 103 102 103 97 120 127 128 129 129 137 138 136 138 139 133 133 129 126 122 124 120 115 117 114 111 114 115 111 115 109 111 111 116 112 113 113 114 109 105 97 100 
122 122 121 124 134 139 140 146 141 142 140 140 141 141 138 134 126 118 113 108 106 103 103 104 99 103 102 99 99 100 102 99 98 94 95 90 90 96 94 101 101 100 98 115 119 121 124 129 136 134 135 134 132 133 129 127 127 119 116 117 113 114 113 112 115 116 114 115 113 114 110 112 111 109 108 111 108 106 101 101 
117 119 119 123 131 136 138 140 137 143 141 136 142 143 135 130 122 116 111 103 104 100 104 100 101 100 100 97 98 99 100 99 94 92 91 92 90 93 94 95 98 98 101 117 115 120 120 126 132 131 131 129 127 133 128 123 121 117 115 119 110 115 112 111 111 113 114 114 112 110 110 112 109 110 112 109 108 104 99 102 
118 114 116 121 125 129 128 134 133 133 134 133 136 137 130 130 115 111 109 101 103 98 97 101 101 99 97 96 98 100 95 96 93 90 87 93 93 91 91 95 94 94 100 114 116 117 118 120 129 128 128 124 125 128 124 119 117 114 113 110 107 108 109 108 111 112 112 114 110 110 106 107 108 108 109 107 104 101 102 101 
113 113 113 114 114 117 111 113 114 114 117 117 123 121 118 114 111 106 103 99 98 99 94 98 102 97 99 100 97 99 92 91 89 89 87 89 88 92 91 89 89 93 100 113 116 118 117 123 124 125 123 124 122 126 125 117 115 113 114 111 107 109 106 110 112 108 108 109 110 110 106 106 108 108 103 105 103 97 95 98 
109 109 108 108 107 100 101 101 100 101 103 103 104 104 100 99 100 97 99 96 96 96 93 94 98 93 99 98 101 100 94 89 83 88 85 88 86 87 88 90 87 89 99 113 115 113 115 121 127 121 122 122 118 122 120 114 106 108 105 106 101 105 105 106 108 103 106 108 103 104 105 102 104 104 102 102 102 98 94 97 
104 102 104 105 103 98 94 96 93 92 94 92 95 93 93 92 91 93 92 93 95 93 91 93 95 94 90 96 93 92 90 87 82 84 84 84 84 84 84 87 87 87 97 112 113 112 111 115 122 120 118 115 115 117 116 107 108 105 104 102 98 102 100 103 105 103 102 103 105 101 102 104 99 100 97 99 99 96 93 90 
101 101 97 97 97 92 86 90 85 85 90 87 91 88 90 86 86 89 87 86 90 91 90 93 91 90 88 90 91 88 86 88 82 83 84 82 84 86 84 85 85 84 96 104 107 108 107 114 118 117 115 116 116 114 114 109 104 105 101 99 97 99 100 100 100 101 98 99 101 101 100 101 98 97 99 94 97 93 91 93 
104 99 93 98 93 89 81 82 83 83 84 81 89 83 84 78 83 85 84 88 88 90 90 91 89 89 87 88 90 94 91 84 81 82 83 84 82 86 85 86 85 83 95 101 101 100 102 101 95 100 104 105 110 110 112 106 106 104 102 98 97 98 98 99 98 93 99 97 96 97 96 96 95 94 95 93 93 89 87 89 
99 95 89 90 84 82 76 77 74 77 73 75 78 80 79 77 81 83 84 84 86 90 86 90 86 87 86 92 97 95 94 93 86 76 80 82 80 83 83 86 82 80 93 95 98 93 95 93 80 77 82 83 88 99 96 97 107 108 99 100 98 99 95 98 94 95 95 96 94 94 91 92 90 88 89 89 88 87 81 85 
94 91 89 87 82 77 71 73 70 69 71 70 73 76 73 78 80 83 81 82 86 84 85 86 87 82 82 94 96 94 92 94 86 78 78 78 78 84 79 82 79 76 90 91 96 91 84 88 71 65 73 68 71 81 89 89 104 108 102 99 93 95 93 92 93 89 91 90 87 89 86 85 85 88 84 84 84 83 82 84 
85 83 85 81 78 73 69 67 66 64 64 66 69 68 69 71 78 81 81 81 83 84 82 83 79 81 84 91 87 88 85 90 85 76 76 76 75 78 80 77 78 75 85 86 86 85 81 78 68 61 59 60 64 79 89 90 96 96 94 94 91 87 89 89 86 86 86 86 84 84 82 79 80 82 79 82 79 77 79 80 
86 83 84 79 75 67 67 68 66 67 69 67 65 64 65 67 76 78 77 79 82 81 82 84 82 81 79 87 86 84 80 83 78 74 75 73 74 74 76 76 75 73 82 82 84 77 74 71 58 50 53 57 58 79 90 90 95 94 91 89 85 86 84 83 80 80 82 79 80 77 78 75 77 79 73 75 72 74 72 67 
83 80 75 78 73 67 61 63 60 65 65 61 62 63 62 66 76 81 76 78 75 74 77 81 76 80 79 80 79 79 76 77 74 72 74 75 72 71 70 69 68 69 79 80 81 73 67 63 54 41 42 44 48 66 86 88 93 88 91 87 85 81 80 81 79 75 75 76 75 74 75 72 71 72 67 70 68 66 60 70 
81 75 77 74 70 66 63 63 58 60 63 56 59 61 58 64 73 75 75 75 76 72 79 79 78 79 78 77 74 73 71 73 71 74 72 72 70 70 69 68 67 66 74 74 78 71 64 57 47 34 33 35 41 55 82 84 90 90 90 86 80 78 79 78 78 74 76 77 73 71 72 68 68 71 65 67 63 64 63 64 
76 74 73 75 68 64 60 60 55 55 55 57 58 56 58 63 70 71 73 72 74 75 72 75 78 77 76 75 71 72 72 76 73 69 73 69 66 68 66 66 67 66 71 70 72 65 59 52 38 26 29 26 34 47 69 79 86 83 83 82 76 76 77 80 73 68 67 69 67 69 70 68 67 65 62 61 61 57 62 62 
79 72 68 67 61 64 59 55 51 55 58 54 54 54 57 64 65 68 67 69 72 72 74 72 72 77 75 73 73 70 71 72 73 70 70 69 66 63 69 66 64 60 66 68 68 61 53 45 37 24 20 19 22 32 40 47 66 80 81 78 79 77 73 72 69 67 66 68 67 66 66 66 65 63 59 59 61 58 57 58 
74 70 66 64 61 59 56 56 51 52 52 51 51 53 56 63 70 69 72 70 70 72 73 70 73 72 72 74 71 68 68 73 68 66 70 68 66 66 68 67 61 61 65 65 62 55 49 41 33 22 23 17 13 21 27 29 46 74 79 74 72 75 67 69 67 61 60 65 66 64 64 65 66 57 59 61 58 54 55 54 
70 68 63 62 60 57 56 56 47 45 53 53 51 50 51 63 66 72 70 66 71 72 74 73 72 73 73 73 72 70 69 72 68 68 69 69 65 69 66 66 60 52 52 50 43 36 39 35 33 28 29 19 11 17 18 20 34 59 70 70 70 72 66 65 62 59 60 64 64 64 65 63 61 57 57 56 55 52 52 54 
69 66 65 60 58 59 54 53 48 47 50 49 47 50 54 65 66 67 71 69 72 69 70 70 70 69 73 72 68 70 70 70 67 69 67 69 69 65 64 67 62 49 37 31 16 14 22 27 30 25 24 17 11 15 14 17 27 44 60 67 67 65 65 63 60 55 56 59 61 62 63 59 56 56 54 52 52 51 50 50 
69 67 60 62 57 57 53 51 47 51 50 50 46 47 50 59 62 68 66 70 67 69 68 68 70 69 68 66 63 68 66 67 66 67 65 68 65 64 65 67 62 45 31 25 16 15 20 25 35 29 25 10 11 8 13 18 20 31 54 60 61 63 62 60 62 52 54 58 66 56 59 55 54 53 50 53 50 46 48 48 
66 59 57 57 54 55 50 50 48 47 50 47 50 49 49 57 64 64 66 63 68 67 64 65 63 64 65 63 61 63 64 65 64 63 65 65 62 66 61 61 57 42 26 22 17 18 15 22 38 34 20 11 7 6 6 10 12 17 43 54 55 58 59 55 56 52 54 56 60 56 57 55 52 52 49 46 48 46 43 44 
62 60 53 52 54 52 50 52 44 48 49 44 44 47 52 59 63 63 64 65 68 62 63 59 63 62 60 59 57 61 56 60 59 60 63 60 60 62 59 59 54 37 25 21 18 14 16 21 34 34 21 8 5 3 1 3 5 9 26 47 55 53 52 54 50 47 53 49 52 53 51 52 51 47 45 48 44 43 37 42 
62 58 56 55 52 55 49 52 43 46 49 46 46 47 53 58 62 62 63 67 65 64 61 62 62 63 57 58 56 60 59 59 61 58 60 62 59 60 60 60 51 36 26 21 14 15 18 22 34 32 19 10 7 4 5 7 9 7 17 40 47 53 53 52 52 49 51 51 48 47 52 49 49 45 43 47 46 39 40 39 
57 53 54 54 56 53 50 52 45 47 46 42 47 45 53 56 60 59 63 60 59 62 63 61 62 59 61 59 57 58 56 58 55 56 56 57 56 57 59 55 52 33 21 18 16 14 20 18 28 29 25 11 5 3 3 3 5 6 10 31 44 52 50 50 48 48 45 50 48 48 48 47 44 41 39 40 41 37 35 36 
58 51 51 54 53 53 48 50 46 46 44 42 45 45 48 57 60 57 62 62 62 58 59 60 60 60 61 61 58 59 57 57 57 59 59 56 57 55 56 55 49 31 21 15 13 13 19 18 28 27 24 13 8 4 0 5 6 8 9 22 40 48 48 47 49 43 43 44 48 45 43 42 42 39 40 40 40 34 30 32 
56 54 53 50 53 51 47 50 44 42 41 40 41 44 53 56 61 57 57 58 65 59 58 59 60 61 61 60 57 56 61 57 56 54 55 55 56 55 54 53 47 31 19 12 13 14 20 18 18 19 23 13 6 3 1 0 4 5 12 11 31 41 42 43 43 42 39 40 39 36 37 41 39 36 36 36 39 32 30 36 
57 53 52 53 55 53 48 47 46 43 44 42 44 41 52 57 57 62 59 60 59 56 58 61 59 58 59 60 59 55 58 56 55 53 58 59 53 55 54 51 43 26 18 11 11 16 17 15 14 15 15 16 10 5 5 3 3 5 11 8 19 38 38 40 43 40 38 38 38 35 32 37 35 33 35 37 38 33 31 36 
57 56 53 55 54 54 50 49 46 44 41 47 43 47 52 54 57 61 56 59 62 60 63 59 57 58 58 57 55 54 55 57 55 53 56 59 55 55 56 51 41 25 19 14 13 15 20 19 18 13 14 14 8 11 7 5 7 8 8 8 15 31 36 39 40 38 36 38 38 33 33 35 37 33 33 42 35 31 30 27 
57 57 50 54 58 58 50 50 46 46 42 47 47 45 52 55 55 59 57 57 60 62 61 59 57 60 57 57 54 53 55 56 56 56 56 60 53 52 53 50 40 23 19 18 20 19 23 23 16 13 15 14 13 14 9 7 9 13 13 9 15 26 32 34 39 35 36 39 38 37 35 34 34 30 32 34 34 28 31 30 
59 56 54 56 57 57 51 50 49 47 44 48 46 52 53 54 55 55 58 57 57 57 59 59 57 58 55 55 54 56 50 54 54 57 54 57 52 51 48 48 38 33 29 27 26 26 26 27 21 18 18 18 15 17 17 12 18 13 13 14 16 23 27 34 37 36 37 38 36 38 35 32 30 30 34 34 28 24 26 32 
64 57 57 57 59 56 52 50 49 46 49 51 49 51 54 53 54 55 56 58 57 58 59 56 55 53 55 52 54 51 50 56 54 53 53 51 50 50 47 44 40 38 32 32 31 31 33 33 28 17 23 19 18 21 18 21 20 18 16 18 19 23 29 34 35 36 38 38 35 36 35 32 30 27 33 31 26 22 22 23 
59 60 55 58 59 55 53 51 47 44 51 48 47 49 50 53 57 53 53 54 59 55 56 57 52 56 52 52 52 52 49 54 51 54 53 51 50 50 47 46 39 39 35 37 35 35 37 38 33 24 24 24 21 22 26 18 21 19 20 19 23 27 27 33 35 34 37 34 37 35 31 34 28 28 26 33 27 21 19 23 
62 59 57 63 57 56 53 53 45 47 45 47 47 50 50 49 52 54 54 51 56 60 56 54 48 50 51 53 51 52 52 51 53 51 53 54 49 48 46 43 37 37 34 35 34 34 36 38 35 25 25 24 24 23 23 20 23 21 21 23 25 28 30 31 39 32 35 36 33 34 30 27 27 24 24 27 27 16 18 17 
65 60 59 64 63 58 55 52 49 47 47 48 46 49 51 50 53 52 54 53 55 56 53 53 50 52 50 52 48 50 49 52 49 51 49 50 49 47 45 40 38 36 32 34 38 35 36 38 35 30 27 24 24 23 24 21 24 23 23 25 28 29 29 32 35 33 33 33 31 26 26 23 25 23 25 23 19 19 15 21 
70 63 62 60 61 61 59 55 50 49 48 47 48 45 48 54 55 51 52 52 55 53 53 51 54 52 48 52 48 50 50 52 49 51 52 51 48 47 46 40 41 41 37 34 35 38 37 43 38 28 26 27 25 25 26 21 23 26 25 29 32 32 27 29 34 31 29 33 31 26 21 23 23 23 25 21 20 18 19 19 
73 64 62 62 63 64 59 59 51 56 51 51 50 48 49 49 50 48 51 50 48 49 51 52 51 52 49 51 47 49 50 51 54 54 54 54 56 51 48 39 40 40 37 38 37 40 38 42 39 30 27 26 27 28 31 22 24 26 31 37 36 34 30 32 36 38 34 41 32 28 23 25 23 26 27 25 23 18 19 19 


