P2
80 60
159
139 139 143 139 139 133 144 140 145 145 151 153 152 151 149 138 142 143 144 142 140 139 143 138 146 137 139 137 141 142 137 134 134 134 131 138 136 134 130 132 131 132 129 125 127 124 125 124 123 124 128 135 136 135 127 123 123 121 118 116 117 114 116 115 116 115 118 110 112 108 107 103 99 100 102 97 95 93 89 90 
133 142 139 138 136 134 137 141 142 148 152 150 152 146 147 149 144 147 147 146 149 147 151 147 147 147 139 143 144 145 143 140 136 140 136 140 139 136 136 135 139 136 134 134 131 129 127 127 128 124 130 134 139 137 129 125 125 122 126 118 116 115 116 114 119 116 118 113 112 111 107 106 103 103 105 100 102 95 91 91 
138 143 144 142 138 133 139 143 147 148 150 149 150 150 149 148 145 148 148 147 149 149 148 148 149 147 145 144 143 143 144 140 138 142 140 138 140 139 140 140 143 138 139 139 137 138 133 134 132 130 135 138 142 136 132 126 127 127 129 122 118 119 117 119 119 121 117 118 117 112 109 110 108 107 106 104 100 99 96 92 
139 142 140 142 138 135 139 144 144 148 147 149 154 150 146 148 147 148 147 144 147 150 147 149 151 150 142 144 145 145 142 144 144 144 141 141 143 141 137 141 140 140 143 141 138 143 140 139 138 138 140 140 149 138 134 127 128 124 129 120 123 117 120 123 124 119 119 119 117 112 118 112 109 105 109 107 104 103 94 92 
141 140 144 142 141 133 140 143 143 147 149 150 151 151 150 145 147 146 148 143 149 149 149 145 152 150 147 146 145 145 146 143 142 145 146 141 143 144 144 140 140 141 143 142 140 142 139 142 144 141 144 144 149 145 138 133 134 129 128 126 122 123 122 122 119 125 124 120 122 115 115 117 111 111 112 109 103 100 95 94 
136 136 139 143 136 136 142 145 144 149 148 150 149 150 150 143 144 145 145 147 146 143 148 148 149 150 145 144 141 141 140 142 142 141 141 137 137 146 145 142 138 141 143 145 141 142 140 142 143 145 147 147 154 146 137 133 133 132 128 128 127 126 122 122 123 125 121 122 119 117 114 117 110 112 115 106 108 99 98 98 
134 138 140 141 138 130 142 146 144 146 145 146 144 146 144 148 145 142 141 146 144 144 146 145 143 145 143 142 144 139 141 139 141 141 138 137 136 141 143 137 139 140 141 141 140 137 141 137 141 151 154 153 157 152 140 137 137 133 132 130 128 127 126 125 124 124 125 123 121 118 116 114 114 117 115 113 108 103 99 99 
132 137 142 137 139 136 140 135 137 139 139 142 141 141 138 141 138 133 134 135 136 139 138 137 137 140 137 138 137 140 133 137 135 139 138 133 142 141 138 137 139 136 140 138 136 139 137 137 142 151 153 153 159 156 145 142 140 139 135 137 134 134 132 126 126 127 129 125 122 119 117 117 115 114 117 106 111 104 100 99 
133 137 141 141 138 134 140 133 128 130 129 129 128 125 132 130 129 121 117 116 119 123 120 118 121 123 124 126 122 123 124 121 122 123 123 124 125 126 127 129 133 130 135 130 137 136 136 131 141 147 149 155 156 154 146 142 141 136 139 137 135 133 131 131 132 133 136 132 123 122 119 120 118 117 118 113 108 110 103 100 
133 141 139 136 137 132 135 127 127 124 126 120 119 121 124 124 119 116 111 110 114 115 112 111 113 116 117 112 111 113 110 110 105 108 106 105 108 109 108 111 111 113 114 116 117 122 122 128 127 138 139 141 146 151 141 137 136 137 138 134 135 133 133 130 131 135 132 133 131 124 123 122 124 121 123 116 109 111 103 102 
134 135 137 136 134 131 132 125 122 122 122 117 117 115 118 117 110 111 106 112 112 110 112 110 114 115 112 108 108 106 106 101 101 104 106 102 105 108 107 104 105 106 106 108 105 110 107 111 111 115 117 120 128 137 135 133 134 135 138 132 133 131 129 128 131 133 132 132 127 123 122 123 120 120 124 117 115 111 105 102 
136 139 134 135 137 135 130 122 118 117 115 114 115 115 114 112 105 109 106 109 112 110 112 107 110 109 106 108 104 104 105 101 99 103 100 103 101 103 102 100 101 100 105 101 102 103 106 105 106 110 110 112 115 116 131 133 135 135 136 133 130 128 126 127 131 130 130 129 128 125 124 124 124 125 122 118 113 116 110 103 
131 139 136 134 133 129 130 121 114 115 114 109 111 112 111 108 107 108 108 108 105 109 108 107 109 112 108 106 103 103 100 100 95 98 100 96 102 101 100 100 100 98 101 101 97 101 100 102 104 105 105 108 111 111 126 130 135 134 131 131 132 126 126 128 127 128 128 128 126 123 121 122 120 122 122 117 114 112 109 101 
130 137 135 131 131 128 124 116 105 107 106 108 108 106 107 106 105 104 106 107 107 109 107 110 111 110 106 108 104 102 99 97 98 97 98 94 98 100 94 99 95 97 98 97 97 98 99 99 102 102 103 104 110 109 122 131 134 131 131 128 127 126 127 127 125 126 124 124 122 119 121 123 121 120 123 120 113 109 105 105 
132 133 134 133 132 131 126 113 106 104 105 104 104 103 102 104 104 107 106 107 105 106 107 105 108 104 104 104 103 103 99 98 94 96 100 95 97 100 96 93 94 96 100 97 97 93 95 97 100 100 99 103 108 109 124 129 130 131 127 128 123 124 123 123 126 126 122 122 118 118 117 119 117 117 126 115 112 110 106 101 
126 134 133 135 131 131 121 112 107 104 103 105 102 102 105 102 103 102 101 105 102 104 106 103 105 107 101 101 102 97 96 95 95 95 96 98 95 94 96 93 94 95 94 94 94 95 95 94 98 101 98 101 107 108 122 131 129 129 129 126 122 122 119 122 123 125 120 119 118 119 115 120 115 115 119 113 113 108 105 103 
127 132 130 131 127 125 119 109 106 101 101 97 100 104 103 101 100 104 102 104 104 101 103 101 101 103 101 100 101 98 96 97 96 95 92 95 96 97 98 93 95 94 94 95 94 94 95 94 98 98 96 99 108 106 126 129 133 129 127 125 122 123 119 120 119 122 116 118 119 116 116 118 118 119 120 116 113 111 103 100 
123 126 129 130 130 123 115 109 99 102 100 97 101 100 103 98 100 102 101 103 102 100 98 99 98 105 98 95 97 98 96 96 89 92 94 94 97 95 94 94 94 96 94 95 92 95 95 95 94 94 97 98 102 105 125 131 132 129 127 129 121 124 118 116 120 120 115 121 118 118 114 116 116 117 118 112 111 112 104 101 
118 127 130 123 128 122 115 102 101 100 98 99 100 97 99 98 96 99 100 99 100 101 99 97 97 100 100 100 92 94 92 95 92 88 93 92 92 94 93 93 93 92 94 97 91 92 93 92 90 94 94 95 99 103 125 126 128 121 125 124 123 123 118 118 116 119 116 117 117 115 116 114 116 119 118 114 112 107 104 103 
115 120 129 123 121 117 107 102 98 97 95 100 99 97 96 100 96 95 96 98 95 102 97 97 102 102 98 94 96 94 93 89 89 90 89 93 92 95 94 93 96 93 93 93 91 90 89 91 89 94 93 95 97 101 120 124 123 121 124 121 118 115 117 117 120 117 115 115 115 112 112 116 116 116 115 110 107 106 103 101 
114 117 123 122 121 112 110 101 97 98 99 98 95 95 98 95 94 93 97 98 96 100 97 97 98 102 100 101 95 92 89 88 88 89 91 90 88 93 92 92 93 92 94 92 91 91 88 90 89 90 93 92 94 101 120 125 123 125 121 120 115 114 114 117 115 116 112 118 114 111 113 117 112 118 118 110 110 106 101 104 
111 120 123 117 120 111 106 97 96 95 96 97 98 95 95 97 96 93 93 97 97 99 101 96 96 104 105 102 97 94 92 87 87 87 92 85 90 92 92 91 91 94 94 92 91 90 91 90 89 88 91 90 91 97 119 123 129 125 122 120 120 117 116 116 112 114 110 113 111 108 113 113 115 111 113 110 110 105 100 100 
113 116 116 118 119 112 103 99 93 95 93 96 95 95 93 94 94 92 93 93 94 95 97 96 95 96 102 100 94 89 91 91 89 88 90 86 91 89 84 80 77 81 85 88 88 90 90 89 87 90 87 87 90 95 116 125 123 123 121 119 117 117 116 114 114 115 112 114 114 110 110 115 113 114 111 106 106 107 99 101 
108 113 114 118 114 108 99 99 94 96 93 93 96 94 94 91 89 92 91 90 93 94 91 92 96 93 88 91 88 90 89 90 91 88 85 83 80 80 73 73 72 76 76 75 81 85 89 87 85 87 84 89 89 97 119 122 118 118 117 116 116 116 116 112 113 119 113 114 112 111 110 115 110 110 110 104 104 103 98 97 
107 112 114 115 113 102 100 96 91 93 93 92 92 90 90 88 87 89 89 91 91 89 89 89 90 84 85 84 83 83 87 89 88 86 84 75 75 77 76 70 73 72 70 74 76 78 81 85 84 83 85 86 87 96 114 119 117 115 116 111 112 113 112 113 114 114 113 112 115 112 111 110 107 110 108 103 101 101 93 91 
105 112 112 112 111 101 99 92 91 93 91 91 93 93 91 88 89 86 89 88 87 89 90 88 85 84 83 82 81 83 85 83 84 80 75 73 78 75 75 74 76 75 72 74 77 75 76 80 81 82 81 83 83 95 117 118 116 116 110 113 111 116 111 110 112 115 115 112 113 110 111 113 109 105 108 107 104 101 96 95 
105 108 109 110 107 98 94 94 90 94 90 93 93 90 91 89 88 86 89 89 89 88 88 84 83 81 81 81 81 82 83 88 83 77 75 75 79 76 78 73 78 74 75 75 74 73 74 75 77 80 81 83 83 95 112 115 116 110 111 110 108 110 110 111 111 112 114 111 111 108 109 109 108 107 106 102 101 103 93 96 
99 108 107 107 100 91 92 91 87 90 91 88 92 89 88 88 87 87 84 86 85 88 86 83 81 81 83 82 83 87 92 90 88 82 77 75 77 74 75 71 75 74 77 72 74 74 77 75 74 79 79 80 81 99 111 114 109 110 109 107 107 109 106 108 107 109 107 105 109 105 104 109 108 104 106 101 99 94 91 92 
96 104 100 100 96 85 92 90 88 87 88 90 92 88 86 83 84 88 86 86 85 85 87 84 84 86 80 89 104 110 106 105 101 105 93 78 73 73 71 73 74 73 74 74 72 72 74 75 74 80 78 79 77 97 108 109 106 106 103 107 102 105 107 107 105 107 104 106 106 103 106 103 102 101 99 96 99 98 87 91 
96 100 100 94 89 86 89 90 89 87 86 90 92 87 89 84 83 87 85 86 86 86 83 82 83 85 90 104 110 108 109 102 106 108 105 98 75 72 70 69 71 71 67 68 69 71 71 74 74 80 78 77 76 97 108 103 101 101 101 102 102 102 103 102 105 103 100 102 104 103 101 103 102 98 98 95 97 93 86 82 
90 97 97 92 89 85 88 86 91 88 86 87 87 88 84 85 85 85 85 86 84 84 82 83 83 88 97 106 108 103 106 99 104 107 104 102 90 72 70 69 69 71 69 65 69 71 69 71 75 75 77 77 80 98 105 101 101 99 96 94 98 98 101 99 100 100 99 101 100 99 100 96 94 95 98 88 94 93 82 85 
89 94 94 89 85 82 88 85 87 86 88 85 87 85 85 84 83 87 82 83 83 83 84 82 82 95 99 98 100 102 98 93 95 100 99 100 94 79 71 73 75 69 71 68 66 69 70 72 73 74 75 76 78 97 101 96 97 98 98 93 95 96 98 97 98 96 92 94 94 97 97 94 92 91 92 91 92 89 81 81 
85 90 89 86 77 82 84 87 82 85 86 85 86 83 83 84 84 82 84 84 83 82 84 83 85 97 102 98 99 94 95 93 89 96 96 95 94 81 71 72 75 71 67 68 66 66 70 71 74 75 70 72 78 90 90 89 99 99 99 98 96 98 96 94 94 95 93 94 93 89 95 90 89 89 88 87 85 84 76 73 
83 86 85 83 77 76 80 85 81 85 84 84 85 83 85 83 83 81 83 81 83 81 84 81 85 92 92 92 93 90 92 89 87 93 93 91 87 79 72 69 74 69 69 66 68 68 68 70 69 70 71 71 75 78 73 75 93 96 98 93 96 92 91 90 91 91 87 91 88 88 87 87 81 82 83 79 76 82 72 71 
81 83 83 77 72 76 76 79 83 81 84 80 84 83 82 81 78 81 81 79 81 82 83 80 84 88 92 90 91 90 84 88 86 83 86 85 82 74 76 71 71 72 71 66 65 68 67 65 71 68 72 74 74 83 84 88 93 93 92 89 88 90 91 87 86 87 85 85 80 80 82 80 76 78 75 75 73 74 72 66 
77 81 81 73 70 74 81 81 82 79 83 82 82 83 84 80 82 78 82 79 80 83 81 82 84 84 84 87 88 85 83 80 80 80 82 81 78 70 69 70 69 70 68 69 68 67 66 70 69 69 68 70 69 80 84 85 89 87 90 83 83 82 86 81 81 82 77 80 78 76 80 74 77 71 73 71 70 68 65 65 
72 79 80 75 69 73 79 79 78 77 82 85 84 82 81 81 82 79 81 79 80 82 80 80 83 82 83 82 80 81 83 79 79 79 78 74 73 67 68 69 68 70 65 67 67 65 65 67 67 69 65 65 64 72 80 85 90 87 83 84 80 81 84 78 79 78 74 76 77 75 75 75 71 70 68 65 65 65 61 59 
72 74 75 69 69 72 78 80 81 82 80 83 83 81 79 79 78 77 78 74 81 78 78 79 82 81 80 79 77 80 75 77 76 74 73 70 69 71 68 66 66 68 64 68 69 67 65 64 65 65 65 63 62 57 74 81 86 83 82 81 81 81 82 75 76 77 75 77 70 72 73 69 68 66 65 61 63 61 58 57 
65 73 71 68 69 70 77 79 80 79 79 81 81 77 80 78 77 76 80 76 75 77 78 78 81 81 78 80 74 75 74 73 73 71 70 66 67 67 69 67 67 64 66 68 67 67 65 66 63 65 61 63 58 49 64 69 77 81 78 77 76 81 76 76 70 71 71 71 68 68 68 68 62 61 61 59 58 62 56 58 
68 72 69 63 70 71 78 78 76 79 81 82 82 77 81 77 77 75 77 74 78 76 77 76 77 77 79 75 73 73 71 70 69 71 72 69 70 68 66 65 69 65 65 66 70 68 65 64 63 66 61 61 51 38 35 43 60 75 75 74 78 76 77 73 67 66 63 69 69 68 67 63 62 59 58 55 56 58 50 50 
66 71 61 63 69 70 75 79 77 76 79 76 80 78 77 76 77 76 76 75 74 78 75 75 77 78 76 73 73 74 69 71 70 69 70 68 66 65 69 67 67 68 65 64 65 68 66 66 64 63 63 61 49 28 22 25 41 68 70 71 74 72 75 71 64 65 62 64 67 64 68 63 61 57 55 55 53 53 47 47 
65 68 66 60 65 68 75 74 74 76 80 78 80 74 76 76 70 74 75 77 75 77 74 74 74 73 71 73 73 71 68 69 67 68 71 69 69 67 66 65 63 68 66 67 64 65 66 67 66 67 65 60 46 21 15 18 25 54 65 66 67 71 67 64 62 61 58 62 62 65 65 63 57 51 52 53 50 51 47 45 
63 67 64 62 63 68 73 77 78 76 76 77 77 75 76 71 73 74 73 76 74 79 76 74 75 73 72 74 72 70 69 69 68 66 67 68 72 66 66 66 64 65 68 65 66 65 67 68 65 63 64 59 45 20 16 16 20 39 58 61 65 67 64 62 57 57 56 59 62 63 62 57 53 54 54 50 49 49 43 45 
61 61 60 60 62 68 72 76 75 74 75 76 76 74 78 74 71 74 73 74 77 75 74 72 73 74 73 69 69 72 67 67 66 66 66 67 71 67 65 66 66 65 66 66 68 69 69 68 64 62 63 56 41 13 9 17 16 24 46 56 59 64 58 61 55 54 53 57 61 58 60 53 53 50 51 49 48 50 41 40 
60 62 60 59 64 69 72 75 73 75 74 79 78 76 76 75 75 75 77 75 75 76 74 73 74 71 73 72 73 69 71 67 69 67 68 67 69 66 67 65 67 65 64 67 66 69 68 67 68 64 63 57 35 9 3 6 3 13 37 53 58 60 58 58 53 54 55 57 60 59 60 53 54 51 48 45 49 44 39 38 
55 57 56 59 67 69 75 73 75 76 77 79 77 72 77 79 76 75 76 78 75 77 73 75 77 75 75 72 72 71 69 66 70 65 70 65 67 69 67 67 69 70 69 71 68 70 68 66 67 65 61 56 33 12 5 4 3 6 22 47 53 56 54 56 50 50 50 54 55 56 54 52 53 49 46 44 43 44 41 35 
51 54 53 54 65 69 72 72 76 74 76 78 78 76 78 77 80 77 79 82 76 79 75 74 78 75 75 71 74 70 72 70 70 66 72 68 71 71 70 68 68 71 71 68 69 68 68 66 66 63 60 50 28 13 3 3 0 3 13 38 51 53 55 53 48 48 51 52 54 46 51 49 49 46 45 41 45 42 32 38 
49 54 53 58 67 68 73 74 74 72 74 74 78 73 81 80 80 79 79 76 78 79 76 76 75 77 74 73 72 74 72 69 68 68 69 69 68 68 70 67 68 67 74 69 68 71 69 70 69 65 63 47 28 8 2 4 2 2 9 27 48 52 53 53 46 49 47 50 51 47 47 48 45 40 41 43 40 35 33 34 
42 55 56 57 65 65 73 73 73 75 72 76 78 73 78 79 76 77 76 77 76 76 74 74 77 73 74 74 71 70 68 68 66 64 70 66 68 66 69 64 67 66 71 66 68 70 69 70 68 64 58 53 26 9 2 0 0 0 6 16 42 47 51 44 46 46 46 48 42 43 46 46 42 39 37 37 39 36 32 25 
39 55 50 57 64 66 74 73 70 71 75 77 76 74 77 73 78 73 75 73 73 74 73 74 76 76 72 71 73 69 70 66 65 66 67 65 69 69 69 62 68 66 67 65 69 69 68 71 67 64 60 54 29 13 0 1 0 4 4 10 28 44 47 46 45 47 44 46 41 39 37 41 37 36 38 36 37 34 27 28 
43 52 54 57 65 64 68 73 72 71 74 70 75 72 74 75 72 73 71 72 75 73 72 77 74 76 71 68 67 69 69 67 66 67 69 66 68 68 68 65 66 64 69 67 70 72 72 71 67 64 60 53 28 12 2 0 3 2 5 10 23 42 43 42 42 43 43 44 41 37 38 40 38 33 36 35 38 36 30 24 
45 58 54 61 67 65 71 73 74 72 68 73 73 71 74 76 75 72 73 71 74 75 70 73 74 73 72 65 67 67 65 67 63 65 66 64 66 68 66 64 66 65 64 63 67 72 69 70 67 62 61 50 28 16 4 2 1 5 8 9 17 30 39 39 41 41 42 40 39 37 38 36 35 33 32 31 36 35 27 29 
48 54 57 61 64 65 72 71 72 69 73 75 73 68 73 71 68 72 72 72 72 71 71 68 71 72 67 65 63 65 67 62 65 64 64 65 65 65 63 65 65 65 65 66 66 68 65 64 65 63 61 51 28 18 11 5 5 3 10 11 16 28 36 40 42 41 42 42 43 38 36 36 37 31 30 29 32 29 27 22 
50 57 56 62 66 67 69 69 74 71 70 72 70 68 70 70 70 66 69 70 68 68 67 71 69 69 67 63 63 63 64 62 64 62 61 62 64 65 63 62 66 66 66 67 65 70 65 66 64 62 59 49 34 23 15 13 12 8 13 11 15 26 32 38 40 41 41 44 41 38 37 35 31 30 29 27 27 30 23 24 
50 57 58 61 63 63 68 70 68 69 71 70 69 70 66 72 66 65 67 67 66 70 71 68 70 66 64 62 61 62 60 61 60 60 64 61 62 63 64 63 64 65 69 64 68 65 66 65 61 62 58 49 37 28 18 18 16 12 14 15 20 29 34 37 39 38 41 38 40 37 37 38 32 32 28 27 27 24 24 17 
55 59 60 64 64 65 71 66 71 68 73 70 69 70 66 69 67 66 68 68 69 66 68 68 68 66 64 64 62 61 63 59 62 62 60 62 65 63 64 61 62 65 65 65 65 66 64 60 62 57 56 48 38 30 22 18 18 18 17 20 23 31 34 37 38 39 40 43 40 36 34 33 32 29 27 27 25 22 18 19 
54 62 62 65 66 64 69 68 67 69 67 65 69 67 67 68 66 68 67 70 68 70 70 68 67 68 65 62 64 63 58 61 60 57 61 63 61 64 64 59 61 66 65 65 60 63 61 60 62 57 54 43 35 29 21 20 19 18 21 25 30 34 35 34 41 37 41 40 40 35 35 33 29 27 26 23 25 23 18 17 
55 61 60 64 67 65 71 68 69 66 68 67 67 68 69 66 65 66 67 66 66 66 66 68 71 68 66 62 61 62 59 61 63 60 60 62 66 65 64 64 62 65 64 64 63 63 61 65 62 60 56 46 37 30 19 22 20 18 22 26 33 34 36 33 37 35 36 37 35 32 31 29 29 22 25 21 21 20 13 12 
63 65 63 64 67 67 74 72 68 73 70 73 68 67 66 67 66 69 66 68 67 67 68 69 70 67 65 65 63 62 57 60 62 59 63 62 64 67 66 64 67 65 64 64 64 64 64 65 66 62 57 43 36 32 25 21 21 23 24 31 35 35 33 31 35 36 36 34 29 29 23 26 27 23 24 21 21 22 15 15 
69 64 63 69 66 66 75 73 70 74 72 67 70 66 66 64 64 67 68 69 72 68 73 66 71 72 69 67 61 64 58 63 64 59 63 63 63 66 66 65 69 66 68 67 62 63 62 62 61 63 52 41 35 30 21 23 21 23 25 31 37 35 31 32 38 32 34 28 27 22 28 24 26 22 26 22 23 20 17 16 


