P2
80 60
228
78 78 86 85 83 84 85 89 84 85 86 87 89 89 85 88 89 87 88 86 84 91 86 87 83 80 79 76 83 83 87 84 81 85 86 90 101 107 108 106 108 109 118 123 124 122 125 125 120 126 127 134 134 130 133 134 129 129 124 123 113 115 114 114 110 106 110 104 101 97 93 95 98 95 96 85 82 79 74 78 
83 79 81 88 87 88 84 91 89 89 86 87 88 91 90 88 89 88 83 88 88 88 90 88 88 81 83 81 84 81 82 83 86 89 90 94 97 102 106 103 101 105 109 120 125 125 126 129 127 131 133 137 135 135 134 134 132 129 127 126 121 120 120 120 115 114 115 109 113 106 100 101 100 94 93 84 83 79 78 76 
86 87 84 88 87 86 89 89 88 88 86 82 85 91 89 89 90 89 88 89 89 88 88 88 88 84 85 83 81 84 81 84 85 89 93 91 97 103 106 104 100 102 107 109 123 132 134 132 132 135 138 141 143 136 137 140 136 130 130 131 124 120 123 120 116 111 118 112 115 107 106 105 103 97 95 92 85 85 82 77 
86 85 87 87 87 83 85 93 90 88 91 88 86 89 86 89 85 88 89 86 87 89 91 87 89 84 86 83 81 80 84 80 83 87 91 93 93 100 103 100 98 102 104 106 112 122 136 139 141 142 144 146 141 140 142 141 135 133 131 127 123 123 122 125 116 118 118 116 114 112 104 105 103 99 96 93 91 85 87 79 
88 86 86 87 90 86 86 90 86 84 87 88 90 88 88 89 89 91 88 88 88 93 91 90 88 85 81 84 81 84 82 81 84 86 88 89 90 94 99 99 96 96 100 106 110 112 131 142 144 146 146 150 145 143 144 145 140 136 133 132 127 120 123 125 116 118 118 118 116 111 109 103 102 101 102 93 86 87 85 81 
89 90 89 88 92 86 89 90 91 90 89 90 92 93 89 90 87 89 86 87 88 94 96 92 91 84 89 86 82 84 82 83 87 85 90 92 90 89 95 97 95 98 98 104 108 111 126 142 149 151 149 155 150 147 148 143 141 141 134 135 129 124 125 126 120 120 118 117 115 114 105 109 111 105 104 95 89 89 86 82 
94 90 91 91 87 88 86 88 90 85 90 86 92 92 87 91 89 90 92 88 88 92 93 90 89 85 88 82 81 82 83 84 82 88 88 89 90 92 92 91 91 96 95 104 105 108 125 142 153 158 157 157 153 148 148 147 142 140 135 135 131 126 126 126 123 122 121 119 117 112 112 109 114 107 105 97 90 94 89 85 
89 87 93 88 89 85 89 88 90 91 87 91 91 88 90 94 89 90 88 89 89 92 92 90 91 86 84 88 86 83 85 86 84 86 87 89 94 91 93 90 92 95 95 102 107 108 127 145 155 158 162 161 159 157 151 149 144 142 141 139 133 127 129 128 123 125 123 121 120 115 111 111 113 110 111 102 97 96 92 86 
92 88 91 90 90 89 83 86 86 90 89 88 90 90 93 93 90 93 91 90 91 93 93 90 88 86 90 85 83 83 85 86 83 83 89 89 88 86 88 90 92 91 93 99 103 110 132 144 154 158 162 162 154 154 153 153 148 148 145 144 140 132 136 131 128 127 127 122 121 116 115 118 117 111 106 102 100 98 93 92 
90 87 87 92 92 88 84 90 88 93 88 90 91 90 90 89 89 93 91 91 94 90 93 89 88 84 88 83 86 81 83 83 88 84 89 88 89 87 85 86 89 92 95 102 100 113 137 144 158 161 160 162 155 157 153 150 151 146 142 144 138 135 135 132 128 135 131 127 125 123 123 120 120 115 110 102 99 96 96 97 
89 88 92 91 90 88 86 94 88 89 89 93 90 92 91 92 91 92 92 90 95 90 92 89 87 87 87 81 85 81 83 82 88 78 84 86 86 88 89 92 87 95 95 99 101 110 138 148 154 159 157 160 155 156 150 150 147 143 143 140 135 132 134 135 129 132 135 130 125 125 122 125 122 120 119 111 108 105 101 96 
91 90 91 91 91 90 93 90 92 94 91 95 91 93 91 93 90 92 89 91 93 89 92 88 87 87 86 81 82 81 84 81 81 84 86 85 87 90 88 88 94 97 96 98 100 108 140 148 155 154 157 158 154 155 151 149 148 142 143 134 129 132 134 132 124 130 131 127 124 123 121 121 118 115 118 112 108 111 103 97 
88 89 94 93 94 89 89 94 92 93 93 89 93 92 92 91 90 87 92 93 91 92 91 88 88 86 84 82 84 81 85 79 82 83 85 86 88 90 89 92 92 95 96 98 98 112 138 147 154 158 160 160 155 153 151 149 148 144 143 136 131 128 132 132 122 127 125 123 124 122 121 120 118 118 118 111 110 110 102 101 
93 92 90 90 89 93 87 92 93 93 93 89 91 94 89 91 89 92 86 89 90 93 92 91 88 85 84 79 79 82 78 79 80 84 84 85 89 90 91 89 90 95 95 98 93 113 137 149 154 157 158 157 155 155 151 148 144 140 140 132 131 129 130 128 119 126 126 122 122 123 120 118 120 113 115 112 111 110 102 98 
93 92 93 92 90 93 92 92 91 92 91 94 91 91 90 92 91 93 89 92 88 89 90 89 83 83 80 79 78 82 81 77 78 79 83 86 86 88 93 90 89 94 91 98 95 113 141 150 155 156 156 157 154 153 149 146 144 141 139 134 130 127 131 128 119 124 122 123 122 115 118 120 118 113 113 114 108 114 108 100 
96 92 94 94 91 94 91 92 96 95 90 93 94 95 95 93 91 91 91 93 89 94 90 88 85 83 81 82 79 80 79 79 81 81 83 85 85 85 86 90 89 92 92 91 92 113 139 149 155 156 156 156 150 152 150 147 142 141 139 135 131 127 135 130 119 126 123 121 120 118 117 116 120 115 114 111 110 112 104 101 
93 92 91 93 93 91 93 90 92 92 93 94 92 91 91 91 90 91 89 90 88 91 90 92 87 82 80 81 82 78 80 77 80 80 84 85 83 85 87 94 91 95 91 91 94 115 137 150 152 153 155 153 150 154 149 147 143 140 138 134 127 127 132 126 115 123 123 119 117 116 115 118 117 116 114 110 106 112 102 96 
93 90 93 94 93 93 92 95 93 92 92 89 89 89 87 94 90 90 89 87 88 90 89 90 90 86 79 79 81 79 76 78 78 81 83 82 82 84 86 91 92 90 90 93 94 116 136 148 153 152 153 152 149 151 152 147 144 140 141 135 130 126 132 128 114 123 124 117 118 115 119 115 117 113 113 110 106 109 104 100 
92 90 89 93 93 89 89 95 92 92 94 93 95 89 90 93 90 90 89 91 89 92 87 89 89 85 81 78 82 78 81 79 83 85 85 82 84 82 83 95 88 90 92 92 90 122 137 148 150 149 148 150 148 143 143 143 140 140 137 133 129 127 130 127 114 123 123 118 113 117 116 113 116 112 112 111 104 108 103 100 
94 89 90 91 89 89 90 96 89 91 91 92 89 86 90 89 93 90 86 89 87 89 89 85 86 83 81 76 81 78 80 78 79 89 88 83 83 82 83 91 89 90 91 90 92 117 135 148 149 150 152 150 148 139 144 138 137 137 129 127 124 125 132 122 112 121 120 118 116 116 116 115 117 111 110 110 105 107 100 97 
90 90 91 90 89 89 90 92 89 88 91 91 92 89 89 90 91 89 87 90 88 90 90 87 82 79 78 78 79 77 76 78 80 81 85 81 80 82 80 87 84 90 87 89 92 113 132 142 148 148 148 146 144 140 143 143 140 139 131 128 123 123 130 121 113 117 120 114 112 118 113 112 114 111 110 106 103 106 99 99 
91 90 92 92 88 90 89 93 89 89 90 89 92 90 89 89 87 91 86 89 88 90 90 83 80 80 80 77 80 78 78 75 76 77 80 80 82 79 79 80 81 86 85 85 89 120 129 139 144 145 144 147 142 144 142 141 136 133 131 127 125 122 126 121 114 117 121 115 111 110 114 111 110 113 109 105 100 105 101 97 
94 90 91 90 87 88 92 90 90 88 91 89 90 91 88 88 87 89 87 89 87 89 87 88 82 77 83 82 104 115 103 83 73 75 77 76 75 75 76 77 75 77 80 83 87 115 126 139 145 144 142 145 144 142 139 138 133 133 129 127 119 121 123 120 117 118 120 112 114 114 114 111 109 110 107 101 101 104 100 95 
94 92 92 90 87 88 91 94 90 90 88 93 88 89 84 87 87 87 87 84 85 86 85 84 79 78 84 105 140 143 138 113 81 75 77 71 75 74 73 74 73 74 75 83 87 113 122 138 142 143 142 142 142 138 138 132 132 132 128 119 117 121 122 116 117 119 119 112 110 115 112 107 105 106 106 103 103 101 102 94 
91 92 91 92 91 92 91 91 90 90 89 91 92 89 89 90 88 87 85 85 85 87 81 78 83 83 109 138 143 139 139 135 106 85 76 82 71 69 67 76 70 68 72 79 83 114 121 133 138 141 139 140 139 139 135 130 126 123 124 114 116 118 123 116 118 115 119 116 113 111 112 108 109 105 107 103 102 100 94 95 
89 87 92 91 94 92 90 91 92 94 88 89 93 86 89 89 88 88 85 85 85 84 85 86 83 93 140 140 134 130 134 134 124 86 75 71 69 71 68 71 72 70 72 74 83 111 117 129 134 134 137 137 137 139 136 129 122 124 120 115 115 116 119 116 112 114 115 108 108 111 113 106 110 106 105 103 98 98 91 90 
91 90 91 89 90 93 92 90 91 89 90 91 91 91 89 84 86 86 84 86 85 83 82 83 87 119 154 141 118 116 110 110 110 93 80 72 66 72 73 74 68 71 69 72 82 111 117 128 131 132 131 133 139 135 132 128 122 118 118 116 115 113 116 111 110 110 115 109 109 110 109 110 104 103 102 98 94 92 89 85 
91 90 94 89 90 88 90 94 92 91 89 90 91 91 87 87 86 87 84 83 84 83 81 80 94 145 149 128 119 116 114 112 117 112 76 71 70 73 72 69 71 72 72 75 79 109 114 132 126 127 126 132 131 131 131 130 122 119 115 113 109 113 114 105 107 112 112 108 107 107 106 106 107 97 95 92 93 92 85 85 
89 86 86 86 89 88 89 89 92 89 87 90 92 89 84 86 85 87 84 82 87 85 79 81 108 156 147 122 133 137 135 135 137 127 83 70 73 71 69 68 66 74 72 70 81 106 117 127 126 126 125 130 126 129 124 119 115 120 114 108 107 109 110 108 110 108 109 108 106 101 105 106 100 96 95 96 92 89 82 75 
91 84 86 88 87 89 90 93 89 93 92 90 93 92 91 88 82 86 85 82 87 85 83 79 113 163 136 118 135 142 145 138 138 135 86 74 69 70 72 70 68 69 71 71 80 106 111 119 121 123 121 126 128 125 120 117 115 114 108 104 110 107 107 103 103 106 104 104 104 101 98 99 98 98 97 93 90 87 80 79 
88 87 87 91 86 90 85 90 92 88 89 92 90 88 86 83 86 83 81 83 84 83 83 84 128 159 125 117 133 141 141 139 138 135 88 72 71 69 70 66 72 69 71 72 80 104 110 116 120 122 118 121 122 121 113 111 112 110 105 102 104 104 103 99 107 102 100 98 103 99 96 94 96 92 94 91 88 88 76 70 
87 83 89 89 88 87 92 93 92 89 88 90 90 87 83 87 86 85 87 84 84 84 86 90 136 138 124 121 131 139 142 138 139 131 87 72 68 72 67 68 68 73 67 73 77 96 97 93 108 109 111 114 118 118 114 109 109 109 104 100 101 102 102 95 105 101 99 98 97 96 94 90 94 91 86 86 83 81 75 66 
86 85 86 87 90 89 92 92 89 89 88 88 88 83 85 84 82 83 83 85 83 81 82 87 116 119 121 117 126 135 135 134 143 142 87 71 69 69 68 67 65 67 68 69 76 91 90 78 83 84 87 96 102 106 111 117 111 111 102 101 99 103 101 90 100 94 94 92 94 92 86 88 93 82 81 79 77 79 69 68 
86 82 86 85 91 90 88 92 91 87 88 88 89 87 85 83 84 86 80 85 85 85 85 84 103 117 118 119 128 134 136 144 178 167 87 69 68 69 69 70 65 67 67 71 77 89 80 70 69 70 73 78 83 94 99 115 111 111 102 99 95 101 99 91 94 92 92 90 93 90 87 83 88 79 78 75 72 71 63 61 
85 85 85 88 89 89 91 91 89 90 86 92 87 88 85 86 84 83 82 85 84 85 84 83 99 112 119 116 129 137 153 200 222 153 85 72 69 71 73 72 67 62 62 68 74 82 74 66 62 60 67 69 84 98 105 109 106 110 99 96 92 97 93 84 92 88 87 87 84 84 85 80 85 78 74 68 68 66 63 64 
86 87 86 87 88 88 89 91 87 88 83 92 87 88 86 84 82 85 82 84 83 82 79 80 92 111 119 119 128 149 204 228 206 116 81 72 72 74 72 67 65 65 60 71 78 78 66 59 55 54 56 64 83 100 104 104 103 101 97 91 93 91 85 80 87 87 86 81 80 80 78 75 79 68 68 67 62 63 58 51 
89 84 87 88 89 88 91 89 88 87 87 91 89 90 87 85 84 83 82 82 82 83 78 79 86 113 122 124 152 203 210 206 167 91 75 69 72 72 65 69 63 61 58 70 71 71 60 55 49 51 54 60 72 94 104 103 99 98 93 86 87 88 81 78 83 83 83 76 74 73 76 67 69 65 61 60 63 61 49 49 
87 86 87 89 89 89 87 90 88 88 87 89 89 87 87 86 85 86 84 80 82 82 79 79 82 125 189 200 206 215 215 188 112 79 73 68 69 68 66 66 57 62 63 67 67 61 55 46 41 41 42 51 62 90 95 100 95 95 93 87 85 88 79 76 86 79 80 74 75 73 70 71 68 59 57 56 57 49 48 47 
84 86 84 86 89 89 91 89 90 87 89 90 87 90 84 85 83 84 83 82 79 80 79 73 77 94 170 212 217 211 187 113 78 70 64 70 69 66 62 63 64 63 64 63 63 54 51 41 36 37 35 40 50 72 87 92 89 89 83 82 82 83 78 73 82 76 73 71 69 72 66 68 65 60 56 54 53 48 45 43 
88 85 86 87 86 88 89 89 87 85 87 86 87 86 83 83 82 81 79 81 78 77 75 73 74 76 96 151 177 149 100 78 66 69 66 67 68 66 66 64 59 60 58 63 59 54 44 39 31 33 32 32 36 47 56 76 89 87 89 83 81 81 73 67 73 70 69 67 67 71 65 64 65 55 53 55 52 47 42 41 
87 87 84 87 87 87 90 89 89 85 85 86 85 87 83 83 84 82 81 78 78 79 79 78 75 75 75 81 85 78 73 67 66 64 63 68 70 68 65 62 64 62 57 63 58 48 45 39 29 27 27 25 28 34 39 54 79 79 81 79 77 77 70 67 70 64 67 64 63 66 63 61 60 54 49 49 50 45 38 35 
90 84 85 88 89 87 88 84 85 86 87 88 86 82 80 82 83 79 80 77 79 77 78 78 77 72 72 69 71 65 63 64 67 67 66 70 66 69 66 63 63 60 59 63 53 47 38 36 35 34 25 20 21 24 29 37 69 79 77 74 73 75 67 61 67 66 65 64 65 67 63 57 58 51 49 47 44 44 36 35 
91 87 88 90 88 92 89 89 86 83 85 83 84 86 82 84 82 79 77 77 78 78 78 77 78 71 70 66 66 60 64 63 63 63 64 68 65 65 68 61 63 62 58 64 57 47 35 37 35 29 24 22 23 24 27 33 51 70 72 71 70 70 59 59 65 63 64 63 61 62 57 57 55 45 47 45 44 42 35 32 
92 86 86 88 89 89 90 87 88 85 86 88 83 83 82 84 83 81 79 77 78 77 77 77 76 68 69 68 60 57 61 62 68 66 68 66 65 67 64 64 63 61 62 61 50 46 35 44 34 26 20 22 19 23 25 25 33 66 71 65 70 70 54 57 67 60 60 60 58 60 57 56 51 48 44 46 40 34 32 32 
90 85 89 88 88 88 88 88 90 86 88 85 85 82 83 84 83 80 79 80 81 76 76 76 73 71 72 66 61 60 60 60 65 68 67 70 65 64 62 65 64 64 62 58 48 44 38 42 38 25 21 21 16 20 22 18 27 55 65 65 64 68 56 59 64 55 60 56 57 57 52 52 53 41 39 42 37 29 30 23 
92 90 86 91 88 88 85 87 89 87 86 82 81 84 80 84 81 81 79 79 79 79 75 70 73 69 68 62 62 59 63 59 65 64 67 68 62 61 64 66 62 63 60 61 44 41 36 44 40 24 19 19 12 15 18 17 21 38 60 62 62 58 52 53 62 56 55 52 52 52 49 49 48 39 39 42 34 29 23 26 
91 87 88 90 90 87 89 90 89 87 84 84 83 83 78 83 82 79 81 80 79 78 74 75 71 67 69 64 65 59 65 61 62 64 64 63 62 65 61 65 59 65 64 62 45 41 34 42 39 31 19 19 16 14 14 14 17 24 53 59 59 58 49 52 57 50 53 53 53 49 47 45 43 38 41 35 30 28 20 18 
86 86 89 84 89 89 89 90 91 85 86 85 84 85 81 80 79 83 81 81 80 76 73 73 74 72 67 65 64 62 62 61 62 62 65 65 64 63 65 62 62 63 61 60 50 48 43 41 41 31 23 17 12 13 16 15 17 19 39 52 57 53 47 54 57 51 50 47 45 44 43 41 42 36 35 33 29 17 16 15 
89 82 90 87 89 85 87 91 87 88 84 82 80 82 78 81 80 80 78 81 78 78 78 76 75 70 67 65 65 61 63 61 60 63 64 64 64 64 62 65 61 62 59 56 49 44 45 39 36 30 25 17 14 16 13 13 15 15 29 52 56 52 46 49 55 48 47 42 41 39 42 37 41 34 34 33 26 17 19 17 
89 85 89 85 90 87 88 88 88 85 82 83 83 83 82 82 81 81 81 78 77 75 78 77 71 68 66 63 67 62 65 61 62 62 60 65 65 62 61 66 61 61 59 52 43 42 41 39 33 31 25 21 17 14 18 17 14 16 18 43 52 50 46 50 51 43 40 41 39 36 35 38 36 31 36 31 24 18 14 15 
91 89 86 92 86 89 89 88 86 83 84 83 84 83 79 82 79 81 77 78 80 78 77 72 73 67 64 64 67 59 60 61 61 60 62 61 66 61 61 62 62 59 59 44 39 37 36 38 27 26 24 21 20 15 15 13 18 17 13 29 53 44 43 44 47 42 41 34 33 37 34 36 33 33 29 27 21 15 14 8 
86 88 87 88 86 85 86 87 84 81 81 82 79 82 81 80 79 79 78 79 79 76 77 72 68 66 66 64 66 59 60 59 60 65 63 62 63 61 64 63 61 60 57 45 36 32 33 33 26 24 23 23 21 17 16 16 18 17 14 25 41 39 42 42 46 41 41 37 35 36 33 31 31 27 28 25 20 14 8 10 
87 87 84 89 85 84 82 87 86 80 82 80 81 82 77 77 74 78 80 78 78 79 75 73 70 67 67 63 63 59 62 57 64 65 65 64 63 61 61 62 60 58 59 45 37 35 32 30 25 25 27 26 25 19 22 18 17 22 19 23 35 39 42 43 43 39 39 35 37 35 33 29 28 29 29 18 16 15 7 8 
91 86 84 88 86 86 86 87 86 81 79 78 78 80 79 78 77 80 76 79 76 76 72 71 68 67 64 63 62 59 64 62 61 68 62 63 65 61 61 63 60 58 57 46 40 34 33 31 29 29 30 29 27 24 27 23 23 21 25 25 33 34 39 42 44 41 40 34 34 35 29 31 29 28 27 17 15 12 8 4 
92 88 90 89 84 84 84 83 83 81 80 80 82 79 75 77 76 79 78 72 76 77 75 71 67 66 61 63 62 59 61 60 65 65 65 66 63 62 61 61 59 55 54 46 41 36 35 31 31 32 36 34 28 28 29 27 28 26 27 34 36 37 40 46 45 40 38 35 35 31 30 28 28 25 24 19 13 11 1 0 
93 86 84 89 84 89 85 86 87 79 81 80 81 79 81 80 78 78 77 77 75 76 72 71 70 66 59 61 63 59 61 58 62 66 65 65 63 60 60 62 56 57 56 49 44 40 37 34 34 36 35 38 31 32 32 28 34 27 28 34 38 37 39 42 46 41 36 36 34 30 26 31 26 28 24 16 11 11 4 0 
98 91 93 91 91 88 87 88 83 82 79 81 81 81 82 79 78 76 75 74 76 75 75 71 69 67 63 62 57 56 62 58 63 63 63 66 66 64 58 61 60 57 54 50 48 43 41 36 35 38 38 39 38 35 32 30 36 31 36 39 41 35 43 43 43 37 37 34 34 31 27 28 22 25 23 15 10 9 2 7 
104 91 90 92 90 87 88 89 85 82 80 84 80 81 80 79 75 78 75 76 76 77 73 74 69 68 64 60 58 58 57 57 58 64 64 65 64 63 60 62 56 61 54 51 46 41 44 39 39 39 37 39 39 39 35 37 39 36 39 41 41 37 45 44 41 37 35 33 34 28 26 27 27 25 26 17 12 8 6 4 
105 101 93 92 90 90 90 89 87 83 82 81 83 80 78 78 78 77 73 79 77 79 75 75 73 68 67 62 63 57 58 58 57 65 65 65 66 66 65 65 61 60 54 48 46 41 43 39 39 45 43 40 37 39 36 35 36 40 44 43 40 29 45 44 39 35 36 32 30 30 28 23 27 26 23 18 15 8 4 8 
111 99 91 93 96 96 92 93 95 90 88 83 89 86 84 82 84 80 82 80 83 83 78 76 78 67 71 68 65 60 57 56 54 61 64 63 65 69 68 66 62 62 50 45 42 40 47 40 40 43 45 44 42 40 38 38 42 43 46 41 37 25 42 44 41 32 31 31 29 29 22 21 21 27 22 21 14 12 6 1 


