P2
80 60
171
133 136 132 134 137 143 144 141 141 145 142 143 141 140 136 139 136 132 133 131 126 127 124 123 123 125 124 118 118 119 119 120 122 124 126 128 126 129 125 124 123 120 123 122 120 121 123 118 117 119 116 116 122 122 121 124 116 114 110 105 103 99 102 100 104 98 99 90 88 91 89 86 84 81 79 78 75 78 69 74 
133 137 133 137 136 139 142 145 145 147 144 141 142 142 139 143 138 136 135 137 127 128 129 129 129 127 127 126 126 122 123 124 130 131 128 130 137 133 136 128 131 128 127 125 125 124 123 120 120 123 121 122 123 124 126 123 120 113 113 110 105 105 106 104 104 99 99 95 93 92 92 90 86 82 78 78 78 80 71 75 
131 130 133 136 138 137 142 144 144 146 146 142 140 143 140 143 141 141 134 134 130 130 129 131 130 129 132 132 127 125 126 126 136 137 137 136 140 139 139 140 139 137 136 135 133 135 127 126 128 127 123 126 126 122 127 128 119 115 114 110 108 103 108 103 107 102 101 98 99 94 91 92 92 87 85 81 77 80 71 79 
130 133 133 139 137 143 141 146 148 145 141 140 139 143 143 141 141 137 143 136 135 131 131 132 132 133 132 129 131 131 130 129 137 132 138 141 140 142 147 143 143 138 140 140 141 137 137 134 128 133 128 129 130 129 127 129 124 117 114 115 109 106 110 109 108 104 105 100 101 102 99 97 89 89 89 85 81 82 75 79 
131 132 135 136 138 140 142 145 146 146 145 141 141 144 140 142 139 138 143 135 134 129 133 127 129 133 133 133 128 130 130 128 136 136 141 142 140 140 145 140 144 142 144 142 141 142 140 137 135 131 132 134 131 134 133 131 129 122 115 119 112 112 111 109 109 106 105 101 102 101 99 98 96 92 92 85 82 84 75 78 
130 134 136 137 138 142 148 150 150 151 146 144 145 144 142 144 145 140 140 137 135 129 131 134 135 136 132 133 133 133 133 134 139 140 140 145 143 145 143 143 142 142 145 143 144 142 141 143 139 141 138 139 136 135 134 136 132 123 118 120 115 114 114 111 113 107 109 105 109 103 102 99 97 95 92 89 86 90 80 80 
130 137 137 138 138 144 146 148 152 151 149 150 144 146 144 147 143 145 142 140 133 135 133 131 135 138 133 134 132 132 133 134 137 138 143 144 141 142 144 142 143 140 144 145 142 141 138 146 148 143 141 144 138 143 138 141 132 126 126 122 118 116 114 112 111 110 112 109 108 107 103 99 100 98 97 91 89 90 80 78 
134 135 141 141 142 149 146 153 153 150 147 146 144 146 143 143 145 141 142 139 135 135 132 133 134 135 134 135 135 134 133 133 139 138 141 142 141 142 146 140 143 138 145 143 144 141 143 147 149 148 149 145 145 147 147 141 136 129 126 125 122 122 117 115 116 113 115 110 107 110 107 101 101 103 100 96 99 93 87 82 
130 134 139 140 141 145 146 149 151 149 147 146 145 146 145 146 144 148 144 139 134 133 135 132 134 136 133 134 134 131 134 132 135 139 140 143 142 139 143 140 139 136 143 143 143 140 142 147 150 148 148 144 145 146 146 145 137 132 130 127 126 122 122 118 116 116 114 115 112 110 107 107 104 101 98 95 95 97 87 88 
134 139 139 139 143 143 147 149 148 147 148 147 146 147 146 149 147 149 143 143 135 137 137 135 135 135 135 130 135 132 133 133 136 142 142 142 142 143 143 141 140 143 143 143 144 144 144 148 150 149 149 146 147 146 144 145 138 132 130 130 129 126 123 122 120 121 122 120 114 112 110 114 110 105 102 101 100 98 90 86 
133 135 140 142 141 144 150 151 148 148 146 145 149 148 147 148 145 146 142 142 134 136 134 139 135 137 135 138 136 133 136 134 137 140 142 145 144 143 146 143 141 142 143 144 145 143 144 145 152 151 148 148 144 145 142 145 136 132 131 125 128 121 124 123 120 121 122 119 117 116 114 116 112 107 106 106 100 101 88 94 
132 134 139 142 145 150 152 152 155 151 149 146 147 147 146 148 148 146 144 144 137 133 136 132 134 137 138 136 134 132 133 136 135 138 141 142 146 141 146 144 143 143 146 141 143 143 144 147 157 151 149 146 146 143 143 142 135 132 127 126 124 121 121 122 122 122 122 117 119 118 115 116 111 111 107 109 108 104 95 94 
133 133 138 137 144 148 150 154 151 147 149 145 148 149 144 146 147 144 143 140 134 133 133 133 135 137 135 132 133 131 132 132 136 137 143 145 145 143 145 144 141 144 144 139 143 144 143 150 153 149 149 146 146 143 144 143 138 132 129 126 119 120 119 121 118 118 119 117 116 117 116 112 113 110 110 106 109 109 97 98 
133 137 143 140 142 151 153 155 151 150 147 149 146 148 148 148 147 145 143 138 133 131 137 134 133 133 137 132 135 127 131 133 135 136 139 146 146 146 143 146 145 143 143 144 140 141 138 147 151 146 149 147 147 145 144 142 137 130 129 126 119 118 118 120 118 113 117 113 117 113 113 114 110 108 111 110 109 108 96 97 
134 133 138 138 142 148 153 156 150 149 150 145 145 146 145 147 147 146 143 139 130 130 130 130 130 133 131 134 133 131 129 131 137 137 140 144 144 145 142 143 142 143 141 141 142 141 141 147 150 149 148 146 149 147 144 138 136 130 127 122 118 118 118 120 116 115 114 114 116 114 113 111 112 110 111 110 107 110 98 102 
140 136 138 139 142 145 153 153 152 148 149 147 145 145 147 145 144 142 141 142 133 130 131 130 131 133 134 131 130 130 129 128 133 139 137 136 143 138 141 140 140 139 140 141 141 144 143 148 151 151 143 142 146 141 140 140 132 129 123 120 118 116 121 117 117 113 115 114 117 113 112 110 112 106 111 110 108 110 98 99 
132 137 136 141 144 148 157 156 149 149 149 142 141 146 144 148 145 144 141 137 131 133 130 130 130 135 133 131 130 128 130 129 134 134 138 139 143 138 140 142 140 141 140 141 139 146 141 148 147 150 145 142 142 138 135 140 136 125 125 125 119 117 116 119 120 113 113 112 117 112 112 112 109 107 113 107 109 108 100 100 
135 131 138 135 145 148 152 153 151 149 149 147 145 146 144 145 144 144 142 139 131 131 128 128 130 132 130 134 130 126 126 128 130 132 135 138 138 140 138 139 140 138 140 137 141 138 136 146 150 148 144 143 144 142 139 138 134 126 126 123 122 115 117 118 114 115 113 110 112 112 111 112 111 111 107 109 109 107 94 99 
131 131 133 134 143 148 146 150 147 149 147 145 141 143 143 145 144 142 140 136 134 130 128 130 126 131 127 129 126 126 128 127 130 136 135 133 139 138 136 139 141 137 139 138 138 137 138 145 149 147 144 144 141 138 136 139 134 129 125 125 119 115 115 113 116 113 114 112 113 110 110 109 109 107 106 107 102 110 99 97 
128 130 132 133 142 145 148 148 149 147 143 140 139 141 138 142 141 135 132 131 132 129 126 126 125 127 123 128 126 123 122 126 128 127 134 131 134 134 133 137 137 139 135 138 135 136 135 143 147 143 142 143 141 132 132 136 126 126 124 123 116 114 112 116 114 113 114 110 111 111 109 109 106 106 107 109 105 107 98 94 
126 127 133 132 142 144 149 149 146 144 141 140 136 139 138 137 139 128 128 130 126 125 124 124 123 125 120 125 122 119 117 117 117 114 110 113 117 115 115 125 141 143 138 135 132 132 134 137 143 139 138 135 138 134 134 135 126 124 121 118 118 115 113 112 112 113 111 108 109 110 110 110 108 104 106 107 104 104 95 98 
127 123 127 130 137 142 145 149 142 141 139 137 138 137 136 135 134 129 129 128 123 123 121 124 123 120 113 112 112 109 103 100 98 102 104 102 105 102 102 117 144 150 145 139 127 125 125 133 132 132 134 134 136 129 135 134 127 122 125 116 114 113 115 116 113 109 108 107 105 106 106 110 104 107 103 106 105 105 96 91 
126 122 127 134 138 142 146 142 141 143 140 133 135 136 133 131 131 130 129 124 119 118 120 145 142 113 104 100 102 98 90 94 89 94 96 97 96 92 95 124 139 124 120 121 114 113 109 107 105 109 115 123 129 126 131 133 128 120 118 117 111 111 111 111 113 109 108 109 107 107 108 107 104 106 104 102 102 101 95 90 
125 126 129 133 139 144 143 140 141 141 134 133 130 135 131 132 133 129 126 124 121 117 124 171 157 107 96 97 96 89 83 86 90 93 98 95 97 91 90 108 124 110 105 102 96 102 99 96 92 88 90 98 109 115 121 123 121 115 115 112 110 108 111 113 113 111 109 107 105 108 110 106 103 103 104 106 102 104 93 92 
122 120 126 130 141 142 140 139 137 137 138 132 133 132 132 129 129 129 124 125 117 116 120 159 130 97 93 91 90 84 85 85 83 88 91 90 94 86 84 86 87 87 90 90 88 94 92 88 88 80 80 84 92 97 101 102 106 110 110 108 108 106 107 105 108 108 110 109 109 108 106 106 105 103 103 99 100 106 92 93 
120 116 121 124 138 137 136 136 135 133 133 129 127 128 129 126 131 124 122 121 114 112 113 137 108 90 91 87 87 82 82 80 82 87 92 88 86 87 86 84 82 79 84 83 84 86 87 84 84 79 81 82 87 88 95 96 103 107 107 103 102 103 105 106 105 106 109 104 103 106 103 106 101 102 98 98 99 100 90 89 
113 111 119 118 128 132 130 133 132 131 127 126 125 126 125 124 127 122 119 120 114 110 107 100 88 86 86 86 86 80 82 79 82 83 87 85 84 83 85 83 80 77 79 80 79 86 85 82 79 74 78 76 80 80 85 91 95 103 102 102 98 100 103 100 103 100 104 101 106 101 100 101 102 100 100 98 97 97 88 83 
109 110 112 112 113 113 119 118 114 116 118 120 118 117 119 119 119 122 121 120 113 109 103 89 84 86 85 85 84 81 81 81 83 85 83 88 83 80 83 84 79 75 77 79 78 81 80 76 75 73 77 74 78 79 82 86 95 100 99 100 99 101 100 101 98 99 105 100 104 99 102 99 99 101 100 97 92 93 82 84 
103 109 109 102 100 103 99 100 97 96 98 94 97 100 97 102 107 111 113 123 116 112 103 85 82 83 87 82 83 83 81 79 81 81 85 83 82 79 83 79 76 74 74 75 74 79 76 76 72 71 72 73 75 71 79 80 96 100 102 101 101 100 102 96 101 102 101 98 98 99 97 99 95 96 97 94 92 95 83 81 
99 101 103 98 97 95 95 93 93 88 87 84 86 88 84 86 85 88 93 106 108 105 102 84 81 83 82 84 84 80 76 79 80 83 84 81 82 80 79 78 77 74 75 69 75 75 71 76 69 68 68 69 72 68 76 79 96 99 98 94 98 96 102 98 98 98 97 97 95 100 96 99 98 96 98 96 88 90 79 76 
97 98 95 90 91 90 87 88 86 82 82 80 84 79 79 79 78 77 79 85 95 98 92 77 81 81 82 82 83 82 77 78 78 77 83 83 76 75 77 75 73 72 73 71 71 73 70 69 65 70 67 68 65 67 73 77 92 93 93 94 93 95 98 102 101 94 97 97 97 94 93 94 94 93 95 93 92 91 76 71 
95 93 93 89 85 84 81 81 77 79 74 75 74 77 71 72 72 73 68 74 84 93 88 77 77 80 82 82 87 90 79 78 80 79 81 81 79 75 75 75 71 69 69 68 70 68 66 67 69 64 63 63 63 66 70 76 96 95 93 89 91 92 94 94 98 95 94 97 93 94 93 95 89 89 93 89 86 84 76 70 
91 87 85 82 79 78 78 75 73 70 70 70 70 73 70 67 67 65 66 67 71 83 86 76 77 78 79 82 97 115 96 75 75 76 80 79 79 73 72 72 71 67 69 65 69 68 68 64 65 62 63 62 65 63 69 76 92 93 92 93 90 94 92 95 91 90 92 95 91 92 87 90 87 85 86 86 83 82 65 67 
85 86 82 74 72 73 73 69 69 67 65 65 65 65 64 62 63 62 62 64 67 83 79 73 73 77 79 82 110 113 91 76 74 76 78 79 76 73 71 72 67 65 65 65 65 66 64 63 60 60 62 63 64 66 69 72 93 97 97 90 90 88 92 90 89 85 89 90 83 85 84 85 84 80 78 80 75 75 63 63 
84 83 80 73 71 69 66 68 64 62 61 62 63 63 61 58 60 57 54 59 61 76 73 67 72 75 74 86 112 114 93 72 71 75 75 73 73 71 68 70 65 63 62 67 65 65 62 60 59 56 58 62 60 63 63 71 94 94 90 84 86 82 86 87 83 83 87 82 82 79 81 85 76 73 72 73 72 69 58 54 
82 80 74 68 69 64 65 64 60 61 60 56 56 60 58 55 53 51 51 54 58 74 69 64 69 72 73 85 114 113 85 72 74 74 73 69 68 67 65 67 63 62 61 64 61 64 61 60 62 59 58 58 57 56 54 71 89 92 86 83 79 80 78 76 78 80 80 75 72 77 77 77 73 68 68 68 66 62 57 55 
81 77 70 67 64 64 61 61 60 59 57 55 56 57 59 51 50 49 50 53 57 70 67 62 65 66 70 79 101 89 71 69 73 72 74 67 67 64 65 65 62 60 61 60 59 61 58 62 58 57 59 61 58 60 54 71 87 90 86 75 79 82 77 75 76 75 75 73 74 71 73 75 70 67 65 65 61 61 53 53 
71 75 69 63 59 58 58 58 56 56 50 51 51 50 49 50 48 48 49 49 57 63 63 61 66 67 67 69 81 76 67 64 71 71 69 64 61 61 61 61 56 59 59 57 59 60 57 58 59 54 59 59 56 55 57 69 85 86 80 78 76 76 77 74 74 67 70 70 70 69 72 69 65 61 61 56 60 58 49 48 
73 70 66 59 59 61 56 57 54 56 51 46 50 49 46 46 42 44 44 49 50 60 60 59 64 65 67 66 64 67 65 66 74 71 68 64 60 58 61 61 58 60 59 60 60 58 56 59 57 57 55 55 58 51 55 68 81 81 77 78 75 77 72 70 75 71 72 73 69 70 66 68 65 58 58 58 56 52 43 44 
71 70 63 58 57 56 54 57 53 51 49 46 46 48 43 42 41 41 43 44 50 57 56 56 59 60 62 65 63 65 64 69 71 69 65 61 56 59 58 59 57 55 56 54 57 60 56 54 57 53 54 51 50 46 51 64 77 80 73 73 75 71 63 61 64 66 68 67 67 68 68 65 58 54 50 54 53 50 42 38 
71 65 62 58 56 53 52 53 49 51 46 43 46 45 41 39 37 42 40 41 49 55 55 55 60 62 63 63 61 61 63 65 69 66 64 59 57 57 57 60 53 53 58 54 56 57 56 55 56 56 55 55 51 49 47 58 72 74 74 71 69 66 59 62 62 59 63 63 65 63 63 62 54 52 49 49 52 46 38 38 
68 62 59 55 53 53 52 52 46 48 47 44 38 43 38 37 38 36 34 40 45 50 51 54 55 57 59 60 61 59 62 66 68 64 60 60 60 60 58 54 56 53 55 58 56 59 57 53 54 52 56 54 47 48 45 45 66 66 69 68 65 62 58 56 55 60 59 62 66 62 61 59 54 48 49 49 46 44 33 34 
67 63 58 54 52 53 47 48 43 44 40 40 36 39 36 33 32 34 35 36 41 49 49 50 54 56 53 56 58 59 60 63 65 64 60 57 54 54 53 55 56 54 55 56 55 57 54 53 52 56 53 54 51 47 46 37 53 62 62 66 62 57 57 54 56 52 58 59 58 56 57 56 49 43 41 44 42 41 30 28 
66 63 58 53 52 52 52 48 43 45 39 41 39 38 36 32 28 34 34 37 42 45 46 51 51 53 51 55 52 53 58 62 63 58 60 57 57 54 55 55 55 55 56 55 53 58 57 53 52 55 50 52 52 47 43 32 39 59 61 59 62 59 51 52 51 54 56 54 56 50 53 51 47 43 42 44 43 39 26 24 
64 58 55 50 49 47 48 47 44 42 42 34 33 38 34 29 30 27 32 36 43 43 48 45 47 47 44 45 48 51 57 58 62 59 58 53 56 52 52 57 55 48 56 56 55 56 56 52 49 51 51 49 48 48 38 26 26 49 54 58 55 54 54 48 52 49 52 52 53 49 50 49 42 44 42 36 38 34 21 21 
58 55 53 49 48 45 46 47 42 43 37 35 33 33 28 29 27 27 31 32 40 39 44 44 43 40 41 40 46 57 52 54 57 54 55 53 52 50 51 51 52 53 55 57 52 53 58 55 51 46 49 47 46 47 41 21 17 36 53 53 54 52 52 46 50 48 47 50 52 47 49 47 41 38 41 38 34 29 18 20 
56 52 54 49 51 47 48 44 43 43 39 35 32 30 28 26 23 28 30 33 38 41 41 38 41 36 38 40 47 60 52 54 55 53 52 50 51 49 49 48 53 50 51 57 54 57 57 51 48 43 46 42 45 42 38 21 14 19 47 50 48 50 47 45 47 46 47 45 47 46 43 45 44 38 37 35 30 25 16 25 
56 53 52 46 47 49 44 45 40 39 37 35 32 32 26 27 24 23 24 31 36 38 35 39 36 34 34 38 39 50 47 51 58 53 46 46 49 48 51 47 49 48 52 52 52 54 50 52 49 41 43 44 45 42 32 14 9 12 34 46 47 44 46 41 43 42 39 39 41 39 40 41 36 35 38 29 27 22 16 13 
54 51 50 47 46 48 45 46 41 40 37 31 27 30 27 23 26 22 22 29 33 39 37 38 39 32 31 34 38 36 44 46 50 50 43 47 48 47 48 48 48 48 49 52 47 55 48 50 46 38 41 39 41 39 30 17 10 9 22 41 47 42 40 42 43 38 37 37 36 38 35 38 34 30 32 28 22 21 12 10 
55 53 49 45 46 48 45 42 38 42 34 33 29 26 24 24 25 24 23 34 33 38 38 41 39 33 30 35 34 35 40 45 47 49 48 48 47 47 46 48 45 47 45 50 48 48 48 46 44 42 42 40 41 40 29 14 7 6 13 36 45 40 36 38 39 36 37 31 34 33 35 35 30 32 27 27 23 18 12 10 
55 53 51 47 46 46 45 45 40 38 34 33 29 27 24 25 26 28 27 33 32 38 37 42 43 40 38 35 33 33 41 42 49 46 46 45 47 47 45 45 48 44 48 49 47 48 46 46 44 41 39 38 36 36 26 14 7 4 13 29 43 39 38 35 32 31 37 32 29 30 31 29 29 30 27 29 24 18 7 13 
52 51 52 50 51 49 49 43 40 42 37 33 30 27 25 28 28 30 31 36 37 37 40 40 43 41 40 39 40 39 42 45 50 48 45 45 44 44 50 44 44 44 48 48 45 49 49 43 41 40 38 37 35 34 27 15 10 5 7 18 34 36 34 35 34 30 30 29 27 28 27 28 27 27 25 23 22 17 8 9 
52 51 51 48 48 49 47 45 42 45 38 31 29 31 27 30 31 37 30 36 36 37 39 41 44 44 44 43 44 44 45 45 48 46 44 43 46 46 47 44 43 42 45 44 47 47 45 39 43 39 38 36 34 30 24 16 7 8 7 14 28 34 31 34 31 32 31 30 29 30 27 28 25 26 28 21 19 17 7 6 
50 51 55 53 53 53 49 46 45 43 41 40 34 35 34 35 35 37 37 37 33 35 40 39 42 41 42 45 43 44 45 46 48 47 41 42 44 43 49 42 41 43 42 47 42 44 43 44 37 37 34 36 33 29 24 18 10 11 15 18 23 28 32 33 36 34 32 30 27 27 28 25 24 20 21 24 15 12 7 3 
51 54 53 54 57 51 51 48 46 45 41 38 39 38 37 40 39 37 35 41 35 36 38 39 43 42 44 44 43 42 42 47 46 48 44 45 44 47 46 43 44 44 44 44 43 44 42 41 39 38 35 30 31 28 25 21 12 14 17 19 26 30 29 33 34 31 34 31 25 29 29 23 23 19 16 18 15 12 0 1 
59 58 57 53 55 56 49 50 49 46 39 38 36 38 38 35 39 38 36 39 38 36 39 40 40 46 45 45 44 41 43 42 48 50 42 42 43 42 42 41 47 41 44 40 40 41 41 37 36 37 35 29 28 30 24 25 17 15 18 23 26 31 30 32 28 30 30 28 26 27 29 25 24 21 16 15 14 16 7 6 
61 57 59 55 52 55 53 53 47 49 41 39 39 36 36 37 38 38 40 43 39 40 38 40 42 42 41 45 43 43 42 46 48 48 46 44 46 44 44 45 43 41 44 42 40 37 39 36 38 37 34 31 30 32 28 27 23 21 22 26 30 32 31 34 32 31 31 28 25 25 29 23 22 22 18 15 11 14 7 8 
61 61 59 59 55 55 55 52 47 46 41 40 41 39 38 39 38 39 39 44 38 38 41 39 39 46 45 44 44 40 39 44 49 48 49 45 46 47 48 43 43 40 43 43 43 42 38 39 34 38 36 30 32 32 31 28 28 23 27 34 32 30 34 35 33 31 30 25 27 26 25 22 21 22 17 14 15 10 4 4 
64 63 61 55 58 59 55 51 45 44 43 37 38 37 40 41 38 38 42 45 36 40 35 38 45 45 43 44 44 42 40 44 47 45 47 45 46 48 45 46 43 41 43 43 41 43 40 41 38 39 37 29 32 32 29 31 28 28 29 37 31 32 33 36 33 28 29 28 27 26 22 26 23 21 20 19 11 12 3 3 
68 62 60 61 57 57 59 56 47 48 47 43 42 45 39 41 47 43 45 47 40 40 39 38 47 49 46 46 45 44 42 44 52 51 53 52 50 45 47 46 44 41 45 43 43 40 39 41 40 38 34 26 26 21 17 23 21 26 30 39 35 37 39 43 42 30 31 27 24 29 23 24 22 23 19 18 13 16 3 5 


