P2
80 60
178
145 145 141 144 149 151 155 157 157 156 154 159 173 175 169 165 157 155 148 146 145 143 131 122 115 108 105 107 107 108 104 111 121 132 138 141 142 142 146 140 132 133 126 127 126 131 127 127 124 124 121 125 122 128 128 127 124 127 122 126 121 112 115 115 112 107 108 107 106 103 98 98 95 95 91 90 91 83 84 84 
144 140 143 145 149 148 152 156 158 156 155 161 171 178 174 176 167 158 147 148 150 144 125 124 111 112 115 113 112 114 109 111 112 126 142 148 148 151 150 147 139 140 134 137 135 134 134 131 128 125 125 126 126 127 129 130 125 126 125 124 118 112 111 114 111 109 110 110 106 105 101 96 99 95 91 94 89 89 84 94 
142 141 145 144 148 149 145 148 150 151 153 159 165 170 167 173 171 151 138 138 136 142 127 119 112 114 117 115 115 114 114 110 112 114 127 142 150 158 155 155 148 147 141 145 146 145 141 142 132 130 130 132 132 130 131 130 134 130 127 126 120 114 112 115 116 114 112 114 114 108 105 99 100 96 96 96 92 87 85 88 
142 139 145 144 151 149 143 137 136 136 140 150 158 160 161 164 164 151 135 131 126 128 124 124 118 118 119 121 117 113 110 116 113 112 114 127 140 154 153 154 146 145 145 148 150 145 148 144 141 135 136 134 137 136 134 135 132 131 130 128 119 117 115 117 119 116 114 119 113 110 107 100 99 97 97 96 92 90 86 85 
143 145 143 145 152 149 136 134 133 125 129 137 148 154 153 158 159 148 134 128 123 123 124 121 124 124 121 118 117 115 114 116 111 112 112 113 125 145 156 153 144 149 144 148 151 149 148 149 145 140 143 138 140 141 138 134 137 132 129 125 122 124 119 121 119 117 114 115 118 112 111 101 103 102 98 98 95 92 88 88 
143 146 142 148 147 146 139 136 131 126 124 132 140 150 150 152 151 139 130 122 123 124 124 127 122 129 125 123 122 118 120 113 114 114 116 114 117 127 153 154 148 148 145 149 151 151 148 150 143 142 144 142 146 142 141 137 140 134 131 130 123 124 123 123 118 119 118 118 117 113 111 109 107 104 101 99 98 93 92 90 
141 141 142 143 148 141 139 131 129 122 118 125 138 145 141 142 141 135 124 123 119 118 116 121 119 128 129 129 128 122 122 117 116 117 114 115 114 124 149 153 145 150 145 147 148 146 147 147 143 150 151 147 145 146 141 142 141 137 136 131 128 125 124 124 122 122 118 120 117 117 106 113 109 108 106 102 100 96 94 97 
140 140 141 143 145 135 130 130 128 122 118 125 136 137 131 133 131 124 119 117 119 119 116 116 120 125 128 133 132 128 125 122 116 116 115 114 114 129 147 150 150 149 146 147 151 151 147 148 146 151 155 152 150 149 145 144 143 141 135 134 133 127 127 125 126 123 125 122 120 117 111 115 111 109 107 105 101 98 97 95 
140 138 143 143 144 134 127 127 122 117 116 122 126 126 127 124 122 117 120 115 117 119 119 117 120 120 123 128 126 130 131 128 122 121 118 115 114 129 149 151 146 146 145 147 147 148 151 151 149 150 153 154 155 150 148 147 145 141 138 134 133 130 130 131 130 126 125 126 123 121 111 111 116 114 110 107 103 103 102 96 
140 140 141 143 144 130 125 126 121 114 112 111 115 120 116 115 116 113 112 116 116 116 118 118 119 119 121 122 127 129 131 131 131 131 122 122 117 134 151 149 143 143 144 148 147 146 148 149 143 149 150 147 153 148 146 144 147 140 137 136 130 130 126 127 129 127 128 127 128 127 122 118 119 118 114 113 105 101 101 102 
137 135 132 132 133 129 123 123 123 115 112 111 109 113 110 110 109 111 114 117 115 114 118 116 119 119 121 123 120 124 127 127 128 132 133 132 123 141 147 151 142 145 144 147 149 147 151 149 147 150 151 149 150 147 146 143 143 137 135 133 126 127 126 131 131 131 130 128 128 127 125 121 121 117 116 116 110 107 101 109 
135 128 127 125 128 122 120 117 117 111 107 107 104 107 109 108 106 106 109 111 112 114 118 115 117 115 121 119 120 123 124 123 120 126 128 136 132 138 149 146 146 143 144 145 145 147 147 148 148 150 153 148 146 152 146 142 140 140 136 132 131 124 124 125 123 125 124 124 123 125 121 118 120 116 113 112 110 106 102 104 
134 121 126 120 121 118 120 115 112 110 106 106 101 101 105 108 105 106 110 111 111 114 112 115 114 116 117 116 118 120 122 120 115 116 123 127 131 134 135 141 139 144 143 144 145 147 146 146 148 149 152 148 149 149 144 141 139 138 138 131 127 125 125 125 126 123 121 123 119 121 120 119 122 115 115 112 110 107 103 103 
125 122 121 119 120 112 117 116 114 107 104 103 99 104 105 102 105 105 107 108 109 109 113 109 112 113 117 116 115 116 117 117 116 113 116 121 126 127 125 124 128 140 141 141 147 146 145 146 147 149 148 148 146 143 143 139 141 135 132 133 130 126 123 126 123 126 117 120 120 117 118 115 118 113 114 109 109 108 103 103 
122 118 120 120 116 115 114 112 114 106 104 104 100 102 103 100 101 106 106 108 105 111 110 111 113 111 112 112 114 114 116 113 114 111 115 115 119 119 118 120 122 140 139 141 145 144 145 145 148 150 149 149 146 148 142 141 137 137 133 130 125 124 122 124 125 118 118 119 119 118 116 116 117 114 111 111 109 107 102 102 
120 113 116 113 115 116 114 111 110 105 102 103 101 101 102 106 102 104 106 107 109 109 107 109 110 112 115 112 114 112 112 112 112 111 108 108 114 115 118 111 116 137 140 140 144 144 144 145 148 147 150 145 147 149 141 138 138 134 132 128 125 125 124 122 122 119 118 117 119 117 114 116 118 113 112 109 107 106 104 103 
108 116 109 110 111 111 114 109 107 103 99 102 98 97 99 103 104 103 101 106 108 109 108 108 110 108 110 110 111 107 110 109 108 107 108 105 109 110 112 112 117 140 138 140 144 144 144 145 146 148 145 144 145 143 139 135 134 135 130 126 125 118 121 122 121 118 113 118 121 116 112 115 117 112 111 110 109 104 102 103 
107 111 109 109 113 110 110 109 104 98 95 97 99 96 96 100 100 103 105 105 109 108 110 106 108 106 110 112 108 109 109 106 105 105 100 107 109 108 110 107 120 139 139 139 139 139 139 142 146 147 144 144 146 146 136 136 136 133 130 127 127 121 123 122 119 120 120 113 114 112 112 116 116 113 111 113 108 108 104 102 
107 105 109 110 107 110 103 106 103 97 96 98 97 98 97 98 99 102 101 104 104 107 108 108 107 105 109 106 108 106 110 107 103 103 103 106 103 107 109 109 120 139 140 140 142 142 141 140 144 147 145 141 142 142 137 134 133 132 126 127 124 123 118 119 118 119 117 116 113 115 114 115 114 115 111 112 109 107 102 100 
109 106 107 105 111 104 106 108 103 94 98 95 94 98 96 100 95 101 100 100 105 104 106 106 104 104 105 105 109 108 107 105 102 105 104 104 105 105 107 105 122 139 139 140 139 137 138 139 142 144 144 140 144 139 134 132 132 129 125 126 122 116 114 117 119 117 113 116 117 117 110 114 116 112 111 110 109 105 99 101 
102 104 107 105 104 102 104 98 101 94 94 97 96 98 93 97 97 99 98 100 102 102 104 105 108 104 103 104 106 107 107 102 101 103 103 107 107 106 104 105 119 135 133 137 139 138 137 137 140 141 140 137 136 139 132 130 132 130 123 124 120 118 115 112 116 114 112 113 115 114 109 112 113 110 108 111 103 105 97 100 
100 100 104 104 101 103 105 103 99 97 94 101 94 95 95 93 100 96 99 101 99 103 102 106 103 102 103 101 103 106 106 99 99 99 105 104 99 104 102 103 119 129 131 134 131 134 138 135 139 139 139 135 136 136 132 131 129 128 126 126 118 115 114 112 116 114 109 111 113 112 110 111 110 108 107 107 103 99 99 98 
101 105 103 102 100 98 100 97 98 98 96 95 95 95 94 96 95 96 96 96 101 99 102 103 103 100 105 101 101 104 103 102 99 98 99 98 99 104 97 96 118 127 129 132 131 133 135 137 140 140 139 136 133 139 130 132 133 127 126 120 118 119 115 116 114 113 113 114 116 111 110 110 109 109 107 106 104 102 99 100 
101 102 102 101 103 97 99 100 98 92 89 89 95 93 93 92 95 96 97 100 97 100 101 100 99 97 102 101 102 97 102 99 92 96 94 97 96 96 95 96 116 123 123 120 127 130 130 131 139 139 138 134 132 131 129 131 126 122 121 122 117 116 116 115 114 115 112 113 113 111 109 114 110 106 102 105 101 103 100 100 
102 99 102 99 100 101 100 99 95 89 91 91 90 92 92 93 97 95 92 95 97 96 99 98 94 96 98 99 98 98 99 95 94 93 90 92 89 94 91 93 114 121 119 117 121 121 125 124 135 134 137 129 133 132 131 128 124 118 121 117 117 110 114 117 114 111 111 116 113 110 109 108 107 107 104 105 101 100 96 96 
99 96 100 99 97 97 101 95 92 90 91 89 91 92 91 91 92 94 94 95 94 96 96 95 94 96 95 94 95 96 96 93 96 94 90 91 89 90 91 94 117 121 117 119 122 124 122 123 131 134 132 127 129 129 126 124 122 118 119 113 115 113 111 111 111 112 109 112 113 113 108 107 103 101 102 101 100 98 92 96 
96 97 99 95 98 99 98 97 92 90 94 94 91 92 88 89 90 92 91 94 94 94 98 96 98 94 94 94 94 94 94 93 92 92 89 89 89 92 90 97 114 116 116 117 116 121 120 121 131 127 124 122 125 125 126 122 120 117 116 114 111 109 110 108 112 110 108 108 112 110 107 105 104 101 100 99 97 98 94 92 
96 94 98 95 97 96 98 97 94 92 94 93 92 89 91 92 92 92 89 92 93 95 95 96 95 92 93 89 88 85 89 90 93 90 91 86 90 91 92 98 117 116 115 115 116 117 118 119 126 124 128 118 119 122 122 120 116 112 115 114 112 106 106 110 107 109 106 107 111 109 106 106 102 101 98 96 98 95 92 91 
91 93 94 92 97 98 98 98 94 91 93 94 90 91 89 91 91 90 94 93 92 94 96 93 93 91 93 89 81 79 81 83 85 91 88 86 87 91 88 99 115 117 115 118 116 119 116 119 125 124 120 117 119 121 121 117 110 111 108 110 106 102 106 109 106 107 104 106 104 105 105 101 101 101 97 94 99 93 87 87 
93 92 92 93 93 95 95 92 93 90 91 93 94 91 91 93 89 92 93 96 93 92 95 92 89 92 90 81 76 78 78 81 83 89 87 87 90 89 89 100 117 115 117 116 117 117 114 117 121 123 117 116 117 118 117 115 108 104 107 102 99 100 105 105 104 106 100 106 101 100 102 98 98 97 96 95 94 92 87 85 
93 89 92 93 94 95 99 95 89 90 89 93 90 93 89 90 90 90 91 92 92 94 96 97 92 94 87 78 78 75 77 80 85 87 86 84 90 93 91 99 110 110 110 112 110 111 111 115 115 118 116 116 113 116 115 110 107 104 102 100 99 99 100 101 100 102 101 101 99 100 96 97 94 94 96 92 93 90 85 87 
88 88 91 89 95 96 99 95 90 90 89 92 88 89 88 89 87 91 90 93 93 93 94 94 94 94 83 81 77 76 76 77 83 87 88 85 91 92 91 97 106 109 104 104 105 104 105 100 93 102 104 101 109 110 114 109 104 105 103 101 97 99 98 102 99 99 96 97 94 93 95 93 95 91 91 88 89 83 83 81 
86 87 92 90 98 96 96 93 91 87 86 90 85 86 85 85 85 91 89 93 95 96 99 94 93 88 79 73 73 74 71 72 77 86 86 87 88 92 85 94 101 100 96 97 98 95 97 89 78 78 80 82 87 97 98 101 107 106 103 97 98 94 93 99 95 94 93 92 92 93 92 89 90 88 84 84 83 81 78 78 
86 86 87 90 92 95 95 94 94 88 87 88 87 85 84 84 88 88 90 94 91 91 95 93 92 86 77 71 71 72 73 72 80 86 85 83 87 88 89 95 96 97 93 90 94 89 89 84 72 65 70 64 72 81 80 87 100 103 98 96 95 87 89 92 89 88 88 89 88 87 89 84 87 81 78 81 78 78 76 70 
82 84 85 91 94 95 91 88 88 85 87 89 85 86 82 85 87 88 86 89 89 91 91 88 88 88 75 71 69 67 66 72 78 86 81 82 83 89 85 96 95 92 88 85 89 84 82 78 64 57 61 60 66 80 89 98 98 100 99 92 92 88 86 87 85 82 82 83 80 83 81 80 83 76 75 71 71 70 67 69 
77 82 83 87 89 90 91 91 89 88 88 86 89 86 85 85 87 86 89 90 90 89 88 89 90 87 74 71 67 70 67 78 80 84 83 81 80 86 83 94 91 86 85 84 85 79 75 69 59 48 50 52 56 76 88 94 94 95 89 90 87 81 85 80 78 79 77 80 79 75 79 74 75 72 71 72 67 69 64 64 
80 77 79 83 86 88 84 85 82 85 88 91 87 83 84 87 87 90 89 89 90 86 89 90 92 88 82 70 72 70 72 84 80 82 79 81 81 82 85 93 89 86 82 84 83 74 72 63 49 42 43 44 50 66 84 90 91 92 87 84 80 79 84 81 78 73 73 78 71 73 75 74 71 68 65 65 63 63 61 59 
78 75 77 77 80 78 81 81 82 86 86 87 85 83 84 83 86 85 89 87 90 88 86 90 88 90 89 79 73 73 83 86 85 84 83 83 83 83 81 89 84 79 80 80 76 66 63 59 46 34 34 32 38 56 80 85 88 88 86 83 79 76 78 77 74 73 72 69 73 73 72 70 71 67 61 60 59 57 53 58 
71 72 77 74 71 69 71 71 80 82 83 87 84 85 83 85 86 85 91 87 88 87 90 85 89 91 92 89 84 85 88 86 83 83 82 84 78 80 81 85 81 81 74 72 71 65 56 54 37 27 29 29 32 43 67 76 80 82 82 80 75 71 74 74 71 68 69 71 68 70 68 65 71 63 57 55 51 50 51 49 
74 72 75 69 64 68 69 72 72 82 83 85 83 83 82 83 79 84 86 85 87 87 87 87 91 92 89 90 85 88 86 88 86 82 81 84 78 77 80 84 77 74 70 70 68 60 51 48 35 24 25 16 23 35 39 47 68 79 82 79 76 71 76 71 68 65 66 64 65 62 66 63 67 59 55 53 49 50 47 48 
73 70 71 66 63 63 67 69 77 81 80 81 82 85 79 83 81 83 82 84 87 87 87 85 89 89 90 87 90 86 87 83 84 84 80 82 80 77 76 77 73 71 65 66 66 56 50 43 33 22 19 14 13 22 25 28 46 69 73 72 73 70 72 71 68 60 58 60 61 62 67 61 61 56 53 52 48 47 44 43 
71 70 69 65 62 63 66 66 74 81 84 82 82 81 80 84 84 83 84 85 86 85 87 84 88 90 92 87 90 86 85 87 82 83 81 82 81 75 74 64 56 57 51 52 46 41 39 34 34 28 29 18 10 14 19 22 32 58 67 66 68 69 67 65 61 58 54 59 58 59 59 59 59 55 50 48 46 47 41 45 
70 66 64 66 57 64 64 65 73 83 83 80 83 80 80 83 84 83 82 83 85 87 86 87 87 89 90 88 90 88 88 87 82 84 80 82 78 76 69 56 45 43 39 31 22 18 27 27 31 29 21 13 10 12 14 18 22 42 62 66 65 66 67 64 59 55 53 59 61 61 57 60 56 53 49 47 49 43 39 39 
71 69 65 62 60 59 65 69 73 82 80 83 81 79 80 81 83 83 81 80 82 84 84 85 82 85 88 86 88 88 88 86 84 82 82 79 77 74 70 54 40 36 32 25 20 20 23 27 38 30 20 11 7 9 13 16 16 29 53 60 63 63 57 59 57 54 53 57 53 56 57 55 54 51 45 45 44 43 38 38 
64 63 61 58 60 60 63 66 77 81 81 80 79 76 78 83 82 82 82 83 84 84 85 84 85 87 86 87 87 89 84 87 81 83 79 77 77 75 67 48 36 36 29 26 19 20 20 27 38 30 19 11 6 4 11 8 9 17 41 54 57 57 58 56 51 51 51 50 54 54 52 55 52 45 41 42 42 42 33 41 
61 63 63 59 59 60 64 65 74 77 81 81 77 76 77 80 77 81 86 83 87 87 87 84 84 86 86 87 85 87 85 83 80 77 77 78 75 72 67 45 36 31 30 22 20 20 25 22 35 37 20 8 7 3 6 6 4 12 29 48 54 53 53 55 48 49 50 51 56 51 51 52 50 44 44 39 43 36 35 31 
61 62 60 58 59 58 64 68 78 78 78 78 73 75 78 81 78 79 84 84 86 83 85 84 84 83 82 84 89 83 87 81 80 76 74 76 72 72 62 43 33 29 26 22 19 18 21 21 32 29 22 11 4 6 4 6 5 11 20 43 48 55 51 51 47 50 47 45 49 50 47 46 44 42 38 37 38 33 27 37 
57 61 56 57 60 59 61 68 79 79 76 79 75 79 75 80 77 78 81 84 82 82 81 82 86 84 84 85 82 81 81 80 78 79 77 73 74 70 58 41 30 26 23 17 22 21 23 22 32 32 20 10 4 3 4 5 6 6 11 32 45 49 50 47 43 46 47 46 42 45 44 40 41 38 37 37 34 32 28 29 
57 57 59 57 57 58 60 65 75 77 77 78 75 80 74 81 78 82 82 83 83 83 83 82 82 82 82 83 85 82 80 78 78 75 74 73 71 69 53 40 28 27 23 18 19 19 23 20 29 28 25 14 6 8 4 4 1 8 7 20 38 44 45 45 44 44 42 41 38 39 39 39 41 35 34 33 32 29 22 22 
57 55 61 55 59 57 61 68 74 77 77 78 80 76 78 78 76 82 83 80 81 85 82 82 83 83 82 80 83 79 78 76 74 79 72 73 70 68 53 36 25 23 18 14 18 17 23 17 19 22 22 15 8 4 0 5 4 4 6 9 30 42 43 39 43 41 38 36 36 39 36 37 37 35 30 33 30 26 25 26 
59 56 58 55 57 60 64 66 76 78 83 81 78 78 77 79 75 81 83 83 81 82 77 79 80 76 81 79 78 78 76 75 75 77 74 74 72 66 50 37 30 26 20 16 17 19 22 19 16 22 20 12 10 7 6 4 7 6 5 10 21 40 40 41 41 40 36 34 32 33 35 38 34 31 26 31 29 31 24 21 
64 59 60 53 61 60 65 69 75 77 76 79 77 76 76 76 79 78 80 82 81 80 80 78 76 72 77 78 75 71 69 72 71 73 72 72 70 64 48 36 28 22 18 16 19 16 25 21 17 14 10 11 11 7 8 5 3 7 8 13 13 31 37 37 33 37 33 35 34 33 34 33 33 30 29 30 27 26 20 18 
66 61 63 60 60 62 63 69 73 74 75 75 74 72 75 76 75 80 79 83 84 77 71 72 71 70 73 68 68 58 67 64 71 73 71 69 68 66 52 42 30 26 22 21 22 25 26 25 19 16 14 11 13 10 10 7 8 6 10 14 15 25 30 36 35 37 34 36 32 35 31 30 31 28 27 25 29 26 18 19 
69 63 65 59 62 60 67 68 75 76 76 77 74 75 73 77 76 77 77 79 77 76 73 65 62 66 68 65 61 65 66 63 68 71 72 70 69 64 55 44 35 32 26 26 29 30 34 28 23 22 21 21 15 21 17 13 12 8 11 16 18 23 31 36 36 35 36 34 35 36 33 32 32 24 26 22 23 20 17 15 
68 66 65 62 64 64 69 71 78 74 80 76 72 75 73 76 75 74 77 79 74 70 66 67 68 66 65 64 69 66 64 64 68 73 72 73 68 65 53 45 38 38 31 33 28 36 35 36 29 26 25 22 19 22 19 18 14 18 14 18 22 25 34 37 37 43 38 36 33 34 33 31 30 25 25 22 24 18 17 15 
66 64 61 64 66 64 65 71 76 75 73 73 72 73 72 74 74 74 74 77 74 71 69 70 67 67 66 68 66 64 67 67 67 70 70 70 68 63 57 46 37 42 37 36 37 37 38 39 33 30 26 26 27 22 21 22 18 17 17 21 23 29 30 37 38 34 37 36 30 33 34 31 30 26 23 25 18 14 12 12 
67 67 67 63 67 66 71 73 78 77 76 74 73 71 72 72 74 77 74 73 72 67 68 71 68 67 68 67 67 65 63 64 67 70 69 66 67 59 54 46 38 38 33 37 37 38 38 39 36 30 27 27 26 26 25 25 21 20 21 24 30 31 31 38 34 30 34 33 29 29 30 28 27 27 23 23 16 16 9 11 
72 68 68 64 70 69 70 77 75 76 77 76 73 74 71 71 72 77 76 75 68 65 68 70 67 69 69 70 65 67 67 68 67 70 71 70 67 63 56 49 42 40 36 38 40 40 41 41 36 31 30 28 29 26 26 24 22 24 28 30 30 34 32 32 33 34 32 29 29 26 29 29 25 25 22 21 16 11 7 10 
78 73 66 70 73 70 71 76 83 79 75 76 72 75 73 76 73 78 75 72 72 66 68 67 68 68 66 68 68 67 66 72 72 71 74 73 70 66 60 54 47 40 37 40 41 39 42 40 37 31 31 30 29 33 27 26 23 27 30 31 33 35 33 33 34 29 31 28 24 24 25 26 25 25 18 20 19 12 10 11 
82 71 71 67 71 69 72 76 83 78 76 78 76 78 73 73 71 75 74 72 70 68 69 73 66 66 66 71 66 66 69 74 67 71 71 74 71 69 64 52 47 41 37 40 46 41 42 36 38 33 29 28 31 31 28 25 23 24 32 33 36 34 33 31 32 30 25 29 26 24 25 25 22 19 15 21 18 15 14 16 


