P2
80 60
240
145 140 138 134 137 133 138 139 141 141 142 139 144 143 140 138 141 140 137 137 137 137 137 136 133 132 123 117 122 122 117 117 120 120 120 124 118 118 115 117 113 111 111 112 115 118 123 125 119 121 123 119 119 125 123 122 116 115 118 116 112 113 114 105 105 103 103 104 101 97 94 93 89 87 88 85 87 88 82 81 
144 139 140 134 135 133 138 141 142 142 142 142 143 141 142 140 145 139 140 139 143 140 140 140 133 135 130 126 125 122 119 118 121 123 125 125 123 123 123 120 119 122 120 118 117 120 122 126 121 127 122 123 127 127 125 123 119 117 118 114 112 116 112 109 106 111 108 108 107 101 96 96 94 87 87 87 88 85 85 85 
142 137 137 132 135 132 138 141 140 142 142 142 142 138 144 141 145 143 140 138 141 141 141 140 138 141 132 133 130 132 127 124 129 132 129 133 131 133 132 132 128 125 127 128 128 127 131 132 124 129 122 124 127 125 124 122 120 118 119 116 113 117 116 115 111 111 114 108 109 104 100 100 97 94 91 91 92 88 87 84 
140 138 140 131 137 134 141 140 145 146 139 141 140 141 145 143 143 141 139 142 142 139 145 143 142 138 134 133 135 131 129 130 131 133 133 134 131 133 132 134 132 133 129 131 131 135 139 139 130 134 130 130 130 127 125 123 124 118 116 115 113 121 116 116 110 110 115 116 114 110 110 103 102 98 94 92 88 89 86 84 
139 139 137 131 135 137 148 147 152 156 144 144 139 139 141 142 143 142 142 145 141 143 140 141 142 138 137 137 135 134 129 131 131 134 132 136 135 134 135 136 134 135 135 133 133 136 139 140 137 141 137 133 132 133 129 126 127 124 121 118 121 120 117 114 114 119 118 116 114 108 106 107 103 102 95 91 94 93 93 86 
141 143 139 133 136 137 149 171 190 187 171 155 142 134 132 140 138 138 142 141 142 141 142 141 140 141 137 132 132 132 129 129 134 133 133 136 134 133 135 135 136 134 131 136 133 137 141 142 139 147 137 137 136 134 130 127 130 120 122 122 119 125 117 119 117 114 116 120 115 110 104 110 104 96 93 96 95 95 94 89 
141 140 139 135 136 139 154 191 220 225 212 188 165 145 135 132 130 132 133 134 140 141 142 141 140 141 135 132 131 133 128 130 131 133 131 133 132 133 135 133 135 133 130 133 134 137 141 142 146 149 138 142 139 137 133 131 131 128 129 126 126 122 119 119 114 116 116 118 116 113 109 108 106 105 101 95 97 96 94 91 
146 141 141 135 136 142 159 200 228 240 233 207 173 148 135 129 129 125 127 127 132 133 130 137 138 137 133 134 133 129 131 134 133 130 133 134 134 134 135 134 134 133 134 137 132 137 139 144 153 148 148 145 144 141 136 132 129 129 131 125 124 125 122 120 119 118 117 120 120 111 111 111 112 108 106 99 97 101 98 88 
142 136 139 137 141 142 161 204 224 232 218 194 169 148 133 124 123 123 122 124 122 120 121 124 126 129 129 130 129 130 131 129 131 134 134 133 134 132 130 134 133 136 132 136 136 139 142 149 153 156 148 149 146 145 141 136 137 135 136 131 130 128 127 121 123 124 121 120 119 115 116 113 114 110 110 103 101 103 95 95 
142 139 139 135 136 142 159 200 219 211 197 177 154 136 128 120 118 117 114 116 114 116 114 112 118 122 122 120 123 123 125 124 131 130 131 130 130 131 131 130 133 134 133 133 134 138 138 149 152 154 151 147 144 145 141 138 136 135 136 136 132 132 132 125 125 128 128 126 124 119 116 119 115 114 107 103 105 103 103 94 
141 137 138 135 135 141 159 178 189 181 171 157 140 129 120 114 112 108 107 108 108 109 109 110 110 117 114 112 116 118 118 116 120 117 122 124 125 130 129 130 131 134 130 132 130 137 139 149 155 153 147 147 143 142 139 137 135 131 132 135 128 130 127 130 126 128 128 128 126 122 118 119 117 118 111 108 109 111 107 94 
143 136 136 131 137 139 153 162 153 153 147 132 123 113 111 109 109 104 104 103 106 102 99 104 105 108 105 107 108 111 111 111 112 110 113 113 117 118 122 122 126 132 127 132 131 136 140 148 150 148 146 145 142 138 138 133 134 132 130 130 126 125 127 125 125 124 125 124 128 121 121 120 119 116 112 112 112 114 109 108 
142 136 138 129 137 135 143 146 136 129 122 119 112 111 106 105 106 103 104 106 104 104 102 102 101 101 101 100 100 106 107 109 108 106 109 113 110 112 111 113 115 118 117 116 122 133 139 146 150 149 140 143 143 140 137 131 134 129 130 124 120 121 123 125 117 121 120 124 121 120 118 119 116 114 115 113 111 113 109 102 
143 132 136 127 134 134 137 130 120 116 113 109 105 102 105 102 104 102 101 102 103 100 101 99 102 101 97 96 100 104 102 103 104 98 98 106 104 105 113 108 107 105 105 102 103 113 130 138 149 146 143 143 145 145 138 135 132 127 127 125 120 125 122 122 121 119 120 123 120 121 121 118 114 113 112 112 115 112 114 101 
139 132 137 128 132 136 131 121 109 108 103 99 96 100 98 100 103 103 100 101 102 97 98 100 98 96 94 97 94 96 95 95 99 98 95 93 96 100 98 100 101 100 100 102 104 106 112 121 134 146 143 143 142 139 134 131 132 127 129 125 125 124 125 119 116 120 120 121 119 117 114 118 116 114 119 115 111 113 110 109 
139 134 133 130 132 134 125 112 105 101 97 95 95 101 99 102 101 100 98 98 96 100 99 97 96 98 92 94 97 91 90 91 90 92 92 92 91 93 95 97 95 92 94 93 96 101 106 112 112 139 143 140 140 135 134 132 131 130 126 124 125 124 124 122 117 119 118 120 119 118 117 115 117 114 114 113 113 116 111 109 
138 133 129 127 131 135 119 107 100 99 95 99 99 97 98 99 103 97 96 98 98 98 97 96 96 96 92 91 88 88 85 85 90 87 88 93 91 89 93 94 94 94 93 92 93 98 102 105 107 135 142 139 136 133 136 136 131 128 127 123 121 123 123 123 114 118 120 117 119 115 116 116 117 111 112 112 115 113 112 107 
135 129 127 128 129 129 115 104 97 98 95 93 95 95 96 98 100 98 95 95 97 97 97 93 92 94 88 89 88 87 85 85 86 88 92 88 87 86 90 91 90 90 90 90 92 94 96 106 116 139 137 139 138 138 135 132 131 127 128 123 119 119 120 120 115 116 115 115 116 115 117 115 114 112 109 109 112 112 114 103 
133 130 126 126 132 124 112 101 97 93 92 94 92 92 93 97 95 95 94 93 97 94 94 93 92 93 87 88 85 85 82 83 85 86 85 88 84 85 86 87 88 89 89 86 91 94 97 107 128 138 138 136 135 134 131 129 128 125 127 126 121 124 122 120 113 118 116 114 114 112 112 117 118 112 108 108 111 111 109 102 
129 125 124 126 130 120 109 99 98 95 91 93 91 92 95 94 97 95 92 94 95 96 98 92 91 89 88 88 88 84 80 84 85 85 88 86 87 86 86 85 85 88 89 88 90 91 95 104 126 139 136 138 135 130 129 124 124 123 124 121 122 121 120 118 118 118 117 118 116 113 113 116 114 112 114 109 111 109 108 103 
130 124 125 122 127 120 107 99 93 95 95 91 92 96 93 98 99 93 94 92 95 96 94 91 89 90 88 91 84 82 81 82 84 84 86 86 86 83 85 86 85 82 86 86 86 92 94 103 129 138 134 133 132 129 127 124 126 121 124 116 115 118 118 117 115 114 115 118 117 111 114 114 112 111 110 108 109 107 105 97 
127 124 122 121 127 115 104 99 96 91 93 90 91 89 94 92 94 90 91 92 95 93 93 91 88 90 85 86 84 77 77 78 82 80 84 84 84 81 81 85 84 83 83 85 81 84 90 98 129 137 135 130 133 129 126 126 125 122 123 119 116 116 121 115 115 113 114 116 113 113 111 112 112 112 108 109 106 105 106 99 
126 123 122 120 122 111 104 95 92 90 91 87 92 89 91 90 94 91 91 91 91 91 90 87 89 86 82 80 82 80 76 76 78 77 79 77 84 81 79 81 80 80 79 81 77 83 86 99 128 134 130 128 132 129 123 124 124 120 120 117 115 116 117 114 112 117 114 112 112 112 111 112 107 109 109 104 105 109 102 106 
123 120 114 118 122 109 99 93 85 87 88 87 87 91 89 89 95 89 89 88 86 91 89 87 83 85 79 80 79 76 77 75 75 76 79 75 80 77 75 80 77 74 77 77 80 81 87 97 128 133 128 128 129 125 126 121 119 118 115 110 112 116 114 110 113 114 112 111 110 109 109 111 107 106 106 105 104 106 99 96 
120 114 119 114 116 106 96 92 88 87 86 87 87 89 91 88 89 89 88 87 86 87 86 85 82 85 81 77 75 74 76 76 77 77 78 76 76 72 74 75 75 73 73 80 79 80 83 94 124 133 128 126 128 125 124 113 112 114 111 113 109 110 113 108 108 111 112 110 109 108 106 110 107 101 102 104 101 104 100 96 
114 109 118 112 109 98 92 89 89 87 86 88 87 86 88 84 90 85 84 87 86 86 85 84 82 83 80 76 76 74 73 74 77 76 74 76 74 73 71 71 72 72 73 70 74 80 85 97 123 130 124 121 126 124 121 112 107 110 109 105 104 108 107 104 106 108 113 111 108 110 105 104 103 102 102 101 101 101 98 92 
107 111 117 111 108 96 92 92 87 86 86 84 84 84 85 85 86 84 86 85 85 84 82 81 79 80 76 77 76 76 74 72 78 74 74 76 74 74 72 72 70 72 70 72 73 83 85 97 122 124 118 119 122 124 120 113 105 105 106 105 108 112 109 106 102 106 110 110 106 105 103 104 102 103 100 99 103 97 95 93 
106 109 108 105 103 92 90 85 84 84 83 84 83 81 85 81 85 81 82 83 86 83 84 80 78 78 74 72 75 74 76 76 77 74 72 74 76 75 71 68 69 70 69 70 68 76 79 95 116 119 115 115 119 121 116 112 108 104 104 106 105 109 104 102 99 103 105 109 104 103 102 100 97 98 99 97 96 91 94 79 
106 108 109 102 99 91 89 83 85 85 85 79 82 84 82 82 86 81 83 86 86 85 82 79 74 75 75 76 84 92 92 90 87 76 77 78 75 76 72 72 71 70 69 70 68 76 81 97 112 114 117 115 117 119 114 108 110 103 105 99 101 106 105 101 100 104 103 104 105 98 97 96 99 95 94 92 95 95 91 84 
105 110 107 103 95 89 88 87 85 83 81 84 83 83 79 79 85 80 81 83 87 83 80 78 77 79 78 95 106 106 105 112 109 91 79 75 70 71 73 71 68 71 72 68 68 71 77 93 113 113 111 107 116 116 111 104 108 102 99 99 101 105 102 99 98 101 103 104 102 98 95 96 101 95 95 93 96 93 88 84 
105 105 108 96 93 89 89 84 85 85 84 81 81 82 84 80 83 81 79 82 84 82 79 80 78 84 103 125 122 113 105 107 108 102 88 72 72 72 71 72 72 68 67 65 66 71 73 93 110 114 110 108 111 114 107 100 100 101 105 99 98 102 100 97 96 96 99 101 101 99 97 98 98 96 94 94 92 93 85 83 
103 103 103 100 92 86 86 83 83 83 85 80 82 81 79 76 81 82 80 82 80 82 81 79 81 96 127 125 127 117 110 105 104 98 92 77 73 72 68 74 66 68 68 65 65 71 75 94 106 110 109 103 108 109 102 99 99 97 99 94 98 103 100 94 94 98 98 99 98 93 93 94 94 90 91 91 91 88 84 75 
101 102 98 95 91 84 85 84 84 80 79 79 78 76 79 78 83 82 78 80 83 78 80 79 83 106 126 125 129 119 110 102 104 95 94 78 72 73 66 69 68 65 68 66 66 72 73 81 89 88 90 95 102 103 103 102 101 98 97 95 96 101 93 92 93 94 94 101 97 93 91 92 92 85 84 86 86 80 79 75 
103 100 98 92 88 80 87 83 78 79 77 76 78 80 77 78 80 84 83 81 80 77 78 80 80 110 123 124 127 118 109 105 101 85 84 79 69 68 69 68 66 68 65 67 64 67 67 67 65 68 69 72 81 81 87 100 101 100 99 94 93 93 91 90 87 90 89 92 90 85 87 88 88 80 78 82 80 78 76 69 
98 95 90 86 83 77 82 81 82 80 78 78 80 78 82 81 84 77 81 78 79 75 78 76 80 111 124 122 122 122 112 114 114 99 90 81 68 69 66 69 64 64 63 64 66 67 68 64 56 59 57 60 73 78 84 96 101 96 92 87 91 93 91 87 83 89 88 87 87 82 81 84 79 78 75 76 75 73 71 64 
93 90 87 84 83 77 82 80 78 77 78 75 76 82 80 78 76 79 77 78 80 76 78 74 77 106 124 122 120 126 124 122 134 102 92 75 71 68 68 68 63 58 60 61 63 64 67 58 50 53 49 55 84 91 92 91 92 89 90 81 82 89 83 79 80 84 82 81 83 77 78 78 76 66 67 67 69 67 66 60 
92 92 89 85 80 81 82 80 77 76 77 76 78 75 77 78 76 78 75 76 76 77 76 74 77 91 124 122 123 134 142 151 156 111 85 70 70 67 63 67 64 60 56 58 62 63 61 54 42 43 45 49 72 87 89 88 84 84 81 77 79 84 79 75 75 79 77 76 77 74 72 73 69 65 64 62 65 62 63 58 
91 93 91 87 83 82 82 83 75 74 74 74 74 76 78 77 77 75 74 75 76 77 75 73 73 77 99 124 131 139 158 176 160 107 76 68 66 67 65 64 59 62 61 57 60 58 59 47 41 37 36 41 60 80 85 83 82 81 80 76 78 83 78 74 72 75 75 72 74 69 68 71 68 65 63 60 59 58 60 52 
93 92 88 86 88 80 83 78 76 76 76 77 74 78 78 76 78 77 71 74 74 74 70 70 69 71 72 88 115 129 144 139 98 75 67 65 64 66 64 63 62 57 61 61 61 58 58 44 33 31 29 32 48 72 81 81 79 79 79 74 76 80 74 69 71 75 74 71 70 71 69 69 63 57 60 60 58 57 54 47 
92 86 88 92 93 80 81 78 76 73 75 74 74 76 74 78 74 74 70 75 74 72 71 71 67 67 67 69 71 72 77 72 68 65 65 66 62 65 65 63 59 58 60 57 61 60 54 41 28 28 24 25 32 52 66 73 76 80 76 72 74 76 66 67 68 68 70 71 69 68 69 68 60 55 55 54 57 53 52 44 
90 90 91 95 93 83 80 77 77 74 76 76 72 75 76 73 76 70 72 70 73 69 68 70 68 68 64 67 67 63 62 61 61 63 65 66 65 61 63 62 63 61 60 60 57 56 54 39 24 20 16 19 23 28 33 53 70 74 74 75 74 75 66 62 61 64 69 65 66 65 64 64 58 56 54 52 51 52 51 43 
84 88 91 103 96 83 82 79 74 71 72 72 73 74 74 73 74 70 71 68 70 69 68 70 69 69 63 61 62 61 57 60 61 59 62 66 64 61 61 62 63 61 61 58 55 57 52 39 30 23 14 9 17 16 21 32 62 66 67 69 68 66 64 61 60 59 65 66 65 61 61 60 53 50 51 46 48 48 45 40 
86 91 94 105 96 81 79 78 76 75 74 72 73 73 72 71 74 72 68 71 68 70 70 67 68 66 63 59 60 60 56 58 59 62 62 62 65 60 63 63 61 61 61 60 59 59 52 39 34 29 15 7 9 15 16 22 49 63 67 63 62 62 59 58 55 59 62 62 61 60 59 56 51 48 47 48 50 47 41 37 
82 88 93 107 96 80 83 75 78 75 74 70 73 72 72 72 75 70 70 70 69 67 67 68 68 66 62 60 56 56 57 56 55 60 63 64 61 60 57 60 61 57 59 60 55 62 50 40 27 22 10 3 8 13 17 18 36 58 63 61 60 63 56 55 55 59 59 59 62 59 54 58 51 47 47 43 44 42 38 29 
80 87 98 101 90 82 81 75 74 75 71 71 68 72 73 71 73 68 68 71 70 65 66 68 65 65 60 59 55 57 54 54 57 61 64 61 63 57 56 61 57 61 61 62 57 59 50 44 28 17 6 5 8 9 13 9 24 51 59 60 60 59 53 51 54 55 56 59 59 52 52 51 48 42 44 42 43 37 37 30 
81 87 93 95 86 77 79 78 73 74 70 67 68 71 72 68 72 67 70 70 67 67 65 64 64 63 58 58 54 56 56 55 59 56 62 60 60 58 59 58 58 57 58 59 57 59 49 46 34 14 7 2 4 6 9 5 12 37 54 53 53 58 51 49 52 52 52 56 57 50 51 48 45 42 41 40 38 34 29 26 
82 81 95 90 84 78 78 77 75 72 68 71 69 68 71 69 70 67 69 70 68 65 65 66 59 63 58 57 55 53 54 54 56 56 60 64 59 58 56 59 55 57 56 58 56 57 44 44 34 18 11 3 2 5 4 4 5 24 49 53 52 52 48 48 53 51 53 51 52 53 48 47 41 39 40 39 34 28 25 25 
78 82 93 90 84 75 77 77 74 70 71 67 69 68 70 69 73 68 66 69 68 68 64 63 60 61 57 55 57 53 53 53 57 54 56 60 58 57 57 59 56 57 57 57 55 57 48 44 35 22 11 5 3 6 4 3 5 15 40 53 54 53 47 50 53 51 47 44 50 48 48 45 41 40 38 36 30 27 25 24 
70 76 86 81 77 74 74 72 72 71 70 67 67 67 68 66 72 68 64 64 66 65 65 61 58 59 55 53 55 51 51 51 55 56 54 58 59 55 55 57 58 61 55 54 51 50 43 38 33 26 10 5 1 2 3 5 2 6 26 44 48 50 47 45 47 44 44 45 46 43 42 42 36 39 38 34 31 22 25 21 
62 74 80 76 74 69 71 72 70 69 69 64 67 68 67 69 68 70 65 65 65 62 64 61 61 58 57 52 53 51 51 50 54 55 56 61 56 56 57 58 53 55 57 52 50 52 42 37 29 26 13 6 7 2 4 5 0 5 16 40 48 47 46 42 45 43 41 45 41 39 39 38 34 34 36 36 30 21 21 17 
65 69 76 71 69 70 68 69 72 69 67 65 67 65 65 63 68 66 64 64 63 60 60 55 57 57 50 50 51 50 48 48 52 51 55 54 52 54 52 56 53 52 53 49 50 51 41 36 27 24 13 7 5 4 3 3 1 3 14 33 47 45 42 41 42 43 39 38 37 35 39 36 30 30 28 31 28 21 20 17 
68 69 70 68 71 66 72 73 65 65 64 64 64 63 64 61 66 65 63 60 60 56 55 49 51 55 50 46 50 52 49 56 69 65 62 54 53 50 55 54 53 51 53 51 49 49 38 31 22 18 13 8 6 4 4 1 4 2 12 20 36 42 39 36 40 38 36 38 35 35 33 33 30 29 31 28 27 21 19 12 
65 65 64 62 67 65 69 68 64 62 64 60 64 63 63 65 66 63 63 60 58 52 49 46 49 56 56 47 45 55 73 92 105 109 87 60 52 53 51 55 52 52 54 50 50 44 32 24 22 20 11 9 10 7 7 1 6 6 9 16 32 38 37 35 33 35 37 35 36 30 31 29 30 28 29 26 22 18 18 13 
65 65 64 61 65 64 68 70 69 65 64 62 64 63 61 62 64 60 57 53 52 53 51 46 50 71 69 54 54 74 83 94 102 105 100 73 54 50 51 52 48 52 49 54 48 45 30 28 23 22 13 15 15 13 9 6 7 10 14 16 25 35 38 35 35 37 37 37 38 30 31 29 30 28 29 22 19 17 15 8 
66 65 64 58 63 64 66 68 64 66 61 61 60 65 61 63 63 62 55 50 47 48 45 46 49 63 65 60 65 70 72 76 85 87 88 74 53 50 47 51 51 51 52 46 48 42 31 28 21 25 20 20 19 15 18 15 13 11 18 19 27 32 36 39 40 41 38 36 36 34 29 27 26 27 26 23 21 17 14 15 
71 66 59 56 66 64 69 64 67 64 61 62 59 62 65 60 61 56 50 47 47 47 42 46 47 49 48 47 52 51 52 53 61 60 64 59 51 50 50 51 55 51 51 51 46 44 36 32 27 29 25 24 22 21 19 14 18 18 17 27 32 34 37 40 39 38 39 41 35 33 28 30 28 25 24 21 18 16 16 18 
68 64 62 59 66 65 70 70 69 66 62 61 61 67 62 63 59 56 49 48 47 46 45 43 44 46 41 40 40 41 40 39 45 47 47 45 50 50 48 51 53 49 49 50 47 48 36 35 37 35 27 25 28 28 21 21 18 20 23 30 35 38 38 37 41 38 36 37 34 34 32 29 29 26 23 21 21 17 16 5 
73 64 61 59 67 65 68 70 67 64 62 62 64 63 65 66 59 50 46 47 47 47 43 45 46 41 40 36 34 33 32 35 38 38 40 39 51 53 52 52 50 51 51 49 46 42 41 39 33 32 31 27 27 27 29 23 21 21 30 37 35 37 37 40 38 37 36 37 34 34 32 29 28 25 24 21 18 19 17 13 
73 72 62 58 65 65 69 67 66 63 61 62 62 64 62 63 56 51 47 48 47 47 45 46 44 42 38 37 34 31 29 31 32 33 39 44 55 56 58 56 53 50 51 52 47 43 43 42 33 37 33 28 30 28 27 26 25 26 36 36 33 37 38 38 36 38 35 38 33 35 30 29 30 23 23 21 17 15 15 12 
84 68 62 63 71 72 70 70 71 63 63 66 68 67 64 66 62 55 47 48 45 46 45 47 40 43 40 34 37 33 31 31 35 33 43 51 55 60 58 56 61 55 54 53 47 46 40 41 36 39 30 27 30 27 26 30 25 27 37 34 33 35 39 36 32 31 28 32 29 30 25 26 28 26 24 19 17 15 15 11 


