P2
80 60
236
133 133 134 138 132 134 135 140 136 137 138 142 134 139 133 130 128 123 127 126 128 128 125 122 127 123 118 113 109 114 111 114 113 117 112 114 114 114 115 117 108 106 106 106 111 113 116 114 116 116 111 114 119 120 117 119 111 114 108 102 100 100 95 94 98 92 93 84 92 88 84 82 79 74 81 68 72 70 73 76 
129 131 133 136 134 135 141 137 137 140 141 137 134 138 134 130 127 128 128 128 130 130 127 127 129 126 122 122 120 117 117 119 116 120 116 116 121 118 126 116 120 114 111 110 115 116 119 116 116 117 118 119 122 121 117 121 117 113 111 108 103 101 99 99 98 97 93 90 95 85 86 84 81 78 75 71 75 73 71 74 
130 135 132 137 133 133 138 139 138 143 143 136 135 136 133 133 132 131 127 131 131 129 132 128 128 126 124 124 119 119 119 125 122 120 122 121 123 125 128 128 126 120 118 119 118 123 123 121 120 118 119 122 123 119 120 124 116 114 111 107 103 103 102 98 99 98 93 96 99 89 87 86 87 80 79 75 70 74 72 75 
131 133 132 138 134 136 139 141 142 142 141 136 136 136 136 132 129 129 134 129 129 133 129 133 130 129 129 128 123 125 123 121 125 123 122 125 127 127 130 132 126 123 120 125 128 130 131 129 124 125 121 127 125 122 123 122 122 115 113 110 107 104 104 105 103 101 98 98 98 96 93 86 87 85 84 81 79 75 71 74 
129 129 131 135 138 134 140 143 143 143 143 140 136 138 135 133 130 134 133 129 130 128 131 130 129 128 126 124 122 125 125 124 125 126 128 125 125 128 134 129 127 125 126 127 129 133 134 130 127 128 129 132 132 128 123 127 124 118 113 112 107 109 102 106 100 102 97 100 97 99 93 89 92 91 85 80 79 80 73 78 
131 131 135 134 137 137 142 141 142 147 143 142 138 140 134 134 136 132 132 129 130 131 130 132 132 131 127 123 127 127 123 127 128 129 124 125 129 126 134 130 127 127 129 127 130 134 134 134 131 135 136 136 133 132 128 127 127 124 117 118 113 112 112 108 106 107 104 101 103 99 97 96 94 92 89 86 84 85 77 81 
132 131 136 134 137 139 142 143 141 144 145 144 138 141 138 135 136 134 135 133 133 135 133 131 133 130 128 126 127 128 128 128 125 131 123 126 126 127 132 132 130 127 128 129 131 132 132 136 138 138 139 141 136 137 134 131 128 123 122 117 113 112 109 108 108 104 106 105 102 99 95 97 96 94 90 87 87 86 81 81 
136 132 136 137 141 142 144 145 143 146 144 142 141 138 139 135 136 135 132 132 132 133 133 128 132 128 131 127 130 123 123 126 129 125 123 125 127 130 132 129 129 124 127 125 132 132 134 138 143 143 142 142 142 140 138 133 130 127 124 121 118 115 115 112 108 109 108 108 104 104 99 100 98 96 95 90 89 87 85 87 
129 133 137 139 142 140 143 144 141 144 141 146 141 141 138 134 134 138 135 133 133 134 131 131 130 133 128 128 128 124 129 125 125 129 127 125 129 131 130 133 123 122 126 130 131 135 138 140 145 142 146 144 141 144 140 137 133 131 130 124 122 120 117 113 110 114 115 110 106 106 104 100 97 98 96 90 91 90 90 91 
132 134 140 139 141 142 145 144 143 145 144 142 139 143 140 137 136 138 135 131 136 135 135 135 132 136 135 127 126 125 127 125 128 129 125 128 128 131 133 130 126 127 125 128 129 137 141 140 145 144 145 143 142 144 135 138 134 131 128 127 125 123 119 118 116 116 117 116 111 106 106 108 107 101 97 94 94 93 91 92 
132 136 133 139 142 143 145 141 143 142 143 141 140 142 144 137 136 137 136 137 132 136 135 136 137 133 132 131 128 125 127 126 129 131 128 128 129 129 133 134 127 126 130 130 130 137 140 140 145 146 146 143 138 139 137 137 132 131 128 123 123 121 119 115 116 117 117 113 112 110 110 109 105 102 103 101 97 95 93 92 
126 133 134 139 141 145 148 146 149 148 145 144 138 143 139 139 138 137 136 137 135 135 136 131 135 133 130 130 125 124 125 127 125 128 124 125 131 129 131 131 128 125 127 127 130 136 138 140 146 146 147 143 142 138 133 136 131 128 128 123 119 116 115 118 117 115 116 111 116 108 111 110 107 108 103 101 100 102 96 95 
131 131 135 137 140 144 146 146 143 146 147 142 141 143 141 137 137 134 133 134 134 134 133 133 132 131 127 125 127 120 125 125 127 126 128 129 132 130 134 131 128 128 127 125 130 137 138 143 145 148 144 146 143 141 136 137 131 127 125 121 114 118 112 115 115 114 112 113 112 112 112 109 107 107 104 103 103 104 93 96 
133 133 137 136 139 145 148 149 146 147 145 145 139 142 141 139 138 134 132 132 132 134 132 132 131 128 128 127 126 123 123 123 124 126 126 126 129 130 128 135 129 129 126 128 128 133 134 140 145 145 145 143 142 141 137 136 134 127 125 120 117 115 112 115 109 111 110 109 111 109 108 107 108 103 106 102 102 103 100 97 
133 134 135 138 143 147 151 149 147 146 145 144 140 142 139 138 137 137 134 133 128 134 132 130 129 129 130 126 127 124 121 124 127 124 124 127 128 133 131 133 128 124 127 126 128 134 137 143 145 143 148 144 146 141 137 133 132 130 126 121 117 118 113 115 111 111 111 110 111 111 107 109 107 110 106 104 104 104 103 100 
135 133 137 140 142 148 148 150 146 148 144 142 139 139 141 139 136 135 135 135 130 133 133 131 131 128 130 127 124 121 119 119 122 125 120 124 124 126 128 130 126 124 125 129 131 135 136 139 144 144 145 140 146 135 135 133 130 125 122 120 115 114 114 114 110 110 108 111 111 110 107 109 108 109 106 105 104 104 98 105 
131 133 133 144 143 145 147 148 144 146 149 141 139 142 140 140 138 134 133 132 130 136 130 133 130 130 129 126 127 123 126 122 122 125 122 122 127 129 130 131 126 126 125 127 128 136 138 144 140 145 144 141 141 135 131 131 136 127 124 121 113 118 113 112 113 108 108 111 111 110 105 108 107 102 107 101 105 104 98 104 
131 133 136 134 143 146 149 146 147 147 144 141 139 140 137 137 135 134 133 132 131 132 129 130 126 128 127 123 123 119 121 119 122 123 122 122 122 127 129 130 124 123 124 127 126 132 134 139 144 142 143 142 139 134 131 132 130 125 123 121 115 117 111 113 110 111 107 105 106 106 105 105 105 105 102 104 107 102 96 107 
132 129 129 135 142 145 143 145 141 145 144 143 137 135 137 137 147 142 134 129 130 130 126 124 124 125 124 120 122 121 123 121 122 123 120 120 125 126 128 124 125 121 121 123 125 127 132 140 142 139 139 138 138 134 130 131 129 127 122 120 114 112 108 110 110 109 107 107 107 107 106 105 104 105 102 102 101 103 96 96 
131 129 133 134 142 142 147 145 145 144 141 140 133 137 138 140 170 204 177 140 125 120 117 122 124 122 119 119 119 118 117 121 119 120 122 120 120 125 126 125 126 122 119 122 122 126 131 138 141 138 136 138 135 131 126 128 121 121 121 120 110 110 109 111 112 110 107 108 107 105 105 104 105 102 101 103 101 100 98 100 
127 125 129 134 137 141 145 143 141 141 139 137 130 134 136 139 191 236 229 167 129 117 111 107 110 115 115 117 115 115 114 117 117 118 115 118 121 121 125 125 120 120 119 119 121 124 130 135 140 134 136 134 132 131 128 129 124 121 119 116 112 115 109 109 105 107 104 104 104 104 104 104 103 100 104 101 101 100 96 98 
123 125 129 133 135 141 141 141 139 137 136 134 132 135 131 141 198 230 224 167 120 110 103 101 100 103 108 106 106 105 102 100 102 107 107 112 114 114 118 119 114 115 116 114 122 122 124 130 132 131 135 133 134 130 132 129 126 121 119 115 110 111 109 111 107 110 104 104 104 102 103 105 101 100 103 98 102 99 95 98 
125 122 124 130 136 138 139 135 136 136 135 135 130 132 130 138 188 204 194 145 108 100 95 95 95 94 100 95 97 97 92 92 89 92 91 96 96 100 105 110 108 108 108 111 112 115 118 130 131 131 133 132 131 124 129 126 124 121 117 115 109 109 107 107 109 105 102 102 102 105 103 101 98 100 102 97 101 97 92 94 
122 123 125 130 136 139 141 135 134 137 133 133 128 130 127 131 165 173 152 117 104 97 95 92 91 90 89 91 92 85 88 80 86 88 89 87 87 87 92 93 101 105 107 106 106 116 117 130 131 128 130 130 131 126 124 121 121 114 113 111 107 106 106 105 104 105 104 102 103 104 101 101 98 97 100 96 99 97 90 96 
121 121 124 129 133 133 136 133 129 132 134 132 127 125 125 118 117 121 110 100 95 95 91 88 89 88 85 87 83 80 79 79 80 82 83 83 85 86 85 86 90 98 102 102 108 113 116 124 130 124 124 125 127 123 123 118 114 113 109 107 106 102 101 100 104 103 105 102 106 102 101 100 100 99 99 94 98 96 91 92 
114 115 120 123 131 134 133 130 127 132 129 127 121 124 122 111 101 95 89 89 90 90 90 89 90 87 91 84 81 79 79 75 76 82 80 81 86 88 84 88 97 98 102 104 107 107 114 122 127 124 125 124 130 120 121 116 111 108 108 105 101 104 102 99 99 98 103 98 101 108 101 99 100 94 98 92 95 94 89 94 
115 110 116 121 125 128 123 124 125 127 127 121 120 122 116 109 93 87 86 87 87 88 88 83 89 83 86 80 80 77 78 76 78 78 76 77 79 82 87 88 91 99 98 101 102 111 110 120 122 119 121 121 121 120 118 115 110 104 102 99 98 97 98 98 97 97 101 98 101 97 97 97 95 96 95 91 94 92 87 86 
108 109 109 112 110 110 111 110 110 112 117 115 113 112 114 101 87 83 86 86 86 87 88 81 83 84 87 81 80 78 76 78 79 76 76 77 77 76 82 84 91 97 97 103 102 105 108 121 118 115 116 118 120 121 117 114 106 104 101 100 98 101 96 98 93 96 97 98 101 97 94 90 94 91 95 87 91 90 87 84 
102 106 105 102 99 97 98 95 88 95 97 91 95 92 96 89 84 80 80 82 85 87 84 82 83 84 84 78 79 81 77 74 75 76 75 74 77 75 80 82 91 98 98 96 98 102 109 117 116 112 112 116 119 116 118 107 106 99 103 97 97 95 96 93 94 97 96 93 94 96 94 94 92 91 90 89 89 90 83 87 
95 101 100 95 94 90 88 88 83 84 85 83 86 88 90 81 76 78 80 82 83 79 82 79 81 81 78 78 79 76 74 76 76 76 70 71 76 73 82 82 91 98 97 96 102 102 107 114 115 111 109 110 116 116 109 105 106 101 98 92 95 95 95 95 93 97 91 96 92 91 93 90 95 90 87 88 86 86 84 85 
93 96 92 88 88 83 82 83 79 81 80 78 84 87 87 75 71 77 80 76 80 78 80 80 80 79 82 81 80 75 76 74 75 71 68 72 68 74 78 78 89 95 99 97 99 100 105 111 111 109 108 112 108 107 106 105 103 98 94 93 92 92 92 94 95 93 91 95 94 88 92 90 90 88 90 88 90 87 80 78 
93 90 92 85 79 77 75 77 72 77 75 84 82 84 80 72 73 74 74 75 77 78 81 77 81 80 81 78 82 78 78 71 73 68 68 71 73 77 77 77 83 88 90 89 91 90 90 91 107 101 105 107 104 109 106 104 101 96 95 92 92 92 91 91 93 92 88 93 88 87 86 90 86 84 85 84 86 79 74 76 
86 86 85 79 77 71 71 67 69 70 70 79 83 85 77 70 65 70 72 76 72 73 79 77 77 75 81 89 88 83 86 69 69 67 70 72 72 74 73 72 78 82 84 82 86 87 83 72 75 77 83 92 99 99 101 102 99 94 92 91 86 93 90 86 88 85 86 88 84 87 82 87 83 79 82 79 80 73 71 72 
85 82 80 73 70 68 67 63 64 64 68 79 79 80 74 68 69 67 68 72 71 76 74 73 77 74 85 98 90 85 81 76 68 66 67 71 71 72 70 70 75 78 77 76 78 79 74 62 61 59 64 72 80 80 87 98 98 96 95 88 84 87 86 82 84 81 86 82 82 80 80 79 76 73 74 74 71 70 66 65 
81 79 78 69 67 64 62 61 61 62 69 80 80 77 75 68 67 70 68 72 70 70 76 73 74 73 88 96 96 87 81 70 63 62 65 67 66 68 65 67 72 76 74 76 73 72 66 55 50 51 54 61 70 78 82 97 98 91 88 84 83 83 85 80 80 78 84 82 82 73 74 79 70 68 70 67 68 65 59 60 
75 76 75 68 64 62 61 60 57 61 72 78 76 74 70 63 67 67 68 69 69 69 70 69 72 70 85 96 96 95 93 72 62 60 59 66 64 66 64 60 70 70 68 73 66 68 62 52 48 43 48 56 75 86 88 96 92 89 85 80 73 78 74 75 73 74 77 74 71 73 70 73 69 62 65 61 65 61 59 60 
74 72 70 66 62 59 58 52 53 58 71 77 75 72 71 61 63 65 64 68 66 68 69 68 69 66 78 89 100 108 98 66 61 62 64 65 63 63 62 59 70 66 64 64 63 59 52 47 38 40 45 51 68 84 83 89 88 88 82 72 72 76 74 71 70 72 73 71 70 68 67 70 68 61 60 59 59 53 52 56 
73 68 64 61 57 55 55 53 53 60 69 76 75 71 67 65 63 64 66 66 67 67 65 65 66 66 69 74 93 98 76 59 63 61 62 62 59 58 55 57 64 61 62 61 58 54 49 40 36 30 35 43 56 80 84 86 84 83 81 74 71 73 71 67 66 66 66 66 68 63 66 63 60 55 58 53 58 55 46 47 
70 69 65 59 55 52 52 50 50 60 69 72 75 68 66 62 61 64 61 64 63 63 63 62 67 64 65 60 61 62 59 56 62 61 63 64 60 58 54 55 59 63 59 54 51 50 42 35 29 27 27 34 46 68 82 81 83 79 74 77 70 75 68 66 69 67 71 67 67 66 62 63 58 56 49 54 53 45 43 47 
69 66 63 59 52 52 52 50 48 59 71 71 69 67 69 64 59 61 59 61 61 60 60 60 63 60 61 59 59 55 55 56 58 61 62 61 58 56 50 54 55 58 54 51 48 45 37 32 25 21 20 24 29 44 65 72 73 76 70 69 68 65 59 60 59 64 65 65 63 61 60 57 54 49 46 47 48 46 36 43 
65 63 59 57 51 50 50 46 44 58 66 68 69 69 71 65 61 59 58 58 59 61 60 60 61 57 57 56 55 52 53 57 59 58 59 59 59 54 50 51 53 49 52 49 46 42 34 29 19 17 16 18 19 23 30 49 70 71 70 68 65 63 57 58 56 59 61 61 63 61 59 57 51 46 47 45 49 40 36 37 
63 61 54 54 45 45 46 45 44 54 59 63 59 66 70 59 58 55 56 57 57 60 54 56 57 54 59 52 53 50 51 56 55 57 57 54 55 51 46 48 52 48 44 46 40 38 33 31 24 19 19 14 12 15 18 30 63 63 67 61 62 59 54 52 52 59 55 60 62 56 55 53 48 44 43 40 44 39 33 36 
62 61 56 53 48 45 44 42 42 46 51 53 52 59 65 60 58 56 54 57 53 57 57 53 56 52 51 53 49 50 51 50 56 57 54 57 47 47 46 46 49 49 47 44 41 36 29 27 24 25 17 10 12 12 17 22 46 60 61 63 55 55 54 49 50 47 53 53 56 56 50 50 44 37 37 37 39 34 31 35 
61 60 54 49 51 47 44 42 41 42 41 43 42 53 62 57 53 53 55 54 54 52 52 53 51 49 47 46 45 44 45 51 52 53 54 52 49 43 43 46 46 45 42 41 37 33 29 29 21 17 11 7 7 11 15 18 31 54 56 57 56 54 49 46 45 49 47 47 49 47 47 48 43 37 38 36 39 35 28 27 
57 56 53 49 48 42 41 40 38 40 38 35 37 48 51 52 52 51 52 54 53 52 46 44 42 43 43 43 44 48 46 48 50 50 48 50 48 40 37 43 43 36 38 38 33 30 28 34 27 17 8 9 5 12 10 11 19 45 51 56 53 51 47 45 47 48 46 46 47 42 45 45 39 40 35 33 32 29 26 25 
57 55 49 48 47 40 42 42 36 40 36 33 34 42 47 50 50 47 52 52 46 48 44 40 38 40 43 42 54 71 71 53 47 44 47 48 45 39 35 38 38 36 36 37 32 30 28 36 29 15 7 7 4 7 10 5 13 33 48 50 47 50 45 41 42 44 42 46 47 44 44 43 38 35 33 35 31 22 20 22 
53 51 49 48 47 40 43 41 35 36 37 32 35 40 43 46 47 48 49 48 47 45 39 36 37 43 53 55 62 64 68 63 41 39 44 46 43 35 35 39 34 33 34 33 31 30 27 33 29 15 5 3 4 4 4 5 6 19 44 47 47 44 41 43 42 39 42 42 43 40 41 42 34 32 30 29 24 19 18 18 
55 53 49 47 45 41 44 38 36 35 34 34 37 40 43 45 48 42 45 47 42 37 34 30 35 34 37 40 38 41 39 47 38 39 38 40 39 35 31 38 37 33 29 34 30 34 31 32 30 17 8 4 5 3 7 0 8 8 31 44 42 41 40 41 39 38 35 38 37 35 38 35 30 29 33 25 23 16 16 16 
54 52 48 44 46 40 40 38 35 35 37 32 31 40 41 46 48 46 44 44 43 41 34 32 35 32 30 32 31 25 30 29 35 36 37 40 40 38 34 36 27 28 26 29 27 32 29 27 24 17 10 3 4 4 3 2 6 7 16 40 43 42 38 38 37 34 31 35 33 31 32 32 26 27 28 22 20 16 12 13 
52 47 47 45 42 40 38 39 35 33 33 36 34 36 38 44 47 47 45 42 43 41 36 35 33 29 31 29 28 29 27 26 34 36 37 38 37 34 29 30 22 20 19 20 25 25 25 23 21 20 10 5 4 2 5 3 4 2 12 33 42 38 32 34 32 32 30 27 28 27 32 28 27 27 27 24 21 11 9 13 
52 48 46 47 44 40 42 37 35 34 36 35 32 34 36 42 46 44 42 47 43 43 37 37 34 28 30 30 29 23 27 31 35 36 36 36 35 29 27 28 21 13 14 14 18 23 23 21 18 18 13 9 4 3 3 1 2 0 8 23 37 35 33 32 30 29 27 29 25 24 27 26 24 22 22 23 20 12 8 12 
51 47 49 49 45 44 46 39 35 37 36 29 32 31 34 42 44 44 44 41 45 46 42 37 42 37 35 32 34 31 31 33 38 38 37 37 35 30 28 25 21 12 13 11 13 18 22 16 12 9 10 11 6 5 5 3 5 4 6 13 29 33 30 29 28 29 26 25 25 23 22 23 27 23 24 22 19 11 10 10 
49 50 49 47 46 43 42 39 36 36 35 30 27 30 35 40 43 40 43 44 42 46 42 40 44 38 37 35 35 34 33 37 35 38 37 36 36 29 29 25 20 13 15 11 17 16 18 12 12 10 10 15 10 8 6 4 7 4 4 11 20 33 27 29 27 29 24 23 26 24 24 19 19 22 20 14 15 12 8 9 
51 49 53 52 49 46 43 41 37 37 41 34 32 31 37 42 44 44 44 42 41 43 44 41 42 39 37 37 39 34 35 35 37 37 34 37 31 30 29 27 21 17 15 17 16 17 21 15 12 12 14 18 14 12 9 8 7 7 11 11 21 25 29 30 31 28 29 25 23 20 23 21 19 15 20 11 9 4 8 7 
52 51 49 50 50 46 45 42 42 38 39 34 34 31 37 42 42 43 44 47 41 41 43 43 42 39 40 36 35 36 36 34 36 41 36 40 33 31 30 31 22 17 16 16 23 20 20 16 16 19 19 18 19 20 11 10 11 9 15 15 22 26 28 31 29 30 29 27 24 20 23 20 19 12 14 9 11 6 2 3 
51 53 51 52 50 49 47 45 44 38 38 35 34 36 43 39 43 42 44 41 41 46 40 40 43 39 38 38 36 33 34 34 35 42 36 37 31 30 31 33 28 21 21 18 24 24 23 19 15 20 21 21 17 21 15 18 13 12 14 18 24 24 22 31 26 30 22 25 23 20 21 18 20 14 14 10 8 9 4 7 
55 54 54 52 47 48 50 46 39 39 40 37 33 34 39 39 44 43 42 42 42 43 41 38 43 39 40 38 39 34 34 37 35 39 39 36 32 29 34 36 27 22 22 23 27 26 28 24 23 26 23 22 21 26 20 19 16 17 21 25 25 27 26 29 26 30 24 25 23 20 23 22 20 13 14 11 10 8 2 3 
57 60 56 57 53 51 49 46 39 41 38 33 35 36 38 39 42 41 42 43 41 42 43 42 41 43 40 37 38 32 32 36 35 37 38 36 33 34 37 34 25 23 25 25 28 29 28 29 24 28 29 24 25 26 20 25 22 20 24 30 27 30 29 29 26 26 23 24 23 21 20 14 19 15 13 10 10 4 5 8 
59 60 53 58 53 48 48 45 42 37 39 31 34 35 41 39 41 38 42 45 42 43 42 43 46 43 40 38 35 33 34 32 35 35 37 36 35 33 34 36 24 24 22 27 26 31 33 30 27 30 28 24 24 26 24 22 23 26 25 33 24 30 29 28 28 28 23 24 26 18 15 21 16 14 16 9 7 9 2 8 
63 62 56 58 51 50 49 45 45 42 43 37 37 33 39 39 42 38 45 42 41 42 39 36 47 43 39 38 36 36 36 36 35 35 40 34 33 31 31 31 24 18 15 21 27 28 35 32 32 29 28 22 20 17 10 13 17 24 26 34 31 37 33 36 34 28 24 25 21 21 16 19 21 14 16 12 10 11 8 7 


