P2
80 60
183
142 144 142 152 148 145 147 151 148 154 155 152 144 145 146 141 140 139 137 136 137 133 130 132 129 127 127 124 124 121 121 119 115 123 122 120 114 117 114 114 114 113 108 113 113 112 111 113 115 114 116 114 118 115 113 114 107 111 105 109 103 101 106 101 101 105 101 99 101 98 97 94 91 93 88 91 87 90 85 87 
142 146 141 142 142 145 146 145 147 146 148 150 148 146 150 146 143 139 138 137 132 131 133 133 129 126 127 123 125 122 121 118 118 123 125 115 120 114 114 112 118 114 111 112 111 111 115 111 112 114 116 115 114 112 112 110 111 108 109 105 104 101 104 105 104 105 101 97 99 95 93 96 93 90 95 91 86 85 90 86 
145 141 140 140 143 142 146 149 149 150 150 146 148 149 150 145 141 143 136 140 132 134 132 131 130 131 130 128 125 123 123 121 126 125 127 123 123 121 120 119 123 122 121 119 118 121 121 115 118 116 118 121 115 113 111 116 112 112 106 110 104 104 108 108 107 109 101 101 105 100 99 95 98 96 92 89 89 87 86 92 
142 142 141 144 144 141 145 149 150 152 147 148 148 146 148 144 145 143 139 138 131 134 134 133 131 130 126 126 123 125 126 124 126 126 127 123 124 122 121 126 121 122 125 124 126 128 124 124 121 123 124 123 121 118 115 116 114 110 111 110 107 105 110 109 106 109 104 103 106 105 102 102 98 101 97 93 94 91 90 94 
140 141 140 144 144 146 150 146 146 151 149 148 150 146 148 146 143 140 141 140 136 134 134 132 130 130 127 128 123 125 125 126 128 128 127 124 125 123 123 123 126 126 124 125 124 131 128 126 120 124 127 129 121 123 122 120 117 116 114 113 110 107 111 108 107 107 101 106 107 102 102 104 105 101 101 95 97 95 94 93 
140 141 141 144 144 147 148 147 150 150 151 153 149 146 148 145 143 143 144 136 136 132 135 131 134 134 131 127 126 128 126 128 128 131 129 127 125 123 125 122 124 125 128 126 128 129 126 131 127 129 131 132 128 127 122 121 119 115 112 115 111 110 115 112 110 112 109 109 109 103 108 104 102 102 98 99 100 99 92 94 
142 144 140 144 147 147 152 153 150 156 149 150 150 149 151 148 147 142 139 140 134 137 133 133 132 131 134 127 127 129 130 126 130 132 126 131 124 124 124 122 124 125 127 126 129 129 129 132 138 134 136 135 133 131 127 124 122 116 118 116 114 111 113 118 112 108 108 110 109 105 107 104 106 107 102 98 99 98 95 97 
142 141 139 147 146 145 149 151 149 152 151 151 150 150 146 150 144 143 141 138 137 132 136 135 129 132 132 130 127 128 127 126 128 132 133 129 127 123 123 124 122 124 125 127 126 128 132 133 137 137 141 138 138 134 132 126 123 117 122 119 116 117 120 115 112 115 113 113 113 110 110 107 108 104 107 102 101 100 97 98 
143 144 142 142 151 152 153 150 146 154 150 151 148 148 150 148 147 144 143 142 135 135 134 134 131 134 129 131 125 128 129 130 127 128 131 127 125 126 118 125 123 124 123 126 128 129 130 135 138 137 145 140 135 135 130 133 126 122 127 120 120 120 119 115 117 118 117 114 114 111 111 111 110 107 108 104 106 101 99 99 
143 142 143 145 149 152 149 149 147 148 150 147 149 149 153 147 147 147 139 143 137 136 134 133 133 133 135 130 127 129 128 126 125 129 130 128 123 125 125 121 122 123 124 125 129 128 136 138 138 139 140 137 136 134 132 133 126 125 125 123 124 123 121 118 119 122 116 120 117 113 116 116 114 109 110 108 109 109 101 106 
145 143 144 147 147 149 148 150 147 154 149 149 154 150 151 150 148 147 146 142 134 138 140 135 135 134 132 129 127 127 127 128 131 127 131 125 129 127 123 123 123 126 125 122 128 131 132 139 141 140 142 137 133 132 132 129 123 124 125 119 124 119 119 121 119 122 123 119 119 120 117 118 117 117 113 113 110 111 105 113 
144 142 140 142 150 152 152 153 149 153 150 151 149 148 149 148 147 146 142 141 136 137 134 138 137 137 132 133 129 128 130 127 126 128 131 131 128 125 124 124 125 127 123 126 125 129 134 140 142 140 140 137 137 131 132 129 120 122 123 120 120 121 122 121 120 122 119 118 119 118 120 119 116 118 114 117 114 114 108 112 
146 144 143 146 147 151 153 155 152 153 147 150 150 150 149 147 151 145 142 139 136 136 135 135 133 131 130 129 126 127 126 128 126 130 134 128 126 125 123 126 124 127 127 127 124 134 135 140 141 140 145 144 138 131 132 130 126 124 123 119 115 114 121 120 120 116 116 116 118 117 118 119 115 117 116 116 115 114 107 111 
148 141 142 145 150 154 152 152 150 154 152 151 150 151 150 148 146 147 141 139 134 133 133 136 132 132 130 127 125 126 126 125 124 128 130 130 128 123 123 124 121 127 123 124 122 128 133 138 140 143 142 141 135 134 132 127 124 125 127 118 117 116 117 118 115 117 117 114 117 114 114 118 114 114 118 116 117 114 112 116 
146 144 146 148 153 149 151 155 148 152 151 149 150 149 149 149 146 145 143 138 136 135 133 135 130 129 129 128 129 124 127 127 127 127 125 121 124 122 123 122 123 124 126 125 126 130 131 139 140 141 141 140 135 131 130 127 124 123 120 116 119 118 118 114 114 117 114 116 115 114 117 117 118 118 118 116 117 116 110 111 
145 143 142 149 152 153 154 154 150 153 153 149 150 147 150 145 144 147 141 141 135 133 134 131 129 128 129 126 125 127 124 125 126 125 124 124 123 122 119 122 119 124 124 127 128 130 134 138 142 140 139 137 136 128 126 128 124 118 119 113 118 115 116 114 115 116 114 115 117 115 113 118 117 119 118 119 114 113 108 116 
144 144 141 149 151 155 154 156 152 153 149 149 148 146 149 149 147 144 141 137 135 134 127 132 130 132 129 127 129 130 126 127 125 125 127 125 127 120 122 122 119 125 123 124 124 127 134 136 137 139 135 135 133 128 126 124 124 119 120 115 117 117 117 116 115 115 111 116 114 114 112 116 115 115 118 118 117 117 113 112 
139 141 139 149 152 152 154 155 150 155 150 149 149 151 154 148 145 144 140 141 135 134 129 126 130 126 125 125 124 125 125 124 126 125 129 124 124 123 118 121 120 124 129 126 122 129 133 136 143 135 137 135 132 132 126 124 125 119 122 118 117 117 115 119 117 113 111 113 114 111 111 116 115 116 116 116 118 117 111 115 
140 139 138 146 151 149 151 155 150 153 149 149 146 146 152 147 146 142 138 139 136 128 131 129 125 128 123 125 124 123 123 123 122 124 127 124 122 121 120 120 118 122 123 121 122 123 132 141 139 137 134 133 135 126 123 122 122 120 120 116 114 111 116 115 115 115 113 111 115 114 114 113 113 113 112 113 116 117 109 111 
139 137 135 144 146 147 148 151 149 148 146 146 145 142 147 143 141 139 132 133 132 129 125 126 127 123 122 124 121 121 122 122 123 123 124 122 120 120 114 119 120 119 120 122 117 120 129 134 136 134 136 134 132 122 124 124 115 118 117 112 114 108 112 113 112 114 113 110 109 110 113 118 112 112 113 114 115 111 109 109 
140 136 138 146 146 145 145 149 144 150 143 141 143 140 143 140 135 134 130 131 127 124 127 122 124 123 120 124 116 121 119 118 120 119 117 117 118 118 114 120 117 114 117 120 119 122 125 132 134 132 134 130 130 123 124 122 117 118 115 115 111 112 115 110 111 112 109 109 111 110 114 113 110 111 113 115 111 112 109 114 
140 136 134 145 145 145 146 147 145 149 141 144 142 142 141 140 134 131 131 130 128 123 123 123 120 121 117 116 117 114 118 115 116 113 116 115 116 113 111 116 111 113 112 117 115 118 119 129 129 126 131 129 126 122 125 120 118 118 116 111 111 109 115 114 112 109 105 110 109 110 110 113 110 115 114 113 113 112 110 111 
134 134 130 143 146 145 146 143 143 143 137 137 141 138 137 135 130 134 126 128 124 122 124 116 116 116 118 118 112 108 111 112 109 109 111 111 113 110 108 108 107 108 111 113 109 115 118 127 127 125 128 126 126 120 120 119 115 115 114 109 104 107 111 112 112 113 109 109 110 108 110 111 108 111 108 109 112 110 107 110 
131 135 131 141 143 144 143 143 138 143 138 136 142 141 138 134 133 129 128 123 127 120 122 120 113 117 115 115 110 108 108 112 111 110 108 107 107 105 102 103 105 105 105 107 105 113 116 123 127 122 124 126 123 118 117 117 112 110 112 109 109 105 107 110 109 110 108 106 108 110 112 108 108 109 108 112 112 107 108 108 
128 130 129 137 142 141 142 140 137 140 136 136 138 138 134 134 130 131 128 128 128 133 122 118 113 112 111 113 110 110 108 110 107 106 110 109 103 101 101 101 101 101 107 101 104 110 116 120 123 118 120 124 123 119 116 112 108 110 110 106 105 103 105 107 108 110 110 110 109 109 109 108 109 109 107 111 107 109 105 104 
126 127 125 137 136 137 136 136 133 140 134 132 133 130 130 132 131 128 125 130 159 183 145 120 110 109 110 108 106 105 106 102 108 107 106 106 106 102 100 102 99 98 100 103 103 106 115 121 119 119 121 123 121 118 114 114 111 109 106 103 104 102 102 103 102 104 105 102 108 107 108 111 108 107 106 107 109 107 103 103 
129 121 123 131 134 132 134 131 129 132 131 131 129 130 130 129 128 123 123 127 162 180 146 110 104 104 103 103 100 98 95 97 100 105 104 104 103 105 102 102 101 102 99 99 102 107 110 118 117 116 119 118 118 117 113 111 104 103 103 101 99 103 100 102 97 100 104 104 106 105 105 107 107 104 107 104 107 104 101 99 
123 119 113 119 119 116 118 119 116 120 120 122 122 123 125 123 123 124 122 125 144 142 115 100 97 100 100 94 90 93 87 87 89 93 104 97 97 100 96 102 100 100 100 102 99 103 113 117 114 113 113 116 118 116 113 110 99 102 99 100 98 99 100 101 96 99 102 101 103 103 102 101 101 103 103 103 101 98 97 97 
117 113 109 111 108 104 105 103 103 101 100 102 104 106 106 106 113 119 121 118 115 106 97 92 92 94 92 91 88 85 81 82 85 86 95 88 95 101 102 102 101 99 98 98 97 102 109 113 112 107 110 113 114 111 109 106 102 99 103 99 94 97 98 97 96 101 98 96 99 102 100 104 100 103 100 101 98 101 94 100 
114 109 105 106 105 96 100 98 97 95 90 95 97 89 93 94 94 96 105 106 99 89 91 91 89 93 89 87 85 81 82 85 81 83 82 86 102 101 103 102 99 99 97 99 97 101 106 107 111 108 108 109 111 108 102 102 101 101 98 97 96 94 95 96 96 98 97 98 99 98 98 103 97 102 99 99 96 99 96 97 
107 102 99 98 95 91 91 90 87 90 88 87 85 85 89 83 83 82 89 88 87 84 88 90 92 89 88 88 83 83 81 79 77 78 78 78 97 96 97 97 99 96 100 98 95 95 102 105 108 104 105 108 104 102 98 101 95 92 95 94 92 94 94 97 96 96 98 99 97 93 96 101 99 99 98 98 100 98 90 94 
102 100 93 94 88 83 89 85 86 86 85 85 82 83 80 80 80 80 82 84 83 83 85 88 88 87 87 87 85 83 79 79 75 76 75 78 88 94 93 91 90 91 90 86 88 89 87 95 101 102 103 102 99 101 99 99 96 94 94 91 91 94 91 89 92 94 93 96 96 91 95 98 95 95 97 95 96 89 86 93 
95 96 92 93 90 81 82 80 81 78 77 78 80 75 80 73 78 88 93 89 79 80 86 86 88 87 90 90 85 82 77 78 78 76 77 78 87 86 87 85 84 87 85 83 80 82 70 69 73 75 82 93 95 95 97 102 96 91 95 94 90 94 91 88 89 91 89 91 90 93 94 97 92 90 92 92 91 84 84 87 
94 96 87 87 82 77 79 76 75 75 74 76 75 76 78 74 76 91 94 87 77 76 81 83 83 84 85 98 107 92 83 75 75 72 73 75 84 87 85 83 82 80 82 81 77 75 65 58 57 59 65 72 78 80 96 97 91 92 93 88 85 88 88 85 88 91 88 89 85 87 87 90 86 85 82 85 84 78 79 80 
92 88 83 84 80 74 77 77 74 73 69 72 74 69 72 70 79 90 89 86 74 78 74 76 80 81 86 125 135 102 85 71 72 75 67 71 82 81 85 84 75 75 74 74 69 69 57 54 48 52 53 61 76 80 92 93 94 88 85 82 83 84 83 85 81 87 85 85 84 81 83 87 82 78 81 80 79 76 72 77 
88 90 80 79 76 72 73 73 70 72 70 70 65 69 70 67 76 89 87 78 73 73 74 76 77 77 84 131 142 123 89 71 71 72 68 66 80 81 79 78 76 73 70 72 64 60 56 45 45 44 53 60 78 85 86 88 89 88 82 79 74 79 77 78 79 83 81 79 75 80 78 82 78 77 76 76 78 71 75 72 
87 86 79 77 71 68 69 68 66 65 67 61 66 65 63 61 74 86 84 74 70 73 76 76 73 73 76 121 129 146 90 67 69 69 62 66 75 78 73 73 68 69 66 66 58 55 51 39 37 40 48 51 78 81 82 88 82 82 80 75 77 80 78 74 75 79 76 74 75 75 74 81 74 74 70 74 72 68 66 70 
81 79 71 77 70 66 65 63 62 60 60 60 61 61 58 58 71 81 78 72 68 69 71 73 70 72 71 78 85 83 70 65 69 67 62 63 73 70 73 69 64 67 65 61 55 50 46 37 35 32 38 45 67 78 82 82 82 80 77 74 75 77 73 71 73 74 73 71 72 74 76 74 67 68 70 68 67 67 65 65 
82 76 72 74 68 63 62 62 60 60 55 57 59 56 56 59 77 80 76 71 67 67 67 73 69 74 67 64 63 62 67 68 72 67 59 60 71 66 67 62 62 60 59 54 47 45 39 31 29 29 34 38 56 69 80 79 79 77 72 75 74 72 74 72 75 73 76 72 72 70 73 76 68 65 68 69 65 63 62 64 
80 74 68 69 69 62 63 61 61 59 53 55 57 56 56 53 68 75 74 66 67 65 64 64 65 66 65 60 59 61 64 67 67 65 57 59 64 66 62 64 55 58 54 51 44 44 37 27 23 22 27 32 35 47 64 74 70 72 74 71 71 68 65 69 70 72 72 70 69 68 70 69 64 60 61 64 62 63 57 57 
76 70 69 67 61 57 61 58 53 58 53 54 54 56 53 51 63 68 63 64 62 62 62 62 63 60 57 55 52 56 60 64 63 59 55 56 62 60 60 56 52 53 51 42 42 36 32 28 19 19 21 20 22 26 36 58 69 71 75 71 66 65 60 64 66 65 65 64 70 66 65 68 59 56 59 57 61 56 53 56 
75 70 63 63 60 53 53 56 53 55 51 52 51 52 50 46 48 52 49 57 59 58 61 57 57 57 53 53 50 58 57 59 60 52 50 54 58 60 58 54 49 49 43 46 38 35 30 30 28 22 18 16 14 18 24 40 64 66 73 64 62 62 59 57 60 65 62 63 70 66 68 62 58 57 54 62 56 55 50 48 
75 69 64 67 62 55 54 56 52 55 50 46 50 52 47 44 45 43 48 55 56 52 57 56 56 64 66 55 60 74 62 53 55 50 48 52 57 56 59 51 50 49 47 39 37 33 27 27 25 27 17 14 15 19 20 27 56 62 63 65 60 61 59 57 57 58 62 63 64 63 62 61 54 54 50 53 54 52 45 48 
71 66 62 64 60 51 53 53 48 48 50 49 47 46 45 39 42 39 44 53 55 51 53 49 48 53 54 53 52 59 52 45 50 48 46 53 54 51 48 45 45 43 42 39 31 33 27 29 22 18 10 8 11 15 18 21 41 57 59 57 59 55 54 58 57 60 59 60 58 58 59 59 52 49 51 51 52 48 44 42 
72 66 58 63 61 53 52 51 46 51 48 45 41 43 43 40 38 40 41 50 52 49 49 49 50 50 51 50 44 46 44 44 44 45 41 50 50 47 44 40 39 36 39 36 32 28 31 32 19 13 8 7 6 13 10 12 29 51 57 54 57 54 52 53 56 59 55 56 56 53 55 54 48 54 51 46 47 44 44 45 
66 63 56 59 55 52 53 49 47 48 48 46 42 44 37 35 35 37 46 51 48 49 49 52 49 50 48 45 40 42 40 41 42 38 44 49 49 45 39 40 41 38 37 35 27 29 31 34 23 7 10 7 4 10 8 7 17 46 54 51 53 53 49 48 52 54 52 56 57 54 54 51 50 50 48 46 43 41 41 43 
69 61 57 60 57 54 50 52 45 47 44 48 41 38 37 34 33 33 42 49 47 47 49 48 46 47 45 42 37 40 40 43 40 39 40 49 47 40 41 40 37 38 35 34 28 31 32 36 25 10 9 6 3 5 5 8 10 27 52 47 49 50 44 49 49 50 52 49 53 51 46 52 49 45 47 42 36 33 40 41 
67 60 56 58 57 48 52 48 46 46 47 42 38 39 36 35 34 34 34 46 47 50 49 47 45 46 43 41 37 39 37 39 38 42 40 45 39 40 38 42 36 38 36 39 36 39 33 33 29 12 7 4 2 6 4 5 5 18 42 49 47 44 44 45 47 46 45 46 48 45 48 44 43 44 41 39 37 35 36 31 
64 62 56 60 55 48 52 51 47 47 43 42 39 38 38 35 33 32 35 45 48 47 47 49 46 44 40 44 39 39 40 42 39 40 39 43 38 37 37 37 32 37 42 43 42 43 36 36 31 14 10 6 6 7 4 5 3 11 32 47 48 48 46 45 42 43 40 38 44 42 41 43 41 41 41 36 31 31 32 32 
63 59 57 58 50 51 51 52 47 46 39 43 40 37 36 37 35 34 36 43 46 46 49 49 45 47 46 45 38 42 40 40 35 40 35 42 41 36 31 28 29 36 39 40 38 39 37 39 31 21 13 8 1 2 2 1 1 4 22 40 46 42 38 40 41 39 36 37 39 38 43 40 38 41 38 35 30 27 30 27 
60 59 58 57 53 48 52 51 44 46 42 42 40 38 37 35 32 35 37 43 45 45 46 46 49 45 44 44 40 39 39 39 40 38 35 36 29 29 25 26 30 35 38 40 39 42 39 36 31 18 15 8 3 3 3 2 0 7 17 37 40 38 41 39 37 36 37 36 34 34 38 38 38 37 38 39 34 27 24 28 
65 61 59 59 50 49 50 49 46 47 42 41 39 37 38 38 35 36 39 44 45 45 48 45 45 41 42 42 40 41 38 38 40 37 36 33 30 23 24 22 27 30 38 38 37 38 39 34 26 15 16 13 4 4 2 2 3 4 8 25 38 34 38 38 36 33 33 31 33 33 33 36 39 38 35 38 29 25 26 27 
63 61 57 58 54 55 53 47 45 47 46 43 42 40 41 39 37 37 38 45 47 43 46 46 45 44 40 40 39 42 42 40 37 38 33 30 30 31 23 25 30 34 36 35 35 41 37 34 26 14 16 15 7 4 5 6 4 2 8 18 29 33 37 39 36 37 35 37 36 33 35 35 34 34 35 33 25 28 27 29 
64 63 58 62 57 53 53 49 43 48 47 45 44 44 44 43 43 41 40 45 44 42 47 45 42 37 39 40 39 37 42 37 39 40 37 31 32 30 26 25 32 35 33 35 34 37 39 33 21 16 14 16 11 8 8 6 7 8 14 20 31 30 34 36 36 37 32 37 30 31 35 36 31 31 32 28 24 23 24 24 
62 63 58 61 59 57 52 52 47 52 45 46 45 47 43 44 45 44 42 45 42 42 44 43 40 41 42 39 36 42 39 39 37 37 35 35 35 34 30 28 33 36 35 37 37 39 38 34 23 19 20 19 16 14 11 10 8 8 16 20 27 30 32 37 35 34 37 33 30 31 32 31 32 31 25 26 26 21 23 27 
66 66 62 66 60 58 52 52 51 49 48 48 48 48 49 48 46 43 42 45 45 41 43 42 39 42 40 40 39 39 36 40 41 42 39 41 34 34 31 32 34 34 33 35 37 38 34 34 24 24 23 20 15 21 15 14 10 15 20 23 27 28 36 37 35 36 32 32 31 29 32 31 29 31 25 27 24 27 24 25 
71 65 64 63 61 55 55 52 49 52 50 52 48 48 49 48 47 46 44 47 43 40 41 43 41 43 42 41 38 38 39 38 38 38 40 41 35 34 30 33 32 34 33 32 37 36 38 28 26 24 24 18 20 20 20 20 16 17 22 29 29 29 33 38 38 35 35 32 32 30 31 32 28 26 29 26 23 26 24 25 
72 71 64 67 60 56 59 57 51 51 49 49 53 53 53 53 49 47 46 46 47 44 47 42 43 39 40 39 37 40 40 39 39 38 37 39 40 33 34 33 32 32 32 31 34 39 38 29 26 27 29 22 25 21 23 20 19 19 28 32 27 29 33 39 34 36 29 30 34 32 30 31 28 31 30 26 25 23 23 26 
76 70 68 66 63 59 60 54 48 52 52 53 53 55 56 55 52 50 49 51 47 44 45 45 43 44 42 37 38 40 38 40 42 39 38 36 38 39 34 36 34 34 31 34 36 35 34 32 28 28 30 25 23 26 19 21 20 28 32 29 31 34 34 36 37 36 34 33 32 29 32 35 29 31 32 27 26 27 22 26 
80 73 67 64 64 62 63 56 53 54 56 55 57 60 60 59 56 52 56 55 52 51 51 50 48 43 40 41 40 39 39 41 39 39 43 41 41 39 42 38 36 37 38 39 37 38 32 32 29 29 31 23 23 26 21 20 16 25 28 35 33 34 37 42 40 39 34 32 32 24 30 33 31 31 32 27 30 27 22 26 


