P2
80 60
177
150 145 141 149 148 145 145 150 153 158 156 154 162 155 153 156 154 158 150 149 145 141 144 146 147 141 143 142 144 143 138 138 136 136 137 135 134 136 134 138 136 138 130 127 129 126 127 130 125 121 121 128 124 126 127 128 129 123 120 118 115 112 108 110 106 105 103 100 101 99 95 92 94 91 91 87 82 83 81 86 
143 147 142 147 149 146 147 153 150 155 156 157 160 156 158 156 158 156 151 147 147 146 150 151 148 149 148 153 146 151 149 146 149 147 148 145 144 142 144 144 144 145 139 137 132 133 133 131 126 120 125 126 126 127 127 128 127 125 123 118 116 111 111 108 107 106 103 105 105 101 99 93 93 92 88 89 85 86 80 81 
143 146 139 147 147 148 144 149 152 156 157 158 161 157 159 158 155 156 154 148 150 150 149 147 146 149 146 152 149 153 149 154 150 150 150 146 147 148 149 148 149 153 146 144 143 145 144 142 131 127 128 131 130 127 129 130 130 126 125 120 115 112 110 109 110 109 105 107 110 106 96 97 100 96 93 90 88 86 82 80 
148 147 143 149 153 151 151 151 154 155 158 159 156 157 155 159 157 156 158 149 148 148 147 147 149 151 150 152 155 155 151 154 154 151 152 149 149 149 148 148 151 155 149 148 145 148 146 142 139 135 134 136 134 134 133 136 133 127 127 121 117 113 111 112 113 112 108 110 111 106 102 99 95 95 96 92 89 88 84 86 
149 150 146 150 147 148 151 155 155 156 160 164 158 158 159 158 160 157 156 150 146 149 151 150 148 152 154 152 153 150 148 156 150 150 150 148 150 147 149 151 149 152 148 147 147 148 148 147 141 137 140 138 139 137 135 134 134 130 130 123 121 120 113 114 114 113 111 113 110 108 104 101 96 101 96 95 89 85 84 79 
148 154 143 149 148 148 149 159 157 160 158 163 161 161 159 161 157 162 157 149 150 150 150 151 154 153 154 154 153 153 155 157 156 154 151 152 151 150 150 152 151 152 149 148 147 149 150 146 146 140 143 141 139 139 137 136 135 133 131 124 123 123 116 117 113 115 112 114 112 110 109 103 102 101 99 96 94 92 86 86 
146 148 147 148 151 148 154 155 157 159 161 163 163 162 159 157 158 155 156 154 150 150 150 148 149 149 152 155 157 151 154 157 155 152 152 150 153 150 150 151 149 153 150 147 146 149 147 146 146 151 151 149 147 143 141 142 139 133 130 129 128 127 122 121 116 119 117 117 117 116 106 105 105 105 103 99 96 94 89 91 
147 151 146 149 150 148 155 156 159 159 160 162 165 164 162 166 160 162 155 150 152 151 151 150 152 153 151 154 157 154 152 154 155 154 152 150 149 149 148 153 151 154 149 145 147 149 150 147 144 149 155 152 151 149 145 145 141 137 134 129 128 125 120 121 124 120 120 121 118 115 107 111 107 112 103 102 99 92 91 91 
144 147 144 149 148 148 151 157 157 157 160 163 166 163 165 165 165 160 160 152 153 149 152 150 153 151 150 152 154 153 153 153 154 152 149 147 148 147 150 147 152 151 149 146 148 150 148 147 144 151 153 155 152 148 148 143 143 137 135 132 128 130 123 127 123 119 120 122 122 115 112 110 109 111 108 106 101 96 94 92 
146 147 144 149 151 151 155 160 160 161 163 163 164 163 160 163 162 162 160 155 154 150 148 154 149 153 151 151 155 154 153 156 152 152 151 147 150 147 145 148 148 152 148 149 147 150 151 149 144 150 149 151 149 146 146 144 139 138 134 129 126 131 123 124 125 125 125 120 124 120 119 116 113 115 108 108 101 101 94 95 
145 148 144 150 148 149 157 156 159 162 165 163 165 163 165 160 163 160 159 154 153 152 152 150 153 154 154 151 153 153 153 154 155 149 151 150 150 150 148 149 147 149 149 148 149 149 148 148 148 148 150 153 147 148 144 141 140 136 132 131 124 125 120 126 124 125 122 124 125 119 119 121 118 115 113 110 106 103 95 91 
141 150 142 147 150 147 159 162 162 164 164 163 167 162 165 163 164 161 160 156 152 153 152 154 150 149 152 152 154 154 150 153 151 151 152 148 149 145 147 149 150 149 150 146 146 146 147 146 144 150 152 149 150 149 145 141 137 137 132 128 123 124 119 121 122 123 119 120 121 120 120 121 116 116 115 110 106 107 99 99 
147 146 146 150 153 155 160 159 163 165 163 161 162 162 167 164 162 160 161 153 153 152 150 149 148 152 147 150 152 151 153 153 147 148 153 150 149 151 148 148 147 151 150 146 143 144 144 145 147 152 149 152 149 146 143 136 139 135 132 128 126 122 118 122 121 122 121 120 119 119 115 118 113 115 114 111 107 107 98 104 
148 146 147 148 153 149 158 160 162 161 164 161 160 160 163 165 164 160 159 152 147 150 145 144 145 146 145 149 147 149 152 149 151 148 147 145 150 145 147 148 147 156 146 148 144 150 144 147 146 150 149 150 147 147 146 140 138 135 131 126 123 124 117 121 118 120 119 119 120 114 114 114 115 116 110 111 107 101 99 100 
140 145 144 147 151 152 158 162 163 162 163 165 161 160 164 164 163 160 156 151 155 150 150 148 148 149 145 143 143 143 147 144 147 148 147 144 146 144 147 145 149 150 145 145 146 146 146 145 146 153 149 149 148 149 143 140 137 135 130 125 124 123 118 123 121 116 118 116 118 114 110 114 113 112 112 107 106 105 99 100 
141 142 142 146 149 152 158 161 160 164 161 165 161 161 161 162 157 157 153 148 151 144 148 147 145 149 144 128 121 122 126 125 131 138 135 137 138 140 142 144 144 149 143 145 142 145 146 142 145 148 149 148 147 144 142 137 137 134 131 125 123 125 118 121 118 114 115 116 116 114 113 114 112 114 111 108 107 104 98 101 
139 142 140 143 149 154 157 160 159 163 158 163 163 159 159 160 160 156 156 151 150 148 142 146 145 147 140 123 114 114 113 113 114 110 113 115 119 125 130 138 144 146 145 142 139 145 141 145 143 146 146 148 144 145 142 136 138 130 134 126 121 118 118 118 118 116 114 115 112 113 111 114 113 114 114 110 107 103 100 98 
135 140 137 140 148 152 158 157 157 160 157 159 159 157 158 158 160 158 156 150 150 149 147 144 143 142 134 116 113 112 108 112 111 111 105 107 110 107 109 125 142 149 144 140 138 141 140 140 145 144 144 145 143 144 138 135 133 132 132 123 121 123 117 121 116 116 113 113 112 111 111 116 115 114 110 106 104 105 101 99 
139 137 138 142 147 150 153 157 160 158 157 159 156 156 159 158 157 152 151 146 148 148 144 148 145 139 126 114 110 114 109 112 111 109 106 108 108 108 108 126 141 148 146 139 138 140 139 139 141 144 145 142 141 143 139 136 134 129 129 123 121 118 115 115 117 118 112 114 110 114 110 112 111 114 111 110 106 103 100 103 
134 137 137 141 144 148 154 153 157 157 155 156 157 154 154 157 155 152 148 147 145 142 141 141 138 136 120 114 115 114 112 115 113 109 112 109 111 109 113 132 140 148 143 137 140 137 139 139 139 144 143 143 140 136 138 134 131 129 129 119 113 117 114 113 115 113 113 110 113 114 112 115 110 109 111 109 108 99 98 97 
133 137 137 139 142 148 151 154 155 155 154 157 154 150 153 154 152 152 146 146 150 146 140 136 130 129 119 120 117 117 117 119 117 119 122 122 122 119 118 124 129 133 136 131 137 138 137 136 142 140 141 136 136 140 136 133 131 131 122 122 117 116 113 111 115 111 112 113 112 112 108 108 109 110 105 106 100 101 100 97 
137 134 133 142 144 147 152 149 152 154 153 154 154 150 150 152 150 148 142 151 174 174 140 126 118 117 115 116 118 118 114 116 119 118 123 123 121 119 113 116 116 117 118 117 131 134 133 135 140 141 140 138 134 134 134 131 129 127 124 120 113 117 113 112 112 115 110 110 111 110 108 107 106 110 107 109 102 101 96 100 
132 131 130 133 141 146 148 149 149 150 149 153 151 147 148 150 149 146 142 151 172 177 151 119 111 112 106 109 112 113 110 108 111 108 111 110 112 106 107 102 105 108 104 105 126 129 133 132 140 143 135 137 134 135 131 130 129 122 122 117 112 114 113 115 112 113 111 112 113 110 108 105 110 109 104 102 103 102 98 93 
129 130 128 133 138 139 146 146 146 147 148 148 148 145 144 146 144 146 139 142 152 151 127 112 106 106 103 108 109 110 107 104 104 102 102 101 100 96 97 100 96 102 105 101 112 123 128 130 134 137 134 133 132 130 132 127 123 120 117 114 110 113 111 108 111 109 110 109 112 108 109 105 106 109 105 104 98 101 94 95 
127 129 127 129 136 138 140 147 143 146 145 145 145 143 142 146 147 141 136 137 130 120 109 105 102 102 97 102 105 103 101 100 99 98 97 94 94 96 95 98 96 98 101 92 97 106 123 127 134 135 135 134 128 132 125 121 119 114 117 110 108 110 109 110 110 112 113 110 113 112 107 105 106 107 105 101 100 99 98 91 
124 122 122 126 137 137 141 144 143 141 141 144 143 140 138 143 142 136 131 122 108 104 103 101 103 99 93 97 96 98 95 100 97 98 93 91 94 91 92 94 94 95 98 91 97 100 115 122 128 131 129 127 129 127 127 124 117 111 109 111 104 109 109 108 111 111 111 108 113 111 107 106 104 101 99 100 96 93 93 92 
121 123 115 122 126 131 129 131 135 136 139 138 143 138 137 139 137 137 131 116 104 101 98 99 98 98 98 96 99 102 98 98 95 94 93 89 91 94 93 93 95 94 88 90 95 99 110 116 125 128 126 127 124 127 123 122 116 113 112 108 104 106 105 106 107 109 108 107 110 111 108 105 102 100 102 99 94 95 92 98 
119 118 117 121 118 116 115 114 117 118 117 120 123 117 120 125 126 128 127 113 100 96 92 98 95 94 96 95 95 96 95 95 92 93 93 89 92 89 90 90 91 89 86 91 89 96 106 116 125 125 123 126 124 124 122 119 115 111 112 105 104 105 102 108 107 108 103 106 107 107 102 105 99 101 97 97 95 94 89 96 
114 115 110 113 113 108 109 105 104 103 108 108 109 105 103 104 104 103 106 103 92 93 92 92 87 91 90 95 93 99 95 95 92 93 90 86 90 93 91 89 89 88 81 83 88 94 102 118 122 125 121 121 117 122 118 113 109 106 108 102 100 104 100 107 104 107 102 105 104 101 96 99 97 99 97 93 93 92 86 85 
113 112 108 110 104 103 101 97 97 98 104 100 102 99 100 100 99 95 97 92 90 91 88 91 88 94 90 91 90 92 92 92 92 91 87 85 87 88 88 84 86 85 80 86 86 88 102 117 120 118 119 117 114 116 118 115 106 107 107 102 97 100 100 100 104 100 97 101 102 99 98 96 95 98 99 93 93 88 85 84 
110 108 103 101 97 94 92 90 88 92 94 98 96 96 94 94 92 91 86 87 88 88 87 87 87 88 92 88 90 89 87 87 89 90 86 84 86 87 86 86 83 80 75 82 80 88 101 111 113 115 117 113 114 114 116 110 108 105 104 97 95 98 98 99 101 98 97 98 100 97 92 96 91 93 93 91 87 88 81 81 
106 105 100 101 93 90 90 86 83 87 87 88 91 89 87 91 90 87 85 82 88 87 89 84 89 88 87 90 89 84 81 77 79 84 83 84 85 82 84 88 79 80 77 79 80 82 94 92 91 99 99 101 106 108 111 105 105 100 102 96 94 96 94 95 98 95 93 93 96 97 92 90 91 90 88 88 86 80 83 86 
95 99 98 94 92 83 85 81 82 79 86 80 82 82 84 87 83 79 80 78 85 82 86 83 86 88 84 83 81 79 75 73 78 77 82 83 85 85 84 85 81 78 73 76 78 81 88 85 73 74 76 78 85 98 96 96 104 101 101 94 90 91 91 91 89 91 88 90 90 91 88 87 85 84 81 81 80 78 72 73 
93 97 92 91 90 79 78 71 74 73 78 77 79 74 80 80 78 76 77 81 81 83 80 82 83 82 81 82 73 72 72 73 74 76 79 82 86 84 82 83 81 76 72 73 74 78 85 80 71 66 68 67 68 77 84 88 102 97 98 93 89 86 87 87 88 84 85 90 89 85 84 83 79 81 78 79 77 75 73 75 
90 93 89 87 84 78 74 70 70 70 75 74 76 72 76 72 72 71 69 77 78 79 79 79 80 84 79 80 71 69 69 69 68 73 77 75 79 79 79 80 77 72 67 71 73 76 77 75 61 57 58 59 64 80 92 94 96 95 94 88 86 85 85 81 84 82 81 79 79 82 77 74 76 73 75 69 68 70 69 66 
91 89 83 85 81 73 70 69 68 69 71 70 71 70 70 68 69 64 63 71 75 75 77 77 79 81 80 79 69 67 66 65 66 70 73 76 76 78 77 81 75 67 68 70 73 74 73 68 56 52 53 53 58 77 87 92 95 93 88 83 79 82 80 78 81 77 78 80 77 72 72 74 72 71 68 67 68 67 60 60 
89 86 81 81 78 70 69 65 64 67 69 66 70 68 61 64 64 55 61 68 74 74 75 77 78 80 79 77 77 70 67 70 75 74 77 75 78 74 76 75 70 64 68 70 74 75 66 61 48 42 41 43 47 64 87 89 95 90 85 82 77 79 79 77 77 72 74 73 75 70 71 72 67 66 64 63 60 59 57 58 
85 85 82 77 73 68 66 65 62 63 67 67 65 60 62 62 59 52 64 68 70 71 74 74 77 77 80 79 79 78 75 74 76 73 75 72 73 70 74 71 68 63 65 66 68 66 63 55 43 34 37 36 39 55 81 87 87 82 82 79 77 75 78 73 75 70 73 69 72 68 68 68 68 70 61 60 57 56 55 54 
80 81 76 74 66 65 63 61 60 60 63 63 62 59 60 59 56 53 56 66 69 72 72 72 72 75 75 81 79 79 76 81 78 74 71 72 72 71 73 70 66 62 61 64 61 65 58 50 39 31 29 26 32 40 66 75 83 80 82 76 74 73 72 69 69 71 66 67 64 65 64 66 62 64 57 53 52 51 49 48 
81 81 74 74 70 63 62 60 59 60 59 60 58 59 59 56 54 51 57 69 70 71 70 72 73 70 73 77 75 78 75 75 75 72 74 72 71 69 70 70 65 64 59 59 61 61 54 48 36 27 24 21 24 29 39 46 66 77 78 74 69 74 69 65 69 62 64 64 63 65 61 60 67 60 55 53 51 51 45 43 
76 77 72 67 65 60 60 53 57 58 60 61 58 58 56 54 50 48 56 63 65 69 66 67 65 71 74 75 77 77 75 76 75 72 71 71 70 68 70 66 66 65 60 61 57 59 50 43 34 27 24 18 15 18 30 31 46 69 74 72 72 69 66 66 66 58 57 58 57 62 59 63 59 59 53 50 47 51 40 40 
72 75 70 70 65 59 59 57 52 56 55 55 54 55 53 50 47 48 56 64 67 70 64 65 68 72 71 76 74 75 72 73 68 70 72 70 70 67 67 65 64 59 59 57 57 52 36 34 33 32 32 22 12 12 18 21 31 56 64 63 64 64 64 61 60 56 55 58 56 61 56 60 60 53 54 45 46 45 39 39 
73 73 68 68 63 62 58 56 52 52 55 54 54 50 52 51 48 47 55 61 63 64 64 65 68 65 70 70 76 75 71 73 72 68 70 66 69 66 63 64 59 55 56 54 56 43 29 30 31 33 22 13 7 10 13 19 24 42 60 65 63 64 64 60 59 54 52 57 55 59 56 59 57 53 50 47 44 45 40 38 
72 72 64 63 64 60 58 55 53 54 51 53 52 50 50 52 44 47 53 60 62 62 61 61 62 65 63 67 67 68 67 66 68 67 70 67 68 66 59 65 58 54 54 55 55 42 30 29 39 29 21 14 6 10 14 13 15 25 53 57 59 60 57 59 54 53 50 54 55 55 58 53 51 49 47 44 43 40 35 38 
70 72 61 65 59 57 57 52 54 53 52 50 51 51 48 48 47 43 54 62 61 60 61 63 61 61 61 60 64 63 59 60 64 65 67 64 63 61 64 62 57 53 55 57 52 39 27 26 39 36 23 12 9 8 8 11 6 16 39 52 53 54 56 56 49 47 50 56 54 53 52 51 51 48 43 44 39 40 33 34 
68 68 64 60 59 55 54 49 51 49 52 52 52 49 47 46 44 43 54 61 61 65 61 56 57 62 64 66 65 52 50 48 46 56 61 63 61 60 65 62 54 51 55 52 51 40 26 23 39 38 21 14 7 7 7 6 7 9 29 45 49 54 55 51 47 47 49 52 50 51 50 50 50 44 43 36 37 37 33 32 
64 65 60 62 59 56 56 54 51 50 51 47 48 46 45 45 40 42 51 59 59 60 57 55 58 57 63 63 58 52 49 51 51 49 57 58 61 59 62 58 51 52 51 51 52 36 26 23 34 33 24 15 8 6 6 2 4 5 18 41 45 49 49 46 47 44 47 47 48 48 47 48 45 39 41 36 37 32 25 25 
63 64 59 59 58 54 54 53 50 53 49 48 46 46 45 40 42 42 51 59 58 55 56 55 57 58 61 56 48 45 43 43 45 48 57 58 59 57 61 56 50 49 51 50 46 34 26 21 29 29 20 15 6 4 5 1 4 5 10 26 41 48 46 43 46 44 43 44 39 39 39 40 41 35 37 36 33 30 25 27 
63 65 59 59 55 55 53 49 48 49 50 48 47 45 44 42 40 43 56 56 59 59 57 57 57 57 57 59 47 42 39 42 43 48 57 58 59 59 55 55 49 48 48 46 45 32 23 22 28 29 27 18 6 7 2 2 6 6 5 15 35 44 43 40 41 35 38 40 38 36 38 38 37 34 38 35 33 29 27 25 
63 64 58 57 59 56 56 51 48 47 50 48 48 45 46 41 38 45 51 54 55 56 56 55 59 57 56 53 48 45 42 43 40 48 59 58 61 59 56 55 46 52 46 42 40 27 25 20 17 25 25 21 9 5 5 2 0 2 8 7 30 41 42 35 37 37 34 34 35 35 33 35 32 34 29 27 30 23 23 23 
63 64 56 59 57 59 54 53 51 51 52 50 52 47 46 42 42 48 57 58 58 59 57 57 60 60 56 57 54 51 47 48 51 55 57 57 59 58 55 54 46 46 47 44 37 27 25 20 16 19 19 19 10 9 10 5 4 7 6 8 18 38 39 34 37 38 34 34 34 33 33 34 31 31 30 28 28 24 21 17 
63 63 58 58 58 61 55 54 52 52 49 49 48 48 45 47 42 47 56 58 57 55 55 57 57 56 55 64 60 59 59 60 58 60 59 57 59 52 55 53 46 47 50 43 39 27 26 16 16 14 13 13 13 9 11 9 7 6 9 8 14 28 34 33 35 36 36 33 35 29 32 31 29 28 26 25 23 20 21 18 
67 67 62 58 63 57 59 52 53 53 54 51 53 49 49 50 48 53 58 55 60 58 56 57 61 55 59 57 60 62 59 63 59 62 60 59 58 55 57 52 42 46 47 42 37 31 29 22 14 14 16 17 16 14 11 9 10 10 10 14 11 24 28 32 30 35 35 31 33 32 34 31 27 30 26 26 27 21 16 13 
69 66 59 63 58 57 58 54 51 53 56 53 54 51 53 50 52 52 57 57 57 54 55 57 56 57 58 60 61 64 61 60 60 61 57 57 54 53 55 51 44 49 48 41 37 33 35 29 24 23 20 19 17 13 16 12 13 12 14 14 16 20 29 34 34 38 37 32 30 35 32 29 28 24 24 24 22 18 11 12 
70 67 63 63 64 61 57 56 51 51 53 55 56 50 52 56 56 54 54 56 56 55 54 55 57 52 54 56 61 60 58 58 60 61 59 57 58 52 52 47 44 46 44 38 35 36 38 34 31 26 27 25 21 20 22 17 17 16 17 15 22 28 29 31 36 39 36 31 30 34 33 29 23 25 28 22 24 16 12 12 
68 70 65 65 65 61 57 58 55 52 52 53 56 51 51 54 53 58 55 55 52 55 54 55 53 55 55 55 61 60 59 62 57 61 60 56 56 54 51 47 44 46 44 40 40 37 40 36 34 30 27 25 24 23 23 20 19 20 20 18 23 31 32 34 36 35 34 31 28 32 26 27 24 23 21 20 17 14 6 7 
73 69 66 69 67 64 61 58 55 55 55 55 54 53 51 52 51 54 51 54 53 53 54 56 52 54 56 56 58 58 54 59 60 62 60 54 56 51 51 47 43 45 45 39 36 40 35 40 35 31 26 32 28 23 26 21 20 21 24 21 24 33 30 32 34 30 31 29 30 29 25 28 24 22 21 22 13 14 10 15 
76 75 70 67 68 67 60 61 60 57 56 55 53 54 53 54 53 55 55 56 53 54 54 55 56 57 55 58 57 56 56 59 59 59 60 61 57 54 53 48 44 46 46 43 40 40 37 44 38 32 34 27 28 24 25 23 25 26 28 27 28 34 29 31 31 35 27 28 28 27 27 26 25 22 21 18 15 12 14 9 
80 77 71 71 69 67 63 64 58 53 54 52 58 53 53 52 55 59 55 54 53 55 52 56 55 53 54 59 60 61 57 60 60 58 55 57 56 55 53 48 44 44 46 41 37 41 39 39 34 29 32 31 28 30 29 28 25 24 27 28 30 35 30 29 28 32 27 25 27 27 27 22 22 21 17 21 14 13 14 14 
82 74 73 67 69 64 66 64 62 58 55 51 56 56 52 54 54 58 58 55 54 57 57 52 57 56 57 65 65 67 58 58 61 58 57 54 55 56 52 48 47 47 44 40 40 42 40 36 36 27 31 29 31 32 32 33 28 31 36 35 39 41 35 31 32 34 30 29 29 32 32 30 29 28 24 19 20 22 14 14 


