P2
80 60
157
134 137 137 139 140 138 137 140 144 148 150 151 152 151 147 148 151 146 143 145 143 143 145 142 145 144 142 138 137 140 137 137 140 137 131 127 124 130 133 132 132 133 129 128 128 124 131 124 119 123 126 128 126 128 133 130 129 128 124 119 119 116 116 115 116 106 109 110 114 109 103 101 101 97 97 100 93 91 89 92 
140 140 141 138 139 138 140 141 146 149 147 149 149 150 150 151 152 148 145 144 144 142 147 145 143 145 142 141 142 145 141 145 145 143 139 131 132 135 135 136 137 138 131 138 136 133 131 126 121 124 127 130 128 131 131 131 127 126 128 123 121 114 116 116 114 110 109 112 113 107 106 106 103 94 95 100 101 91 92 92 
138 140 138 141 142 142 141 143 143 145 154 153 150 150 147 152 151 150 144 146 143 140 146 146 144 146 147 150 149 147 148 147 148 146 140 133 135 139 136 140 140 139 137 142 144 141 141 141 129 127 131 134 135 130 135 127 132 130 126 124 124 119 117 118 117 116 112 113 113 109 104 105 104 100 99 104 94 95 91 97 
141 141 139 143 142 142 140 142 145 148 153 157 155 145 146 154 151 148 149 145 146 144 144 146 146 144 148 144 144 149 149 148 147 148 144 133 135 137 142 142 142 139 138 147 147 146 145 146 140 131 137 135 136 138 136 136 137 130 126 125 123 121 120 118 114 116 119 115 110 109 110 109 105 103 103 106 99 96 90 93 
142 140 140 142 143 141 141 144 147 154 151 156 153 149 151 150 153 148 149 148 144 148 143 144 145 148 147 147 147 145 147 148 147 146 140 134 138 139 140 141 143 145 144 147 149 145 148 150 143 139 139 141 141 140 135 137 138 131 132 127 127 123 124 120 118 117 114 115 115 112 115 112 108 109 105 106 98 98 88 89 
139 141 141 143 139 148 142 144 148 154 153 152 152 145 149 152 149 146 147 147 144 148 147 145 147 151 150 146 147 145 146 148 146 148 139 138 138 140 142 141 139 146 142 147 149 149 146 148 141 139 146 148 143 148 142 138 139 138 132 129 128 130 123 123 118 117 117 119 114 111 116 112 108 108 102 105 100 98 92 97 
140 140 138 141 144 147 142 147 150 149 150 156 152 148 148 154 155 150 146 144 145 146 150 148 146 148 151 146 145 146 147 148 148 147 142 139 138 141 143 140 144 145 143 145 146 147 148 150 145 149 147 147 145 148 147 145 143 138 134 129 132 127 125 127 123 122 121 119 113 114 114 115 113 112 112 111 107 102 98 101 
140 139 141 141 142 142 143 149 149 151 153 152 149 153 154 154 154 150 149 148 147 144 144 145 146 146 148 150 146 152 148 145 146 149 146 140 142 141 144 141 145 145 142 149 146 148 148 146 142 148 153 150 152 151 149 146 145 142 135 137 133 134 131 130 123 126 120 125 121 119 118 119 116 113 119 117 106 105 97 100 
137 141 142 143 141 142 142 150 156 151 151 151 153 151 151 153 153 152 148 148 147 148 144 145 147 145 149 146 150 151 148 148 148 148 142 136 138 139 142 141 138 143 143 146 148 147 149 147 143 152 154 150 150 149 146 145 145 142 140 139 134 134 134 129 130 127 129 127 126 123 122 118 115 116 113 111 108 105 101 107 
136 139 138 142 141 145 145 149 154 152 152 152 150 153 151 150 154 152 151 148 146 146 151 149 148 149 146 148 143 149 149 145 145 143 140 140 135 137 137 139 142 140 141 145 145 147 147 143 145 147 152 151 149 148 146 141 141 140 137 137 134 135 134 131 130 127 127 133 127 125 124 122 118 117 115 113 109 107 101 103 
141 138 136 140 140 146 149 153 154 154 152 152 150 151 149 152 154 151 150 149 148 145 145 148 145 144 149 144 145 147 145 148 144 146 138 136 139 138 142 141 140 143 144 143 144 149 147 150 147 146 151 156 151 149 147 145 141 136 142 133 133 134 133 132 130 129 128 132 129 123 122 121 116 123 122 117 112 108 102 105 
139 139 136 144 141 145 149 153 154 153 153 154 152 152 153 155 155 154 151 148 148 151 151 146 146 148 148 144 142 147 145 148 143 141 136 136 134 139 140 140 142 140 138 143 143 145 144 146 144 149 152 152 150 147 144 139 142 140 137 132 128 132 130 129 133 124 125 132 123 124 123 123 118 124 121 120 113 112 104 107 
138 141 139 140 139 147 147 150 152 154 153 152 153 150 153 155 153 154 152 144 149 146 152 148 149 147 145 148 145 146 147 144 144 143 132 138 139 137 138 134 138 138 138 141 142 146 144 145 146 150 153 151 148 149 146 143 137 135 133 129 128 132 131 129 126 122 123 125 125 120 122 121 121 121 120 116 111 113 105 103 
140 142 138 136 141 146 148 148 155 155 154 155 153 155 156 155 154 153 152 145 147 143 148 149 148 149 147 145 145 145 143 144 140 144 136 135 136 135 137 135 140 143 136 143 142 141 139 142 143 149 152 149 150 150 143 140 138 136 134 131 125 132 129 128 125 121 123 121 122 116 122 119 121 121 119 118 108 111 108 103 
138 139 137 140 141 145 147 147 154 157 154 150 154 153 150 154 153 152 148 151 144 145 145 148 146 146 145 148 146 141 147 144 144 144 133 134 133 135 135 134 139 139 139 138 142 143 143 143 143 146 150 149 149 149 146 141 136 136 133 127 125 127 124 122 125 121 117 122 118 117 120 121 120 116 117 116 110 111 105 107 
142 136 136 143 140 144 150 149 155 155 150 150 150 152 153 150 153 152 148 151 147 143 144 147 149 147 147 143 143 146 146 144 145 144 136 135 133 136 137 133 134 141 141 142 142 144 143 140 143 149 151 151 151 150 146 141 134 134 132 130 124 126 124 122 121 119 117 123 117 114 119 119 119 119 115 116 112 113 109 113 
136 134 132 139 137 147 149 149 152 151 150 149 153 150 150 150 156 149 149 146 148 145 144 144 145 145 146 146 143 144 145 148 144 141 138 133 135 137 134 136 137 139 142 142 140 145 142 143 145 146 149 148 149 147 143 139 137 134 132 131 125 126 126 124 121 115 118 121 115 115 115 118 114 114 120 118 110 111 106 107 
133 135 132 136 139 145 147 149 149 150 147 149 151 148 150 149 150 149 148 145 147 144 144 140 141 143 143 143 141 141 146 142 144 143 133 134 133 132 137 137 139 140 139 141 141 136 139 143 145 142 146 150 148 144 142 137 139 132 129 128 126 127 124 119 120 114 118 118 116 116 114 118 118 120 117 114 111 110 103 107 
134 133 128 130 135 142 144 145 150 148 149 149 147 148 148 148 150 148 145 145 145 142 135 133 134 137 139 139 138 141 137 139 137 139 133 131 132 132 138 134 133 139 138 137 137 139 139 140 147 144 146 145 144 145 139 135 132 130 128 124 124 125 122 121 119 118 119 117 118 116 120 118 117 119 116 115 111 111 106 103 
132 131 127 128 137 141 144 147 147 149 148 147 149 147 149 144 151 146 141 143 144 139 125 116 121 124 127 132 133 137 137 132 136 138 132 129 130 133 132 132 136 137 139 136 140 135 138 141 142 145 145 142 142 141 137 134 128 128 127 125 121 126 123 119 119 116 115 118 117 117 114 122 118 118 113 112 110 108 105 106 
128 128 125 128 132 141 142 144 146 147 145 145 145 142 142 144 148 144 138 140 133 122 117 108 105 103 113 114 121 128 132 132 132 137 128 125 128 128 132 131 132 129 133 136 136 141 137 139 138 146 143 138 140 137 138 134 132 130 126 125 120 122 122 119 117 116 114 114 115 112 117 118 116 115 116 115 108 106 105 107 
125 125 120 125 132 136 141 140 142 144 141 143 142 141 142 141 143 140 137 133 121 115 105 104 102 102 105 102 108 112 115 116 122 124 125 124 129 127 126 130 129 125 132 134 137 136 135 136 140 141 142 137 137 135 137 132 131 126 127 125 125 122 117 117 116 115 112 116 114 114 115 116 115 115 118 113 106 107 104 106 
125 123 122 125 130 137 137 141 140 138 140 139 140 139 140 141 137 137 130 120 112 107 103 101 100 103 103 103 100 102 108 104 107 115 112 119 123 125 121 122 122 124 126 130 136 130 132 134 139 137 140 138 137 137 135 133 130 128 127 124 117 122 120 117 116 113 115 114 114 110 113 115 109 115 110 107 106 106 104 102 
123 121 121 127 128 138 140 138 140 136 140 136 140 134 140 137 137 134 132 113 107 103 100 96 100 95 103 96 101 103 105 102 101 101 101 113 114 113 116 121 118 120 120 122 122 127 127 127 138 137 136 136 136 134 133 130 128 122 125 121 114 122 116 118 115 114 113 117 114 113 119 116 112 110 112 113 109 104 103 100 
120 118 115 119 128 133 133 136 137 134 132 135 137 138 133 134 133 132 124 110 102 99 93 96 94 96 95 93 97 101 101 100 98 97 97 107 111 113 113 115 117 120 119 115 117 119 122 128 135 134 134 132 130 132 132 130 127 121 116 118 116 119 115 114 113 115 114 113 113 112 114 114 114 111 109 107 103 105 102 103 
115 112 113 117 124 131 132 131 137 131 135 131 129 130 132 132 133 126 122 105 98 95 91 90 95 95 96 93 94 99 95 94 96 92 97 106 106 108 113 114 116 118 114 116 115 119 121 123 127 132 126 128 130 129 128 126 123 120 117 117 116 117 117 115 112 114 115 111 112 109 114 111 111 107 109 108 101 102 99 99 
116 111 111 116 119 119 121 117 128 129 124 129 131 130 127 131 129 127 120 100 95 92 89 91 91 91 93 93 91 97 95 95 93 93 92 106 107 110 114 113 115 114 116 114 116 116 118 123 127 128 128 125 127 125 121 122 120 117 119 114 113 112 115 113 112 111 108 112 112 112 112 109 107 108 109 102 101 101 96 92 
113 110 109 109 105 110 103 104 105 104 104 111 113 110 112 115 119 122 115 97 88 87 87 90 89 87 94 94 91 92 92 88 87 89 93 104 106 109 112 112 111 119 116 113 114 114 116 121 126 126 124 121 125 126 122 119 115 115 116 115 105 113 111 114 110 112 109 110 113 109 108 108 107 105 104 100 103 96 95 93 
109 102 100 107 103 100 94 92 93 92 93 93 98 98 95 96 100 99 98 88 88 87 86 86 88 84 94 91 93 90 85 84 83 85 96 107 107 111 110 109 110 115 111 112 113 114 115 121 124 122 125 118 120 122 118 115 108 108 110 106 104 108 109 108 108 106 104 105 107 108 108 105 104 102 103 103 96 101 90 91 
104 102 98 103 96 96 89 87 88 89 86 88 90 87 88 91 92 87 88 82 83 88 87 85 87 90 89 89 91 86 83 81 79 86 97 106 110 110 111 112 108 112 113 112 110 111 113 115 121 120 118 117 117 118 115 110 109 106 105 102 99 106 107 109 105 103 101 104 105 102 107 105 99 99 101 100 97 93 89 93 
101 96 92 94 94 84 81 79 79 77 83 82 83 81 85 83 85 86 81 80 78 80 80 81 85 87 85 86 88 83 80 82 81 84 95 101 104 107 108 106 110 109 107 109 107 109 107 117 115 116 116 113 116 117 111 110 107 104 101 100 98 102 104 102 101 97 100 103 101 101 102 100 97 95 98 96 95 94 87 86 
102 94 93 91 89 84 73 72 73 76 75 77 79 79 78 77 78 77 75 76 77 77 80 80 82 85 83 82 81 80 79 78 79 82 90 95 98 104 107 103 105 103 102 101 103 103 101 99 93 100 104 105 106 112 112 106 105 106 104 98 96 102 103 100 100 96 99 98 98 96 100 99 94 94 95 90 91 91 84 88 
95 91 89 87 81 74 74 69 71 71 70 71 71 74 72 71 75 71 71 75 77 78 79 77 80 79 83 77 79 73 75 75 78 78 86 92 92 98 98 98 97 99 96 94 96 96 93 92 78 78 84 83 88 95 98 100 105 106 101 100 97 99 96 98 95 99 95 95 91 92 93 96 91 90 88 89 83 86 86 84 
89 90 87 84 77 73 67 69 67 65 64 67 67 70 68 71 68 69 66 70 72 76 76 78 81 77 82 81 79 79 74 72 76 84 87 91 91 94 95 95 93 98 94 89 90 91 88 85 70 65 73 69 72 80 90 92 101 104 102 98 94 96 98 95 96 92 91 91 87 86 90 89 85 83 81 84 81 83 77 82 
88 86 83 79 74 71 62 60 63 60 58 62 66 63 61 65 61 61 66 69 71 73 76 74 75 75 81 73 75 75 75 71 73 78 83 83 83 88 91 89 90 95 87 87 84 83 80 73 64 59 58 61 62 81 84 95 96 97 97 93 87 91 94 89 87 87 85 86 83 85 87 85 81 80 82 78 73 76 77 78 
83 79 80 74 72 68 61 60 59 62 59 60 62 58 59 58 55 56 60 65 70 75 73 73 73 73 75 69 78 70 69 63 69 73 82 79 84 81 89 88 89 87 83 82 82 78 72 69 57 47 51 52 55 75 88 93 95 93 91 86 86 87 89 88 83 80 80 79 76 77 83 81 77 73 69 75 75 75 70 73 
81 74 75 72 69 63 55 57 57 59 57 57 58 56 55 55 54 54 57 67 67 67 68 72 71 75 74 67 70 68 69 69 65 70 77 80 79 82 85 80 82 83 80 76 81 75 67 67 50 41 39 44 50 70 89 93 90 91 90 88 83 86 86 83 81 80 73 75 75 72 79 75 73 71 65 69 67 65 68 64 
75 75 72 70 62 59 55 54 57 52 53 55 50 53 51 50 47 48 61 63 64 68 68 69 70 71 73 70 68 69 70 68 67 71 74 76 77 77 80 80 78 79 76 73 71 73 64 58 43 33 35 39 43 57 81 85 90 89 88 87 80 83 83 82 80 75 73 77 75 72 76 72 67 69 64 67 63 63 63 57 
77 71 69 66 65 58 55 53 52 54 52 53 53 51 50 48 45 44 57 63 66 66 69 70 72 72 73 69 69 71 74 71 67 72 76 73 75 75 77 77 77 77 72 70 68 64 61 51 40 28 28 28 34 45 65 79 88 83 82 81 81 81 80 80 77 69 73 73 70 70 73 67 66 66 63 62 60 61 57 58 
73 70 66 68 64 58 55 50 49 54 49 48 50 49 45 45 40 45 56 61 63 63 67 65 66 71 72 69 70 69 69 66 67 69 73 72 72 73 75 72 74 73 68 69 63 58 51 44 35 27 25 23 23 33 39 50 69 78 80 80 79 81 80 74 69 70 68 65 69 70 70 65 65 65 61 59 58 60 54 57 
70 69 65 63 57 56 49 49 51 50 47 48 48 47 46 43 40 43 54 58 59 61 65 63 66 66 69 67 66 66 66 68 64 67 70 69 71 72 70 67 66 66 65 64 62 58 47 38 31 24 23 18 18 22 27 30 45 71 79 76 77 80 76 75 69 63 65 66 68 66 69 66 62 61 60 58 53 56 54 56 
71 71 64 60 55 52 53 45 44 45 46 49 43 46 42 38 37 44 55 56 60 59 62 61 63 68 68 65 68 70 68 64 66 69 66 67 66 67 68 54 52 53 52 49 42 40 37 34 32 31 31 21 13 18 23 21 36 57 72 72 74 76 72 71 67 58 58 63 67 66 67 65 63 58 58 53 51 52 47 53 
68 63 61 56 53 54 47 48 45 41 45 48 45 44 41 40 37 44 57 61 62 62 64 62 62 66 66 67 64 68 64 61 63 62 65 67 65 66 62 47 40 41 35 30 18 21 25 30 31 28 25 15 12 15 17 19 21 47 64 67 69 74 75 67 63 58 59 59 60 60 69 60 57 56 56 52 49 51 44 48 
64 64 57 58 50 51 46 45 46 44 40 42 39 40 39 35 39 46 54 60 62 61 61 63 62 61 63 62 61 66 66 63 60 62 64 64 62 61 56 42 36 36 27 26 18 18 23 28 33 31 19 12 10 11 12 18 21 31 55 62 65 69 66 61 59 55 54 59 64 61 63 58 54 53 53 49 51 49 45 44 
63 59 53 54 52 47 46 46 41 41 43 39 38 41 40 38 37 42 56 59 55 59 62 62 59 59 58 57 57 60 65 62 59 62 60 63 58 59 55 42 31 31 25 25 15 22 21 26 40 32 20 11 7 5 8 9 12 18 42 55 57 65 62 61 54 50 52 54 61 54 60 56 51 49 50 47 45 45 41 44 
58 59 57 50 48 49 47 45 42 41 36 39 40 39 34 37 34 39 55 57 55 58 60 54 57 56 55 51 54 59 57 61 56 59 55 56 56 56 48 32 26 27 24 20 17 19 22 26 34 31 19 11 6 5 8 7 6 7 28 47 50 59 60 56 54 48 50 53 54 52 52 50 48 46 48 44 42 39 41 41 
58 55 56 50 47 44 45 42 42 41 39 39 35 37 35 34 32 41 55 53 57 55 58 56 56 53 57 53 50 57 57 55 56 50 51 51 52 51 48 31 26 26 24 17 15 19 21 25 31 32 23 9 7 5 5 5 6 6 18 40 47 57 54 50 50 47 51 49 49 47 53 48 48 43 42 43 42 40 35 43 
54 53 51 52 48 47 42 38 40 39 38 37 36 31 36 33 31 42 53 53 55 56 55 54 55 51 53 53 53 56 55 53 49 48 45 49 45 48 38 28 24 24 19 14 16 16 17 21 30 28 24 12 5 6 0 5 7 5 13 29 42 51 53 48 47 44 44 45 47 45 50 46 42 39 38 39 42 37 35 33 
52 49 48 49 49 47 43 41 38 39 37 36 37 32 28 32 34 40 53 53 57 52 55 54 54 53 56 54 58 57 56 53 50 45 41 45 44 44 33 22 21 19 15 11 12 14 16 19 25 26 22 10 7 3 3 4 7 7 8 15 40 51 52 49 46 42 43 43 41 40 44 45 40 40 36 36 31 34 32 34 
51 50 47 44 48 44 43 40 40 38 37 31 37 29 32 31 33 40 49 53 56 54 59 51 54 52 58 56 56 56 59 54 46 37 41 42 46 43 32 19 19 20 15 10 12 17 15 17 15 22 22 16 11 0 2 3 6 6 7 8 33 47 51 46 44 40 41 41 40 39 42 39 41 36 37 32 37 32 31 30 
50 50 47 48 49 48 42 41 42 39 37 38 35 35 31 34 33 44 48 56 52 54 54 54 53 52 53 55 54 53 54 49 48 40 40 39 36 35 28 18 19 18 14 10 14 14 19 15 13 13 14 14 11 10 6 2 6 9 8 8 20 43 43 40 40 40 37 37 36 35 39 38 34 35 36 33 36 31 28 28 
53 49 49 48 48 51 46 42 43 41 39 40 39 36 35 36 36 47 51 53 52 54 58 51 51 51 51 51 50 50 52 46 48 41 39 39 38 37 29 22 20 18 14 14 13 18 20 17 14 11 13 13 12 9 6 4 5 6 10 7 13 34 39 40 38 36 37 38 38 35 39 34 31 30 34 34 32 29 25 26 
53 53 48 52 51 49 44 39 43 42 36 39 42 35 37 36 43 47 47 52 53 52 52 51 52 54 52 49 49 50 52 46 47 41 40 39 37 35 29 23 20 19 19 15 18 20 23 19 15 14 14 15 11 10 12 10 7 7 10 12 15 28 38 37 37 35 34 39 40 35 36 33 33 30 30 29 27 26 24 26 
54 54 51 53 51 48 46 43 43 40 35 42 38 40 40 38 45 47 52 51 53 52 52 52 52 48 50 48 51 52 49 44 41 43 45 42 38 37 32 28 25 25 22 24 24 27 26 26 19 15 19 18 18 17 15 13 12 9 15 16 17 22 33 37 36 40 35 37 33 34 37 30 30 31 27 29 23 25 24 26 
53 54 55 52 49 50 46 43 43 41 39 41 40 39 40 41 41 49 47 53 51 50 55 49 52 48 50 46 49 54 48 46 42 42 39 44 38 38 36 31 31 31 30 28 31 30 31 35 25 19 21 20 17 17 19 16 16 16 17 17 21 28 34 34 38 40 35 36 36 33 36 30 26 27 25 24 20 21 23 26 
53 53 53 53 52 51 44 41 44 42 41 40 39 39 41 42 44 48 48 52 49 48 52 49 51 48 49 44 46 48 46 43 39 43 43 44 41 41 34 33 33 36 30 32 33 34 33 38 29 26 22 22 24 19 26 21 17 14 21 15 24 31 31 34 36 34 31 36 31 34 36 31 26 26 23 26 20 20 17 23 
58 55 57 55 55 50 46 43 45 45 41 40 42 39 40 41 42 51 52 46 50 47 51 50 49 49 49 44 46 49 45 42 41 44 44 42 41 41 36 30 31 32 32 30 33 32 36 37 31 24 24 26 23 25 23 22 19 18 21 21 26 33 31 34 32 30 30 32 31 34 33 27 24 22 21 21 18 17 17 20 
58 59 57 59 53 54 46 45 46 45 40 43 40 38 39 38 46 49 47 50 51 50 52 49 44 45 48 48 41 45 42 40 39 45 43 43 44 44 35 31 32 31 31 35 36 34 34 39 31 27 27 22 24 23 25 21 23 20 25 27 30 32 30 32 29 34 29 31 32 23 29 24 26 24 22 24 16 17 14 21 
60 60 60 57 58 55 52 46 46 45 43 42 42 36 39 40 44 50 47 49 50 46 51 48 48 46 48 45 43 45 43 39 36 48 42 43 44 44 39 32 34 36 32 34 38 36 37 40 32 29 23 25 27 23 25 20 20 21 27 32 32 34 31 32 30 30 32 29 27 27 22 26 22 20 22 20 16 21 14 18 
73 61 61 57 55 61 53 48 51 48 47 48 50 41 41 46 46 45 49 49 45 44 49 50 47 50 45 45 40 44 45 40 41 52 46 47 50 47 40 37 35 35 35 34 35 41 38 41 33 25 27 30 30 29 28 28 28 28 31 32 31 36 34 36 37 31 31 35 32 30 31 29 22 20 23 23 19 20 16 17 


