P2
80 60
165
129 127 130 126 128 127 121 126 131 128 116 110 104 110 103 101 98 101 103 100 97 98 101 96 96 96 98 93 94 97 96 96 90 91 90 87 87 85 87 86 84 87 84 87 87 84 90 85 87 86 86 93 88 88 90 89 87 88 89 84 83 87 85 83 81 80 81 76 76 72 74 70 63 63 66 66 63 63 51 46 
127 125 130 127 131 126 125 131 131 128 114 109 106 105 101 100 99 101 104 101 101 100 100 97 99 98 94 97 97 97 98 97 90 92 87 87 87 84 86 86 83 85 87 86 84 89 90 90 86 84 87 89 90 91 90 95 89 86 88 83 85 86 86 81 89 84 83 74 77 73 74 71 67 65 67 61 65 64 47 43 
126 130 131 128 133 130 127 130 137 129 115 107 103 104 100 102 101 99 101 102 100 100 100 99 100 99 97 94 97 99 100 96 93 94 90 88 93 87 89 88 85 87 87 86 87 85 89 91 90 89 89 92 91 91 92 92 90 89 88 85 85 86 83 83 85 81 80 80 80 78 75 70 67 65 65 61 58 52 43 39 
127 129 132 130 133 129 127 130 136 117 112 109 102 104 103 102 97 97 100 99 101 101 102 98 98 99 98 97 98 99 97 98 91 91 89 87 88 87 86 87 89 84 86 86 84 90 90 89 92 87 91 89 91 91 89 90 91 89 90 89 85 83 82 85 84 81 82 78 76 76 79 70 64 63 61 55 59 52 39 34 
127 127 131 132 130 130 126 132 130 118 107 102 102 105 103 101 99 101 95 98 102 101 101 99 98 100 99 95 95 98 94 97 89 91 88 89 89 86 84 85 85 87 89 87 86 90 89 90 90 91 90 89 93 88 89 92 87 88 86 89 86 86 83 84 85 84 82 78 73 77 78 70 65 61 62 57 52 43 34 28 
125 127 130 131 131 126 127 132 126 114 108 105 101 102 101 100 100 97 100 97 100 100 97 98 97 100 99 96 97 97 99 97 91 88 87 88 88 88 87 84 87 86 85 88 86 89 89 89 86 88 92 89 93 91 91 91 90 89 87 85 84 88 85 83 84 79 83 77 75 73 73 72 64 62 62 55 50 45 30 33 
124 124 131 127 130 126 124 130 126 112 102 103 101 103 104 99 101 99 99 98 96 98 98 98 96 99 99 94 100 99 100 96 90 89 89 84 87 85 84 86 86 85 86 85 84 86 88 88 83 87 88 91 92 89 89 88 85 89 89 86 83 86 82 84 82 79 80 75 76 71 72 68 64 60 60 51 47 40 25 22 
125 125 129 131 132 129 127 129 126 109 103 99 100 107 103 101 103 100 98 100 97 100 102 97 97 96 98 99 97 96 100 99 88 88 86 85 84 85 87 82 83 86 86 83 86 86 88 89 84 86 86 87 90 90 86 87 85 87 87 87 84 84 81 80 81 81 80 74 73 69 65 64 63 59 60 54 45 36 25 19 
123 126 131 131 129 128 130 134 123 108 100 101 100 104 104 102 103 99 97 100 99 102 100 101 95 100 99 96 98 100 101 97 91 90 88 85 87 86 84 85 86 84 86 87 85 86 87 85 84 84 86 88 90 91 87 86 86 84 83 84 86 84 81 78 81 78 80 76 72 69 67 67 59 59 60 50 42 35 18 17 
124 125 130 132 128 131 130 133 119 104 100 101 97 102 100 104 103 103 99 98 100 100 101 98 96 99 101 98 97 101 97 100 95 93 93 90 84 87 83 83 85 79 83 82 86 85 84 85 82 86 87 90 88 86 85 90 88 84 84 82 82 81 79 79 79 78 79 73 72 68 70 64 62 59 55 42 44 33 16 15 
123 125 129 129 131 130 132 133 118 102 101 97 96 98 102 100 100 103 100 98 99 99 100 98 97 101 99 98 97 100 101 104 103 99 96 92 92 84 84 85 86 81 83 82 84 81 84 82 83 85 87 87 89 83 85 86 84 82 84 82 80 82 79 78 81 74 74 73 74 70 73 67 59 60 54 42 34 25 8 9 
124 125 130 131 131 131 130 130 115 101 103 99 96 100 99 99 98 98 95 100 95 99 104 100 96 102 98 97 95 101 108 125 138 134 128 111 98 89 88 84 85 85 83 82 85 81 84 85 85 88 83 87 90 85 87 86 86 82 84 79 78 77 77 80 81 76 74 71 75 74 69 68 65 62 56 40 32 25 6 9 
122 122 125 130 129 130 128 130 113 101 97 95 96 97 96 96 97 99 97 96 95 100 99 100 95 99 104 98 95 107 121 144 165 160 155 138 119 98 85 84 82 80 81 79 81 82 81 84 83 88 86 84 87 83 84 86 83 82 80 76 74 77 75 74 75 72 73 71 71 69 69 67 61 59 55 44 28 19 5 5 
128 122 126 125 124 128 130 126 109 99 97 96 96 98 98 98 95 96 98 97 97 96 99 98 94 99 101 100 99 113 132 159 162 164 157 146 120 98 89 90 88 83 84 80 82 79 79 81 85 80 88 86 82 84 82 82 83 81 76 74 76 73 74 72 72 71 72 68 66 66 62 63 60 58 55 43 32 20 5 7 
120 123 125 127 126 126 130 123 107 98 98 92 94 97 98 96 95 94 95 94 96 95 97 95 94 100 99 101 103 114 129 142 153 157 145 123 97 92 93 108 105 89 81 81 84 80 79 82 82 81 79 85 85 84 82 81 80 82 78 78 75 71 72 68 70 68 68 63 60 62 60 59 55 54 54 42 32 21 3 0 
121 123 122 122 124 128 131 122 105 97 96 94 93 97 95 95 99 97 92 96 95 95 95 93 96 98 99 106 112 112 110 114 116 120 113 100 90 90 90 110 131 111 89 82 80 76 80 82 81 84 82 81 83 85 80 83 79 77 82 76 71 71 69 69 69 64 64 62 62 58 60 55 55 51 57 40 32 22 4 3 
117 120 124 122 127 128 132 122 102 91 98 95 91 97 95 95 98 94 92 94 93 92 93 93 95 95 95 99 108 103 99 97 95 92 93 87 88 88 86 96 109 118 98 85 79 80 79 79 82 83 81 85 85 82 81 81 77 76 72 70 74 71 68 69 66 64 64 62 56 58 56 53 48 51 52 38 33 24 6 3 
117 115 122 123 123 128 132 114 100 92 96 90 93 92 92 92 93 92 91 90 93 91 91 91 88 92 94 94 99 93 92 94 87 83 85 85 84 84 81 88 88 86 86 80 79 79 78 77 80 79 80 83 84 82 80 79 77 73 73 73 70 65 66 64 64 59 61 59 58 57 55 53 51 50 51 36 34 22 5 3 
113 112 119 120 126 128 125 114 98 94 93 88 89 92 93 91 90 88 89 92 91 91 94 90 92 92 92 90 88 92 92 90 83 79 79 80 80 85 80 81 80 81 78 77 80 75 80 79 78 79 79 82 80 77 78 79 74 71 73 69 68 66 61 64 66 62 59 61 59 56 57 52 48 50 48 35 33 20 4 6 
108 110 117 118 119 124 121 107 95 86 92 89 88 91 90 88 91 89 90 88 89 92 90 88 89 90 89 86 88 91 88 86 81 78 77 81 79 79 76 76 77 78 77 78 77 76 77 78 78 78 78 81 78 76 77 76 75 72 69 72 68 67 64 64 63 63 62 62 59 57 58 53 50 49 48 39 33 28 5 4 
110 110 118 116 120 125 119 104 92 87 88 85 89 91 89 91 92 91 89 89 91 89 92 85 85 85 87 84 82 88 88 84 78 80 78 79 78 80 76 79 76 76 77 77 74 74 72 78 79 77 76 80 76 74 75 76 71 71 69 70 67 67 62 63 61 61 57 58 56 55 61 57 52 49 46 34 30 21 6 5 
108 109 113 112 116 122 120 100 89 88 88 86 85 89 91 90 88 88 86 85 91 89 93 86 84 85 83 82 83 83 86 81 77 78 78 80 79 88 84 88 102 100 79 77 74 70 71 72 75 78 76 73 73 74 72 77 72 70 69 67 64 64 64 63 61 59 59 57 57 55 56 56 53 50 47 34 30 20 4 4 
108 108 114 113 118 122 117 99 89 88 89 85 85 91 91 88 87 85 86 85 87 85 87 84 85 83 80 80 79 83 86 80 75 78 79 81 83 106 112 106 107 106 102 101 87 77 70 71 70 72 72 73 74 70 72 72 71 69 67 67 65 63 63 63 57 61 61 58 58 56 54 54 51 51 46 34 29 21 3 3 
102 105 107 112 116 121 115 94 87 88 88 90 88 89 88 87 87 88 87 84 85 87 82 82 82 80 80 80 80 81 81 81 79 75 78 92 101 106 107 109 108 106 109 111 110 106 88 69 68 70 69 73 73 70 69 74 70 69 65 64 65 65 62 63 62 61 59 58 58 58 53 52 51 53 47 37 29 18 2 5 
101 104 107 112 117 119 109 91 87 85 86 91 88 92 92 87 86 87 88 85 83 85 85 79 79 80 78 76 79 82 82 81 71 76 80 93 106 107 108 107 108 108 107 106 103 105 106 93 72 70 70 70 70 69 69 71 68 69 66 66 64 66 64 62 64 64 63 60 58 59 53 54 50 52 45 35 28 24 4 5 
96 102 105 109 110 110 101 91 85 85 88 86 88 90 85 88 85 84 84 84 83 82 85 81 79 76 78 77 78 78 80 75 70 80 96 105 107 107 109 111 109 109 110 109 107 102 106 104 94 69 69 71 69 71 66 68 67 67 67 65 64 62 63 64 65 66 62 60 57 57 55 51 49 48 44 35 31 21 2 0 
97 97 105 104 107 103 99 89 83 85 85 88 86 87 86 86 87 83 85 84 83 82 83 78 78 79 79 75 78 82 77 71 63 78 100 105 108 105 114 111 109 107 110 109 107 104 101 103 113 85 69 72 72 69 68 66 67 65 64 67 65 61 63 66 67 62 64 59 59 59 55 53 52 50 46 34 33 22 7 5 
96 97 100 100 96 90 86 81 77 79 87 85 84 86 87 84 84 81 82 82 80 81 81 79 79 81 78 77 77 76 73 69 71 100 104 106 105 107 108 106 108 106 107 105 106 104 102 100 116 103 69 69 68 66 66 69 68 64 64 66 64 62 61 65 64 62 62 59 59 59 55 54 49 46 40 34 29 22 7 3 
93 94 98 97 92 86 78 77 78 79 82 86 84 87 85 83 85 85 83 84 86 83 82 79 81 79 81 75 75 78 67 69 93 107 105 106 107 109 106 105 107 105 105 107 107 103 103 104 117 116 74 69 68 67 66 66 64 62 62 62 65 64 66 63 65 65 63 57 61 60 54 51 48 46 40 35 30 23 11 5 
88 90 91 89 86 78 78 77 81 79 85 85 86 88 84 84 81 79 83 82 82 82 84 80 79 83 81 76 81 76 73 73 100 107 106 105 104 106 106 104 106 105 102 106 99 102 99 103 111 115 81 70 69 66 66 65 64 62 62 63 63 62 64 61 63 62 62 55 59 56 55 51 48 43 39 33 30 18 5 6 
88 85 89 85 78 74 71 73 81 80 81 83 80 86 85 82 80 78 81 80 81 83 83 81 79 80 81 78 79 77 70 76 95 98 101 101 100 102 102 103 102 102 98 101 99 98 97 102 110 114 78 66 68 64 65 68 66 59 61 64 61 64 61 59 65 60 57 57 56 56 55 51 45 43 40 32 28 21 7 7 
86 82 83 82 75 71 68 75 78 80 83 80 80 87 82 81 80 82 82 83 80 78 80 78 79 84 82 82 85 75 75 80 94 95 96 100 92 99 96 101 98 96 97 98 92 92 87 89 90 97 74 67 70 64 71 68 64 62 62 61 64 59 61 64 65 62 61 59 53 54 52 51 45 42 38 31 30 21 5 8 
80 79 82 78 70 65 62 69 72 76 80 84 81 84 80 79 81 79 78 79 80 79 83 77 79 83 84 83 79 78 75 77 88 93 92 94 90 93 97 94 89 89 88 89 82 82 81 79 75 75 69 69 69 70 69 66 65 64 57 61 63 59 62 60 62 59 58 54 55 53 48 48 44 39 36 32 28 20 8 8 
74 77 80 74 67 64 63 69 71 75 80 81 84 83 83 82 79 81 79 79 81 82 80 77 77 84 82 79 81 75 74 73 85 86 88 86 84 87 89 89 88 87 86 86 80 78 74 71 74 65 65 68 68 68 67 64 64 62 60 62 62 61 62 61 61 57 59 53 52 49 48 46 42 37 36 32 29 22 6 8 
75 76 79 70 67 59 62 66 68 76 81 80 81 84 82 79 80 78 79 79 78 83 80 81 80 82 81 79 80 77 74 75 81 81 82 81 81 83 84 87 83 84 83 80 78 75 69 68 63 59 67 68 68 67 66 65 63 60 58 62 63 61 61 62 62 59 62 55 52 47 47 45 45 37 33 32 28 20 5 4 
72 69 77 72 61 55 59 66 73 75 77 80 81 81 82 78 78 77 80 79 80 79 79 80 79 83 81 79 79 78 74 72 75 79 79 77 80 81 83 82 79 77 77 79 77 71 63 60 61 64 65 64 65 64 65 65 64 60 60 62 63 62 62 60 57 62 59 53 52 51 44 42 43 34 31 28 29 20 8 6 
71 67 72 62 58 54 60 69 70 76 78 81 81 84 82 80 79 78 77 79 77 79 80 76 79 82 82 78 77 79 75 71 73 75 75 79 79 79 79 77 76 77 75 75 71 65 58 57 60 63 65 67 70 66 68 67 62 63 62 61 62 62 62 62 60 57 59 54 53 50 47 44 40 33 33 31 28 16 4 6 
65 67 68 61 53 54 61 66 71 76 80 81 79 83 77 76 80 75 77 76 75 74 82 77 77 82 77 79 75 76 77 74 71 73 71 74 74 76 76 73 71 70 70 67 66 59 59 55 64 61 63 69 66 64 65 65 62 61 61 62 60 62 62 61 62 59 57 53 52 48 46 44 37 32 34 28 28 19 8 2 
62 63 66 59 54 53 60 65 68 76 78 77 79 80 80 77 75 78 74 77 75 74 81 76 79 85 77 77 79 77 76 75 71 70 71 71 69 69 70 70 73 65 65 65 63 63 60 64 64 63 66 72 70 64 67 63 65 62 60 62 63 61 62 61 62 60 58 54 50 48 46 41 39 36 32 30 25 17 6 3 
63 60 61 56 51 54 60 67 66 75 78 78 75 79 77 75 74 76 77 74 74 76 77 76 76 82 81 75 75 75 75 77 68 72 73 68 70 69 69 68 67 68 67 67 63 65 67 63 62 64 67 71 67 65 66 64 65 63 61 61 59 63 64 60 64 62 54 51 51 52 44 44 39 32 31 28 27 18 10 10 
57 60 60 53 49 51 57 60 70 76 78 79 79 77 77 74 73 76 75 76 73 76 76 77 76 79 79 77 78 73 76 74 67 71 67 67 67 67 66 68 65 67 65 66 65 66 63 62 66 66 69 68 64 65 65 67 65 64 62 65 62 63 61 62 61 59 58 52 53 50 51 44 40 30 35 33 24 17 8 5 
56 56 56 50 46 48 56 63 70 71 78 76 77 75 77 73 74 74 76 73 75 75 75 72 73 77 76 76 74 74 73 72 65 66 67 66 65 65 66 69 63 63 66 67 66 65 63 67 67 71 68 71 70 67 64 64 64 63 61 64 62 60 61 59 59 60 55 55 53 54 50 44 38 33 37 34 26 16 7 6 
56 53 56 51 46 49 56 62 66 71 70 76 75 74 75 75 74 75 75 72 77 76 74 76 72 75 77 74 76 74 76 74 67 66 68 65 65 65 61 67 61 62 64 67 67 66 69 68 68 69 71 73 73 68 65 66 65 66 62 65 63 61 62 58 57 58 59 52 53 50 52 45 41 33 38 35 28 17 10 12 
52 53 54 45 45 52 57 64 68 70 73 73 74 72 76 74 76 78 75 75 78 76 75 74 73 74 72 75 74 77 74 70 68 67 67 65 63 63 65 62 64 66 63 69 67 68 69 70 71 71 73 69 72 72 66 65 65 63 61 61 63 62 61 61 60 60 58 53 55 51 50 47 42 38 37 34 31 19 12 7 
55 49 50 48 43 50 61 66 66 71 73 76 73 74 74 75 76 74 74 77 75 75 76 75 73 75 73 74 75 73 76 72 67 66 68 65 62 62 62 65 66 63 65 67 71 71 72 72 70 69 73 72 69 67 66 68 68 63 62 61 61 60 58 56 58 58 57 55 50 52 50 45 44 36 40 37 28 20 18 12 
49 46 49 43 44 52 57 63 65 69 75 76 73 76 75 74 76 76 77 73 76 76 76 75 74 76 74 73 72 72 73 72 65 65 63 66 62 61 62 64 63 65 65 71 68 70 70 70 68 67 67 72 72 69 67 69 63 63 62 62 59 60 57 58 59 59 58 55 55 53 49 48 40 36 40 39 29 26 15 15 
43 46 48 46 45 53 56 63 61 69 69 73 71 76 74 80 74 76 74 74 75 78 74 74 73 78 73 75 76 74 74 75 68 64 62 68 61 66 64 63 64 66 68 70 71 74 73 71 69 69 68 71 72 65 68 66 64 65 64 65 61 61 58 57 58 57 59 54 53 55 53 45 42 42 39 38 32 26 16 13 
44 44 48 43 42 50 54 63 65 66 73 68 73 74 73 74 77 71 76 74 75 74 74 74 73 76 74 75 73 72 72 72 68 66 65 64 62 64 62 61 65 69 64 70 69 68 72 71 69 68 69 67 69 65 66 66 64 66 63 64 63 61 59 57 58 57 56 56 57 53 54 47 44 39 39 36 28 24 20 20 
46 42 47 44 47 52 58 61 67 73 75 71 72 73 72 75 74 79 75 78 76 75 76 76 76 78 76 77 75 74 73 73 65 66 66 65 62 65 62 63 63 64 69 68 69 68 69 70 68 67 69 70 69 69 68 68 65 64 65 66 63 63 62 59 61 57 57 54 58 54 51 50 47 44 42 39 29 25 16 13 
43 42 43 41 44 53 58 63 68 68 72 71 70 76 74 75 73 74 77 79 75 75 78 77 76 76 77 75 78 73 75 73 67 68 66 65 67 66 63 65 63 64 66 68 68 69 70 70 69 68 68 70 67 67 67 69 69 67 68 67 64 64 66 64 63 59 57 58 58 54 51 49 48 40 41 35 26 27 18 14 
41 42 44 43 46 53 59 64 68 70 73 72 74 74 77 74 77 77 75 75 76 75 78 77 80 77 78 76 75 76 78 74 66 67 70 64 66 67 66 66 68 65 67 69 69 68 71 71 66 67 69 69 69 69 68 66 69 66 67 65 66 65 62 62 61 57 59 56 56 53 53 50 45 39 39 40 30 23 18 13 
44 41 43 43 48 49 57 60 68 71 70 72 74 78 77 76 77 80 76 76 78 78 77 75 78 79 79 75 74 75 75 74 69 68 70 65 65 66 67 66 66 66 66 68 67 69 67 73 68 71 71 67 70 69 70 70 68 69 67 66 64 66 65 64 57 59 61 56 56 56 56 49 42 38 39 39 29 22 16 10 
46 44 47 44 48 55 59 64 66 71 72 73 73 78 80 77 79 78 77 80 78 80 78 78 78 81 77 76 76 76 76 75 67 68 68 68 66 64 67 67 63 64 66 69 68 70 68 71 70 70 71 73 69 72 67 73 67 66 70 67 67 66 68 61 62 60 59 57 56 56 58 51 44 35 41 40 27 21 11 9 
50 47 47 47 50 56 59 64 67 72 76 76 73 74 76 77 79 79 80 79 80 82 79 79 81 83 81 78 79 74 78 76 74 72 69 71 68 69 67 66 65 66 65 68 70 70 68 69 72 69 71 70 68 69 69 69 67 66 65 63 70 67 64 66 63 62 60 58 61 57 56 53 49 38 40 38 28 23 12 4 
53 48 47 48 50 54 57 64 65 68 70 76 74 73 75 76 78 80 78 76 76 78 81 78 77 81 80 78 73 75 76 76 73 72 70 68 71 68 70 68 68 67 71 68 70 69 74 70 71 71 70 72 75 70 67 68 66 68 63 67 64 64 66 60 63 62 64 62 59 59 58 54 50 34 41 39 30 21 8 5 
54 50 50 48 53 57 57 60 64 70 72 72 73 73 78 77 79 77 78 79 80 79 78 76 74 78 80 74 71 76 77 73 74 71 68 71 68 69 70 68 71 72 71 70 72 73 74 72 73 72 73 75 72 72 70 72 70 68 65 67 67 67 63 65 65 63 62 62 64 62 57 56 46 40 42 38 25 24 9 2 
52 47 53 53 53 57 59 61 66 69 72 72 72 77 79 78 77 78 79 82 79 78 81 76 74 78 77 75 76 73 77 74 72 70 68 66 69 70 68 67 71 69 71 74 74 70 74 75 73 75 76 74 73 73 72 76 73 72 71 68 66 68 66 65 67 66 66 61 62 59 55 53 49 44 40 38 25 21 10 1 
48 51 57 49 53 58 58 61 63 71 69 72 72 75 79 75 74 75 78 76 79 76 80 76 76 79 77 79 75 74 73 76 69 70 73 68 70 69 69 67 69 69 69 73 71 74 74 74 77 76 74 74 75 76 75 73 73 70 69 69 69 69 66 65 69 64 63 65 62 58 56 54 54 43 42 39 31 25 11 6 
54 50 53 50 56 58 63 62 62 68 72 73 75 74 74 76 75 75 78 75 79 76 76 76 75 78 75 76 74 72 70 73 69 71 69 69 66 70 69 69 73 72 69 72 70 71 74 75 75 75 74 74 74 74 73 73 71 72 72 69 70 68 65 62 66 66 62 62 65 62 58 54 55 42 46 38 27 23 7 2 
60 52 54 53 56 63 58 62 66 65 71 72 75 78 75 79 73 77 76 78 80 76 75 74 72 75 76 75 72 74 75 76 72 69 69 68 69 69 69 73 69 73 71 72 74 71 72 75 79 77 70 77 76 75 74 74 71 72 68 69 68 68 68 65 68 67 69 64 67 61 55 55 55 46 50 42 32 22 6 1 


