P2
80 60
155
137 135 140 135 139 140 143 138 145 145 150 147 142 151 145 147 149 148 143 137 129 129 136 134 128 129 129 131 129 128 126 126 133 133 134 134 131 131 132 137 137 137 132 133 137 132 126 125 127 127 129 135 132 131 130 130 130 121 114 109 109 107 104 108 107 106 103 106 102 102 98 94 94 87 91 84 89 86 81 85 
136 136 139 134 135 142 137 140 145 145 148 150 146 149 145 149 151 150 149 138 135 135 140 139 139 135 137 139 139 135 136 131 134 135 137 141 136 135 136 141 143 140 138 140 141 135 129 127 127 127 131 132 134 131 132 132 130 121 115 111 109 105 104 102 110 106 108 103 103 102 100 96 94 92 90 90 89 83 81 86 
129 136 140 134 140 139 138 141 151 145 148 147 145 149 146 146 150 149 149 142 136 134 142 139 138 140 140 138 140 136 136 132 136 139 140 137 136 136 136 137 140 140 141 137 136 127 126 129 131 131 134 136 135 132 134 135 126 121 117 116 110 107 105 107 104 107 105 108 106 106 100 99 97 97 96 93 91 87 84 88 
129 136 141 138 140 142 139 145 148 147 151 150 146 147 148 149 150 149 147 140 135 139 140 135 137 140 140 142 140 137 137 135 139 139 140 138 134 136 135 137 137 136 135 125 124 119 111 121 117 122 132 140 141 137 138 138 130 121 118 115 111 109 110 110 113 110 111 110 109 107 103 103 100 97 93 100 92 93 85 85 
131 139 142 139 139 140 146 140 150 150 150 146 146 148 148 147 150 151 148 144 138 135 137 139 138 141 139 137 138 136 137 137 139 139 141 139 138 138 139 133 124 122 118 114 117 116 105 114 111 111 120 139 140 141 144 139 133 124 120 120 113 114 110 111 111 113 113 111 113 108 107 105 103 103 103 99 94 89 84 85 
129 136 142 140 137 142 144 141 149 151 148 146 145 151 148 148 150 146 145 141 140 135 139 136 139 143 141 137 137 134 135 133 137 139 138 141 133 127 122 115 106 112 111 110 112 108 103 106 105 103 111 135 140 141 143 144 136 126 118 116 117 117 115 113 113 115 112 112 108 111 107 107 107 101 101 95 97 90 89 91 
130 136 138 140 141 144 145 144 148 146 146 147 145 149 150 148 147 146 146 140 135 136 141 142 135 139 143 135 136 135 134 131 133 130 130 125 116 112 109 105 103 106 107 107 112 105 102 104 103 100 108 129 142 147 147 142 137 128 124 120 121 118 112 111 116 115 113 116 114 110 104 106 107 105 105 105 99 96 92 93 
130 131 137 137 141 142 144 143 147 147 148 151 148 150 146 152 149 144 146 141 137 136 139 138 132 140 139 140 137 134 131 129 124 122 115 107 108 103 99 102 102 99 104 105 107 104 101 107 100 99 106 120 138 148 148 147 141 134 126 125 124 120 119 116 114 117 120 120 111 114 107 108 110 109 111 103 100 96 93 97 
130 133 138 138 137 144 145 149 151 149 147 146 146 150 154 152 151 150 148 142 136 139 138 136 136 135 139 139 133 129 123 113 111 106 107 105 100 98 96 97 99 98 100 100 108 107 105 105 102 102 102 115 128 143 147 146 141 133 132 129 128 122 122 120 123 121 127 122 121 116 114 111 110 111 108 103 100 100 97 96 
131 134 137 137 136 140 144 148 155 145 147 145 145 147 146 152 153 150 146 143 139 140 139 137 137 136 138 133 121 113 108 106 103 102 103 102 99 96 97 97 98 101 102 100 105 103 103 109 100 105 101 108 120 139 147 146 141 138 130 125 127 123 120 123 123 124 126 126 125 117 113 112 118 114 114 109 99 102 96 96 
132 134 136 133 140 142 144 147 150 148 149 146 146 147 146 148 148 148 148 142 138 134 139 141 136 134 125 119 110 105 102 97 99 98 102 100 100 98 99 96 99 98 100 103 108 104 101 109 102 101 107 106 115 125 140 144 137 130 131 124 127 123 120 121 124 120 123 126 124 117 116 120 116 115 116 111 107 103 99 105 
129 132 132 135 138 143 144 147 153 150 148 148 144 149 147 146 148 149 146 141 137 138 141 136 127 121 112 107 103 99 98 95 95 95 97 99 96 100 98 97 96 98 99 101 106 104 100 106 101 100 102 104 103 119 132 141 136 129 126 125 123 118 115 120 121 119 120 123 118 119 115 117 118 116 115 111 105 104 102 103 
130 132 137 134 137 139 145 148 149 148 151 143 145 148 147 147 150 149 145 142 132 136 142 126 115 110 106 104 99 97 94 93 93 95 98 96 97 95 93 100 96 99 101 101 102 99 98 104 100 98 100 103 100 111 123 131 134 126 124 121 123 115 117 119 116 117 116 120 118 114 114 114 116 111 113 108 106 104 104 105 
128 128 135 133 137 140 147 144 149 148 147 147 145 147 146 148 145 146 146 138 137 133 140 124 111 102 101 102 98 97 93 89 93 94 94 94 94 97 91 98 93 96 98 99 103 101 98 100 99 96 99 99 99 110 112 124 128 124 124 120 122 116 113 118 118 116 112 117 113 113 114 113 113 114 114 107 108 100 100 99 
130 129 136 134 134 142 145 148 149 144 147 146 146 146 146 144 150 147 149 139 131 125 132 116 107 101 100 101 97 95 93 89 88 92 97 96 92 91 92 90 92 92 102 97 104 99 104 105 97 98 100 98 99 106 105 110 119 124 121 118 118 115 113 116 116 115 115 116 112 109 111 112 111 109 113 105 104 101 99 100 
125 127 135 134 135 140 145 147 148 148 146 147 143 144 147 148 147 149 144 141 131 121 115 106 102 100 96 98 97 96 90 90 90 94 93 95 91 90 92 95 93 93 96 96 103 101 109 107 97 99 98 96 97 103 105 105 113 120 120 114 115 114 111 111 112 114 108 112 113 113 109 110 108 109 113 108 106 100 99 100 
122 129 131 134 133 138 145 145 147 143 144 145 145 146 143 146 145 146 144 138 127 118 108 100 96 100 97 95 95 94 90 92 91 91 94 92 88 92 90 94 91 91 94 94 99 100 108 105 94 100 98 97 94 99 101 99 99 114 119 116 114 114 110 111 112 111 112 112 114 111 109 108 111 109 109 106 103 100 96 100 
123 123 132 129 133 140 147 147 142 144 146 142 143 141 143 142 148 145 142 137 126 109 104 98 93 97 93 94 89 93 90 89 87 88 91 94 91 93 92 93 92 93 92 95 98 98 106 101 95 96 95 95 92 91 100 98 98 112 116 116 115 112 109 109 112 109 107 114 110 108 107 110 109 111 108 105 101 103 96 99 
119 123 128 127 132 137 144 143 148 144 142 141 139 141 143 141 144 143 140 135 122 104 102 95 91 90 92 92 89 93 87 86 86 87 93 92 89 88 90 93 89 91 92 92 100 97 108 102 92 95 96 94 92 94 95 97 95 110 115 113 113 112 109 109 111 110 109 110 109 110 107 107 110 108 108 106 104 99 98 103 
114 120 126 125 128 134 141 144 143 145 144 140 139 141 140 142 142 139 138 132 119 100 94 93 92 93 93 88 89 90 92 86 87 87 89 91 90 90 87 93 91 91 92 96 100 98 107 97 93 93 93 95 92 91 92 96 98 109 114 115 109 111 108 106 108 109 107 107 106 105 105 108 109 110 108 106 98 98 98 95 
117 119 126 122 128 134 138 142 141 142 140 138 138 138 140 140 140 135 138 127 115 97 92 90 90 89 92 88 88 93 96 92 86 87 89 89 90 89 89 92 89 92 94 95 99 93 110 92 89 93 94 88 91 87 89 91 99 113 111 110 108 109 107 109 107 107 106 107 105 106 102 107 111 109 108 106 100 94 95 97 
114 116 120 123 126 133 140 137 138 134 138 137 135 136 137 137 138 134 135 126 113 94 91 88 88 87 88 91 91 95 110 107 93 84 84 84 87 89 86 87 88 89 91 94 100 94 111 93 90 93 93 90 86 84 88 92 100 112 113 113 112 104 105 110 105 103 106 106 106 102 106 105 109 108 105 103 97 100 96 95 
115 115 118 121 123 133 137 133 135 132 134 135 132 135 132 136 133 133 130 122 109 91 91 86 84 86 86 89 91 95 105 99 92 91 84 84 86 83 79 80 78 78 85 88 94 93 109 88 87 89 87 88 89 85 88 89 101 113 110 112 110 109 104 105 107 108 107 105 104 102 106 104 108 106 106 102 98 101 98 97 
113 112 116 121 125 136 132 131 134 131 133 131 133 135 133 134 132 133 128 119 103 88 84 84 80 80 80 82 88 91 88 93 89 89 84 79 76 73 71 72 71 74 76 75 84 93 107 88 86 87 84 88 86 83 83 91 104 108 111 110 109 108 108 106 105 107 107 104 106 103 104 107 104 102 105 99 99 94 91 96 
113 109 116 117 122 130 130 132 130 131 129 130 129 128 128 131 129 126 127 118 96 82 80 80 81 79 80 81 85 83 82 86 83 85 75 71 71 73 74 72 71 73 73 74 83 84 101 88 89 89 88 84 83 79 82 87 109 106 104 108 105 103 102 102 105 106 104 106 108 105 107 103 103 104 100 99 95 93 90 89 
106 111 115 114 115 126 130 125 131 129 128 126 127 125 127 128 130 121 122 115 94 79 81 77 77 75 75 78 77 79 78 80 79 76 71 71 73 74 74 75 73 76 77 75 82 83 99 82 84 84 83 84 80 80 81 85 100 104 106 104 104 105 101 104 105 104 106 104 105 105 103 104 100 102 101 97 93 89 89 89 
100 105 109 111 110 115 119 120 121 119 120 122 123 124 122 127 126 124 124 111 94 79 78 77 73 75 81 75 75 78 81 81 79 74 70 72 74 74 74 73 74 75 77 79 87 81 94 80 78 84 82 83 81 81 79 82 95 98 103 102 99 101 99 102 106 104 106 104 106 107 101 101 101 101 98 94 95 94 86 85 
97 103 105 107 104 102 104 103 99 101 104 104 105 108 107 113 115 117 118 112 86 78 80 72 74 74 77 78 77 79 85 88 87 74 69 75 73 71 72 73 75 75 78 76 83 86 94 75 77 81 80 79 78 79 79 79 90 101 102 103 98 98 100 100 102 101 100 100 105 100 101 99 100 99 94 92 92 87 86 87 
99 98 105 101 100 93 92 87 91 89 89 91 94 91 91 92 92 94 99 99 82 74 76 73 74 76 77 77 73 77 85 98 100 85 67 71 71 74 69 75 72 74 75 76 79 81 92 75 80 82 79 79 77 78 78 76 88 98 97 96 96 97 97 100 99 97 98 98 99 98 100 99 98 95 91 90 89 87 84 83 
91 96 96 94 90 90 84 83 80 81 82 86 86 83 86 84 84 87 82 78 70 71 75 71 75 74 75 73 73 72 91 97 100 94 68 73 71 72 70 72 71 73 71 72 78 81 91 74 76 77 80 79 78 73 76 77 89 93 94 92 93 95 93 94 97 94 96 96 94 96 95 93 96 93 91 89 90 88 80 82 
91 94 99 88 87 82 79 77 75 77 77 76 74 80 78 79 83 80 74 72 67 69 72 72 73 76 76 75 69 80 94 94 100 99 77 72 73 72 71 70 72 74 72 70 76 84 83 74 74 77 75 76 75 74 72 75 88 94 91 92 90 91 93 93 93 91 92 94 95 96 92 90 90 86 89 85 88 86 78 81 
87 92 93 86 82 81 73 70 70 69 71 70 70 73 75 72 75 71 70 66 67 71 74 76 72 79 76 70 67 83 89 86 93 95 80 74 72 74 71 74 73 70 76 72 77 81 80 69 74 75 72 75 74 72 70 70 89 92 89 89 88 86 88 91 89 85 90 88 90 87 89 88 86 85 84 81 84 83 77 80 
87 88 90 82 73 71 67 66 67 65 65 65 65 68 66 69 69 63 63 62 65 67 73 72 73 77 77 72 74 82 86 86 86 90 78 73 72 73 74 77 72 73 73 70 74 82 76 69 73 75 73 71 74 75 71 73 88 95 90 90 86 86 87 85 85 85 85 87 88 83 89 85 88 81 78 80 77 77 72 76 
83 82 84 76 67 67 63 58 58 60 59 58 62 63 63 63 61 60 56 58 61 64 72 70 73 72 76 70 73 82 85 81 84 85 75 69 70 75 75 74 72 71 72 71 77 78 71 69 72 74 71 70 75 72 75 74 87 90 92 88 86 82 85 85 83 83 80 83 82 82 84 77 82 79 76 72 73 71 68 71 
79 80 80 74 64 62 60 55 55 54 55 54 58 59 57 59 56 55 56 55 59 65 70 69 71 70 72 71 72 80 78 82 82 81 70 66 69 72 74 74 71 71 74 69 72 77 67 67 72 73 73 71 76 68 68 72 88 90 85 85 80 79 84 83 79 76 79 77 77 72 77 75 74 73 68 70 69 67 66 69 
78 74 80 71 66 57 57 55 52 54 55 56 55 56 55 54 53 48 50 53 57 65 71 71 70 71 71 70 67 75 75 74 73 73 67 64 67 69 69 68 69 73 75 71 75 72 68 69 71 73 69 71 70 66 67 71 83 86 81 80 78 77 77 75 71 74 72 74 76 75 77 69 71 66 63 62 62 61 60 63 
74 75 78 68 62 55 54 52 51 51 50 51 51 52 51 52 49 44 46 51 55 60 64 68 68 69 71 69 67 71 70 67 71 67 65 66 67 64 66 68 69 69 72 70 73 71 64 65 69 70 69 66 71 68 65 73 85 84 77 74 74 73 73 74 70 71 70 71 71 70 70 67 66 63 58 60 59 60 58 60 
71 69 74 67 60 55 53 51 46 49 51 49 49 52 48 47 44 40 42 49 57 62 65 66 68 71 70 70 69 69 71 70 72 69 66 70 67 69 67 66 65 70 68 70 74 70 60 66 68 67 67 66 68 60 64 72 84 80 77 75 76 71 70 72 69 68 67 73 68 70 67 64 62 62 58 55 57 56 56 54 
69 68 69 67 57 58 52 44 44 44 46 45 45 49 46 45 42 39 42 48 56 61 64 65 69 71 71 71 67 66 67 64 66 63 64 67 67 63 64 68 66 64 68 69 72 69 60 63 64 65 65 65 68 64 66 67 79 76 75 74 71 69 69 72 66 61 63 64 63 63 64 60 60 56 53 56 53 54 50 54 
67 69 66 58 52 54 50 47 47 45 49 45 46 47 42 41 37 35 38 47 56 60 61 67 67 70 69 65 69 64 62 61 67 66 67 69 68 66 67 68 67 67 73 71 74 67 59 64 63 66 64 63 65 63 63 58 63 75 71 68 70 67 68 66 63 57 56 61 63 63 59 62 59 55 50 49 47 51 46 47 
68 63 64 57 51 52 47 42 44 43 40 42 43 44 39 35 35 32 38 45 54 59 64 61 62 63 65 65 64 65 62 62 65 65 63 67 64 65 65 68 65 67 70 70 68 60 57 65 66 64 67 65 62 60 61 51 47 63 63 69 68 65 62 63 59 58 54 59 62 60 58 59 59 50 49 49 47 46 44 48 
64 62 64 54 50 49 47 42 40 40 43 38 39 38 36 34 31 30 36 45 52 57 60 61 63 63 63 66 63 62 63 59 62 65 68 69 64 66 63 67 63 68 70 68 66 51 56 65 66 69 62 64 62 57 58 48 31 52 60 59 62 63 61 56 56 55 49 55 59 59 58 54 53 47 46 47 45 48 44 42 
60 65 60 53 48 48 44 43 43 39 38 37 42 37 36 34 33 28 33 48 52 58 60 60 60 60 63 62 63 60 60 61 61 64 64 67 67 66 64 62 62 64 74 70 61 37 56 63 65 67 65 65 60 58 58 42 27 35 53 56 59 59 57 56 53 51 48 53 56 58 58 52 50 49 47 42 44 40 37 42 
57 59 59 51 43 50 44 40 41 37 41 38 37 36 37 34 35 33 35 49 53 53 59 58 60 63 63 63 59 64 60 57 61 62 66 66 67 64 64 64 58 62 66 68 58 40 57 63 65 62 62 63 59 54 53 42 22 21 45 54 55 56 52 53 50 47 47 53 56 55 54 50 47 44 45 40 45 38 35 42 
55 56 56 49 49 48 45 42 41 36 39 40 34 36 34 33 33 31 38 47 52 55 58 62 59 63 64 62 63 65 63 59 64 65 64 65 65 63 66 64 62 62 68 67 58 41 58 63 64 64 62 61 56 51 52 33 10 9 31 47 50 51 52 51 47 43 46 52 55 54 53 50 49 41 43 36 40 38 32 41 
55 51 53 50 47 48 44 39 42 39 36 36 37 33 30 33 32 29 38 49 53 59 60 60 62 64 67 63 61 60 57 60 61 64 64 65 65 64 65 65 63 66 66 71 56 45 59 60 62 62 58 57 55 49 47 32 10 5 19 40 46 48 49 48 40 44 45 50 50 50 47 47 49 44 41 36 39 34 33 37 
52 53 53 49 47 45 43 37 37 36 40 37 34 36 30 29 31 28 30 52 52 57 61 63 61 65 66 64 64 61 59 57 60 62 66 64 67 65 63 66 64 65 67 67 57 49 56 61 60 57 58 53 51 49 46 26 9 2 10 32 44 47 45 43 42 42 43 47 48 42 46 43 46 37 40 36 37 31 30 29 
47 49 50 46 48 43 41 35 34 33 36 32 35 32 31 28 30 24 33 48 55 57 58 61 60 65 65 64 62 62 62 60 65 65 65 66 63 63 63 63 64 64 69 66 53 48 54 59 58 59 54 52 52 46 45 25 8 2 3 22 42 44 43 44 43 42 41 44 43 41 39 40 40 34 34 36 31 28 28 29 
45 47 50 48 44 46 44 39 36 36 37 34 35 35 30 31 27 25 34 49 53 57 63 61 60 60 64 64 65 59 60 60 62 63 67 67 66 69 63 64 67 65 71 68 51 49 57 59 60 57 53 52 50 46 45 23 9 1 2 12 37 42 42 37 39 40 42 42 40 40 39 40 36 32 32 31 35 32 26 26 
46 50 48 45 43 44 47 42 36 36 38 32 37 34 32 29 27 27 38 49 53 57 62 60 59 59 63 61 64 60 59 58 62 66 64 67 66 66 68 67 67 69 75 68 47 50 57 57 59 56 54 52 51 45 43 21 9 3 0 5 24 35 38 40 38 38 37 38 33 34 34 35 35 32 34 32 32 28 21 27 
43 48 49 48 46 47 43 41 37 36 37 33 35 33 32 30 30 35 41 50 51 56 60 62 59 59 60 62 60 60 62 59 60 66 66 66 68 67 65 67 67 66 72 67 46 51 55 58 61 55 56 51 48 44 38 20 6 1 2 8 16 31 33 32 35 36 35 38 34 34 31 30 34 28 25 27 31 25 22 21 
45 48 47 46 48 44 41 41 41 36 36 37 35 35 38 31 35 36 42 51 57 56 63 59 55 59 59 57 59 59 60 59 65 65 67 65 68 66 64 65 63 68 69 64 46 57 55 59 59 59 55 51 48 43 37 19 8 1 5 6 10 23 28 31 34 31 34 35 34 32 27 30 29 23 25 29 27 23 19 21 
46 47 54 48 45 49 46 42 38 37 40 38 37 38 37 36 38 37 49 57 55 57 60 57 55 60 58 58 58 56 60 56 63 66 66 70 69 65 65 64 64 66 66 60 46 55 55 56 57 55 53 50 48 43 38 23 10 2 6 5 10 18 26 32 30 29 32 35 37 31 30 30 27 24 25 24 23 18 21 23 
52 51 50 53 46 49 45 42 38 39 39 39 39 35 36 39 37 39 47 55 55 57 59 60 54 57 55 56 56 56 59 56 62 64 64 68 65 67 66 66 65 66 64 60 49 58 59 58 57 54 54 50 45 43 36 27 14 5 2 6 13 17 23 30 30 32 34 39 37 32 31 28 26 23 23 24 20 19 16 20 
48 52 54 52 50 46 42 41 42 39 41 41 40 40 38 39 39 39 49 56 54 54 56 56 55 55 54 54 53 52 50 55 57 61 65 65 68 67 67 64 64 66 68 62 53 58 55 54 52 53 51 48 45 41 35 28 17 10 8 10 13 19 27 28 33 31 31 32 33 30 31 30 27 26 21 21 16 16 14 18 
54 55 58 52 49 48 41 42 42 38 40 36 37 42 39 42 44 39 51 56 55 54 58 58 53 58 54 56 52 54 53 51 60 62 62 65 69 68 69 66 66 69 65 63 57 61 55 54 56 52 52 50 44 41 36 29 22 12 14 13 16 23 24 29 32 31 34 33 31 32 31 29 26 22 21 21 17 14 10 14 
54 55 57 56 52 52 47 42 41 38 38 37 39 43 37 40 39 43 54 57 55 57 58 56 53 56 53 55 56 56 55 55 57 62 64 68 67 70 67 65 66 68 66 58 56 58 53 53 59 51 51 48 43 41 34 30 23 17 17 18 22 24 22 27 30 28 34 31 30 29 27 27 23 21 21 19 18 11 13 14 
53 56 57 53 50 50 46 44 42 40 41 38 36 39 40 38 38 42 53 55 52 52 56 56 57 57 57 56 54 52 53 54 60 60 62 67 70 67 66 66 65 68 67 59 55 59 55 55 56 52 50 48 42 40 34 31 24 15 15 19 26 22 25 25 28 25 26 28 29 28 25 21 21 20 17 15 14 10 9 17 
63 58 55 56 49 49 51 45 44 40 40 39 38 36 40 39 41 43 54 54 56 56 57 56 58 56 56 55 55 56 49 52 57 61 64 68 68 69 69 64 69 66 64 57 56 58 56 58 57 57 56 46 42 38 36 30 22 18 18 24 26 25 27 25 25 26 28 25 26 23 18 20 20 18 16 15 13 13 7 10 
69 59 58 56 51 54 53 45 48 42 45 43 42 42 37 41 39 39 56 53 55 50 58 56 59 58 59 57 54 57 51 55 59 58 64 64 63 66 67 67 69 70 67 55 57 61 56 58 60 55 52 49 43 40 36 34 27 24 21 27 28 25 24 25 29 24 24 23 22 19 17 17 17 24 14 17 15 11 9 19 


