P2
80 60
172
152 147 153 153 147 149 151 152 153 153 156 155 154 153 152 153 155 158 157 154 152 145 147 141 144 142 139 139 134 137 138 131 133 132 131 131 129 130 126 130 128 128 121 123 124 124 131 126 123 121 119 125 129 126 131 130 127 126 122 122 116 117 116 116 114 111 109 109 103 104 101 102 101 99 96 98 89 88 89 98 
148 146 153 152 149 149 148 152 151 154 156 157 154 154 154 154 156 152 157 154 151 147 146 143 143 140 142 142 140 136 138 135 136 134 135 134 131 134 128 128 126 128 125 126 128 128 129 131 119 119 122 127 124 127 127 130 129 122 122 117 116 113 115 114 115 111 111 110 110 106 107 102 101 100 98 97 94 92 91 89 
149 143 145 153 153 149 147 149 154 155 156 156 155 157 156 157 155 154 154 155 151 145 146 141 144 140 142 141 141 140 141 143 139 139 138 134 136 138 135 133 133 136 131 137 134 136 138 133 127 127 130 132 133 124 127 131 130 127 122 121 119 117 117 115 115 115 117 111 110 108 107 104 101 101 99 98 97 91 92 92 
146 141 151 154 154 153 151 151 156 158 159 159 155 157 155 157 158 157 157 153 150 149 145 143 141 141 144 142 144 140 145 143 143 140 142 137 139 138 136 137 139 133 136 136 140 143 138 138 133 134 131 135 136 133 134 131 133 128 126 121 120 116 121 121 118 117 116 117 115 112 108 106 102 102 102 99 98 97 94 101 
149 144 152 151 153 151 155 154 156 158 158 158 159 157 157 156 157 161 155 154 147 147 147 144 146 143 143 144 143 141 144 143 139 137 141 137 141 139 138 138 135 138 132 139 140 141 142 143 137 140 140 138 137 136 134 135 133 134 128 125 125 121 121 120 122 120 119 117 117 115 115 105 106 106 102 105 103 96 97 98 
151 145 154 154 155 153 155 158 157 160 163 158 161 162 158 160 155 160 158 153 152 148 145 148 142 147 147 142 145 143 144 142 140 145 140 138 137 137 139 136 136 132 136 140 143 140 146 140 140 140 141 139 144 136 139 136 134 133 131 126 124 122 123 126 119 121 120 118 121 117 116 110 108 112 105 108 103 98 94 101 
151 141 151 151 154 150 153 157 160 159 160 159 157 161 160 156 157 159 157 157 151 148 147 145 148 144 143 146 144 143 147 141 145 142 140 136 139 139 140 135 131 135 135 138 138 145 143 145 140 147 147 146 147 145 139 141 138 137 129 130 127 125 127 124 123 124 122 123 121 116 114 111 114 114 109 108 106 98 96 97 
154 144 148 154 154 152 154 154 156 157 159 159 159 159 161 160 162 160 160 158 152 150 151 147 145 145 144 145 141 145 147 143 144 143 139 140 139 137 133 134 133 133 133 138 142 140 142 143 140 147 150 149 151 147 143 145 139 139 135 134 129 130 128 129 126 128 124 124 120 117 120 113 116 115 113 110 109 105 100 101 
153 143 150 151 153 153 154 153 157 160 161 160 162 161 164 160 162 163 160 157 148 149 146 145 146 146 145 143 139 141 145 141 143 139 138 140 137 137 132 133 135 138 135 139 142 139 141 143 139 149 151 147 148 145 146 144 141 140 139 133 131 132 133 133 128 128 125 125 123 121 120 114 116 117 113 112 108 102 103 103 
152 147 149 155 152 153 151 154 155 160 162 159 161 158 160 160 161 158 159 156 154 150 146 147 144 142 144 144 139 140 146 143 141 142 137 141 138 140 131 136 135 134 133 139 137 138 140 145 142 149 150 151 149 146 143 144 140 140 138 129 128 132 132 129 126 130 128 128 131 124 126 120 122 120 116 111 109 106 104 110 
154 146 147 152 154 154 155 158 160 161 158 158 161 160 160 158 159 157 161 157 150 147 148 146 146 141 142 144 142 140 141 142 140 141 139 138 138 138 135 132 133 133 131 136 138 136 139 141 138 146 147 149 148 146 143 138 141 136 132 128 124 126 128 126 128 128 129 130 129 125 125 123 123 119 121 121 114 110 105 115 
150 145 150 152 150 151 159 158 162 163 158 158 158 158 158 159 155 159 160 157 152 148 148 143 145 140 141 141 142 141 144 140 135 138 137 140 139 138 136 132 135 134 135 138 136 136 139 139 140 146 147 149 149 147 142 141 141 136 131 127 126 124 125 124 129 126 124 124 122 124 123 123 120 121 119 118 117 108 106 105 
151 145 149 152 152 155 157 158 162 159 164 162 161 156 159 161 159 159 161 158 152 147 147 144 144 141 141 139 140 140 139 136 136 134 141 140 136 136 134 131 135 130 132 137 136 140 142 141 146 148 149 150 149 148 142 139 139 134 133 127 125 126 127 127 128 126 123 123 124 123 123 120 120 123 121 117 114 112 110 110 
149 144 149 150 154 155 159 160 158 159 165 157 158 156 160 160 159 161 161 156 155 149 144 139 142 137 138 139 136 137 138 138 138 137 137 138 136 137 133 132 133 133 132 135 137 138 138 140 147 147 148 147 147 145 144 142 140 135 130 127 127 126 126 125 125 124 122 123 124 119 123 118 122 122 119 115 117 110 114 116 
147 144 148 156 152 153 157 157 160 161 165 159 159 157 160 159 156 160 159 157 151 149 146 141 141 141 140 140 139 137 145 135 139 137 136 136 135 135 132 129 133 131 132 134 138 138 141 142 144 146 147 146 149 146 144 142 137 135 131 126 127 126 127 127 126 122 119 121 120 119 122 120 121 121 118 118 118 111 109 117 
146 141 144 150 151 154 158 160 158 158 162 158 154 159 156 158 154 159 157 158 152 150 144 144 142 141 139 141 140 136 140 138 140 139 135 136 134 136 130 131 129 129 130 136 136 137 141 140 143 143 148 145 147 145 142 141 140 135 131 124 126 122 123 127 126 125 120 120 121 120 118 122 117 122 114 118 115 114 111 106 
143 141 143 148 148 155 161 161 159 156 157 157 156 154 158 155 158 160 159 158 151 146 143 143 141 138 138 141 140 136 138 136 136 134 132 134 131 132 130 132 128 126 128 134 131 136 137 140 143 143 144 144 147 143 139 139 135 133 130 124 122 123 122 123 125 124 122 119 119 118 117 117 119 118 116 116 115 111 111 113 
142 137 142 147 152 154 158 157 159 156 157 153 159 154 153 152 155 159 161 159 148 145 143 139 139 138 137 137 139 138 139 136 133 132 131 132 135 130 127 129 129 131 133 131 131 132 134 139 142 143 143 141 143 139 140 138 134 133 130 126 125 124 123 124 122 122 120 116 118 118 118 116 120 119 120 115 117 111 111 113 
140 140 142 146 148 151 155 158 158 160 162 153 151 149 152 152 153 156 153 152 148 143 139 137 138 136 137 135 136 136 137 136 133 133 134 135 130 129 130 129 129 127 132 133 130 133 134 138 141 146 144 138 141 138 138 138 134 129 129 121 122 121 119 120 126 121 119 118 119 120 119 116 118 121 115 114 112 110 110 109 
137 132 142 144 147 148 154 154 157 154 156 152 152 147 150 154 151 146 154 152 145 139 137 138 136 133 134 132 131 130 136 131 132 136 132 130 131 130 128 128 124 129 127 132 131 129 135 134 136 142 139 137 140 137 136 133 131 127 122 119 121 119 119 120 120 119 117 116 119 118 118 114 116 117 114 114 112 108 105 112 
139 133 139 144 145 147 153 152 152 155 153 151 152 148 148 145 145 147 148 145 141 139 132 135 133 131 130 129 131 131 131 129 129 131 130 127 129 131 125 127 124 124 125 128 129 129 131 132 134 135 136 135 137 135 132 133 131 131 123 118 117 119 117 119 119 118 117 114 113 115 112 112 112 114 114 115 111 110 107 110 
138 131 137 141 144 151 152 149 153 151 152 152 148 144 146 145 143 146 145 144 135 135 133 134 135 130 127 118 119 120 125 122 127 125 124 126 126 126 124 122 119 124 127 131 125 130 128 130 137 137 138 136 135 132 134 130 130 127 127 121 117 118 117 117 116 118 117 115 114 115 114 111 112 114 110 114 108 103 108 113 
132 130 133 140 143 147 149 149 146 149 146 151 149 145 143 145 145 148 143 142 137 131 131 130 127 127 120 107 104 103 104 104 109 115 119 118 120 121 121 117 117 119 119 121 125 123 128 126 136 137 135 135 135 132 132 132 130 122 124 119 117 119 117 118 118 118 118 114 114 116 112 112 113 112 108 111 109 104 105 111 
132 125 131 136 138 142 148 147 146 143 147 147 142 143 139 143 140 146 147 135 132 132 127 125 123 123 119 110 104 101 101 97 99 97 96 98 107 113 115 115 110 113 115 116 118 123 123 126 130 130 134 134 133 128 128 126 123 121 120 118 115 115 115 114 116 114 115 115 113 118 114 110 111 114 108 107 106 105 102 110 
129 127 128 134 133 140 142 142 143 143 145 139 138 138 139 140 142 144 138 137 133 134 130 124 125 119 114 112 103 100 96 97 96 96 96 95 99 112 110 114 111 111 112 112 110 115 121 117 127 130 131 131 128 128 125 125 122 116 116 114 111 114 111 113 116 116 115 116 112 113 113 109 110 114 107 108 104 105 100 102 
129 123 126 131 134 141 141 142 143 139 143 139 139 137 135 135 136 139 134 133 134 156 172 143 121 115 115 117 114 109 109 105 103 101 98 98 104 109 111 112 110 110 110 112 115 118 116 117 124 127 131 127 130 126 125 123 117 110 114 110 106 112 114 115 114 114 111 112 113 111 112 109 110 110 106 106 105 101 103 106 
126 120 124 126 130 135 133 132 131 131 132 135 134 132 135 136 135 134 133 134 131 144 157 134 113 109 106 105 109 107 109 105 106 110 109 104 103 106 106 109 108 107 110 112 112 113 113 115 123 124 126 125 124 125 123 122 115 112 111 109 106 109 109 108 109 113 110 111 108 114 112 109 106 106 103 102 101 97 99 97 
124 119 122 124 116 118 114 113 114 118 118 117 116 115 121 119 121 126 132 132 125 128 122 110 105 100 100 104 116 99 102 102 97 97 96 95 97 109 105 101 105 107 107 109 109 112 110 118 123 120 123 122 121 121 118 121 114 111 110 107 104 109 111 109 111 113 109 110 107 112 110 106 105 104 102 104 103 97 98 97 
120 112 115 117 115 110 108 103 106 104 104 103 103 101 106 104 103 104 112 116 115 106 100 96 94 95 92 95 96 92 95 95 89 87 88 87 89 93 93 97 108 106 106 110 106 111 110 117 121 118 124 116 119 118 118 117 108 104 108 103 101 106 102 109 105 109 109 104 106 107 107 105 105 102 103 101 100 98 96 97 
114 109 110 113 108 102 101 97 97 94 100 98 94 96 93 94 93 95 95 97 96 93 94 90 89 88 93 94 88 86 89 89 88 88 86 84 84 85 89 97 105 105 103 108 104 106 106 112 117 116 117 114 116 116 117 114 107 106 107 102 98 102 106 109 104 106 101 104 103 102 106 100 100 102 101 98 100 96 97 100 
109 100 104 107 99 94 90 92 89 89 91 93 92 88 88 89 89 91 89 88 85 91 88 85 82 87 87 86 87 84 84 86 81 84 82 79 79 78 77 93 98 96 100 100 99 101 100 107 109 112 113 111 113 113 110 111 106 104 102 96 96 100 103 104 102 102 100 101 98 104 98 95 98 94 96 97 97 90 90 90 
108 99 103 103 94 89 90 85 87 84 85 83 85 82 83 83 83 85 83 83 82 87 84 81 83 83 86 83 80 77 82 82 80 79 78 79 76 77 74 90 92 92 90 96 92 95 94 89 84 96 96 97 105 108 108 106 104 101 98 97 93 100 99 100 100 100 95 96 94 99 98 93 93 93 92 90 91 85 86 91 
104 95 99 97 92 86 86 77 76 77 80 76 76 79 78 80 78 77 77 76 77 84 82 81 80 86 84 81 82 77 75 73 74 78 77 77 71 75 69 85 85 88 89 87 90 88 87 79 68 70 74 74 80 93 95 98 105 104 101 95 93 96 97 97 94 96 92 94 94 95 95 89 91 92 90 89 87 83 85 91 
97 93 95 94 89 83 79 71 73 70 72 71 72 70 75 72 71 73 71 72 74 81 79 80 79 81 82 79 74 65 65 62 65 72 74 71 72 74 71 86 86 84 86 83 87 84 81 76 60 57 60 61 64 76 84 92 100 94 99 92 93 93 90 93 90 88 86 90 92 89 86 88 86 89 85 84 79 78 80 84 
95 91 93 90 88 78 73 70 69 66 70 68 70 69 68 67 69 67 66 67 71 75 76 77 76 77 75 76 64 62 61 56 58 70 66 68 70 68 66 81 79 80 74 82 79 77 75 70 57 53 53 55 62 77 86 97 97 96 97 91 88 90 93 89 86 86 83 86 83 84 82 78 80 79 77 73 76 73 76 70 
93 84 85 87 80 74 72 66 68 66 70 67 69 67 68 62 62 59 59 63 64 69 70 72 73 73 72 71 70 58 63 55 60 67 65 66 65 65 64 78 76 72 75 76 74 73 69 63 53 46 48 49 56 74 90 92 95 95 89 83 83 87 86 86 84 80 81 80 78 77 80 76 74 78 71 73 73 71 71 71 
92 85 85 83 77 73 69 66 65 65 65 62 62 60 61 58 58 57 57 61 63 66 70 68 69 70 72 72 66 61 63 59 63 64 64 63 62 62 59 74 74 74 72 74 71 68 62 54 43 37 38 40 48 62 84 88 90 90 86 82 82 81 84 80 77 80 75 77 76 77 74 73 71 72 71 68 70 65 66 74 
91 83 82 81 76 71 67 64 63 61 60 61 58 58 60 58 56 55 58 57 58 66 68 68 66 69 68 66 68 60 64 62 64 62 63 60 60 58 61 70 70 69 69 71 69 62 55 49 39 30 30 34 37 50 79 85 88 86 83 79 77 79 80 79 76 77 75 75 74 74 73 74 72 71 65 67 62 59 60 67 
88 81 82 79 72 70 65 60 62 57 59 56 58 57 54 53 52 52 51 54 55 62 64 65 64 64 66 65 60 63 60 64 61 62 58 59 56 53 55 68 67 64 64 66 59 55 51 44 29 25 26 25 29 38 64 76 82 81 81 78 80 74 74 72 74 74 69 71 71 70 71 67 72 67 60 62 57 55 58 56 
90 77 78 77 68 65 62 62 56 54 57 58 56 55 53 52 51 48 50 53 53 60 60 62 62 62 62 62 63 59 63 59 58 60 56 57 55 52 55 63 64 63 60 62 56 53 50 43 30 23 17 19 21 28 36 48 66 77 78 75 75 73 73 72 71 65 67 66 65 66 68 65 70 66 58 57 55 52 53 57 
87 78 77 72 66 61 58 54 54 54 58 53 54 51 50 49 47 47 44 47 54 60 61 59 58 59 58 59 59 56 58 55 55 55 53 53 52 46 52 58 59 62 53 57 53 46 41 34 27 22 19 14 13 15 25 32 44 68 73 72 72 71 69 70 68 63 62 63 60 67 66 60 63 61 57 55 53 56 51 49 
84 74 74 73 63 63 58 51 52 53 51 52 50 46 49 44 43 44 43 46 52 59 57 54 57 57 53 50 52 52 53 46 50 51 52 51 51 45 49 45 41 40 41 43 35 30 30 26 27 26 24 16 14 14 19 20 28 56 64 64 66 68 68 64 62 62 58 60 59 65 65 65 62 56 58 54 53 50 49 50 
79 74 72 66 63 64 56 52 51 52 53 51 47 49 48 48 41 43 43 46 48 54 54 52 52 53 59 62 60 55 50 41 41 49 47 50 48 43 46 37 30 28 26 26 11 16 20 22 24 24 19 13 6 10 13 17 22 41 62 63 63 66 67 64 62 60 55 62 57 62 61 59 58 57 52 52 52 50 45 49 
82 73 67 67 65 63 55 53 51 48 48 49 47 45 48 47 41 41 40 43 49 53 52 51 47 55 59 62 63 61 63 60 55 47 48 50 43 39 43 35 31 26 21 22 12 16 20 21 33 25 17 10 6 6 11 16 17 27 51 61 60 64 60 65 58 53 56 55 58 61 62 59 57 55 51 51 52 47 45 50 
80 70 66 66 63 60 57 55 53 50 51 48 46 45 45 45 39 39 41 42 49 52 50 53 49 53 60 60 62 62 66 60 58 49 51 46 41 39 41 29 28 25 21 15 10 18 19 20 32 31 16 9 6 6 7 11 10 15 39 54 57 60 62 61 57 54 55 56 57 60 56 57 54 50 48 50 49 46 44 50 
78 67 66 65 60 56 58 50 51 53 49 47 50 45 44 42 38 40 40 43 50 51 50 50 49 50 52 56 53 55 58 56 50 45 45 48 36 39 39 31 24 20 19 17 11 14 20 21 29 30 19 13 6 3 6 8 8 11 25 45 53 54 58 57 53 52 54 52 54 57 59 54 51 49 46 46 45 44 42 45 
75 64 64 65 60 59 55 53 50 51 51 45 48 46 44 40 37 39 37 38 47 49 43 48 47 41 47 46 43 43 46 46 44 43 42 41 38 35 36 26 22 21 18 14 11 16 18 19 26 26 21 12 8 2 3 6 6 6 16 41 48 54 52 51 52 51 50 50 50 52 52 49 49 48 43 44 47 43 36 37 
73 64 62 61 62 54 55 49 52 48 50 43 45 45 42 37 36 36 38 40 46 49 46 45 44 44 44 48 44 44 44 45 43 40 38 38 36 30 32 22 22 16 19 12 11 15 18 13 26 27 18 13 7 4 5 7 8 8 8 26 42 52 51 46 49 49 46 47 44 47 46 44 45 44 39 39 42 35 33 38 
69 63 63 61 58 56 54 46 47 46 47 44 46 41 42 37 35 36 39 40 44 46 44 45 46 44 44 44 44 42 41 45 42 43 39 40 37 29 28 20 19 15 15 13 12 18 15 15 20 24 26 17 6 3 1 5 4 6 4 17 37 47 48 46 42 44 46 46 41 41 44 44 49 40 43 37 39 36 31 33 
67 61 59 59 57 54 55 49 48 47 46 43 41 40 38 38 36 35 39 42 45 45 44 43 47 45 46 44 43 42 41 42 38 37 38 40 33 29 24 19 16 15 8 9 9 15 17 15 13 21 24 14 10 3 4 2 3 0 5 8 31 44 46 42 42 41 40 35 39 38 41 40 40 37 38 34 38 30 31 31 
67 59 61 60 59 58 52 53 49 47 48 45 45 43 40 41 38 41 47 46 49 44 44 44 45 42 43 42 40 39 39 40 40 37 37 37 32 29 21 20 16 14 15 7 9 15 15 16 14 14 18 14 10 8 6 4 6 6 5 9 18 40 41 38 41 42 39 37 39 34 39 41 37 37 33 31 39 30 30 31 
69 64 65 64 62 62 55 55 49 50 49 46 45 43 41 38 40 43 47 47 48 45 40 39 42 43 44 45 40 40 39 44 37 39 35 35 29 29 24 20 17 15 14 16 11 13 20 15 17 14 15 12 12 7 8 10 7 7 7 10 15 33 40 38 39 39 38 35 34 37 36 39 36 34 35 31 34 29 27 32 
69 65 65 62 63 59 55 49 52 51 51 50 48 46 46 45 44 48 50 50 46 44 43 39 41 43 41 39 41 37 39 39 38 36 35 33 28 28 28 22 18 18 14 17 15 19 18 17 16 12 15 16 13 11 13 11 12 10 13 14 13 25 35 37 37 40 38 37 34 33 35 34 35 33 31 32 33 27 29 21 
69 63 66 65 63 59 57 56 52 48 52 47 47 48 49 47 48 49 49 51 48 41 39 41 40 44 39 38 36 37 38 41 40 35 31 34 29 29 29 25 20 20 20 21 20 24 27 26 19 19 20 18 16 13 16 17 12 11 11 15 20 25 35 37 38 41 37 38 33 34 37 33 36 32 32 32 29 23 22 25 
69 66 70 67 62 63 59 54 54 51 53 50 52 52 49 49 49 50 53 49 46 42 42 42 40 43 36 37 38 38 38 36 38 38 35 34 27 29 33 25 26 23 26 23 22 27 32 27 26 22 21 21 21 21 21 20 21 16 15 17 22 30 32 35 38 43 40 36 35 36 35 34 32 32 30 29 29 22 18 28 
73 66 68 68 64 64 60 58 54 53 54 54 53 51 52 51 51 53 51 51 44 46 41 40 40 41 38 38 35 35 36 37 35 37 35 35 27 34 30 27 26 26 26 28 29 27 32 31 27 26 25 25 23 21 22 24 18 22 20 21 27 32 36 40 38 39 38 33 32 35 34 33 30 29 27 28 22 20 20 25 
76 68 70 68 71 64 62 55 57 52 52 50 53 52 50 54 53 53 55 50 48 42 43 43 42 39 38 37 36 35 40 36 37 39 37 33 32 33 28 27 25 27 28 29 31 33 32 34 30 28 27 23 23 24 22 24 24 20 21 24 26 30 35 36 37 36 37 33 31 36 31 32 34 29 22 26 25 20 17 22 
74 72 71 75 70 65 62 58 56 53 52 52 51 53 52 50 53 57 55 52 49 45 45 45 44 42 44 38 37 39 38 37 38 41 35 34 30 31 30 27 27 26 31 28 30 34 31 34 31 28 29 26 27 24 24 24 24 24 26 28 33 31 34 36 36 37 33 33 32 31 35 28 31 29 29 25 20 17 21 24 
80 76 75 70 75 67 64 62 59 55 58 57 57 55 55 53 54 57 54 55 50 46 42 45 43 42 41 41 42 37 40 40 36 38 38 38 30 30 28 28 30 29 32 31 33 33 32 34 29 29 28 28 26 30 31 25 24 27 28 31 33 38 37 37 37 36 36 29 31 32 35 32 32 30 22 26 26 22 23 23 
84 72 72 74 74 66 66 64 64 62 60 59 59 59 53 53 56 56 57 57 52 51 43 42 48 41 39 41 38 38 43 41 39 39 35 38 39 35 35 33 37 31 36 39 33 37 35 34 33 32 31 25 29 30 32 34 29 33 31 34 39 40 42 39 41 42 40 30 29 31 35 28 28 34 23 26 25 28 23 22 


