P2
80 60
433
193 201 181 153 130 121 109 105 102 101 105 102 95 97 98 100 100 101 99 95 94 89 93 91 93 88 79 80 79 77 74 71 73 75 81 83 85 87 81 85 81 79 78 75 74 78 80 81 82 80 78 72 76 72 74 76 77 73 71 74 70 76 74 73 71 68 79 77 77 80 84 87 90 94 100 81 72 71 71 66 
188 195 181 151 132 119 110 105 102 103 103 99 101 101 100 102 102 100 97 97 94 90 91 93 92 88 85 85 82 80 76 79 82 82 85 86 88 86 86 85 78 83 79 79 78 80 82 80 82 83 82 75 77 75 77 78 76 71 77 78 75 76 75 75 73 71 77 76 78 80 83 86 90 96 97 81 73 71 71 73 
179 185 164 138 123 111 108 107 104 102 101 102 99 101 98 106 100 102 99 94 94 94 92 91 88 89 87 88 81 84 77 81 83 83 87 86 92 91 86 89 82 82 84 81 83 86 82 82 81 82 83 80 81 77 80 79 78 78 78 78 73 75 78 75 72 72 77 75 78 74 81 82 87 94 98 89 78 76 78 80 
185 165 147 129 117 107 101 102 105 99 102 105 100 101 99 104 97 101 99 93 90 95 92 88 84 88 87 90 86 86 80 83 83 83 90 91 90 91 88 87 83 85 87 85 87 87 86 83 84 80 85 78 81 78 80 74 75 72 76 74 74 73 77 78 68 71 77 78 75 74 80 77 80 93 99 91 82 78 76 78 
163 140 132 117 111 108 99 102 99 99 99 103 98 98 100 97 99 98 99 94 91 93 93 92 88 90 84 89 82 87 83 83 88 84 88 86 89 89 85 89 85 83 88 89 87 87 84 85 85 84 86 81 78 79 80 75 76 73 78 75 76 72 73 75 72 72 76 78 79 75 79 77 78 92 96 91 79 77 82 80 
138 123 123 111 106 104 102 99 99 101 98 100 100 100 96 100 100 98 95 93 93 93 94 91 90 89 87 89 80 84 80 86 88 85 90 89 89 86 88 87 87 85 86 88 87 88 85 82 81 83 82 78 79 76 75 73 73 77 75 73 76 72 71 74 69 72 76 76 78 74 77 76 73 86 97 92 82 81 83 76 
126 115 116 106 100 101 99 99 101 101 98 98 99 99 96 101 99 95 96 95 92 93 95 91 87 86 89 85 81 83 81 85 82 85 84 84 87 89 86 85 84 84 85 90 84 86 85 83 83 85 81 80 76 78 73 73 71 72 73 71 72 69 70 71 71 71 75 75 77 71 75 74 76 80 96 92 85 84 83 83 
116 106 108 101 99 100 97 97 99 101 99 102 101 101 99 104 100 99 96 95 93 91 92 91 92 86 87 89 84 83 82 84 86 85 86 86 89 86 84 83 86 87 87 87 90 88 87 82 84 82 78 76 76 73 74 71 68 71 72 68 69 66 66 68 64 69 72 76 78 71 70 73 73 78 95 95 85 87 84 82 
109 106 106 102 98 98 94 98 98 101 100 101 99 100 102 102 98 100 100 95 95 96 93 91 87 90 90 89 83 84 82 84 87 83 89 85 87 84 85 86 84 86 86 87 86 86 86 84 82 82 86 84 73 74 75 70 67 73 70 71 68 66 65 70 66 68 71 70 70 69 69 76 76 77 91 91 88 90 83 87 
103 101 103 104 101 99 95 97 98 102 102 104 98 96 99 101 97 102 97 96 93 94 92 88 86 88 88 87 82 83 82 84 90 83 86 85 88 84 82 83 86 86 90 88 84 89 87 83 81 87 84 81 79 74 70 70 68 70 71 70 66 67 66 68 61 69 69 69 67 68 71 69 68 75 80 89 89 86 90 90 
101 97 101 101 99 100 96 97 98 98 98 102 102 98 101 101 100 97 99 98 97 91 92 91 86 89 90 85 80 85 83 83 85 79 83 87 85 87 83 87 87 88 90 87 84 86 88 86 85 84 83 78 81 78 72 73 71 68 70 69 70 65 69 68 67 71 72 69 67 67 67 69 70 72 83 85 92 88 93 94 
104 99 98 99 98 96 96 94 98 100 100 105 101 97 97 102 100 101 98 98 95 89 91 89 89 86 88 86 82 83 83 84 81 81 86 85 85 85 84 84 86 88 91 87 85 85 89 89 85 83 81 78 78 78 73 73 68 69 70 69 66 69 69 66 64 70 72 67 68 69 69 66 66 68 77 83 88 97 96 94 
101 95 97 99 100 100 97 96 96 101 100 100 100 101 100 101 97 99 100 97 94 89 94 88 90 89 85 84 82 83 83 82 80 80 82 87 87 90 86 87 82 86 88 85 82 88 87 87 80 81 82 79 78 76 74 72 68 69 65 68 65 66 66 70 64 69 67 68 69 67 70 68 64 66 71 79 87 97 93 99 
102 97 100 100 98 99 93 98 100 99 98 98 98 100 98 99 97 98 95 94 93 91 92 90 90 88 88 83 83 85 82 81 81 83 85 83 87 90 86 83 79 82 83 82 80 83 87 85 80 83 81 76 73 75 72 71 68 68 65 66 65 67 63 67 62 69 70 65 64 66 68 64 65 62 65 81 88 96 92 99 
99 96 99 96 96 96 96 95 96 102 99 101 101 95 99 98 99 99 99 94 92 95 91 88 86 85 85 83 78 86 80 79 78 79 84 87 87 86 86 83 79 79 76 77 79 86 87 87 83 80 81 75 71 72 69 70 68 67 68 64 63 65 65 65 59 66 64 67 67 61 64 64 58 63 66 74 89 98 94 96 
105 96 99 103 100 96 97 96 97 101 99 104 100 95 98 102 97 100 98 98 94 91 92 88 87 85 83 87 79 81 78 80 82 79 82 82 86 82 81 83 79 79 80 77 74 77 85 85 80 82 76 74 67 70 71 70 67 68 66 66 66 65 67 68 58 67 67 67 65 64 61 65 62 63 67 73 89 98 97 97 
103 97 100 97 94 98 94 92 96 100 98 100 99 94 95 100 97 100 95 94 90 91 90 92 91 85 80 84 81 78 79 82 81 78 80 82 82 85 80 88 80 80 78 77 73 75 79 84 77 76 74 69 67 71 71 70 68 68 66 68 62 65 65 79 66 68 66 66 61 64 62 64 62 61 62 74 88 97 96 96 
98 96 99 98 96 96 93 94 95 96 101 97 96 93 95 99 96 99 94 91 91 93 91 89 87 87 82 84 82 83 78 77 80 81 82 79 82 81 82 84 80 80 78 76 77 77 76 78 74 73 68 65 65 71 73 69 64 67 65 63 61 63 69 88 71 66 66 62 60 60 62 62 60 63 65 68 87 95 95 91 
97 91 94 96 97 97 95 94 96 98 100 99 95 94 98 98 96 99 94 93 96 91 90 90 91 89 84 89 85 82 85 84 81 82 86 83 84 83 82 86 79 80 79 76 74 78 77 77 75 71 68 66 62 69 67 68 66 65 66 62 63 64 72 93 68 66 63 62 59 59 61 61 57 60 66 71 83 94 92 93 
99 92 99 94 93 95 93 94 95 98 97 98 95 94 95 96 99 98 92 95 90 90 93 91 95 93 92 92 88 87 84 83 84 85 84 80 84 83 79 86 77 84 79 77 76 76 78 77 76 71 72 67 63 66 68 66 63 66 62 64 64 63 70 88 69 65 63 63 60 62 59 60 60 57 63 72 84 95 93 91 
98 89 96 94 94 91 94 95 96 93 94 98 94 93 96 99 99 97 93 96 93 93 94 94 99 104 114 112 103 94 86 83 80 81 81 81 83 83 80 86 79 79 77 78 73 70 75 75 77 72 67 66 64 60 65 65 62 61 65 65 61 62 70 89 72 63 61 60 58 61 59 57 58 58 65 67 82 93 90 93 
95 91 93 94 89 92 93 95 94 95 97 94 94 92 91 96 91 96 93 94 96 97 99 110 136 196 271 287 238 138 105 85 80 76 76 78 82 77 79 79 77 77 76 72 74 71 75 75 70 70 67 64 61 64 62 60 60 59 60 59 60 59 68 88 68 60 57 57 58 60 59 58 55 57 61 66 81 91 90 88 
93 94 96 95 92 93 94 93 94 95 94 96 92 92 87 95 93 97 93 94 95 104 120 183 276 375 433 426 389 204 157 131 89 75 75 73 75 76 75 75 73 74 75 74 69 71 74 74 73 71 66 66 63 61 59 61 60 58 58 58 57 58 67 84 70 61 61 58 58 57 60 54 52 57 57 62 79 88 90 92 
98 93 97 95 89 90 97 93 93 94 92 96 95 93 89 92 93 94 95 92 97 123 180 240 313 390 424 419 394 268 164 153 134 86 81 72 78 74 71 72 72 72 73 76 70 70 70 72 73 70 67 65 62 60 60 60 64 63 60 56 58 61 65 84 67 60 60 59 53 58 56 53 52 51 60 66 83 90 87 89 
96 92 94 94 96 93 92 94 94 96 93 98 94 94 92 93 91 94 93 98 115 168 211 243 289 351 381 368 360 311 192 156 152 131 88 82 73 72 66 71 71 66 65 66 66 69 66 73 69 71 66 65 66 61 58 61 59 55 58 56 55 57 65 80 70 59 60 57 56 53 53 52 53 52 60 65 78 90 89 89 
91 88 94 94 93 92 93 93 95 94 94 98 96 92 92 96 91 92 96 110 145 182 213 243 257 286 313 302 295 292 227 162 151 146 114 76 73 72 67 70 68 69 69 65 67 67 67 68 67 65 63 66 63 63 60 60 59 59 58 56 59 57 61 83 62 54 58 54 52 51 55 52 53 53 57 63 78 86 85 85 
93 89 93 94 92 95 93 93 95 95 94 98 94 95 90 93 91 91 103 131 162 178 201 228 241 247 261 259 245 253 230 175 159 151 135 82 73 76 74 75 68 70 70 67 65 69 70 69 67 67 63 64 64 62 61 65 58 59 55 56 56 59 65 78 62 55 59 55 51 51 55 55 51 53 56 64 75 79 79 84 
95 86 91 94 93 90 88 94 94 95 96 100 91 96 92 95 93 98 120 154 174 176 191 209 220 217 212 210 205 204 196 175 169 162 147 92 74 78 73 70 68 70 68 65 60 66 70 68 64 62 62 63 64 61 59 63 61 57 54 58 55 57 62 76 61 54 57 54 52 52 53 52 47 50 51 61 74 77 79 80 
92 88 90 92 90 92 91 92 94 93 93 96 94 89 91 94 89 102 138 177 193 187 178 193 199 189 171 157 161 155 152 155 168 172 156 106 80 74 71 71 65 72 69 63 63 68 68 67 63 65 66 63 61 61 61 61 59 58 58 56 54 56 60 74 61 56 59 54 50 47 51 51 48 48 48 60 74 81 74 79 
91 83 95 91 88 94 90 92 96 96 92 95 94 93 91 92 92 105 147 191 205 199 195 191 179 153 140 137 133 133 153 165 164 171 155 105 77 75 73 73 65 68 67 65 60 63 66 64 63 64 65 63 61 60 59 62 58 59 56 57 56 57 56 60 55 56 55 55 50 47 46 45 46 50 52 62 74 76 75 76 
90 86 91 92 87 92 90 92 96 93 93 99 93 92 88 89 94 104 150 191 197 193 194 184 151 135 131 134 141 150 157 165 163 168 153 103 77 75 74 71 70 69 69 66 63 62 64 67 65 66 60 60 58 56 56 60 58 57 56 55 56 55 55 48 55 54 53 50 50 48 44 46 45 48 50 59 72 78 71 71 
84 84 89 90 90 92 93 90 92 92 93 95 92 89 85 90 92 108 150 170 175 180 185 175 136 119 119 127 134 137 146 153 163 163 156 93 77 80 72 73 69 71 65 66 61 66 64 66 64 64 62 56 58 57 56 57 57 56 56 55 53 55 52 41 53 52 53 52 48 48 49 46 48 50 51 59 69 72 68 65 
89 85 91 91 90 97 92 92 93 92 92 91 91 88 87 86 88 101 123 139 143 147 159 157 130 111 112 118 122 125 130 137 163 158 151 85 76 76 71 73 71 69 69 65 61 66 64 64 64 62 63 59 59 60 62 60 56 55 53 56 58 55 53 39 47 50 50 48 47 47 46 45 49 47 49 53 65 70 62 65 
84 80 87 90 88 92 90 91 92 90 90 93 90 87 88 90 89 99 117 138 142 141 141 136 122 109 107 113 115 116 119 133 155 165 127 74 74 74 72 75 69 68 65 67 64 68 66 62 63 61 62 61 57 67 68 66 57 56 53 53 53 54 50 41 48 50 50 50 47 45 46 44 45 45 46 51 59 65 62 66 
84 79 88 90 88 90 92 90 91 90 91 93 92 92 89 90 91 95 116 129 136 139 137 129 122 109 104 108 105 110 116 124 153 185 100 75 75 77 75 77 70 66 64 66 66 66 64 63 64 64 62 61 57 61 61 60 54 58 51 53 54 55 48 38 46 53 50 49 45 46 48 46 48 46 42 48 57 59 61 60 
89 81 88 87 86 89 92 93 88 91 90 97 92 91 90 92 89 93 107 131 134 134 136 126 117 111 108 108 105 106 112 120 150 157 89 72 77 81 77 72 70 67 63 70 68 67 66 64 64 64 62 61 59 58 58 57 56 57 55 53 55 55 48 39 48 50 48 47 45 43 47 42 41 45 45 50 48 55 54 55 
85 81 84 91 86 91 91 88 89 91 88 93 92 91 90 90 86 91 97 118 128 132 133 126 118 113 105 105 104 107 111 122 134 86 76 74 76 77 70 75 70 64 62 68 65 71 66 63 68 65 62 60 59 57 62 57 54 58 53 51 56 58 48 43 50 48 50 46 44 40 43 40 39 42 39 48 50 52 48 48 
86 82 88 88 87 89 87 88 87 93 91 94 91 85 90 88 88 90 90 93 113 121 127 124 117 110 106 105 100 100 102 99 81 73 72 73 72 79 72 74 62 68 67 67 65 65 65 65 66 64 61 61 58 59 58 58 56 53 56 55 54 56 45 41 49 49 47 43 41 40 40 43 40 39 41 45 45 43 44 49 
83 83 88 86 85 87 87 88 87 89 90 93 88 86 85 89 87 87 87 86 94 103 114 108 107 108 104 102 98 92 79 72 69 69 72 71 73 73 71 74 68 68 66 66 65 64 64 66 65 65 60 60 59 55 58 57 54 51 50 52 50 51 46 42 50 47 47 41 41 46 40 42 39 43 42 43 44 40 38 45 
89 80 89 87 83 91 87 90 87 86 88 92 87 90 86 87 89 87 82 82 81 83 89 93 98 96 95 93 80 76 70 68 68 72 69 68 73 74 72 72 66 68 65 65 61 65 65 60 65 65 65 58 57 55 56 58 57 54 54 49 50 50 42 37 45 43 45 43 38 44 39 40 43 41 37 42 46 38 38 38 
86 83 86 88 88 87 89 89 87 86 89 93 88 85 85 88 84 87 81 78 76 80 78 78 77 78 74 73 72 73 70 70 73 73 70 75 73 74 73 76 68 70 64 63 65 66 64 63 63 64 66 59 59 57 59 56 54 51 50 50 50 50 40 38 45 44 45 42 40 41 41 39 39 40 44 44 45 39 37 37 
87 82 86 87 88 85 87 86 88 86 89 93 87 85 84 85 85 82 81 76 76 74 75 73 73 73 71 71 71 71 68 72 72 74 72 73 74 77 77 73 68 70 67 68 63 65 65 65 63 63 59 59 57 57 57 55 55 53 53 51 50 53 40 38 46 46 46 41 39 40 41 40 40 41 38 42 39 37 36 35 
89 80 83 87 88 90 87 86 85 88 89 87 85 86 87 85 83 85 80 75 75 75 76 72 75 71 68 66 66 65 66 69 75 70 73 71 73 73 70 72 70 70 67 70 68 72 68 71 66 60 62 61 57 58 58 55 55 55 53 50 52 53 38 36 44 47 47 40 38 38 39 40 39 36 43 41 34 35 31 33 
87 80 86 87 84 87 87 84 86 87 91 89 82 86 84 84 87 85 75 77 74 69 72 72 74 67 67 68 62 63 62 69 69 68 70 72 73 71 67 69 68 67 70 66 67 72 68 70 63 65 65 65 61 59 57 54 51 57 52 49 52 52 34 35 46 44 45 41 41 38 39 41 35 36 36 40 33 30 32 31 
86 78 83 87 84 86 87 82 88 85 88 84 83 84 82 82 82 84 77 78 78 72 73 70 69 69 69 68 61 62 65 70 70 69 71 73 73 72 69 75 68 67 69 68 68 74 74 70 64 63 65 66 61 60 60 56 58 56 54 53 54 53 38 39 45 42 45 40 38 38 37 37 37 37 37 35 33 23 26 28 
86 81 83 84 85 85 85 84 84 84 85 84 81 85 82 85 80 83 79 78 75 75 72 71 68 69 66 67 62 65 67 73 73 71 71 75 71 70 70 72 68 70 68 70 70 74 73 71 61 60 67 65 59 62 59 60 60 58 53 50 51 48 39 37 47 44 42 37 40 37 35 35 37 32 36 36 27 22 21 27 
87 80 85 84 84 85 85 88 84 86 85 82 82 85 81 83 79 82 82 80 77 76 72 73 66 68 69 68 64 64 67 68 72 73 71 71 70 72 71 72 68 70 69 72 72 72 71 67 64 64 66 67 65 62 58 58 60 60 58 53 50 49 36 37 42 42 43 40 41 38 36 36 30 31 38 33 25 20 16 24 
84 80 84 80 86 84 86 85 86 82 87 87 84 85 83 81 84 87 85 78 77 73 70 69 69 69 69 68 67 67 65 72 72 69 71 69 72 72 74 72 70 72 73 72 72 73 70 68 66 65 65 65 63 62 61 59 58 59 58 54 51 46 38 39 44 40 42 38 38 36 31 31 30 32 34 34 21 14 15 20 
85 77 83 84 85 87 83 84 84 86 85 83 81 82 81 83 80 83 81 82 77 75 76 68 72 66 67 69 66 66 65 66 67 69 71 73 74 74 71 74 70 71 69 68 72 73 72 71 66 65 65 58 58 62 59 58 58 56 58 57 54 50 40 37 45 39 40 39 32 37 31 28 31 34 34 32 20 12 13 15 
83 78 85 83 84 85 85 81 82 83 81 83 78 84 83 85 84 81 80 78 79 73 73 69 69 73 66 68 65 67 70 68 67 68 68 72 73 73 70 74 71 70 69 68 68 70 69 68 66 67 62 60 60 60 60 59 56 58 57 60 56 51 43 43 43 40 38 41 36 36 31 28 28 29 36 30 17 10 17 14 
85 79 82 86 81 85 83 82 83 83 81 83 81 82 80 85 82 84 81 78 78 72 76 72 70 68 66 66 68 65 64 72 68 65 67 71 73 74 68 73 71 67 67 65 71 69 67 69 65 65 63 62 62 60 61 60 60 56 55 58 57 46 40 39 42 38 39 36 35 38 28 29 27 28 32 28 19 13 12 13 
82 78 82 81 83 80 80 80 78 77 84 83 78 83 78 82 80 81 82 79 75 69 73 70 72 71 69 71 65 66 66 67 68 69 72 71 73 72 72 74 71 70 70 71 67 71 69 69 67 65 67 60 58 60 57 58 59 54 55 58 59 49 41 39 39 40 42 38 37 37 29 28 28 31 32 26 17 11 10 7 
85 78 81 82 81 79 77 78 81 78 81 79 79 80 82 82 77 80 81 77 77 75 72 71 71 69 67 70 65 63 66 67 71 72 75 72 73 71 72 73 69 69 67 69 71 68 67 67 63 66 68 61 59 58 58 58 58 53 58 62 56 49 45 40 42 38 42 38 34 35 31 28 29 30 28 24 12 9 5 0 
84 77 77 80 80 78 79 77 80 77 80 81 77 78 79 81 78 80 79 77 73 71 71 70 68 68 69 69 60 65 67 70 68 74 74 74 74 74 70 75 67 67 68 67 69 70 67 65 65 67 66 61 61 58 62 56 59 57 55 57 59 50 43 41 40 40 41 36 35 35 28 32 28 31 29 22 10 6 9 8 
85 77 80 80 76 79 80 77 76 80 79 78 77 78 77 80 78 82 78 74 72 72 73 67 66 71 65 66 64 67 66 67 73 72 73 72 74 71 71 70 67 67 68 67 66 68 66 67 63 65 67 60 60 60 59 53 56 56 59 59 57 46 42 40 42 40 43 37 37 38 30 33 29 28 30 19 10 4 1 9 
88 78 80 81 79 78 83 78 79 77 78 81 77 78 80 80 77 79 78 73 75 73 69 69 68 66 62 66 65 65 66 68 71 72 74 74 72 75 72 73 66 67 69 71 67 66 64 64 65 66 68 64 60 61 61 56 58 55 54 58 53 49 42 44 42 42 39 42 37 36 32 34 28 32 30 16 6 5 2 4 
88 80 84 81 83 84 77 80 78 78 78 83 78 80 77 78 75 78 75 73 75 72 71 68 69 68 65 67 62 64 68 69 70 71 74 73 74 76 70 69 70 68 70 70 71 69 66 64 67 65 70 63 63 63 58 57 61 54 59 54 54 47 47 43 44 43 44 43 41 37 36 33 30 28 28 16 9 6 4 6 
96 81 82 85 80 81 80 79 79 79 77 78 75 77 77 78 74 77 76 74 71 73 69 69 66 69 68 65 62 64 65 67 69 67 74 72 74 74 73 72 66 69 71 70 67 66 68 70 67 71 67 66 61 63 60 60 61 57 58 56 54 50 51 45 42 41 45 42 44 40 40 37 34 28 27 17 9 3 3 5 
93 88 87 82 80 82 80 78 80 78 74 75 73 75 77 75 72 75 73 74 73 74 69 68 69 67 68 68 67 62 66 69 69 70 77 72 77 79 75 75 70 71 76 69 69 69 70 67 68 75 67 64 65 63 62 59 60 58 57 55 53 45 49 48 44 43 48 45 40 39 44 36 33 31 28 19 11 1 2 6 
98 85 86 84 85 86 87 82 86 81 80 79 78 77 79 78 80 77 79 73 73 77 74 67 76 67 69 72 69 68 67 70 68 69 77 75 77 80 76 75 69 74 70 70 67 71 73 68 72 72 68 69 66 62 62 62 59 59 61 57 49 38 47 48 45 43 48 47 45 41 40 36 31 36 33 22 8 5 2 5 


