P2
80 60
266
129 124 123 125 123 124 124 134 130 133 132 137 136 137 139 132 133 132 131 130 129 131 124 122 123 120 120 107 107 110 106 110 111 115 109 113 115 112 116 115 113 108 111 105 106 112 110 109 114 117 119 122 123 123 123 124 119 115 120 116 106 97 97 97 91 91 85 88 86 83 82 85 79 79 76 73 73 69 72 77 
123 128 124 123 122 126 127 132 137 137 137 137 139 140 140 140 139 135 137 136 133 135 134 131 129 132 126 121 118 118 117 115 118 121 123 119 119 117 125 120 115 115 117 112 110 113 117 115 112 118 124 122 121 124 125 124 119 118 121 123 109 104 98 105 94 99 96 95 91 85 85 84 82 79 78 76 76 74 73 73 
125 127 124 122 121 124 132 134 141 141 135 139 138 139 137 138 141 138 140 136 139 140 136 135 135 133 129 123 118 124 123 122 126 126 130 129 129 127 129 128 126 125 123 121 120 116 116 115 121 123 126 124 128 124 125 125 124 122 122 121 113 102 101 105 99 102 97 95 100 91 92 87 85 84 79 81 79 71 75 76 
124 131 129 124 123 128 129 134 139 137 139 142 139 139 139 141 141 139 140 137 138 136 137 137 135 133 130 126 121 123 123 125 127 125 130 131 130 131 133 132 130 130 130 127 124 127 129 125 127 126 133 129 128 129 129 130 125 121 123 122 115 105 104 108 99 102 103 102 99 98 95 91 91 90 83 85 84 73 76 73 
129 130 128 125 124 126 132 135 139 141 136 142 137 136 139 139 140 138 140 140 140 140 137 135 137 134 134 126 125 126 127 123 129 126 131 133 128 133 130 133 133 129 129 128 126 129 128 126 133 134 135 132 128 133 129 130 127 122 122 125 112 106 106 109 100 104 100 104 97 96 93 94 92 92 86 83 81 76 83 74 
127 131 128 127 125 128 133 134 140 140 139 142 140 140 141 141 140 140 139 136 134 137 139 138 138 135 132 129 123 126 126 126 129 126 129 130 129 130 131 134 132 132 133 129 130 132 130 134 135 138 134 137 134 135 135 129 129 129 128 129 122 108 109 108 103 100 101 105 101 95 96 93 97 93 89 86 83 80 83 78 
129 132 126 126 123 126 137 135 141 140 139 142 142 140 138 141 140 139 140 137 140 139 136 136 135 137 131 129 124 123 122 123 126 126 128 130 129 130 129 130 129 132 131 126 127 130 129 133 135 139 142 139 136 137 136 133 131 127 129 127 120 106 107 108 106 105 102 107 102 100 94 93 93 96 92 85 84 84 87 82 
127 131 127 125 129 136 141 143 146 141 139 147 140 143 136 135 140 136 138 136 136 139 136 138 134 132 134 130 122 128 128 125 132 128 127 130 130 128 133 131 130 131 126 128 130 131 134 135 143 144 147 146 144 141 134 136 133 133 132 130 122 112 107 110 104 109 102 108 104 98 96 100 103 98 98 93 87 87 89 84 
130 132 128 128 130 145 162 163 164 152 143 143 133 133 131 134 132 130 128 131 131 137 130 130 131 130 131 128 122 123 126 128 127 125 126 127 129 128 128 131 127 128 129 129 129 127 130 133 145 147 151 150 144 145 140 139 137 137 135 132 127 116 113 115 108 114 109 105 106 103 100 100 105 103 95 91 91 88 85 85 
129 129 128 128 129 154 174 182 173 156 142 136 129 128 126 128 126 121 119 117 119 125 124 125 125 126 126 121 121 119 122 123 121 119 123 123 122 125 126 130 127 129 128 129 127 130 129 135 143 146 148 148 143 145 143 141 139 137 137 141 132 119 116 115 113 114 114 110 109 106 104 103 101 99 96 95 89 90 90 83 
122 130 126 128 127 153 170 172 173 152 139 127 120 119 119 119 118 113 110 109 108 115 112 115 115 116 117 112 112 115 115 116 113 111 113 113 115 117 118 118 117 119 119 119 121 121 125 128 137 142 141 144 143 143 138 140 135 133 136 133 127 119 114 117 111 115 117 111 110 107 106 109 105 103 100 101 96 92 97 91 
126 131 124 126 129 141 156 162 160 146 132 120 115 110 110 105 111 106 105 104 105 108 105 106 108 108 112 108 108 106 111 109 105 104 109 108 108 110 111 109 107 108 104 100 102 102 107 109 116 119 129 134 137 139 135 136 132 134 133 130 124 114 113 117 109 111 115 115 110 110 110 109 110 105 107 103 102 96 98 92 
130 131 127 126 129 146 148 152 149 137 120 114 109 106 105 102 102 101 102 103 103 102 102 104 100 103 107 107 103 108 101 102 99 102 104 103 104 104 107 105 100 102 96 98 96 100 102 101 105 105 110 115 116 132 133 135 134 133 132 131 120 112 111 113 106 108 111 110 109 107 108 108 107 106 103 102 101 101 103 102 
122 129 126 125 129 142 142 137 136 119 115 109 103 104 103 101 103 99 99 99 99 99 102 99 101 102 100 103 101 99 97 97 93 91 94 95 98 101 100 94 95 97 94 90 87 95 99 97 101 99 101 104 104 118 132 137 135 134 130 128 121 113 113 111 106 113 109 108 108 109 106 108 107 106 103 105 101 101 98 102 
124 126 125 124 131 140 131 123 122 110 105 102 100 100 99 97 100 98 97 95 99 95 97 94 97 94 94 96 91 88 86 89 89 89 90 90 93 92 95 92 91 94 93 89 90 93 93 96 96 94 95 96 100 107 121 134 129 131 130 125 121 111 112 110 102 106 106 108 109 103 104 104 104 106 101 105 106 101 103 101 
121 124 122 122 121 124 119 107 110 103 101 99 96 96 97 99 97 99 97 95 99 96 98 96 94 93 88 88 87 82 83 85 87 85 88 87 90 87 90 88 92 90 89 84 87 89 90 92 92 93 94 94 95 105 117 131 129 131 128 126 121 113 111 110 100 109 106 107 103 104 104 106 105 105 102 105 103 102 103 98 
121 124 118 122 115 112 107 100 103 98 94 96 95 95 95 93 97 94 94 95 97 96 96 95 90 88 87 83 83 81 85 83 83 83 86 88 88 82 88 89 87 88 88 84 87 88 89 89 93 90 92 90 90 99 110 122 121 123 127 124 119 110 111 107 100 106 106 105 104 103 104 106 104 103 100 105 103 104 103 99 
118 121 117 120 112 107 101 96 97 95 95 94 95 93 95 95 96 94 93 95 94 95 95 92 89 90 86 82 81 83 81 84 86 87 87 84 83 83 87 89 88 87 88 85 86 86 87 86 90 90 90 86 85 96 106 113 114 114 119 123 117 109 112 106 99 104 106 104 104 104 105 106 105 102 100 102 102 102 101 99 
118 119 118 113 108 102 97 92 98 94 93 89 92 94 93 93 95 95 93 94 96 94 92 91 93 88 90 81 78 78 81 82 84 86 85 83 83 80 86 86 84 87 86 84 84 84 86 86 86 86 86 85 86 92 96 104 101 101 108 119 119 109 113 109 98 107 103 105 97 103 104 102 103 100 102 96 98 98 102 95 
114 120 115 111 102 95 94 90 93 91 91 91 93 94 94 91 93 95 93 90 93 92 93 93 89 88 86 85 77 79 79 82 84 81 85 83 84 83 85 87 86 89 85 82 83 82 84 86 86 86 86 85 80 86 91 96 93 91 96 109 112 106 110 106 99 106 102 105 104 104 104 103 105 105 101 100 99 98 97 93 
115 114 109 106 99 93 89 90 92 88 88 90 92 91 90 93 93 89 89 91 95 93 88 88 87 85 84 80 76 76 80 79 79 79 80 82 85 81 82 83 84 85 80 82 81 80 79 81 85 84 86 82 77 82 82 87 90 87 89 98 100 99 107 108 96 103 102 103 103 98 101 99 100 102 101 99 95 96 96 92 
113 116 109 107 96 93 91 89 93 93 90 90 93 90 90 89 90 88 91 90 94 93 90 88 83 83 88 80 74 76 77 74 77 77 79 82 82 80 83 80 83 81 83 80 78 83 77 77 80 83 83 81 79 81 78 78 79 83 80 88 92 92 101 101 98 99 99 99 100 100 100 100 98 99 95 94 96 94 94 90 
110 115 108 106 93 89 89 86 89 87 88 87 89 86 91 86 89 88 91 87 88 92 87 88 84 81 81 77 74 72 74 72 69 72 75 74 78 75 81 78 79 80 77 77 78 80 80 77 80 81 83 78 76 75 75 75 73 74 76 80 81 92 102 100 97 101 101 96 95 96 100 97 99 99 95 93 96 94 96 90 
107 109 103 100 92 90 85 87 88 85 87 90 88 87 88 88 88 89 89 86 88 89 90 84 82 83 81 77 70 70 71 72 70 72 74 74 74 71 74 77 74 76 75 73 75 75 74 76 77 78 82 78 73 72 75 75 74 74 75 76 74 90 97 101 99 97 99 98 97 97 99 97 94 95 95 90 96 92 92 91 
109 109 106 100 90 87 87 82 88 88 86 90 86 86 88 87 89 90 87 87 84 85 86 85 84 78 77 74 70 67 71 71 72 73 74 75 73 69 73 74 73 73 71 72 73 74 71 73 75 76 78 75 74 74 71 73 73 71 73 71 71 89 97 97 95 101 98 100 99 97 97 97 96 97 90 94 91 95 90 88 
103 104 102 94 88 85 86 82 85 87 85 85 86 85 86 85 88 84 84 83 86 83 82 86 81 79 79 72 68 68 70 71 71 70 73 72 72 69 70 71 70 72 71 68 70 72 73 74 75 75 79 74 73 72 69 71 69 70 72 72 72 86 93 97 92 96 98 99 98 96 94 96 95 93 93 93 89 88 86 82 
97 105 101 97 85 85 83 84 86 84 83 83 85 84 83 84 88 81 85 83 83 82 84 81 80 78 77 72 69 70 72 69 71 71 71 71 72 70 72 72 66 71 68 67 66 70 71 73 74 76 81 70 72 69 70 70 68 69 70 72 75 90 92 94 94 93 98 95 95 95 95 92 93 92 90 90 89 87 87 83 
94 100 96 89 87 82 84 85 83 83 85 82 83 85 84 81 85 81 82 83 82 84 79 79 80 80 81 81 78 78 79 75 74 71 69 70 70 73 73 71 67 72 67 65 65 66 71 69 72 76 74 71 69 69 68 69 66 67 68 70 69 88 92 94 91 90 94 97 95 92 92 93 93 88 87 88 87 84 82 82 
97 94 91 86 83 83 81 80 83 82 82 80 85 85 83 79 83 81 82 83 82 79 79 79 82 94 137 181 153 121 109 99 83 73 66 70 69 69 71 68 69 67 69 64 64 69 70 69 71 73 75 69 65 63 67 65 67 64 66 65 68 85 88 88 87 90 95 93 94 89 90 91 91 88 87 87 86 83 79 75 
89 96 91 83 77 81 79 79 85 80 80 84 83 81 81 79 82 81 80 80 83 83 78 81 102 183 266 265 203 147 129 127 119 87 72 67 67 68 70 70 67 67 66 63 62 66 67 67 68 71 71 66 64 66 66 66 64 64 65 64 68 83 88 87 87 89 88 91 90 87 86 89 89 86 84 84 85 82 81 75 
88 87 89 83 78 82 80 78 83 79 77 82 84 82 79 81 81 80 81 81 84 78 82 90 154 221 233 243 206 155 135 123 123 114 86 68 66 69 69 73 69 67 66 64 61 63 65 65 69 70 68 62 60 62 62 62 62 60 64 67 70 82 86 84 87 87 85 86 88 84 83 86 84 85 84 84 85 81 79 71 
82 82 81 76 77 78 80 78 81 80 80 78 76 78 78 76 80 79 81 80 79 82 83 114 161 179 190 212 197 149 140 134 124 120 103 72 65 70 68 70 65 66 65 60 60 63 61 67 67 68 66 61 59 60 63 61 58 59 63 61 63 82 80 77 82 83 85 84 84 83 81 84 82 82 80 77 82 75 72 70 
76 80 73 72 75 77 76 79 83 79 76 78 78 78 80 76 79 79 77 80 76 78 83 115 141 154 163 174 184 142 138 135 125 122 117 78 67 67 67 65 62 65 63 59 58 64 65 64 68 64 65 60 61 63 60 60 58 56 61 61 66 80 79 77 80 81 76 80 81 77 78 80 83 79 76 78 74 72 70 67 
74 79 73 73 72 77 80 77 79 75 76 77 80 77 77 73 77 78 79 78 78 79 82 109 123 138 154 169 187 142 136 137 127 122 121 81 68 66 69 68 66 63 63 60 58 64 65 61 66 63 63 63 60 63 62 61 56 58 58 58 67 81 78 75 76 76 76 84 78 74 74 75 75 70 70 70 69 68 66 59 
71 79 72 70 72 75 75 75 80 78 76 82 77 79 77 82 82 78 78 78 79 79 83 99 110 124 135 167 190 157 131 140 131 130 122 79 69 70 69 68 64 60 58 59 60 64 60 62 63 62 60 59 57 59 60 60 59 56 58 58 64 75 76 73 71 74 76 77 73 71 69 71 71 69 65 64 66 63 61 57 
72 76 68 71 72 76 78 75 78 77 77 79 76 78 77 78 81 75 77 77 77 76 79 89 102 118 126 176 199 184 135 132 144 139 114 71 68 70 68 67 64 61 56 62 64 64 63 58 61 60 58 56 55 56 57 56 54 54 61 57 64 73 69 68 70 73 69 74 73 64 72 70 67 63 60 61 59 59 60 53 
67 74 66 71 69 75 73 74 76 77 77 78 74 77 76 77 80 77 76 76 75 78 76 82 96 106 128 219 225 201 150 135 142 143 91 70 70 72 65 68 63 61 59 60 63 63 60 58 62 56 60 58 58 57 57 55 56 55 57 56 61 68 66 62 67 70 67 68 66 59 62 61 60 57 53 52 56 54 52 47 
67 69 65 73 70 70 73 75 76 75 75 74 74 75 77 73 77 75 74 72 73 75 73 76 82 100 149 216 187 184 156 140 123 95 73 66 67 67 65 64 60 62 63 58 62 59 60 59 61 59 58 56 57 54 56 53 52 51 55 56 60 69 61 61 65 64 67 65 63 62 60 62 57 54 52 52 51 49 50 42 
63 65 65 71 69 73 74 74 74 75 76 75 75 78 75 74 74 73 71 72 74 73 75 73 73 82 102 119 136 131 125 95 73 68 65 65 65 64 63 65 62 62 59 58 59 58 57 59 63 56 60 56 55 54 54 56 53 50 52 54 62 66 60 58 65 62 62 63 60 56 60 58 52 51 50 52 46 46 44 48 
59 64 62 65 71 73 71 67 76 71 72 75 73 74 72 74 73 71 71 73 71 72 68 68 68 69 71 71 70 70 71 66 64 66 63 64 66 63 63 65 62 60 55 56 57 59 57 61 61 55 56 54 53 54 53 50 50 51 51 52 61 60 54 52 54 57 57 58 58 56 54 57 51 48 44 47 46 42 46 43 
61 59 61 66 68 71 72 72 75 72 75 76 71 72 72 71 73 74 72 71 70 70 69 68 65 65 65 63 61 60 62 61 62 63 64 65 65 64 67 66 61 64 56 57 58 58 57 57 58 52 55 53 49 56 52 51 49 49 49 50 56 59 50 51 50 53 55 55 55 50 54 52 48 45 45 41 45 40 42 40 
56 59 60 62 68 73 70 68 72 71 71 73 73 68 72 70 72 72 70 67 69 68 69 67 66 64 65 56 59 57 61 60 61 59 60 62 62 61 63 65 59 62 62 58 59 60 57 54 58 55 50 50 47 49 50 49 50 51 48 51 58 55 45 46 48 52 51 55 51 49 48 48 46 41 40 39 40 37 41 35 
54 63 58 65 65 69 70 68 74 73 72 74 71 72 71 71 74 69 69 69 68 68 69 66 65 62 61 55 56 55 59 58 62 61 63 64 65 61 66 62 65 61 60 60 61 63 60 60 58 49 53 50 51 52 49 51 47 48 48 47 56 48 42 45 48 49 50 53 50 47 47 45 40 36 39 37 37 34 39 30 
50 57 58 63 65 68 71 64 71 70 67 69 73 71 69 70 70 66 69 68 67 64 63 65 66 61 61 54 53 53 57 55 58 57 62 62 57 62 62 62 60 60 62 61 62 63 61 57 56 50 53 54 53 51 50 50 49 51 49 46 54 48 43 40 47 46 46 52 48 44 45 44 39 38 35 35 34 32 35 30 
49 55 57 65 64 65 67 68 71 68 68 70 65 69 70 68 68 66 70 67 69 63 64 65 59 60 59 53 52 51 53 56 58 57 61 61 58 59 60 59 59 60 56 61 60 64 61 56 56 52 50 52 53 49 44 45 48 49 48 47 51 49 37 42 44 42 44 46 48 42 39 41 38 35 32 34 37 25 27 25 
51 58 56 61 66 68 70 67 74 68 65 65 66 71 66 68 67 64 70 67 66 65 66 62 61 60 56 54 52 53 55 57 56 60 60 57 59 58 59 60 57 60 60 62 61 61 61 59 54 47 52 52 53 54 48 46 48 48 49 47 50 45 34 41 43 41 40 41 38 36 37 32 33 31 28 29 25 23 22 23 
52 52 56 63 63 67 69 68 71 67 67 69 67 65 65 66 68 65 69 68 67 67 64 63 58 60 57 54 50 51 53 56 57 59 59 62 58 60 56 59 59 64 60 60 60 61 61 55 54 48 47 49 51 48 47 46 48 47 47 44 49 38 34 35 40 36 35 39 42 39 37 36 30 30 29 29 24 18 17 12 
48 56 58 64 62 68 65 67 70 66 65 63 66 62 64 63 67 64 68 65 67 65 61 59 57 59 54 51 51 52 53 53 57 55 57 59 57 57 62 57 56 60 58 62 60 58 59 56 53 48 49 50 53 51 52 45 46 45 45 45 50 38 32 38 38 35 35 34 37 34 34 31 29 25 28 27 20 17 16 7 
45 52 56 57 62 68 65 65 67 67 68 67 64 63 66 64 66 65 64 65 64 64 61 58 54 59 55 49 50 52 52 54 52 54 56 57 57 57 59 60 59 60 57 55 56 57 60 53 49 47 47 49 49 47 45 50 46 46 46 49 47 40 35 34 36 35 32 30 33 31 32 29 28 25 28 23 18 10 14 4 
42 54 56 62 63 68 62 62 69 65 64 61 61 65 66 61 67 64 62 61 63 60 59 54 54 54 53 48 47 48 49 51 53 56 56 57 57 57 56 60 59 59 58 52 55 56 57 55 51 47 47 46 45 52 49 46 45 44 45 48 48 35 29 34 35 29 26 28 28 26 30 26 26 23 23 25 15 6 5 10 
46 54 57 61 62 63 63 62 67 66 61 63 63 62 65 62 64 62 59 61 57 58 59 54 53 55 50 48 47 46 49 49 50 50 55 56 55 55 57 60 57 56 55 54 53 55 56 54 47 47 47 47 50 50 43 44 46 42 42 44 45 33 28 32 32 27 26 26 24 27 26 24 25 25 25 24 12 8 7 7 
45 55 59 62 64 62 68 64 62 64 60 60 62 63 62 60 58 57 60 60 58 55 52 52 51 51 48 46 46 49 50 51 57 55 55 54 53 53 58 58 54 55 56 53 53 57 55 52 48 48 46 45 47 49 46 45 46 40 42 39 43 29 28 31 26 25 24 24 22 25 21 24 23 20 20 19 15 4 9 5 
47 53 58 62 63 63 62 61 62 60 59 57 61 59 58 55 57 59 61 62 60 59 54 48 49 49 47 47 58 72 78 79 77 68 57 55 55 52 55 57 55 58 56 53 53 53 52 49 46 48 48 44 45 46 42 42 42 40 38 33 34 29 25 25 26 26 22 20 22 22 22 19 19 20 17 14 15 9 6 4 
46 57 59 62 61 61 62 61 65 63 59 63 60 58 56 55 54 56 56 57 59 57 53 51 53 49 45 60 79 92 103 106 102 95 72 58 50 52 55 57 51 54 52 53 51 53 50 48 45 48 46 45 45 46 44 40 42 39 38 32 30 22 20 23 27 24 23 23 24 21 15 20 18 15 19 13 9 6 10 5 
52 60 62 60 62 62 63 61 61 61 59 60 59 59 55 55 51 52 54 55 54 57 50 49 49 47 49 60 71 76 89 93 104 97 85 64 56 50 55 54 57 52 50 50 52 50 51 46 45 45 49 47 44 45 43 41 39 35 36 35 31 24 24 25 28 25 23 24 20 20 17 17 18 21 12 14 7 6 7 6 
54 65 64 62 65 63 63 59 64 61 57 58 59 58 54 50 52 51 53 51 52 52 49 48 47 48 47 46 46 53 62 65 76 75 71 63 51 52 54 53 49 54 54 51 54 52 49 47 44 44 45 48 45 46 46 40 42 36 36 36 30 24 23 29 26 26 25 19 23 19 16 18 17 17 14 11 10 5 2 0 
53 59 66 62 63 62 63 61 64 64 59 60 57 60 53 51 48 49 51 50 51 50 52 50 50 45 44 41 38 41 49 48 51 54 57 53 52 53 52 53 52 56 52 53 52 50 47 43 42 46 48 49 46 46 44 42 41 39 39 37 34 24 26 29 29 28 24 26 26 19 17 19 15 17 12 11 6 4 3 0 
59 61 67 63 63 61 62 63 65 61 60 59 59 56 52 50 49 50 53 52 55 56 49 49 50 45 49 44 35 38 41 42 43 46 47 48 52 54 52 58 51 56 54 52 51 52 50 45 44 47 48 48 45 48 49 43 41 37 39 40 37 26 24 29 27 22 21 23 22 18 18 21 18 20 16 10 6 3 5 1 
62 64 63 64 62 64 61 61 65 59 55 57 59 59 51 53 50 51 51 51 52 53 52 53 50 47 45 41 36 33 40 41 40 43 42 47 54 57 56 56 54 54 52 52 51 52 49 46 47 49 51 49 47 45 48 43 41 38 42 40 35 23 25 26 24 22 22 20 22 15 16 15 18 19 16 14 9 3 7 4 
71 65 65 66 60 63 62 57 63 58 58 56 59 61 53 51 51 47 51 48 46 48 50 48 48 48 47 38 39 40 43 38 42 44 42 50 54 54 56 55 57 56 55 54 51 51 51 46 44 46 49 50 47 47 51 42 42 39 45 41 38 26 27 27 26 21 25 22 21 13 13 14 15 17 16 14 8 7 7 9 


