P2
80 60
162
132 139 137 139 143 147 142 147 144 148 150 149 149 148 145 143 148 152 150 148 140 143 142 137 138 137 138 135 132 134 133 135 138 142 138 137 139 134 137 143 137 139 135 131 124 129 126 122 122 123 126 126 128 125 127 123 125 124 114 112 110 111 114 114 106 104 106 106 105 102 96 100 99 97 93 86 87 89 90 89 
137 140 142 145 143 145 146 149 147 151 149 152 150 150 150 154 152 149 149 148 147 142 143 140 140 144 142 140 143 143 137 143 145 145 146 144 144 144 144 143 143 141 142 136 134 134 134 129 123 126 129 131 129 128 127 128 125 122 119 118 114 114 114 113 110 111 109 107 106 102 103 102 102 97 94 89 90 90 92 89 
142 143 139 140 146 143 145 147 147 149 152 150 148 150 149 151 149 149 150 152 145 144 143 144 137 139 146 146 146 143 142 145 146 148 148 146 145 146 146 144 149 143 144 144 144 141 142 135 129 127 129 131 133 130 131 127 128 126 119 123 120 114 112 116 112 113 110 107 107 103 103 102 102 101 96 94 90 93 90 89 
141 146 145 143 147 147 147 148 149 155 155 152 150 149 150 154 150 152 155 152 147 147 143 142 142 141 146 143 148 146 143 145 148 151 150 146 148 146 151 143 148 145 147 146 145 149 146 145 141 137 139 138 133 134 131 133 134 126 119 125 117 119 115 119 115 116 113 109 108 107 106 109 102 101 100 99 93 90 89 92 
141 146 145 145 145 148 145 148 151 152 152 154 154 150 153 150 153 153 150 152 148 146 142 143 143 143 147 145 145 143 144 149 151 154 149 148 147 148 149 147 154 148 146 149 145 144 150 145 141 140 140 139 139 140 136 136 136 126 127 126 123 121 118 120 116 120 114 110 113 110 108 110 106 106 102 100 94 92 89 94 
143 148 140 145 146 147 147 151 153 155 152 154 151 153 154 150 151 148 151 151 151 146 143 145 141 143 146 145 147 145 144 148 147 150 150 150 146 148 149 149 147 144 152 147 152 149 148 145 144 144 145 142 144 142 140 140 135 135 129 127 125 124 119 121 118 120 118 115 112 111 109 110 110 108 105 100 97 95 92 95 
142 146 143 146 147 151 146 151 155 150 151 154 151 152 150 152 151 150 155 150 152 148 147 143 144 145 145 148 144 142 143 146 149 152 149 151 148 152 151 150 149 150 149 147 146 147 147 147 144 151 145 146 148 148 145 143 141 135 129 129 130 125 124 122 123 120 121 115 117 111 109 116 113 112 109 105 101 100 96 96 
145 146 143 147 144 151 151 154 155 156 152 152 151 156 154 154 154 156 156 155 152 147 145 144 145 147 144 148 150 145 146 147 149 154 154 151 148 150 148 150 148 149 148 148 149 148 145 144 145 153 149 155 153 149 145 145 144 138 132 134 130 133 131 126 126 125 123 120 117 115 117 117 113 112 107 108 102 103 99 98 
141 143 144 147 149 149 152 151 152 159 151 152 154 153 155 154 155 159 153 157 149 149 146 145 145 144 146 147 149 147 146 146 148 150 151 147 148 147 150 146 148 148 150 147 148 145 149 148 146 152 152 155 152 149 148 146 146 139 137 137 135 135 131 130 129 131 127 124 123 121 117 117 120 113 112 109 107 103 99 98 
142 145 141 148 148 149 150 157 160 159 159 156 151 154 154 151 154 156 159 152 152 147 146 149 144 147 147 147 146 145 148 146 147 146 149 149 150 152 148 148 148 151 149 147 148 147 148 146 151 152 151 154 150 150 146 144 143 139 136 138 134 134 136 137 132 134 130 128 125 122 122 122 122 115 113 111 109 105 104 104 
139 147 144 144 148 149 155 157 159 157 157 155 154 156 155 155 158 157 157 155 151 148 148 147 144 143 148 146 145 143 144 146 148 150 148 150 154 153 151 150 148 145 152 145 146 148 148 148 147 151 153 155 151 149 145 142 143 136 137 135 134 132 129 134 132 131 127 127 127 122 119 124 122 122 119 117 112 109 105 102 
140 147 145 145 149 149 154 162 159 160 156 157 151 156 156 153 157 156 158 156 154 152 146 148 144 144 148 145 146 143 140 146 144 146 149 148 147 148 150 149 146 148 144 144 143 144 149 147 145 153 152 153 150 146 145 143 139 139 133 135 129 131 129 129 129 129 127 129 124 123 121 124 124 121 118 114 111 110 102 105 
141 144 145 144 149 149 157 156 157 152 153 156 157 156 155 154 155 154 155 154 155 147 148 146 147 147 146 146 146 145 143 144 138 149 143 150 150 149 147 144 149 148 148 146 144 145 147 144 148 150 154 151 147 147 141 140 142 137 134 131 129 131 131 130 129 124 127 126 120 119 122 124 121 119 117 112 112 111 105 107 
141 146 144 146 147 151 155 156 157 157 152 158 152 158 157 156 154 156 158 153 149 146 146 145 145 144 146 146 146 142 141 141 141 144 146 147 150 149 144 144 143 147 145 146 142 143 145 144 147 150 151 151 151 148 145 142 139 135 132 130 127 129 127 128 126 123 127 119 119 116 120 123 120 121 117 112 115 109 106 111 
143 145 144 145 149 152 152 157 159 161 156 158 157 156 156 156 156 155 156 155 152 151 148 144 143 141 145 145 149 144 142 143 145 145 146 147 149 145 143 143 144 147 147 142 143 145 145 144 147 150 150 150 147 146 143 138 135 134 131 126 127 127 123 124 122 123 123 120 116 114 119 123 120 115 114 115 113 112 108 108 
145 145 144 145 148 153 156 157 160 160 155 155 151 154 157 155 157 159 155 156 151 147 140 144 144 146 144 145 147 140 139 146 145 146 148 147 149 147 143 144 147 147 145 144 146 146 144 142 147 149 151 147 147 148 143 141 141 133 129 128 128 121 122 124 119 119 119 118 115 114 119 122 119 118 116 115 112 113 107 107 
142 144 146 147 146 150 157 156 159 158 158 155 156 152 152 152 154 153 155 154 152 147 145 140 140 140 144 145 144 141 139 144 144 145 146 149 148 148 144 142 144 145 146 142 144 144 143 143 146 147 151 147 147 146 143 139 137 135 133 126 126 125 123 120 121 121 120 116 115 116 117 119 117 117 117 116 111 110 106 104 
138 143 140 144 148 149 152 156 156 157 151 153 152 151 154 153 153 156 156 152 149 148 140 140 138 138 142 142 144 138 139 140 138 145 143 144 146 143 145 142 141 143 145 143 143 139 141 140 147 146 144 148 141 143 141 139 134 132 128 124 129 122 123 121 123 118 119 120 111 115 112 118 118 117 115 113 111 109 107 104 
136 141 137 139 146 148 151 157 156 154 150 151 149 150 150 150 152 149 152 151 150 142 139 143 140 140 138 139 138 138 134 136 138 141 140 143 144 143 144 142 143 143 141 141 137 139 140 140 147 148 144 145 144 143 138 135 134 131 128 126 125 124 123 121 118 121 117 117 116 116 116 118 120 117 115 114 108 108 103 103 
134 140 138 139 143 148 153 154 154 153 150 150 151 154 150 151 149 148 150 146 147 140 140 139 137 137 136 139 137 138 132 138 141 142 143 144 144 144 139 143 142 144 142 137 141 138 138 135 146 146 146 142 142 142 136 134 132 127 127 125 124 123 121 119 118 120 118 117 112 115 114 119 122 118 116 111 112 109 105 107 
133 136 134 137 141 148 151 151 152 154 148 149 147 147 148 147 148 145 141 143 142 138 135 133 134 132 135 133 136 132 134 136 134 138 142 140 143 139 138 138 136 135 140 138 140 139 137 133 142 144 143 141 140 140 133 131 128 125 124 123 120 121 119 117 117 114 117 116 113 111 116 117 117 117 117 112 111 106 103 104 
130 135 128 137 142 147 144 146 147 144 148 144 144 142 146 146 146 147 140 141 138 138 136 131 131 130 131 134 130 132 127 127 131 134 138 137 141 136 136 136 137 133 134 134 134 134 133 134 141 140 141 142 137 137 133 136 127 130 127 125 122 121 118 115 119 115 116 114 114 109 115 117 117 113 114 114 109 107 103 99 
132 135 130 134 139 144 144 147 148 149 147 144 140 144 141 141 146 143 140 140 137 137 132 132 129 128 128 131 128 129 129 129 128 133 132 132 136 134 131 132 131 131 128 130 135 133 134 132 142 140 138 142 140 139 132 133 129 127 126 124 121 117 119 115 119 116 118 114 111 113 114 119 115 116 108 111 105 107 100 105 
128 132 127 130 137 141 143 146 144 142 141 142 139 141 141 141 141 141 140 135 132 129 129 128 125 122 127 126 126 125 124 126 125 129 128 128 128 126 127 123 123 123 126 122 125 129 128 130 140 138 139 136 134 135 134 130 128 125 121 119 115 115 119 115 117 116 113 117 113 112 113 116 114 108 108 106 105 107 101 99 
128 128 126 130 134 138 141 145 141 140 139 138 140 139 138 138 136 138 135 135 133 127 125 126 122 119 122 125 121 121 122 125 121 125 125 122 121 126 120 122 125 123 122 118 119 121 124 125 134 137 133 130 132 133 132 127 128 118 116 119 118 117 117 113 116 117 115 112 111 111 113 117 115 109 110 104 103 104 100 102 
121 125 124 126 131 132 135 141 136 136 136 136 134 134 135 137 132 135 133 132 129 126 120 117 121 121 122 121 123 117 112 112 113 112 112 110 116 114 116 117 119 118 119 113 113 117 118 124 132 135 133 132 130 130 126 128 124 120 116 115 114 117 114 116 113 116 115 112 111 111 112 112 113 107 105 107 100 99 98 92 
118 122 120 119 126 127 129 128 133 129 130 129 132 135 132 132 133 128 131 128 125 122 118 116 120 124 136 113 107 106 99 102 101 102 94 99 102 105 101 102 103 104 104 102 104 114 114 118 123 130 127 124 124 127 123 123 120 117 116 114 112 109 113 112 114 113 112 111 110 109 109 109 111 106 105 98 97 100 99 94 
117 116 116 118 115 114 111 113 113 113 111 117 118 116 118 117 122 127 129 128 127 126 124 120 120 123 123 106 99 96 91 97 96 95 94 90 93 91 94 90 94 95 98 91 92 93 95 101 113 127 126 124 122 126 119 118 114 113 114 113 107 107 108 112 110 110 109 109 110 107 108 110 108 106 105 101 98 98 94 91 
117 116 110 114 112 107 105 99 99 99 99 102 100 103 98 99 101 104 109 114 122 122 121 121 121 117 105 96 97 97 88 93 85 92 93 87 87 88 87 85 88 91 92 85 86 87 92 91 106 120 121 119 121 120 117 112 113 104 105 108 103 106 107 109 108 108 104 106 106 106 104 107 103 102 99 99 95 97 88 89 
110 114 108 108 106 101 96 95 94 93 97 94 94 96 94 95 93 97 96 95 97 111 115 116 117 112 99 95 94 93 88 85 84 92 88 85 86 85 83 84 84 85 85 79 79 80 89 91 106 119 120 117 117 117 116 109 109 107 103 103 99 106 107 106 106 106 103 102 102 104 103 104 102 98 99 97 94 95 95 87 
109 107 106 102 99 95 94 92 90 88 91 88 88 88 89 86 86 87 86 85 86 96 101 108 108 101 94 90 94 90 85 83 84 87 88 82 85 78 84 82 78 79 81 74 73 78 85 99 110 117 115 117 117 116 115 110 107 102 102 97 97 103 104 106 102 101 99 97 98 101 98 99 101 94 95 93 93 95 89 89 
102 106 101 99 97 91 86 86 81 83 80 86 84 83 78 81 81 81 79 79 81 85 100 105 104 96 87 85 89 90 84 81 78 84 83 79 82 86 79 80 80 79 82 75 76 81 83 111 99 103 103 104 105 110 111 108 106 101 102 97 101 101 103 104 100 97 98 99 96 94 96 100 95 94 92 86 86 93 85 86 
102 100 96 95 85 81 80 77 77 76 75 77 78 81 77 75 72 76 73 73 71 77 96 104 99 89 86 85 85 80 82 79 80 80 82 78 79 78 79 80 75 79 76 69 71 75 78 98 88 82 83 85 84 94 96 100 105 106 100 102 97 97 98 99 97 96 96 94 91 90 92 93 94 89 86 87 84 89 81 81 
92 98 95 88 81 80 74 75 72 70 69 69 72 70 72 72 70 70 67 67 73 76 89 97 95 83 78 82 84 82 78 72 73 77 78 75 76 74 71 73 72 72 73 65 66 70 70 78 74 66 71 69 71 83 86 90 99 101 102 99 95 91 96 93 93 89 91 92 86 86 85 88 86 84 83 78 82 83 78 78 
93 90 90 87 81 79 70 68 66 69 67 67 69 68 67 67 64 63 61 62 67 74 89 92 91 81 72 76 76 82 78 71 67 73 73 70 67 66 69 69 72 70 67 62 67 66 68 68 62 58 56 60 62 79 85 96 96 98 94 91 91 91 90 90 88 87 85 85 87 83 82 83 85 79 79 75 75 82 75 76 
92 89 88 84 81 73 71 70 68 64 69 68 66 64 64 63 59 60 59 60 63 68 85 89 87 76 71 73 72 77 71 63 67 70 71 67 68 62 65 68 66 65 68 62 64 62 65 63 56 49 47 50 54 74 89 93 97 92 91 89 90 87 89 85 84 82 83 80 79 77 76 79 79 76 72 70 68 73 75 71 
89 88 84 76 84 71 69 63 65 64 61 62 63 63 58 59 55 57 56 57 60 64 78 80 77 72 73 72 73 75 68 68 68 68 64 63 61 59 62 64 60 63 62 58 64 59 60 62 51 43 41 44 47 69 88 89 92 89 90 87 87 83 85 84 84 80 75 76 76 74 75 73 75 70 68 66 68 68 66 65 
88 87 81 78 76 68 67 64 59 61 60 58 57 59 60 56 52 51 51 52 55 60 72 78 76 69 70 70 69 67 66 68 66 63 59 61 60 57 60 57 57 56 58 54 57 59 59 57 46 33 36 34 39 55 80 88 91 86 86 86 85 83 80 80 78 76 73 74 75 71 77 69 72 69 63 61 58 62 63 62 
83 82 77 77 71 66 64 62 62 59 57 56 53 56 53 49 45 45 47 53 55 59 70 73 75 64 66 70 69 65 65 68 66 68 61 59 55 51 57 52 54 59 55 55 53 53 55 49 39 28 28 27 32 42 65 76 87 83 82 83 80 82 82 79 78 73 69 68 69 66 73 67 67 66 59 57 62 61 60 57 
80 81 79 72 68 63 61 57 56 54 57 56 52 52 52 49 43 42 47 51 49 52 64 68 68 68 66 69 69 67 66 63 65 64 57 54 53 52 57 51 51 52 48 50 50 50 51 46 38 27 22 18 21 31 38 47 70 78 74 83 77 80 78 75 72 67 65 67 67 68 68 69 65 63 60 56 55 60 56 58 
75 81 74 66 68 62 57 57 54 54 54 54 48 50 47 46 41 39 45 45 46 49 64 65 68 61 66 66 66 64 60 67 60 61 54 53 51 51 50 50 47 51 50 47 49 50 47 39 41 27 24 19 16 21 26 30 46 73 74 73 79 77 74 73 67 65 63 65 64 65 65 68 64 60 56 52 53 54 54 54 
75 77 67 67 63 61 55 53 57 53 52 50 44 48 48 43 41 43 45 46 44 53 59 60 62 53 57 61 63 58 57 64 56 57 52 49 50 47 50 48 51 49 50 45 45 49 46 37 35 31 32 18 14 14 20 20 35 60 67 67 70 71 70 68 65 63 57 65 62 65 65 63 66 57 53 49 48 49 48 50 
70 72 68 64 62 58 59 52 49 50 47 52 45 41 43 42 38 39 44 43 45 50 57 59 56 54 56 57 58 58 57 63 59 54 48 49 50 47 42 45 47 47 46 41 45 46 47 39 33 31 25 12 12 12 14 16 26 44 62 69 70 69 67 65 61 57 57 60 60 60 62 61 59 52 52 48 47 48 46 43 
69 71 67 61 63 56 55 52 50 49 46 45 45 42 42 41 36 39 41 44 43 48 51 51 51 51 55 54 56 56 52 59 52 52 45 47 48 45 45 44 43 45 46 43 45 46 44 38 40 33 21 13 8 11 13 15 18 30 50 61 64 63 63 60 61 55 59 59 58 57 61 57 56 49 50 47 48 49 45 43 
72 70 61 59 61 58 55 49 51 46 45 43 42 43 40 36 35 34 41 40 41 41 45 44 45 46 52 52 55 52 50 57 52 49 48 45 45 44 43 44 43 44 43 48 45 45 41 32 38 35 21 11 7 5 5 9 9 16 37 57 58 61 62 60 57 54 54 53 59 56 53 56 51 49 48 43 43 44 37 41 
65 64 64 56 57 57 52 50 48 47 42 42 40 41 39 35 36 35 37 38 36 35 41 37 44 45 48 50 53 53 47 54 48 51 44 44 47 41 41 39 40 39 43 45 46 45 39 28 35 34 21 9 6 3 7 7 5 8 24 48 52 58 58 55 49 50 50 51 52 55 52 55 51 45 45 37 39 40 39 38 
66 68 59 54 57 53 53 49 43 43 46 42 40 40 41 32 33 32 34 32 29 33 33 35 39 45 44 48 51 50 49 52 49 44 39 38 42 38 39 40 40 41 43 42 42 44 36 28 35 33 23 10 4 3 5 4 8 8 16 39 49 55 53 52 50 50 50 48 48 48 51 48 50 46 38 37 39 41 36 37 
60 63 55 56 55 54 53 48 48 45 43 43 41 39 41 35 33 31 32 28 27 29 30 30 36 44 49 49 47 47 45 49 43 39 36 42 36 41 36 41 39 41 40 41 41 40 30 25 32 32 28 12 7 3 1 2 7 6 13 31 45 53 51 48 49 46 48 44 42 41 45 49 47 42 40 39 36 36 36 30 
59 65 53 58 56 51 53 44 45 49 45 40 39 37 38 32 31 31 33 28 26 23 27 26 33 41 47 47 49 49 46 46 41 40 39 38 36 38 38 36 37 37 34 37 36 39 29 18 29 29 23 12 6 5 3 5 7 6 9 18 40 48 50 47 47 45 44 44 37 41 40 42 40 36 35 35 30 33 32 27 
60 61 55 56 55 54 50 50 46 47 42 39 37 34 36 33 29 32 31 29 29 24 26 25 35 41 47 44 45 48 46 44 39 34 37 35 36 37 36 35 37 35 37 36 34 35 24 19 19 23 24 13 10 5 0 3 5 2 2 12 32 47 45 46 43 43 43 41 36 36 38 41 44 37 34 30 33 33 29 28 
59 62 49 57 54 51 49 50 47 43 42 42 39 34 38 34 33 36 34 33 30 28 29 30 32 39 43 45 46 42 45 41 34 32 35 34 36 35 36 32 36 33 33 34 36 33 26 18 20 16 16 13 11 6 3 5 4 5 4 10 23 39 45 39 41 38 38 36 33 35 37 35 36 34 29 28 30 31 30 29 
58 65 53 57 55 55 49 50 48 46 41 38 37 39 37 38 34 38 39 35 38 35 34 35 37 39 37 43 44 43 40 38 35 34 37 33 35 34 32 31 33 30 32 32 28 31 25 18 21 14 12 10 11 7 5 7 6 6 5 7 12 33 39 40 38 40 39 36 34 34 36 39 35 32 32 31 27 32 26 23 
60 62 56 58 59 52 50 49 49 46 43 40 38 42 40 40 39 42 40 38 40 39 38 37 34 37 36 39 41 40 37 38 35 35 30 35 30 33 33 32 31 32 31 28 27 29 27 20 20 15 17 11 12 10 10 9 7 8 7 7 14 29 35 37 39 37 34 34 33 32 33 32 31 30 30 26 27 27 25 19 
57 63 58 59 58 57 48 50 46 49 42 45 41 43 41 44 43 42 44 41 42 37 36 35 36 34 32 36 39 38 31 36 30 33 34 33 33 32 30 28 27 25 31 25 30 26 23 23 24 17 21 15 17 13 13 13 10 9 9 9 14 22 31 38 41 37 34 36 35 35 33 32 30 30 29 25 23 21 18 20 
65 63 61 59 58 56 53 50 50 47 47 43 44 43 43 45 43 42 44 45 38 39 39 36 35 35 33 34 36 36 30 33 28 29 32 30 30 30 29 26 25 26 27 27 26 27 26 30 29 22 23 21 20 17 18 16 15 11 12 18 22 27 33 35 39 40 35 37 34 35 32 33 28 26 24 22 19 19 16 18 
63 63 62 63 58 55 54 50 48 48 43 44 44 42 44 45 43 46 45 46 41 41 37 36 34 33 35 33 36 33 28 33 29 30 30 32 33 31 27 23 28 29 29 27 29 26 28 34 32 27 28 22 22 21 24 25 21 15 18 20 24 30 31 34 36 35 33 36 31 35 30 35 31 22 19 20 20 20 19 18 
60 65 61 62 61 56 53 53 49 47 47 47 43 49 43 45 44 49 49 48 45 40 38 33 34 35 36 31 34 31 30 31 31 29 28 30 32 31 27 27 23 24 30 26 25 22 26 34 33 28 23 30 22 22 25 22 17 19 19 24 26 31 32 31 33 31 30 32 31 32 31 31 28 23 17 17 16 16 15 15 
68 66 61 67 62 63 57 51 48 48 48 46 43 48 45 48 45 50 50 49 45 42 38 36 33 39 37 41 34 34 31 30 29 29 33 31 31 33 27 29 27 28 25 26 25 27 27 36 35 28 27 27 24 21 27 20 22 18 22 25 30 30 30 29 36 35 33 33 27 25 26 27 29 25 20 14 13 21 17 17 
67 70 61 67 62 64 59 53 52 51 50 48 47 48 48 49 47 51 50 51 48 39 39 38 35 35 36 39 38 37 36 35 31 33 37 34 33 33 32 31 29 28 30 27 26 25 31 36 35 30 27 26 26 24 26 19 21 22 28 27 31 34 34 33 31 31 30 33 28 24 23 25 24 22 17 15 14 17 18 18 
75 70 66 71 62 63 63 54 49 52 51 48 47 49 46 52 46 52 51 47 45 40 39 36 35 33 36 37 42 38 35 39 39 32 35 37 38 34 32 35 30 35 36 34 33 32 35 40 37 29 26 23 27 29 28 27 27 27 28 35 38 34 33 33 36 34 35 33 30 25 22 27 22 21 17 18 11 17 15 14 


