P2
80 60
156
137 138 132 130 129 133 132 143 142 146 146 150 150 148 146 144 145 145 147 142 146 144 140 138 140 136 133 135 135 137 139 137 139 138 138 139 135 137 135 136 138 137 133 135 130 133 131 126 121 118 123 127 127 126 125 120 125 121 119 118 113 111 110 108 104 108 108 102 103 101 95 94 86 90 86 88 84 82 84 85 
141 138 137 133 135 131 133 140 141 146 149 149 149 148 148 151 147 146 147 147 146 145 147 143 142 142 141 141 147 144 143 143 145 149 141 142 141 140 142 140 141 142 141 141 144 143 135 132 127 123 128 130 132 130 129 130 126 125 123 118 112 111 110 109 111 109 110 105 102 103 96 94 93 92 91 92 88 85 88 79 
143 138 138 134 135 136 137 140 146 148 148 150 147 149 147 149 150 146 148 150 149 147 146 146 141 142 144 143 145 145 145 144 146 149 144 144 145 145 144 142 144 144 146 148 149 151 145 140 134 130 130 134 135 135 133 132 129 127 123 119 115 113 111 112 111 110 111 113 106 104 102 100 94 97 95 94 91 88 88 86 
141 135 140 137 138 138 137 148 148 147 147 149 147 147 147 150 147 146 145 148 146 145 145 144 146 142 141 142 148 146 149 146 143 151 142 146 147 144 141 144 147 145 148 152 153 151 146 146 140 139 137 138 138 134 138 131 130 127 124 119 117 114 115 114 112 111 110 110 107 106 106 101 101 97 98 100 93 93 92 94 
139 141 135 135 131 138 145 145 144 138 140 138 139 140 139 142 141 142 145 149 147 141 143 146 143 141 139 144 144 147 154 148 150 152 148 143 144 143 144 145 143 148 149 151 150 156 148 152 142 142 140 142 142 139 140 134 136 131 130 125 119 116 115 116 114 115 116 110 111 111 107 105 105 102 103 99 94 90 95 90 
140 135 135 139 136 137 140 140 136 132 130 130 131 132 129 126 130 131 132 138 141 140 141 141 144 144 141 142 143 145 148 146 149 150 144 149 145 146 148 146 146 147 147 149 152 153 151 150 141 143 141 146 144 141 142 139 134 130 128 123 123 122 118 118 115 118 116 115 107 110 106 105 105 104 102 99 100 90 96 96 
140 135 133 138 131 126 133 132 130 125 120 123 123 123 123 120 115 113 116 118 122 126 129 134 136 137 140 138 139 143 146 143 147 144 140 141 143 148 147 142 144 148 148 150 152 151 150 144 142 143 148 148 149 145 143 137 141 134 131 128 127 124 121 119 119 115 118 112 110 111 106 108 106 107 102 105 99 94 97 93 
139 135 137 134 127 127 125 124 122 119 114 122 117 115 115 116 112 112 112 112 116 115 118 116 118 122 127 135 138 139 141 143 146 146 145 142 144 147 143 144 146 141 150 150 151 152 149 146 141 150 152 152 151 151 151 142 137 140 134 132 129 121 125 120 120 119 122 118 115 114 110 109 106 107 109 104 100 96 93 92 
139 133 134 135 126 124 119 121 118 120 114 115 114 109 111 109 108 108 109 110 110 111 112 111 115 113 114 119 118 122 129 130 137 140 141 140 144 141 141 142 147 142 146 148 154 153 148 144 146 149 151 149 152 150 147 139 141 140 138 133 132 127 128 126 127 125 134 124 119 116 114 111 109 107 107 105 99 98 100 94 
137 136 134 134 127 120 117 113 116 111 111 110 111 109 106 111 110 110 108 110 112 108 111 110 111 110 112 114 113 110 115 117 118 121 126 130 137 138 139 141 144 142 144 146 150 150 150 149 142 148 150 148 152 152 144 141 140 142 137 131 130 128 127 128 126 127 129 125 122 122 113 118 116 115 116 108 101 101 102 99 
135 133 135 133 128 121 120 116 111 115 111 109 105 105 110 105 104 107 107 106 107 108 108 111 109 109 107 109 108 107 110 107 110 114 116 115 118 121 123 130 137 140 144 148 150 149 146 148 145 149 153 152 151 150 143 140 137 138 137 131 128 128 126 128 126 124 127 127 126 122 117 120 116 118 114 110 108 103 107 99 
135 135 131 127 126 125 120 116 110 111 108 112 106 106 111 108 109 106 103 104 110 112 110 107 110 108 106 109 105 107 111 107 109 111 109 112 109 110 113 117 118 122 128 131 140 146 147 147 142 148 153 151 151 149 143 137 140 138 137 133 127 122 124 124 125 124 124 124 120 121 116 118 116 117 114 113 109 106 108 98 
135 133 131 129 125 125 122 114 114 110 111 107 108 110 109 108 106 105 104 108 109 108 106 106 108 108 105 107 105 106 106 104 104 105 104 106 108 106 109 111 111 111 115 118 122 131 140 144 144 150 149 152 150 148 145 135 139 138 134 130 129 123 125 123 121 120 120 120 118 116 114 117 114 114 114 113 108 103 107 102 
139 131 128 128 130 133 128 117 113 110 109 109 109 105 110 108 104 104 104 107 109 107 107 109 108 104 104 107 103 108 107 103 105 103 100 100 103 103 103 107 106 110 111 113 117 122 138 143 144 149 151 152 151 151 143 137 137 135 132 126 125 121 122 121 123 119 119 117 115 114 113 113 113 116 114 113 106 103 104 97 
138 130 131 130 136 143 141 128 113 110 106 108 105 103 107 105 104 104 105 108 101 105 106 102 106 104 102 104 102 104 107 103 103 103 102 100 102 102 101 100 104 103 108 108 115 115 135 138 143 146 153 152 150 152 142 135 132 133 130 124 123 120 118 118 120 120 118 114 113 110 110 112 111 110 112 106 105 104 105 103 
132 131 131 133 141 147 150 133 116 112 108 104 105 104 107 108 105 106 103 109 105 105 103 101 103 102 99 101 104 102 101 100 102 104 100 102 100 96 99 99 103 100 107 108 111 119 134 140 140 146 147 148 145 148 144 136 133 132 128 120 123 119 119 116 118 117 115 114 112 111 110 110 111 112 111 107 109 102 103 101 
135 133 131 136 142 149 148 137 122 108 106 105 106 103 102 102 103 104 103 105 104 103 100 102 100 100 100 101 101 101 103 100 102 100 102 100 100 101 100 102 101 100 104 105 109 116 134 139 142 145 147 149 145 147 139 136 132 134 130 125 119 118 119 114 115 115 113 112 111 109 108 110 110 113 110 108 105 100 100 99 
131 131 135 132 140 142 145 134 113 106 101 101 102 101 105 101 105 104 101 105 105 104 96 98 99 101 99 102 98 98 101 99 101 98 99 99 101 97 99 101 100 101 105 106 109 116 134 139 143 145 146 144 146 144 140 134 136 131 126 123 122 116 115 116 113 113 115 113 110 109 106 109 109 116 109 110 103 103 101 100 
135 130 135 130 131 132 136 120 114 105 103 103 103 100 100 103 99 100 100 106 103 102 103 97 101 102 100 100 95 99 101 99 99 97 98 98 98 97 101 101 99 100 104 104 106 115 132 136 140 144 147 143 143 145 137 131 131 127 124 121 120 116 115 112 114 113 114 111 112 110 111 107 110 112 108 110 105 101 101 101 
129 131 133 122 117 116 117 110 104 106 101 103 100 100 100 101 102 100 102 100 99 103 101 101 105 99 99 96 97 97 98 95 97 97 97 99 100 99 97 101 101 98 101 102 106 119 131 137 142 145 144 143 144 137 133 131 129 125 124 122 119 113 113 113 113 113 112 106 110 106 106 107 109 110 108 107 101 101 101 99 
130 128 125 115 109 106 111 104 107 104 98 100 100 98 99 100 95 98 97 98 98 102 103 102 104 103 107 107 99 98 95 93 93 95 98 96 99 98 98 102 103 99 101 101 109 117 133 135 136 141 141 139 138 138 132 132 129 126 120 118 115 114 110 111 109 109 109 108 109 104 103 106 110 110 108 104 103 98 102 100 
131 124 118 108 106 108 110 101 102 98 96 96 98 97 97 100 98 95 96 96 96 99 101 104 108 108 113 116 105 100 95 89 93 93 95 94 97 98 95 98 96 98 100 99 110 118 130 135 137 142 140 138 136 137 132 131 132 127 123 120 117 112 113 110 110 107 111 108 106 105 107 106 106 107 104 105 99 99 98 96 
123 118 110 106 102 106 108 102 98 96 97 95 97 96 98 96 95 95 94 98 96 96 101 101 103 98 105 111 108 102 95 88 92 95 95 91 99 93 89 91 88 88 92 97 102 118 127 131 135 140 135 136 137 135 130 129 130 127 122 120 114 113 113 110 110 111 110 108 107 105 106 106 108 106 109 103 100 100 99 97 
120 106 105 105 97 99 99 97 100 98 96 96 96 94 100 98 93 94 94 94 97 94 91 93 94 90 90 96 99 100 95 94 92 91 89 86 85 87 82 84 83 81 81 86 92 113 125 129 134 136 134 134 131 132 129 124 123 117 119 112 111 112 111 109 109 112 106 108 106 106 103 106 105 104 104 98 100 93 97 93 
113 103 102 100 94 94 97 92 95 96 96 97 94 94 91 93 92 90 92 88 93 90 88 88 91 85 86 91 92 91 98 95 89 87 86 79 77 82 84 81 85 82 80 84 90 105 120 127 133 134 132 131 131 130 128 126 119 114 110 112 109 107 109 109 110 112 109 108 109 105 108 103 107 104 102 102 96 94 94 95 
110 103 104 97 92 92 94 95 95 96 94 94 96 92 95 96 93 88 91 89 88 90 84 85 85 82 82 88 87 90 94 92 85 85 77 76 82 81 80 83 84 83 81 83 88 104 116 121 129 134 128 130 128 127 128 122 118 112 107 110 104 108 107 107 107 108 108 107 105 107 107 104 104 104 103 99 95 93 94 94 
108 99 99 97 91 91 95 95 91 94 92 96 94 95 93 93 91 92 92 87 91 89 85 84 83 82 87 87 89 92 87 86 82 83 77 80 85 82 82 84 85 81 83 86 91 106 111 120 123 128 123 125 126 129 122 119 117 109 107 108 105 104 105 106 105 107 108 108 106 106 103 102 103 104 98 96 93 92 93 94 
102 100 97 95 92 89 93 91 89 92 92 93 92 94 91 92 90 91 88 89 88 85 82 81 86 89 85 86 84 87 83 79 78 82 77 76 78 77 80 79 82 80 85 83 86 110 112 117 122 122 124 121 122 123 120 118 108 110 108 105 99 103 103 102 104 105 102 103 103 103 100 101 101 101 92 95 93 88 88 88 
99 97 93 93 96 91 94 89 91 92 90 94 94 92 91 89 87 92 89 91 86 86 85 85 98 104 83 81 78 82 74 71 75 75 76 77 78 80 78 81 82 80 82 81 85 108 110 116 120 121 122 117 119 123 114 112 105 108 104 102 99 101 102 101 103 104 104 101 99 102 98 96 97 97 91 92 92 86 86 85 
98 96 94 92 87 89 93 90 91 93 90 92 93 92 94 88 87 90 86 89 83 86 84 95 110 104 81 77 81 78 73 67 71 70 72 76 80 80 78 79 79 80 78 79 84 105 110 116 117 118 120 116 114 118 114 107 101 105 103 98 94 100 101 99 100 100 100 98 97 101 100 97 96 96 93 90 89 89 86 86 
93 95 94 90 88 91 92 92 90 94 90 91 88 89 90 90 88 86 87 86 86 81 89 101 104 97 82 78 77 78 78 67 70 76 77 78 80 80 80 79 78 79 77 75 82 107 103 115 113 117 115 115 117 116 111 106 103 103 99 97 94 96 97 96 96 96 96 94 95 97 95 91 90 91 89 88 88 87 86 84 
94 92 92 93 93 89 90 91 89 91 90 88 88 86 92 86 86 87 87 88 86 87 97 101 103 94 75 78 74 74 74 71 72 76 76 81 81 82 80 79 80 77 77 76 79 98 98 102 93 99 102 105 107 111 108 103 102 102 97 93 89 92 95 97 93 92 92 89 89 93 93 91 90 87 89 85 85 82 83 80 
90 92 88 90 86 89 91 90 90 91 89 91 88 87 88 87 87 83 82 84 82 81 96 98 100 91 79 75 74 73 74 71 69 74 74 77 80 81 79 77 80 77 79 77 81 96 93 93 79 78 78 80 85 94 93 95 103 102 98 97 91 93 91 90 88 87 90 87 86 87 86 84 85 82 79 81 77 77 83 75 
90 89 90 91 84 85 87 86 87 88 86 88 92 89 87 85 84 82 80 82 82 82 92 95 97 87 75 70 75 73 71 68 69 74 78 76 79 80 81 77 81 78 77 75 80 89 88 87 71 66 67 68 71 77 77 82 98 102 99 95 89 87 89 89 86 88 82 84 86 83 85 79 79 80 77 74 73 72 74 75 
87 85 86 88 85 86 84 82 85 89 92 89 87 88 87 84 82 83 82 80 80 80 89 93 94 87 75 72 75 74 73 70 73 73 71 73 75 76 76 74 75 76 76 72 78 88 79 76 64 58 56 62 61 77 86 93 95 95 90 91 86 83 87 84 79 82 83 81 78 77 77 77 74 73 66 71 67 69 72 68 
84 83 82 87 88 84 85 87 85 89 88 90 87 88 87 82 83 81 79 82 78 80 85 93 89 81 66 73 67 71 66 65 70 75 71 72 75 75 72 71 72 75 72 74 76 79 78 71 57 47 49 52 55 76 85 91 93 92 89 83 78 81 83 78 75 79 76 74 70 73 72 70 71 69 61 66 63 62 67 65 
86 85 86 84 85 82 86 83 85 88 87 90 88 86 86 83 80 81 81 79 77 77 78 82 83 74 69 67 68 72 67 68 70 68 72 73 75 71 70 71 71 70 74 73 74 77 69 64 50 39 41 39 49 64 81 89 90 91 82 83 78 77 79 75 73 74 70 70 68 71 65 66 67 66 59 61 59 60 60 65 
85 82 85 86 85 84 88 85 88 87 87 83 86 86 88 82 81 83 79 78 76 75 77 78 82 74 71 67 70 75 77 76 78 73 70 75 74 72 66 71 69 71 70 71 74 71 62 56 42 30 32 33 43 52 77 85 88 89 80 81 81 76 78 72 72 71 72 71 65 67 66 62 59 62 57 55 57 53 58 58 
84 82 86 84 83 86 86 81 84 83 83 86 85 82 82 80 80 80 79 80 78 77 74 75 78 76 73 77 74 77 78 76 76 76 73 72 74 69 68 69 70 66 69 69 69 71 57 55 33 27 26 27 34 41 65 72 83 80 81 79 76 75 72 75 66 64 67 67 62 64 63 60 61 57 54 55 53 58 55 56 
80 82 82 84 85 83 84 83 84 85 86 84 85 81 81 80 78 77 77 79 77 76 76 76 76 74 75 75 74 75 76 72 76 76 75 73 72 70 71 70 71 68 70 71 70 65 52 49 31 22 20 17 23 29 40 43 64 77 77 74 76 73 73 71 64 63 61 62 64 64 59 58 57 52 50 50 47 53 51 56 
83 80 82 81 85 84 86 80 82 82 82 82 82 82 78 77 78 76 75 75 78 75 77 70 74 74 72 73 74 75 74 73 76 73 72 72 69 67 69 68 69 68 68 69 68 61 49 41 32 20 20 15 14 19 27 25 46 70 72 72 74 70 67 64 60 59 59 59 60 61 58 56 56 49 50 49 43 50 49 45 
79 80 87 83 84 81 83 78 81 80 83 80 85 78 78 77 76 75 77 74 77 76 73 71 73 70 67 72 72 72 74 73 76 73 73 72 70 67 67 68 65 67 68 66 53 44 42 38 28 32 27 17 11 14 16 18 30 59 65 64 67 66 61 58 56 56 52 57 57 61 57 55 54 49 47 47 44 46 44 44 
81 82 86 83 81 82 82 81 81 80 79 81 80 78 77 78 75 76 77 76 79 78 73 72 72 68 71 71 73 73 73 71 74 74 72 72 73 70 69 68 67 65 68 65 35 20 25 26 28 29 25 18 12 14 15 15 20 42 59 65 65 62 62 56 53 50 52 55 55 59 56 52 52 51 43 45 45 41 42 39 
80 83 83 81 82 82 80 80 80 79 81 81 77 77 79 76 78 78 76 76 76 74 73 69 70 68 72 69 72 73 73 71 74 70 70 69 72 66 66 65 65 64 65 62 30 22 23 22 33 29 16 11 11 6 11 14 17 24 47 59 57 59 55 55 50 50 52 51 52 55 53 48 47 45 42 44 43 37 41 41 
82 79 83 82 80 78 80 81 77 80 78 82 77 77 77 77 79 75 77 78 74 74 72 71 70 72 71 72 72 72 74 71 73 72 72 73 73 69 67 67 66 67 66 59 32 21 21 22 35 34 21 9 4 1 5 7 8 14 37 53 53 53 55 51 50 46 48 52 52 53 52 51 47 44 43 39 42 37 40 38 
74 76 80 85 81 82 80 78 78 81 78 79 77 77 79 80 78 77 78 77 77 74 74 70 71 68 69 72 72 74 71 73 72 74 75 72 70 69 67 67 68 68 67 63 32 22 21 20 34 34 21 9 6 3 4 7 6 9 24 46 50 50 53 49 44 46 47 50 46 51 47 45 45 43 42 40 36 34 36 32 
73 81 83 85 84 83 79 79 79 80 78 80 78 77 78 79 78 80 77 79 77 75 74 74 75 73 71 73 74 76 73 74 76 75 74 72 74 74 70 70 72 69 68 64 34 22 22 22 31 31 19 10 6 3 1 3 3 6 16 38 42 52 50 48 42 42 46 48 45 44 46 44 44 38 40 37 35 36 36 28 
75 78 82 82 83 82 79 81 78 77 79 79 78 76 81 80 82 82 78 79 78 75 71 69 73 72 72 74 72 71 74 71 74 74 72 72 71 65 69 70 70 66 71 67 44 25 21 22 30 31 21 11 8 2 4 5 4 4 9 27 47 49 49 46 42 39 44 44 45 42 41 40 41 34 34 39 32 31 30 30 
74 76 80 82 79 82 81 78 79 83 80 81 78 78 77 80 76 78 79 79 76 73 74 70 72 69 70 75 75 72 74 74 72 71 73 71 72 70 69 66 71 64 67 64 40 26 21 19 27 26 23 14 8 3 4 0 4 5 6 15 39 46 44 38 40 39 42 41 37 39 37 37 38 33 32 31 31 30 29 27 
74 73 77 82 80 77 81 78 80 78 76 80 79 75 80 76 76 76 77 72 74 73 73 69 73 70 71 72 72 71 70 72 71 70 70 71 70 67 69 63 65 67 68 64 39 22 20 17 18 24 23 16 11 2 2 2 4 5 4 8 31 37 44 40 40 40 37 37 33 33 31 36 35 31 32 33 33 29 28 29 
74 75 77 83 82 77 79 80 77 80 78 79 78 75 77 78 75 76 73 73 72 72 69 71 71 67 70 72 70 72 74 67 71 70 68 68 70 70 69 68 67 65 68 61 38 21 22 21 15 15 17 16 9 0 1 3 4 4 6 7 19 34 34 35 35 35 38 36 34 33 27 26 31 27 25 27 28 26 29 25 
73 74 79 80 79 78 75 75 76 78 76 80 81 75 78 75 76 72 71 70 73 71 69 67 67 68 66 69 67 68 68 69 71 67 71 69 71 68 69 67 64 63 63 62 36 28 21 20 18 13 11 12 10 7 5 1 4 8 6 9 11 29 36 32 37 36 38 34 32 33 27 27 28 24 25 30 28 23 25 24 
69 75 79 83 79 80 75 74 78 77 75 78 75 73 73 73 73 71 69 72 69 69 68 66 66 68 64 69 64 66 70 66 68 69 67 68 70 66 66 64 64 63 64 62 42 32 26 19 13 13 14 16 10 12 14 7 4 7 8 10 10 21 32 32 33 31 35 37 32 32 30 27 28 25 23 24 24 17 26 23 
74 76 81 79 79 77 74 75 76 78 75 76 74 74 71 72 68 68 68 71 68 67 66 65 66 64 63 65 63 63 67 68 67 68 64 69 68 65 67 65 66 64 63 62 42 38 33 31 22 18 20 18 17 16 15 16 11 9 8 14 14 21 25 28 34 35 37 36 34 32 29 28 23 25 21 23 20 17 19 18 
73 78 83 81 77 74 73 74 74 75 75 77 74 71 71 71 66 65 68 67 68 66 65 62 66 63 61 63 64 63 64 66 65 64 68 65 70 67 68 64 64 63 63 59 46 42 37 33 29 23 24 23 26 21 17 17 14 16 16 14 17 23 30 28 33 32 35 32 34 30 30 26 27 22 18 21 20 16 15 19 
76 81 84 79 79 75 75 70 76 74 72 72 74 74 69 69 66 66 67 69 68 64 67 64 64 61 62 65 62 63 61 63 68 65 65 68 69 69 65 65 63 67 63 61 50 45 41 39 36 25 25 26 23 24 23 21 19 19 19 19 24 27 31 32 32 30 37 30 31 33 27 24 26 19 15 17 19 14 18 16 
75 79 82 80 80 78 75 75 74 72 69 70 72 71 69 68 65 69 72 67 69 68 66 63 65 62 63 62 64 67 64 64 65 65 64 67 69 68 65 65 64 64 66 60 45 43 39 41 35 26 27 26 25 23 22 23 19 20 20 23 23 28 27 30 33 28 35 31 29 29 23 24 25 20 19 19 13 12 17 13 
83 80 87 83 78 73 72 74 74 76 72 72 69 67 71 67 68 66 68 69 67 66 65 65 67 65 64 63 60 61 63 64 67 63 66 67 70 68 64 62 66 63 63 57 46 43 37 43 36 28 27 25 26 26 25 23 22 21 26 27 29 28 29 26 33 27 32 27 27 24 22 21 21 16 18 18 10 10 12 12 
88 81 81 79 76 74 79 74 74 75 70 72 71 66 70 69 70 66 69 69 69 66 66 66 65 64 62 64 61 67 62 63 65 66 66 67 68 68 69 66 68 66 62 55 47 42 40 45 37 28 27 24 23 22 26 22 20 24 25 29 31 30 28 25 28 28 31 27 24 19 17 14 20 15 16 16 9 12 11 13 
98 87 84 78 80 79 80 73 78 78 73 78 73 67 68 67 72 64 70 72 71 64 72 67 67 68 67 65 59 67 65 66 67 61 66 65 67 66 67 65 69 65 64 57 46 47 42 44 34 29 31 26 27 24 25 24 23 30 28 32 32 30 26 26 31 26 26 22 19 16 14 17 20 23 16 16 12 9 17 12 


