P2
80 60
190
144 131 140 133 132 129 131 130 134 132 132 134 133 137 137 133 133 126 125 127 130 127 130 127 124 125 118 111 110 109 109 113 116 113 112 114 111 110 113 117 114 115 111 110 111 112 114 115 116 112 115 123 115 118 118 117 118 119 116 117 118 115 111 106 104 99 100 104 98 96 90 90 89 87 95 89 82 78 73 71 
139 130 137 135 133 129 128 138 136 132 137 137 135 138 136 134 136 131 126 129 129 130 131 130 128 129 127 120 120 114 117 118 116 119 116 115 118 116 119 120 118 118 119 116 116 117 117 116 119 117 116 120 121 119 122 118 120 120 116 117 116 113 111 108 106 104 104 106 101 100 96 97 91 86 87 88 86 72 73 72 
136 129 136 133 132 127 134 132 138 137 136 139 137 138 136 135 138 134 131 131 131 135 136 135 131 133 130 128 122 117 121 121 125 126 126 126 125 129 127 129 129 127 127 126 124 123 122 121 119 121 122 123 126 122 118 121 123 122 119 120 119 115 119 118 109 107 111 109 109 106 102 105 93 89 90 95 89 76 75 75 
133 134 135 132 134 130 134 136 137 139 133 137 133 136 136 136 136 131 130 133 131 135 140 139 137 136 130 127 127 121 123 125 128 128 126 128 127 130 129 133 132 132 130 131 127 129 130 127 123 122 124 128 130 124 124 124 123 125 119 121 121 120 117 118 110 109 111 111 114 112 108 107 98 95 93 95 88 79 83 81 
129 130 136 134 135 131 134 135 137 138 136 139 134 136 136 135 134 135 135 134 131 135 136 133 135 132 130 127 127 124 124 126 126 128 124 126 125 127 127 127 126 122 123 124 124 122 119 121 128 132 133 127 130 127 123 127 130 130 121 125 123 119 119 118 113 111 115 113 113 110 108 108 101 100 96 94 93 84 85 79 
134 134 139 136 135 134 136 138 137 138 140 138 137 136 138 140 140 134 137 131 131 135 137 133 136 135 133 129 123 124 122 126 129 128 128 126 125 122 119 117 113 108 105 111 112 107 113 111 124 135 136 134 133 131 129 128 132 128 122 124 127 122 118 117 115 114 114 115 109 113 107 109 103 103 98 100 94 85 83 83 
138 133 139 137 135 134 134 137 136 138 140 141 138 137 138 139 140 135 134 130 133 135 136 134 133 134 132 127 124 121 122 126 124 127 125 122 118 110 104 103 105 100 102 105 104 102 101 102 115 134 139 134 133 127 131 131 130 129 128 129 125 123 119 119 115 112 116 118 114 111 107 109 103 108 104 98 96 82 87 85 
138 134 140 135 138 135 134 136 140 134 141 144 138 139 138 136 138 134 135 136 134 136 132 134 133 136 133 128 123 122 126 126 126 123 116 109 103 97 100 97 99 93 96 98 97 99 99 102 109 122 130 130 129 129 134 131 131 133 128 127 131 126 121 121 115 113 111 117 117 113 109 109 107 108 104 99 97 87 90 89 
134 131 139 135 136 135 138 137 137 138 137 137 135 138 138 135 137 135 132 134 133 135 136 132 130 131 132 127 122 119 121 120 116 109 104 101 97 96 92 95 93 91 91 96 97 95 94 97 105 113 117 121 119 122 139 137 142 148 135 132 131 126 125 117 115 116 119 119 117 118 111 112 107 105 103 101 97 90 87 89 
137 134 138 137 136 134 135 136 140 140 137 137 137 139 138 138 139 133 134 135 133 141 141 133 133 136 131 124 120 115 114 111 107 104 99 98 95 88 87 89 93 91 93 96 98 95 95 98 98 101 105 113 118 118 144 139 135 163 146 136 129 125 125 120 118 120 123 119 118 117 114 116 110 109 103 105 99 90 94 95 
135 134 137 133 135 133 136 138 138 141 139 140 134 138 141 141 140 133 135 135 133 138 140 134 130 130 129 115 113 107 103 101 101 96 90 89 89 89 87 89 92 90 89 93 93 95 94 94 95 98 101 119 127 117 137 143 127 149 146 137 132 126 117 116 109 118 119 120 118 119 118 117 113 112 112 108 102 96 100 96 
139 132 137 133 140 138 139 141 139 138 141 134 135 137 137 136 139 132 134 134 133 135 136 131 125 120 115 109 107 102 98 96 93 90 91 89 89 86 89 87 88 92 92 98 92 95 94 96 96 96 97 122 138 125 136 145 118 125 121 120 120 115 115 108 99 98 102 106 114 119 119 115 115 117 115 109 112 100 100 101 
136 132 138 131 133 142 138 143 137 138 131 137 135 136 138 136 139 132 134 135 135 136 131 122 112 107 107 103 100 96 92 89 86 88 88 91 88 83 85 86 88 94 87 92 89 90 90 95 93 91 92 105 116 138 133 147 111 103 98 98 97 99 99 95 86 89 89 95 98 104 108 110 109 112 112 110 108 104 104 102 
136 129 138 132 135 134 142 147 140 136 136 137 135 137 138 136 137 135 135 145 158 141 127 113 107 102 98 99 99 95 90 86 84 82 84 85 83 85 87 84 91 89 88 90 86 87 91 92 88 88 88 91 95 126 126 135 101 97 93 88 88 94 88 83 77 77 80 88 89 94 95 99 100 101 106 107 109 106 102 101 
137 130 138 135 136 140 139 144 141 139 140 137 133 139 136 138 137 136 138 158 190 150 118 104 100 96 93 95 89 84 81 81 82 84 83 82 82 83 88 84 88 86 87 91 90 85 87 88 87 84 84 85 86 93 101 103 94 90 87 86 89 87 82 76 71 74 74 79 75 78 83 86 91 90 97 100 96 99 102 98 
133 130 133 133 135 142 137 137 140 136 138 134 132 135 138 137 138 135 137 160 179 142 110 100 94 93 90 91 87 82 81 81 79 78 80 79 79 81 83 84 85 85 84 83 84 84 83 85 86 86 81 82 80 79 83 85 84 85 79 79 85 85 81 73 66 65 70 73 70 74 72 74 78 81 83 84 81 87 100 99 
129 125 130 136 135 138 137 136 136 136 136 136 132 135 132 133 136 132 136 165 156 125 103 96 91 87 87 83 81 77 77 80 79 75 76 82 81 77 77 82 86 85 82 81 85 86 85 82 82 80 82 79 80 74 81 84 79 77 77 78 78 78 74 68 62 64 66 67 68 65 66 66 67 67 71 68 68 72 95 93 
130 125 126 135 136 136 134 137 135 137 135 133 131 132 133 133 136 132 132 157 142 114 98 93 90 86 84 82 77 76 75 78 79 78 80 79 77 76 75 81 78 83 83 85 84 83 82 83 82 79 77 77 75 75 76 80 79 74 73 73 72 72 72 69 65 65 63 64 67 64 63 62 62 62 61 60 62 66 84 89 
128 124 129 129 134 135 134 134 137 136 135 135 129 134 130 134 131 130 128 133 116 100 94 89 87 86 82 81 74 77 76 77 78 78 76 77 75 75 78 81 80 85 80 81 84 82 80 82 79 78 79 73 74 76 74 74 75 76 71 74 74 73 70 66 60 63 63 61 60 59 57 59 56 57 54 53 61 67 87 87 
125 120 126 129 131 129 133 130 133 129 131 131 127 129 132 129 131 126 121 120 99 93 92 87 84 85 83 81 78 76 73 77 76 77 79 75 77 78 76 79 78 79 79 80 82 79 77 79 77 75 74 76 74 72 73 74 72 74 72 73 72 74 69 64 61 60 62 63 62 56 56 56 53 51 52 53 55 63 88 85 
129 120 126 128 134 134 132 129 130 130 130 129 125 126 125 129 130 120 121 106 93 92 89 86 83 84 81 81 75 72 73 75 77 76 74 75 75 73 77 75 78 78 77 77 78 79 77 77 77 73 72 73 69 68 69 69 71 71 71 71 70 70 67 62 60 59 62 62 58 58 55 56 49 48 48 48 51 61 85 86 
123 116 127 126 130 132 124 129 133 128 128 128 121 123 127 123 124 118 113 97 87 84 87 84 80 81 80 78 73 68 69 69 70 71 70 71 72 70 68 75 73 76 75 77 77 74 74 74 74 71 72 68 69 66 67 68 68 68 63 65 66 67 64 60 56 58 60 61 59 54 56 55 49 48 46 44 49 59 83 82 
121 118 122 123 126 127 129 125 126 124 124 123 125 122 122 121 123 118 110 93 84 84 84 81 81 77 79 73 72 66 65 69 66 68 70 68 71 69 68 72 74 75 72 74 70 74 72 74 72 69 68 67 68 64 61 68 66 66 62 65 63 65 64 59 59 60 59 60 55 54 53 54 51 45 46 44 48 62 82 85 
120 114 118 122 127 125 124 126 123 121 124 123 121 121 120 121 121 114 105 86 79 84 85 78 79 78 74 74 68 63 63 65 66 64 68 64 67 64 61 71 71 73 68 69 73 70 71 69 71 65 67 65 67 62 65 67 65 64 61 64 61 62 61 57 57 56 57 59 54 52 52 55 50 46 45 45 49 59 79 84 
113 112 120 119 125 122 122 122 122 122 121 120 117 120 120 117 119 116 99 85 75 77 81 78 78 77 74 68 65 62 62 67 68 65 66 66 64 61 62 67 65 72 66 70 70 68 68 68 66 66 65 66 65 61 60 62 63 65 62 64 60 60 61 55 56 55 57 56 52 51 49 52 48 42 45 43 49 57 81 80 
111 110 116 117 122 121 122 121 119 118 116 120 116 116 120 113 118 108 97 81 76 77 78 74 77 75 74 72 65 65 64 66 67 66 62 63 63 64 63 64 69 69 65 64 72 68 70 70 68 64 65 64 65 65 64 61 61 61 59 59 57 59 56 56 57 54 58 58 55 54 49 45 42 41 43 42 50 56 82 82 
109 105 114 115 119 118 116 119 117 114 117 116 112 116 113 115 115 107 96 76 73 77 76 74 72 71 70 69 63 64 64 64 65 63 64 64 64 66 64 66 69 69 65 64 67 69 69 67 69 64 62 63 63 61 64 62 61 58 58 58 59 58 57 57 53 57 56 55 52 49 51 46 42 43 37 41 46 48 77 76 
105 101 104 102 102 98 98 102 105 103 105 106 106 103 109 106 110 102 93 74 71 75 75 73 71 71 70 65 74 70 69 63 65 62 60 65 64 66 64 66 67 69 71 62 63 65 66 67 68 65 61 58 60 61 60 63 58 59 56 60 58 56 55 55 53 56 56 54 51 50 50 48 47 42 40 42 41 50 72 74 
100 98 100 93 91 85 84 83 84 85 85 85 88 91 88 93 98 96 86 75 71 72 75 68 67 67 70 75 96 132 104 66 60 60 65 69 63 66 63 67 68 67 72 62 62 65 66 62 63 61 65 62 59 58 57 58 57 56 57 58 55 59 55 54 54 55 54 52 53 48 45 46 46 41 37 36 42 50 75 72 
97 94 96 86 81 75 74 76 75 74 74 79 78 77 76 74 80 75 73 70 74 74 72 71 69 71 69 88 121 140 160 80 64 63 66 61 60 62 65 64 67 69 72 62 62 66 62 63 64 61 62 58 58 56 59 60 62 59 59 55 61 59 56 54 56 56 54 52 49 48 45 45 44 41 37 37 43 53 75 68 
94 87 92 79 76 71 72 65 73 69 69 68 69 69 71 67 71 67 63 67 68 71 72 69 68 69 77 107 133 146 135 91 63 58 61 62 64 64 65 66 66 65 70 60 60 60 62 63 61 61 61 58 55 57 58 57 54 56 57 58 59 57 52 52 55 54 53 51 48 47 46 46 45 39 38 36 38 53 67 70 
87 83 86 77 69 65 62 67 62 61 64 62 60 65 61 59 65 61 61 63 64 70 70 71 72 71 86 121 142 140 122 90 65 59 59 63 64 62 62 67 64 64 65 58 61 60 62 62 60 59 59 55 58 56 59 56 55 55 55 56 56 59 58 50 50 54 54 48 49 42 45 47 43 40 38 36 43 48 68 67 
86 79 79 69 66 61 55 59 58 54 56 58 56 55 56 55 60 56 58 65 64 64 68 71 74 70 98 128 133 125 122 91 61 59 58 58 63 63 60 64 65 60 61 60 59 61 61 59 60 58 59 58 57 56 56 57 55 55 55 56 58 59 54 53 52 52 51 50 51 43 46 43 45 39 38 35 41 47 65 65 
82 78 76 70 62 58 55 55 52 50 51 51 51 53 52 52 53 52 59 63 65 66 69 70 69 73 101 130 135 135 131 94 60 57 55 59 58 61 62 63 63 61 59 58 58 60 60 56 57 58 58 58 58 55 56 59 54 56 55 53 55 54 51 52 51 51 47 49 45 43 44 42 41 37 33 32 38 44 62 57 
81 74 71 60 59 54 47 48 48 48 47 49 52 51 49 50 51 44 54 62 64 64 67 65 66 72 105 135 143 142 125 84 59 55 54 60 60 63 59 62 59 61 55 58 61 62 60 58 59 56 57 55 54 56 58 57 54 53 53 53 57 56 54 52 49 50 49 46 47 42 41 39 40 36 34 33 34 43 56 57 
75 70 69 60 56 52 44 45 43 45 48 49 45 46 43 44 44 42 52 58 64 63 67 63 63 70 106 136 139 117 95 63 58 51 55 60 63 63 58 62 59 54 54 56 59 59 57 58 57 59 56 55 55 54 55 54 52 51 53 53 56 56 53 48 51 53 50 46 47 43 39 40 38 34 34 31 32 37 53 53 
72 68 64 55 50 48 39 44 43 41 44 40 42 37 42 39 39 42 52 60 58 64 63 61 62 66 95 126 118 95 79 59 57 57 55 59 62 61 56 61 59 55 49 55 58 59 59 56 57 57 57 55 55 54 52 53 51 51 51 52 55 55 51 52 49 50 43 47 46 38 39 36 37 31 31 30 32 39 51 48 
68 66 61 56 49 45 40 41 41 37 37 39 37 37 39 34 38 38 52 57 57 59 62 61 60 61 81 119 116 84 66 54 55 58 58 59 56 58 57 58 54 56 53 54 58 56 55 53 58 55 56 54 54 51 52 51 50 52 54 53 54 58 52 47 48 46 48 44 44 40 36 36 35 36 33 28 28 35 46 46 
70 63 60 54 49 43 37 40 37 35 37 38 36 36 38 34 35 36 47 54 58 62 62 59 59 62 66 86 96 63 55 54 55 57 55 56 56 57 56 57 57 52 53 56 58 57 55 58 54 55 55 54 56 52 54 53 50 51 50 53 55 57 52 47 47 49 50 42 41 41 40 38 36 33 32 30 30 35 47 41 
67 59 56 48 48 39 37 37 35 36 36 36 34 33 33 31 30 36 47 58 55 57 63 63 58 57 57 61 58 53 55 55 55 56 53 59 54 58 59 56 55 56 51 54 59 60 57 57 56 56 53 52 55 53 53 51 51 52 51 53 54 55 47 46 47 47 47 44 40 42 41 40 34 31 30 31 36 32 43 42 
63 58 55 49 44 39 37 37 35 32 36 35 33 30 29 27 30 35 49 52 52 59 58 59 58 56 58 57 54 52 53 54 54 56 55 58 58 56 59 57 56 54 50 56 59 59 55 55 57 54 56 50 53 54 51 49 49 50 49 52 55 54 49 49 46 45 43 41 40 39 39 37 33 36 28 28 28 32 37 34 
62 52 53 46 41 34 36 37 33 29 31 31 30 25 28 26 29 34 50 54 51 56 61 57 58 55 54 52 52 52 51 54 56 55 55 57 57 56 54 56 57 54 51 54 56 58 55 57 58 53 54 51 54 50 49 48 49 56 51 53 50 53 49 49 50 43 43 43 42 38 37 37 31 34 30 26 29 28 39 36 
60 55 49 45 41 34 29 35 34 30 31 30 28 28 26 22 25 35 46 53 52 56 61 60 60 54 56 52 51 51 50 54 55 58 56 58 57 56 55 56 55 54 51 56 57 60 57 58 58 54 53 53 53 51 48 48 49 54 54 52 50 48 46 51 47 43 43 43 38 37 36 33 35 29 29 26 27 28 33 32 
58 52 48 43 40 33 34 30 30 32 29 28 25 24 21 21 26 34 46 51 50 55 57 55 57 56 53 51 46 48 51 53 53 51 56 60 58 53 53 55 58 53 49 55 55 59 58 56 56 57 54 50 54 50 49 49 48 48 54 56 52 51 43 46 48 43 40 41 39 39 32 37 33 32 24 24 28 27 31 31 
57 51 48 42 38 34 32 32 29 28 28 28 26 22 21 20 24 35 47 51 51 52 54 55 55 53 50 45 46 47 46 51 51 53 54 57 56 53 50 52 57 56 53 56 56 62 58 58 56 53 53 52 54 51 50 49 53 52 52 53 53 49 41 45 46 43 40 37 37 34 32 33 30 27 26 26 28 20 25 22 
54 49 46 42 41 32 32 31 28 27 24 24 24 25 21 16 21 35 49 49 51 53 52 51 53 52 50 47 48 43 49 51 53 51 56 53 55 50 53 51 56 57 52 58 59 61 60 60 54 51 51 52 51 53 50 51 50 52 50 49 48 47 40 41 46 41 38 40 36 33 35 30 30 30 25 23 24 18 22 16 
55 45 46 41 39 34 31 35 31 27 25 28 25 21 20 16 21 33 45 51 54 53 52 56 49 52 49 47 45 43 51 50 50 52 53 57 55 53 51 55 50 58 53 56 59 59 58 58 54 52 54 52 56 53 49 52 55 51 51 48 46 45 41 41 45 40 39 38 38 37 35 35 29 28 25 25 21 13 17 25 
52 48 44 41 39 34 30 32 28 27 29 26 22 19 20 18 24 35 45 47 50 53 48 51 49 50 48 45 47 47 48 52 51 50 51 51 51 52 52 50 52 55 53 57 59 60 61 58 57 51 53 54 54 51 52 50 53 55 49 48 50 46 39 41 44 42 37 36 38 35 35 32 29 30 27 23 21 15 16 14 
54 45 47 39 37 35 31 30 30 28 23 24 21 22 21 20 26 38 44 47 49 51 52 48 46 50 49 44 44 43 47 52 50 54 52 51 53 48 50 50 51 56 52 55 57 60 58 57 56 54 50 51 52 51 51 54 52 50 49 48 46 49 41 42 42 38 38 39 41 37 36 36 29 30 28 21 23 11 14 12 
52 44 45 40 37 34 27 31 28 24 23 22 21 19 18 22 27 39 43 48 48 46 51 46 46 45 49 43 44 43 44 46 51 52 53 57 49 52 52 52 47 51 53 53 56 57 57 57 54 52 51 53 53 50 52 54 48 49 48 52 51 50 42 40 43 40 40 41 37 39 38 37 28 28 27 22 22 8 12 11 
51 44 46 41 39 35 28 30 29 24 26 25 23 20 17 20 26 38 46 48 46 49 47 41 41 44 44 38 40 43 44 47 50 53 53 52 52 51 49 51 49 49 50 52 55 58 56 57 55 53 53 52 52 50 53 53 50 50 51 50 48 45 42 40 42 38 39 38 36 36 38 34 29 29 24 20 19 8 10 9 
52 47 48 43 42 38 32 35 27 27 24 22 22 21 20 19 29 39 46 48 49 48 46 39 39 41 39 39 38 42 43 49 50 52 53 54 49 49 53 50 47 48 52 55 59 57 57 55 56 53 55 49 53 49 55 50 51 50 51 47 52 49 45 43 42 41 40 41 37 36 32 35 26 27 30 22 22 9 6 8 
51 45 47 43 41 35 34 31 27 25 26 22 24 23 22 22 32 39 46 48 45 45 40 34 35 39 36 32 33 40 43 46 50 52 50 52 51 50 48 49 49 47 54 55 56 54 56 53 55 52 51 50 53 51 52 48 52 54 51 52 52 46 46 41 40 39 40 36 35 32 33 32 30 27 25 19 18 10 9 9 
51 49 46 46 42 36 31 35 30 29 29 27 25 27 25 27 33 39 43 45 43 46 34 33 32 34 34 36 45 47 43 48 50 51 52 49 51 49 48 48 44 50 49 55 55 56 54 53 53 52 47 51 51 50 49 48 49 47 49 53 51 50 47 46 39 37 39 38 36 30 30 29 30 30 27 18 16 8 11 3 
51 49 48 44 42 35 32 34 29 31 31 31 27 31 26 29 34 41 41 45 38 36 31 29 30 35 35 40 48 50 48 46 48 49 52 49 49 48 48 46 41 45 51 51 54 55 52 52 50 50 51 51 52 46 51 47 50 48 49 47 50 43 44 42 40 37 38 34 33 34 31 30 28 29 23 23 13 7 7 7 
59 52 50 49 48 41 35 36 36 36 31 33 27 29 33 30 38 39 44 41 42 38 30 32 29 33 35 40 47 51 53 47 46 49 51 51 50 50 49 46 44 46 52 50 56 55 52 52 51 49 53 54 52 50 48 47 53 48 47 48 48 45 41 46 42 40 39 39 34 35 32 30 30 27 26 19 14 3 8 6 
60 52 57 49 47 43 38 37 35 34 33 33 27 31 31 28 37 45 44 45 41 40 36 30 31 31 31 32 39 46 52 47 48 48 50 52 49 48 48 44 44 48 48 53 51 55 52 50 54 55 53 51 53 54 51 49 51 49 50 46 48 47 46 43 44 39 38 38 33 36 36 32 31 26 23 20 14 9 7 0 
64 53 53 49 52 40 38 35 32 32 32 31 29 29 31 33 37 39 43 47 45 43 34 30 30 30 32 28 28 34 42 42 48 50 53 49 53 53 50 47 42 49 50 53 51 55 55 52 54 53 52 52 55 53 53 51 50 51 51 52 50 45 49 50 41 42 37 40 39 35 34 36 31 30 24 19 16 6 2 2 
63 57 57 50 49 43 41 38 33 34 31 35 32 32 29 34 38 42 41 48 48 46 39 34 34 31 29 27 27 26 35 42 48 50 53 51 56 57 51 47 45 49 53 54 54 57 58 57 56 58 58 57 60 52 55 55 52 52 54 50 46 48 49 48 45 42 39 41 39 39 38 35 36 32 24 20 19 6 5 5 
77 58 57 54 51 45 39 37 38 33 30 41 37 36 31 34 41 42 41 45 48 46 43 34 31 31 31 24 25 27 32 43 52 48 55 52 52 55 54 50 49 55 56 58 58 60 56 58 57 57 55 57 61 53 51 55 50 48 49 48 46 46 49 44 43 38 35 39 40 35 34 34 35 29 25 23 17 8 9 9 


