P2
80 60
144
123 124 120 124 123 129 126 126 130 129 134 133 131 133 133 130 128 128 127 125 119 118 110 102 96 94 90 88 89 88 89 85 87 85 82 80 82 75 76 72 73 71 74 74 74 75 78 73 70 71 67 75 75 74 75 73 75 73 74 70 67 69 69 68 71 68 67 65 67 70 69 67 63 60 71 75 69 65 57 58 
125 130 129 131 127 130 128 128 132 133 136 138 138 137 136 136 133 132 131 129 127 116 113 103 97 97 91 92 93 91 92 90 84 85 82 81 81 75 76 77 75 79 74 77 76 80 78 76 73 75 75 78 78 74 74 76 76 72 76 71 71 74 74 72 77 70 71 72 67 71 72 71 69 71 74 76 76 65 59 61 
124 128 124 127 127 128 125 133 134 135 136 137 141 139 139 139 137 132 133 129 123 111 107 98 94 96 90 92 89 90 89 86 87 87 85 84 83 80 74 75 77 77 75 77 78 76 77 75 72 71 74 74 77 75 76 73 71 75 79 72 75 73 73 71 71 70 69 70 71 70 71 70 72 73 75 76 72 63 63 53 
123 131 124 131 128 131 128 132 132 135 136 137 135 138 138 136 137 131 127 126 120 108 99 94 96 93 91 93 93 93 87 89 87 87 83 82 79 80 74 74 76 74 79 76 77 79 80 78 76 75 75 74 76 77 74 76 76 72 77 72 73 73 75 74 72 71 74 73 69 71 72 72 70 74 77 73 70 61 64 58 
125 131 129 131 129 131 131 131 132 135 135 140 138 138 137 135 137 134 133 125 119 101 99 92 95 91 92 92 89 90 90 88 90 87 86 79 82 78 75 74 75 76 75 77 78 78 77 81 77 73 77 79 77 75 75 76 75 76 75 75 73 72 75 72 73 71 70 72 71 73 75 74 75 74 74 73 70 61 59 58 
126 130 125 131 129 136 131 135 136 136 135 138 138 138 140 134 136 130 129 121 107 98 99 93 95 93 89 92 90 89 91 89 88 89 83 81 79 75 78 73 74 74 75 76 76 82 80 80 76 75 79 75 77 76 75 75 75 74 74 72 73 73 73 75 70 68 71 72 68 69 70 73 75 82 73 73 70 59 60 59 
128 125 126 130 132 132 131 134 134 135 137 138 137 139 137 141 138 132 129 124 105 97 97 91 91 93 91 91 88 90 90 88 89 90 84 81 81 77 77 75 73 76 80 75 74 78 78 76 77 77 76 72 77 77 73 73 73 76 73 76 73 76 70 70 69 68 74 72 70 72 70 73 78 79 75 73 66 59 64 59 
129 130 127 129 128 133 132 135 137 134 137 140 143 139 134 137 136 132 131 124 104 96 98 92 90 92 87 94 92 94 89 92 85 89 82 80 78 77 76 74 72 74 77 74 76 79 78 77 74 75 72 73 75 74 75 73 72 74 77 73 73 75 71 68 68 70 70 73 66 72 70 71 78 81 75 68 65 57 64 64 
128 130 130 126 126 131 132 136 138 136 140 139 141 135 138 137 139 132 132 123 105 101 96 90 95 88 92 91 91 93 87 89 88 86 83 78 78 78 72 71 71 73 74 74 75 77 79 71 76 75 76 73 75 73 73 71 74 74 77 69 74 70 67 69 69 66 71 74 67 68 69 72 78 80 77 67 64 57 64 68 
127 133 127 130 134 132 134 139 140 141 138 138 139 137 140 139 141 134 131 127 107 99 96 92 94 93 95 93 88 88 90 88 89 88 85 80 80 75 74 73 74 74 75 75 77 79 78 77 73 74 73 75 76 73 71 71 72 71 72 69 69 67 70 67 68 69 70 69 67 67 68 70 80 85 77 68 61 58 68 70 
127 130 128 130 131 132 137 138 140 136 137 140 140 140 141 140 138 136 129 129 107 99 98 89 96 92 89 91 88 90 89 86 86 88 87 85 83 81 72 76 73 71 72 70 74 75 75 75 71 75 73 76 75 75 69 68 72 72 69 69 67 70 67 68 70 65 65 70 65 64 66 71 78 88 74 66 62 66 75 67 
129 133 126 129 128 134 136 140 142 143 142 142 139 137 141 140 141 133 128 126 105 98 96 94 92 90 90 90 85 89 88 87 87 95 93 88 82 78 75 73 71 75 77 74 74 76 78 77 72 71 72 73 75 74 71 67 71 70 72 66 65 67 66 68 67 67 65 68 66 63 66 68 80 88 78 67 62 70 74 73 
124 122 124 129 127 133 134 140 144 140 138 140 139 138 142 137 135 135 126 122 99 99 96 94 94 90 90 88 84 88 89 89 90 101 99 90 85 80 78 79 73 74 71 70 74 72 72 74 71 74 76 74 74 69 73 66 68 68 67 64 65 66 64 65 67 65 63 66 67 63 67 69 77 83 78 68 64 71 74 71 
121 130 125 129 132 136 134 141 137 138 139 137 138 138 139 139 135 133 127 119 100 97 92 94 91 89 91 89 89 90 87 88 95 102 99 90 80 81 80 83 76 75 74 72 73 74 72 73 72 74 75 74 72 67 71 68 70 67 65 63 66 66 61 64 65 64 61 63 62 62 63 66 78 83 77 69 66 71 78 75 
121 129 121 126 127 133 136 138 138 139 138 135 135 136 135 137 138 135 127 117 96 94 92 85 90 87 88 90 87 88 86 89 92 101 97 92 79 79 83 84 81 79 78 74 72 70 71 73 74 71 72 70 72 71 68 68 70 64 64 62 61 62 62 66 64 62 62 63 62 59 65 67 76 80 76 68 65 71 78 73 
121 130 121 129 132 135 136 138 140 137 135 136 137 140 138 140 137 130 126 115 94 93 90 92 89 89 90 92 88 89 84 89 88 92 89 81 77 75 77 81 84 83 81 74 70 70 73 72 72 74 70 68 74 71 68 70 68 68 68 64 60 67 60 61 63 60 58 64 56 61 64 64 81 80 75 66 66 70 79 78 
117 123 122 128 127 131 136 138 139 137 137 137 135 140 135 136 134 131 124 110 94 89 89 86 85 85 87 83 81 85 87 85 84 85 82 75 73 74 76 81 84 76 82 70 68 73 73 73 70 73 73 71 68 67 66 69 66 66 65 62 60 63 59 58 60 60 57 63 60 60 62 64 76 81 74 69 62 71 80 78 
115 123 118 125 126 133 135 134 136 134 135 133 136 135 134 133 137 128 123 105 91 89 87 83 84 86 87 81 77 84 83 84 80 81 76 72 75 72 76 80 80 77 80 72 70 73 71 69 71 70 69 67 68 71 69 65 67 66 63 64 60 58 60 58 60 55 58 60 58 59 57 63 74 81 74 65 64 72 78 79 
114 118 120 120 124 130 135 133 138 136 134 135 132 132 131 131 128 128 120 102 91 89 88 83 83 82 83 81 78 81 83 81 79 74 76 72 73 72 73 76 72 74 78 75 72 68 72 67 69 66 68 71 67 66 64 65 66 61 61 61 62 61 57 59 56 56 57 59 57 62 60 64 74 85 75 67 63 69 80 77 
112 115 116 119 121 132 129 135 133 131 132 132 129 132 131 131 130 126 117 95 85 87 84 82 83 82 81 82 78 79 79 75 76 73 70 73 72 72 76 75 75 70 77 73 68 69 72 67 70 67 68 65 65 64 64 64 63 61 62 56 59 61 61 61 60 59 58 61 55 58 59 61 74 82 72 64 63 69 79 77 
110 115 117 119 119 131 126 134 133 128 131 128 130 130 130 128 127 123 114 92 82 86 86 83 82 79 79 77 76 76 80 74 77 76 72 70 69 80 85 79 75 76 79 78 71 69 67 67 67 68 63 66 65 64 62 62 63 61 61 59 59 57 57 60 58 55 55 62 58 60 60 62 74 81 71 63 60 68 77 76 
111 113 109 116 117 125 131 129 126 126 127 125 129 126 127 127 126 118 108 89 83 84 84 80 79 76 77 75 76 75 77 73 72 71 69 67 70 80 82 92 97 98 89 80 71 70 68 67 65 65 68 64 66 60 62 64 66 62 61 57 58 57 58 61 57 57 57 62 57 58 60 61 74 80 68 56 59 67 78 81 
112 114 111 115 116 126 124 127 128 125 126 128 127 128 124 125 124 115 105 87 80 84 84 80 77 74 74 74 72 74 74 74 72 73 68 72 75 84 99 105 102 102 103 81 68 68 67 67 63 65 63 64 61 62 58 61 61 62 58 57 54 59 58 56 57 57 54 57 56 57 60 61 71 78 67 60 58 63 76 77 
109 108 109 115 116 124 123 129 128 122 124 124 126 124 124 123 122 114 104 83 78 81 77 74 74 75 71 72 73 74 75 72 72 71 65 69 74 96 97 92 96 94 98 87 61 64 68 67 61 61 63 63 63 60 61 60 61 59 57 56 57 56 57 57 58 58 57 58 52 59 58 60 69 76 69 62 59 63 74 74 
110 109 107 113 116 123 123 124 123 121 123 121 123 122 121 123 119 112 96 80 77 78 76 74 71 72 69 71 69 74 75 76 69 70 64 66 88 101 99 100 101 99 99 95 75 56 62 67 62 63 65 59 60 61 58 59 59 58 62 57 56 58 59 58 59 60 60 59 58 58 60 60 70 74 65 61 61 64 72 71 
103 104 103 107 113 117 117 119 121 118 117 119 119 118 119 115 114 105 93 78 74 78 74 76 71 72 69 71 67 69 70 67 68 63 60 73 93 101 97 98 101 98 97 97 90 62 57 61 65 64 63 63 59 61 59 57 57 59 57 55 55 56 58 58 59 58 60 59 59 60 61 61 69 74 65 60 59 68 72 69 
99 103 99 107 105 111 111 112 113 114 115 115 116 117 116 114 111 107 88 74 74 76 73 72 69 68 70 69 69 71 72 69 63 64 64 90 97 101 100 100 98 99 100 99 92 64 58 58 60 64 62 62 57 58 58 54 60 55 56 53 55 56 59 59 58 58 59 59 61 60 61 59 71 72 64 61 63 70 71 70 
99 100 101 99 99 97 95 91 94 92 96 97 94 102 100 101 102 99 85 73 71 76 73 71 70 72 72 71 69 68 68 65 63 60 80 97 97 100 97 98 97 99 100 96 93 72 59 56 55 65 62 62 61 59 56 55 57 54 56 53 54 56 56 60 59 57 56 57 59 57 60 61 72 71 64 60 64 69 71 67 
100 97 92 93 91 89 83 79 82 78 80 83 85 84 83 82 81 82 71 70 72 74 76 70 73 70 69 72 68 71 65 64 59 61 89 98 97 96 97 95 97 97 96 96 94 74 61 59 57 62 64 58 59 59 55 54 56 55 56 52 53 57 58 57 59 58 56 57 59 59 59 59 69 67 62 61 64 65 69 69 
96 94 91 91 85 82 78 77 77 73 74 80 79 74 74 73 76 72 64 71 70 73 69 72 71 72 72 73 70 67 67 62 62 70 96 96 97 99 96 100 97 95 95 95 94 70 59 59 57 63 66 63 61 58 57 55 55 55 54 54 56 58 60 55 59 57 58 57 54 57 57 56 68 67 59 61 62 66 64 63 
92 92 89 84 78 76 73 69 71 70 72 68 69 71 69 69 68 67 66 68 69 73 71 71 68 69 73 72 71 69 68 70 68 70 93 97 94 96 97 92 95 91 92 91 91 69 57 57 58 61 60 59 57 56 58 53 56 53 53 53 55 56 56 57 58 59 59 60 58 56 57 59 61 62 57 60 63 66 64 63 
87 86 85 80 75 72 67 67 64 64 68 63 66 64 64 64 63 58 59 66 67 72 71 72 71 72 71 74 70 70 70 67 66 74 87 92 91 93 87 91 87 88 87 84 84 65 58 58 59 61 61 59 61 58 59 53 53 52 55 52 51 54 57 59 58 57 56 58 54 52 57 58 60 59 56 59 62 63 62 60 
80 84 77 77 67 65 63 62 56 59 57 56 58 64 61 60 59 54 58 65 65 69 69 71 71 72 71 74 68 72 70 66 66 73 84 87 88 86 88 86 87 83 82 81 75 61 58 58 62 59 60 61 58 56 55 50 54 53 56 52 52 57 54 56 57 56 54 56 52 52 57 56 59 56 52 60 63 63 61 61 
76 82 78 74 66 61 55 53 52 51 52 52 59 58 57 55 56 49 56 62 67 70 72 69 69 71 70 71 69 67 66 67 65 73 86 85 83 85 81 81 83 78 79 74 66 55 57 58 61 57 59 59 60 58 56 54 51 52 56 53 54 55 55 54 59 56 53 54 52 53 55 57 58 48 52 55 59 61 58 54 
75 77 71 72 59 57 48 49 45 47 50 46 52 53 50 51 46 45 56 63 66 66 70 73 72 70 69 69 68 73 67 67 64 67 77 79 78 82 79 80 76 75 77 73 67 55 56 59 59 57 58 57 60 57 56 53 54 50 56 55 52 59 56 57 60 57 56 56 53 48 53 55 57 50 48 56 62 60 54 47 
72 74 71 67 60 55 45 45 47 45 45 45 49 49 46 42 44 39 54 60 67 71 73 68 70 70 71 70 67 68 67 64 65 67 74 74 76 74 75 75 72 71 72 66 62 57 57 55 60 57 56 56 55 55 53 53 52 53 55 53 54 55 58 59 58 60 56 53 49 53 51 53 54 45 45 55 58 56 56 43 
69 69 66 61 57 53 48 44 44 43 46 46 46 46 45 44 38 40 54 60 65 69 72 67 71 72 71 69 68 69 71 66 67 66 68 70 72 71 71 70 69 65 70 62 58 57 59 59 57 55 55 57 57 60 56 55 57 55 54 56 54 58 58 55 57 57 54 53 52 50 48 52 48 46 47 58 58 55 46 43 
68 67 66 60 50 49 42 43 46 44 40 42 44 43 40 35 39 34 50 58 64 65 66 66 69 71 68 71 65 69 68 65 68 67 64 68 67 67 68 65 66 63 61 58 56 58 61 57 54 53 57 55 55 56 55 55 56 57 59 52 56 57 57 55 55 55 56 55 52 50 51 55 44 38 50 51 56 49 42 39 
68 66 61 57 48 46 44 43 38 38 40 40 42 39 40 34 33 35 53 60 59 68 68 69 72 72 68 76 69 63 67 68 65 68 65 65 65 61 66 63 64 57 54 56 59 64 60 55 54 55 57 58 58 56 55 55 56 53 58 53 54 59 56 60 59 55 54 54 49 50 52 55 43 36 47 55 59 50 39 38 
64 66 58 51 49 44 40 39 38 37 38 37 38 38 36 31 30 34 47 60 64 66 67 69 66 71 72 69 67 66 67 66 66 68 65 62 65 63 61 60 60 59 55 53 59 59 58 58 56 55 59 58 54 57 57 55 54 55 56 53 54 56 59 58 56 57 53 55 53 53 50 51 46 35 47 51 57 48 41 42 
61 59 56 51 42 43 35 36 40 37 36 37 39 36 30 27 32 33 48 57 62 68 67 65 68 65 68 67 71 67 66 68 66 67 59 61 61 61 58 57 57 58 55 53 56 61 56 56 55 58 60 58 58 57 54 54 56 60 54 55 52 55 55 58 56 57 53 57 54 50 53 53 45 33 45 56 55 46 38 33 
59 57 53 48 38 41 34 36 35 34 34 32 33 27 29 26 27 35 47 56 64 65 62 63 66 64 63 68 65 66 65 66 61 64 60 59 59 60 55 53 54 57 58 55 58 57 57 58 58 62 60 60 58 58 53 52 54 55 55 51 53 59 55 54 56 55 49 55 52 52 54 54 42 35 46 58 55 42 36 30 
56 55 47 48 41 38 35 36 33 35 34 33 32 33 29 26 26 33 49 57 62 65 68 63 67 66 63 67 64 71 69 64 63 64 59 58 58 57 56 54 57 52 56 55 58 59 58 60 60 62 61 61 61 59 57 59 55 54 55 56 55 55 57 55 56 53 54 56 54 52 55 55 42 34 48 56 58 44 35 32 
54 54 48 45 36 43 31 33 33 30 32 30 32 28 27 24 26 36 51 55 63 66 68 64 66 66 66 64 61 67 67 62 60 61 59 57 53 55 53 55 55 54 56 59 61 62 64 67 62 64 58 61 60 60 58 53 56 54 54 52 54 56 55 53 57 53 52 56 52 50 55 53 39 34 48 55 55 39 31 24 
50 51 45 43 39 40 31 35 31 30 28 29 28 32 26 25 27 36 49 56 58 66 63 66 65 63 64 67 62 63 69 63 63 62 60 59 57 55 53 57 56 54 59 60 59 62 63 62 61 63 63 60 58 57 55 53 57 52 61 56 56 55 55 54 53 54 56 56 51 52 56 57 40 35 50 51 55 37 25 31 
48 51 44 40 39 40 34 31 29 29 27 29 27 26 24 21 27 37 51 57 60 66 65 64 65 64 65 64 65 64 66 63 65 62 57 56 53 52 53 55 56 58 59 64 63 65 62 64 62 62 58 58 57 56 55 54 53 55 55 53 56 56 51 52 52 53 53 55 51 53 53 52 36 33 51 56 54 35 27 22 
47 45 40 41 37 38 34 30 30 31 27 25 29 27 25 21 29 37 51 55 58 66 64 62 65 62 63 67 61 64 65 63 63 59 59 59 54 56 55 55 56 59 56 63 64 65 62 61 56 58 60 57 59 57 56 55 54 57 58 55 52 55 53 54 52 54 53 57 54 55 57 52 36 31 49 55 55 34 27 22 
50 47 42 40 38 34 31 28 28 24 25 26 25 22 23 22 29 38 52 54 60 63 63 64 64 66 62 65 65 65 65 61 62 61 54 56 52 55 52 55 55 54 60 59 62 65 66 64 62 60 60 58 58 57 56 57 55 58 56 55 56 56 56 54 55 55 55 55 54 56 52 49 35 31 49 53 50 36 20 18 
41 45 42 40 38 37 32 29 28 25 28 24 25 25 22 23 29 41 49 54 57 62 65 63 65 65 63 67 64 67 63 65 61 62 58 56 52 54 53 54 57 57 59 58 64 62 64 62 59 59 59 56 58 61 56 58 57 57 60 58 58 57 58 54 57 58 54 55 54 54 55 51 32 32 44 53 53 30 20 16 
45 44 38 40 40 39 31 29 28 30 25 24 26 23 21 19 27 40 51 54 54 64 65 63 64 64 65 65 67 63 68 64 61 62 59 59 58 58 53 51 52 57 54 58 62 61 64 60 62 60 62 57 60 59 56 56 59 55 59 57 56 58 57 57 56 57 55 59 54 56 53 47 32 31 49 56 51 32 20 11 
43 43 41 42 40 34 35 34 28 28 29 23 26 28 23 22 29 39 47 53 62 62 62 64 64 62 62 64 64 66 64 62 61 64 61 57 59 57 56 52 56 56 60 56 60 60 61 61 58 57 59 59 58 57 58 53 59 55 59 53 55 58 56 54 56 55 54 56 58 54 51 44 30 28 48 54 50 30 21 13 
42 45 41 40 40 36 36 35 32 30 27 28 28 24 25 24 31 47 50 55 59 65 66 62 64 62 64 64 64 68 66 61 63 63 59 59 58 58 55 54 55 54 58 58 60 62 62 64 61 60 59 60 61 62 59 58 57 61 55 56 58 58 56 60 53 55 58 58 58 56 52 43 27 28 46 55 50 29 19 19 
44 47 43 44 41 38 36 32 31 29 27 28 31 28 29 34 36 46 51 59 62 67 66 65 67 67 65 66 65 69 66 64 65 61 60 58 55 56 55 53 56 56 58 58 62 61 59 60 58 58 62 62 60 59 59 58 54 59 56 56 57 57 59 56 56 55 57 60 58 54 51 45 28 26 47 52 45 23 15 13 
47 47 43 46 40 43 35 34 29 28 31 28 32 31 28 29 38 47 51 58 60 64 67 68 67 68 67 68 64 65 71 65 67 64 59 58 56 57 54 53 54 56 56 59 64 66 65 64 62 59 61 59 60 57 60 59 56 57 58 56 59 57 56 59 58 60 57 61 63 56 53 41 28 27 48 50 42 21 12 13 
48 49 45 41 39 38 33 34 30 28 31 31 35 32 29 33 38 44 51 58 62 65 65 65 64 66 68 65 64 65 68 69 65 65 61 56 61 56 54 53 55 54 56 57 62 65 66 61 58 59 57 61 57 60 58 56 56 54 56 55 54 57 58 57 60 55 61 58 57 55 53 43 30 26 47 51 41 17 9 9 
44 47 45 45 43 41 34 29 28 29 30 29 34 32 28 34 38 47 53 59 65 65 65 65 65 63 68 64 66 65 64 67 66 69 60 62 60 61 58 52 56 59 60 57 60 66 61 59 58 58 61 61 55 60 56 61 57 59 57 53 55 58 57 57 61 56 54 58 54 54 51 42 27 26 46 47 40 16 10 2 
46 49 45 48 42 39 34 29 30 27 30 30 32 30 27 31 39 49 55 59 63 66 68 65 68 64 60 64 65 65 64 68 64 67 64 63 67 64 62 59 62 61 60 60 60 63 61 61 61 58 61 58 57 61 59 60 55 54 57 58 55 55 55 56 62 58 60 61 59 53 47 42 31 30 47 46 36 18 7 1 
50 53 49 48 41 41 37 34 30 29 27 28 31 31 30 31 40 45 51 56 61 64 67 63 68 64 64 64 61 65 64 63 67 64 61 62 62 63 60 61 62 59 62 64 64 68 66 66 64 65 60 60 62 63 59 59 54 57 60 57 59 55 55 59 59 59 59 61 58 53 46 40 28 29 48 50 37 16 7 6 
56 50 49 47 48 43 41 35 34 26 30 32 33 27 29 32 38 49 51 59 64 68 68 64 66 64 61 64 58 64 65 65 64 68 64 62 60 62 61 60 62 60 62 63 67 66 68 65 65 62 65 62 67 63 60 61 58 61 58 57 60 59 56 60 62 59 60 58 57 54 43 41 31 32 47 48 35 15 8 0 
62 52 50 48 45 46 42 33 38 28 32 35 35 27 29 31 37 50 55 61 62 65 69 67 68 69 65 62 61 63 65 65 67 66 64 63 62 59 62 60 66 61 66 64 69 67 66 65 68 65 64 63 69 67 66 60 60 61 59 61 61 62 60 64 62 58 61 58 56 53 42 39 34 32 47 42 27 21 7 7 


