P2
80 60
176
126 133 137 133 135 136 139 140 145 146 145 142 143 143 145 147 144 137 138 131 128 129 126 125 121 122 121 115 113 107 109 107 105 103 102 106 106 104 100 101 99 97 101 104 105 104 105 106 108 109 115 117 117 114 114 115 110 111 106 108 102 100 105 102 101 94 96 95 94 91 88 86 84 84 75 76 76 77 73 72 
128 132 136 134 136 132 141 140 140 148 145 146 144 144 145 145 142 138 139 134 130 129 128 126 125 122 121 115 113 109 105 107 107 105 108 106 112 104 103 100 103 102 101 104 106 106 108 108 109 111 118 118 116 118 114 113 115 109 109 106 107 102 104 102 102 100 94 97 101 92 87 87 86 81 80 76 76 77 76 76 
126 134 137 130 133 130 135 142 140 146 146 141 144 148 142 144 142 144 135 133 130 128 128 125 124 122 126 118 113 111 108 108 109 109 112 111 115 110 110 110 114 111 113 109 112 115 113 112 115 111 116 122 116 114 117 118 114 113 110 108 103 105 106 107 101 102 99 96 97 93 90 90 88 86 82 77 77 75 76 77 
127 132 135 138 135 136 139 143 143 145 143 144 144 147 146 144 147 142 135 133 130 132 129 129 126 124 125 121 111 112 112 111 112 111 112 116 116 112 112 112 112 113 111 119 123 123 118 119 119 120 123 123 121 121 119 118 119 115 110 109 109 107 107 107 106 104 102 102 101 100 93 88 93 91 87 81 83 78 76 76 
130 135 133 133 134 139 141 146 143 144 146 142 143 146 145 150 142 143 142 135 133 126 128 126 125 125 127 120 114 116 115 112 114 114 114 113 116 114 117 112 113 117 115 120 122 125 124 120 119 121 121 129 124 124 122 119 118 117 115 113 111 109 110 112 107 104 105 101 102 97 98 93 95 94 89 83 87 83 79 74 
131 136 135 137 134 140 143 145 146 149 147 148 147 145 145 147 143 144 139 135 133 131 129 127 129 125 124 121 119 116 114 116 115 117 120 117 119 112 114 114 115 117 121 118 124 124 124 125 123 124 128 132 130 128 126 126 122 118 114 117 114 114 114 112 109 107 107 104 104 102 101 96 96 95 89 86 90 87 80 76 
131 137 130 136 137 137 140 147 146 148 147 143 148 146 150 151 148 146 140 133 132 131 128 129 130 126 126 121 117 115 112 113 112 116 118 114 117 112 110 111 114 117 116 117 118 124 122 127 135 133 134 140 131 133 130 125 120 123 120 116 117 114 115 113 110 110 105 109 105 103 101 98 99 97 93 90 90 85 79 84 
134 136 133 137 139 140 143 147 144 147 150 148 150 147 147 150 147 146 138 135 135 131 132 129 128 125 125 124 121 115 114 115 113 115 116 113 117 112 112 111 116 114 118 124 122 124 124 132 133 135 139 143 137 137 137 131 127 124 123 121 118 117 118 117 110 109 108 111 108 106 101 102 100 99 94 92 93 91 84 88 
129 129 137 138 140 141 142 145 147 147 144 146 146 147 150 150 147 150 144 137 133 132 132 127 128 128 124 123 119 117 112 118 118 116 117 113 117 113 110 114 114 117 113 117 123 124 126 130 135 136 141 141 139 142 138 133 131 127 126 124 123 119 121 119 115 116 112 109 110 110 104 102 101 103 95 91 95 90 87 85 
125 139 131 142 140 142 141 144 143 146 147 147 147 148 151 150 148 149 142 136 137 137 131 130 130 130 130 124 121 118 117 117 118 115 118 118 117 115 114 112 114 118 118 119 123 126 130 137 134 135 138 138 137 138 134 132 129 130 127 125 121 124 122 120 119 120 116 117 114 111 107 112 110 107 100 95 101 96 87 88 
129 134 135 140 144 144 143 148 147 148 147 147 149 147 147 151 151 148 148 138 135 134 132 129 131 131 130 125 122 119 117 116 117 116 115 117 122 116 115 113 114 115 118 114 121 130 129 135 139 139 140 137 135 136 137 132 130 128 124 124 124 119 125 123 119 124 120 115 116 114 114 113 111 110 104 105 101 100 95 87 
131 135 135 137 141 146 148 149 146 148 150 150 147 147 150 152 150 151 143 141 135 133 131 131 132 134 127 123 121 116 116 117 113 115 115 119 117 116 112 117 116 117 114 120 122 128 128 136 141 142 140 143 138 136 135 130 127 123 122 122 122 119 122 123 118 119 119 116 115 116 117 111 111 109 108 105 109 100 95 91 
134 134 140 137 142 143 145 152 148 149 149 145 150 152 154 152 153 148 143 135 134 135 134 132 132 132 125 121 120 115 117 115 113 116 118 119 119 119 114 116 116 118 117 118 121 128 130 136 140 141 141 143 139 136 136 133 128 125 125 123 120 116 121 121 117 116 115 115 115 119 117 115 112 108 111 104 107 104 93 97 
133 138 139 139 141 144 149 152 150 146 148 149 151 147 151 150 148 145 143 135 132 130 131 130 126 128 127 120 121 116 114 116 111 115 116 118 117 114 113 113 112 116 114 116 120 124 128 136 138 138 141 143 138 137 138 131 128 127 123 121 117 116 121 120 114 114 112 111 114 110 111 110 112 109 109 103 108 105 97 92 
132 137 139 140 143 145 146 150 149 146 149 143 149 149 153 149 149 147 141 136 133 131 131 128 125 126 124 122 118 116 112 112 112 111 111 113 119 113 113 114 115 116 117 120 121 124 130 139 138 138 138 138 137 136 137 129 130 129 123 120 116 119 121 117 112 115 113 114 114 111 110 112 113 111 109 106 108 105 100 99 
130 133 139 141 146 148 147 154 148 150 150 148 145 148 148 150 149 149 143 137 132 131 130 126 126 124 125 122 119 114 114 114 116 111 112 112 112 112 111 111 113 114 115 118 122 125 129 135 136 138 139 140 138 132 134 128 128 124 122 120 117 118 119 119 114 115 112 113 114 115 109 115 113 111 110 107 108 109 102 97 
126 133 136 143 144 146 147 148 150 151 147 144 147 149 147 150 143 144 139 134 130 133 128 128 123 123 124 120 119 117 115 116 112 112 114 114 117 112 111 113 115 114 116 116 121 121 130 131 133 138 135 139 136 131 134 130 131 126 124 121 116 117 119 118 115 109 109 109 115 111 110 111 113 106 108 106 110 103 100 95 
127 135 138 138 145 140 145 149 148 147 149 145 147 149 147 150 145 145 140 135 132 131 127 123 128 123 118 117 114 115 112 112 112 113 114 116 114 113 109 111 114 113 118 113 119 121 127 131 137 132 136 137 136 134 128 124 128 123 121 121 117 114 116 115 112 108 109 111 112 110 107 110 109 106 106 105 111 104 96 95 
127 131 134 138 143 142 144 146 143 147 145 144 143 142 147 146 145 143 137 132 130 130 125 120 119 119 120 115 116 110 111 113 112 113 111 113 113 109 111 111 110 112 117 112 117 119 127 135 130 135 135 135 135 128 130 125 126 125 119 118 116 114 113 114 113 113 107 110 110 108 109 109 106 108 103 105 102 105 98 99 
127 131 128 133 144 141 142 146 147 146 144 142 141 142 144 143 140 141 134 127 133 125 121 120 118 118 119 117 113 110 111 109 109 109 113 113 111 108 106 111 112 110 113 112 110 116 124 131 133 131 133 135 132 125 126 123 118 120 119 117 116 111 116 114 113 111 109 108 109 108 111 110 108 105 104 105 107 101 97 97 
128 131 132 137 141 138 143 146 144 145 143 141 138 140 141 138 136 134 130 128 124 123 120 118 120 119 115 115 110 110 108 108 107 107 106 108 111 108 104 110 108 107 109 110 112 115 118 128 130 129 131 134 129 127 127 125 120 120 116 115 113 115 114 116 111 109 106 107 109 110 109 110 106 106 105 105 104 103 99 97 
126 128 131 137 137 139 139 145 143 143 140 140 140 142 136 138 136 131 130 123 124 122 121 119 117 116 116 110 111 104 107 103 102 102 106 107 107 105 104 104 101 106 106 109 111 113 118 124 124 127 130 130 127 124 131 124 119 121 118 116 112 113 115 114 111 109 106 111 108 103 108 108 107 106 105 104 104 106 103 98 
120 126 126 135 140 140 137 139 142 140 136 140 136 140 136 136 132 134 125 123 118 120 117 113 112 111 110 108 105 101 97 100 99 102 97 103 101 98 100 98 101 100 101 107 106 110 115 125 128 122 128 128 125 125 124 123 121 119 116 113 111 109 114 113 111 110 107 106 108 106 110 105 105 108 104 102 106 98 96 95 
120 123 128 135 137 140 137 138 138 136 135 137 135 137 136 133 132 134 129 120 121 120 113 111 110 113 106 107 101 100 96 99 97 97 100 100 98 95 93 91 97 97 99 99 102 107 113 120 124 122 127 124 126 123 120 121 119 114 110 111 111 109 114 109 111 109 105 106 105 108 107 106 107 105 104 101 100 101 95 91 
117 125 128 134 135 135 134 138 135 133 134 136 134 135 134 136 133 130 129 122 119 119 115 111 110 108 105 105 101 99 91 94 93 94 96 98 97 91 90 88 95 94 96 93 97 105 111 116 125 118 120 122 124 120 119 115 113 112 108 110 109 103 105 105 106 104 106 109 109 108 106 102 104 103 100 98 100 99 96 97 
112 118 123 128 131 130 132 132 130 133 130 130 134 130 133 131 131 130 125 135 149 131 121 111 113 106 106 99 97 95 91 91 94 92 95 96 96 93 88 90 91 92 91 87 98 99 108 118 119 120 122 123 124 118 118 116 113 109 104 107 103 102 107 105 102 101 106 102 106 106 105 100 101 100 97 97 97 97 93 85 
113 117 119 123 127 130 126 131 126 129 131 128 129 129 130 130 131 128 126 146 176 151 114 108 109 102 105 101 96 91 89 88 87 92 99 103 101 98 91 93 93 92 92 94 99 102 109 115 114 113 118 121 119 122 114 112 108 105 101 101 101 102 105 101 100 104 105 105 106 101 100 99 103 99 97 94 99 95 90 90 
108 111 113 111 111 110 114 115 113 115 118 119 121 120 123 125 124 129 127 138 151 128 103 95 106 109 97 90 86 81 78 79 78 80 89 109 102 90 87 91 93 92 90 94 95 98 107 114 112 109 114 116 119 119 116 110 102 104 99 98 100 99 102 103 99 99 101 102 100 100 97 98 97 97 96 93 93 89 86 88 
103 107 109 102 102 99 98 100 97 97 99 98 101 103 105 109 112 116 119 117 113 106 97 91 99 94 88 83 81 80 75 71 73 75 77 84 85 81 87 92 92 93 92 90 93 97 102 110 110 108 110 117 113 114 112 106 101 101 101 99 101 99 100 98 98 100 97 99 96 99 98 97 96 95 92 94 91 88 86 83 
102 105 98 98 96 91 92 92 92 88 90 92 89 90 89 93 92 91 98 100 93 88 92 88 87 88 88 82 80 69 71 73 68 70 72 75 79 76 92 91 90 92 90 89 93 94 102 106 108 105 107 111 110 111 108 104 105 101 93 97 98 99 98 96 98 100 98 99 96 97 93 94 97 96 94 92 88 86 83 81 
97 98 98 92 87 86 84 85 86 85 85 84 83 87 83 83 86 82 82 83 85 82 84 86 82 86 86 83 74 74 68 71 69 69 68 67 69 69 84 89 89 89 89 90 91 88 97 102 102 104 105 108 104 105 102 102 99 96 92 94 96 93 98 97 96 96 97 98 96 92 92 92 97 96 91 90 90 86 78 74 
93 92 90 86 81 79 81 82 80 79 78 80 80 80 79 77 78 78 73 75 78 84 83 82 81 82 85 79 76 75 68 68 68 67 67 67 64 69 81 81 78 81 79 80 84 80 81 88 99 99 102 104 103 103 99 101 99 97 91 91 94 93 96 94 95 95 93 96 94 88 90 92 90 91 88 89 87 81 77 71 
90 93 84 84 79 77 73 76 79 72 72 73 78 75 74 71 72 71 72 73 74 78 83 83 79 79 83 78 81 77 70 69 66 64 67 70 68 65 75 75 73 77 77 75 78 77 69 61 69 73 83 95 96 97 101 103 98 93 92 95 91 93 95 90 90 92 91 90 88 87 88 92 84 86 85 81 82 76 71 69 
85 88 83 77 76 72 71 74 71 72 73 70 72 73 71 71 71 69 68 70 75 78 76 81 79 78 82 97 102 81 72 69 65 63 68 67 66 65 76 75 72 70 71 72 71 71 62 56 54 55 63 72 75 78 99 99 99 95 94 89 90 89 90 86 87 89 89 89 83 86 88 85 82 81 75 75 77 72 66 66 
84 87 78 75 68 68 67 69 71 66 64 65 67 67 67 63 64 66 60 70 69 76 74 74 75 76 84 114 112 89 76 64 60 61 59 61 62 58 72 72 67 67 70 68 64 62 54 45 42 46 52 64 77 84 93 96 95 88 87 84 87 85 87 87 84 84 86 82 83 80 80 84 74 76 68 71 71 69 62 65 
76 80 76 72 66 62 62 66 66 63 65 65 67 62 65 62 60 59 62 67 65 71 73 70 74 69 76 104 117 94 79 60 57 61 59 58 55 58 66 66 65 62 63 66 58 55 50 39 39 39 50 59 80 85 89 93 91 89 81 80 80 80 77 76 77 79 80 76 74 80 75 76 69 71 65 69 68 60 57 56 
77 77 72 66 65 60 58 62 61 59 63 58 62 61 62 56 56 58 60 64 65 68 71 68 66 67 71 95 127 92 74 56 55 56 54 52 49 55 59 62 59 58 59 58 53 53 44 32 36 38 45 52 72 82 88 88 82 85 81 75 80 80 76 72 77 71 77 71 72 71 73 72 69 68 62 64 63 58 53 55 
72 71 68 67 62 59 57 61 60 56 54 53 58 58 57 53 54 54 56 64 62 69 65 64 64 66 63 69 74 66 58 58 58 58 55 50 48 52 60 55 53 58 58 54 48 44 38 30 30 28 38 45 66 81 85 84 85 82 81 77 76 76 78 72 71 70 72 68 70 69 69 72 63 62 61 57 60 57 52 50 
71 69 72 63 58 57 57 56 54 56 54 51 55 53 51 53 50 52 55 61 63 65 61 62 61 62 60 55 54 50 54 52 57 57 53 48 43 49 54 52 51 51 53 45 42 40 35 24 24 28 29 38 54 71 81 82 83 78 78 77 74 76 72 70 75 69 73 69 70 68 65 67 66 59 55 56 57 53 45 49 
67 69 68 61 57 56 56 54 55 53 51 49 51 52 49 48 47 52 59 56 60 62 60 58 59 59 60 53 49 48 49 52 54 53 51 44 39 49 48 53 46 50 47 44 41 37 30 21 20 17 22 26 32 46 66 74 74 75 70 71 75 70 65 64 70 68 69 66 68 65 64 64 57 56 49 52 54 50 43 41 
68 67 62 57 53 52 51 54 51 50 51 49 52 53 47 46 45 48 55 59 58 58 57 56 53 54 51 48 46 47 45 50 50 50 48 39 36 45 47 46 42 41 45 40 37 32 29 23 15 17 17 21 22 23 37 59 71 72 70 69 70 66 61 64 64 64 62 61 69 65 61 59 57 55 50 47 49 44 37 39 
67 64 60 53 50 50 46 49 48 47 46 46 45 49 45 42 43 49 53 54 54 52 54 48 47 46 43 47 40 46 46 51 48 44 42 39 35 44 44 41 43 40 37 40 34 30 22 23 23 21 15 14 16 19 22 41 67 66 69 66 67 62 59 59 60 62 60 64 67 63 61 58 55 48 46 48 49 44 35 39 
64 65 59 56 53 51 45 49 48 47 44 45 47 46 43 42 43 44 50 51 51 51 51 45 40 39 37 42 57 71 66 44 40 40 39 35 35 39 42 41 40 37 40 32 31 26 23 20 22 23 11 12 13 14 23 28 55 63 60 65 61 59 60 54 59 55 59 60 61 59 58 53 48 46 40 40 44 38 32 39 
64 59 58 54 50 50 46 46 47 47 43 44 42 43 44 40 39 44 47 48 48 47 43 40 36 34 39 44 50 62 57 39 37 37 37 32 28 37 37 36 38 35 34 29 29 25 21 25 15 17 8 7 12 14 17 19 43 59 59 59 62 55 53 53 57 58 57 55 57 51 51 48 44 41 39 41 41 38 31 26 
59 58 54 53 53 46 43 47 45 44 44 42 41 39 38 36 38 41 43 48 45 41 39 37 38 35 36 29 32 30 31 31 30 35 30 30 30 32 30 30 29 30 30 27 27 23 22 29 18 11 7 7 3 10 9 13 29 50 52 54 57 52 54 51 51 52 51 52 53 48 48 44 40 44 41 33 34 31 28 21 
54 56 52 50 51 47 44 45 45 40 41 38 40 40 35 36 34 38 43 47 43 44 40 40 36 32 33 29 25 22 20 29 28 28 29 26 26 31 27 31 30 30 27 27 23 22 27 30 21 6 6 2 5 9 10 4 18 43 52 53 55 50 49 46 53 51 43 51 54 52 43 45 44 36 35 34 32 25 22 17 
56 52 52 47 48 45 43 45 42 40 41 38 38 34 33 36 32 34 42 45 44 44 41 42 38 36 34 32 27 29 26 27 24 26 26 26 29 30 29 25 24 29 27 26 25 21 23 32 23 8 3 2 2 6 6 4 9 28 50 50 50 48 47 47 47 44 48 44 51 47 45 43 38 38 35 34 28 24 21 19 
52 51 53 48 45 45 46 42 43 40 41 37 36 34 31 30 28 37 41 45 45 43 41 39 35 39 37 32 28 25 25 25 24 27 23 27 24 27 26 26 25 24 25 26 27 29 26 29 23 12 6 4 1 8 4 3 10 18 41 48 47 43 47 47 42 46 44 41 45 43 43 37 35 35 37 29 27 19 15 20 
53 54 53 49 49 44 44 45 42 40 42 34 35 33 32 34 32 34 40 46 41 41 42 41 38 38 38 33 32 28 25 26 22 24 25 23 21 24 25 22 17 21 25 29 30 32 26 25 23 13 7 3 3 6 5 5 6 12 32 44 50 44 42 42 40 39 36 37 39 39 34 32 36 32 29 25 21 15 17 10 
49 54 53 50 44 46 43 41 41 40 38 36 38 32 34 34 33 34 40 45 41 44 43 41 40 41 36 36 29 32 27 26 23 25 24 24 23 21 16 15 11 18 20 21 23 23 27 25 21 16 10 3 3 7 3 5 3 7 20 40 47 40 38 41 38 34 34 32 35 37 36 32 31 34 30 27 20 12 15 13 
48 50 53 48 46 45 44 45 42 42 37 35 36 38 32 33 30 35 41 44 42 40 42 40 41 37 36 32 30 31 28 27 25 27 23 19 22 19 15 14 17 14 19 21 21 27 26 20 18 15 10 7 1 3 4 4 3 7 16 37 41 37 39 36 35 31 31 34 29 31 32 29 29 30 27 29 23 13 12 3 
49 49 53 53 45 46 45 45 38 38 40 34 37 36 35 38 37 38 43 42 42 41 44 39 38 37 32 30 28 31 26 25 26 23 25 19 17 12 13 9 14 15 17 14 19 22 24 19 15 10 10 9 3 3 5 4 7 4 10 25 37 31 37 36 35 29 29 28 31 30 32 29 29 28 25 24 20 13 8 5 
50 54 54 52 48 44 45 44 43 39 39 40 36 37 38 42 37 41 43 41 43 39 38 37 36 39 33 32 30 28 26 27 24 25 24 18 17 15 13 11 13 15 18 13 21 20 23 16 16 9 9 17 10 7 5 5 6 6 9 19 30 33 34 35 32 34 28 30 32 31 27 26 24 24 22 20 16 12 8 8 
49 53 54 51 49 46 45 44 44 45 43 39 42 41 40 44 43 42 39 38 36 39 37 35 32 32 33 29 28 27 25 26 23 24 21 16 20 18 15 14 14 14 17 15 19 21 21 18 13 12 13 13 10 11 10 8 7 8 13 15 31 29 34 35 35 31 31 31 31 27 28 27 21 24 19 17 15 9 6 8 
52 54 53 54 52 46 47 45 44 44 44 43 45 42 44 45 44 44 41 40 35 36 38 38 32 33 33 31 27 29 25 25 25 24 22 20 24 23 17 16 15 18 16 18 24 23 22 19 14 14 17 16 15 14 12 13 10 12 15 19 30 33 33 36 35 34 34 29 29 28 29 23 27 22 17 18 15 11 9 0 
52 57 54 57 52 53 46 50 50 47 43 45 45 47 48 49 46 44 43 39 35 36 37 35 35 32 34 31 28 29 23 23 27 25 22 18 22 23 17 17 21 19 20 20 25 22 24 18 21 18 21 19 17 21 14 16 15 13 13 24 28 32 31 36 33 30 30 28 30 28 23 21 23 22 14 12 15 13 7 5 
55 59 58 56 52 49 47 49 47 45 46 44 46 44 47 47 47 47 43 40 38 37 37 34 32 36 35 30 29 26 25 27 25 26 27 17 23 20 15 21 17 19 21 20 23 23 25 19 21 23 25 20 20 24 21 20 16 19 23 28 30 29 36 36 34 30 31 29 29 26 28 24 23 17 12 12 16 12 4 6 
57 62 57 55 55 48 51 50 46 43 44 46 46 46 48 48 47 47 43 43 39 38 40 32 34 32 34 29 29 28 25 24 25 23 21 21 24 22 21 19 18 18 19 24 24 25 26 22 21 24 27 24 23 27 23 22 23 21 31 34 30 31 35 36 32 31 31 29 29 27 25 23 20 20 16 13 15 12 6 6 
62 59 59 57 53 50 52 48 50 47 48 47 46 51 51 52 48 48 44 46 37 40 40 37 33 35 35 28 30 26 23 25 25 25 23 22 22 22 20 20 16 17 22 23 25 28 25 24 23 25 27 22 26 24 24 26 24 30 30 36 31 32 36 36 33 33 29 30 27 25 21 26 24 24 19 12 11 12 11 7 
64 64 61 60 55 56 55 53 53 55 54 50 53 53 52 54 52 50 46 43 36 39 42 37 36 37 43 35 33 29 25 30 28 28 23 24 23 20 20 24 22 23 26 27 30 27 25 26 29 24 30 27 26 25 25 19 19 28 29 32 37 40 40 39 40 32 30 31 28 27 25 23 23 22 19 15 21 15 11 10 


