P2
80 60
165
143 137 145 143 141 144 146 146 149 148 154 148 145 145 147 149 146 144 140 137 135 136 133 133 133 129 132 128 128 122 120 124 120 121 123 125 120 118 115 115 112 112 108 111 112 115 114 111 111 113 111 116 116 114 113 116 108 108 107 105 103 104 101 99 101 102 96 97 99 92 94 91 89 85 85 85 80 83 87 84 
145 139 139 144 142 148 141 146 149 152 149 151 146 149 148 151 145 143 143 139 135 133 136 133 133 129 130 130 129 122 125 125 122 123 126 127 126 120 118 114 117 115 110 113 117 117 115 109 112 113 115 114 118 114 118 111 114 107 109 101 105 103 99 100 102 101 95 97 97 94 93 93 92 86 88 81 86 87 89 86 
146 134 144 141 138 143 144 145 153 148 148 147 147 149 148 148 148 148 141 137 135 136 135 135 137 130 133 132 129 125 124 126 127 129 127 129 126 128 124 123 127 119 120 121 123 122 120 116 119 117 116 115 116 114 120 116 113 111 106 103 108 106 105 102 103 101 101 99 104 98 93 96 94 90 92 85 84 85 87 81 
144 135 140 143 143 146 148 145 148 149 148 149 147 152 148 148 149 149 140 138 135 135 134 135 136 133 132 130 128 125 128 126 129 131 130 131 129 128 127 128 125 121 123 126 130 128 126 123 120 123 119 119 121 120 119 122 118 112 109 109 107 106 105 107 104 102 99 102 100 100 97 99 96 94 93 89 86 93 89 81 
144 138 142 144 144 149 153 150 148 150 151 149 149 152 148 150 150 148 144 140 138 133 136 137 139 135 135 133 131 128 130 132 132 132 134 134 132 125 131 127 127 125 125 127 127 134 130 124 123 126 126 129 124 125 129 121 118 116 118 107 110 111 107 108 109 104 100 105 103 104 104 103 99 97 98 93 91 92 93 86 
144 141 140 144 141 148 150 144 151 152 149 152 152 148 148 153 146 147 142 140 137 131 136 137 138 135 135 132 131 129 131 133 131 134 135 132 132 126 127 123 127 125 128 127 130 132 130 130 128 131 131 128 129 125 127 124 120 119 115 111 116 112 107 108 110 109 106 105 105 101 105 104 101 100 94 95 92 97 95 86 
147 140 140 143 143 149 149 151 153 155 149 149 149 149 154 151 151 149 140 141 136 137 138 138 135 132 136 131 132 128 131 132 131 132 134 134 130 127 127 125 127 124 127 128 130 131 126 132 137 135 132 133 134 129 130 126 126 121 120 114 116 113 111 109 110 108 107 107 106 104 103 102 104 102 102 96 94 98 93 92 
145 141 143 143 145 151 151 150 151 152 151 152 153 151 152 151 149 149 144 141 137 137 139 138 135 133 136 139 132 129 131 133 131 129 134 132 131 126 127 127 128 126 127 132 128 130 131 135 136 139 142 136 136 137 139 129 127 122 122 121 121 115 116 112 111 111 112 111 110 109 108 105 102 104 105 100 97 99 99 92 
146 144 144 144 149 153 152 149 149 152 154 151 152 148 152 151 153 154 146 142 140 139 141 136 137 136 136 136 135 130 131 136 135 129 134 132 131 130 124 128 126 124 124 125 130 132 134 135 136 140 142 135 137 135 138 134 127 124 125 121 124 121 118 116 114 116 115 111 114 111 108 110 106 105 108 101 102 103 100 99 
147 142 144 146 144 150 147 147 153 149 153 150 149 151 151 152 152 150 146 144 142 139 139 138 137 137 138 134 135 131 132 132 132 132 137 135 132 129 128 125 127 124 126 124 128 131 136 139 138 140 138 135 134 133 137 133 131 129 127 123 123 124 118 118 118 117 116 121 118 108 112 115 111 108 107 104 103 107 104 93 
145 139 146 144 148 153 151 150 148 154 151 151 150 148 151 155 155 151 148 145 136 137 142 141 138 139 137 136 135 134 134 136 134 132 134 132 133 130 128 127 124 127 129 123 130 133 137 138 143 142 140 136 134 133 134 130 128 128 126 119 125 118 116 118 118 119 120 117 117 115 115 117 116 114 112 109 106 110 106 95 
141 140 145 146 148 149 148 154 149 152 149 150 150 150 149 154 153 155 148 144 138 140 137 141 141 138 136 134 136 128 130 131 128 131 131 136 131 130 130 129 129 127 123 130 130 131 135 139 143 143 139 137 136 134 135 131 128 126 124 119 118 118 116 119 120 119 117 117 116 115 119 117 115 113 114 108 111 111 106 105 
147 140 142 145 150 152 150 153 154 153 150 152 150 152 156 152 155 152 145 141 137 137 139 141 138 135 133 135 135 128 132 133 129 132 134 134 130 130 126 129 126 127 124 130 128 135 134 138 141 143 140 140 139 134 133 132 127 125 124 120 114 116 118 114 119 113 115 114 114 114 118 115 110 117 116 111 111 113 110 104 
147 142 146 145 144 151 152 155 152 150 152 151 149 153 149 152 152 151 146 141 135 135 139 136 135 133 135 133 134 128 131 130 126 131 134 137 134 130 128 129 121 127 122 129 127 129 132 140 141 141 137 139 136 136 134 130 127 129 124 116 117 112 119 114 113 112 117 114 114 110 113 114 114 112 116 113 110 114 110 101 
143 143 143 147 149 151 150 154 151 152 151 149 151 151 152 151 152 149 146 141 136 135 134 135 134 132 135 136 134 129 130 131 129 131 130 132 130 128 125 126 126 124 125 130 130 131 131 138 140 141 139 137 136 133 135 127 125 127 124 116 117 117 115 115 115 115 113 113 114 113 115 116 115 115 114 110 111 114 111 113 
146 140 144 149 149 150 153 155 151 155 153 149 147 153 152 152 151 150 145 144 138 137 137 133 134 133 129 131 133 130 126 132 129 128 129 133 127 129 123 123 124 125 122 130 129 133 133 136 138 138 137 137 137 131 131 127 125 122 122 115 116 114 114 117 116 113 113 112 117 112 112 116 116 115 118 116 111 113 114 107 
143 141 142 148 148 154 154 151 156 153 151 150 150 146 149 153 150 146 144 137 137 135 135 133 134 130 133 130 134 129 128 130 127 124 130 132 130 126 126 124 125 125 125 124 130 129 131 133 135 139 134 137 132 132 129 127 130 123 120 116 115 119 115 115 112 109 111 113 112 107 112 115 115 107 115 110 111 112 111 104 
143 140 139 147 152 152 154 152 149 153 151 147 150 148 152 149 151 149 143 139 133 136 133 129 134 131 129 130 127 129 127 127 127 128 129 130 128 128 124 128 126 125 126 124 125 129 133 135 137 137 138 136 134 132 129 127 126 123 123 117 119 116 112 113 113 111 107 112 113 109 114 111 111 108 116 110 114 114 110 104 
140 140 144 143 147 151 149 151 153 153 151 147 146 145 150 152 149 145 141 140 139 134 133 127 130 129 129 131 130 123 127 128 125 129 130 131 128 129 125 127 127 124 125 123 123 126 134 139 137 136 133 131 134 126 129 124 126 121 121 114 114 113 113 111 112 110 110 108 112 112 114 116 113 109 110 111 108 114 109 107 
140 136 141 144 151 149 150 149 150 149 149 148 145 144 146 146 146 144 138 135 135 129 126 129 128 128 128 126 128 123 123 123 124 126 130 129 126 125 122 123 124 125 120 124 122 121 131 135 133 136 134 132 130 123 126 123 119 123 119 111 113 108 111 114 109 110 112 108 109 108 113 115 113 107 110 112 111 109 111 101 
139 135 142 145 146 145 145 146 148 149 145 144 143 146 147 141 142 140 136 133 128 127 132 125 126 127 123 126 125 122 121 121 124 124 123 127 125 121 119 122 123 116 116 119 119 121 126 131 132 134 132 131 129 124 129 124 121 119 119 113 112 114 112 109 111 108 110 105 112 113 115 114 108 108 108 109 110 111 110 108 
136 133 140 140 145 147 147 145 148 146 146 144 144 144 142 140 140 135 133 129 129 126 125 125 123 127 123 121 124 117 118 119 118 118 121 123 121 117 115 118 116 115 114 118 118 120 121 127 128 129 129 127 126 123 128 124 120 119 115 111 111 110 113 110 109 108 109 105 106 107 109 107 109 108 111 110 112 113 112 105 
133 133 133 137 144 145 143 139 144 141 139 138 142 136 139 135 137 139 129 127 124 123 126 121 118 118 121 119 117 113 114 117 112 113 115 116 113 114 114 111 111 112 110 115 111 116 117 123 126 125 127 127 125 120 122 121 120 117 117 106 108 110 109 110 111 108 106 109 106 106 109 108 106 109 105 104 109 107 109 104 
132 128 135 139 140 146 142 142 144 145 141 139 140 136 138 138 137 137 134 126 128 122 121 120 118 119 118 119 117 112 111 114 113 114 116 118 113 110 107 106 110 107 106 109 111 113 120 126 126 123 124 124 122 120 118 120 117 116 111 107 110 108 107 109 110 107 108 108 106 107 112 110 109 108 108 108 107 108 106 103 
130 128 133 138 141 145 142 141 141 140 139 137 141 137 135 137 139 135 133 129 126 128 121 120 119 116 118 116 113 110 111 110 108 109 114 117 111 106 106 105 107 102 108 105 108 110 118 117 125 122 119 119 123 119 118 116 114 113 111 106 108 104 104 104 106 106 108 109 108 111 108 110 105 104 105 105 105 105 106 97 
127 126 129 135 137 138 136 133 133 138 136 131 134 131 135 132 133 130 130 138 156 141 125 119 118 115 118 112 112 105 109 109 109 110 113 113 110 109 104 105 102 103 104 106 107 108 115 121 123 122 121 122 121 117 119 117 113 112 109 104 104 103 99 101 105 102 102 102 106 109 108 108 106 104 105 106 102 105 101 96 
126 119 126 130 131 135 131 132 131 132 132 131 127 132 133 131 135 129 130 142 165 145 116 111 113 107 111 114 106 101 98 102 102 103 110 111 111 107 104 107 108 102 101 103 106 111 114 116 117 117 118 119 117 115 119 115 111 106 104 101 101 101 100 99 98 100 103 104 103 100 103 104 103 99 106 100 103 102 101 102 
121 119 116 117 116 118 117 116 118 118 121 123 123 124 128 125 129 128 129 135 143 124 107 102 105 106 104 99 96 96 91 94 95 96 102 108 103 95 100 106 105 103 101 103 103 104 114 115 113 112 115 115 116 117 115 114 105 105 101 97 99 97 97 100 97 100 102 102 104 101 98 102 103 101 106 99 98 98 98 96 
118 112 113 109 107 107 102 100 103 100 103 100 101 103 105 105 112 118 122 119 112 105 99 96 99 97 97 91 93 87 87 85 88 89 93 96 93 90 106 105 103 104 101 101 101 103 111 111 110 109 111 113 111 112 116 109 107 102 103 98 98 97 96 96 96 99 97 99 96 100 98 103 99 99 101 96 94 100 96 92 
114 106 106 104 101 99 100 94 97 93 94 95 92 96 92 93 96 98 102 102 98 92 93 95 95 96 95 90 91 83 85 86 85 88 87 90 89 91 105 107 103 102 98 99 104 100 109 108 109 109 105 107 108 111 110 110 108 103 101 96 98 96 94 93 96 96 98 100 97 98 101 99 98 101 100 97 92 96 93 87 
108 103 102 97 92 95 91 91 91 90 91 88 88 87 88 85 87 87 89 88 89 89 90 94 92 94 95 94 90 85 83 88 85 86 86 82 81 83 102 100 102 100 99 98 98 96 104 104 106 107 104 107 104 105 109 106 103 97 98 96 93 95 92 96 96 95 97 96 97 95 95 98 99 94 97 95 96 96 90 92 
105 99 97 93 89 86 85 87 85 85 83 84 83 82 80 82 83 80 78 80 85 84 90 93 88 90 91 92 91 86 83 85 81 82 84 86 77 85 97 98 92 90 89 89 90 90 87 92 99 101 101 101 98 104 109 107 103 98 95 93 92 93 91 90 92 93 93 94 94 89 92 94 95 91 94 93 90 92 84 79 
103 94 93 89 87 84 81 79 80 75 79 78 80 77 78 78 76 75 76 79 82 82 88 90 90 87 91 90 96 88 84 84 83 81 86 87 81 81 90 91 89 87 86 85 82 84 73 67 71 76 79 92 92 96 101 107 98 93 94 91 93 92 94 89 89 92 91 93 89 91 92 94 91 91 90 92 88 85 82 77 
98 96 89 87 81 79 79 74 79 75 76 74 75 77 79 73 73 73 73 75 79 82 84 88 90 89 91 119 155 114 90 85 80 77 81 84 78 80 91 90 86 80 84 81 77 77 67 60 56 60 63 68 73 78 101 98 96 97 93 85 88 87 86 85 86 88 90 88 88 87 85 87 86 84 81 81 82 80 81 72 
92 90 86 82 79 77 73 73 74 73 69 72 71 69 70 70 68 69 68 76 75 81 79 83 82 84 95 130 156 138 109 82 78 80 79 76 74 74 85 85 80 77 77 77 71 67 58 53 46 53 53 58 77 83 95 97 95 92 87 81 86 83 82 82 83 85 84 82 86 79 84 87 81 79 81 76 75 76 74 71 
89 85 82 79 73 74 70 70 68 70 70 71 69 70 69 66 68 65 68 70 72 76 77 79 81 76 84 113 148 137 123 81 74 77 77 74 67 75 80 81 75 74 70 74 64 61 58 43 42 43 50 57 79 86 89 91 88 89 82 76 75 79 75 75 77 81 77 77 77 78 77 80 77 71 75 72 71 67 69 62 
88 84 82 77 74 70 66 66 67 68 68 64 67 69 63 60 62 62 66 70 74 76 78 79 76 79 77 97 140 136 102 79 71 73 74 71 67 69 77 76 71 69 68 68 63 57 51 37 39 39 45 52 77 83 88 87 84 87 79 74 80 79 72 70 75 77 75 72 75 72 74 80 72 71 70 68 65 65 66 62 
86 79 77 78 72 66 63 66 65 63 62 60 65 62 61 56 57 60 59 65 67 72 74 73 73 73 73 77 83 83 76 75 75 76 74 64 63 66 74 70 66 67 64 61 56 52 45 35 34 31 36 44 67 78 83 85 86 83 81 75 77 75 74 72 74 71 72 69 72 78 72 73 66 65 67 64 67 66 62 58 
82 74 77 71 63 62 63 61 62 61 58 58 59 52 57 52 54 53 58 62 66 68 66 69 71 72 69 67 70 68 68 68 73 70 71 65 62 64 67 65 62 64 58 55 48 45 38 27 28 28 29 34 54 70 85 79 79 79 77 72 73 73 74 68 75 72 74 67 69 68 68 72 66 63 65 64 60 61 62 55 
81 71 70 68 59 63 62 59 61 57 56 53 54 58 55 53 52 56 59 63 64 66 67 65 69 67 65 66 63 63 64 69 72 68 70 61 53 60 66 64 56 59 53 54 49 43 37 26 20 23 24 28 32 43 64 72 74 75 72 69 72 67 62 62 67 69 67 69 65 67 67 66 60 60 58 55 56 58 55 53 
77 71 72 67 60 62 58 55 57 56 55 56 54 57 51 49 50 52 53 61 62 66 64 66 66 62 60 59 60 59 62 69 69 68 65 56 53 58 63 58 54 53 50 51 46 37 34 28 20 21 19 19 21 23 36 59 72 74 73 69 70 67 60 59 65 63 62 64 68 67 67 66 57 54 58 53 56 53 53 47 
74 71 65 65 63 58 55 58 57 53 55 53 51 54 47 47 48 53 51 58 59 59 64 59 59 60 55 59 54 59 62 65 65 62 61 54 52 58 60 56 54 52 45 50 42 36 29 26 25 26 16 15 16 20 25 42 66 68 68 62 64 61 56 56 60 61 59 64 69 64 64 62 55 52 53 56 51 54 48 50 
73 69 68 63 60 57 51 52 50 52 49 48 52 49 46 46 49 46 55 54 56 56 57 54 54 59 60 53 67 81 71 61 57 57 56 51 47 56 56 54 51 48 48 41 41 35 28 26 24 28 12 9 13 15 25 30 58 63 63 61 62 57 56 53 59 55 61 62 61 59 58 62 51 53 48 48 47 49 48 41 
73 66 66 64 59 54 51 48 50 50 49 49 49 47 46 44 42 45 52 51 54 51 52 49 49 52 53 51 52 54 54 50 53 55 56 51 45 52 53 50 47 47 43 36 36 30 30 29 18 18 10 4 10 13 20 18 42 58 57 56 60 54 53 51 56 56 55 60 62 54 56 55 49 47 46 47 47 47 42 35 
71 63 65 64 57 54 53 52 50 51 51 45 46 48 45 41 45 43 47 51 52 49 51 46 52 47 55 51 47 44 43 47 50 50 47 49 45 50 46 45 43 41 40 38 34 33 29 32 17 13 7 8 5 12 13 12 29 50 55 53 55 52 51 49 57 56 52 56 56 50 53 52 48 48 49 39 40 39 41 39 
69 64 60 59 57 51 51 48 49 49 46 47 43 46 40 40 41 42 49 53 49 51 51 52 51 47 50 50 45 40 40 47 48 45 48 47 42 48 43 43 47 42 38 36 31 29 32 31 21 9 5 4 4 10 14 7 16 43 52 51 52 50 46 42 51 51 50 53 55 53 50 52 48 44 45 38 35 34 34 34 
69 61 61 58 56 55 47 48 46 49 48 43 43 38 37 39 38 39 46 52 48 47 47 49 48 44 45 44 43 39 41 45 42 42 48 50 42 41 43 41 39 38 38 33 32 30 32 35 24 10 6 2 0 3 9 5 10 26 48 46 48 44 45 46 49 46 49 48 51 45 48 49 45 41 42 38 32 31 33 24 
64 57 59 55 54 52 51 44 47 44 44 42 37 42 36 35 35 41 45 49 48 49 49 45 46 46 44 45 42 39 40 42 40 44 44 44 38 42 41 44 38 35 36 39 37 39 36 30 25 14 5 3 1 4 4 7 8 16 42 44 44 42 43 41 42 43 43 42 43 44 42 42 41 39 39 33 31 31 31 22 
62 61 58 58 52 51 50 48 49 45 44 41 39 37 37 39 38 41 45 49 48 48 48 48 46 44 50 47 43 38 39 44 40 43 45 43 39 40 44 39 33 36 38 40 40 46 37 33 30 17 7 2 4 3 9 4 3 12 33 42 47 43 41 42 46 42 38 38 42 39 36 43 38 35 36 34 26 25 27 23 
62 59 59 56 51 52 52 49 45 48 41 41 42 36 40 40 38 41 47 49 45 48 52 50 49 45 48 46 43 43 42 44 40 42 43 43 40 38 32 32 31 36 38 40 40 40 36 37 28 19 11 5 3 5 8 4 4 6 23 36 44 40 34 37 44 40 36 33 39 34 40 39 35 37 36 33 24 28 24 18 
64 58 60 58 55 52 49 49 45 46 43 43 42 40 38 36 39 38 46 48 47 47 48 49 50 44 46 45 46 40 42 42 44 43 43 39 35 33 30 28 31 32 36 37 39 39 39 33 28 19 10 5 3 2 7 6 2 8 18 34 42 37 36 37 38 34 35 37 36 33 34 33 33 35 38 31 27 25 25 17 
60 57 60 57 54 53 53 50 47 45 44 41 40 38 41 41 40 44 48 47 45 47 45 46 45 45 45 45 45 44 41 41 43 40 45 37 32 28 28 27 27 32 31 34 37 35 36 32 22 14 12 10 4 6 5 8 7 7 11 23 37 33 33 34 34 31 30 28 33 32 32 34 34 31 31 28 25 23 26 19 
61 58 62 57 54 52 52 47 47 46 45 42 38 41 40 41 42 44 47 49 44 47 46 49 45 43 43 44 44 39 41 45 43 44 40 37 30 28 25 29 29 36 31 32 36 37 33 28 24 14 12 14 7 4 6 8 5 3 9 21 31 31 33 35 33 34 33 32 33 31 32 32 28 27 30 26 23 27 24 19 
65 64 61 61 57 55 53 46 51 52 48 46 44 43 43 44 46 46 46 44 44 45 45 46 41 39 42 43 42 40 42 43 44 45 42 33 35 34 29 31 31 34 31 34 36 34 36 29 21 18 13 11 10 10 10 9 10 9 12 16 33 30 33 35 36 35 31 34 32 28 31 32 28 23 29 23 17 21 19 20 
65 61 65 57 59 57 53 49 51 46 46 48 49 46 48 45 49 50 49 44 43 42 44 45 41 42 42 41 41 43 36 43 40 44 39 36 39 35 31 32 33 34 30 35 35 38 34 27 20 19 19 16 13 14 14 12 7 11 15 20 30 29 29 35 33 34 34 31 31 29 29 27 30 28 26 20 19 21 21 17 
68 64 65 64 57 58 54 49 55 51 48 47 47 49 48 50 48 50 46 46 44 42 42 42 43 42 43 44 44 40 38 39 43 44 42 40 38 34 31 31 35 29 29 34 37 34 32 29 22 21 19 17 14 16 17 16 17 19 18 21 31 28 31 34 31 33 31 32 27 29 25 27 27 26 24 19 20 22 17 14 
69 65 69 64 61 56 54 53 53 56 51 50 50 49 50 55 53 53 49 43 43 42 43 43 45 43 43 40 42 39 38 42 42 44 40 40 40 39 31 37 33 33 31 31 36 32 33 25 22 25 21 20 21 23 22 19 18 21 23 26 30 33 33 33 32 35 32 31 28 26 30 31 26 22 25 21 17 20 17 15 
72 66 69 61 59 59 55 53 49 50 47 51 51 50 52 56 53 52 49 45 45 46 46 46 43 42 40 44 42 40 39 43 42 44 41 42 41 39 38 37 34 34 31 31 35 33 32 27 24 26 25 21 24 23 25 20 23 19 28 31 28 30 32 33 30 32 29 33 28 25 29 28 25 24 26 19 18 21 18 14 
75 67 68 64 60 63 58 52 50 52 51 52 51 53 55 54 56 54 50 48 44 43 46 42 46 44 43 41 44 38 39 45 44 39 44 41 38 36 35 35 32 30 31 35 36 36 32 28 26 28 26 23 23 25 23 22 24 31 31 30 34 31 35 31 35 34 31 31 26 24 26 30 26 24 25 22 21 23 16 16 
79 71 75 67 66 59 57 55 53 53 52 49 50 50 52 56 54 56 54 50 42 43 50 45 47 45 50 47 45 47 42 47 46 47 47 47 43 41 39 40 37 36 39 40 41 39 34 31 28 31 28 23 23 25 25 21 21 29 30 33 36 31 40 36 41 32 33 33 28 25 28 30 32 34 24 22 26 26 22 18 


