P2
80 60
160
147 149 148 145 144 150 147 149 149 150 155 149 154 148 148 149 145 149 147 145 145 140 141 143 144 143 143 137 137 136 136 134 134 135 139 139 136 142 138 135 137 132 126 129 126 131 134 132 126 127 123 130 125 130 130 127 123 121 119 122 116 118 111 114 107 108 106 98 103 102 100 94 89 93 93 90 88 87 86 97 
140 144 143 148 148 147 147 147 147 151 151 150 150 147 147 149 147 149 148 143 146 142 141 143 141 139 146 146 139 147 145 140 144 144 145 144 144 143 147 141 141 137 133 136 126 131 137 131 126 126 123 125 124 129 125 124 125 120 123 118 115 110 111 109 113 109 105 104 105 105 100 98 96 92 93 93 88 86 93 93 
139 143 142 148 146 151 145 148 152 153 153 150 151 148 150 153 148 150 148 146 150 138 140 137 139 139 143 144 143 149 144 148 145 146 150 149 148 150 149 147 146 150 142 141 137 141 143 138 135 131 127 127 129 129 134 126 130 129 124 120 118 115 110 110 112 109 109 107 108 107 104 103 96 97 98 94 91 86 85 89 
143 142 144 146 147 148 150 150 151 153 150 154 150 151 148 151 150 151 149 145 146 143 138 138 140 142 143 146 145 149 149 151 148 146 149 155 152 153 151 149 148 150 145 146 142 144 143 144 141 140 133 134 136 135 135 127 131 127 126 122 119 114 113 115 114 112 110 107 108 109 102 102 98 98 97 98 88 91 90 94 
140 147 148 147 146 148 149 149 153 150 154 157 149 150 149 151 148 150 149 147 142 141 142 139 141 141 141 145 146 148 146 148 146 147 149 153 155 152 151 151 146 147 146 145 142 144 145 144 142 139 141 140 142 138 137 131 134 130 127 123 123 119 116 117 115 114 113 109 111 111 107 104 100 102 101 100 96 88 90 91 
145 148 146 145 142 147 148 154 150 154 157 154 156 151 149 154 147 151 147 145 146 142 138 139 145 144 142 143 146 148 148 148 150 151 149 152 153 152 150 150 149 147 144 144 144 145 146 144 147 145 141 141 143 142 141 134 135 133 130 126 125 121 119 120 114 116 115 112 111 110 108 106 102 105 103 99 95 90 94 97 
139 140 144 147 146 148 150 153 153 151 153 156 153 155 151 153 149 149 151 147 146 140 140 138 143 141 146 147 149 151 150 149 151 148 151 149 153 153 153 150 144 146 143 144 144 147 144 144 144 152 148 147 146 144 142 140 138 133 132 128 127 122 122 121 118 115 117 113 117 112 107 108 108 107 107 104 96 94 93 93 
140 145 146 147 146 150 151 154 155 152 154 157 160 153 151 154 150 154 148 147 149 141 139 139 143 145 143 147 147 149 151 149 148 147 149 151 152 152 151 153 149 148 145 141 143 143 144 144 144 153 153 148 149 151 148 143 141 135 130 131 130 128 121 122 123 121 121 119 118 113 109 109 107 111 108 106 101 94 96 98 
138 140 144 145 145 146 148 152 152 152 154 156 157 154 153 154 154 153 156 150 151 141 141 136 143 143 144 145 144 146 146 150 148 145 144 149 151 151 150 147 151 148 142 143 145 144 145 143 144 151 151 151 147 147 150 142 144 137 134 132 133 130 125 126 125 121 122 121 120 116 113 111 112 110 112 106 102 100 98 100 
143 141 142 148 147 149 150 154 152 154 154 154 156 157 150 153 150 152 151 152 150 141 141 141 144 144 145 144 145 151 148 146 148 147 148 150 152 151 147 147 146 147 142 145 143 146 145 148 146 149 148 148 152 147 143 141 140 138 132 129 133 130 126 124 125 130 124 120 123 124 118 117 117 117 114 109 101 102 96 102 
140 140 146 145 149 149 152 154 154 151 153 157 154 151 156 150 148 151 151 149 150 142 140 142 147 142 144 146 146 150 150 146 151 145 146 151 151 152 151 148 142 145 145 141 141 144 143 144 146 149 147 150 146 148 147 137 140 136 130 133 127 122 121 120 127 125 126 121 123 118 121 121 115 118 113 111 107 108 100 99 
139 142 145 145 144 148 152 157 159 155 154 156 156 154 149 156 149 152 154 148 148 143 140 143 143 143 143 143 145 150 146 147 146 145 148 149 150 151 152 147 146 146 142 144 141 142 144 144 144 150 149 149 145 149 144 138 138 138 128 126 127 122 119 118 123 124 118 118 120 119 115 118 114 117 115 113 108 105 100 108 
140 140 145 146 146 152 154 157 159 154 153 157 153 154 152 152 150 151 152 149 148 143 139 142 142 143 143 144 144 144 146 144 142 143 149 149 151 148 151 148 142 142 142 141 140 140 139 144 146 154 148 149 146 147 146 135 137 133 128 127 126 122 120 121 119 120 119 117 120 119 113 122 115 117 113 115 107 108 104 105 
142 140 145 146 146 146 153 156 157 154 159 156 154 151 152 152 153 152 151 150 145 142 133 135 136 138 138 141 140 144 144 142 146 145 145 146 150 147 150 147 144 144 140 141 142 143 140 140 147 149 148 147 145 142 143 134 136 134 130 122 125 119 118 121 119 121 114 117 113 113 115 114 114 113 109 112 107 103 106 105 
139 137 144 145 147 149 154 157 157 155 158 156 152 152 151 152 150 152 149 149 153 142 137 136 138 139 138 137 140 142 144 139 140 144 145 143 148 149 148 146 143 145 139 140 141 140 142 139 146 153 147 148 147 145 144 141 134 133 128 127 127 123 117 123 119 118 115 114 117 114 113 117 115 115 114 113 107 106 104 110 
134 139 141 143 145 150 153 157 154 154 153 158 155 151 150 152 148 148 146 145 146 140 139 137 138 140 140 143 133 128 127 129 131 137 138 137 145 145 145 142 142 142 138 139 139 139 141 140 146 148 150 145 146 142 142 134 136 136 128 124 125 120 117 121 119 115 116 111 116 113 112 116 113 115 113 115 106 106 106 106 
142 141 138 141 142 152 154 156 155 152 153 153 153 151 148 148 148 149 148 147 145 141 138 139 137 139 139 141 134 117 114 112 112 112 113 119 142 143 147 143 140 141 138 140 135 140 136 142 149 149 145 140 143 144 142 133 135 132 129 122 124 119 116 121 117 118 114 110 113 112 114 115 110 113 111 113 105 108 102 102 
135 142 138 141 145 153 153 154 155 149 150 154 155 149 148 148 145 149 148 146 145 141 137 138 134 136 137 135 129 115 108 111 108 109 109 115 141 139 143 141 141 140 139 136 135 133 136 137 146 145 139 143 143 143 138 131 132 133 128 124 124 122 115 120 115 118 113 109 109 111 109 117 114 113 110 110 108 105 102 103 
133 133 135 142 142 148 150 152 154 150 151 151 146 146 147 148 145 145 143 143 147 139 133 134 137 133 133 135 125 115 109 108 111 107 107 121 139 142 142 142 137 143 139 138 132 134 134 134 140 146 142 138 137 141 138 133 131 127 126 120 119 119 114 118 115 116 111 110 108 110 110 113 110 112 109 112 108 106 101 106 
127 132 134 139 136 144 150 148 152 149 150 147 149 145 145 146 146 141 142 142 140 134 132 132 131 131 131 128 122 111 111 113 110 113 113 119 133 132 135 134 136 141 135 134 135 132 133 135 137 141 138 140 137 135 134 129 127 126 122 119 117 114 112 117 114 113 109 108 110 111 111 114 110 110 108 108 107 103 102 106 
129 131 133 137 137 147 148 149 150 149 149 149 145 140 142 144 138 144 139 139 136 129 127 127 130 129 130 131 118 113 113 116 118 118 115 119 120 117 112 116 129 134 133 133 137 131 130 133 139 140 137 133 135 137 134 127 128 131 119 119 119 116 114 114 113 109 107 107 109 109 110 109 106 103 104 105 100 102 99 95 
128 128 128 133 138 144 144 144 148 144 144 144 148 138 140 141 138 140 137 135 133 127 127 129 135 127 123 119 115 112 114 114 116 113 109 108 108 108 106 105 114 121 127 140 143 120 119 120 130 136 132 132 130 132 132 129 124 124 121 118 115 112 110 112 110 111 109 107 107 107 106 108 104 105 106 104 102 98 98 100 
125 125 127 130 132 145 144 145 146 144 142 145 140 139 138 141 137 136 133 134 126 126 123 130 152 141 112 106 107 112 108 102 102 103 103 103 103 102 99 97 106 118 126 120 113 102 108 103 106 107 113 122 124 127 132 127 123 119 119 116 114 113 112 113 111 112 109 106 107 109 105 106 106 106 105 104 99 102 97 101 
125 125 124 127 133 139 141 140 142 139 140 142 137 136 133 134 135 138 131 126 127 123 121 124 153 137 111 104 103 107 101 102 95 98 95 100 98 99 93 92 89 99 123 98 94 96 95 96 93 90 85 92 103 111 125 120 117 116 112 113 110 111 110 109 111 107 110 106 110 109 106 105 105 107 103 103 98 100 100 102 
125 124 126 123 129 136 138 140 140 137 137 135 135 133 132 137 134 135 129 126 127 122 118 121 144 119 99 96 96 98 96 93 94 92 94 91 91 94 89 89 86 86 91 86 82 86 91 92 89 86 83 86 91 102 114 115 114 111 108 110 109 109 109 109 109 110 110 107 108 107 107 107 103 103 103 103 99 97 97 96 
116 116 118 121 128 132 134 136 137 131 132 134 131 129 129 132 129 128 127 123 123 116 114 114 116 100 92 92 96 96 95 96 93 91 90 90 89 87 85 85 86 85 84 77 83 83 82 85 82 80 80 79 83 93 117 115 113 108 104 107 101 104 104 109 109 108 107 105 108 109 105 105 103 102 100 100 94 95 96 99 
113 115 117 120 124 125 128 127 128 126 126 128 131 127 128 128 126 129 126 124 124 120 115 111 97 94 95 90 93 96 93 93 91 89 88 89 86 83 85 87 82 82 81 76 79 80 80 79 80 79 77 77 78 87 105 114 110 109 105 106 102 103 105 101 102 104 104 103 105 105 104 104 101 100 99 100 94 96 91 94 
111 112 115 118 115 116 109 109 108 109 109 112 112 109 107 113 111 120 124 124 125 117 112 112 93 88 89 90 89 90 91 90 87 89 87 82 82 78 81 81 79 79 79 75 72 76 79 80 78 76 76 75 76 80 98 111 110 107 105 106 101 105 103 104 103 106 101 100 104 104 100 103 101 98 97 100 90 93 91 100 
111 112 111 113 107 106 103 98 99 94 97 99 98 96 95 95 93 95 102 107 116 117 111 104 86 84 84 87 87 91 90 87 86 85 85 82 81 82 80 82 77 78 74 71 68 73 75 76 76 75 74 72 76 80 95 104 103 103 100 101 99 99 100 103 102 104 97 97 100 98 97 101 100 98 101 94 94 95 97 97 
103 103 106 105 97 98 94 93 93 91 92 93 92 91 87 90 90 86 89 89 94 103 105 102 84 83 84 83 83 86 89 85 85 82 81 80 80 79 76 78 74 77 74 70 72 71 75 75 77 69 71 71 73 75 96 105 102 102 103 96 95 98 99 100 99 98 96 97 102 95 93 96 93 95 95 92 91 89 89 96 
98 102 102 100 90 91 88 85 83 83 86 88 87 83 84 83 83 82 80 80 84 92 99 95 81 78 84 84 85 84 82 80 84 82 79 81 80 74 78 77 71 72 70 70 67 71 74 72 72 69 66 66 70 74 91 103 101 100 98 95 94 96 97 99 99 98 94 95 97 96 94 95 92 91 91 94 88 87 84 87 
96 97 99 96 88 86 82 79 78 80 78 80 82 80 80 80 80 78 77 74 78 81 94 90 79 79 80 81 83 75 76 78 81 80 81 82 74 72 78 75 69 71 71 68 65 66 68 68 68 68 63 63 67 71 90 100 101 98 96 94 93 96 93 97 95 94 93 90 91 94 95 90 88 88 87 88 83 80 79 85 
95 94 97 91 87 78 80 73 76 71 74 71 71 72 74 76 72 71 69 69 74 74 87 84 77 78 77 78 76 71 70 71 77 76 78 77 73 75 74 75 69 70 66 65 65 64 66 66 62 63 62 62 62 70 80 90 99 100 96 95 88 90 91 92 87 89 86 87 89 89 87 85 84 85 84 83 80 77 77 85 
89 88 89 86 82 77 72 67 65 65 67 67 65 64 67 66 64 65 61 64 70 68 83 82 77 71 76 77 71 69 68 67 77 75 76 76 72 72 75 71 71 71 63 61 60 64 64 64 63 63 60 63 58 66 75 86 97 93 94 91 89 89 86 90 87 81 83 85 86 83 87 81 81 76 76 76 76 72 74 71 
84 87 87 85 77 71 68 63 62 62 62 66 63 61 62 64 61 60 57 61 61 65 81 77 71 76 73 73 71 66 63 66 71 72 74 71 67 68 72 70 64 67 57 61 59 62 62 65 62 63 59 61 60 59 80 91 92 95 91 86 84 84 84 84 83 80 78 74 75 80 76 74 79 76 76 71 71 68 69 76 
83 80 84 81 74 72 63 63 62 58 58 61 59 61 57 57 55 52 51 53 58 60 75 71 69 71 72 70 65 63 60 66 71 70 71 69 63 70 69 70 65 64 60 58 60 57 58 63 58 59 58 57 57 58 74 89 90 91 84 82 80 81 81 77 75 78 73 74 72 71 70 71 72 71 67 67 70 62 64 69 
81 79 79 78 71 65 62 59 59 56 60 56 57 54 50 53 49 45 48 50 54 56 68 66 67 70 72 70 68 61 66 71 74 69 69 66 62 65 65 65 60 64 58 61 58 57 57 58 56 57 53 53 53 57 77 87 89 86 82 80 79 78 78 75 72 72 68 68 69 67 70 67 67 64 64 62 61 59 60 62 
77 77 80 74 66 68 62 59 58 54 56 56 53 50 50 51 48 43 48 48 51 53 65 65 66 66 71 70 69 70 73 70 68 65 69 65 57 63 65 62 58 62 57 56 53 56 56 56 58 52 53 53 49 55 78 80 83 83 82 78 79 74 74 71 73 72 70 68 67 65 66 69 67 68 60 59 58 54 52 60 
75 74 74 71 64 64 57 57 57 53 51 53 55 52 49 49 45 41 43 46 48 56 61 60 63 67 68 70 70 71 71 73 73 67 66 67 54 61 64 59 58 60 56 58 51 52 56 57 54 53 54 47 47 50 67 74 80 81 78 78 74 74 72 71 66 66 65 65 64 63 69 63 65 62 57 55 52 51 56 55 
74 74 74 69 64 65 59 55 53 52 47 51 50 53 46 45 41 38 41 43 47 50 57 58 63 64 66 72 68 70 70 67 69 66 68 64 54 60 63 56 57 58 53 52 50 53 57 56 53 54 48 49 47 46 42 45 64 77 74 73 70 72 68 65 64 63 60 60 61 59 61 61 63 57 53 52 48 51 48 55 
70 72 71 64 58 60 54 54 50 48 48 50 47 47 43 43 38 40 37 38 41 49 57 55 58 62 65 66 70 69 68 68 66 64 64 61 60 60 59 56 53 58 56 54 51 51 53 50 50 50 50 47 47 40 31 29 45 70 67 70 71 68 65 66 64 57 56 55 57 62 59 63 59 54 54 53 47 48 42 49 
68 71 66 64 62 57 54 54 49 45 49 46 45 45 40 43 36 38 37 35 37 48 53 55 59 60 62 65 64 67 68 63 64 67 66 66 65 58 55 53 57 58 54 49 50 49 52 52 52 49 45 45 45 36 25 19 29 55 61 63 66 65 61 60 59 53 51 53 53 59 57 62 59 54 55 50 48 43 41 50 
68 68 67 62 58 56 52 52 48 44 44 46 41 40 41 39 36 35 34 36 39 44 49 52 55 58 62 62 66 67 65 65 67 66 65 64 62 57 56 54 54 54 52 50 52 49 53 53 51 48 46 45 39 33 18 18 21 42 57 63 66 62 65 59 53 51 52 56 53 54 56 60 55 51 48 47 46 42 41 48 
66 66 62 59 59 55 52 50 46 45 47 47 40 42 39 40 30 32 32 32 37 41 47 49 53 55 56 57 62 60 62 60 65 64 62 62 61 57 54 57 53 53 51 51 53 52 54 53 49 46 45 44 37 29 16 12 14 26 51 57 59 57 56 59 51 49 47 49 52 52 54 53 53 48 45 48 45 43 39 41 
60 63 61 58 54 58 53 49 48 46 46 45 43 43 37 35 31 31 31 33 34 42 48 50 54 56 52 59 56 57 55 62 62 58 64 59 57 52 56 53 52 55 50 52 50 50 52 52 49 43 42 40 42 27 11 10 5 12 37 49 54 58 56 55 46 49 45 49 50 54 49 55 49 47 43 43 39 40 36 39 
60 62 61 60 54 55 53 46 48 45 45 42 41 41 37 35 31 30 31 31 34 43 45 46 49 48 54 58 53 51 50 58 59 58 58 58 55 53 59 51 50 50 50 50 47 53 52 48 46 45 42 40 36 24 9 4 7 8 29 44 49 55 50 53 46 45 47 46 47 47 49 48 45 45 40 38 37 37 33 32 
60 61 62 57 55 57 51 46 44 46 42 40 37 39 36 33 27 30 29 30 31 41 41 45 47 43 51 55 51 52 46 58 61 55 55 53 52 51 53 52 50 50 49 50 49 50 51 49 44 38 41 37 33 18 9 3 3 5 16 41 47 52 50 46 45 45 44 45 44 45 44 45 41 40 37 38 35 34 31 35 
56 60 58 57 54 54 51 47 45 45 44 41 40 36 33 32 30 29 30 27 35 37 43 47 43 46 56 50 45 44 44 53 53 55 55 51 49 51 52 49 49 49 47 48 47 52 51 47 41 35 35 38 32 17 10 0 5 8 7 30 43 49 46 43 42 42 40 40 38 39 40 38 37 35 36 37 36 28 27 27 
58 59 57 55 51 52 50 47 43 42 43 40 36 35 34 32 26 29 31 26 33 39 41 43 49 49 53 50 44 37 45 52 58 56 54 49 51 53 51 52 50 49 45 45 50 49 46 46 41 36 37 38 26 16 5 1 5 4 6 18 35 42 43 43 38 39 38 36 37 35 38 39 36 32 33 35 33 29 25 27 
57 55 55 55 53 50 49 45 42 40 42 38 41 38 33 33 29 28 34 33 34 38 40 43 50 51 50 45 42 39 42 53 53 56 55 50 53 51 52 47 48 49 45 42 44 47 47 48 40 37 32 34 32 13 4 1 2 2 8 8 28 43 39 39 35 37 37 31 33 36 32 37 33 31 32 29 26 24 25 26 
54 56 53 54 53 54 50 49 46 41 42 40 41 38 37 35 31 32 39 35 39 39 42 45 49 49 50 50 49 45 49 55 59 56 54 47 50 50 50 51 46 46 44 46 43 47 45 45 42 38 35 29 26 19 7 1 4 6 4 8 18 39 38 39 37 36 35 31 31 32 32 37 29 32 31 31 29 27 22 25 
56 60 57 56 52 56 53 48 46 46 40 40 38 40 35 37 34 35 39 40 41 39 38 44 47 47 49 53 50 53 57 59 56 55 51 47 50 49 51 47 47 45 44 44 41 45 44 42 41 37 35 31 28 14 12 6 7 7 5 7 15 31 35 32 34 35 31 29 33 30 30 33 28 27 26 26 27 26 21 24 
58 65 59 56 55 53 51 50 46 44 45 42 43 40 35 37 38 41 41 42 45 41 41 40 45 46 49 51 52 55 55 56 56 54 53 48 49 49 51 50 45 43 43 40 42 45 41 41 38 37 32 27 24 17 11 9 6 7 9 11 13 22 28 34 31 34 34 31 30 32 30 30 28 29 23 27 23 22 17 23 
59 60 62 60 55 53 50 52 48 45 46 44 43 43 41 42 39 39 42 38 46 41 41 44 46 45 49 50 50 57 56 53 55 54 48 50 46 49 50 47 43 47 43 41 40 46 43 40 36 35 33 29 24 17 18 14 11 10 11 15 19 20 30 35 33 35 34 30 30 32 31 32 27 23 27 23 20 17 14 20 
65 63 65 61 59 59 51 54 49 48 44 48 46 42 43 46 42 43 42 44 46 43 38 41 45 44 43 46 53 55 53 54 56 52 52 49 48 48 46 44 43 43 40 37 38 38 43 36 39 35 30 27 21 21 21 16 17 12 16 13 21 28 29 31 33 38 35 28 28 31 29 29 25 26 26 26 20 20 13 15 
64 63 66 67 60 61 56 54 50 48 48 46 49 42 44 44 41 43 42 45 45 43 42 42 43 45 48 49 49 51 53 52 52 53 50 52 46 46 48 44 42 45 39 37 39 36 39 38 34 33 31 26 24 22 24 19 18 19 20 20 25 29 31 32 35 33 30 28 27 27 25 30 22 24 24 21 17 12 10 17 
66 67 64 65 63 60 56 57 52 47 47 47 46 45 44 45 40 43 46 44 45 43 38 41 43 46 49 49 49 52 52 51 55 54 49 46 47 45 47 44 42 43 40 37 37 40 36 39 33 31 26 26 25 27 23 22 22 20 18 22 26 31 29 32 32 30 29 28 29 27 24 28 26 23 22 24 15 14 11 15 
68 67 66 68 64 63 54 56 52 48 46 45 43 41 43 43 42 44 45 46 45 44 40 43 43 46 46 48 48 49 51 51 50 49 50 47 49 46 44 46 44 45 39 38 38 37 37 38 35 33 29 26 24 24 23 22 20 24 21 28 29 29 29 28 31 29 27 23 25 26 27 25 25 20 23 18 14 13 15 17 
71 69 68 67 68 64 60 63 54 48 47 49 49 44 44 40 44 45 44 45 50 45 41 41 44 44 47 51 52 56 53 51 55 50 48 49 49 50 49 47 44 43 42 41 37 39 37 35 34 31 31 29 28 32 29 23 25 24 25 30 35 31 30 30 30 30 27 25 28 28 28 24 23 20 21 21 17 14 17 20 
75 69 69 68 69 63 61 64 58 55 54 50 51 46 46 44 47 51 53 57 52 48 46 45 45 48 51 55 55 59 56 50 56 48 46 48 48 50 46 46 46 45 41 40 39 37 35 30 33 30 32 27 29 31 32 29 26 30 30 37 39 37 35 33 31 29 32 27 31 30 32 31 29 27 27 20 22 24 18 25 


