P2
80 60
164
136 130 132 135 133 139 138 138 138 141 146 144 146 144 141 136 140 135 134 130 130 121 118 113 108 109 107 110 108 107 110 104 109 105 108 103 97 97 99 97 94 93 91 88 91 87 86 84 80 86 84 83 87 85 85 78 82 82 79 81 80 81 81 81 76 65 61 58 67 63 57 53 54 55 56 54 55 54 49 44 
134 127 130 136 134 140 136 141 145 145 148 148 149 150 140 141 144 146 140 138 130 118 112 110 111 109 107 111 107 106 107 105 110 110 106 104 101 99 100 98 97 92 93 93 95 90 88 88 85 88 87 86 87 83 84 87 82 85 83 82 84 82 81 81 78 68 62 62 64 67 59 56 54 51 52 49 53 53 46 40 
131 130 132 131 138 136 139 141 146 144 148 149 151 146 145 142 145 147 148 140 129 119 115 110 110 107 107 110 110 106 109 104 106 107 105 106 100 101 100 98 97 95 97 93 93 90 89 89 86 88 86 86 88 87 89 84 86 87 86 84 81 82 80 80 75 68 67 63 64 64 60 56 53 49 47 45 49 44 40 36 
136 129 131 138 142 142 142 141 144 146 149 146 150 149 144 143 145 148 164 153 127 117 113 111 109 109 109 111 107 106 106 107 108 111 107 103 99 102 99 98 94 93 95 95 96 92 92 90 91 91 92 89 89 92 89 85 86 85 87 85 82 80 78 82 75 71 66 60 65 60 59 54 55 49 45 42 43 38 39 32 
129 130 131 134 139 142 141 143 145 146 145 149 150 145 143 141 146 154 157 156 129 116 108 106 110 112 110 110 104 106 108 110 107 107 107 106 101 101 100 102 96 97 98 94 95 90 89 90 89 91 90 90 88 89 88 83 84 85 84 82 81 80 75 80 74 67 64 57 65 65 58 48 47 45 41 42 41 36 33 28 
133 128 135 134 139 140 137 148 146 148 152 152 151 148 145 144 150 156 161 149 126 117 111 107 108 108 108 107 107 107 113 109 108 106 105 104 102 100 98 99 96 95 94 96 96 90 87 89 91 91 87 91 86 86 83 86 86 85 83 81 78 79 80 78 73 67 64 59 62 61 56 54 49 45 41 37 38 34 29 25 
132 129 132 137 136 138 142 143 147 149 150 148 153 150 143 143 153 157 151 138 123 117 112 107 107 110 111 111 106 109 108 105 108 106 104 104 104 100 101 96 96 94 95 95 92 90 92 89 89 89 85 89 85 89 84 85 85 83 82 79 82 80 79 81 72 68 67 62 61 62 57 55 52 48 41 37 37 33 25 21 
132 128 130 137 141 143 141 147 148 152 150 151 150 153 148 146 149 152 141 128 119 113 109 108 105 106 109 107 106 107 107 110 107 108 106 105 101 101 96 95 98 97 95 94 95 90 90 88 89 90 87 90 84 82 80 81 81 79 80 77 80 81 76 76 70 65 63 55 62 59 59 52 52 45 37 37 35 31 25 25 
131 124 134 135 134 139 143 146 147 149 148 153 154 153 148 148 149 144 134 120 114 113 111 106 102 106 105 111 106 108 108 106 107 105 105 105 102 100 101 96 95 95 94 95 95 92 90 89 87 89 87 87 85 81 81 78 80 76 79 78 76 77 76 74 65 65 57 58 57 60 55 55 49 44 40 33 34 28 27 16 
130 129 132 136 133 138 141 151 151 152 150 153 153 150 146 146 146 140 127 115 111 111 109 109 105 107 109 108 106 104 108 109 110 106 105 106 103 99 99 97 94 95 93 91 91 89 93 87 88 87 85 82 86 82 81 81 81 79 75 75 76 77 72 70 67 60 58 56 61 58 47 49 47 44 38 31 30 25 21 15 
129 125 132 134 136 141 143 148 150 148 151 153 153 150 146 140 142 132 118 108 111 107 110 107 109 106 105 106 104 104 107 104 105 107 103 104 99 100 98 99 93 93 90 89 92 91 89 87 88 88 89 86 84 85 81 82 80 79 79 75 72 72 71 73 68 62 58 56 57 59 52 51 45 39 36 31 28 21 15 8 
130 128 133 134 135 141 145 148 151 149 148 150 151 149 146 143 134 117 114 110 106 108 108 101 106 104 105 106 105 104 105 104 103 106 104 102 100 100 98 96 94 91 91 90 87 87 89 86 85 87 85 83 82 81 84 80 77 77 75 76 74 71 73 70 63 57 58 52 57 54 48 50 46 43 34 29 28 19 11 9 
128 129 132 133 133 138 146 151 149 150 147 150 150 150 143 138 130 112 106 102 104 105 104 103 102 104 103 103 102 103 104 106 101 103 104 103 98 99 94 94 90 94 91 89 87 86 85 87 85 83 84 83 83 83 80 79 79 75 73 71 72 73 73 69 65 58 54 50 53 53 48 47 44 39 33 29 22 16 12 3 
128 125 130 132 137 143 144 151 152 149 154 151 153 150 146 137 126 107 105 103 103 107 107 103 104 102 103 105 103 102 104 105 106 106 104 102 100 98 96 93 91 91 88 88 88 86 87 88 87 86 83 82 82 82 80 80 78 75 73 74 72 73 69 70 61 58 57 50 53 52 48 46 43 39 38 27 22 19 7 3 
126 127 130 134 135 143 149 149 152 150 151 152 151 150 143 140 123 107 102 103 102 103 103 102 101 102 103 101 103 103 104 101 105 102 102 100 97 98 96 92 91 89 90 88 85 87 87 86 82 84 84 83 82 83 79 80 75 74 73 72 70 69 70 69 61 54 55 51 53 52 49 45 42 38 32 27 24 17 8 5 
125 124 131 131 136 140 146 149 150 153 151 152 148 147 142 137 119 104 100 100 100 107 101 99 103 102 103 104 102 100 102 101 103 102 103 99 97 95 92 92 92 91 91 88 88 84 88 84 87 84 88 84 84 80 80 79 76 76 74 72 74 71 70 67 58 51 50 50 52 50 48 42 43 35 35 27 24 17 12 9 
125 120 124 131 132 140 147 150 147 151 146 153 149 146 138 134 117 101 96 99 103 104 104 97 101 101 104 101 100 99 99 99 102 100 103 98 97 94 96 93 91 90 91 90 86 85 88 83 84 81 82 81 82 78 79 77 76 76 73 72 71 71 68 67 59 51 48 51 49 49 46 44 40 37 33 24 22 19 8 7 
123 119 125 127 132 139 145 147 149 144 147 146 147 141 139 133 113 100 99 99 101 103 101 102 95 98 100 97 100 95 97 100 98 103 96 96 94 96 95 90 86 89 91 87 84 84 82 86 85 85 81 81 78 77 79 75 70 68 71 70 68 67 69 63 56 48 47 46 49 49 48 46 42 37 32 29 24 16 11 5 
121 119 124 124 132 140 143 145 150 147 145 148 147 142 138 129 111 98 95 97 97 97 102 98 99 96 94 95 95 96 98 94 97 97 100 97 96 90 91 90 89 91 91 85 85 84 82 83 85 81 79 82 80 77 75 74 74 71 71 71 67 70 64 63 57 51 48 46 49 47 45 48 41 38 29 26 25 16 9 6 
119 118 121 123 128 139 142 144 146 144 142 143 144 141 135 125 106 95 95 94 94 99 100 97 95 98 90 92 91 94 95 93 96 97 95 93 92 89 91 89 86 88 88 85 84 85 81 79 80 80 79 78 77 78 74 75 73 70 69 69 70 69 65 64 55 50 50 51 49 47 43 43 41 36 29 28 22 12 7 5 
115 117 120 124 128 137 142 141 141 142 145 145 142 141 136 122 101 91 88 88 92 96 96 92 96 96 93 94 92 95 95 89 91 90 92 92 91 87 91 87 85 85 88 89 86 84 82 83 80 81 76 75 74 72 74 71 73 69 69 68 68 65 67 62 57 51 47 48 51 48 42 45 39 39 26 22 23 15 7 4 
116 110 114 119 124 137 138 139 139 138 139 141 140 136 132 117 100 88 90 91 94 95 95 94 91 96 90 90 88 90 90 84 83 82 87 85 85 86 86 87 83 84 84 86 86 83 84 84 81 81 78 75 71 71 72 72 69 67 69 62 66 64 65 65 55 50 46 50 52 49 43 44 39 38 28 23 17 10 8 2 
114 114 113 119 125 135 139 138 139 141 136 140 138 134 127 111 96 87 85 89 91 94 95 91 90 94 91 90 90 88 86 79 75 78 78 78 78 79 79 82 78 80 81 84 84 80 84 82 81 78 79 76 73 72 68 69 68 66 67 61 64 64 62 63 55 51 50 47 51 50 42 41 39 34 27 23 22 15 9 5 
109 109 114 114 121 130 134 134 136 135 134 136 132 131 126 109 92 88 86 88 90 94 92 92 88 88 91 89 89 84 80 77 74 78 77 74 76 70 74 78 75 79 74 77 80 81 81 78 80 78 76 76 71 70 71 70 68 66 67 61 67 66 61 61 53 49 48 49 46 50 42 40 38 35 27 25 20 13 9 0 
107 105 111 118 119 133 131 133 131 133 132 134 130 129 124 100 90 83 85 83 87 89 90 88 86 89 86 87 79 77 78 74 74 74 73 73 70 69 71 79 78 80 74 74 74 77 80 79 81 79 74 72 74 69 70 69 68 67 64 63 62 65 62 60 54 51 49 46 48 46 39 39 42 33 28 23 21 13 13 2 
107 106 107 114 115 128 131 131 129 131 130 130 129 128 120 99 87 85 84 84 86 87 89 86 85 90 86 84 79 77 78 71 78 74 74 71 71 71 71 74 76 76 78 77 73 77 81 79 81 78 78 77 73 71 67 67 67 66 64 62 61 63 62 66 55 48 47 43 48 44 39 37 39 32 28 22 18 14 13 3 
102 98 106 110 112 120 119 120 121 125 125 129 129 125 117 97 83 79 81 78 82 85 89 87 88 86 85 83 80 74 73 74 73 72 72 72 77 72 77 73 76 77 74 74 75 76 75 77 76 79 73 75 73 71 69 67 65 65 64 63 64 64 62 62 56 51 48 44 47 43 40 36 39 30 27 21 19 14 6 1 
98 98 103 102 101 104 104 103 105 106 106 111 109 107 102 92 85 80 81 81 85 90 89 86 86 84 86 78 79 77 74 73 73 71 70 68 73 75 78 75 79 79 79 75 77 76 78 77 76 79 80 74 71 70 66 67 61 62 64 59 62 63 60 62 54 56 51 44 46 41 41 37 36 35 27 25 21 14 8 1 
96 94 99 95 95 96 95 95 93 93 95 98 97 93 84 83 82 79 80 83 84 86 90 87 82 86 86 81 77 70 70 71 70 71 65 64 70 72 79 78 77 81 77 75 74 73 74 74 74 74 74 75 72 69 67 66 63 62 62 63 65 62 61 64 54 52 52 45 45 40 38 34 36 31 26 21 18 13 4 3 
90 91 94 93 90 90 89 86 90 85 85 91 89 88 82 78 78 77 84 82 84 85 90 84 84 82 85 83 77 68 70 73 73 70 65 65 70 75 77 78 74 78 78 71 76 76 74 76 76 76 75 74 70 70 64 66 66 64 63 61 60 61 60 59 56 54 51 48 44 41 40 33 33 34 21 23 18 12 6 2 
85 85 93 91 86 84 83 79 80 77 80 86 85 83 78 77 77 77 81 81 82 86 88 82 85 88 82 83 79 70 72 71 76 72 69 64 66 73 74 78 73 77 73 75 74 73 74 75 76 78 73 73 68 69 68 66 64 64 62 62 60 63 61 58 55 53 51 45 41 41 37 36 33 27 25 22 18 11 12 5 
84 87 85 88 82 79 74 78 76 79 76 77 80 77 73 73 74 74 81 79 85 84 87 85 85 87 86 88 78 71 72 69 72 71 67 66 68 73 74 78 76 78 76 75 73 75 74 73 76 78 72 71 70 69 70 70 63 65 62 59 61 60 62 62 56 52 52 43 42 39 38 36 33 31 26 22 19 13 14 6 
79 79 82 81 76 74 69 69 70 65 68 69 71 70 67 70 72 76 78 79 85 87 89 88 85 82 84 82 78 74 69 71 66 66 63 63 65 73 74 80 78 79 75 73 75 72 74 75 73 77 70 74 72 70 70 69 65 60 60 59 59 61 57 57 53 50 50 46 43 40 39 35 34 30 24 23 18 15 8 5 
73 77 75 77 68 68 64 64 62 63 65 67 70 67 67 69 74 76 78 78 84 89 89 85 87 84 84 86 77 69 71 67 67 70 66 66 66 71 75 80 78 78 77 76 74 74 72 75 72 74 73 75 73 70 70 70 64 63 62 61 61 57 60 56 52 51 50 46 40 43 35 33 33 29 20 24 21 16 13 3 
72 72 75 74 67 64 60 59 57 60 62 63 63 60 63 66 73 74 77 77 79 85 86 79 81 83 83 81 79 67 67 67 63 66 64 69 67 70 79 81 77 78 75 75 74 71 73 74 74 73 70 72 70 66 63 65 64 63 61 60 57 58 57 53 51 53 49 42 41 41 32 35 32 28 23 21 23 20 14 6 
72 67 67 67 63 61 59 55 53 55 57 59 62 55 60 65 71 74 76 77 78 80 81 80 83 85 81 81 78 68 68 68 63 67 66 66 71 76 82 81 80 76 74 74 74 72 73 75 72 70 69 72 69 63 64 63 65 60 59 59 59 60 57 52 50 52 47 46 40 36 35 34 27 23 21 21 17 17 6 4 
68 67 72 70 64 61 58 56 52 52 55 56 58 53 58 68 75 71 78 80 82 84 83 80 83 82 90 81 84 71 66 65 64 63 65 69 73 76 83 80 80 81 78 75 76 77 73 76 73 72 71 68 69 66 68 64 65 60 65 64 62 59 57 52 51 55 50 47 39 38 36 35 30 24 21 18 16 8 8 2 
68 65 67 64 59 55 57 53 50 50 50 53 53 49 56 65 74 77 76 74 80 78 80 81 82 82 86 85 86 74 67 65 67 67 67 71 77 81 83 81 77 76 75 75 74 75 72 73 73 72 71 69 67 68 68 66 64 62 66 64 60 57 58 50 48 52 52 42 41 37 36 33 26 23 23 19 15 9 6 1 
65 62 63 62 54 53 54 50 50 50 50 49 50 51 56 65 73 71 74 76 80 78 83 81 83 84 85 84 83 81 71 63 65 65 71 77 83 80 83 79 76 77 76 74 78 76 74 73 72 71 70 70 68 67 66 65 63 61 63 64 60 58 55 52 53 52 51 42 42 39 36 29 29 25 22 18 16 12 5 2 
62 60 61 57 49 50 53 49 45 48 47 47 47 48 59 65 68 71 73 73 79 81 87 84 85 84 84 84 87 86 85 71 73 75 83 83 82 80 81 79 75 76 75 75 72 73 74 72 72 74 72 70 68 65 66 68 64 63 62 61 59 59 55 50 53 52 54 42 44 38 35 36 32 24 22 20 16 14 7 2 
64 58 60 52 50 52 51 44 45 47 46 47 46 50 56 66 70 71 68 74 80 81 80 80 81 83 87 84 89 85 87 82 82 85 85 84 82 82 80 78 76 76 77 75 79 75 72 73 72 74 73 73 70 70 70 67 62 59 62 58 62 62 54 48 50 50 54 41 42 38 35 34 28 27 26 23 22 15 7 5 
54 53 54 53 48 47 45 45 42 42 42 48 42 45 56 68 71 71 71 74 77 80 78 79 83 83 83 83 87 85 86 82 83 84 87 86 80 81 83 78 76 79 81 78 74 76 75 71 75 72 70 71 72 70 69 67 63 64 61 60 60 62 56 47 49 50 48 42 39 39 33 34 30 30 23 16 20 15 8 5 
56 54 51 51 43 44 45 43 41 43 42 44 41 46 56 67 71 69 73 73 75 79 80 80 81 83 85 79 85 87 86 82 84 86 86 84 84 80 82 78 76 77 80 78 81 77 76 77 75 76 74 72 68 69 68 65 64 62 67 60 62 61 52 47 49 54 50 40 38 36 33 36 29 27 25 18 21 15 9 8 
57 50 52 49 45 46 46 43 38 42 37 37 44 50 57 64 71 71 70 70 77 80 81 80 83 82 82 82 83 86 88 86 85 83 87 84 86 80 83 77 79 80 79 79 80 80 78 80 74 75 75 72 69 65 71 67 64 65 66 65 62 62 54 50 52 52 50 42 42 39 35 36 32 28 27 24 21 21 16 12 
53 46 48 45 42 46 46 40 44 39 40 40 39 47 57 63 68 72 71 73 78 78 82 83 81 81 80 86 84 88 85 84 85 85 89 86 86 83 80 81 79 81 78 81 82 79 79 78 76 74 75 77 72 70 68 67 62 68 65 60 59 59 53 49 53 53 51 41 40 39 37 37 31 28 27 22 21 22 16 17 
57 45 50 48 44 43 43 40 38 39 40 39 40 48 56 62 67 70 72 76 78 81 82 79 80 83 80 84 81 84 84 84 86 85 85 85 83 84 82 78 79 79 81 82 82 82 82 79 74 75 73 75 72 69 68 66 63 68 65 62 59 59 50 47 52 54 50 42 39 36 40 35 31 29 25 24 22 25 19 17 
54 45 46 42 43 46 45 42 43 37 38 36 39 44 56 64 68 71 78 74 80 81 80 80 81 86 80 84 84 86 86 85 85 86 85 86 84 83 84 82 79 82 80 83 82 83 80 77 73 73 75 75 69 70 67 70 67 68 69 62 59 57 49 46 53 54 52 42 39 43 36 33 31 28 25 26 23 27 23 20 
49 45 43 41 38 44 39 40 41 41 38 41 39 45 54 63 66 67 75 75 77 81 80 78 83 79 79 82 83 86 86 86 84 83 85 83 81 80 82 78 79 78 82 83 82 82 79 76 75 72 73 75 70 71 67 66 69 69 68 64 58 57 47 47 52 55 50 43 42 40 38 36 30 31 28 25 27 27 21 24 
49 44 46 44 41 42 43 41 40 41 42 39 38 45 56 63 68 72 71 74 76 81 82 81 81 82 82 83 84 86 87 84 89 87 88 85 84 81 84 82 82 81 82 85 82 82 81 75 77 75 74 72 71 71 69 67 66 69 68 64 61 56 46 49 59 56 52 42 41 39 39 34 30 32 27 23 30 29 24 18 
50 40 42 41 42 43 42 39 37 37 38 36 42 49 58 65 65 72 73 74 76 78 80 82 80 81 84 82 83 87 86 86 87 86 88 86 85 84 84 83 81 82 83 81 83 79 80 76 76 74 73 73 70 72 74 69 67 68 70 62 64 57 47 48 57 57 53 46 42 42 38 36 32 31 25 24 26 24 21 17 
46 38 42 41 40 44 42 42 41 39 41 39 42 48 57 64 67 71 73 75 75 78 81 79 80 80 82 81 85 85 87 86 89 86 86 86 88 82 86 84 84 82 82 81 80 82 80 79 79 77 76 73 69 67 72 68 70 68 67 67 66 60 53 51 60 59 52 45 43 43 38 37 34 31 26 22 23 21 22 18 
50 44 46 42 41 43 45 41 39 41 41 41 44 50 60 63 68 70 71 73 78 78 78 79 85 80 83 84 84 87 87 87 85 88 85 85 87 84 83 85 79 81 80 79 80 81 79 78 78 76 77 72 68 66 71 70 71 69 68 67 71 62 54 56 60 58 55 47 43 46 41 41 36 30 28 26 29 22 22 20 
51 47 47 48 44 45 42 43 41 39 42 41 42 49 59 65 69 70 70 73 78 79 79 81 81 80 83 81 82 79 86 86 87 86 88 82 82 83 86 84 81 79 81 79 82 79 78 79 77 75 75 75 69 68 67 70 67 67 67 66 69 60 55 58 63 60 55 44 44 43 41 39 35 32 26 26 27 27 17 17 
52 48 51 50 45 49 48 43 44 39 41 41 45 53 59 62 69 68 70 72 80 79 83 82 81 83 81 80 84 85 88 85 85 89 86 85 83 84 89 83 80 80 80 79 82 79 78 78 77 74 75 73 71 68 69 65 63 60 65 67 66 64 57 61 61 60 55 46 44 39 42 38 35 32 26 24 31 24 16 17 
51 49 49 51 51 50 48 43 43 41 43 44 45 52 58 66 66 65 67 73 78 81 79 82 81 83 82 80 79 87 87 85 86 86 91 87 84 84 88 79 80 81 80 79 78 78 78 76 76 76 75 76 69 68 70 68 64 68 66 64 68 63 57 63 64 62 54 48 45 41 42 42 35 34 30 30 26 25 21 13 
50 48 47 52 49 49 46 42 45 42 43 46 47 54 59 63 69 67 71 72 77 79 79 83 79 82 84 82 82 84 88 83 84 85 89 86 88 87 86 83 82 82 84 80 81 75 79 80 69 73 76 73 71 71 70 70 70 68 67 66 68 62 59 61 67 66 53 47 44 49 39 42 35 35 31 29 29 26 16 17 
55 54 53 56 51 52 47 46 43 41 44 44 47 53 59 58 67 69 68 70 72 78 78 79 75 83 82 85 80 84 88 85 83 89 90 87 89 86 87 86 78 82 81 81 82 77 76 77 73 75 77 78 74 73 72 71 69 68 67 66 65 61 56 61 64 60 53 49 41 46 45 45 36 32 30 30 30 24 24 21 
60 53 55 54 56 53 51 50 46 46 45 45 43 53 61 62 68 66 71 73 74 75 80 81 79 79 82 84 82 86 87 85 80 90 91 90 88 90 88 87 85 87 86 83 82 81 79 77 77 80 77 76 77 72 77 72 69 70 72 67 63 59 56 65 66 65 59 52 47 48 44 46 42 36 26 31 34 26 22 18 
61 51 56 57 58 59 53 52 46 45 45 44 46 57 59 63 69 67 71 73 78 76 77 76 75 78 79 82 83 86 87 85 85 92 91 92 89 92 92 90 89 89 86 87 87 81 80 80 80 80 76 76 79 78 76 73 70 72 71 69 66 62 57 64 71 65 61 50 45 45 46 47 39 38 31 31 32 28 22 15 
65 53 58 60 60 63 55 52 54 49 49 49 51 59 59 62 68 69 72 75 76 76 72 72 73 80 75 83 86 86 90 92 89 94 95 96 94 95 94 91 91 90 86 88 83 84 83 82 80 77 73 77 76 75 74 72 67 68 69 67 62 57 53 65 66 58 52 42 45 46 48 45 37 39 36 35 32 27 27 18 


