P2
80 60
174
131 133 137 135 142 140 139 138 143 143 148 146 151 151 149 148 147 141 135 131 130 133 139 141 138 139 128 114 113 110 105 104 99 100 103 98 96 97 99 98 96 107 122 132 130 123 123 118 120 122 121 117 125 121 121 122 119 123 123 120 117 112 114 113 109 103 96 92 89 85 82 80 88 80 84 80 80 82 77 82 
133 133 136 138 143 142 139 143 146 142 147 146 149 151 149 151 148 145 137 140 136 137 144 143 141 140 133 115 108 110 107 106 102 104 102 101 97 103 101 104 98 111 128 136 132 128 124 121 121 122 121 123 123 122 122 124 123 124 123 120 117 116 119 113 110 106 97 93 90 84 85 83 84 83 85 82 82 83 80 77 
136 136 134 137 144 142 144 145 150 147 150 150 148 153 146 152 149 143 136 140 138 141 141 141 140 142 131 114 111 107 110 106 103 100 104 104 99 103 104 105 104 117 131 131 129 129 123 119 123 126 128 126 125 128 125 126 129 125 125 124 117 122 119 116 115 113 99 95 95 92 89 86 87 85 88 83 82 83 84 78 
135 132 136 139 144 143 143 146 146 147 149 149 149 151 150 152 148 144 139 138 140 141 144 143 146 140 131 119 111 109 107 114 108 103 106 105 102 104 108 109 109 121 126 124 121 116 112 109 111 121 125 126 130 129 128 129 129 126 129 122 118 121 119 115 115 113 99 96 99 95 90 89 86 87 87 88 84 83 84 83 
138 134 136 139 141 141 146 148 145 147 155 152 151 152 153 151 152 145 141 138 138 141 141 142 145 141 130 114 112 110 110 112 109 107 109 110 108 111 112 113 111 120 122 119 114 109 107 103 107 109 121 127 131 132 132 130 131 129 128 127 124 125 122 123 114 112 105 98 100 97 93 92 89 89 92 88 84 87 82 87 
130 134 134 139 143 143 144 150 150 148 154 152 151 152 152 150 151 146 142 140 140 144 144 144 143 144 132 116 115 112 115 112 111 113 116 117 119 119 116 113 110 117 118 111 109 107 101 102 105 103 108 114 124 129 133 131 133 131 127 125 122 125 126 124 122 115 105 102 101 98 92 95 94 94 93 90 84 87 83 85 
133 135 137 138 141 141 143 147 147 147 152 151 151 152 151 156 153 143 141 140 139 142 141 143 141 143 128 117 116 115 116 115 119 120 126 129 123 122 117 111 102 104 104 107 109 104 104 97 96 98 105 107 113 120 127 132 132 134 129 129 125 128 129 124 122 113 109 103 100 98 92 95 96 97 96 91 90 87 86 86 
134 132 135 137 141 142 143 149 149 152 151 151 152 153 152 155 152 150 143 138 143 140 147 143 143 142 125 116 118 116 120 123 125 124 126 129 119 119 112 104 105 101 104 107 108 106 101 99 96 96 102 109 108 108 113 123 130 134 133 132 125 131 130 126 127 118 109 104 103 100 98 99 97 99 97 94 89 91 90 87 
133 136 134 138 140 143 143 149 148 152 153 153 157 155 153 154 153 148 143 143 143 143 145 142 142 136 118 119 121 121 126 127 126 118 119 120 112 113 108 105 100 103 102 106 106 105 103 97 94 93 101 107 104 104 104 109 119 127 134 131 131 135 132 130 130 122 113 109 105 100 99 101 104 104 100 98 90 92 90 83 
134 131 134 138 142 144 142 149 151 149 151 154 154 155 156 152 153 147 142 143 146 141 144 144 138 136 122 122 121 123 122 122 118 111 108 109 108 108 102 103 101 102 102 105 103 105 102 96 93 95 97 103 100 96 97 100 106 109 121 123 128 132 133 129 129 125 114 112 114 109 105 104 102 105 102 101 95 94 94 89 
132 133 135 139 141 145 144 146 150 151 152 157 153 156 154 151 151 146 143 141 143 140 142 134 130 126 119 121 120 116 119 116 111 106 106 108 103 103 98 102 96 98 98 101 103 102 101 95 95 90 95 98 98 90 95 96 99 96 104 107 115 119 125 126 126 121 116 109 109 106 106 107 107 107 104 98 96 98 94 89 
132 130 135 136 143 145 148 148 150 151 150 152 149 155 152 153 152 146 142 141 143 144 133 122 123 115 115 114 115 117 113 115 105 103 101 105 102 100 102 98 99 96 97 103 101 101 99 94 92 90 92 91 90 91 87 86 86 91 93 93 98 108 122 121 121 120 110 104 106 105 101 106 105 104 105 103 95 100 95 93 
132 131 135 139 141 141 147 146 150 149 151 150 147 151 151 153 152 145 142 145 161 154 127 116 111 109 109 112 113 110 109 110 104 99 103 99 96 100 99 98 96 98 95 100 100 99 93 94 93 92 90 87 88 88 85 85 86 87 87 85 84 92 108 116 120 115 105 103 103 102 96 103 104 102 106 100 97 100 94 89 
130 131 133 137 140 143 148 150 149 152 148 154 149 153 150 150 147 146 144 154 174 158 124 108 106 105 108 108 107 108 109 108 106 99 98 100 97 94 95 94 97 97 95 99 97 91 89 90 91 88 88 85 84 83 83 81 82 85 82 80 77 85 94 101 110 114 103 102 105 101 97 102 104 102 101 100 96 98 100 94 
131 126 127 135 138 142 146 147 152 153 150 150 151 153 148 153 149 147 144 152 162 151 119 106 103 104 101 104 107 108 108 104 102 97 97 96 92 94 96 93 94 94 92 97 97 84 86 89 88 88 86 86 82 83 83 82 78 80 78 75 75 75 80 88 92 98 99 96 100 102 96 100 102 104 101 103 94 98 101 94 
128 126 127 134 139 143 149 149 152 151 151 149 147 150 151 151 148 145 140 150 151 136 112 102 101 103 101 104 107 103 105 103 101 95 95 92 95 93 93 92 91 92 92 95 94 82 82 85 85 86 85 82 82 79 80 77 80 79 75 72 71 76 75 78 81 89 92 98 99 100 96 99 99 99 100 98 98 100 100 89 
126 128 127 127 135 140 151 151 149 148 148 150 148 149 149 149 150 144 135 149 141 122 109 98 102 101 101 105 103 98 102 103 99 95 96 92 90 93 94 92 94 93 92 96 93 81 83 87 84 85 81 79 82 75 78 74 75 79 74 73 71 70 73 72 78 84 91 96 98 99 96 99 101 101 102 98 95 100 100 99 
121 124 124 128 137 143 147 150 151 145 144 147 146 148 146 149 148 144 138 141 130 109 106 96 94 97 98 101 100 101 99 101 98 90 93 94 91 91 92 92 89 91 91 95 88 77 78 82 81 81 80 78 76 78 75 74 72 72 70 68 67 68 71 68 71 87 94 95 94 96 96 99 100 100 101 101 94 98 99 95 
123 123 124 129 134 140 143 145 148 144 146 144 145 148 144 146 146 141 133 126 112 99 98 96 94 93 96 96 98 99 102 98 94 93 94 94 88 89 90 91 90 92 91 91 91 78 77 82 78 81 79 75 75 74 73 76 74 71 69 65 69 65 63 63 69 80 87 92 94 93 98 101 103 102 100 99 93 98 94 95 
122 119 123 128 131 136 142 146 145 144 142 142 141 144 143 144 141 134 123 107 100 96 95 93 94 92 93 96 99 98 97 95 92 93 93 90 87 89 91 89 88 91 91 92 86 76 79 81 79 81 81 74 73 72 70 70 69 70 67 66 64 63 66 63 65 71 81 89 93 94 94 97 100 98 99 96 95 97 96 88 
118 121 122 128 130 137 143 137 141 143 145 141 141 143 142 143 141 136 123 104 97 94 94 91 94 90 92 96 99 97 97 96 93 89 91 93 88 89 88 88 83 87 90 91 85 74 78 79 76 77 78 72 68 70 72 67 67 65 61 64 63 63 65 61 63 62 75 86 92 95 91 96 95 97 97 95 92 95 95 95 
117 114 117 122 130 133 137 134 137 138 139 139 140 140 137 139 137 133 121 102 93 90 89 89 91 89 92 94 95 98 97 92 89 88 90 87 82 84 84 85 80 84 85 88 80 71 76 78 79 75 73 67 69 67 66 66 65 65 64 62 60 63 60 58 61 59 67 83 92 91 89 94 95 95 98 95 90 94 92 93 
117 111 117 122 126 132 131 134 136 139 138 137 138 137 135 135 136 129 116 97 91 86 91 86 86 89 92 92 91 95 93 91 87 85 85 84 79 84 78 80 74 83 79 84 77 67 74 73 74 72 72 71 64 68 67 65 63 60 62 56 57 60 57 57 59 62 66 83 90 91 91 92 95 96 95 94 91 92 91 91 
113 109 114 119 121 131 132 133 130 130 130 131 132 132 133 134 134 127 112 90 86 86 89 86 86 84 87 89 89 90 91 89 83 81 81 81 77 75 77 77 75 76 76 76 72 72 72 72 74 69 71 66 67 62 62 63 61 59 59 58 58 58 58 55 59 62 67 84 91 93 90 92 90 95 93 90 86 93 88 86 
108 108 111 115 122 131 132 134 131 132 130 131 130 130 132 132 131 122 110 89 83 82 85 82 81 82 85 86 85 89 91 87 84 80 80 78 73 76 75 76 76 79 74 77 68 64 67 72 71 72 69 65 65 63 63 63 60 58 62 57 59 61 59 59 58 60 67 85 91 92 89 92 92 93 93 91 90 91 88 89 
106 104 109 115 121 125 128 127 127 125 128 124 129 129 128 128 126 123 103 83 81 82 82 77 80 83 79 84 88 86 85 85 83 79 77 77 72 76 78 76 76 76 78 76 69 65 67 70 69 69 68 63 61 63 58 56 58 61 62 59 56 55 55 56 60 64 67 83 93 91 89 91 92 88 87 91 86 88 89 90 
104 103 103 109 113 116 119 116 120 120 123 126 127 127 126 126 124 118 99 80 77 76 81 80 80 80 80 82 82 81 80 84 82 79 77 77 74 73 77 76 75 77 76 75 67 65 67 69 71 69 65 60 62 59 61 59 56 55 57 56 55 52 54 52 56 59 70 82 89 91 90 88 89 85 84 85 82 88 86 84 
100 102 99 104 104 103 107 101 102 102 106 107 109 106 109 114 113 109 95 80 79 77 80 79 76 79 81 77 78 77 76 77 77 79 77 74 71 77 75 76 76 76 75 76 66 59 66 67 66 66 67 61 59 57 57 58 53 53 56 55 55 53 55 53 56 59 67 80 89 87 85 89 88 86 83 87 79 84 86 80 
100 98 98 99 100 96 97 94 93 92 95 94 93 94 92 95 96 89 85 76 75 76 75 77 74 77 77 76 76 73 75 74 74 76 74 72 72 75 76 75 76 75 74 73 63 61 64 65 66 68 63 62 59 60 59 54 54 53 51 54 51 54 52 55 52 58 65 79 84 85 82 84 85 84 84 83 83 82 82 81 
95 94 96 95 92 89 90 87 85 86 90 86 89 87 85 87 83 83 78 77 75 75 78 76 72 75 75 77 73 74 73 71 71 76 75 72 75 77 77 77 73 73 75 74 61 61 63 63 64 68 64 62 56 57 57 58 53 53 54 52 51 52 53 54 53 55 65 77 81 82 79 79 83 83 82 84 80 83 80 79 
92 87 89 87 84 83 82 82 80 77 81 81 81 83 86 83 84 77 77 72 73 74 78 79 80 80 75 75 72 71 71 68 74 77 74 73 73 80 80 74 70 72 72 70 57 58 62 66 66 68 63 60 57 59 58 53 55 54 49 49 49 54 52 50 51 52 63 75 75 82 79 81 80 81 82 81 78 81 79 79 
85 87 85 84 82 76 76 74 74 73 70 73 80 74 78 78 74 74 69 70 73 74 79 76 78 78 76 71 71 73 66 65 70 73 77 72 76 78 78 74 72 76 72 73 59 63 61 61 62 66 62 60 55 54 54 52 51 51 49 51 49 47 52 48 50 50 62 71 75 74 73 77 76 76 76 75 74 76 78 76 
78 79 83 81 82 74 72 67 65 64 69 68 67 69 71 71 71 68 67 71 74 75 77 76 76 73 72 69 68 67 63 65 65 75 75 76 77 77 74 73 70 72 70 67 58 60 61 61 64 63 59 58 57 54 55 54 52 47 51 48 49 48 46 49 45 50 60 68 72 73 72 71 74 75 72 71 69 72 75 66 
77 77 75 79 72 69 66 64 62 61 63 63 67 65 65 68 65 64 64 69 71 72 76 74 76 74 73 68 68 63 62 61 65 72 76 72 74 76 77 74 73 69 69 68 55 58 59 60 63 59 60 54 55 54 55 50 47 49 45 45 44 42 46 47 49 47 54 62 67 67 67 70 69 67 65 66 60 65 65 65 
69 70 76 75 69 63 62 55 55 53 62 60 61 60 62 61 60 58 61 70 69 71 72 71 71 73 69 67 65 64 58 60 65 73 71 73 72 74 72 74 68 70 68 63 54 58 60 59 62 62 58 54 54 53 50 53 46 44 45 43 44 43 44 44 44 46 53 59 61 62 60 63 66 64 60 57 56 61 62 57 
71 69 72 71 66 62 57 53 54 52 56 56 60 57 58 55 58 52 61 67 65 68 70 69 73 74 71 64 63 64 63 63 69 72 73 69 68 75 74 75 70 68 69 63 57 56 59 59 57 58 59 50 53 49 48 51 45 42 42 44 43 46 46 43 44 43 52 56 59 59 58 59 57 57 56 58 54 57 55 54 
69 70 69 70 62 58 54 52 46 50 51 52 54 53 54 54 51 52 60 66 67 68 71 69 73 73 73 68 63 65 64 69 71 71 68 69 71 69 71 71 67 67 67 66 55 60 56 59 60 57 54 55 52 50 50 48 44 41 43 40 42 44 46 45 43 45 48 57 53 53 55 59 54 53 51 51 47 53 50 50 
71 67 65 64 61 56 56 53 46 47 52 52 52 49 52 51 50 49 62 64 68 67 69 70 71 72 75 80 65 62 68 79 73 73 71 73 71 74 72 72 68 68 68 64 56 61 58 58 61 57 55 51 51 52 47 48 44 44 44 41 45 45 44 43 40 40 50 53 53 56 52 56 56 55 51 49 45 49 48 49 
65 65 65 61 57 56 53 50 49 47 48 47 47 49 47 49 44 46 61 60 65 67 71 67 71 73 75 79 74 74 76 81 78 70 72 72 69 72 69 72 68 68 67 59 52 61 57 58 59 55 56 52 52 52 47 48 44 43 43 40 40 40 43 40 40 40 48 50 48 50 48 55 55 50 46 44 40 44 45 40 
63 63 63 60 53 50 50 49 44 43 45 46 44 44 45 46 42 45 57 61 63 63 68 68 68 73 69 76 76 79 77 80 75 72 73 73 70 69 70 69 67 68 67 58 54 58 54 57 57 57 53 50 48 51 50 47 41 41 39 40 39 39 42 38 38 39 45 43 47 49 48 52 51 45 41 42 38 41 40 41 
62 59 62 59 54 51 51 44 43 43 42 43 43 46 44 43 41 46 55 59 65 68 66 63 69 68 71 75 76 74 78 78 73 73 75 74 71 71 69 65 64 67 66 58 55 55 55 56 57 56 52 51 50 50 46 46 39 37 38 35 38 40 37 37 37 36 41 42 43 43 45 47 46 43 38 38 35 38 39 40 
63 56 59 59 51 51 47 41 42 40 41 41 41 44 42 42 42 46 53 59 62 65 66 64 67 71 70 77 77 79 80 78 73 75 76 74 69 70 68 68 67 67 66 56 56 60 56 58 59 56 55 48 50 47 47 44 39 37 37 37 36 35 40 34 30 35 36 39 39 44 41 45 47 41 39 35 34 39 36 35 
62 56 54 55 51 49 46 42 40 44 41 41 40 38 42 38 40 43 51 59 60 65 65 63 69 69 71 71 79 78 79 81 71 79 75 72 70 73 65 66 66 66 67 54 58 61 58 57 59 56 57 51 45 49 47 41 38 37 38 40 38 38 36 32 32 35 37 39 40 41 40 45 43 40 35 38 32 37 32 35 
57 54 52 52 49 46 45 43 37 42 38 37 41 41 42 39 40 45 54 54 60 64 64 66 65 65 69 74 76 78 80 78 75 74 74 71 68 71 69 69 65 65 68 51 56 61 58 58 59 58 57 51 44 47 47 40 39 39 36 37 38 40 35 34 30 31 35 33 37 40 40 42 40 35 37 33 33 35 33 30 
57 53 48 50 48 45 43 39 40 40 41 40 37 40 40 38 36 46 55 58 63 59 64 65 66 67 68 73 78 77 76 78 76 72 74 73 69 71 68 67 66 63 65 45 53 63 60 57 55 55 55 50 48 46 45 43 39 37 40 37 37 37 36 31 31 34 34 34 34 35 35 37 38 35 34 32 32 34 27 22 
57 50 50 48 48 47 44 41 36 39 37 39 39 38 35 35 34 47 57 58 61 63 67 62 64 68 69 75 76 76 79 77 72 71 69 71 68 69 73 65 68 65 64 42 57 64 64 57 56 52 56 51 47 50 46 42 37 40 40 36 36 36 39 31 31 34 33 31 33 34 35 35 35 31 32 27 29 30 28 23 
54 47 47 47 44 46 41 40 36 37 35 35 38 35 33 35 33 47 57 57 61 62 66 63 68 66 65 74 77 75 76 75 75 70 71 72 66 70 70 64 65 64 63 40 59 63 59 57 54 52 55 51 49 49 47 40 34 42 43 39 32 36 33 31 30 35 31 28 30 32 33 31 31 31 30 30 28 26 23 20 
51 47 45 47 45 49 41 39 40 39 36 39 36 36 32 32 33 45 55 61 58 61 61 62 66 65 67 70 72 75 76 75 73 73 71 71 70 71 71 66 66 65 61 40 58 66 59 55 55 53 48 51 47 48 44 42 39 44 42 39 32 31 35 31 30 30 26 30 27 28 30 27 28 24 27 28 25 21 23 20 
49 48 49 46 44 45 41 39 36 36 40 37 36 37 35 32 36 47 52 57 56 61 59 61 60 64 65 71 73 74 75 77 73 71 72 71 71 69 67 67 66 64 57 35 60 63 59 57 55 53 49 48 47 46 43 42 37 41 41 39 35 32 31 26 27 33 24 20 21 22 26 24 26 20 22 23 24 21 18 19 
52 43 44 45 43 42 41 41 35 35 34 37 39 35 35 32 36 49 57 58 58 59 60 58 60 63 65 68 71 72 72 73 71 74 70 69 68 67 66 68 65 64 59 35 57 60 60 56 56 54 49 49 45 47 46 45 40 41 39 39 34 32 29 26 30 30 25 18 19 16 20 21 22 20 18 18 18 18 19 19 
49 46 47 46 46 45 43 42 36 39 39 37 41 37 36 33 38 51 54 59 55 57 59 54 56 59 62 66 70 71 72 75 71 73 72 70 68 67 71 69 67 65 54 36 60 63 58 57 58 55 53 46 45 45 46 43 39 45 41 38 34 34 28 27 26 30 19 18 16 16 15 21 24 19 16 18 17 21 21 14 
50 47 48 46 48 45 44 44 40 39 35 37 41 39 35 37 45 50 55 55 58 56 54 51 54 55 58 65 65 70 71 74 72 71 67 69 69 66 66 66 64 62 53 36 60 60 62 57 56 53 50 47 46 44 46 44 37 39 38 40 35 35 30 26 28 29 21 18 16 15 18 19 18 14 19 16 18 19 16 15 
54 51 51 49 47 46 44 42 37 38 40 38 39 38 38 39 43 52 55 55 56 58 50 49 47 50 57 56 64 63 67 72 71 70 70 68 67 70 67 66 62 62 51 43 57 58 57 55 57 52 52 46 46 41 42 42 41 40 40 38 38 35 29 26 27 29 20 19 14 17 17 17 17 15 14 15 15 17 12 13 
53 49 53 51 48 48 48 44 42 42 41 40 43 42 41 43 51 51 54 56 54 54 54 47 50 51 53 52 50 52 57 66 69 67 66 66 66 66 67 69 60 59 49 44 59 61 57 54 58 54 52 49 46 41 45 40 39 36 38 37 37 33 29 27 30 28 22 17 16 16 15 18 17 10 11 11 11 12 11 8 
56 52 49 51 51 51 49 45 39 39 44 41 41 42 43 45 48 49 53 55 54 54 53 51 50 52 50 50 49 52 50 62 67 69 69 66 65 64 63 63 61 58 52 51 58 56 57 54 55 53 48 43 42 41 40 40 36 41 37 37 32 33 28 27 29 30 19 16 14 17 13 14 17 14 12 14 11 9 11 5 
58 54 53 56 53 53 51 46 44 38 43 40 43 43 42 44 50 52 55 53 54 53 53 52 52 54 52 52 49 46 49 55 62 67 67 65 64 65 65 59 60 60 49 53 57 56 57 51 55 50 47 42 45 43 40 40 36 37 38 33 32 32 28 28 30 27 22 16 13 16 16 16 16 14 14 13 8 11 6 5 
57 56 55 55 53 53 49 46 42 43 44 41 46 41 42 43 48 51 52 51 52 49 52 49 51 53 56 53 54 53 52 55 62 66 66 65 67 62 62 65 60 63 51 55 61 57 54 53 54 50 50 46 48 42 43 38 37 41 36 35 31 29 26 28 32 27 24 14 11 9 15 15 16 14 12 15 9 8 6 7 
62 57 56 53 58 56 50 50 45 48 46 44 41 42 41 42 50 53 54 54 52 52 52 51 52 52 53 57 54 56 55 57 60 64 64 67 68 65 66 66 63 62 51 55 63 59 57 52 52 53 51 45 47 46 44 41 38 43 41 32 31 32 30 28 30 28 17 11 9 15 11 11 12 11 9 8 4 5 7 2 
61 56 58 59 57 59 55 50 48 46 46 42 47 47 46 45 51 55 52 52 56 55 57 54 54 54 53 54 59 59 57 63 60 67 71 70 69 68 70 67 64 60 49 57 65 61 58 52 58 52 50 47 46 44 44 42 38 44 41 36 34 30 34 28 28 26 16 14 7 10 11 13 12 10 9 8 8 5 3 1 
67 58 58 57 58 59 55 52 52 46 49 47 47 49 41 46 52 49 48 53 54 57 58 58 58 50 51 56 61 66 65 66 62 67 72 74 70 74 77 65 63 59 49 58 65 61 56 51 56 51 54 46 48 45 43 42 35 40 38 36 32 31 33 28 27 25 13 10 9 10 9 11 8 11 6 12 5 4 6 0 


