P2
80 60
153
73 76 78 78 76 80 82 81 80 78 83 85 86 83 83 87 87 86 81 84 91 89 89 90 89 93 95 94 97 97 99 97 102 100 101 98 98 99 106 112 124 119 118 127 131 126 124 117 117 119 119 124 126 129 124 124 122 121 120 115 115 108 103 106 100 102 98 98 95 93 85 81 82 84 85 82 75 79 79 73 
75 76 79 75 81 81 80 86 85 85 86 84 88 88 89 84 86 89 85 91 90 87 87 90 92 93 95 97 97 100 98 98 100 100 99 101 102 100 106 110 117 116 119 126 132 131 128 124 121 122 130 130 129 128 129 127 130 127 129 119 115 108 108 108 105 105 106 102 99 100 93 90 88 85 85 80 78 85 77 74 
76 77 79 75 81 81 87 83 82 81 86 84 90 82 83 85 87 85 87 89 93 92 92 94 88 94 94 102 102 97 96 96 100 97 99 104 98 103 104 107 111 114 118 119 129 128 132 135 128 129 131 135 133 133 131 129 131 133 128 120 116 113 110 109 111 108 107 105 102 103 95 90 90 91 86 85 82 79 79 76 
76 76 79 81 82 82 83 82 80 81 87 85 89 83 86 84 85 85 84 88 91 87 92 93 89 92 96 102 99 98 98 102 103 102 99 102 97 102 101 104 106 110 108 115 121 122 131 139 135 134 139 137 136 138 133 133 134 128 128 120 117 112 110 111 109 109 109 103 103 100 97 96 85 90 88 81 81 77 77 71 
77 76 81 79 83 82 84 83 83 81 87 89 87 83 84 83 87 84 81 93 91 87 94 92 92 96 98 99 100 97 99 105 104 101 101 99 101 99 100 103 102 105 109 111 115 115 125 140 137 143 140 143 138 139 137 131 132 133 128 122 116 112 114 115 112 112 108 106 105 104 100 92 89 94 93 88 83 80 77 78 
76 79 84 81 83 82 82 84 78 82 87 88 85 85 86 84 88 88 86 91 94 92 94 92 90 95 99 102 101 104 101 101 103 97 99 100 101 98 101 99 100 103 108 113 115 113 121 143 139 147 140 146 142 143 137 137 136 132 131 128 120 116 117 115 114 115 113 112 109 110 102 99 97 93 92 90 82 84 81 77 
76 79 84 81 80 83 85 86 81 80 85 85 89 87 87 83 89 89 88 89 92 93 93 93 93 99 97 104 104 102 102 99 103 102 99 102 99 98 99 100 97 102 104 108 111 107 123 140 139 146 146 152 148 147 142 140 138 138 132 127 124 121 117 119 111 115 116 115 108 111 103 95 99 97 95 90 87 87 81 83 
82 77 81 81 85 79 84 83 79 84 81 83 86 85 88 88 88 90 88 90 94 92 91 93 95 98 101 105 103 102 101 103 100 100 100 99 96 100 99 97 101 102 107 109 113 110 128 141 142 144 149 153 150 148 144 142 140 140 134 132 130 124 120 120 118 118 115 114 109 108 112 99 101 98 97 94 86 89 86 82 
75 78 82 78 83 82 85 85 79 82 85 87 90 86 85 89 92 92 91 90 97 95 94 96 92 96 99 100 103 105 103 102 102 100 100 100 100 99 103 99 100 101 107 108 114 115 136 142 143 150 148 151 151 149 145 143 144 140 139 137 132 128 125 126 125 121 120 119 114 114 110 103 103 100 99 100 95 94 87 86 
74 78 84 79 87 83 84 81 80 83 88 89 90 87 88 88 88 87 87 89 92 92 92 95 94 95 101 100 101 100 103 107 100 101 99 99 96 100 99 97 97 101 103 109 107 114 135 143 140 148 148 148 149 146 146 144 144 142 136 130 129 127 126 127 123 121 123 123 118 119 111 108 109 112 102 97 94 92 88 88 
74 80 84 85 84 82 85 85 87 85 88 92 90 87 85 85 87 90 87 92 97 91 94 93 93 94 99 100 100 99 100 101 100 99 96 96 95 97 97 100 99 101 103 105 112 112 137 142 143 149 148 152 146 149 142 142 139 140 135 131 125 124 118 122 123 123 121 121 119 117 112 108 110 109 105 102 99 97 92 90 
76 84 83 80 86 84 83 86 86 85 87 89 89 86 85 85 87 85 89 90 89 92 95 92 96 94 96 99 97 99 98 102 96 98 94 97 94 100 100 99 101 98 104 103 105 112 135 142 139 147 150 147 147 149 143 145 140 137 133 131 127 120 119 121 120 117 122 115 116 118 109 109 107 105 107 103 100 97 92 90 
74 81 84 80 83 82 85 84 83 84 86 90 86 87 87 88 88 87 87 86 90 91 88 93 90 94 96 100 96 95 100 98 99 96 95 95 94 101 101 99 97 103 103 105 107 115 135 140 141 150 149 150 148 147 144 140 139 137 131 126 130 123 117 121 119 118 117 116 112 112 110 109 108 107 105 100 101 99 91 92 
77 85 87 82 84 85 92 85 85 84 90 89 90 90 84 88 88 88 88 88 95 92 90 92 89 93 95 95 96 98 98 100 98 99 93 96 97 98 97 95 97 102 99 106 108 116 138 139 143 149 148 149 148 146 145 138 137 134 130 127 124 122 116 118 117 119 117 114 114 112 110 107 108 104 103 100 99 97 91 90 
81 86 87 81 86 85 85 84 87 84 87 87 89 86 86 87 86 91 90 90 93 92 92 90 87 93 95 96 101 98 103 101 98 94 94 94 95 94 101 96 97 99 102 103 103 114 135 140 143 149 148 151 148 148 143 138 135 136 133 127 124 119 118 120 117 116 113 112 115 112 108 107 108 104 100 99 97 95 90 91 
78 82 85 84 86 85 85 88 87 86 87 87 87 87 86 87 88 88 87 85 92 91 88 90 92 94 92 97 98 94 99 98 95 99 93 92 92 91 92 95 95 102 102 102 107 115 138 139 142 148 148 147 146 146 141 136 136 134 129 125 126 120 117 118 114 112 110 110 110 111 107 101 105 102 104 99 94 97 91 94 
78 81 85 79 81 83 85 86 81 84 85 88 83 82 83 86 85 85 83 91 93 93 91 88 89 90 96 97 93 94 94 96 97 94 93 89 92 91 96 98 94 101 102 106 105 119 136 140 140 146 144 145 145 143 144 137 140 132 129 125 121 117 116 119 112 115 107 109 106 109 107 103 105 103 104 96 96 98 97 96 
77 80 85 79 84 83 83 85 82 79 83 88 87 82 85 86 85 87 87 88 94 87 91 87 84 87 92 94 93 92 92 97 94 95 89 91 94 92 93 93 96 99 105 107 102 118 132 140 142 145 142 146 140 143 137 133 133 132 130 124 124 117 117 115 112 117 114 108 106 107 106 102 106 106 101 99 100 95 91 92 
75 81 83 82 82 84 78 82 84 81 85 86 87 84 84 88 89 87 85 87 89 86 88 88 86 86 88 90 89 88 96 91 92 92 91 93 91 91 91 94 94 100 104 102 104 119 130 135 140 140 142 142 140 140 135 131 133 129 125 123 121 118 110 116 115 113 112 108 111 108 106 102 107 105 100 95 95 96 89 92 
75 82 85 82 82 83 82 83 82 81 84 82 83 85 84 87 86 86 85 87 89 90 87 85 84 86 83 85 86 85 89 88 90 90 89 89 90 91 90 88 94 95 101 100 102 121 131 131 139 141 142 142 141 139 131 133 131 127 122 119 116 113 109 109 110 111 109 110 106 109 105 107 107 103 100 97 93 93 89 92 
76 86 87 81 79 78 85 81 81 79 81 85 84 86 84 84 85 85 83 84 86 85 85 83 85 83 83 84 86 85 90 88 88 91 92 93 91 91 89 88 89 92 97 102 105 121 131 135 135 138 139 139 135 135 133 129 133 128 123 122 117 112 107 111 110 111 108 106 106 105 106 96 102 102 101 97 92 89 91 88 
74 79 82 80 81 78 82 81 82 82 82 83 83 84 83 82 85 81 81 85 88 85 85 85 83 82 80 84 81 80 78 80 84 83 90 90 88 91 87 88 84 90 91 100 102 123 131 132 137 140 140 138 133 138 135 130 130 128 122 120 118 111 109 111 108 108 107 106 107 107 101 101 98 98 97 94 92 91 87 88 
78 82 83 83 87 82 81 81 82 83 83 82 85 86 82 83 86 81 82 82 84 86 87 82 80 80 83 80 74 70 68 70 73 79 84 84 85 84 82 85 83 83 89 97 100 121 130 130 136 137 138 137 134 134 129 131 129 126 124 118 116 114 110 113 110 108 109 108 108 106 105 99 101 96 99 93 89 93 90 90 
78 82 84 83 81 80 83 81 82 81 80 84 85 83 81 82 82 84 82 83 84 82 82 79 76 78 79 75 69 67 64 65 65 72 74 78 78 77 80 82 81 82 85 91 95 121 124 123 132 137 134 135 133 134 129 126 127 121 122 117 116 113 108 110 105 108 109 107 103 106 103 98 98 99 93 94 89 91 87 89 
78 81 81 82 83 79 80 81 80 80 81 82 78 81 81 80 82 83 81 77 83 82 81 77 77 80 74 68 63 64 63 63 65 70 72 76 75 77 80 82 81 82 84 85 90 113 122 123 131 134 132 129 131 132 130 127 124 121 116 115 113 111 111 109 107 107 105 110 104 106 103 100 100 94 95 90 87 91 85 85 
77 80 82 81 79 80 85 82 81 80 84 82 81 82 84 78 80 83 79 80 80 78 76 74 75 77 70 66 64 62 64 64 66 66 69 73 77 76 78 80 82 81 83 85 89 116 119 121 130 130 134 130 128 127 126 122 120 117 114 112 108 106 106 109 106 104 105 102 103 103 97 99 95 97 93 91 87 87 81 79 
75 78 84 79 81 80 81 81 81 79 82 86 85 84 82 76 79 78 80 78 81 78 80 77 76 73 66 66 67 65 65 66 65 63 69 71 77 79 80 80 81 81 83 85 91 116 114 120 126 129 124 126 126 126 123 123 121 118 116 113 107 105 105 107 105 106 102 104 104 100 97 97 98 95 91 89 86 90 83 79 
76 79 82 77 80 82 83 83 81 82 86 89 84 81 82 82 83 84 79 80 81 83 78 80 72 69 66 61 64 66 65 63 63 61 64 69 79 78 79 79 82 82 86 84 93 111 113 118 126 121 125 118 123 125 120 120 117 115 111 106 105 103 102 104 105 104 101 100 99 100 98 92 94 93 86 89 83 86 77 77 
75 77 82 77 80 81 83 86 80 83 86 84 87 83 80 80 83 84 78 78 83 81 83 76 72 66 65 63 63 62 62 64 60 65 64 67 72 77 79 81 81 82 83 86 92 111 112 114 122 120 117 117 118 121 116 112 108 105 106 103 103 99 102 105 101 98 100 97 100 95 95 90 93 89 84 84 82 84 76 71 
74 78 82 78 79 81 83 79 83 82 85 88 85 83 81 83 81 79 83 82 80 81 82 78 72 64 67 65 63 65 65 64 64 66 67 72 75 78 80 80 76 82 82 80 92 112 109 116 117 118 117 116 113 118 113 114 108 105 107 99 96 95 96 101 99 98 99 95 95 95 91 89 90 87 87 84 82 81 73 72 
74 76 80 76 76 80 84 84 79 80 83 84 86 86 82 85 82 83 83 81 80 84 85 77 76 68 65 67 63 65 64 65 65 67 68 73 73 79 78 79 75 78 81 85 92 111 109 111 116 118 116 115 112 115 113 107 106 105 101 95 92 97 93 95 95 94 92 91 90 92 90 85 86 83 82 80 80 78 73 68 
74 78 80 77 81 81 83 86 81 81 82 83 86 79 80 80 81 81 79 80 85 82 82 80 75 66 67 68 64 63 63 61 65 63 67 73 78 77 78 75 75 78 82 85 93 103 101 98 93 102 102 106 107 110 112 105 105 103 100 94 93 91 93 97 88 94 89 87 86 85 85 82 81 79 78 75 72 72 69 65 
74 77 81 80 82 84 85 82 82 80 81 83 81 81 78 77 80 83 79 82 86 82 83 81 76 64 62 64 62 64 61 60 61 63 68 73 77 79 79 75 76 80 78 80 87 95 91 91 81 78 81 84 84 96 98 100 109 104 102 96 94 88 91 93 89 89 85 86 83 88 82 78 83 74 75 72 68 71 66 62 
73 77 78 82 80 81 84 83 80 84 83 83 85 81 81 77 81 80 80 82 83 86 83 78 73 64 63 62 63 59 60 59 59 66 72 73 75 75 80 78 75 78 79 82 85 90 83 81 68 67 70 68 73 76 80 87 101 101 103 96 92 87 85 87 85 80 78 81 79 76 77 74 78 72 67 69 66 69 61 59 
73 77 79 80 84 82 86 81 79 80 82 84 83 80 80 76 81 81 78 80 84 81 80 75 72 64 60 62 60 58 59 58 57 64 70 75 75 79 81 78 75 77 79 77 85 86 81 74 64 57 58 62 61 78 87 89 98 98 96 89 84 81 84 81 79 75 75 76 75 76 74 68 71 65 66 60 61 65 54 55 
71 77 80 77 82 81 86 83 76 78 80 84 85 78 78 79 82 79 78 78 81 76 75 74 73 67 60 56 58 61 57 57 58 67 73 75 74 79 77 79 75 75 77 78 83 80 71 66 53 46 47 52 56 73 86 92 92 92 88 85 82 79 80 78 77 73 72 73 71 70 68 64 63 58 59 60 58 58 49 48 
74 79 83 79 82 82 83 80 79 78 81 86 81 79 81 81 82 81 83 81 82 77 74 75 75 70 64 58 60 59 61 61 60 70 74 74 76 79 77 76 73 77 75 78 82 79 67 61 49 41 41 45 45 64 86 88 91 86 89 83 79 76 79 77 72 72 72 69 66 66 64 63 60 58 54 51 51 52 47 45 
73 78 82 79 82 81 87 83 77 80 82 83 83 79 82 84 82 83 80 78 83 76 74 79 75 76 67 62 61 59 61 65 70 79 77 76 76 77 76 76 70 75 75 80 78 74 60 54 45 38 35 33 38 55 79 87 88 88 85 84 76 71 74 72 71 70 69 65 62 63 63 57 58 56 54 49 45 45 42 42 
74 78 82 78 79 80 82 80 81 78 84 82 79 81 80 80 80 78 79 80 81 75 77 74 73 79 78 64 60 61 65 73 83 77 77 78 76 75 73 73 71 75 74 74 74 69 56 52 39 30 28 29 30 39 66 75 82 81 81 78 74 72 70 70 69 66 65 65 59 60 59 56 58 52 45 43 43 41 41 35 
76 77 80 78 78 79 84 84 78 80 81 83 80 79 80 80 77 79 80 75 84 76 77 76 78 77 80 79 68 70 78 84 81 81 80 77 78 75 74 70 70 70 72 72 71 62 49 45 33 24 21 19 22 30 38 46 67 79 76 75 78 72 69 66 63 58 58 57 59 57 56 56 51 50 42 41 39 42 38 35 
77 78 82 78 77 80 83 82 77 80 82 82 78 82 79 77 78 82 74 76 81 77 77 76 76 81 84 84 83 77 80 80 82 78 79 79 76 74 73 70 71 71 71 71 74 60 45 38 32 22 19 18 16 19 25 25 45 69 73 71 72 67 67 61 61 56 57 57 56 50 56 50 49 47 40 40 38 39 34 33 
75 79 84 81 79 79 76 81 78 79 77 80 81 80 77 80 82 78 75 79 82 80 73 78 78 79 85 82 84 78 81 76 79 79 75 79 74 71 72 72 71 71 72 68 56 47 35 29 32 30 25 19 11 14 18 20 32 55 64 65 67 66 62 60 57 53 53 54 53 54 52 54 49 47 36 34 36 35 30 29 
77 77 82 80 79 81 80 79 76 80 79 81 79 75 76 79 79 77 74 78 80 78 75 76 79 78 82 80 83 82 80 80 80 80 76 75 75 73 72 70 69 72 72 65 32 22 21 25 28 28 21 13 6 12 14 17 26 45 63 62 66 60 60 56 50 49 49 53 49 51 49 48 46 41 35 36 33 31 26 26 
77 76 79 78 79 80 80 79 77 81 77 79 79 79 76 78 79 79 76 76 75 78 76 78 76 78 80 82 80 80 82 80 80 79 76 76 77 73 73 70 72 72 70 60 30 19 19 24 33 29 19 11 6 4 11 15 17 29 53 57 60 57 55 54 52 47 49 45 47 48 50 45 45 39 37 35 33 34 27 23 
75 77 77 78 77 78 78 82 78 77 81 81 78 81 80 77 78 80 76 77 79 77 76 77 74 76 78 80 79 83 81 78 79 79 80 81 76 74 73 71 73 70 71 63 32 24 17 22 35 30 19 11 3 5 8 8 9 18 41 52 54 55 54 54 49 47 46 46 45 47 43 45 41 35 34 31 28 32 22 19 
76 77 81 78 77 79 79 82 82 78 79 80 80 79 78 78 78 79 76 78 81 80 76 76 73 79 81 83 84 82 82 80 81 77 77 78 74 72 74 74 74 70 74 61 30 22 20 22 31 34 19 10 5 5 6 2 7 12 27 46 48 51 52 49 44 42 43 44 43 42 48 41 37 34 31 30 27 27 18 18 
78 76 80 74 79 80 84 84 80 79 80 78 81 76 76 76 78 77 80 78 77 76 77 78 76 78 78 81 83 81 80 81 80 74 76 76 72 71 74 72 70 72 71 58 33 23 16 23 31 31 21 11 4 3 3 5 8 9 21 38 46 44 47 45 41 43 43 41 39 41 39 34 39 30 27 29 23 24 17 13 
81 79 77 78 80 82 77 80 83 82 78 81 81 74 77 78 75 77 80 80 78 77 76 75 78 79 80 82 82 80 83 81 77 78 78 74 72 70 73 72 70 69 72 53 30 24 18 18 29 29 24 14 3 5 2 4 8 7 13 28 42 43 45 45 40 40 40 40 36 37 40 34 31 29 27 24 26 20 11 13 
77 77 81 83 79 80 80 81 81 80 81 79 78 77 78 79 81 81 79 82 82 79 77 77 77 79 80 81 84 81 82 82 78 78 76 77 74 72 76 73 74 70 68 53 29 23 19 17 26 28 25 14 5 5 0 3 4 5 7 17 35 40 39 41 39 39 37 33 30 32 37 33 30 26 22 19 22 20 11 10 
78 78 82 82 79 79 80 83 79 81 80 83 83 75 79 78 80 79 80 79 78 76 76 80 77 80 79 82 82 82 81 79 81 80 78 78 77 77 74 71 70 70 69 49 28 22 18 18 17 25 24 17 8 10 4 3 3 8 8 10 29 37 42 39 36 36 36 32 28 34 30 28 26 24 21 19 22 15 6 11 
75 78 79 78 80 82 78 80 77 77 81 83 81 77 77 75 75 80 77 79 79 80 77 79 75 77 79 81 82 82 79 82 79 79 78 77 76 74 76 74 71 70 69 45 27 23 19 17 16 20 17 15 9 4 4 3 6 5 4 7 17 33 37 34 37 36 30 28 30 32 29 26 24 21 18 18 16 19 9 8 
78 78 82 79 76 78 81 78 77 79 77 80 79 76 77 75 79 81 77 77 80 77 77 77 77 80 80 82 80 83 80 79 81 78 77 75 77 74 74 73 68 68 65 40 28 23 22 20 16 13 12 11 8 6 7 6 7 6 7 8 12 25 29 30 32 33 32 28 23 29 28 22 21 17 20 17 18 16 8 12 
80 84 84 79 81 80 79 80 76 75 81 81 78 79 80 76 79 79 79 77 82 80 76 78 77 76 78 80 78 77 80 79 84 80 80 77 75 73 73 71 66 69 67 45 33 28 26 21 19 15 14 17 12 11 11 10 10 8 8 7 14 19 26 30 30 31 33 28 25 28 28 24 20 20 12 16 15 14 8 7 
74 83 82 82 80 79 80 78 74 76 77 82 76 78 75 76 77 78 78 78 81 78 79 78 76 77 79 79 79 77 79 78 80 80 80 80 76 73 76 71 66 65 65 46 39 33 28 30 20 22 20 20 17 14 15 12 11 11 12 11 14 18 26 29 30 30 32 28 21 27 27 18 17 18 12 13 13 10 9 7 
79 80 82 79 82 81 78 76 76 73 79 77 76 78 75 76 76 74 75 79 81 77 80 77 78 78 77 76 77 78 81 80 78 78 80 77 74 72 73 67 68 64 61 47 42 35 33 32 30 26 22 24 18 21 17 19 18 15 11 14 19 22 23 28 28 31 28 30 21 28 23 21 18 15 10 12 7 3 2 7 
81 85 82 82 79 77 80 76 75 77 78 78 76 76 75 76 81 78 79 77 81 80 77 77 77 77 78 76 81 77 81 76 77 75 77 76 75 76 72 68 65 66 65 51 44 38 34 38 31 26 25 23 21 24 22 25 19 17 20 18 26 24 26 32 32 32 31 28 21 25 24 20 14 13 12 10 9 5 5 4 
83 86 84 80 81 81 77 78 74 75 78 78 78 76 76 75 77 81 77 78 81 78 75 77 75 77 78 79 78 78 79 78 78 80 77 75 72 71 73 70 63 67 65 53 47 38 37 36 32 31 26 31 25 25 23 24 24 25 19 20 29 25 26 28 30 30 28 26 19 22 22 19 15 12 12 7 6 3 3 3 
87 88 87 84 84 80 81 77 80 76 79 77 74 76 75 76 79 79 78 83 77 75 74 77 75 77 79 80 79 78 79 77 76 75 77 73 73 71 69 70 68 69 65 47 46 43 35 36 31 32 31 29 28 27 27 22 22 25 25 24 28 27 25 26 31 29 25 24 18 22 22 17 17 11 10 9 5 4 0 7 
89 90 91 84 84 84 83 85 78 81 78 81 80 76 79 77 78 80 78 80 80 78 79 74 75 75 76 79 77 77 80 80 77 79 77 77 77 73 75 68 70 69 60 54 49 40 38 37 38 32 28 27 27 30 28 25 24 28 25 32 33 27 24 27 27 28 26 22 13 16 21 16 13 8 10 10 5 0 2 4 
101 92 94 88 87 87 88 85 83 80 82 80 86 81 82 77 80 80 80 81 83 79 79 79 79 80 75 81 79 81 83 82 77 81 78 79 78 78 78 70 71 68 58 51 47 42 41 42 37 27 25 28 26 29 28 24 28 29 27 31 28 23 21 26 24 21 15 10 11 13 18 16 7 12 9 10 4 6 0 11 


